<svg id="Layer_1" xmlns="http://www.w3.org/2000/svg" viewBox="0 0 129 11"><style>.st0{fill:#fff}</style><path class="st0" d="M.5.6v8.7h1.1V.6H.5zM3.5 9.3h1.1V5.5c0-.2 0-.4.1-.5.2-.6.8-1.2 1.5-1.2 1.1 0 1.4.8 1.4 1.8v3.6h1.1V5.6c0-2.1-1.3-2.7-2.2-2.7-1 0-1.8.6-2.1 1.2L4.5 3h-1c0 .5.1 1 .1 1.7v4.6zM9.5 3l2.4 6.2H13L15.4 3h-1.2L13 6.5c-.2.6-.4 1.1-.5 1.6-.1-.5-.3-1-.5-1.6L10.7 3H9.5zM21.4 6.4v-.5c0-1.1-.5-2.9-2.6-2.9-1.8 0-2.9 1.5-2.9 3.4S17 9.5 19 9.5c1 0 1.7-.2 2.1-.4l-.2-.8c-.4.2-.9.3-1.7.3C18 8.5 17 7.9 17 6.4h4.4zM17 5.6c.1-.8.6-1.8 1.7-1.8 1.3 0 1.6 1.1 1.6 1.8H17zM22.4 9c.4.3 1.1.4 1.8.4 1.5 0 2.3-.8 2.3-1.9 0-.9-.6-1.5-1.6-1.9-.8-.3-1.2-.5-1.2-1.1 0-.5.4-.9 1-.9s1 .2 1.3.4l.3-.8c-.3-.2-.9-.4-1.5-.4-1.3 0-2.2.8-2.2 1.8 0 .7.5 1.4 1.6 1.8.8.3 1.2.6 1.2 1.1 0 .5-.4.9-1.2.9-.6 0-1.2-.2-1.5-.5L22.4 9zM32.2 8.2c-.3.1-.7.3-1.4.3-1.2 0-2.2-.9-2.2-2.3 0-1.3.8-2.4 2.2-2.4.6 0 1 .1 1.3.3l.3-.9c-.3-.2-.9-.3-1.6-.3-2 0-3.3 1.4-3.3 3.3s1.2 3.2 3.1 3.2c.8 0 1.5-.2 1.8-.4l-.2-.8zM36.5 2.9c-1.7 0-3.1 1.2-3.1 3.3 0 2 1.3 3.2 3 3.2 1.5 0 3.1-1 3.1-3.3 0-1.9-1.3-3.2-3-3.2zm-.1.9c1.3 0 1.9 1.3 1.9 2.4 0 1.4-.8 2.4-1.9 2.4-1.1 0-1.9-1-1.9-2.4 0-1.2.6-2.4 1.9-2.4zM43.6 9.3c.6.1 1.2.1 2 .1 1.7 0 3-.4 3.8-1.2.8-.8 1.2-2 1.2-3.4s-.5-2.4-1.2-3.1C48.6 1 47.5.6 45.9.6c-.9 0-1.7.1-2.4.2v8.5zm1.2-7.8c.3-.1.7-.1 1.3-.1 2.4 0 3.5 1.3 3.5 3.3 0 2.3-1.3 3.7-3.7 3.7-.4 0-.9 0-1.1-.1V1.5zM53.3 9.3V3h-1.1v6.2h1.1zM52.7.6c-.4 0-.7.3-.7.7 0 .4.3.7.7.7.5 0 .7-.3.7-.7 0-.4-.3-.7-.7-.7zM54.5 9c.4.3 1.1.4 1.8.4 1.5 0 2.3-.8 2.3-1.9 0-.9-.6-1.5-1.6-1.9-.8-.3-1.2-.5-1.2-1.1 0-.5.4-.9 1-.9s1 .2 1.3.4l.3-.8c-.3-.2-.9-.4-1.5-.4-1.3 0-2.2.8-2.2 1.8 0 .7.5 1.4 1.6 1.8.8.3 1.2.6 1.2 1.1 0 .5-.4.9-1.2.9-.6 0-1.2-.2-1.5-.5L54.5 9zM60.3 1.6V3h-1v.9h1v3.4c0 .7.1 1.3.4 1.6.3.3.7.5 1.2.5.4 0 .8-.1 1-.2l-.1-.9c-.1 0-.4.1-.7.1-.6 0-.9-.4-.9-1.2V3.9H63V3h-1.6V1.3l-1.1.3zM64.5 9.3h1.1V6c0-.2 0-.4.1-.5.1-.9.7-1.5 1.5-1.5h.4V2.9h-.3c-.8 0-1.4.5-1.7 1.4h-.1V3.1h-1c0 .6.1 1.2.1 1.9v4.3zM69.8 9.3V3h-1.1v6.2h1.1zM69.3.6c-.4 0-.7.3-.7.7 0 .4.3.7.7.7.4 0 .7-.3.7-.7 0-.4-.3-.7-.7-.7zM72.4 9.3l.1-1c.5.8 1.2 1.2 2.1 1.2 1.4 0 2.8-1.1 2.8-3.3 0-1.9-1.1-3.2-2.6-3.2-1 0-1.7.5-2.1 1.1v-4h-1.1v7.5c0 .6 0 1.2-.1 1.6h.9zm.2-3.6c0-.2 0-.3.1-.5.2-.9 1-1.4 1.7-1.4 1.2 0 1.9 1.1 1.9 2.3 0 1.4-.7 2.4-1.9 2.4-.8 0-1.5-.5-1.7-1.3 0-.1-.1-.3-.1-.4V5.7zM83.9 3h-1.1v3.8c0 .2 0 .4-.1.6-.2.5-.7 1-1.5 1-1 0-1.4-.8-1.4-2V3h-1.1v3.6c0 2.2 1.2 2.7 2.2 2.7 1.1 0 1.8-.7 2.1-1.2l.1 1h1c0-.5-.1-1.1-.1-1.7V3zM86 1.6V3h-1v.9h1v3.4c0 .7.1 1.3.4 1.6.3.3.7.5 1.2.5.4 0 .8-.1 1-.2l-.1-.9c-.1 0-.4.1-.7.1-.6 0-.9-.4-.9-1.2V3.9h1.6V3h-1.6V1.3l-.9.3zM92.7 2.9c-1.7 0-3.1 1.2-3.1 3.3 0 2 1.3 3.2 3 3.2 1.5 0 3.1-1 3.1-3.3 0-1.9-1.2-3.2-3-3.2zm0 .9c1.3 0 1.9 1.3 1.9 2.4 0 1.4-.8 2.4-1.9 2.4-1.1 0-1.9-1-1.9-2.4 0-1.2.6-2.4 1.9-2.4zM97.2 9.3h1.1V6c0-.2 0-.4.1-.5.1-.9.7-1.5 1.5-1.5h.4V2.9h-.3c-.8 0-1.4.5-1.7 1.4h-.1V3.1h-1c0 .6.1 1.2.1 1.9v4.3zM100.9 9c.4.3 1.1.4 1.8.4 1.5 0 2.3-.8 2.3-1.9 0-.9-.6-1.5-1.6-1.9-.8-.3-1.2-.5-1.2-1.1 0-.5.4-.9 1-.9s1 .2 1.3.4l.3-.8c-.3-.2-.9-.4-1.5-.4-1.3 0-2.2.8-2.2 1.8 0 .7.5 1.4 1.6 1.8.8.3 1.2.6 1.2 1.1 0 .5-.4.9-1.2.9-.6 0-1.2-.2-1.5-.5l-.3 1.1zM106.3 10.8c.4-.6.9-2 1.2-3.1l-1.3.1c-.1.9-.5 2.3-.8 3.1l.9-.1zM111.4.6v8.7h1.1V.6h-1.1zM114.5 9.3h1.1V5.5c0-.2 0-.4.1-.5.2-.6.8-1.2 1.5-1.2 1.1 0 1.4.8 1.4 1.8v3.6h1.1V5.6c0-2.1-1.3-2.7-2.2-2.7-1 0-1.8.6-2.1 1.2l-.1-1h-1c0 .5.1 1 .1 1.7v4.5zM125.7 8.2c-.3.1-.7.3-1.4.3-1.2 0-2.2-.9-2.2-2.3 0-1.3.8-2.4 2.2-2.4.6 0 1 .1 1.3.3l.3-.9c-.3-.2-.9-.3-1.6-.3-2 0-3.3 1.4-3.3 3.3s1.2 3.2 3.1 3.2c.8 0 1.5-.2 1.8-.4l-.2-.8zM127.8 9.4c.5 0 .8-.3.8-.8s-.3-.8-.8-.8-.8.3-.8.8.3.8.8.8z"/></svg>