<svg id="Layer_1" xmlns="http://www.w3.org/2000/svg" viewBox="0 0 206 38"><style>.st0{fill:#fff}</style><path class="st0" d="M202.9 23.6c-1.6 0-3.1 1.2-3.1 3s1.3 3 3.1 3c1.6 0 3.1-1.2 3.1-3-.1-1.7-1.5-3-3.1-3zM200.4 12.5l2.6-2.1v-.1h-7.5v.1l2.9 2.1-4.8 12.7-4.9-12.6 2.8-2.2v-.1h-11v.1l2.4 2.2 6.9 16.6 2.7-.1-7.1 8.6v.3h5l4.8-12.3h-.2zM172.8 23.6V11.7h6.1v-1.5h-6.1V4.9h-.6l-4.9 5.3h-3V12h3v11.1c0 3.7.7 6.7 5.2 6.7 2.4 0 5-1.2 6.7-2.8v-.6c-1.2.6-2.7.7-3.4.7-2.1-.4-3-1.3-3-3.5zM160.1 10.3h-8.3v.1l2.8 2.7v13.6l-2.8 2.2v.2h11.1v-.2l-2.8-2.2zM157.2 6.6c1.8 0 3.3-1.2 3.3-3.3 0-1.8-1.5-3.3-3.3-3.3S154 1.4 154 3.3s1.5 3.3 3.2 3.3zM147.2.2h-8.3v.3l2.8 2.8v23.4l-2.7 2.2v.2h11.1v-.2l-2.9-2.2zM134.7 10.3h-8.3v.1l2.8 2.7v13.6l-2.8 2.2v.2h11.1v-.2l-2.8-2.2zM131.9 6.6c1.8 0 3.3-1.2 3.3-3.3 0-1.8-1.5-3.3-3.3-3.3s-3.3 1.2-3.3 3.3c0 1.9 1.7 3.3 3.3 3.3zM115.4 9.8c-2.1 0-3.9 1.2-5.8 2.4V.2h-8.3v.3l2.8 2.8v25.9h8.4c5.9 0 11.3-3 11.3-10.4-.1-4.7-2.3-9-8.4-9zm-2.6 18.1c-1 0-2.1-.6-3.3-1.2V13.4c1.3-.6 2.4-1 3.4-1 3.4 0 5 2.5 5 7.1.2 5-2 8.4-5.1 8.4zM97.4 10.3h-8.3v.1l2.8 2.7v13.6l-2.8 2.2v.2h11.1v-.2l-2.8-2.2zM94.7 6.6c1.8 0 3.3-1.2 3.3-3.3C98 1.5 96.5 0 94.7 0s-3.3 1.2-3.3 3.3c0 1.9 1.5 3.3 3.3 3.3zM82.5 18.4l-4.1-2.1c-2.5-1.2-3.4-1.9-3.4-3.4 0-1.3 1-2.1 2.8-2.1.4 0 1 .1 1.6.1l5.5 5.2h.1v-5.8c-1.5-.3-4.4-.6-6.8-.6-4 0-7.4 1.9-7.4 5.5 0 2.4 1.2 4 4.1 5.3l4 1.8c2.4 1.2 3.3 2.2 3.3 3.3 0 1.6-1.2 2.5-3.7 2.5-.9 0-1.5-.1-2.4-.1l-5.5-5.5h-.1V29c1.9.3 5 .4 7.1.4 4 0 8.7-1.5 8.7-6.2.2-2.3-1.2-3.6-3.8-4.8zM62.7 18.4l-4.1-1.9c-2.5-1.2-3.4-1.9-3.4-3.4 0-1.3 1.2-2.1 2.8-2.1.4 0 1 .1 1.6.1l5.5 5.2h.1v-5.9c-1.5-.3-4.4-.6-6.8-.6-4 0-7.4 1.9-7.4 5.5 0 2.4 1.2 4 4.1 5.3l3.9 1.8c2.4 1.2 3.3 2.2 3.3 3.3 0 1.6-1.2 2.5-3.7 2.5-.9 0-1.5-.1-2.4-.1l-5.5-5.5h-.1v6.5c1.9.3 5 .4 7.1.4 4 0 8.7-1.5 8.7-6.2.3-2.4-1.2-3.7-3.7-4.9zM36.8 9.8C31.2 9.8 26 13.7 26 19.9c0 5.5 4.4 9.6 10.2 9.6 5.6 0 10.8-3.9 10.8-9.9 0-5.5-4.3-9.8-10.2-9.8zm.3 18.5c-3.4 0-5.2-4.9-5.2-9.5 0-4.3 1.3-7.7 4.1-7.7 3.6 0 5.2 4.9 5.2 9.2 0 4.5-1.5 8-4.1 8zM14.1 9.8c-2.1 0-3.9 1-5.8 2.2v-2H0v.3l2.8 2.8v22.5L0 37.7v.3h11.9v-.3l-3.6-2.1v-6.4h3.3c5.5 0 10.8-3 10.8-10.5 0-4.6-2.2-8.9-8.3-8.9zm-2.8 17.8c-1 0-2.1-.3-3.1-.9V13.2c1.3-.6 2.4-.9 3.3-.9 3.4 0 5.2 2.5 5.2 7.1 0 4.9-2.2 8.2-5.4 8.2z"/></svg>