<svg id="Layer_1" xmlns="http://www.w3.org/2000/svg" viewBox="0 0 409 35"><style>.st0{fill:#00c}</style><path class="st0" d="M11.5 34.4v-.3l-4.7-3 2.9-8.3h12.1l3.2 8.7-3.2 2.6v.3h13.7v-.3l-3.2-2.6L20.4.6h-6.8l1 2.8L4.4 31.2l-4.1 3v.3h11.2zm4.1-28.2l5.5 14.7H10.5l5.1-14.7zM46.8 34.8c4.6 0 8.4-2.5 9.8-4.2V30c-1.4.7-3.2 1.4-5.2 1.4-7.1 0-8.8-6.1-8.8-10.3 0-5.3 1.9-7.9 5-7.9h.4l7.7 7.3h.2v-7.2c-1.8-.8-4.9-1.4-8.1-1.4-7.3 0-11.7 5.1-11.7 11.7-.1 6.4 4 11.2 10.7 11.2zM69.6 34.8c4.6 0 8.4-2.5 9.8-4.2V30c-1.4.7-3.2 1.4-5.2 1.4-7.1 0-8.8-6.1-8.8-10.3 0-5.3 1.9-7.9 5-7.9h.4l7.7 7.3h.2v-7.2c-1.8-.8-4.9-1.4-8.1-1.4-7.3 0-11.7 5.1-11.7 11.7-.1 6.4 4.1 11.2 10.7 11.2zM92.8 34.8c4.5 0 7.7-1.9 10.1-4.4v-.6c-1.8 1-3.6 1.4-5.7 1.4-5 0-7.7-2.8-8.6-6.9l14.9-3.1c-1.1-6.3-4.8-9.5-10.3-9.5-7.2 0-11.5 5.4-11.5 11.8s4.5 11.3 11.1 11.3zm-4.5-14c0-4.2 1.5-7.6 4.6-7.6 2.2 0 3.5 2.9 3.8 7.2l-8.2 2.9c-.2-.7-.2-1.6-.2-2.5zM114.5 34.8c4.7 0 10.2-1.6 10.2-7.2 0-2.7-1.7-4.3-4.6-5.7l-4.9-2.4c-3-1.4-4.1-2.4-4.1-3.9 0-1.6 1.3-2.4 3.2-2.4.6 0 1.2.1 2 .2l6.5 6h.1v-6.9c-1.7-.4-5.2-.7-8.1-.7-4.6 0-8.7 2.3-8.7 6.5 0 2.8 1.4 4.6 4.9 6.3l4.6 2.2c2.8 1.3 3.8 2.7 3.8 3.8 0 1.8-1.4 2.9-4.3 2.9-1 0-1.8-.1-2.7-.2l-6.3-6.6h-.2v7.6c2.5.3 6.1.5 8.6.5zM136.2 34.8c4.7 0 10.2-1.6 10.2-7.2 0-2.7-1.7-4.3-4.6-5.7l-4.9-2.4c-3-1.4-4.1-2.4-4.1-3.9 0-1.6 1.3-2.4 3.2-2.4.6 0 1.2.1 2 .2l6.5 6h.1v-6.9c-1.7-.4-5.2-.7-8.1-.7-4.6 0-8.7 2.3-8.7 6.5 0 2.8 1.4 4.6 4.9 6.3l4.6 2.2c2.8 1.3 3.8 2.7 3.8 3.8 0 1.8-1.4 2.9-4.3 2.9-1 0-1.8-.1-2.7-.2l-6.3-6.6h-.2v7.6c2.6.3 6.1.5 8.6.5zM174.6 31.5v-.7c-1.4.6-3.1.9-3.9.9-2.6 0-3.6-1.1-3.6-3.8V14.2h7.1v-1.9h-7.1V6.2h-.8l-5.7 6.1h-3.5v1.9h3.5v12.9c0 4.4.9 7.7 6.1 7.7 2.7 0 6-1.3 7.9-3.3zM188 34.8c6.6 0 12.6-4.4 12.6-11.7 0-6.4-5.1-11.3-12-11.3-6.6 0-12.6 4.4-12.6 11.7 0 6.5 5.1 11.3 12 11.3zm1-1.4c-4.1 0-6.1-5.6-6.1-11.1 0-4.9 1.5-9 4.9-9 4.2 0 6.1 5.6 6.1 10.8 0 5.2-1.8 9.3-4.9 9.3zM215.1 34.4v-.3l-3.2-2.5V16.7c1.8-.9 3.5-1.4 5.4-1.4 2.7 0 3.7 1.4 3.7 5v11.4l-3.2 2.5v.3h12.9v-.3l-3.2-2.5V20.4c0-1.4 0-2.6-.2-3.6 1.7-.9 3.6-1.5 5.6-1.5 2.8 0 3.7 1.4 3.7 5v11.4l-3.2 2.5v.3h12.9v-.3l-3.2-2.5V20.4c0-5.8-.9-8.4-6.3-8.4-3.2 0-6.4 1.1-9.4 3.2l-.3.2c-.7-2.3-2.3-3.4-5.9-3.4-3.1 0-6.2 1.1-9.2 3.1v-2.8h-9.7v.3l3.2 3.4v15.6l-3.2 2.5v.3h12.8zM259.3 34.8c6.6 0 12.6-4.4 12.6-11.7 0-6.4-5.1-11.3-12-11.3-6.6 0-12.6 4.4-12.6 11.7-.1 6.5 5.1 11.3 12 11.3zm.9-1.4c-4.1 0-6.1-5.6-6.1-11.1 0-4.9 1.5-9 4.9-9 4.2 0 6.1 5.6 6.1 10.8 0 5.2-1.7 9.3-4.9 9.3zM287.1 34.4v-.3l-4.1-2.6V19.9c0-2 1.1-3.2 2.4-3.8l5.9 3.4h.2v-7.7c-3.8.1-7 1.9-8.6 4.7h-.1v-4.3h-9.5v.3l3.2 3v16l-3.2 2.6v.3h13.8zM306.1 34.4v-.3l-4.1-2.6V19.9c0-2 1.1-3.2 2.4-3.8l5.9 3.4h.2v-7.7c-3.8.1-7 1.9-8.6 4.7h-.1v-4.3h-9.5v.3l3.2 3v16l-3.2 2.6v.3h13.8zM324.2 34.8c6.6 0 12.6-4.4 12.6-11.7 0-6.4-5.1-11.3-12-11.3-6.6 0-12.6 4.4-12.6 11.7 0 6.5 5.1 11.3 12 11.3zm.9-1.4c-4.1 0-6.1-5.6-6.1-11.1 0-4.9 1.5-9 4.9-9 4.2 0 6.1 5.6 6.1 10.8 0 5.2-1.7 9.3-4.9 9.3zM340.4 15.1l7.8 19.3h4.1l6.3-15.4 6.3 15.4h4.1l7.8-19.4 3.1-2.5v-.3h-8.4v.3l3.3 2.4-5.6 14.8-5.2-14.6 3.2-2.6v-.3h-12.4v.3l2.3 2.5.6 1.4-5.2 13.1-5.3-14.5 3.3-2.5v-.3h-13v.3l2.9 2.6z"/><path class="st0" d="M379.8 12.2l.3.7c4.4-1.3 7.4-5 7.4-8.5 0-2.4-1.4-4.2-3.8-4.2-2.1 0-3.5 1.6-3.5 3.4 0 2.2 1.5 3.5 3.6 3.5-.1 1.8-1 3.7-4 5.1zM398.4 34.8c4.7 0 10.2-1.6 10.2-7.2 0-2.7-1.7-4.3-4.6-5.7l-4.9-2.4c-3-1.4-4.1-2.4-4.1-3.9 0-1.6 1.3-2.4 3.2-2.4.6 0 1.2.1 2 .2l6.5 6h.1v-6.9c-1.7-.4-5.2-.7-8.1-.7-4.6 0-8.7 2.3-8.7 6.5 0 2.8 1.4 4.6 4.9 6.3l4.6 2.2c2.8 1.3 3.8 2.7 3.8 3.8 0 1.8-1.4 2.9-4.3 2.9-1 0-1.8-.1-2.7-.2l-6.3-6.6v7.6c2.3.3 5.9.5 8.4.5z"/></svg>