<svg id="Layer_1" xmlns="http://www.w3.org/2000/svg" viewBox="0 0 132 45"><style>.st0{fill:#00c}</style><path class="st0" d="M17.7 31.3v-.7c-1.4.6-3.1.9-3.9.9-2.6 0-3.6-1.1-3.6-3.8V14h7.1v-1.9h-7.1V6h-.7l-5.7 6.1H.3V14h3.5v12.9c0 4.4.9 7.7 6.1 7.7 2.7.1 5.9-1.3 7.8-3.3zM31.1 34.7c6.6 0 12.6-4.4 12.6-11.7 0-6.4-5.1-11.3-12-11.3-6.6 0-12.6 4.4-12.6 11.7 0 6.4 5.2 11.3 12 11.3zm1-1.5c-4.1 0-6.1-5.6-6.1-11.1 0-4.9 1.5-9 4.9-9 4.2 0 6.1 5.6 6.1 10.8 0 5.2-1.8 9.3-4.9 9.3zM63.4 31.8v2.4h9.5v-.3l-3.2-2.6V.4H60v.3L63.1 4v9c-1.8-.9-3.4-1.4-5.5-1.4-4.6 0-11.3 2.8-11.3 12.1 0 6.9 4 10.9 9.9 10.9 2.7.1 5-1.3 7.2-2.8zm-4.1-.1c-3.7 0-6.3-3.2-6.3-8.6 0-5.6 2.4-9.5 6.2-9.5 1.4 0 2.8.4 4 1.4v15.5c-1.3.8-2.6 1.2-3.9 1.2zM88.3 31.2v3h9.5v-.3l-3.2-2.6v-9.1c0-6.1-.9-10.6-9-10.6-3.2 0-6.3.2-9.7.4v8h.1l6.1-7h.5c4.3 0 5.5 2 5.5 7.2v.8L76 24.2c-.7.8-1.8 2.6-1.8 4.7 0 2.9 2.3 5.8 6.6 5.8 3.3 0 5.8-1.8 7.5-3.5zm-3.9.5c-2.3 0-3.6-1.5-3.6-3.8 0-1.4.5-2.3.9-3l6.3-2.7v8c-.8.8-2.2 1.5-3.6 1.5zM103 44.6h5.9l5.3-14.3 6.1-15.4 3.2-2.5v-.3h-8.7v.3l3.3 2.5-5.5 14.8-5.7-14.7 3.3-2.6v-.3h-13v.3L100 15l8.2 19.4 3.1-.1-8.4 9.9v.4zM128.1 34.7c2 0 3.6-1.3 3.6-3.5 0-2-1.6-3.4-3.6-3.4s-3.6 1.4-3.6 3.4c.1 2.2 1.6 3.5 3.6 3.5z"/></svg>