<?xml version="1.0" encoding="UTF-8"?>
<svg id="Layer_1" xmlns="http://www.w3.org/2000/svg" viewBox="0 0 900 114.58">
  <defs>
    <style>
      .cls-1 {
        fill: #fff;
      }
    </style>
  </defs>
  <path class="cls-1" d="M335.49,58.11c-1.63,5.32-3.4,11.56-4.16,14.93-.75-3.25-2.57-9.73-4.16-14.93l-9.71-31.57h-19.17l23.83,68.2h17.9l23.83-68.2h-18.66l-9.71,31.57Z"/>
  <path class="cls-1" d="M268.13,25.11c-6.93,0-12.47,2.73-15.49,5.97v-4.54h-17.41v68.2h17.41v-37.28c0-11.82,4.16-15.46,11.33-15.46s11.23,3.64,11.23,15.84v36.9h17.39v-38.45c0-19.21-7.56-31.18-24.46-31.18Z"/>
  <polygon class="cls-1" points="202.73 94.74 220.13 94.74 220.13 0 202.73 8.97 202.73 94.74"/>
  <polygon class="cls-1" points="157.8 71.37 148.13 68.06 128.81 54.76 109.49 34.8 109.49 21.5 96.61 8.2 96.61 1.57 90.17 1.57 74.08 4.89 64.41 21.5 57.97 34.81 45.09 48.11 45.09 54.76 35.43 64.73 32.22 61.41 6.45 74.71 0 78.01 0 91.44 7.04 95.07 19.32 88.69 35.43 91.32 35.43 97.97 35.43 104.62 45.11 107.95 57.97 94.66 67.62 94.66 67.62 101.29 64.41 107.93 68.91 114.58 83.75 107.95 80.52 97.97 83.73 81.36 90.18 81.35 90.17 87.99 99.84 91.32 103.07 101.3 109.51 107.96 115.93 101.32 135.25 94.64 128.81 88.01 122.37 74.71 115.93 74.71 119.15 84.69 122.37 88.01 115.93 94.66 109.5 94.66 103.05 81.36 103.05 74.71 90.17 61.39 96.61 54.74 83.75 41.46 90.17 34.81 90.17 21.52 96.61 14.86 106.28 24.83 103.05 34.8 109.49 41.44 122.37 61.41 135.25 68.04 151.35 84.67 161.02 88 161.01 94.66 167.45 94.66 173.89 88.01 161.01 81.34 157.8 71.37"/>
  <path class="cls-1" d="M398.23,25.12c-17.4,0-31.53,14.68-31.53,35.59s13.79,35.46,33.1,35.46c7.01,0,18.48-2.73,25.67-12.86l-13.36-10.06c-3.36,4.49-8.41,6.04-12.31,6.04-6.88,0-14.06-3.97-15.27-12.87h43.56c.2-2.14.27-3.11.27-5.71,0-19.48-11.68-35.59-30.14-35.59ZM384.81,52.92c1.12-6.89,6.23-12.21,12.79-12.21,8.37,0,12.47,5.65,13.37,12.21h-26.16Z"/>
  <path class="cls-1" d="M700.56,8.13c-22.64,0-35.84,18.1-35.84,43.85s13.2,43.85,35.84,43.85c4.6,0,8.49-.73,12.26-2.31l5.9,8.87,12.62-8.5-6.13-9.23c7.07-7.65,11.2-18.71,11.2-32.68,0-25.75-13.2-43.85-35.84-43.85ZM716,70.69l-5.31-8.14-12.61,8.5,5.54,8.5c-.82.12-1.77.24-2.71.24-13.44,0-19.22-12.39-19.22-27.82s5.42-26.97,18.86-26.97,18.86,11.78,18.86,26.97c0,7.17-.94,13.97-3.42,18.71Z"/>
  <path class="cls-1" d="M603.04,25.11c-19.05,0-34.49,15.98-34.49,35.6s15.44,35.46,34.49,35.46,34.47-15.84,34.47-35.46-15.44-35.6-34.47-35.6ZM603.04,78.88c-9.79,0-16.84-8.1-16.84-18.18s7.05-18.32,16.84-18.32,16.82,8.24,16.82,18.32-7.04,18.18-16.82,18.18Z"/>
  <path class="cls-1" d="M469.16,52.19c-4.95-1.2-14.48-2.09-14.48-6.88,0-2.8,2.84-4.85,10.4-4.85,3.97,0,10.34,2.08,15.78,4.91l8.91-12.31c-6.55-4.28-16.12-7.93-24.43-7.93-14.75,0-27.61,8.22-27.61,21.13,0,17.29,15.26,19.82,28.31,22.35,3.22.62,10.25,1.44,10.25,6.22,0,3.29-3.91,6.03-10.45,6.03-7.34,0-14.01-2.92-20.26-6.25l-8.61,12.1c7.07,4.81,17.41,9.48,27.88,9.48,14.14,0,28.5-7.94,28.5-22.16,0-15.37-12.06-18.9-24.18-21.83Z"/>
  <path class="cls-1" d="M782.38,8.13c-22.64,0-35.84,18.1-35.84,43.85s13.21,43.85,35.84,43.85c4.6,0,8.49-.73,12.26-2.31l5.9,8.87,12.62-8.5-6.13-9.23c7.07-7.65,11.2-18.71,11.2-32.68,0-25.75-13.2-43.85-35.84-43.85ZM797.82,70.69l-5.31-8.14-12.61,8.5,5.54,8.5c-.82.12-1.77.24-2.71.24-13.44,0-19.22-12.39-19.22-27.82s5.42-26.97,18.86-26.97,18.86,11.78,18.86,26.97c0,7.17-.94,13.97-3.42,18.71Z"/>
  <path class="cls-1" d="M535.35,42.4c6.22,0,11.28,3.32,14.16,8.33l13.99-10.55c-6.24-9.11-16.53-15.06-28.15-15.06-19.05,0-34.48,15.97-34.48,35.59s15.44,35.46,34.48,35.46c11.57,0,21.82-5.85,28.07-14.85l-13.96-10.47c-2.92,4.86-7.98,8.05-14.11,8.05-9.78,0-16.82-8.11-16.82-18.19s7.05-18.31,16.82-18.31Z"/>
  <path class="cls-1" d="M900,51.99c0-25.75-13.2-43.85-35.84-43.85s-35.84,18.1-35.84,43.85,13.2,43.85,35.84,43.85c4.6,0,8.49-.73,12.26-2.31l5.9,8.87,12.62-8.5-6.13-9.23c7.07-7.65,11.2-18.71,11.2-32.68ZM879.6,70.69l-5.31-8.14-12.61,8.5,5.54,8.5c-.82.12-1.77.24-2.71.24-13.44,0-19.22-12.39-19.22-27.82s5.42-26.97,18.86-26.97,18.86,11.78,18.86,26.97c0,7.17-.94,13.97-3.42,18.71Z"/>
</svg>