<svg id="Layer_1" xmlns="http://www.w3.org/2000/svg" viewBox="0 0 138 38"><style>.st0{fill:#d9fc00}.st1{fill:#00c}</style><path class="st0" d="M0 0h138v38H0z"/><path class="st1" d="M21 11.7h2.8v10.7H29v2.3h-8v-13zM30.1 20.2c0-3.1 2.1-5.2 4.9-5.2 2.4 0 4.5 1.5 4.5 4.8v.8h-6.7c0 1.5.9 2.5 2.2 2.5 1.1 0 1.9-.6 1.9-1.3h2.4c-.4 2.1-1.9 3.3-4.5 3.3-2.8-.2-4.7-1.9-4.7-4.9zm6.8-1.2c0-1.5-.7-2.1-2.1-2.1-1.1 0-1.9.8-2.1 2.1h4.2zM40.8 22.1c0-2.3 2.1-3.1 4.9-3.1h1.1v-.4c0-1.2-.4-1.7-1.5-1.7-.9 0-1.5.6-1.5 1.3h-2.4c.2-2.3 1.9-3.3 4.1-3.3s3.9 1 3.9 3.5v6.3H47v-1.2c-.6.8-1.3 1.3-2.8 1.3-1.9.1-3.4-.6-3.4-2.7zm6-.6v-.8h-.9c-1.5 0-2.4.4-2.4 1.3 0 .8.4 1.2 1.3 1.2 1.1-.2 2-.7 2-1.7zM50.7 15.2h2.6v1.9c.6-1.3 1.5-1.9 3-1.9v2.5c-1.9 0-3 .6-3 2.5v4.6h-2.6v-9.6zM58 15.2h2.6v1.5c.4-1 1.5-1.7 3-1.7 1.9 0 3.2 1.2 3.2 3.6v6.1h-2.6V19c0-1.3-.6-1.9-1.7-1.9s-1.9.8-1.9 2.1v5.6H58v-9.6zM74.1 15.2h2.6v1.5c.4-1 1.5-1.7 2.8-1.7s2.2.6 2.6 1.7c.7-1.2 1.9-1.7 3.2-1.7 1.7 0 3 1.2 3 3.6v6.1h-2.6V19c0-1.3-.6-1.9-1.5-1.9s-1.9.6-1.9 1.9v5.8h-2.6V19c0-1.2-.6-1.7-1.5-1.7s-1.9.6-1.9 1.9v5.6h-2.6v-9.6h.4zM90.4 20.2c0-3.1 2.1-5.2 4.9-5.2 2.8 0 4.9 1.9 4.9 4.8v.2c0 3.1-2.1 5-4.9 5-2.8-.1-4.9-2-4.9-4.8zm7.2-.2c0-1.9-.7-3.1-2.2-3.1-1.5 0-2.2 1.2-2.2 2.9v.2c0 1.9.7 2.9 2.2 2.9 1.4.1 2.2-1 2.2-2.9zM101.9 15.2h2.6v1.9c.6-1.3 1.5-1.9 3-1.9v2.5c-1.9 0-3 .6-3 2.5v4.6h-2.6v-9.6zM108.4 20.2c0-3.1 2.1-5.2 4.9-5.2 2.4 0 4.5 1.5 4.5 4.8v.8H111c0 1.5.9 2.5 2.2 2.5 1.1 0 1.9-.6 1.9-1.3h2.4c-.4 2.1-1.9 3.3-4.5 3.3s-4.6-1.9-4.6-4.9zm6.8-1.2c0-1.5-.7-2.1-2.1-2.1-1.1 0-1.9.8-2.1 2.1h4.2z"/></svg>