<svg id="Layer_1" xmlns="http://www.w3.org/2000/svg" viewBox="0 0 279 30"><style>.st0{fill:#fff}</style><path class="st0" d="M2.8 23.2V4.6H6c6.4 0 9 3.8 9 9.1v.3c0 5.7-3 9.2-8.9 9.2H2.8zM0 25.5h6.1c8.1 0 11.8-5.1 11.8-11.5v-.3c0-6.4-3.8-11.4-11.7-11.4H0v23.2zM28.2 25.8c3.8 0 6.6-1.8 7.2-5.2h-2.7c-.4 2-1.9 2.9-4.5 2.9-3.5 0-5.3-2.1-5.4-6h12.8v-.9c0-6.1-3.7-8.4-7.6-8.4-4.7 0-7.9 3.6-7.9 8.7v.3c-.1 5.3 3.3 8.6 8.1 8.6zm-5.4-10.4c.5-3 2.3-4.9 5.1-4.9s4.6 1.4 4.9 4.9h-10zM45.5 25.8c4.1 0 7-2.7 7.4-6.4h-2.5c-.3 2.8-2.5 4.1-4.9 4.1-3.3 0-5.5-2.2-5.5-6.3V17c0-4 2.4-6.4 5.4-6.4 2.3 0 4.3 1 4.7 3.7h2.7c-.5-4.3-3.8-5.9-7.4-5.9-4.5 0-8.2 3.5-8.2 8.7v.3c0 5.1 3.6 8.4 8.3 8.4zM62.8 25.8c3.8 0 6.6-1.8 7.2-5.2h-2.7c-.4 2-1.9 2.9-4.5 2.9-3.5 0-5.3-2.1-5.4-6h12.8v-.9c0-6.1-3.7-8.4-7.6-8.4-4.7 0-7.9 3.6-7.9 8.7v.3c-.1 5.3 3.3 8.6 8.1 8.6zm-5.4-10.4c.5-3 2.3-4.9 5.1-4.9s4.6 1.4 4.9 4.9h-10zM73.1 25.5h2.7V15.2c0-3 2.3-4.5 4.5-4.5 2.3 0 3.6 1.2 3.6 4.2v10.7h2.7V15.2c0-3 2.3-4.5 4.5-4.5 2.3 0 3.6 1.2 3.6 4.2v10.7h2.7V15c0-4.9-2.7-6.7-5.7-6.7-2.1 0-4.6 1-5.8 3.2-.9-2.3-2.8-3.2-5-3.2-2.4 0-4.3 1.3-5.1 2.9V8.6h-2.7v16.9zM109.9 25.8c4.7 0 7.7-3.6 7.7-8.7v-.3c0-5.3-3.3-8.5-7.7-8.5-2.5 0-4.8 1.5-5.7 3.1V.5h-2.7v25h2.7v-2.8c.9 1.7 2.9 3.1 5.7 3.1zm-.3-2.2c-3.3 0-5.6-2-5.6-6.4v-.3c0-4.3 2.4-6.4 5.5-6.4 2.9 0 5.2 2.1 5.2 6.4v.3c.1 4.1-1.7 6.4-5.1 6.4zM127.6 25.8c3.8 0 6.6-1.8 7.2-5.2h-2.7c-.4 2-1.9 2.9-4.5 2.9-3.5 0-5.3-2.1-5.4-6H135v-.9c0-6.1-3.7-8.4-7.6-8.4-4.7 0-7.9 3.6-7.9 8.7v.3c-.1 5.3 3.3 8.6 8.1 8.6zm-5.4-10.4c.5-3 2.3-4.9 5.1-4.9s4.6 1.4 4.9 4.9h-10zM137.9 25.5h2.7v-9.3c0-4.2 2.2-5.2 5.6-5.4V8.3c-3 .1-4.5 1.4-5.6 3.3v-3h-2.7v16.9zM163.1 25.8c4.8 0 8.2-2.5 8.2-6.7 0-3.2-1.7-5.1-4.5-5.8 2.1-.9 3.7-2.4 3.7-5.1 0-3.2-2.6-6.1-7-6.1s-7.4 3-7.6 6.7h2.5c.3-2.6 2.2-4.4 5.1-4.4 2.8 0 4.2 1.7 4.2 3.9 0 2.5-1.3 4-4.3 4h-1.6v2.4h1.7c3.3 0 4.9 1.5 4.9 4.5 0 2.7-1.7 4.5-5.3 4.5-3.7 0-5.3-2.1-5.6-4.9H155c.1 3.9 3.1 7 8.1 7zM178.4 25.5h2.8V2.4h-2.6l-5.4 3.9v2.6l5.2-3.7v20.3zM186.8 29.5l4-6.8-2.6-1.2-3.1 7.1 1.7.9zM200 25.5h15.5v-2.3h-11.2l6.4-6.2c2.9-2.8 4.7-5.6 4.7-8.4 0-4-2.7-6.5-7-6.5-4.4 0-7.2 2.9-7.5 7.4h2.6c.5-3.6 2.2-5.2 4.9-5.2 2.6 0 4.1 1.6 4.1 4.1 0 2.4-1.2 4.5-3.3 6.7l-9.2 9.7v.7zM227.3 23.5c-3.9 0-6.3-3-6.3-8.9v-1.3c0-5.7 2.3-8.9 6.3-8.9 3.9 0 6.2 3.5 6.2 8.9v1.3c-.1 5.8-2.1 8.9-6.2 8.9zm0 2.3c5.7 0 9-4.5 9-11.3v-1.3c0-6.6-3.3-11.2-9-11.2s-9.1 4.4-9.1 11.2v1.3c-.1 6.8 3.6 11.3 9.1 11.3zM237.7 25.5h15.5v-2.3H242l6.4-6.2c2.9-2.8 4.7-5.6 4.7-8.4 0-4-2.7-6.5-7-6.5-4.4 0-7.2 2.9-7.5 7.4h2.6c.5-3.6 2.2-5.2 4.9-5.2 2.6 0 4.1 1.6 4.1 4.1 0 2.4-1.2 4.5-3.3 6.7l-9.2 9.7v.7zM263.3 25.8c4.8 0 8.2-2.5 8.2-6.7 0-3.2-1.7-5.1-4.5-5.8 2.1-.9 3.7-2.4 3.7-5.1 0-3.2-2.6-6.1-7-6.1s-7.4 3-7.6 6.7h2.5c.3-2.6 2.2-4.4 5.1-4.4 2.8 0 4.2 1.7 4.2 3.9 0 2.5-1.3 4-4.3 4H262v2.4h1.7c3.3 0 4.9 1.5 4.9 4.5 0 2.7-1.7 4.5-5.3 4.5-3.7 0-5.3-2.1-5.6-4.9h-2.6c.3 3.9 3.3 7 8.2 7zM276.9 25.7c1.1 0 2.1-.9 2.1-2.1 0-1.2-.9-2.1-2.1-2.1-1.1 0-2.1.9-2.1 2.1.1 1.2 1 2.1 2.1 2.1z"/></svg>