<svg id="Layer_1" xmlns="http://www.w3.org/2000/svg" viewBox="0 0 257 35"><style>.st0{fill:#00c}</style><path class="st0" d="M6.8 7.8c2.1 0 3.9-1.4 3.9-3.7C10.7 1.9 8.9.4 6.8.4S3 1.9 3 4.1c0 2.3 1.8 3.7 3.8 3.7zM.3 34.2h12.9v-.3L10 31.3V12.1H.3v.3l3.2 3v15.9L.3 33.9v.3zM26.6 34.2v-.3l-3.2-2.5V16.6h.1c1.8-.8 3.6-1.5 5.5-1.5 3 0 4 1.5 4 5v11.3l-3.2 2.5v.3h12.9v-.3l-3.2-2.5v-11c0-6.3-1.8-8.5-6.5-8.5-2.6 0-5.2.9-9.4 3.2l-.1.1v-3h-9.7v.3l3.2 3.3v15.7L13.8 34v.3h12.8zM55.8 34.2v-.3l-3.2-2.5V16.6h.1c1.8-.8 3.6-1.5 5.5-1.5 3 0 4 1.5 4 5v11.3L59 33.9v.3h12.9v-.3l-3.2-2.5v-11c0-6.3-1.8-8.5-6.5-8.5-2.6 0-5.2.9-9.4 3.2l-.1.1v-3H43v.3l3.2 3.3v15.7L43 34v.3h12.8zM84.9 34.7c6.6 0 12.6-4.4 12.6-11.7 0-6.4-5.1-11.3-12-11.3-6.6 0-12.6 4.4-12.6 11.7 0 6.4 5.1 11.3 12 11.3zm.9-1.5c-4.1 0-6.1-5.6-6.1-11.1 0-4.9 1.5-9 4.9-9 4.2 0 6.1 5.6 6.1 10.8 0 5.2-1.7 9.3-4.9 9.3zM101.2 15l7.9 19.3h4.5l7.9-19.4 3.1-2.5v-.3H116v.3l3.4 2.4-5.7 15.1-5.6-15 3.2-2.5v-.3h-13v.3l2.9 2.6zM139.5 31.2v3h9.5v-.3l-3.2-2.6v-9.1c0-6.1-.9-10.6-9-10.6-3.2 0-6.3.2-9.7.4v8h.2l6.1-7h.5c4.3 0 5.5 2 5.5 7.2v.8l-12.1 3.2c-.7.8-1.8 2.6-1.8 4.7 0 2.9 2.3 5.8 6.6 5.8 3.2 0 5.8-1.8 7.4-3.5zm-3.8.5c-2.3 0-3.6-1.5-3.6-3.8 0-1.4.5-2.3.9-3l6.3-2.7v8c-.9.8-2.2 1.5-3.6 1.5zM166.3 31.3v-.7c-1.4.6-3.1.9-3.9.9-2.6 0-3.6-1.1-3.6-3.8V14.1h7.1v-1.9h-7.1V6h-.8l-5.7 6.1H149V14h3.5v12.9c0 4.4.9 7.7 6.1 7.7 2.6.1 5.9-1.3 7.7-3.3zM173.4 7.8c2.1 0 3.9-1.4 3.9-3.7 0-2.2-1.8-3.7-3.9-3.7-2.1 0-3.8 1.5-3.8 3.7 0 2.3 1.7 3.7 3.8 3.7zm-6.5 26.4h12.9v-.3l-3.2-2.6V12.1h-9.7v.3l3.2 3v15.9l-3.2 2.6v.3zM193.1 34.7c6.6 0 12.6-4.4 12.6-11.7 0-6.4-5.1-11.3-12-11.3-6.6 0-12.6 4.4-12.6 11.7 0 6.4 5.1 11.3 12 11.3zm.9-1.5c-4.1 0-6.1-5.6-6.1-11.1 0-4.9 1.5-9 4.9-9 4.2 0 6.1 5.6 6.1 10.8 0 5.2-1.7 9.3-4.9 9.3zM220.1 34.2v-.3l-3.2-2.5V16.6h.1c1.8-.8 3.6-1.5 5.5-1.5 3 0 4 1.5 4 5v11.3l-3.2 2.5v.3h12.9v-.3l-3.2-2.5v-11c0-6.3-1.8-8.5-6.5-8.5-2.6 0-5.2.9-9.4 3.2l-.1.1v-3h-9.7v.3l3.2 3.3v15.7l-3.2 2.5v.3h12.8zM246.4 34.7c4.7 0 10.2-1.6 10.2-7.2 0-2.7-1.7-4.3-4.6-5.7l-4.9-2.4c-3-1.4-4.1-2.4-4.1-3.9 0-1.6 1.3-2.4 3.2-2.4.6 0 1.2.1 2 .2l6.5 6h.1v-6.9c-1.7-.4-5.2-.7-8.1-.7-4.6 0-8.7 2.3-8.7 6.5 0 2.8 1.4 4.6 4.9 6.3l4.6 2.2c2.8 1.3 3.8 2.7 3.8 3.8 0 1.8-1.4 2.9-4.3 2.9-1 0-1.8-.1-2.7-.2l-6.3-6.6v7.6c2.4.2 5.9.5 8.4.5z"/></svg>