<?xml version="1.0" encoding="UTF-8"?>
<svg id="Layer_1" xmlns="http://www.w3.org/2000/svg" viewBox="0 0 443.87 443.87">
  <defs>
    <style>
      .cls-1 {
        fill: #fff;
      }
    </style>
  </defs>
  <path class="cls-1" d="M221.94,443.87c-59.28,0-115.01-23.09-156.93-65S0,281.22,0,221.94,23.09,106.92,65,65C106.92,23.08,162.66,0,221.94,0s115.01,23.08,156.93,65c41.92,41.92,65,97.65,65,156.93s-23.08,115.01-65,156.93c-41.92,41.92-97.65,65-156.93,65ZM221.94,20C110.59,20,20,110.59,20,221.94s90.59,201.94,201.94,201.94,201.94-90.59,201.94-201.94S333.29,20,221.94,20Z"/>
  <g>
    <path class="cls-1" d="M265.95,93.12c-5.85-5.73-13.72-8.6-23.61-8.6-11.47,0-20.97,3.77-28.5,11.3s-11.3,17.26-11.3,29.17c0,9.9,2.81,17.82,8.43,23.77,5.62,5.96,13.6,8.94,23.94,8.94,11.69,0,21.25-3.82,28.66-11.47,7.42-7.64,11.13-17.31,11.13-29,0-10.34-2.92-18.38-8.77-24.11Z"/>
    <polygon class="cls-1" points="176.58 176.58 171.18 210.3 191.6 218.1 169.16 359.36 256.16 357.33 261.56 323.61 240.94 315.45 263.25 173.88 176.58 176.58"/>
  </g>
</svg>