<svg width="160" height="37" viewBox="0 0 160 37" fill="none" xmlns="http://www.w3.org/2000/svg">
<path d="M33.5555 35.9025H5.10553C4.17515 35.9155 3.25889 35.674 2.45584 35.204C1.65279 34.734 0.993512 34.0534 0.549293 33.2358C0.0690028 32.3018 -0.102566 31.2395 0.0592804 30.2018C0.221127 29.1641 0.708041 28.2044 1.44994 27.4611L21.1936 7.64671H7.06577C5.1923 7.64671 3.39556 6.90248 2.07082 5.57773C0.746072 4.25299 0.00183788 2.45625 0.00183788 0.582775H26.2267C27.1571 0.569699 28.0733 0.81122 28.8764 1.28122C29.6794 1.75122 30.3387 2.43182 30.7829 3.24941C31.2632 4.18342 31.4348 5.24573 31.273 6.28345C31.1111 7.32117 30.6242 8.28078 29.8823 9.02418L10.0679 28.8385H26.4916C28.3651 28.8385 30.1618 29.5828 31.4866 30.9075C32.8113 32.2322 33.5555 34.029 33.5555 35.9025ZM146.243 0C144.303 0.00537871 142.387 0.420316 140.619 1.21765C138.851 2.01499 137.271 3.17674 135.983 4.62688C134.695 3.17674 133.115 2.01499 131.347 1.21765C129.578 0.420316 127.662 0.00537871 125.722 0C122.04 0.0966934 118.541 1.62774 115.971 4.26682C113.401 6.90591 111.964 10.4443 111.965 14.1279V35.9025C112.893 35.9025 113.811 35.7197 114.668 35.3647C115.526 35.0098 116.304 34.4894 116.96 33.8335C117.616 33.1775 118.136 32.3988 118.491 31.5418C118.846 30.6847 119.029 29.7662 119.029 28.8385V13.9866C119.004 12.2242 119.66 10.52 120.861 9.22999C122.062 7.94 123.715 7.16395 125.475 7.06394C126.385 7.0185 127.295 7.15833 128.149 7.47495C129.003 7.79157 129.784 8.27839 130.445 8.90588C131.105 9.53337 131.631 10.2885 131.991 11.1254C132.351 11.9623 132.538 12.8636 132.539 13.7747V28.7855C132.539 30.659 133.283 32.4558 134.608 33.7805C135.933 35.1052 137.729 35.8495 139.603 35.8495V13.9866C139.576 12.2385 140.22 10.5466 141.403 9.2589C142.585 7.97122 144.216 7.18571 145.96 7.06394C146.863 7.03074 147.763 7.17965 148.607 7.50178C149.451 7.82391 150.221 8.31267 150.872 8.93892C151.523 9.56516 152.042 10.3161 152.396 11.1469C152.751 11.9777 152.934 12.8714 152.936 13.7747V28.7855C152.936 30.659 153.68 32.4558 155.005 33.7805C156.33 35.1052 158.127 35.8495 160 35.8495V14.1279C160.001 10.4443 158.564 6.90591 155.994 4.26682C153.424 1.62774 149.925 0.0966934 146.243 0ZM69.2284 18.2426C69.2179 21.8379 68.1423 25.3495 66.1372 28.3338C64.1321 31.3181 61.2877 33.6412 57.963 35.0098C54.6384 36.3784 50.9827 36.7311 47.4578 36.0233C43.9329 35.3155 40.6967 33.5789 38.1582 31.0329C35.6196 28.487 33.8924 25.2458 33.1949 21.7188C32.4973 18.1918 32.8606 14.5372 34.2389 11.2166C35.6171 7.89595 37.9486 5.05824 40.9387 3.06187C43.9288 1.0655 47.4435 1.52502e-05 51.0388 0C53.4313 0.00231606 55.7999 0.476142 58.0092 1.39439C60.2184 2.31264 62.2251 3.65731 63.9144 5.35152C65.6037 7.04574 66.9425 9.05628 67.8543 11.2682C68.7661 13.4802 69.2331 15.8501 69.2284 18.2426ZM62.1645 18.2426C62.1645 16.0422 61.512 13.8911 60.2895 12.0615C59.067 10.2319 57.3294 8.80589 55.2964 7.96381C53.2634 7.12173 51.0264 6.90141 48.8683 7.33069C46.7101 7.75998 44.7277 8.8196 43.1717 10.3756C41.6158 11.9315 40.5561 13.9139 40.1269 16.0721C39.6976 18.2303 39.9179 20.4673 40.76 22.5002C41.6021 24.5332 43.0281 26.2708 44.8577 27.4933C46.6873 28.7158 48.8383 29.3683 51.0388 29.3683C53.9881 29.3636 56.8152 28.19 58.9007 26.1045C60.9861 24.0191 62.1598 21.1919 62.1645 18.2426ZM108.433 18.2426C108.423 21.8379 107.347 25.3495 105.342 28.3338C103.337 31.3181 100.493 33.6412 97.1679 35.0098C93.8432 36.3784 90.1876 36.7311 86.6626 36.0233C83.1377 35.3155 79.9016 33.5789 77.363 31.0329C74.8244 28.487 73.0973 25.2458 72.3997 21.7188C71.7022 18.1918 72.0655 14.5372 73.4437 11.2166C74.822 7.89595 77.1534 5.05824 80.1435 3.06187C83.1336 1.0655 86.6483 1.52502e-05 90.2436 0C92.6361 0.00231606 95.0047 0.476142 97.214 1.39439C99.4233 2.31264 101.43 3.65731 103.119 5.35152C104.809 7.04574 106.147 9.05628 107.059 11.2682C107.971 13.4802 108.438 15.8501 108.433 18.2426ZM101.369 18.2426C101.369 16.0422 100.717 13.8911 99.4943 12.0615C98.2718 10.2319 96.5342 8.80589 94.5013 7.96381C92.4683 7.12173 90.2313 6.90141 88.0731 7.33069C85.9149 7.75998 83.9325 8.8196 82.3766 10.3756C80.8206 11.9315 79.761 13.9139 79.3317 16.0721C78.9024 18.2303 79.1227 20.4673 79.9648 22.5002C80.8069 24.5332 82.2329 26.2708 84.0625 27.4933C85.8921 28.7158 88.0432 29.3683 90.2436 29.3683C93.1929 29.3636 96.0201 28.19 98.1055 26.1045C100.191 24.0191 101.365 21.1919 101.369 18.2426Z" fill="white"/>
</svg>
