<svg width="178" height="47" viewBox="0 0 178 47" fill="none" xmlns="http://www.w3.org/2000/svg">
<path d="M0 0H19.6106L0 46.8994V0Z" fill="white"/>
<path d="M52.9934 0H33.4083L52.9934 46.8994V0Z" fill="white"/>
<path d="M26.5095 17.2855L38.9913 46.8995H30.8021L27.0717 37.471H17.9371L26.5095 17.2855Z" fill="white"/>
<path fill-rule="evenodd" clip-rule="evenodd" d="M87.2998 36.4554L84.9874 29.8248H75.4951L73.3105 36.3787C73.2211 36.6215 73.1061 36.6981 72.8633 36.6981H68.8901C68.6601 36.6981 68.5707 36.5832 68.609 36.3021L76.7982 13.0121C76.9643 12.616 77.0793 12.2072 77.1559 10.8658C77.1559 10.6997 77.2454 10.5847 77.3987 10.5847H82.9178C83.1222 10.5847 83.1605 10.623 83.1988 10.8274L92.3845 36.3404C92.4229 36.5831 92.3845 36.6981 92.1418 36.6981H87.6959C87.4915 36.6981 87.3765 36.6215 87.2998 36.4554ZM77.2565 23.9984L77.2553 24.0021C77.0855 24.5127 76.9193 25.0123 76.7599 25.4939H83.7226C83.4749 24.7206 83.1389 23.698 82.7678 22.5687L82.7665 22.5647L82.7629 22.5538L82.7618 22.5506L82.7609 22.5477L82.7606 22.5467C81.8701 19.8368 80.78 16.5194 80.2221 14.5579H80.1838C79.63 16.8617 78.3657 20.6633 77.2565 23.9984Z" fill="white"/>
<path fill-rule="evenodd" clip-rule="evenodd" d="M104.193 37.0942C106.582 37.0942 109.125 36.6598 111.706 35.5483C111.91 35.4716 111.948 35.3822 111.948 35.1906C111.872 34.4751 111.782 33.4403 111.782 32.6482V8.63C111.782 8.47669 111.782 8.40003 111.591 8.40003H107.26C107.094 8.40003 107.017 8.47669 107.017 8.6811V16.8192C106.34 16.7425 105.867 16.7042 105.305 16.7042C98.3166 16.7042 94.024 21.3162 94.024 27.078C94.024 33.7597 98.4316 37.0942 104.193 37.0942ZM107.017 32.6482C106.301 32.8782 105.509 32.9676 104.704 32.9676C101.536 32.9676 98.9427 31.179 98.9427 26.8353C98.9427 22.9898 101.613 20.7158 105.152 20.7158C105.867 20.7158 106.493 20.7924 107.017 20.9968V32.6482Z" fill="white"/>
<path fill-rule="evenodd" clip-rule="evenodd" d="M116.107 26.9248C116.107 21.2779 119.799 16.7042 125.765 16.7042C131.885 16.7042 135.219 21.3546 135.219 26.797C135.219 32.9677 131.284 37.0942 125.676 37.0942C119.045 37.0942 116.107 31.9712 116.107 26.9248ZM130.326 26.9248C130.326 23.6159 128.895 20.7158 125.522 20.7158C122.852 20.7158 120.949 23.0665 120.949 26.8353C120.949 30.502 122.737 33.0443 125.765 33.0443C128.218 33.0443 130.326 31.013 130.326 26.9248Z" fill="white"/>
<path fill-rule="evenodd" clip-rule="evenodd" d="M139.697 8.40003C139.531 8.40003 139.416 8.47669 139.416 8.6811V35.8677C139.416 35.9827 139.531 36.1871 139.697 36.2254C141.6 36.8131 143.593 37.0942 145.65 37.0942C151.54 37.0942 157.263 33.4403 157.263 26.0815C157.263 20.7541 153.61 16.7042 147.886 16.7042C146.57 16.7042 145.344 16.9086 144.271 17.2663L144.219 8.71942C144.219 8.43836 144.143 8.40003 143.862 8.40003H139.697ZM152.37 26.567C152.37 30.9746 149.355 33.0443 146.098 33.0443C145.42 33.0443 144.82 33.0059 144.271 32.8399V21.2396C144.897 20.9968 145.65 20.7924 147.043 20.7924C150.186 20.7924 152.37 22.7854 152.37 26.567Z" fill="white"/>
<path fill-rule="evenodd" clip-rule="evenodd" d="M177.515 27.8318C176.965 27.9596 175.368 27.9979 173.426 27.9979H165.352C165.467 30.7702 167.307 33.006 171.357 33.006C173.145 33.006 174.781 32.6866 176.288 32.0478C176.403 31.9712 176.518 32.0095 176.518 32.2011V35.51C176.518 35.74 176.441 35.8677 176.288 35.9444C174.781 36.6598 173.03 37.0942 170.322 37.0942C163.091 37.0942 160.51 32.0095 160.51 27.1164C160.51 21.5973 163.845 16.7042 169.849 16.7042C175.726 16.7042 178 21.3163 178 25.0979C178 26.2093 177.949 27.1164 177.834 27.5508C177.796 27.7169 177.719 27.7935 177.515 27.8318ZM169.645 20.5242C166.898 20.5242 165.672 22.6322 165.352 24.5741H171.28C172.788 24.5741 173.299 24.5741 173.465 24.5357V24.2163C173.465 23.0665 172.673 20.5242 169.645 20.5242Z" fill="white"/>
</svg>
