<svg id="Layer_1" xmlns="http://www.w3.org/2000/svg" viewBox="0 0 863 23"><style>.st0{fill:#fff}</style><path class="st0" d="M.9 8.2h.9V5h2.7v-.8H1.8V1.9h2.9v-.8H.9v7.1zM10.3 3h-1v3.2c0 .2 0 .3-.1.5-.1.4-.6.8-1.2.8-.9 0-1.2-.7-1.2-1.7V3h-.9v3c0 1.8 1 2.3 1.8 2.3.9 0 1.5-.5 1.7-1l.1.8h.8V3zM11.8 8.2h.9V5.1c0-.2 0-.3.1-.4.2-.5.6-1 1.3-1 .9 0 1.2.7 1.2 1.5v3h.9V5.1c0-1.8-1.1-2.2-1.8-2.2-.9 0-1.5.5-1.7 1l-.1-.9h-.8V8.2zM21.4.6v3.1c-.2-.4-.8-.8-1.6-.8-1.3 0-2.3 1.1-2.3 2.8 0 1.6 1 2.6 2.2 2.6.8 0 1.5-.4 1.8-1v.9h.8V.6h-.9zm0 5.4v.4c-.2.7-.8 1.1-1.4 1.1-1 0-1.5-.9-1.5-1.9 0-1.2.6-2 1.6-2 .7 0 1.2.5 1.4 1.1V6h-.1zM26.2 10.3h.9V7.5c.3.5.9.8 1.6.8 1.2 0 2.4-.9 2.4-2.8 0-1.6-.9-2.6-2.2-2.6-.8 0-1.5.4-1.8 1L27 3h-.8v7.3zm.9-5.1c0-.1 0-.3.1-.4.2-.7.8-1.2 1.4-1.2 1 0 1.5.9 1.5 1.9 0 1.2-.6 2-1.6 2-.7 0-1.2-.5-1.4-1.1V5.2zM36.5 5.8v-.4c0-1-.5-2.5-2.1-2.5-1.5 0-2.4 1.2-2.4 2.8s1 2.6 2.6 2.6c.8 0 1.4-.2 1.7-.3l-.2-.7c-.4.2-.8.3-1.4.3-.9 0-1.8-.5-1.8-1.8h3.6zm-3.6-.7c.1-.7.5-1.5 1.5-1.5 1.1 0 1.3.9 1.3 1.5h-2.8zM37.8 8.2h.9V5.4 5c.1-.7.6-1.2 1.3-1.2h.3v-.9H40c-.6 0-1.2.4-1.4 1.1V3h-.8v5.2zM42.6 8.2V3.7h1.3V3h-1.3v-.3c0-.8.2-1.5 1-1.5.3 0 .5.1.6.1l.1-.7c-.2-.1-.5-.2-.8-.2-.4 0-.9.1-1.3.5s-.6 1.1-.6 1.8V3h-.7v.7h.7v4.5h1zM46.6 2.9c-1.4 0-2.6 1-2.6 2.8 0 1.6 1.1 2.7 2.5 2.7 1.3 0 2.6-.8 2.6-2.8 0-1.6-1-2.7-2.5-2.7zm0 .7c1.1 0 1.6 1.1 1.6 2 0 1.2-.7 2-1.6 2-.9 0-1.6-.9-1.6-2 0-1 .5-2 1.6-2zM50.2 8.2h.9V5.4 5c.1-.7.6-1.2 1.3-1.2h.3v-.9h-.3c-.6 0-1.2.4-1.4 1.1V3h-.8v5.2zM53.7 8.2h.9V5c0-.2 0-.3.1-.5.2-.5.6-.9 1.2-.9.7 0 1.1.6 1.1 1.4v3.1h.9V5c0-.2 0-.3.1-.5.1-.5.5-.9 1-.9.8 0 1.1.6 1.1 1.6v2.9h.9v-3c0-1.8-1-2.3-1.7-2.3-.5 0-.8.1-1.2.4-.2.2-.4.4-.6.7-.2-.6-.8-1-1.5-1-.9 0-1.3.5-1.6 1v-.8h-.8v1.4l.1 3.7zM66.2 8.2c-.1-.4-.1-.8-.1-1.2V5c0-1-.4-2.1-2-2.1-.7 0-1.3.2-1.7.5l.2.6c.4-.3.9-.4 1.4-.4 1.1 0 1.2.8 1.2 1.2v.1c-2 0-3.1.7-3.1 1.9 0 .8.5 1.5 1.6 1.5.7 0 1.3-.4 1.6-.8l.1.7h.8zm-1-1.8c0 .1 0 .2-.1.3-.2.4-.6.9-1.3.9-.5 0-.9-.3-.9-.9 0-1 1.2-1.2 2.2-1.2l.1.9zM67.6 8.2h.9V5.1c0-.2 0-.3.1-.4.2-.5.6-1 1.3-1 .9 0 1.2.7 1.2 1.5v3h.9V5.1c0-1.8-1.1-2.2-1.8-2.2-.9 0-1.5.5-1.7 1l-.1-.9h-.8V8.2zM77.2 7.3c-.3.1-.6.3-1.2.3-1 0-1.8-.7-1.8-1.9 0-1.1.6-2 1.8-2 .5 0 .9.1 1.1.2l.2-.7c-.2-.2-.7-.3-1.3-.3-1.7 0-2.8 1.2-2.8 2.8s1 2.7 2.6 2.7c.7 0 1.2-.2 1.5-.3l-.1-.8zM82.4 5.8v-.4c0-1-.5-2.5-2.1-2.5-1.5 0-2.4 1.2-2.4 2.8s1 2.6 2.6 2.6c.8 0 1.4-.2 1.7-.3l-.2-.7c-.4.2-.8.3-1.4.3-.9 0-1.8-.5-1.8-1.8h3.6zm-3.6-.7c.1-.7.5-1.5 1.5-1.5 1.1 0 1.3.9 1.3 1.5h-2.8zM85.6 7.9c.4.2.9.4 1.5.4 1.2 0 1.9-.6 1.9-1.6 0-.8-.5-1.2-1.4-1.6-.7-.3-1-.5-1-.9s.3-.7.9-.7c.5 0 .9.2 1.1.3l.2-.7c-.3-.2-.8-.3-1.3-.3-1.1 0-1.8.7-1.8 1.5 0 .6.4 1.1 1.4 1.5.7.3 1 .5 1 1 0 .4-.3.8-1 .8-.5 0-1-.2-1.2-.4l-.3.7zM90.1 8.2h.9V5c0-.2 0-.3.1-.5.2-.5.7-.9 1.3-.9.9 0 1.2.7 1.2 1.5v3h.9v-3c0-1.8-1.1-2.2-1.8-2.2-.4 0-.7.1-1 .3s-.5.4-.7.7V.6h-.9v7.6zM98.4 2.9c-1.4 0-2.6 1-2.6 2.8 0 1.6 1.1 2.7 2.5 2.7 1.3 0 2.6-.8 2.6-2.8 0-1.6-1-2.7-2.5-2.7zm0 .7c1.1 0 1.6 1.1 1.6 2 0 1.2-.7 2-1.6 2s-1.6-.9-1.6-2c0-1 .4-2 1.6-2zM101.2 3l1.6 5.2h.9l.8-2.5c.2-.6.3-1.1.5-1.7.1.6.3 1.1.5 1.7l.8 2.5h.9l1.7-5.2h-.9l-.7 2.6c-.2.6-.3 1.2-.4 1.7-.1-.5-.3-1.1-.5-1.7l-1-2.6h-.8l-.8 2.7c-.2.6-.3 1.1-.5 1.6-.1-.5-.2-1.1-.4-1.7l-.7-2.6h-1zM109.6 8.2h.9V5.1c0-.2 0-.3.1-.4.2-.5.6-1 1.3-1 .9 0 1.2.7 1.2 1.5v3h.9V5.1c0-1.8-1.1-2.2-1.8-2.2-.9 0-1.5.5-1.7 1l-.1-.9h-.8V8.2zM121.7 8.2c-.1-.4-.1-.8-.1-1.2V5c0-1-.4-2.1-2-2.1-.7 0-1.3.2-1.7.5l.2.6c.4-.2.9-.4 1.4-.4 1.1 0 1.2.8 1.2 1.2v.1c-2 0-3.1.7-3.1 1.9 0 .8.5 1.5 1.6 1.5.7 0 1.3-.4 1.6-.8l.1.7h.8zm-1-1.8c0 .1 0 .2-.1.3-.2.4-.6.9-1.3.9-.5 0-.9-.3-.9-.9 0-1 1.2-1.2 2.2-1.2v.9h.1zM123.3 1.7V3h-.8v.7h.8v2.8c0 .6.1 1.1.4 1.4.2.3.6.4 1 .4s.7-.1.8-.1v-.7c-.1 0-.3.1-.5.1-.5 0-.7-.4-.7-1V3.7h1.4V3h-1.4V1.5l-1 .2zM129.8 8.2V5.1c0-1.2 0-2.1-.1-3 .4.8.8 1.6 1.4 2.4l2.3 3.7h.9V.9h-.9v3c0 1.1 0 2 .1 3-.3-.7-.8-1.5-1.3-2.4L130 .9h-1v7.2h.8v.1zM139.8 5.9l.8 2.3h1L139.1 1H138l-2.5 7.2h1l.8-2.3h2.5zm-2.4-.7l.7-2.1c.1-.4.3-.9.4-1.3.1.4.2.8.4 1.3l.7 2.1h-2.2zM144.5 8.2l2.6-7.2h-1l-1.2 3.6c-.3.9-.6 1.9-.8 2.7-.2-.8-.5-1.7-.8-2.7L142.2 1h-1l2.4 7.2h.9zM147.7 8.3c.4 0 .6-.3.6-.7 0-.4-.3-.7-.6-.7-.4 0-.6.3-.6.7 0 .4.2.7.6.7zM152 .9v7.2h.9V.9h-.9zM154.5 8.2h.9V5.1c0-.2 0-.3.1-.4.2-.5.6-1 1.3-1 .9 0 1.2.7 1.2 1.5v3h.9V5.1c0-1.8-1.1-2.2-1.8-2.2-.9 0-1.5.5-1.7 1l-.1-.9h-.8V8.2zM159.8 3l2 5.2h.9l2-5.2h-1l-1 2.9c-.2.5-.3.9-.4 1.3-.1-.4-.2-.9-.4-1.3l-1-2.9h-1.1zM169.6 5.8v-.4c0-1-.5-2.5-2.1-2.5-1.5 0-2.4 1.2-2.4 2.8s1 2.6 2.6 2.6c.8 0 1.4-.2 1.7-.3l-.2-.7c-.4.2-.8.3-1.4.3-.9 0-1.8-.5-1.8-1.8h3.6zm-3.6-.7c.1-.7.5-1.5 1.5-1.5 1.1 0 1.3.9 1.3 1.5H166zM170.5 7.9c.4.2.9.4 1.5.4 1.2 0 1.9-.6 1.9-1.6 0-.8-.5-1.2-1.4-1.6-.7-.3-1-.5-1-.9s.3-.7.9-.7c.5 0 .9.2 1.1.3l.2-.7c-.3-.2-.8-.3-1.3-.3-1.1 0-1.8.7-1.8 1.5 0 .6.4 1.1 1.4 1.5.7.3 1 .5 1 1 0 .4-.3.8-1 .8-.5 0-1-.2-1.2-.4l-.3.7zM178.5 7.3c-.3.1-.6.3-1.2.3-1 0-1.8-.7-1.8-1.9 0-1.1.6-2 1.8-2 .5 0 .9.1 1.1.2l.2-.7c-.3-.1-.8-.3-1.3-.3-1.7 0-2.8 1.2-2.8 2.8s1 2.7 2.6 2.7c.7 0 1.2-.2 1.5-.3l-.1-.8zM181.8 2.9c-1.4 0-2.6 1-2.6 2.8 0 1.6 1.1 2.7 2.5 2.7 1.3 0 2.6-.8 2.6-2.8 0-1.6-1-2.7-2.5-2.7zm0 .7c1.1 0 1.6 1.1 1.6 2 0 1.2-.7 2-1.6 2-.9 0-1.6-.9-1.6-2 0-1 .5-2 1.6-2zM193.9 8.5c-.6-.1-1.4-.3-2.1-.5 1.2-.4 2.1-1.6 2.1-3.5 0-2.1-1.3-3.7-3.2-3.7-2 0-3.4 1.5-3.4 3.8s1.5 3.6 3.2 3.7c.1 0 .3.1.4.1.8.3 1.8.6 2.8.8l.2-.7zm-3.4-1c-1.5 0-2.3-1.4-2.3-2.9 0-1.6.8-3 2.3-3s2.3 1.5 2.3 2.9c.1 1.7-.8 3-2.3 3zM201.4 8.5c-.6-.1-1.4-.3-2.1-.5 1.2-.4 2.1-1.6 2.1-3.5 0-2.1-1.3-3.7-3.2-3.7-2 0-3.4 1.5-3.4 3.8s1.5 3.6 3.2 3.7c.1 0 .3.1.4.1.8.3 1.8.6 2.8.8l.2-.7zm-3.4-1c-1.5 0-2.3-1.4-2.3-2.9 0-1.6.8-3 2.3-3s2.3 1.5 2.3 2.9c0 1.7-.8 3-2.3 3zM208.9 8.5c-.6-.1-1.4-.3-2.1-.5 1.2-.4 2.1-1.6 2.1-3.5 0-2.1-1.3-3.7-3.2-3.7-2 0-3.4 1.5-3.4 3.8s1.5 3.6 3.2 3.7c.1 0 .3.1.4.1.8.3 1.8.6 2.8.8l.2-.7zm-3.4-1c-1.5 0-2.3-1.4-2.3-2.9 0-1.6.8-3 2.3-3s2.3 1.5 2.3 2.9c0 1.7-.8 3-2.3 3zM211.8 7.9c.4.2.9.4 1.5.4 1.2 0 1.9-.6 1.9-1.6 0-.8-.5-1.2-1.4-1.6-.7-.3-1-.5-1-.9s.3-.7.9-.7c.5 0 .9.2 1.1.3l.2-.7c-.3-.2-.8-.3-1.3-.3-1.1 0-1.8.7-1.8 1.5 0 .6.4 1.1 1.4 1.5.7.3 1 .5 1 1 0 .4-.3.8-1 .8-.5 0-1-.2-1.2-.4l-.3.7zM218.8 1.7V3h-.8v.7h.8v2.8c0 .6.1 1.1.4 1.4.2.3.6.4 1 .4s.7-.1.8-.1v-.7c-.1 0-.3.1-.5.1-.5 0-.7-.4-.7-1V3.7h1.4V3h-1.4V1.5l-1 .2zM224.3 2.9c-1.4 0-2.6 1-2.6 2.8 0 1.6 1.1 2.7 2.5 2.7 1.3 0 2.6-.8 2.6-2.8 0-1.6-1-2.7-2.5-2.7zm0 .7c1.1 0 1.6 1.1 1.6 2 0 1.2-.7 2-1.6 2-.9 0-1.6-.9-1.6-2 0-1 .5-2 1.6-2zM228.1 1.7V3h-.8v.7h.8v2.8c0 .6.1 1.1.4 1.4.2.3.6.4 1 .4s.7-.1.8-.1v-.7c-.1 0-.3.1-.5.1-.5 0-.7-.4-.7-1V3.7h1.4V3H229V1.5l-.9.2zM235.1 8.2c-.1-.4-.1-.8-.1-1.2V5c0-1-.4-2.1-2-2.1-.7 0-1.3.2-1.7.5l.2.6c.4-.2.9-.4 1.4-.4 1.1 0 1.2.8 1.2 1.2v.1c-2 0-3.1.7-3.1 1.9 0 .8.5 1.5 1.6 1.5.7 0 1.3-.4 1.6-.8l.1.7h.8zm-1-1.8c0 .1 0 .2-.1.3-.2.4-.6.9-1.3.9-.5 0-.9-.3-.9-.9 0-1 1.2-1.2 2.2-1.2v.9h.1zM236.5 8.2h.9V.6h-.9v7.6zM245.5 5.8v-.4c0-1-.5-2.5-2.1-2.5-1.5 0-2.4 1.2-2.4 2.8s1 2.6 2.6 2.6c.8 0 1.4-.2 1.7-.3l-.3-.7c-.4.2-.8.3-1.4.3-.9 0-1.8-.5-1.8-1.8h3.7zm-3.7-.7c.1-.7.5-1.5 1.5-1.5 1.1 0 1.3.9 1.3 1.5h-2.8zM246.1 3l1.8 2.5-1.9 2.7h1l.8-1.2c.2-.3.4-.6.5-.9l.6.9.8 1.2h1.1L249 5.5l1.8-2.5h-1l-.8 1.1c-.2.3-.3.5-.5.9-.2-.3-.3-.6-.5-.8l-.9-1.2h-1zM251.6 10.3h.9V7.5c.3.5.9.8 1.6.8 1.2 0 2.4-.9 2.4-2.8 0-1.6-.9-2.6-2.2-2.6-.8 0-1.5.4-1.8 1V3h-.8v1.7l-.1 5.6zm1-5.1c0-.1 0-.3.1-.4.2-.7.8-1.2 1.4-1.2 1 0 1.5.9 1.5 1.9 0 1.2-.6 2-1.6 2-.7 0-1.2-.5-1.4-1.1V5.2zM262 5.8v-.4c0-1-.5-2.5-2.1-2.5-1.5 0-2.4 1.2-2.4 2.8s1 2.6 2.6 2.6c.8 0 1.4-.2 1.7-.3l-.2-.7c-.4.2-.8.3-1.4.3-.9 0-1.8-.5-1.8-1.8h3.6zm-3.7-.7c.1-.7.5-1.5 1.5-1.5 1.1 0 1.3.9 1.3 1.5h-2.8zM263.2 8.2h.9V5.1c0-.2 0-.3.1-.4.2-.5.6-1 1.3-1 .9 0 1.2.7 1.2 1.5v3h.9V5.1c0-1.8-1.1-2.2-1.8-2.2-.9 0-1.5.5-1.7 1L264 3h-.8V8.2zM268.9 7.9c.4.2.9.4 1.5.4 1.2 0 1.9-.6 1.9-1.6 0-.8-.5-1.2-1.4-1.6-.7-.3-1-.5-1-.9s.3-.7.9-.7c.5 0 .9.2 1.1.3l.2-.7c-.3-.2-.8-.3-1.3-.3-1.1 0-1.8.7-1.8 1.5 0 .6.4 1.1 1.4 1.5.7.3 1 .5 1 1 0 .4-.3.8-1 .8-.5 0-1-.2-1.2-.4l-.3.7zM277.6 5.8v-.4c0-1-.5-2.5-2.1-2.5-1.5 0-2.4 1.2-2.4 2.8s1 2.6 2.6 2.6c.8 0 1.4-.2 1.7-.3l-.2-.7c-.4.2-.8.3-1.4.3-.9 0-1.8-.5-1.8-1.8h3.6zm-3.7-.7c.1-.7.5-1.5 1.5-1.5 1.1 0 1.3.9 1.3 1.5h-2.8zM281.1 8.2h.9V5.4 5c.1-.7.6-1.2 1.3-1.2h.3v-.9h-.3c-.6 0-1.2.4-1.4 1.1V3h-.8v5.2zM288.3 8.2c-.1-.4-.1-.8-.1-1.2V5c0-1-.4-2.1-2-2.1-.7 0-1.3.2-1.7.5l.2.6c.4-.2.9-.4 1.4-.4 1.1 0 1.2.8 1.2 1.2v.1c-2 0-3.1.7-3.1 1.9 0 .8.5 1.5 1.6 1.5.7 0 1.3-.4 1.6-.8l.1.7h.8zm-1-1.8c0 .1 0 .2-.1.3-.2.4-.6.9-1.3.9-.5 0-.9-.3-.9-.9 0-1 1.2-1.2 2.2-1.2l.1.9zM289.8 1.7V3h-.8v.7h.8v2.8c0 .6.1 1.1.4 1.4.2.3.6.4 1 .4s.7-.1.8-.1v-.7c-.1 0-.3.1-.5.1-.5 0-.7-.4-.7-1V3.7h1.4V3h-1.4V1.5l-1 .2zM294.1 8.2V3h-.9v5.2h.9zm-.4-7.3c-.3 0-.6.3-.6.6s.2.6.6.6.6-.3.6-.6-.3-.6-.6-.6zM298 2.9c-1.4 0-2.6 1-2.6 2.8 0 1.6 1.1 2.7 2.5 2.7 1.3 0 2.6-.8 2.6-2.8 0-1.6-1-2.7-2.5-2.7zm0 .7c1.1 0 1.6 1.1 1.6 2 0 1.2-.7 2-1.6 2s-1.6-.9-1.6-2c0-1 .5-2 1.6-2zM304.8 8.2V3h-.9v5.2h.9zm-.5-7.3c-.3 0-.6.3-.6.6s.2.6.6.6.6-.3.6-.6-.3-.6-.6-.6zM306.1 7.9c.4.2.9.4 1.5.4 1.2 0 1.9-.6 1.9-1.6 0-.8-.5-1.2-1.4-1.6-.7-.3-1-.5-1-.9s.3-.7.9-.7c.5 0 .9.2 1.1.3l.2-.7c-.3-.1-.8-.2-1.3-.2-1.1 0-1.8.7-1.8 1.5 0 .6.4 1.1 1.4 1.5.7.3 1 .5 1 1 0 .4-.3.8-1 .8-.5 0-1-.2-1.2-.4l-.3.6zM314.9 1.1c-1.4 0-2.4 1.3-2.4 3.6s.9 3.6 2.3 3.6c1.5 0 2.4-1.3 2.4-3.7 0-2.2-.9-3.5-2.3-3.5zm-.1.7c1 0 1.4 1.1 1.4 2.8 0 1.8-.5 2.9-1.4 2.9s-1.4-1-1.4-2.8c0-1.9.6-2.9 1.4-2.9zM318.7 8.3c.4 0 .6-.3.6-.7 0-.4-.3-.7-.6-.7-.4 0-.6.3-.6.7-.1.4.2.7.6.7zM324.8 8.2v-.8h-3.1l.6-.5c1.5-1.4 2.4-2.5 2.4-3.8 0-1-.6-2-2.1-2-.8 0-1.5.3-2 .7l.3.7c.3-.3.8-.6 1.5-.6 1 0 1.4.7 1.4 1.4 0 1.1-.8 2-2.6 3.7l-.7.7v.6h4.3v-.1zM328 1.1c-1.4 0-2.4 1.3-2.4 3.6s.9 3.6 2.3 3.6c1.5 0 2.4-1.3 2.4-3.7 0-2.2-.8-3.5-2.3-3.5zm-.1.7c1 0 1.4 1.1 1.4 2.8 0 1.8-.5 2.9-1.4 2.9s-1.4-1-1.4-2.8c0-1.9.6-2.9 1.4-2.9zM332.6 1.1c-.9 0-1.7.8-1.7 2.2s.8 2.1 1.6 2.1c.9 0 1.7-.7 1.7-2.2.1-1.4-.6-2.1-1.6-2.1zm0 .6c.7 0 .9.7.9 1.6s-.3 1.6-.9 1.6-.9-.7-.9-1.6.3-1.6.9-1.6zm.5 6.6l4.1-7.2h-.6l-4.1 7.2h.6zm4.1-4.3c-.9 0-1.7.8-1.7 2.2s.8 2.1 1.6 2.1c.9 0 1.7-.7 1.7-2.2 0-1.4-.6-2.1-1.6-2.1zm0 .5c.7 0 .9.7.9 1.6s-.3 1.6-.9 1.6-.9-.7-.9-1.6c-.1-.9.3-1.6.9-1.6zM340.4 8.3c.4 0 .6-.3.6-.7 0-.4-.3-.7-.6-.7-.4 0-.6.3-.6.7s.2.7.6.7zM344.6 8.2h.9V5.3c.2.1.5.1.8.1.9 0 1.7-.3 2.2-.8.4-.4.6-.9.6-1.5s-.2-1.2-.6-1.5c-.4-.4-1.1-.6-2-.6-.8 0-1.3.1-1.8.1v7.1h-.1zm1-6.5c.2 0 .5-.1.9-.1 1 0 1.7.5 1.7 1.4 0 1-.7 1.5-1.8 1.5-.3 0-.6 0-.8-.1V1.7zM354.3 5.8v-.4c0-1-.5-2.5-2.1-2.5-1.5 0-2.4 1.2-2.4 2.8s1 2.6 2.6 2.6c.8 0 1.4-.2 1.7-.3l-.2-.7c-.4.2-.8.3-1.4.3-.9 0-1.8-.5-1.8-1.8h3.6zm-3.7-.7c.1-.7.5-1.5 1.5-1.5 1.1 0 1.3.9 1.3 1.5h-2.8zM355.5 8.2h.9V5.4 5c.1-.7.6-1.2 1.3-1.2h.3v-.9h-.3c-.6 0-1.2.4-1.4 1.1V3h-.8v5.2zM360.4 8.2V3.7h1.3V3h-1.3v-.3c0-.8.2-1.5 1-1.5.3 0 .5.1.6.1l.1-.7c-.2-.1-.5-.2-.8-.2-.4 0-.9.1-1.3.5s-.6 1.1-.6 1.8V3h-.7v.7h.7v4.5h1zM364.4 2.9c-1.4 0-2.6 1-2.6 2.8 0 1.6 1.1 2.7 2.5 2.7 1.3 0 2.6-.8 2.6-2.8 0-1.6-1-2.7-2.5-2.7zm0 .7c1.1 0 1.6 1.1 1.6 2 0 1.2-.7 2-1.6 2s-1.6-.9-1.6-2c0-1 .5-2 1.6-2zM367.9 8.2h.9V5.4 5c.1-.7.6-1.2 1.3-1.2h.3v-.9h-.3c-.6 0-1.2.4-1.4 1.1V3h-.8v5.2zM371.4 8.2h.9V5c0-.2 0-.3.1-.5.2-.5.6-.9 1.2-.9.7 0 1.1.6 1.1 1.4v3.1h.9V5c0-.2 0-.3.1-.5.2-.5.6-.9 1.1-.9.8 0 1.1.6 1.1 1.6v2.9h.9v-3c0-1.8-1-2.3-1.7-2.3-.5 0-.8.1-1.2.4-.2.2-.4.4-.6.7-.2-.6-.8-1-1.5-1-.9 0-1.3.5-1.6 1v-.8h-.8v5.1zM383.9 8.2c-.1-.4-.1-.8-.1-1.2V5c0-1-.4-2.1-2-2.1-.7 0-1.3.2-1.7.5l.2.6c.4-.2.9-.4 1.4-.4 1.1 0 1.2.8 1.2 1.2v.1c-2 0-3.1.7-3.1 1.9 0 .8.5 1.5 1.6 1.5.7 0 1.3-.4 1.6-.8l.1.7h.8zm-1-1.8c0 .1 0 .2-.1.3-.2.4-.6.9-1.3.9-.5 0-.9-.3-.9-.9 0-1 1.2-1.2 2.2-1.2l.1.9zM385.3 8.2h.9V5.1c0-.2 0-.3.1-.4.2-.5.6-1 1.3-1 .9 0 1.2.7 1.2 1.5v3h.9V5.1c0-1.8-1.1-2.2-1.8-2.2-.9 0-1.5.5-1.7 1l-.1-.9h-.8V8.2zM394.9 7.3c-.3.1-.6.3-1.2.3-1 0-1.8-.7-1.8-1.9 0-1.1.6-2 1.8-2 .5 0 .9.1 1.1.2l.2-.7c-.3-.1-.8-.3-1.3-.3-1.7 0-2.8 1.2-2.8 2.8s1 2.7 2.6 2.7c.7 0 1.2-.2 1.5-.3l-.1-.8zM400.2 5.8v-.4c0-1-.5-2.5-2.1-2.5-1.5 0-2.4 1.2-2.4 2.8s1 2.6 2.6 2.6c.8 0 1.4-.2 1.7-.3l-.2-.7c-.4.2-.8.3-1.4.3-.9 0-1.8-.5-1.8-1.8h3.6zm-3.7-.7c.1-.7.5-1.5 1.5-1.5 1.1 0 1.3.9 1.3 1.5h-2.8zM407.3.6v3.1c-.2-.4-.8-.8-1.6-.8-1.3 0-2.3 1.1-2.3 2.8 0 1.6 1 2.6 2.2 2.6.8 0 1.5-.4 1.8-1v.9h.8V.6h-.9zm0 5.4v.4c-.2.7-.8 1.1-1.4 1.1-1 0-1.5-.9-1.5-1.9 0-1.2.6-2 1.6-2 .7 0 1.2.5 1.4 1.1V6h-.1zM413.6 8.2c-.1-.4-.1-.8-.1-1.2V5c0-1-.4-2.1-2-2.1-.7 0-1.3.2-1.7.5l.2.6c.4-.2.9-.4 1.4-.4 1.1 0 1.2.8 1.2 1.2v.1c-2 0-3.1.7-3.1 1.9 0 .8.5 1.5 1.6 1.5.7 0 1.3-.4 1.6-.8l.1.7h.8zm-1-1.8c0 .1 0 .2-.1.3-.2.4-.6.9-1.3.9-.5 0-.9-.3-.9-.9 0-1 1.2-1.2 2.2-1.2l.1.9zM415.1 1.7V3h-.8v.7h.8v2.8c0 .6.1 1.1.4 1.4.2.3.6.4 1 .4s.7-.1.8-.1v-.7c-.1 0-.3.1-.5.1-.5 0-.7-.4-.7-1V3.7h1.4V3H416V1.5l-.9.2zM422.2 8.2c-.1-.4-.1-.8-.1-1.2V5c0-1-.4-2.1-2-2.1-.7 0-1.3.2-1.7.5l.2.6c.4-.2.9-.4 1.4-.4 1.1 0 1.2.8 1.2 1.2v.1c-2 0-3.1.7-3.1 1.9 0 .8.5 1.5 1.6 1.5.7 0 1.3-.4 1.6-.8l.1.7h.8zm-1-1.8c0 .1 0 .2-.1.3-.2.4-.6.9-1.3.9-.5 0-.9-.3-.9-.9 0-1 1.2-1.2 2.2-1.2l.1.9zM429.4 10.3h.9V4.4 3h-.9v.8c-.3-.5-.8-.9-1.6-.9-1.1 0-2.4.9-2.4 2.8 0 1.6 1 2.6 2.2 2.6.8 0 1.4-.4 1.7-.9l.1 2.9zm0-4.2c0 .1 0 .3-.1.5-.2.7-.7 1-1.4 1-1 0-1.5-.9-1.5-1.9 0-1.2.6-2 1.6-2 .7 0 1.2.5 1.4 1.1v1.3zM436.3 3h-.9v3.2c0 .2 0 .3-.1.5-.2.4-.6.9-1.2.9-.9 0-1.2-.7-1.2-1.7V3h-.9v3c0 1.8 1 2.3 1.8 2.3.9 0 1.5-.5 1.7-1l.1.8h.8V6.7l-.1-3.7zM440 2.9c-1.4 0-2.6 1-2.6 2.8 0 1.6 1.1 2.7 2.5 2.7 1.3 0 2.6-.8 2.6-2.8 0-1.6-1-2.7-2.5-2.7zm0 .7c1.1 0 1.6 1.1 1.6 2 0 1.2-.7 2-1.6 2s-1.6-.9-1.6-2c0-1 .5-2 1.6-2zM443.7 1.7V3h-.8v.7h.8v2.8c0 .6.1 1.1.4 1.4.2.3.6.4 1 .4s.7-.1.8-.1v-.7c-.1 0-.3.1-.5.1-.5 0-.7-.4-.7-1V3.7h1.4V3h-1.4V1.5l-1 .2zM451.2 5.8v-.4c0-1-.5-2.5-2.1-2.5-1.5 0-2.4 1.2-2.4 2.8s1 2.6 2.6 2.6c.8 0 1.4-.2 1.7-.3l-.2-.7c-.4.2-.8.3-1.4.3-.9 0-1.8-.5-1.8-1.8h3.6zm-3.6-.7c.1-.7.5-1.5 1.5-1.5 1.1 0 1.3.9 1.3 1.5h-2.8zM456 .6v3.1c-.2-.4-.8-.8-1.6-.8-1.3 0-2.3 1.1-2.3 2.8 0 1.6 1 2.6 2.2 2.6.8 0 1.5-.4 1.8-1v.9h.8V.6h-.9zm0 5.4v.4c-.2.7-.8 1.1-1.4 1.1-1 0-1.5-.9-1.5-1.9 0-1.2.6-2 1.6-2 .7 0 1.2.5 1.4 1.1V6h-.1zM460.8 8.2h.9V5.4 5c.1-.7.6-1.2 1.3-1.2h.3v-.9h-.3c-.6 0-1.2.4-1.4 1.1V3h-.8v5.2zM468.4 5.8v-.4c0-1-.5-2.5-2.1-2.5-1.5 0-2.4 1.2-2.4 2.8s1 2.6 2.6 2.6c.8 0 1.4-.2 1.7-.3l-.2-.7c-.4.2-.8.3-1.4.3-.9 0-1.8-.5-1.8-1.8h3.6zm-3.7-.7c.1-.7.5-1.5 1.5-1.5 1.1 0 1.3.9 1.3 1.5h-2.8zM469.6 10.3h.9V7.5c.3.5.9.8 1.6.8 1.2 0 2.4-.9 2.4-2.8 0-1.6-.9-2.6-2.2-2.6-.8 0-1.5.4-1.8 1V3h-.8v7.3h-.1zm1-5.1c0-.1 0-.3.1-.4.2-.7.8-1.2 1.4-1.2 1 0 1.5.9 1.5 1.9 0 1.2-.6 2-1.6 2-.7 0-1.2-.5-1.4-1.1V5.2zM475.8 8.2h.9V5.4 5c.1-.7.6-1.2 1.3-1.2h.3v-.9h-.3c-.6 0-1.2.4-1.4 1.1V3h-.8v5.2zM483.3 5.8v-.4c0-1-.5-2.5-2.1-2.5-1.5 0-2.4 1.2-2.4 2.8s1 2.6 2.6 2.6c.8 0 1.4-.2 1.7-.3l-.2-.7c-.4.2-.8.3-1.4.3-.9 0-1.8-.5-1.8-1.8h3.6zm-3.6-.7c.1-.7.5-1.5 1.5-1.5 1.1 0 1.3.9 1.3 1.5h-2.8zM484.2 7.9c.4.2.9.4 1.5.4 1.2 0 1.9-.6 1.9-1.6 0-.8-.5-1.2-1.4-1.6-.7-.3-1-.5-1-.9s.3-.7.9-.7c.5 0 .9.2 1.1.3l.2-.7c-.3-.2-.8-.3-1.3-.3-1.1 0-1.8.7-1.8 1.5 0 .6.4 1.1 1.4 1.5.7.3 1 .5 1 1 0 .4-.3.8-1 .8-.5 0-1-.2-1.2-.4l-.3.7zM492.9 5.8v-.4c0-1-.5-2.5-2.1-2.5-1.5 0-2.4 1.2-2.4 2.8s1 2.6 2.6 2.6c.8 0 1.4-.2 1.7-.3l-.2-.7c-.4.2-.8.3-1.4.3-.9 0-1.8-.5-1.8-1.8h3.6zm-3.6-.7c.1-.7.5-1.5 1.5-1.5 1.1 0 1.3.9 1.3 1.5h-2.8zM494.2 8.2h.9V5.1c0-.2 0-.3.1-.4.2-.5.6-1 1.3-1 .9 0 1.2.7 1.2 1.5v3h.9V5.1c0-1.8-1.1-2.2-1.8-2.2-.9 0-1.5.5-1.7 1L495 3h-.8V8.2zM500.4 1.7V3h-.8v.7h.8v2.8c0 .6.1 1.1.4 1.4.2.3.6.4 1 .4s.7-.1.8-.1v-.7c-.1 0-.3.1-.5.1-.5 0-.7-.4-.7-1V3.7h1.4V3h-1.4V1.5l-1 .2zM503.4 7.9c.4.2.9.4 1.5.4 1.2 0 1.9-.6 1.9-1.6 0-.8-.5-1.2-1.4-1.6-.7-.3-1-.5-1-.9s.3-.7.9-.7c.5 0 .9.2 1.1.3l.2-.7c-.3-.2-.8-.3-1.3-.3-1.1 0-1.8.7-1.8 1.5 0 .6.4 1.1 1.4 1.5.7.3 1 .5 1 1 0 .4-.3.8-1 .8-.5 0-1-.2-1.2-.4l-.3.7zM510.2 10.3h.9V7.5c.3.5.9.8 1.6.8 1.2 0 2.4-.9 2.4-2.8 0-1.6-.9-2.6-2.2-2.6-.8 0-1.5.4-1.8 1V3h-.8v7.3h-.1zm.9-5.1c0-.1 0-.3.1-.4.2-.7.8-1.2 1.4-1.2 1 0 1.5.9 1.5 1.9 0 1.2-.6 2-1.6 2-.7 0-1.2-.5-1.4-1.1V5.2zM520 8.2V5c0-1-.4-2.1-2-2.1-.7 0-1.3.2-1.7.5l.2.6c.4-.2.9-.4 1.4-.4 1.1 0 1.2.8 1.2 1.2v.1c-2 0-3.1.7-3.1 1.9 0 .8.5 1.5 1.6 1.5.7 0 1.3-.4 1.6-.8l.1.7h.7zm-1-1.8c0 .1 0 .2-.1.3-.2.4-.6.9-1.3.9-.5 0-.9-.3-.9-.9 0-1 1.2-1.2 2.2-1.2l.1.9zM521.1 7.9c.4.2.9.4 1.5.4 1.2 0 1.9-.6 1.9-1.6 0-.8-.5-1.2-1.4-1.6-.7-.3-1-.5-1-.9s.3-.7.9-.7c.5 0 .9.2 1.1.3l.2-.7c-.3-.1-.8-.2-1.3-.2-1.1 0-1.8.7-1.8 1.5 0 .6.4 1.1 1.4 1.5.7.3 1 .5 1 1 0 .4-.3.8-1 .8-.5 0-1-.2-1.2-.4l-.3.6zM525.8 1.7V3h-.8v.7h.8v2.8c0 .6.1 1.1.4 1.4.2.3.6.4 1 .4s.7-.1.8-.1v-.7c-.1 0-.3.1-.5.1-.5 0-.7-.4-.7-1V3.7h1.4V3h-1.4V1.5l-1 .2zM531.4 10.3h.9V7.5c.3.5.9.8 1.6.8 1.2 0 2.4-.9 2.4-2.8 0-1.6-.9-2.6-2.2-2.6-.8 0-1.5.4-1.8 1V3h-.8v7.3h-.1zm.9-5.1c0-.1 0-.3.1-.4.2-.7.8-1.2 1.4-1.2 1 0 1.5.9 1.5 1.9 0 1.2-.6 2-1.6 2-.7 0-1.2-.5-1.4-1.1V5.2zM541.7 5.8v-.4c0-1-.5-2.5-2.1-2.5-1.5 0-2.4 1.2-2.4 2.8s1 2.6 2.6 2.6c.8 0 1.4-.2 1.7-.3l-.2-.7c-.4.2-.8.3-1.4.3-.9 0-1.8-.5-1.8-1.8h3.6zm-3.6-.7c.1-.7.5-1.5 1.5-1.5 1.1 0 1.3.9 1.3 1.5h-2.8zM543 8.2h.9V5.4 5c.1-.7.6-1.2 1.3-1.2h.3v-.9h-.3c-.6 0-1.2.4-1.4 1.1V3h-.8v5.2zM547.8 8.2V3.7h1.3V3h-1.3v-.3c0-.8.2-1.5 1-1.5.3 0 .5.1.6.1l.1-.7c-.2-.1-.5-.2-.8-.2-.4 0-.9.1-1.3.5s-.6 1.1-.6 1.8V3h-.7v.7h.7v4.5h1zM551.8 2.9c-1.4 0-2.6 1-2.6 2.8 0 1.6 1.1 2.7 2.5 2.7 1.3 0 2.6-.8 2.6-2.8 0-1.6-1-2.7-2.5-2.7zm0 .7c1.1 0 1.6 1.1 1.6 2 0 1.2-.7 2-1.6 2-.9 0-1.6-.9-1.6-2 0-1 .5-2 1.6-2zM555.4 8.2h.9V5.4 5c.1-.7.6-1.2 1.3-1.2h.3v-.9h-.3c-.6 0-1.2.4-1.4 1.1V3h-.8v5.2zM558.9 8.2h.9V5c0-.2 0-.3.1-.5.2-.5.6-.9 1.2-.9.7 0 1.1.6 1.1 1.4v3.1h.9V5c0-.2 0-.3.1-.5.2-.5.6-.9 1.1-.9.8 0 1.1.6 1.1 1.6v2.9h.9v-3c0-1.8-1-2.3-1.7-2.3-.5 0-.8.1-1.2.4-.2.2-.4.4-.6.7-.2-.6-.8-1-1.5-1-.9 0-1.3.5-1.6 1v-.8h-.8v5.1zM571.4 8.2c-.1-.4-.1-.8-.1-1.2V5c0-1-.4-2.1-2-2.1-.7 0-1.3.2-1.7.5l.2.6c.4-.2.9-.4 1.4-.4 1.1 0 1.2.8 1.2 1.2v.1c-2 0-3.1.7-3.1 1.9 0 .8.5 1.5 1.6 1.5.7 0 1.3-.4 1.6-.8l.1.7h.8zm-1-1.8c0 .1 0 .2-.1.3-.2.4-.6.9-1.3.9-.5 0-.9-.3-.9-.9 0-1 1.2-1.2 2.2-1.2l.1.9zM572.8 8.2h.9V5.1c0-.2 0-.3.1-.4.2-.5.6-1 1.3-1 .9 0 1.2.7 1.2 1.5v3h.9V5.1c0-1.8-1.1-2.2-1.8-2.2-.9 0-1.5.5-1.7 1l-.1-.9h-.8V8.2zM582.4 7.3c-.3.1-.6.3-1.2.3-1 0-1.8-.7-1.8-1.9 0-1.1.6-2 1.8-2 .5 0 .9.1 1.1.2l.2-.7c-.3-.1-.8-.3-1.3-.3-1.7 0-2.8 1.2-2.8 2.8s1 2.7 2.6 2.7c.7 0 1.2-.2 1.5-.3l-.1-.8zM587.6 5.8v-.4c0-1-.5-2.5-2.1-2.5-1.5 0-2.4 1.2-2.4 2.8s1 2.6 2.6 2.6c.8 0 1.4-.2 1.7-.3l-.2-.7c-.4.2-.8.3-1.4.3-.9 0-1.8-.5-1.8-1.8h3.6zm-3.6-.7c.1-.7.5-1.5 1.5-1.5 1.1 0 1.3.9 1.3 1.5H584zM588.8 9.4c.3-.5.8-1.7 1-2.6l-1.1.1c-.1.8-.4 1.9-.6 2.6l.7-.1zM592.8 3l1.6 5.2h.9l.8-2.5c.2-.6.3-1.1.5-1.7.1.6.3 1.1.5 1.7l.8 2.5h.9l1.7-5.2h-.9l-.7 2.6c-.2.6-.3 1.2-.4 1.7-.1-.5-.3-1.1-.5-1.7L596.9 3h-.8l-.8 2.7c-.2.6-.3 1.1-.5 1.6-.1-.5-.2-1.1-.4-1.7l-.7-2.6h-.9zM601.2 8.2h.9V5c0-.2 0-.3.1-.5.2-.5.7-.9 1.3-.9.9 0 1.2.7 1.2 1.5v3h.9v-3c0-1.8-1.1-2.2-1.8-2.2-.4 0-.7.1-1 .3s-.5.4-.7.7V.6h-.9v7.6zM608.2 8.2V3h-.9v5.2h.9zm-.5-7.3c-.3 0-.6.3-.6.6s.2.6.6.6c.4 0 .6-.3.6-.6s-.2-.6-.6-.6zM613.4 7.3c-.3.1-.6.3-1.2.3-1 0-1.8-.7-1.8-1.9 0-1.1.6-2 1.8-2 .5 0 .9.1 1.1.2l.2-.7c-.3-.1-.8-.3-1.3-.3-1.7 0-2.8 1.2-2.8 2.8s1 2.7 2.6 2.7c.7 0 1.2-.2 1.5-.3l-.1-.8zM614.6 8.2h.9V5c0-.2 0-.3.1-.5.2-.5.7-.9 1.3-.9.9 0 1.2.7 1.2 1.5v3h.9v-3c0-1.8-1.1-2.2-1.8-2.2-.4 0-.7.1-1 .3s-.5.4-.7.7V.6h-.9v7.6zM623.8 8.2V3h-.9v5.2h.9zm-.4-7.3c-.3 0-.6.3-.6.6s.2.6.6.6c.4 0 .6-.3.6-.6-.1-.3-.3-.6-.6-.6zM625.1 7.9c.4.2.9.4 1.5.4 1.2 0 1.9-.6 1.9-1.6 0-.8-.5-1.2-1.4-1.6-.7-.3-1-.5-1-.9s.3-.7.9-.7c.5 0 .9.2 1.1.3l.2-.7c-.3-.2-.8-.3-1.3-.3-1.1 0-1.8.7-1.8 1.5 0 .6.4 1.1 1.4 1.5.7.3 1 .5 1 1 0 .4-.3.8-1 .8-.5 0-1-.2-1.2-.4l-.3.7zM631.9 8.2h.9V5.1c0-.2 0-.3.1-.4.2-.5.6-1 1.3-1 .9 0 1.2.7 1.2 1.5v3h.9V5.1c0-1.8-1.1-2.2-1.8-2.2-.9 0-1.5.5-1.7 1l-.1-.9h-.8V8.2zM640.2 2.9c-1.4 0-2.6 1-2.6 2.8 0 1.6 1.1 2.7 2.5 2.7 1.3 0 2.6-.8 2.6-2.8 0-1.6-1-2.7-2.5-2.7zm0 .7c1.1 0 1.6 1.1 1.6 2 0 1.2-.7 2-1.6 2-.9 0-1.6-.9-1.6-2 0-1 .4-2 1.6-2zM643.9 1.7V3h-.8v.7h.8v2.8c0 .6.1 1.1.4 1.4.2.3.6.4 1 .4s.7-.1.8-.1v-.7c-.1 0-.3.1-.5.1-.5 0-.7-.4-.7-1V3.7h1.4V3h-1.4V1.5l-1 .2zM653.3 8.2c-.1-.4-.1-.8-.1-1.2V5c0-1-.4-2.1-2-2.1-.7 0-1.3.2-1.7.5l.2.6c.4-.2.9-.4 1.4-.4 1.1 0 1.2.8 1.2 1.2v.1c-2 0-3.1.7-3.1 1.9 0 .8.5 1.5 1.6 1.5.7 0 1.3-.4 1.6-.8l.1.7h.8zm-1-1.8c0 .1 0 .2-.1.3-.2.4-.6.9-1.3.9-.5 0-.9-.3-.9-.9 0-1 1.2-1.2 2.2-1.2l.1.9zM660.6 3v.8c-.2-.4-.7-.9-1.6-.9-1.2 0-2.3 1-2.3 2.8 0 1.4.9 2.5 2.2 2.5.8 0 1.4-.4 1.7-.9v.6c0 1.3-.7 1.8-1.7 1.8-.6 0-1.2-.2-1.5-.4l-.4.7c.4.3 1.1.4 1.7.4.7 0 1.4-.2 1.9-.6.5-.5.7-1.2.7-2.4v-3V3h-.7zm-.2 3c0 .2 0 .3-.1.5-.2.6-.7 1-1.3 1-1 0-1.5-.8-1.5-1.9 0-1.2.6-2 1.5-2 .7 0 1.2.5 1.3 1 0 .1.1.3.1.4v1zM667.4 3h-.9v3.2c0 .2 0 .3-.1.5-.2.4-.6.9-1.2.9-.9 0-1.2-.7-1.2-1.7V3h-1v3c0 1.8 1 2.3 1.8 2.3.9 0 1.5-.5 1.7-1l.1.8h.8V3zM672.6 8.2c-.1-.4-.1-.8-.1-1.2V5c0-1-.4-2.1-2-2.1-.7 0-1.3.2-1.7.5l.2.6c.4-.2.9-.4 1.4-.4 1.1 0 1.2.8 1.2 1.2v.1c-2 0-3.1.7-3.1 1.9 0 .8.5 1.5 1.6 1.5.7 0 1.3-.4 1.6-.8l.1.7h.8zm-1-1.8c0 .1 0 .2-.1.3-.2.4-.6.9-1.3.9-.5 0-.9-.3-.9-.9 0-1 1.2-1.2 2.2-1.2l.1.9zM674 8.2h.9V5.4 5c.1-.7.6-1.2 1.3-1.2h.3v-.9h-.3c-.6 0-1.2.4-1.4 1.1V3h-.8v5.2zM681.2 8.2c-.1-.4-.1-.8-.1-1.2V5c0-1-.4-2.1-2-2.1-.7 0-1.3.2-1.7.5l.2.6c.4-.2.9-.4 1.4-.4 1.1 0 1.2.8 1.2 1.2v.1c-2 0-3.1.7-3.1 1.9 0 .8.5 1.5 1.6 1.5.7 0 1.3-.4 1.6-.8l.1.7h.8zm-1-1.8c0 .1 0 .2-.1.3-.2.4-.6.9-1.3.9-.5 0-.9-.3-.9-.9 0-1 1.2-1.2 2.2-1.2l.1.9zM682.5 8.2h.9V5.1c0-.2 0-.3.1-.4.2-.5.6-1 1.3-1 .9 0 1.2.7 1.2 1.5v3h.9V5.1c0-1.8-1.1-2.2-1.8-2.2-.9 0-1.5.5-1.7 1l-.1-.9h-.8V8.2zM688.8 1.7V3h-.8v.7h.8v2.8c0 .6.1 1.1.4 1.4.2.3.6.4 1 .4s.7-.1.8-.1v-.7c-.1 0-.3.1-.5.1-.5 0-.7-.4-.7-1V3.7h1.4V3h-1.4V1.5l-1 .2zM696.2 5.8v-.4c0-1-.5-2.5-2.1-2.5-1.5 0-2.4 1.2-2.4 2.8s1 2.6 2.6 2.6c.8 0 1.4-.2 1.7-.3l-.2-.7c-.4.2-.8.3-1.4.3-.9 0-1.8-.5-1.8-1.8h3.6zm-3.6-.7c.1-.7.5-1.5 1.5-1.5 1.1 0 1.3.9 1.3 1.5h-2.8zM701.7 5.8v-.4c0-1-.5-2.5-2.1-2.5-1.5 0-2.4 1.2-2.4 2.8s1 2.6 2.6 2.6c.8 0 1.4-.2 1.7-.3l-.2-.7c-.4.2-.8.3-1.4.3-.9 0-1.8-.5-1.8-1.8h3.6zm-3.7-.7c.1-.7.5-1.5 1.5-1.5 1.1 0 1.3.9 1.3 1.5H698zM707.4 2.9c-1.4 0-2.6 1-2.6 2.8 0 1.6 1.1 2.7 2.5 2.7 1.3 0 2.6-.8 2.6-2.8 0-1.6-1-2.7-2.5-2.7zm0 .7c1.1 0 1.6 1.1 1.6 2 0 1.2-.7 2-1.6 2-.9 0-1.6-.9-1.6-2 0-1 .5-2 1.6-2zM712 8.2V3.7h1.3V3H712v-.3c0-.8.2-1.5 1-1.5.3 0 .5.1.6.1l.1-.7c-.2-.1-.5-.2-.8-.2-.4 0-.9.1-1.3.5S711 2 711 2.7V3h-.7v.7h.7v4.5h1zM717.3 8.2V3.7h1.3V3h-1.3v-.3c0-.8.2-1.5 1-1.5.3 0 .5.1.6.1l.1-.7c-.2-.1-.5-.2-.8-.2-.4 0-.9.1-1.3.5s-.6 1.1-.6 1.8V3h-.7v.7h.7v4.5h1zM723.6 3h-.9v3.2c0 .2 0 .3-.1.5-.2.4-.6.9-1.2.9-.9 0-1.2-.7-1.2-1.7V3h-.9v3c0 1.8 1 2.3 1.8 2.3.9 0 1.5-.5 1.7-1l.1.8h.8V6.7l-.1-3.7zM725.3 1.7V3h-.8v.7h.8v2.8c0 .6.1 1.1.4 1.4.2.3.6.4 1 .4s.7-.1.8-.1v-.7c-.1 0-.3.1-.5.1-.5 0-.7-.4-.7-1V3.7h1.4V3h-1.4V1.5l-1 .2zM733 3h-1v3.2c0 .2 0 .3-.1.5-.2.4-.6.9-1.2.9-.9 0-1.2-.7-1.2-1.7V3h-.9v3c0 1.8 1 2.3 1.8 2.3.9 0 1.5-.5 1.7-1l.1.8h.8V3zM734.5 8.2h.9V5.4 5c.1-.7.6-1.2 1.3-1.2h.3v-.9h-.3c-.6 0-1.2.4-1.4 1.1V3h-.8v5.2zM742 5.8v-.4c0-1-.5-2.5-2.1-2.5-1.5 0-2.4 1.2-2.4 2.8s1 2.6 2.6 2.6c.8 0 1.4-.2 1.7-.3l-.2-.7c-.4.2-.8.3-1.4.3-.9 0-1.8-.5-1.8-1.8h3.6zm-3.6-.7c.1-.7.5-1.5 1.5-1.5 1.1 0 1.3.9 1.3 1.5h-2.8zM745.6 8.2h.9V5.4 5c.1-.7.6-1.2 1.3-1.2h.3v-.9h-.3c-.6 0-1.2.4-1.4 1.1V3h-.8v5.2zM753.1 5.8v-.4c0-1-.5-2.5-2.1-2.5-1.5 0-2.4 1.2-2.4 2.8s1 2.6 2.6 2.6c.8 0 1.4-.2 1.7-.3l-.2-.7c-.4.2-.8.3-1.4.3-.9 0-1.8-.5-1.8-1.8h3.6zm-3.6-.7c.1-.7.5-1.5 1.5-1.5 1.1 0 1.3.9 1.3 1.5h-2.8zM754 7.9c.4.2.9.4 1.5.4 1.2 0 1.9-.6 1.9-1.6 0-.8-.5-1.2-1.4-1.6-.7-.3-1-.5-1-.9s.3-.7.9-.7c.5 0 .9.2 1.1.3l.2-.7c-.3-.2-.8-.3-1.3-.3-1.1 0-1.8.7-1.8 1.5 0 .6.4 1.1 1.4 1.5.7.3 1 .5 1 1 0 .4-.3.8-1 .8-.5 0-1-.2-1.2-.4l-.3.7zM762.9 3h-.9v3.2c0 .2 0 .3-.1.5-.2.4-.6.9-1.2.9-.9 0-1.2-.7-1.2-1.7V3h-.9v3c0 1.8 1 2.3 1.8 2.3.9 0 1.5-.5 1.7-1l.1.8h.8V6.7l-.1-3.7zM764.3 8.2h.9V.6h-.9v7.6zM767 1.7V3h-.8v.7h.8v2.8c0 .6.1 1.1.4 1.4.2.3.6.4 1 .4s.7-.1.8-.1v-.7c-.1 0-.3.1-.5.1-.5 0-.7-.4-.7-1V3.7h1.4V3H768V1.5l-1 .2zM770 7.9c.4.2.9.4 1.5.4 1.2 0 1.9-.6 1.9-1.6 0-.8-.5-1.2-1.4-1.6-.7-.3-1-.5-1-.9s.3-.7.9-.7c.5 0 .9.2 1.1.3l.2-.7c-.2-.1-.7-.2-1.2-.2-1.1 0-1.8.7-1.8 1.5 0 .6.4 1.1 1.4 1.5.7.3 1 .5 1 1 0 .4-.3.8-1 .8-.5 0-1-.2-1.2-.4l-.4.6zM774.8 8.3c.4 0 .6-.3.6-.7 0-.4-.3-.7-.6-.7-.4 0-.6.3-.6.7s.3.7.6.7zM779.1.9v7.2h.9V.9h-.9zM781.6 8.2h.9V5.1c0-.2 0-.3.1-.4.2-.5.6-1 1.3-1 .9 0 1.2.7 1.2 1.5v3h.9V5.1c0-1.8-1.1-2.2-1.8-2.2-.9 0-1.5.5-1.7 1l-.1-.9h-.8V8.2zM786.9 3l2 5.2h.9l2-5.2h-1l-1 2.9c-.2.5-.3.9-.4 1.3-.1-.4-.2-.9-.4-1.3L788 3h-1.1zM796.7 5.8v-.4c0-1-.5-2.5-2.1-2.5-1.5 0-2.4 1.2-2.4 2.8s1 2.6 2.6 2.6c.8 0 1.4-.2 1.7-.3l-.2-.7c-.4.2-.8.3-1.4.3-.9 0-1.8-.5-1.8-1.8h3.6zm-3.6-.7c.1-.7.5-1.5 1.5-1.5 1.1 0 1.3.9 1.3 1.5h-2.8zM797.6 7.9c.4.2.9.4 1.5.4 1.2 0 1.9-.6 1.9-1.6 0-.8-.5-1.2-1.4-1.6-.7-.3-1-.5-1-.9s.3-.7.9-.7c.5 0 .9.2 1.1.3l.2-.7c-.3-.2-.8-.3-1.3-.3-1.1 0-1.8.7-1.8 1.5 0 .6.4 1.1 1.4 1.5.7.3 1 .5 1 1 0 .4-.3.8-1 .8-.5 0-1-.2-1.2-.4l-.3.7zM802.3 1.7V3h-.8v.7h.8v2.8c0 .6.1 1.1.4 1.4.2.3.6.4 1 .4s.7-.1.8-.1v-.7c-.1 0-.3.1-.5.1-.5 0-.7-.4-.7-1V3.7h1.4V3h-1.4V1.5l-1 .2zM805.7 8.2h.9V5c0-.2 0-.3.1-.5.2-.5.6-.9 1.2-.9.7 0 1.1.6 1.1 1.4v3.1h.9V5c0-.2 0-.3.1-.5.2-.5.6-.9 1.1-.9.8 0 1.1.6 1.1 1.6v2.9h.9v-3c0-1.8-1-2.3-1.7-2.3-.5 0-.8.1-1.2.4-.2.2-.4.4-.6.7-.2-.6-.8-1-1.5-1-.9 0-1.3.5-1.6 1v-.8h-.8v5.1zM818.6 5.8v-.4c0-1-.5-2.5-2.1-2.5-1.5 0-2.4 1.2-2.4 2.8s1 2.6 2.6 2.6c.8 0 1.4-.2 1.7-.3l-.2-.7c-.4.2-.8.3-1.4.3-.9 0-1.8-.5-1.8-1.8h3.6zm-3.6-.7c.1-.7.5-1.5 1.5-1.5 1.1 0 1.3.9 1.3 1.5H815zM819.9 8.2h.9V5.1c0-.2 0-.3.1-.4.2-.5.6-1 1.3-1 .9 0 1.2.7 1.2 1.5v3h.9V5.1c0-1.8-1.1-2.2-1.8-2.2-.9 0-1.5.5-1.7 1l-.1-.9h-.8V8.2zM826.1 1.7V3h-.8v.7h.8v2.8c0 .6.1 1.1.4 1.4.2.3.6.4 1 .4s.7-.1.8-.1v-.7c-.1 0-.3.1-.5.1-.5 0-.7-.4-.7-1V3.7h1.4V3H827V1.5l-.9.2zM831.7 8.2h.9V5.4 5c.1-.7.6-1.2 1.3-1.2h.3v-.9h-.3c-.6 0-1.2.4-1.4 1.1V3h-.8v5.2zM839.3 5.8v-.4c0-1-.5-2.5-2.1-2.5-1.5 0-2.4 1.2-2.4 2.8s1 2.6 2.6 2.6c.8 0 1.4-.2 1.7-.3l-.2-.7c-.4.2-.8.3-1.4.3-.9 0-1.8-.5-1.8-1.8h3.6zm-3.7-.7c.1-.7.5-1.5 1.5-1.5 1.1 0 1.3.9 1.3 1.5h-2.8zM840.8 1.7V3h-.8v.7h.8v2.8c0 .6.1 1.1.4 1.4.2.3.6.4 1 .4s.7-.1.8-.1v-.7c-.1 0-.3.1-.5.1-.5 0-.7-.4-.7-1V3.7h1.4V3h-1.4V1.5l-1 .2zM848.5 3h-.9v3.2c0 .2 0 .3-.1.5-.2.4-.6.9-1.2.9-.9 0-1.2-.7-1.2-1.7V3h-.9v3c0 1.8 1 2.3 1.8 2.3.9 0 1.5-.5 1.7-1l.1.8h.8V6.7l-.1-3.7zM849.9 8.2h.9V5.4 5c.1-.7.6-1.2 1.3-1.2h.3v-.9h-.3c-.6 0-1.2.4-1.4 1.1V3h-.8v5.2zM853.5 8.2h.9V5.1c0-.2 0-.3.1-.4.2-.5.6-1 1.3-1 .9 0 1.2.7 1.2 1.5v3h.9V5.1c0-1.8-1.1-2.2-1.8-2.2-.9 0-1.5.5-1.7 1l-.1-.9h-.8V8.2zM859.2 7.9c.4.2.9.4 1.5.4 1.2 0 1.9-.6 1.9-1.6 0-.8-.5-1.2-1.4-1.6-.7-.3-1-.5-1-.9s.3-.7.9-.7c.5 0 .9.2 1.1.3l.2-.7c-.3-.2-.8-.3-1.3-.3-1.1 0-1.8.7-1.8 1.5 0 .6.4 1.1 1.4 1.5.7.3 1 .5 1 1 0 .4-.3.8-1 .8-.5 0-1-.2-1.2-.4l-.3.7zM4.6 20.2c-.1-.4-.1-.8-.1-1.2v-2c0-1-.4-2.1-2-2.1-.7 0-1.3.2-1.7.5l.2.6c.4-.2.9-.4 1.4-.4 1.1 0 1.2.8 1.2 1.2v.1c-2 0-3.1.7-3.1 1.9 0 .8.5 1.5 1.6 1.5.7 0 1.3-.4 1.6-.8l.1.7h.8zm-1-1.8c0 .1 0 .2-.1.3-.2.4-.6.9-1.3.9-.5 0-.9-.3-.9-.9 0-1 1.2-1.2 2.2-1.2l.1.9zM6 20.2h1v-3.1c0-.2 0-.3.1-.4.2-.5.6-1 1.3-1 .9 0 1.2.7 1.2 1.5v3h.9v-3.1c0-1.8-1.1-2.2-1.8-2.2-.9 0-1.5.5-1.7 1l-.2-.9H6V20.2zM15.7 12.6v3.1c-.2-.4-.8-.8-1.6-.8-1.3 0-2.3 1.1-2.3 2.8 0 1.6 1 2.6 2.2 2.6.8 0 1.5-.4 1.8-1v.9h.8v-7.6h-.9zm0 5.4v.4c-.2.7-.8 1.1-1.4 1.1-1 0-1.5-.9-1.5-1.9 0-1.2.6-2 1.6-2 .7 0 1.2.5 1.4 1.1V18h-.1zM20.6 22.3h.9v-2.8c.3.5.9.8 1.6.8 1.2 0 2.4-.9 2.4-2.8 0-1.6-.9-2.6-2.2-2.6-.8 0-1.5.4-1.8 1V15h-.8v7.3h-.1zm.9-5.1c0-.1 0-.3.1-.4.2-.7.8-1.2 1.4-1.2 1 0 1.5.9 1.5 1.9 0 1.2-.6 2-1.6 2-.7 0-1.2-.5-1.4-1.1V17.2zM26.8 20.2h.9v-2.8-.4c.1-.7.6-1.2 1.3-1.2h.3v-.9H29c-.6 0-1.2.4-1.4 1.1v-1h-.8v5.2zM31.3 20.2V15h-.9v5.2h.9zm-.5-7.3c-.3 0-.6.3-.6.6s.2.6.6.6.6-.3.6-.6-.2-.6-.6-.6zM33 20.2h1v-3.1c0-.2 0-.3.1-.4.2-.5.6-1 1.3-1 .9 0 1.2.7 1.2 1.5v3h.9v-3.1c0-1.8-1.1-2.2-1.8-2.2-.9 0-1.5.5-1.7 1l-.2-.9H33V20.2zM42.7 19.3c-.3.1-.6.3-1.2.3-1 0-1.8-.7-1.8-1.9 0-1.1.6-2 1.8-2 .5 0 .9.1 1.1.2l.2-.7c-.3-.1-.8-.3-1.3-.3-1.7 0-2.8 1.2-2.8 2.8s1 2.7 2.6 2.7c.7 0 1.2-.2 1.5-.3l-.1-.8zM44.9 20.2V15H44v5.2h.9zm-.5-7.3c-.3 0-.6.3-.6.6s.2.6.6.6c.4 0 .6-.3.6-.6s-.3-.6-.6-.6zM46.6 22.3h.9v-2.8c.3.5.9.8 1.6.8 1.2 0 2.4-.9 2.4-2.8 0-1.6-.9-2.6-2.2-2.6-.8 0-1.5.4-1.8 1V15h-.8v7.3h-.1zm.9-5.1c0-.1 0-.3.1-.4.2-.7.8-1.2 1.4-1.2 1 0 1.5.9 1.5 1.9 0 1.2-.6 2-1.6 2-.7 0-1.2-.5-1.4-1.1V17.2zM56.5 20.2c-.1-.4-.1-.8-.1-1.2v-2c0-1-.4-2.1-2-2.1-.7 0-1.3.2-1.7.5l.3.6c.4-.2.9-.4 1.4-.4 1.1 0 1.2.8 1.2 1.2v.1c-2 0-3.1.7-3.1 1.9 0 .8.5 1.5 1.6 1.5.7 0 1.3-.4 1.6-.8l.1.7h.7zm-1-1.8c0 .1 0 .2-.1.3-.2.4-.6.9-1.3.9-.5 0-.9-.3-.9-.9 0-1 1.2-1.2 2.2-1.2l.1.9zM58 20.2h.9v-7.6H58v7.6zM62.2 15l2 5.2h.9l2-5.2h-1l-1 2.9c-.2.5-.3.9-.4 1.3-.1-.4-.2-.9-.4-1.3l-1-2.9h-1.1zM71.7 20.2c-.1-.4-.1-.8-.1-1.2v-2c0-1-.4-2.1-2-2.1-.7 0-1.3.2-1.7.5l.2.6c.4-.2.9-.4 1.4-.4 1.1 0 1.2.8 1.2 1.2v.1c-2 0-3.1.7-3.1 1.9 0 .8.5 1.5 1.6 1.5.7 0 1.3-.4 1.6-.8l.1.7h.8zm-1-1.8c0 .1 0 .2-.1.3-.2.4-.6.9-1.3.9-.5 0-.9-.3-.9-.9 0-1 1.2-1.2 2.2-1.2v.9h.1zM73.1 20.2h.9v-7.6h-.9v7.6zM80 15h-1v3.2c0 .2 0 .3-.1.5-.2.4-.6.9-1.2.9-.9 0-1.2-.7-1.2-1.7V15h-.9v3c0 1.8 1 2.3 1.8 2.3.9 0 1.5-.5 1.7-1l.1.8h.8V15zM85.7 17.8v-.4c0-1-.5-2.5-2.1-2.5-1.5 0-2.4 1.2-2.4 2.8s1 2.6 2.6 2.6c.8 0 1.4-.2 1.7-.3l-.2-.7c-.4.2-.8.3-1.4.3-.9 0-1.8-.5-1.8-1.8h3.6zm-3.6-.7c.1-.7.5-1.5 1.5-1.5 1.1 0 1.3.9 1.3 1.5h-2.8zM88.8 15l1.6 5.2h.9l.8-2.5c.2-.6.3-1.1.5-1.7.1.6.3 1.1.5 1.7l.8 2.5h.9l1.7-5.2h-.9l-.7 2.6c-.2.6-.3 1.2-.4 1.7-.1-.5-.3-1.1-.5-1.7L92.9 15h-.8l-.8 2.7c-.2.6-.3 1.1-.5 1.6-.1-.5-.2-1.1-.4-1.7l-.7-2.6h-.9zM98.2 20.2V15h-.9v5.2h.9zm-.5-7.3c-.3 0-.6.3-.6.6s.2.6.6.6.6-.3.6-.6-.2-.6-.6-.6zM99.9 20.2h.9v-7.6h-.9v7.6zM102.4 20.2h.9v-7.6h-.9v7.6zM108.3 20.2v-4.5h1.2V15h-1.2v-.3c0-.8.3-1.6 1.3-1.6.4 0 .6.1.8.1v6.9h.9v-7.4c-.4-.2-1-.3-1.6-.3-.7 0-1.3.2-1.7.5-.5.4-.7 1.1-.7 1.8v.3h-.7v.7h.7v4.5h1zM117.1 15h-.9v3.2c0 .2 0 .3-.1.5-.2.4-.6.9-1.2.9-.9 0-1.2-.7-1.2-1.7V15h-.9v3c0 1.8 1 2.3 1.8 2.3.9 0 1.5-.5 1.7-1l.1.8h.8V15h-.1zM122.2 19.3c-.3.1-.6.3-1.2.3-1 0-1.8-.7-1.8-1.9 0-1.1.6-2 1.8-2 .5 0 .9.1 1.1.2l.2-.7c-.3-.1-.8-.3-1.3-.3-1.7 0-2.8 1.2-2.8 2.8s1 2.7 2.6 2.7c.7 0 1.2-.2 1.5-.3l-.1-.8zM123.8 13.7V15h-.8v.7h.8v2.8c0 .6.1 1.1.4 1.4.2.3.6.4 1 .4s.7-.1.8-.1v-.7c-.1 0-.3.1-.5.1-.5 0-.7-.4-.7-1v-2.8h1.4V15h-1.4v-1.5l-1 .2zM131.6 15h-.9v3.2c0 .2 0 .3-.1.5-.2.4-.6.9-1.2.9-.9 0-1.2-.7-1.2-1.7V15h-.9v3c0 1.8 1 2.3 1.8 2.3.9 0 1.5-.5 1.7-1l.1.8h.8V15h-.1zM136.8 20.2c-.1-.4-.1-.8-.1-1.2v-2c0-1-.4-2.1-2-2.1-.7 0-1.3.2-1.7.5l.2.6c.4-.2.9-.4 1.4-.4 1.1 0 1.2.8 1.2 1.2v.1c-2 0-3.1.7-3.1 1.9 0 .8.5 1.5 1.6 1.5.7 0 1.3-.4 1.6-.8l.1.7h.8zm-1-1.8c0 .1 0 .2-.1.3-.2.4-.6.9-1.3.9-.5 0-.9-.3-.9-.9 0-1 1.2-1.2 2.2-1.2v.9h.1zM138.4 13.7V15h-.8v.7h.8v2.8c0 .6.1 1.1.4 1.4.2.3.6.4 1 .4s.7-.1.8-.1v-.7c-.1 0-.3.1-.5.1-.5 0-.7-.4-.7-1v-2.8h1.4V15h-1.4v-1.5l-1 .2zM146 17.8v-.4c0-1-.5-2.5-2.1-2.5-1.5 0-2.4 1.2-2.4 2.8s1 2.6 2.6 2.6c.8 0 1.4-.2 1.7-.3l-.2-.7c-.4.2-.8.3-1.4.3-.9 0-1.8-.5-1.8-1.8h3.6zm-3.7-.7c.1-.7.5-1.5 1.5-1.5 1.1 0 1.3.9 1.3 1.5h-2.8zM147.2 21.4c.3-.5.8-1.7 1-2.6l-1.1.1c-.1.8-.4 1.9-.6 2.6l.7-.1zM155.6 20.2c-.1-.4-.1-.8-.1-1.2v-2c0-1-.4-2.1-2-2.1-.7 0-1.3.2-1.7.5l.2.6c.4-.2.9-.4 1.4-.4 1.1 0 1.2.8 1.2 1.2v.1c-2 0-3.1.7-3.1 1.9 0 .8.5 1.5 1.6 1.5.7 0 1.3-.4 1.6-.8l.1.7h.8zm-1-1.8c0 .1 0 .2-.1.3-.2.4-.6.9-1.3.9-.5 0-.9-.3-.9-.9 0-1 1.2-1.2 2.2-1.2v.9h.1zM157 20.2h.9v-3.1c0-.2 0-.3.1-.4.2-.5.6-1 1.3-1 .9 0 1.2.7 1.2 1.5v3h.9v-3.1c0-1.8-1.1-2.2-1.8-2.2-.9 0-1.5.5-1.7 1l-.1-.9h-.8V20.2zM166.7 12.6v3.1c-.2-.4-.8-.8-1.6-.8-1.3 0-2.3 1.1-2.3 2.8 0 1.6 1 2.6 2.2 2.6.8 0 1.5-.4 1.8-1v.9h.8v-7.6h-.9zm0 5.4v.4c-.2.7-.8 1.1-1.4 1.1-1 0-1.5-.9-1.5-1.9 0-1.2.6-2 1.6-2 .7 0 1.2.5 1.4 1.1V18h-.1zM171.2 19.9c.4.2.9.4 1.5.4 1.2 0 1.9-.6 1.9-1.6 0-.8-.5-1.2-1.4-1.6-.7-.3-1-.5-1-.9s.3-.7.9-.7c.5 0 .9.2 1.1.3l.2-.7c-.3-.2-.8-.3-1.3-.3-1.1 0-1.8.7-1.8 1.5 0 .6.4 1.1 1.4 1.5.7.3 1 .5 1 1 0 .4-.3.8-1 .8-.5 0-1-.2-1.2-.4l-.3.7zM175.8 20.2h.9V17c0-.2 0-.3.1-.5.2-.5.7-.9 1.3-.9.9 0 1.2.7 1.2 1.5v3h.9V17c0-1.8-1.1-2.2-1.8-2.2-.4 0-.7.1-1 .3s-.5.4-.7.7v-3.2h-.9v7.6zM185.6 20.2c-.1-.4-.1-.8-.1-1.2v-2c0-1-.4-2.1-2-2.1-.7 0-1.3.2-1.7.5l.2.6c.4-.2.9-.4 1.4-.4 1.1 0 1.2.8 1.2 1.2v.1c-2 0-3.1.7-3.1 1.9 0 .8.5 1.5 1.6 1.5.7 0 1.3-.4 1.6-.8l.1.7h.8zm-1-1.8c0 .1 0 .2-.1.3-.2.4-.6.9-1.3.9-.5 0-.9-.3-.9-.9 0-1 1.2-1.2 2.2-1.2v.9h.1zM187.1 20.2h.9v-2.8-.4c.1-.7.6-1.2 1.3-1.2h.3v-.9h-.3c-.6 0-1.2.4-1.4 1.1v-1h-.9v5.2h.1zM194.7 17.8v-.4c0-1-.5-2.5-2.1-2.5-1.5 0-2.4 1.2-2.4 2.8s1 2.6 2.6 2.6c.8 0 1.4-.2 1.7-.3l-.2-.7c-.4.2-.8.3-1.4.3-.9 0-1.8-.5-1.8-1.8h3.6zm-3.7-.7c.1-.7.5-1.5 1.5-1.5 1.1 0 1.3.9 1.3 1.5H191zM195.6 19.9c.4.2.9.4 1.5.4 1.2 0 1.9-.6 1.9-1.6 0-.8-.5-1.2-1.4-1.6-.7-.3-1-.5-1-.9s.3-.7.9-.7c.5 0 .9.2 1.1.3l.2-.7c-.3-.2-.8-.3-1.3-.3-1.1 0-1.8.7-1.8 1.5 0 .6.4 1.1 1.4 1.5.7.3 1 .5 1 1 0 .4-.3.8-1 .8-.5 0-1-.2-1.2-.4l-.3.7zM200.1 21.4c.3-.5.8-1.7 1-2.6l-1.1.1c-.1.8-.4 1.9-.6 2.6l.7-.1zM204.1 15l1.6 5.2h.9l.8-2.5c.2-.6.3-1.1.5-1.7.1.6.3 1.1.5 1.7l.8 2.5h.9l1.7-5.2h-.9l-.7 2.6c-.2.6-.3 1.2-.4 1.7-.1-.5-.3-1.1-.5-1.7l-.8-2.6h-.8l-.8 2.7c-.2.6-.3 1.1-.5 1.6-.1-.5-.2-1.1-.4-1.7l-.7-2.6h-1.2zM212.6 20.2h.9V17c0-.2 0-.3.1-.5.2-.5.7-.9 1.3-.9.9 0 1.2.7 1.2 1.5v3h.9V17c0-1.8-1.1-2.2-1.8-2.2-.4 0-.7.1-1 .3s-.5.4-.7.7v-3.2h-.9v7.6zM222.9 17.8v-.4c0-1-.5-2.5-2.1-2.5-1.5 0-2.4 1.2-2.4 2.8s1 2.6 2.6 2.6c.8 0 1.4-.2 1.7-.3l-.2-.7c-.4.2-.8.3-1.4.3-.9 0-1.8-.5-1.8-1.8h3.6zm-3.6-.7c.1-.7.5-1.5 1.5-1.5 1.1 0 1.3.9 1.3 1.5h-2.8zM224.2 20.2h.9v-3.1c0-.2 0-.3.1-.4.2-.5.6-1 1.3-1 .9 0 1.2.7 1.2 1.5v3h.9v-3.1c0-1.8-1.1-2.2-1.8-2.2-.9 0-1.5.5-1.7 1l-.1-.9h-.8V20.2zM232.7 20.2h.9v-2.8-.4c.1-.7.6-1.2 1.3-1.2h.3v-.9h-.3c-.6 0-1.2.4-1.4 1.1v-1h-.8v5.2zM240.3 17.8v-.4c0-1-.5-2.5-2.1-2.5-1.5 0-2.4 1.2-2.4 2.8s1 2.6 2.6 2.6c.8 0 1.4-.2 1.7-.3l-.2-.7c-.4.2-.8.3-1.4.3-.9 0-1.8-.5-1.8-1.8h3.6zm-3.7-.7c.1-.7.5-1.5 1.5-1.5 1.1 0 1.3.9 1.3 1.5h-2.8zM245.1 12.6v3.1c-.2-.4-.8-.8-1.6-.8-1.3 0-2.3 1.1-2.3 2.8 0 1.6 1 2.6 2.2 2.6.8 0 1.5-.4 1.8-1v.9h.8v-7.6h-.9zm0 5.4v.4c-.2.7-.8 1.1-1.4 1.1-1 0-1.5-.9-1.5-1.9 0-1.2.6-2 1.6-2 .7 0 1.2.5 1.4 1.1V18h-.1zM251.9 17.8v-.4c0-1-.5-2.5-2.1-2.5-1.5 0-2.4 1.2-2.4 2.8s1 2.6 2.6 2.6c.8 0 1.4-.2 1.7-.3l-.2-.7c-.4.2-.8.3-1.4.3-.9 0-1.8-.5-1.8-1.8h3.6zm-3.6-.7c.1-.7.5-1.5 1.5-1.5 1.1 0 1.3.9 1.3 1.5h-2.8zM257.4 17.8v-.4c0-1-.5-2.5-2.1-2.5-1.5 0-2.4 1.2-2.4 2.8s1 2.6 2.6 2.6c.8 0 1.4-.2 1.7-.3l-.2-.7c-.4.2-.8.3-1.4.3-.9 0-1.8-.5-1.8-1.8h3.6zm-3.6-.7c.1-.7.5-1.5 1.5-1.5 1.1 0 1.3.9 1.3 1.5h-2.8zM258.7 20.2h.9V17c0-.2 0-.3.1-.5.2-.5.6-.9 1.2-.9.7 0 1.1.6 1.1 1.4v3.1h.9V17c0-.2 0-.3.1-.5.2-.5.6-.9 1.1-.9.8 0 1.1.6 1.1 1.6v2.9h.9V17c0-1.8-1-2.3-1.7-2.3-.5 0-.8.1-1.2.4-.2.2-.4.4-.6.7-.2-.6-.8-1-1.5-1-.9 0-1.3.5-1.6 1V15h-.8V20.2zM271.7 17.8v-.4c0-1-.5-2.5-2.1-2.5-1.5 0-2.4 1.2-2.4 2.8s1 2.6 2.6 2.6c.8 0 1.4-.2 1.7-.3l-.2-.7c-.4.2-.8.3-1.4.3-.9 0-1.8-.5-1.8-1.8h3.6zm-3.6-.7c.1-.7.5-1.5 1.5-1.5 1.1 0 1.3.9 1.3 1.5h-2.8zM276.6 12.6v3.1c-.2-.4-.8-.8-1.6-.8-1.3 0-2.3 1.1-2.3 2.8 0 1.6 1 2.6 2.2 2.6.8 0 1.5-.4 1.8-1v.9h.8v-7.6h-.9zm0 5.4v.4c-.2.7-.8 1.1-1.4 1.1-1 0-1.5-.9-1.5-1.9 0-1.2.6-2 1.6-2 .7 0 1.2.5 1.4 1.1V18h-.1zM279.1 21.4c.3-.5.8-1.7 1-2.6l-1.1.1c-.1.8-.4 1.9-.6 2.6l.7-.1zM283.7 20.2h.9V17c0-.2 0-.3.1-.5.2-.5.6-.9 1.2-.9.7 0 1.1.6 1.1 1.4v3.1h.9V17c0-.2 0-.3.1-.5.2-.5.6-.9 1.1-.9.8 0 1.1.6 1.1 1.6v2.9h.9V17c0-1.8-1-2.3-1.7-2.3-.5 0-.8.1-1.2.4-.2.2-.4.4-.6.7-.2-.6-.8-1-1.5-1-.9 0-1.3.5-1.6 1V15h-.8V20.2zM296.3 20.2c-.1-.4-.1-.8-.1-1.2v-2c0-1-.4-2.1-2-2.1-.7 0-1.3.2-1.7.5l.2.6c.4-.2.9-.4 1.4-.4 1.1 0 1.2.8 1.2 1.2v.1c-2 0-3.1.7-3.1 1.9 0 .8.5 1.5 1.6 1.5.7 0 1.3-.4 1.6-.8l.1.7h.8zm-1-1.8c0 .1 0 .2-.1.3-.2.4-.6.9-1.3.9-.5 0-.9-.3-.9-.9 0-1 1.2-1.2 2.2-1.2l.1.9zM297 15l1.9 4.8c0 .1.1.2.1.2 0 .1 0 .1-.1.2-.2.5-.5.8-.8 1.1-.3.2-.6.4-.8.5l.2.8c.2 0 .7-.2 1.2-.6.6-.6 1.1-1.5 1.8-3.3l1.4-3.7h-1l-1 3.1c-.1.4-.2.8-.3 1.1-.1-.3-.2-.7-.3-1.1L298 15h-1zM305.9 20.2v-.9c.4.7 1 1 1.7 1 1.2 0 2.3-.9 2.3-2.8 0-1.6-.9-2.7-2.2-2.7-.8 0-1.4.4-1.8 1v-3.3h-.9v7.6l.9.1zm.1-3c0-.2 0-.3.1-.4.2-.7.8-1.2 1.4-1.2 1 0 1.5.9 1.5 1.9 0 1.2-.6 2-1.6 2-.7 0-1.2-.5-1.4-1.1v-1.2zM315.5 17.8v-.4c0-1-.5-2.5-2.1-2.5-1.5 0-2.4 1.2-2.4 2.8s1 2.6 2.6 2.6c.8 0 1.4-.2 1.7-.3l-.2-.7c-.4.2-.8.3-1.4.3-.9 0-1.8-.5-1.8-1.8h3.6zm-3.7-.7c.1-.7.5-1.5 1.5-1.5 1.1 0 1.3.9 1.3 1.5h-2.8zM318.5 15l1.6 5.2h.9l.8-2.5c.2-.6.3-1.1.5-1.7.1.6.3 1.1.5 1.7l.8 2.5h.9l1.7-5.2h-.9l-.7 2.6c-.2.6-.3 1.2-.4 1.7-.1-.5-.3-1.1-.5-1.7l-.8-2.6h-.8l-.8 2.7c-.2.6-.3 1.1-.5 1.6-.1-.5-.2-1.1-.4-1.7l-.7-2.6h-1.2zM329.1 14.9c-1.4 0-2.6 1-2.6 2.8 0 1.6 1.1 2.7 2.5 2.7 1.3 0 2.6-.8 2.6-2.8 0-1.6-1-2.7-2.5-2.7zm-.1.7c1.1 0 1.6 1.1 1.6 2 0 1.2-.7 2-1.6 2s-1.6-.9-1.6-2c0-1 .5-2 1.6-2zM332.6 20.2h.9v-2.8-.4c.1-.7.6-1.2 1.3-1.2h.3v-.9h-.3c-.6 0-1.2.4-1.4 1.1v-1h-.8v5.2zM336.6 13.7V15h-.8v.7h.8v2.8c0 .6.1 1.1.4 1.4.2.3.6.4 1 .4s.7-.1.8-.1v-.7c-.1 0-.3.1-.5.1-.5 0-.7-.4-.7-1v-2.8h1.4V15h-1.4v-1.5l-1 .2zM340 20.2h.9V17c0-.2 0-.3.1-.5.2-.5.7-.9 1.3-.9.9 0 1.2.7 1.2 1.5v3h.9V17c0-1.8-1.1-2.2-1.8-2.2-.4 0-.7.1-1 .3s-.5.4-.7.7v-3.2h-.9v7.6zM348.5 20.2h.9V17c0-.2 0-.3.1-.5.2-.5.6-.9 1.2-.9.7 0 1.1.6 1.1 1.4v3.1h.9V17c0-.2 0-.3.1-.5.2-.5.6-.9 1.1-.9.8 0 1.1.6 1.1 1.6v2.9h.9V17c0-1.8-1-2.3-1.7-2.3-.5 0-.8.1-1.2.4-.2.2-.4.4-.6.7-.2-.6-.8-1-1.5-1-.9 0-1.3.5-1.6 1V15h-.8V20.2zM359.5 14.9c-1.4 0-2.6 1-2.6 2.8 0 1.6 1.1 2.7 2.5 2.7 1.3 0 2.6-.8 2.6-2.8 0-1.6-1-2.7-2.5-2.7zm0 .7c1.1 0 1.6 1.1 1.6 2 0 1.2-.7 2-1.6 2s-1.6-.9-1.6-2c0-1 .5-2 1.6-2zM363.1 20.2h.9v-2.8-.4c.1-.7.6-1.2 1.3-1.2h.3v-.9h-.3c-.6 0-1.2.4-1.4 1.1v-1h-.9v5.2h.1zM370.7 17.8v-.4c0-1-.5-2.5-2.1-2.5-1.5 0-2.4 1.2-2.4 2.8s1 2.6 2.6 2.6c.8 0 1.4-.2 1.7-.3l-.2-.7c-.4.2-.8.3-1.4.3-.9 0-1.8-.5-1.8-1.8h3.6zm-3.7-.7c.1-.7.5-1.5 1.5-1.5 1.1 0 1.3.9 1.3 1.5H367zM376.5 14.9c-1.4 0-2.6 1-2.6 2.8 0 1.6 1.1 2.7 2.5 2.7 1.3 0 2.6-.8 2.6-2.8 0-1.6-1-2.7-2.5-2.7zm0 .7c1.1 0 1.6 1.1 1.6 2 0 1.2-.7 2-1.6 2s-1.6-.9-1.6-2c0-1 .5-2 1.6-2zM380.1 20.2h.9v-2.8-.4c.1-.7.6-1.2 1.3-1.2h.3v-.9h-.3c-.6 0-1.2.4-1.4 1.1v-1h-.8v5.2zM386 20.2h.9v-7.6h-.9v7.6zM392.7 17.8v-.4c0-1-.5-2.5-2.1-2.5-1.5 0-2.4 1.2-2.4 2.8s1 2.6 2.6 2.6c.8 0 1.4-.2 1.7-.3l-.2-.7c-.4.2-.8.3-1.4.3-.9 0-1.8-.5-1.8-1.8h3.6zm-3.7-.7c.1-.7.5-1.5 1.5-1.5 1.1 0 1.3.9 1.3 1.5H389zM393.6 19.9c.4.2.9.4 1.5.4 1.2 0 1.9-.6 1.9-1.6 0-.8-.5-1.2-1.4-1.6-.7-.3-1-.5-1-.9s.3-.7.9-.7c.5 0 .9.2 1.1.3l.2-.7c-.3-.2-.8-.3-1.3-.3-1.1 0-1.8.7-1.8 1.5 0 .6.4 1.1 1.4 1.5.7.3 1 .5 1 1 0 .4-.3.8-1 .8-.5 0-1-.2-1.2-.4l-.3.7zM397.8 19.9c.4.2.9.4 1.5.4 1.2 0 1.9-.6 1.9-1.6 0-.8-.5-1.2-1.4-1.6-.7-.3-1-.5-1-.9s.3-.7.9-.7c.5 0 .9.2 1.1.3l.2-.7c-.3-.2-.8-.3-1.3-.3-1.1 0-1.8.7-1.8 1.5 0 .6.4 1.1 1.4 1.5.7.3 1 .5 1 1 0 .4-.3.8-1 .8-.5 0-1-.2-1.2-.4l-.3.7zM404.9 13.7V15h-.8v.7h.8v2.8c0 .6.1 1.1.4 1.4.2.3.6.4 1 .4s.7-.1.8-.1v-.7c-.1 0-.3.1-.5.1-.5 0-.7-.4-.7-1v-2.8h1.4V15h-1.4v-1.5l-1 .2zM408.3 20.2h.9V17c0-.2 0-.3.1-.5.2-.5.7-.9 1.3-.9.9 0 1.2.7 1.2 1.5v3h.9V17c0-1.8-1.1-2.2-1.8-2.2-.4 0-.7.1-1 .3s-.5.4-.7.7v-3.2h-.9v7.6zM418.2 20.2c-.1-.4-.1-.8-.1-1.2v-2c0-1-.4-2.1-2-2.1-.7 0-1.3.2-1.7.5l.2.6c.4-.2.9-.4 1.4-.4 1.1 0 1.2.8 1.2 1.2v.1c-2 0-3.1.7-3.1 1.9 0 .8.5 1.5 1.6 1.5.7 0 1.3-.4 1.6-.8l.1.7h.8zm-1-1.8c0 .1 0 .2-.1.3-.2.4-.6.9-1.3.9-.5 0-.9-.3-.9-.9 0-1 1.2-1.2 2.2-1.2l.1.9zM419.6 20.2h.9v-3.1c0-.2 0-.3.1-.4.2-.5.6-1 1.3-1 .9 0 1.2.7 1.2 1.5v3h.9v-3.1c0-1.8-1.1-2.2-1.8-2.2-.9 0-1.5.5-1.7 1l-.1-.9h-.8V20.2zM428.3 13.7V15h-.8v.7h.8v2.8c0 .6.1 1.1.4 1.4.2.3.6.4 1 .4s.7-.1.8-.1v-.7c-.1 0-.3.1-.5.1-.5 0-.7-.4-.7-1v-2.8h1.4V15h-1.4v-1.5l-1 .2zM431.7 20.2h.9V17c0-.2 0-.3.1-.5.2-.5.7-.9 1.3-.9.9 0 1.2.7 1.2 1.5v3h.9V17c0-1.8-1.1-2.2-1.8-2.2-.4 0-.7.1-1 .3s-.5.4-.7.7v-3.2h-.9v7.6zM442 17.8v-.4c0-1-.5-2.5-2.1-2.5-1.5 0-2.4 1.2-2.4 2.8s1 2.6 2.6 2.6c.8 0 1.4-.2 1.7-.3l-.2-.7c-.4.2-.8.3-1.4.3-.9 0-1.8-.5-1.8-1.8h3.6zm-3.7-.7c.1-.7.5-1.5 1.5-1.5 1.1 0 1.3.9 1.3 1.5h-2.8zM444.2 20.2V15h-.9v5.2h.9zm-.4-7.3c-.3 0-.6.3-.6.6s.2.6.6.6.6-.3.6-.6-.3-.6-.6-.6zM446 20.2h.9v-2.8-.4c.1-.7.6-1.2 1.3-1.2h.3v-.9h-.3c-.6 0-1.2.4-1.4 1.1v-1h-.8v5.2zM454 14.9c-1.4 0-2.6 1-2.6 2.8 0 1.6 1.1 2.7 2.5 2.7 1.3 0 2.6-.8 2.6-2.8 0-1.6-1-2.7-2.5-2.7zm0 .7c1.1 0 1.6 1.1 1.6 2 0 1.2-.7 2-1.6 2s-1.6-.9-1.6-2c0-1 .5-2 1.6-2zM457.6 20.2h.9v-2.8-.4c.1-.7.6-1.2 1.3-1.2h.3v-.9h-.3c-.6 0-1.2.4-1.4 1.1v-1h-.8v5.2zM462.1 20.2V15h-.9v5.2h.9zm-.5-7.3c-.3 0-.6.3-.6.6s.2.6.6.6.6-.3.6-.6-.2-.6-.6-.6zM467.5 15v.8c-.2-.4-.7-.9-1.6-.9-1.2 0-2.3 1-2.3 2.8 0 1.4.9 2.5 2.2 2.5.8 0 1.4-.4 1.7-.9v.6c0 1.3-.7 1.8-1.7 1.8-.6 0-1.2-.2-1.5-.4l-.2.7c.4.3 1.1.4 1.7.4.7 0 1.4-.2 1.9-.6.5-.5.7-1.2.7-2.4v-3V15h-.9zm-.2 3c0 .2 0 .3-.1.5-.2.6-.7 1-1.3 1-1 0-1.5-.8-1.5-1.9 0-1.2.6-2 1.5-2 .7 0 1.2.5 1.3 1 0 .1.1.3.1.4v1zM470.9 20.2V15h-.9v5.2h.9zm-.5-7.3c-.3 0-.6.3-.6.6s.2.6.6.6.6-.3.6-.6-.3-.6-.6-.6zM472.6 20.2h.9v-3.1c0-.2 0-.3.1-.4.2-.5.6-1 1.3-1 .9 0 1.2.7 1.2 1.5v3h.9v-3.1c0-1.8-1.1-2.2-1.8-2.2-.9 0-1.5.5-1.7 1l-.1-.9h-.8V20.2zM482.4 20.2c-.1-.4-.1-.8-.1-1.2v-2c0-1-.4-2.1-2-2.1-.7 0-1.3.2-1.7.5l.2.6c.4-.2.9-.4 1.4-.4 1.1 0 1.2.8 1.2 1.2v.1c-2 0-3.1.7-3.1 1.9 0 .8.5 1.5 1.6 1.5.7 0 1.3-.4 1.6-.8l.1.7h.8zm-1-1.8c0 .1 0 .2-.1.3-.2.4-.6.9-1.3.9-.5 0-.9-.3-.9-.9 0-1 1.2-1.2 2.2-1.2l.1.9zM483.9 20.2h.9v-7.6h-.9v7.6zM492.3 19.3c-.3.1-.6.3-1.2.3-1 0-1.8-.7-1.8-1.9 0-1.1.6-2 1.8-2 .5 0 .9.1 1.1.2l.2-.7c-.3-.1-.8-.3-1.3-.3-1.7 0-2.8 1.2-2.8 2.8s1 2.7 2.6 2.7c.7 0 1.2-.2 1.5-.3l-.1-.8zM495.7 14.9c-1.4 0-2.6 1-2.6 2.8 0 1.6 1.1 2.7 2.5 2.7 1.3 0 2.6-.8 2.6-2.8 0-1.6-1.1-2.7-2.5-2.7zm-.1.7c1.1 0 1.6 1.1 1.6 2 0 1.2-.7 2-1.6 2s-1.6-.9-1.6-2c0-1 .5-2 1.6-2zM498.9 19.9c.4.2.9.4 1.5.4 1.2 0 1.9-.6 1.9-1.6 0-.8-.5-1.2-1.4-1.6-.7-.3-1-.5-1-.9s.3-.7.9-.7c.5 0 .9.2 1.1.3l.2-.7c-.3-.2-.8-.3-1.3-.3-1.1 0-1.8.7-1.8 1.5 0 .6.4 1.1 1.4 1.5.7.3 1 .5 1 1 0 .4-.3.8-1 .8-.5 0-1-.2-1.2-.4l-.3.7zM503.6 13.7V15h-.8v.7h.8v2.8c0 .6.1 1.1.4 1.4.2.3.6.4 1 .4s.7-.1.8-.1v-.7c-.1 0-.3.1-.5.1-.5 0-.7-.4-.7-1v-2.8h1.4V15h-1.4v-1.5l-1 .2zM507.4 20.3c.4 0 .6-.3.6-.7 0-.4-.3-.7-.6-.7-.4 0-.6.3-.6.7s.2.7.6.7zM516.6 19.2c-.4.2-1 .3-1.5.3-1.8 0-2.8-1.1-2.8-2.9 0-1.9 1.1-3 2.8-3 .6 0 1.1.1 1.5.3l.2-.8c-.2-.1-.8-.3-1.7-.3-2.2 0-3.8 1.5-3.8 3.8 0 2.4 1.5 3.7 3.6 3.7.9 0 1.6-.2 1.9-.3l-.2-.8zM522.1 15h-.9v3.2c0 .2 0 .3-.1.5-.2.4-.6.9-1.2.9-.9 0-1.2-.7-1.2-1.7V15h-.9v3c0 1.8 1 2.3 1.8 2.3.9 0 1.5-.5 1.7-1l.1.8h.8v-1.4l-.1-3.7zM523.6 20.2h.9v-2.8-.4c.1-.7.6-1.2 1.3-1.2h.3v-.9h-.3c-.6 0-1.2.4-1.4 1.1v-1h-.8v5.2zM527.2 20.2h.9v-2.8-.4c.1-.7.6-1.2 1.3-1.2h.3v-.9h-.3c-.6 0-1.2.4-1.4 1.1v-1h-.8v5.2zM534.8 17.8v-.4c0-1-.5-2.5-2.1-2.5-1.5 0-2.4 1.2-2.4 2.8s1 2.6 2.6 2.6c.8 0 1.4-.2 1.7-.3l-.2-.7c-.4.2-.8.3-1.4.3-.9 0-1.8-.5-1.8-1.8h3.6zm-3.6-.7c.1-.7.5-1.5 1.5-1.5 1.1 0 1.3.9 1.3 1.5h-2.8zM536.1 20.2h.9v-3.1c0-.2 0-.3.1-.4.2-.5.6-1 1.3-1 .9 0 1.2.7 1.2 1.5v3h.9v-3.1c0-1.8-1.1-2.2-1.8-2.2-.9 0-1.5.5-1.7 1l-.1-.9h-.8V20.2zM542.4 13.7V15h-.8v.7h.8v2.8c0 .6.1 1.1.4 1.4.2.3.6.4 1 .4s.7-.1.8-.1v-.7c-.1 0-.3.1-.5.1-.5 0-.7-.4-.7-1v-2.8h1.4V15h-1.4v-1.5l-1 .2zM548.2 22.3h.9v-2.8c.3.5.9.8 1.6.8 1.2 0 2.4-.9 2.4-2.8 0-1.6-.9-2.6-2.2-2.6-.8 0-1.5.4-1.8 1V15h-.8v7.3h-.1zm.9-5.1c0-.1 0-.3.1-.4.2-.7.8-1.2 1.4-1.2 1 0 1.5.9 1.5 1.9 0 1.2-.6 2-1.6 2-.7 0-1.2-.5-1.4-1.1V17.2zM558.5 17.8v-.4c0-1-.5-2.5-2.1-2.5-1.5 0-2.4 1.2-2.4 2.8s1 2.6 2.6 2.6c.8 0 1.4-.2 1.7-.3l-.2-.7c-.4.2-.8.3-1.4.3-.9 0-1.8-.5-1.8-1.8h3.6zm-3.6-.7c.1-.7.5-1.5 1.5-1.5 1.1 0 1.3.9 1.3 1.5h-2.8zM559.8 20.2h.9v-2.8-.4c.1-.7.6-1.2 1.3-1.2h.3v-.9h-.3c-.6 0-1.2.4-1.4 1.1v-1h-.8v5.2zM564.7 20.2v-4.5h1.3V15h-1.3v-.3c0-.8.2-1.5 1-1.5.3 0 .5.1.6.1l.1-.7c-.2-.1-.5-.2-.8-.2-.4 0-.9.1-1.3.5s-.6 1.1-.6 1.8v.3h-.7v.7h.7v4.5h1zM568.8 14.9c-1.4 0-2.6 1-2.6 2.8 0 1.6 1.1 2.7 2.5 2.7 1.3 0 2.6-.8 2.6-2.8 0-1.6-1-2.7-2.5-2.7zm0 .7c1.1 0 1.6 1.1 1.6 2 0 1.2-.7 2-1.6 2-.9 0-1.6-.9-1.6-2 0-1 .5-2 1.6-2zM572.4 20.2h.9v-2.8-.4c.1-.7.6-1.2 1.3-1.2h.3v-.9h-.3c-.6 0-1.2.4-1.4 1.1v-1h-.8v5.2zM576 20.2h.9V17c0-.2 0-.3.1-.5.2-.5.6-.9 1.2-.9.7 0 1.1.6 1.1 1.4v3.1h.9V17c0-.2 0-.3.1-.5.2-.5.6-.9 1.1-.9.8 0 1.1.6 1.1 1.6v2.9h.9V17c0-1.8-1-2.3-1.7-2.3-.5 0-.8.1-1.2.4-.2.2-.4.4-.6.7-.2-.6-.8-1-1.5-1-.9 0-1.3.5-1.6 1V15h-.8V20.2zM588.5 20.2c-.1-.4-.1-.8-.1-1.2v-2c0-1-.4-2.1-2-2.1-.7 0-1.3.2-1.7.5l.3.6c.4-.2.9-.4 1.4-.4 1.1 0 1.2.8 1.2 1.2v.1c-2 0-3.1.7-3.1 1.9 0 .8.5 1.5 1.6 1.5.7 0 1.3-.4 1.6-.8l.1.7h.7zm-1-1.8c0 .1 0 .2-.1.3-.2.4-.6.9-1.3.9-.5 0-.9-.3-.9-.9 0-1 1.2-1.2 2.2-1.2l.1.9zM589.9 20.2h.9v-3.1c0-.2 0-.3.1-.4.2-.5.6-1 1.3-1 .9 0 1.2.7 1.2 1.5v3h.9v-3.1c0-1.8-1.1-2.2-1.8-2.2-.9 0-1.5.5-1.7 1l-.1-.9h-.8V20.2zM599.6 19.3c-.3.1-.6.3-1.2.3-1 0-1.8-.7-1.8-1.9 0-1.1.6-2 1.8-2 .5 0 .9.1 1.1.2l.2-.7c-.3-.1-.8-.3-1.3-.3-1.7 0-2.8 1.2-2.8 2.8s1 2.7 2.6 2.7c.7 0 1.2-.2 1.5-.3l-.1-.8zM604.9 17.8v-.4c0-1-.5-2.5-2.1-2.5-1.5 0-2.4 1.2-2.4 2.8s1 2.6 2.6 2.6c.8 0 1.4-.2 1.7-.3l-.2-.7c-.4.2-.8.3-1.4.3-.9 0-1.8-.5-1.8-1.8h3.6zm-3.6-.7c.1-.7.5-1.5 1.5-1.5 1.1 0 1.3.9 1.3 1.5h-2.8zM608.6 20.2h.9V17c0-.2 0-.3.1-.5.2-.5.6-.9 1.2-.9.7 0 1.1.6 1.1 1.4v3.1h.9V17c0-.2 0-.3.1-.5.2-.5.6-.9 1.1-.9.8 0 1.1.6 1.1 1.6v2.9h.9V17c0-1.8-1-2.3-1.7-2.3-.5 0-.8.1-1.2.4-.2.2-.4.4-.6.7-.2-.6-.8-1-1.5-1-.9 0-1.3.5-1.6 1V15h-.8V20.2zM621.1 20.2c-.1-.4-.1-.8-.1-1.2v-2c0-1-.4-2.1-2-2.1-.7 0-1.3.2-1.7.5l.2.6c.4-.2.9-.4 1.4-.4 1.1 0 1.2.8 1.2 1.2v.1c-2 0-3.1.7-3.1 1.9 0 .8.5 1.5 1.6 1.5.7 0 1.3-.4 1.6-.8l.1.7h.8zm-1-1.8c0 .1 0 .2-.1.3-.2.4-.6.9-1.3.9-.5 0-.9-.3-.9-.9 0-1 1.2-1.2 2.2-1.2l.1.9zM621.8 15l1.9 4.8c0 .1.1.2.1.2 0 .1 0 .1-.1.2-.2.5-.5.8-.8 1.1-.3.2-.6.4-.8.5l.2.8c.2 0 .7-.2 1.2-.6.6-.6 1.1-1.5 1.8-3.3l1.4-3.7h-1l-1 3.1c-.1.4-.2.8-.3 1.1-.1-.3-.2-.7-.3-1.1L623 15h-1.2zM630.7 20.2v-.9c.4.7 1 1 1.7 1 1.2 0 2.3-.9 2.3-2.8 0-1.6-.9-2.7-2.2-2.7-.8 0-1.4.4-1.8 1v-3.3h-.9v7.6l.9.1zm.2-3c0-.2 0-.3.1-.4.2-.7.8-1.2 1.4-1.2 1 0 1.5.9 1.5 1.9 0 1.2-.6 2-1.6 2-.7 0-1.2-.5-1.4-1.1v-1.2zM640.3 17.8v-.4c0-1-.5-2.5-2.1-2.5-1.5 0-2.4 1.2-2.4 2.8s1 2.6 2.6 2.6c.8 0 1.4-.2 1.7-.3l-.2-.7c-.4.2-.8.3-1.4.3-.9 0-1.8-.5-1.8-1.8h3.6zm-3.6-.7c.1-.7.5-1.5 1.5-1.5 1.1 0 1.3.9 1.3 1.5h-2.8zM643.9 20.2h.9V17c0-.2 0-.3.1-.5.2-.5.7-.9 1.3-.9.9 0 1.2.7 1.2 1.5v3h.9V17c0-1.8-1.1-2.2-1.8-2.2-.4 0-.7.1-1 .3s-.5.4-.7.7v-3.2h-.9v7.6zM651 20.2V15h-.9v5.2h.9zm-.5-7.3c-.3 0-.6.3-.6.6s.2.6.6.6c.4 0 .6-.3.6-.6s-.2-.6-.6-.6zM656.4 15v.8c-.2-.4-.7-.9-1.6-.9-1.2 0-2.3 1-2.3 2.8 0 1.4.9 2.5 2.2 2.5.8 0 1.4-.4 1.7-.9v.6c0 1.3-.7 1.8-1.7 1.8-.6 0-1.2-.2-1.5-.4l-.2.7c.4.3 1.1.4 1.7.4.7 0 1.4-.2 1.9-.6.5-.5.7-1.2.7-2.4v-3V15h-.9zm-.2 3c0 .2 0 .3-.1.5-.2.6-.7 1-1.3 1-1 0-1.5-.8-1.5-1.9 0-1.2.6-2 1.5-2 .7 0 1.2.5 1.3 1 0 .1.1.3.1.4v1zM658.9 20.2h.9V17c0-.2 0-.3.1-.5.2-.5.7-.9 1.3-.9.9 0 1.2.7 1.2 1.5v3h.9V17c0-1.8-1.1-2.2-1.8-2.2-.4 0-.7.1-1 .3s-.5.4-.7.7v-3.2h-.9v7.6zM669.2 17.8v-.4c0-1-.5-2.5-2.1-2.5-1.5 0-2.4 1.2-2.4 2.8s1 2.6 2.6 2.6c.8 0 1.4-.2 1.7-.3l-.2-.7c-.4.2-.8.3-1.4.3-.9 0-1.8-.5-1.8-1.8h3.6zm-3.7-.7c.1-.7.5-1.5 1.5-1.5 1.1 0 1.3.9 1.3 1.5h-2.8zM670.5 20.2h.9v-2.8-.4c.1-.7.6-1.2 1.3-1.2h.3v-.9h-.3c-.6 0-1.2.4-1.4 1.1v-1h-.8v5.2zM678.5 14.9c-1.4 0-2.6 1-2.6 2.8 0 1.6 1.1 2.7 2.5 2.7 1.3 0 2.6-.8 2.6-2.8.1-1.6-1-2.7-2.5-2.7zm0 .7c1.1 0 1.6 1.1 1.6 2 0 1.2-.7 2-1.6 2-.9 0-1.6-.9-1.6-2 0-1 .5-2 1.6-2zM682.1 20.2h.9v-2.8-.4c.1-.7.6-1.2 1.3-1.2h.3v-.9h-.3c-.6 0-1.2.4-1.4 1.1v-1h-.8v5.2zM688 20.2h.9v-7.6h-.9v7.6zM692.7 14.9c-1.4 0-2.6 1-2.6 2.8 0 1.6 1.1 2.7 2.5 2.7 1.3 0 2.6-.8 2.6-2.8 0-1.6-1-2.7-2.5-2.7zm0 .7c1.1 0 1.6 1.1 1.6 2 0 1.2-.7 2-1.6 2-.9 0-1.6-.9-1.6-2 0-1 .5-2 1.6-2zM695.6 15l1.6 5.2h.9l.8-2.5c.2-.6.3-1.1.5-1.7.1.6.3 1.1.5 1.7l.8 2.5h.9l1.7-5.2h-.9l-.7 2.6c-.2.6-.3 1.2-.4 1.7-.1-.5-.3-1.1-.5-1.7L700 15h-1l-.8 2.7c-.2.6-.3 1.1-.5 1.6-.1-.5-.2-1.1-.4-1.7l-.7-2.6h-1zM708.2 17.8v-.4c0-1-.5-2.5-2.1-2.5-1.5 0-2.4 1.2-2.4 2.8s1 2.6 2.6 2.6c.8 0 1.4-.2 1.7-.3l-.2-.7c-.4.2-.8.3-1.4.3-.9 0-1.8-.5-1.8-1.8h3.6zm-3.7-.7c.1-.7.5-1.5 1.5-1.5 1.1 0 1.3.9 1.3 1.5h-2.8zM709.5 20.2h.9v-2.8-.4c.1-.7.6-1.2 1.3-1.2h.3v-.9h-.3c-.6 0-1.2.4-1.4 1.1v-1h-.8v5.2zM715.6 13.7V15h-.8v.7h.8v2.8c0 .6.1 1.1.4 1.4.2.3.6.4 1 .4s.7-.1.8-.1v-.7c-.1 0-.3.1-.5.1-.5 0-.7-.4-.7-1v-2.8h1.4V15h-1.4v-1.5l-1 .2zM719 20.2h.9V17c0-.2 0-.3.1-.5.2-.5.7-.9 1.3-.9.9 0 1.2.7 1.2 1.5v3h.9V17c0-1.8-1.1-2.2-1.8-2.2-.4 0-.7.1-1 .3s-.5.4-.7.7v-3.2h-.9v7.6zM728.8 20.2c-.1-.4-.1-.8-.1-1.2v-2c0-1-.4-2.1-2-2.1-.7 0-1.3.2-1.7.5l.2.6c.4-.2.9-.4 1.4-.4 1.1 0 1.2.8 1.2 1.2v.1c-2 0-3.1.7-3.1 1.9 0 .8.5 1.5 1.6 1.5.7 0 1.3-.4 1.6-.8l.1.7h.8zm-1-1.8c0 .1 0 .2-.1.3-.2.4-.6.9-1.3.9-.5 0-.9-.3-.9-.9 0-1 1.2-1.2 2.2-1.2l.1.9zM730.3 20.2h.9v-3.1c0-.2 0-.3.1-.4.2-.5.6-1 1.3-1 .9 0 1.2.7 1.2 1.5v3h.9v-3.1c0-1.8-1.1-2.2-1.8-2.2-.9 0-1.5.5-1.7 1l-.2-.9h-.8v1.4l.1 3.8zM738.7 22.3h.9v-2.8c.3.5.9.8 1.6.8 1.2 0 2.4-.9 2.4-2.8 0-1.6-.9-2.6-2.2-2.6-.8 0-1.5.4-1.8 1V15h-.8v7.3h-.1zm.9-5.1c0-.1 0-.3.1-.4.2-.7.8-1.2 1.4-1.2 1 0 1.5.9 1.5 1.9 0 1.2-.6 2-1.6 2-.7 0-1.2-.5-1.4-1.1V17.2zM749.1 17.8v-.4c0-1-.5-2.5-2.1-2.5-1.5 0-2.4 1.2-2.4 2.8s1 2.6 2.6 2.6c.8 0 1.4-.2 1.7-.3l-.2-.7c-.4.2-.8.3-1.4.3-.9 0-1.8-.5-1.8-1.8h3.6zm-3.7-.7c.1-.7.5-1.5 1.5-1.5 1.1 0 1.3.9 1.3 1.5h-2.8zM750.4 20.2h.9v-2.8-.4c.1-.7.6-1.2 1.3-1.2h.3v-.9h-.3c-.6 0-1.2.4-1.4 1.1v-1h-.8v5.2zM755.3 20.2v-4.5h1.3V15h-1.3v-.3c0-.8.2-1.5 1-1.5.3 0 .5.1.6.1l.1-.7c-.2-.1-.5-.2-.8-.2-.4 0-.9.1-1.3.5s-.6 1.1-.6 1.8v.3h-.7v.7h.7v4.5h1zM759.4 14.9c-1.4 0-2.6 1-2.6 2.8 0 1.6 1.1 2.7 2.5 2.7 1.3 0 2.6-.8 2.6-2.8 0-1.6-1-2.7-2.5-2.7zm-.1.7c1.1 0 1.6 1.1 1.6 2 0 1.2-.7 2-1.6 2-.9 0-1.6-.9-1.6-2 0-1 .5-2 1.6-2zM762.9 20.2h.9v-2.8-.4c.1-.7.6-1.2 1.3-1.2h.3v-.9h-.3c-.6 0-1.2.4-1.4 1.1v-1h-.8v5.2zM766.5 20.2h.9V17c0-.2 0-.3.1-.5.2-.5.6-.9 1.2-.9.7 0 1.1.6 1.1 1.4v3.1h.9V17c0-.2 0-.3.1-.5.2-.5.6-.9 1.1-.9.8 0 1.1.6 1.1 1.6v2.9h.9V17c0-1.8-1-2.3-1.7-2.3-.5 0-.8.1-1.2.4-.2.2-.4.4-.6.7-.2-.6-.8-1-1.5-1-.9 0-1.3.5-1.6 1V15h-.8V20.2zM779.1 20.2c-.1-.4-.1-.8-.1-1.2v-2c0-1-.4-2.1-2-2.1-.7 0-1.3.2-1.7.5l.2.6c.4-.2.9-.4 1.4-.4 1.1 0 1.2.8 1.2 1.2v.1c-2 0-3.1.7-3.1 1.9 0 .8.5 1.5 1.6 1.5.7 0 1.3-.4 1.6-.8l.1.7h.8zm-1-1.8c0 .1 0 .2-.1.3-.2.4-.6.9-1.3.9-.5 0-.9-.3-.9-.9 0-1 1.2-1.2 2.2-1.2l.1.9zM780.5 20.2h.9v-3.1c0-.2 0-.3.1-.4.2-.5.6-1 1.3-1 .9 0 1.2.7 1.2 1.5v3h.9v-3.1c0-1.8-1.1-2.2-1.8-2.2-.9 0-1.5.5-1.7 1l-.1-.9h-.8V20.2zM790.2 19.3c-.3.1-.6.3-1.2.3-1 0-1.8-.7-1.8-1.9 0-1.1.6-2 1.8-2 .5 0 .9.1 1.1.2l.2-.7c-.3-.1-.8-.3-1.3-.3-1.7 0-2.8 1.2-2.8 2.8s1 2.7 2.6 2.7c.7 0 1.2-.2 1.5-.3l-.1-.8zM795.5 17.8v-.4c0-1-.5-2.5-2.1-2.5-1.5 0-2.4 1.2-2.4 2.8s1 2.6 2.6 2.6c.8 0 1.4-.2 1.7-.3l-.2-.7c-.4.2-.8.3-1.4.3-.9 0-1.8-.5-1.8-1.8h3.6zm-3.7-.7c.1-.7.5-1.5 1.5-1.5 1.1 0 1.3.9 1.3 1.5h-2.8zM802.7 22.3h.9v-5.9V15h-.9v.8c-.3-.5-.8-.9-1.6-.9-1.1 0-2.4.9-2.4 2.8 0 1.6 1 2.6 2.2 2.6.8 0 1.4-.4 1.7-.9l.1 2.9zm0-4.2c0 .1 0 .3-.1.5-.2.7-.7 1-1.4 1-1 0-1.5-.9-1.5-1.9 0-1.2.6-2 1.6-2 .7 0 1.2.5 1.4 1.1v1.3zM809.6 15h-.9v3.2c0 .2 0 .3-.1.5-.2.4-.6.9-1.2.9-.9 0-1.2-.7-1.2-1.7V15h-.9v3c0 1.8 1 2.3 1.8 2.3.9 0 1.5-.5 1.7-1l.1.8h.8v-1.4l-.1-3.7zM813.4 14.9c-1.4 0-2.6 1-2.6 2.8 0 1.6 1.1 2.7 2.5 2.7 1.3 0 2.6-.8 2.6-2.8 0-1.6-1-2.7-2.5-2.7zm-.1.7c1.1 0 1.6 1.1 1.6 2 0 1.2-.7 2-1.6 2-.9 0-1.6-.9-1.6-2 0-1 .5-2 1.6-2zM817.1 13.7V15h-.8v.7h.8v2.8c0 .6.1 1.1.4 1.4.2.3.6.4 1 .4s.7-.1.8-.1v-.7c-.1 0-.3.1-.5.1-.5 0-.7-.4-.7-1v-2.8h1.4V15h-1.4v-1.5l-1 .2zM824.7 17.8v-.4c0-1-.5-2.5-2.1-2.5-1.5 0-2.4 1.2-2.4 2.8s1 2.6 2.6 2.6c.8 0 1.4-.2 1.7-.3l-.2-.7c-.4.2-.8.3-1.4.3-.9 0-1.8-.5-1.8-1.8h3.6zm-3.7-.7c.1-.7.5-1.5 1.5-1.5 1.1 0 1.3.9 1.3 1.5H821zM829.5 12.6v3.1c-.2-.4-.8-.8-1.6-.8-1.3 0-2.3 1.1-2.3 2.8 0 1.6 1 2.6 2.2 2.6.8 0 1.5-.4 1.8-1v.9h.8v-7.6h-.9zm0 5.4v.4c-.2.7-.8 1.1-1.4 1.1-1 0-1.5-.9-1.5-1.9 0-1.2.6-2 1.6-2 .7 0 1.2.5 1.4 1.1v.4l-.1.9zM832.4 20.3c.4 0 .6-.3.6-.7 0-.4-.3-.7-.6-.7-.4 0-.6.3-.6.7 0 .4.3.7.6.7z"/><g><path class="st0" d="M209.8 3.1c.5-.2.9-.6.9-.9 0-.5-.3-.5-.8-.6-.2 0-.2-.2-.2-.3 0-.3.3-.5.6-.5.5 0 .9.5.9 1.1 0 .8-.6 1.2-1.4 1.6v-.4z"/></g></svg>