<svg id="Layer_1" xmlns="http://www.w3.org/2000/svg" viewBox="0 0 83 31"><style>.st0{fill:#fff}</style><path class="st0" d="M17.2 28.6H8.9V3.3L11.6.8h.1V.4H.1v.4L3 3.3v24.2l-3 2.8h23v-8.7h-.4zM43.8 19.1c-.9-5.5-4-8.5-8.9-8.5-5.8 0-9.9 4.3-9.9 10.4 0 5.6 4 9.5 9.8 9.5 3.4 0 6.2-1.2 8.6-3.9V26l-.1.1c-1.5.9-3.1 1.3-4.9 1.3-3.9 0-6.2-1.9-7.3-5.8l11-2.4 1.7-.1zM31 18.3c0-4.9 2.1-6.7 3.9-6.7 2.2 0 3 3.4 3.1 6.2l-7 2.4v-1.9zM69.6 3.9C69.6 1.7 68.1 0 66 0c-1.6 0-3 1.2-3 2.7 0 1 .6 2.5 3.4 2.8 0 2.1-1.3 3.9-3.9 4.9h-.1l.3.9h.3c4.1-1.3 6.6-4.3 6.6-7.4zM57.3 27.7c-2.1 0-3-.9-3-3.3V12.5h6.1v-1.8h-6.1V5.4h-.7l-4.8 5.3h-3v1.9h3V24c0 3.6.6 7 5.3 7 2.1-.3 5-1.3 6.7-3.3V27h-.1c-1.2.5-2.5.7-3.4.7zM78.8 19.1L74.7 17c-2.5-1.2-3.4-2.1-3.4-3.4s1-2.1 2.7-2.1h.7c.3 0 .6.1.9.1l5.5 5.2h.3v-5.9h-.1c-1.5-.3-4.5-.6-6.8-.6-4.5 0-7.6 2.4-7.6 5.8 0 2.5 1.2 4.2 4.2 5.6l4 1.9c2.1 1 3.3 2.2 3.3 3.3 0 1.6-1.3 2.5-3.6 2.5h-2.4L67 23.7h-.1v6.8h.1c1.9.1 5 .3 7.1.3 2.4 0 4.5-.4 5.9-1.3 1.9-1.2 3-2.8 3-5.2 0-2.9-1.6-4-4.2-5.2z"/></svg>