<svg id="Layer_1" xmlns="http://www.w3.org/2000/svg" viewBox="0 0 440 32"><style>.st0{fill:#fff}</style><path class="st0" d="M7.1 25.8c1.1 0 1.7-.2 2.3-.4v-2.3c-.6.2-1.2.4-2.1.4-1.4 0-2.1-.8-2.1-2.5V10.9h4V8.7h-4V4.8H2.5v3.9H.1V11h2.4v10.4c0 2.6 1.5 4.4 4.6 4.4zM12.9 25.6h2.7V15.4c0-3 2.2-4.6 4.7-4.6 2.7 0 4 1.3 4 4.3v10.6H27V15.2c0-4.9-2.5-6.8-6-6.8-2.8 0-4.7 1.4-5.4 3V.6h-2.7v25zM38.6 25.9c3.8 0 6.6-1.8 7.2-5.2h-2.7c-.4 2-1.9 2.9-4.5 2.9-3.5 0-5.3-2.1-5.4-6H46v-.9c0-6.1-3.7-8.4-7.6-8.4-4.7 0-7.9 3.6-7.9 8.7v.3c-.1 5.2 3.3 8.6 8.1 8.6zm-5.3-10.4c.5-3 2.3-4.9 5.1-4.9s4.6 1.4 4.9 4.9h-10zM65.2 25.9c4.6 0 8-2.9 8-6.8 0-4.4-2.7-5.9-7.9-6.7-4.7-.7-5.6-1.9-5.6-4.1 0-2.2 1.7-3.8 4.8-3.8 3.2 0 4.9 1.2 5.4 4.1h2.5c-.5-4.1-3.3-6.4-8-6.4-4.4 0-7.5 2.7-7.5 6.3 0 4.1 2.9 5.6 7.7 6.4 4.4.7 5.6 1.8 5.6 4.4 0 2.6-2.3 4.4-5.3 4.4-4.7 0-5.8-2.3-6.1-5.1h-2.7c.6 3.9 2.9 7.3 9.1 7.3zM95.4 13.7h-2.5L90 19l-4.9-5.9c2.9-1.3 5-3.2 5-6S87.9 2.3 85 2.3c-2.9 0-5.7 1.8-5.7 5.3 0 1.6.7 3.1 2 4.9-3 1.5-5.3 3.3-5.3 7 0 3.8 3.1 6.3 7.3 6.3 2.9 0 5-1.3 6.4-3l2.3 2.8h3.3l-3.9-4.7 4-7.2zm-11.8 9.9c-2.9 0-4.7-1.6-4.7-4.4 0-2.7 1.6-4 3.9-5.2l5.8 7c-1.5 1.8-3.2 2.6-5 2.6zM82 7.7c0-2.3 1.4-3.2 3-3.2s2.6 1.1 2.6 2.6c0 2.2-1 3.4-3.6 4.6-1.2-1.7-2-2.9-2-4zM99.1 25.6h2.8v-9.4h3.8c4.4 0 8.1-1.9 8.1-6.8v-.2c0-4.8-3.7-6.8-8.1-6.8h-6.6v23.2zm2.8-11.6V4.7h4c3.1 0 5.1 1.2 5.1 4.5v.1c0 3-1.8 4.6-5.1 4.6h-4zM131.5 25.9c4.4 0 7.9-3 7.9-7.9 0-4.7-3-7.7-7.2-7.7-2.2 0-3.8.7-4.7 1.6v-7h10.7V2.5h-13v12.4h1c1.2-1.4 2.8-2.2 5.5-2.2 2.9 0 4.9 2.1 4.9 5.4 0 3.5-1.9 5.6-5.1 5.6-3.5 0-4.5-1.7-5-4.3h-2.7c.3 3.8 2.7 6.5 7.7 6.5zM152 23.6c-3.9 0-6.3-3-6.3-8.9v-1.3c0-5.7 2.3-8.9 6.3-8.9 3.9 0 6.2 3.5 6.2 8.9v1.3c-.1 5.8-2.2 8.9-6.2 8.9zm0 2.3c5.7 0 9-4.5 9-11.3v-1.3c0-6.6-3.3-11.2-9-11.2s-9.1 4.4-9.1 11.2v1.3c-.1 6.8 3.5 11.3 9.1 11.3zM173.4 23.6c-3.9 0-6.3-3-6.3-8.9v-1.3c0-5.7 2.3-8.9 6.3-8.9 3.9 0 6.2 3.5 6.2 8.9v1.3c0 5.8-2.1 8.9-6.2 8.9zm0 2.3c5.7 0 9-4.5 9-11.3v-1.3c0-6.6-3.3-11.2-9-11.2s-9.1 4.4-9.1 11.2v1.3c-.1 6.8 3.6 11.3 9.1 11.3zM195.1 25.6h2.7V10.9h4.1V8.7h-4.1v-3c0-1.7.7-2.9 2.5-2.9.7 0 1.4.2 1.9.4V.8c-.7-.2-1.1-.3-2-.3-3.4 0-5.1 2-5.1 5.4v2.8h-2.4V11h2.4v14.6zM212.2 23.7c-3.4 0-5.5-2.5-5.5-6.4V17c0-3.9 2.1-6.4 5.5-6.4s5.5 2.5 5.5 6.4v.2c0 3.9-2.1 6.5-5.5 6.5zm0 2.2c4.8 0 8.4-3.5 8.4-8.6V17c0-5.1-3.5-8.6-8.3-8.6S204 12 204 17v.3c-.1 5 3.3 8.6 8.2 8.6zM224.1 25.6h2.7v-9.3c0-4.2 2.2-5.2 5.6-5.4V8.4c-3 .1-4.5 1.4-5.6 3.3v-3h-2.7v16.9zM241.6 25.6h15.5v-2.3H246l6.4-6.2c2.9-2.8 4.7-5.6 4.7-8.4 0-4-2.7-6.5-7-6.5-4.4 0-7.2 2.9-7.5 7.4h2.6c.5-3.6 2.2-5.2 4.9-5.2 2.6 0 4.1 1.6 4.1 4.1 0 2.4-1.2 4.5-3.3 6.7l-9.2 9.7v.7zM267.5 25.9c4.4 0 7.9-3 7.9-7.9 0-4.7-3-7.7-7.2-7.7-2.2 0-3.8.7-4.7 1.6v-7h10.7V2.5h-13v12.4h1c1.2-1.4 2.8-2.2 5.5-2.2 2.9 0 4.9 2.1 4.9 5.4 0 3.5-1.9 5.6-5.1 5.6-3.5 0-4.5-1.7-5-4.3h-2.7c.3 3.8 2.7 6.5 7.7 6.5zM289 31.5h2.7l9.4-22.8h-2.8l-4.7 12.1-5.2-12.1h-2.9l6.6 15.2-3.1 7.6zM311 25.9c3.8 0 6.6-1.8 7.2-5.2h-2.7c-.4 2-1.9 2.9-4.5 2.9-3.5 0-5.3-2.1-5.4-6h12.8v-.9c0-6.1-3.7-8.4-7.6-8.4-4.7 0-7.9 3.6-7.9 8.7v.3c-.1 5.2 3.3 8.6 8.1 8.6zm-5.3-10.4c.5-3 2.3-4.9 5.1-4.9s4.6 1.4 4.9 4.9h-10zM326.1 25.9c2.5 0 4-.8 5.3-2.4v2.1h2.7V14.4c0-4.7-2.9-6.1-6.2-6.1-3.3 0-6.3 1.4-6.7 5.3h2.7c.3-2.1 1.6-3 3.9-3 2.6 0 3.6 1.1 3.6 3.8v1.2H329c-4.3 0-8.5 1.3-8.5 5.2 0 3.6 2.5 5.1 5.6 5.1zm.3-2.1c-2.4 0-3.2-1.1-3.2-2.9 0-2.5 2.5-3.3 5.9-3.3h2.3v2.1c0 2.6-2.1 4.1-5 4.1zM338.8 25.6h2.7v-9.3c0-4.2 2.2-5.2 5.6-5.4V8.4c-3 .1-4.5 1.4-5.6 3.3v-3h-2.7v16.9zM355.7 25.9c4.1 0 6.2-2.1 6.2-5.2 0-3.6-2.5-4.4-6-5-3.1-.6-4-1.2-4-2.7 0-1.5 1.3-2.4 3.2-2.4 2.1 0 3.2.8 3.6 2.7h2.6c-.5-3.7-3.1-4.9-6.1-4.9-2.7 0-5.7 1.6-5.7 4.8 0 2.9 1.5 4.2 5.9 5 2.6.5 4 1.1 4 2.9 0 1.8-1.1 2.7-3.7 2.7-2.7 0-3.8-1.3-4-3.3H349c.2 3.4 2.6 5.4 6.7 5.4zM377.6 25.9c2.5 0 4-.8 5.3-2.4v2.1h2.7V14.4c0-4.7-2.9-6.1-6.2-6.1-3.3 0-6.3 1.4-6.7 5.3h2.7c.3-2.1 1.6-3 3.9-3 2.6 0 3.6 1.1 3.6 3.8v1.2h-2.4c-4.3 0-8.5 1.3-8.5 5.2 0 3.6 2.5 5.1 5.6 5.1zm.3-2.1c-2.4 0-3.2-1.1-3.2-2.9 0-2.5 2.5-3.3 5.9-3.3h2.3v2.1c0 2.6-2.2 4.1-5 4.1zM395.5 25.9c4.1 0 6.2-2.1 6.2-5.2 0-3.6-2.5-4.4-6-5-3.1-.6-4-1.2-4-2.7 0-1.5 1.3-2.4 3.2-2.4 2.1 0 3.2.8 3.6 2.7h2.6c-.5-3.7-3.1-4.9-6.1-4.9-2.7 0-5.7 1.6-5.7 4.8 0 2.9 1.5 4.2 5.9 5 2.6.5 4 1.1 4 2.9 0 1.8-1.1 2.7-3.7 2.7-2.7 0-3.8-1.3-4-3.3h-2.6c.2 3.4 2.6 5.4 6.6 5.4zM420.3 23.7c-3.4 0-5.5-2.5-5.5-6.4V17c0-3.9 2.1-6.4 5.5-6.4s5.5 2.5 5.5 6.4v.2c.1 3.9-2.1 6.5-5.5 6.5zm0 2.2c4.8 0 8.4-3.5 8.4-8.6V17c0-5.1-3.5-8.6-8.3-8.6S412 12 412 17v.3c0 5 3.5 8.6 8.3 8.6zM432.8 25.6h2.7V10.9h4.1V8.7h-4.1v-3c0-1.7.7-2.9 2.5-2.9.7 0 1.4.2 1.9.4V.8c-.7-.2-1.1-.3-2-.3-3.4 0-5.1 2-5.1 5.4v2.8h-2.4V11h2.4v14.6z"/></svg>