<svg id="Layer_1" xmlns="http://www.w3.org/2000/svg" viewBox="0 0 441 32"><style>.st0{fill:#fff}</style><path class="st0" d="M6.3 25.6h2.6l5.4-18.3 5.2 18.3h2.6l6-23.2h-2.6l-4.8 18.8-5.4-18.7h-2L7.9 21.2 3.2 2.5H.3l6 23.1zM31.3 25.6H34V8.7h-2.7v16.9zm1.2-20.5c1 0 1.8-.8 1.8-1.8s-.8-1.8-1.8-1.8-1.8.8-1.8 1.8c.1 1 .9 1.8 1.8 1.8zM43.8 25.8c1.1 0 1.7-.2 2.3-.4v-2.3c-.6.2-1.2.4-2.1.4-1.4 0-2.1-.8-2.1-2.5V10.9h4V8.7h-4V4.8h-2.7v3.9h-2.4V11h2.4v10.4c0 2.6 1.5 4.4 4.6 4.4zM49.3 25.6H52V15.4c0-3 2.2-4.6 4.7-4.6 2.7 0 4 1.3 4 4.3v10.6h2.7V15.2c0-4.9-2.5-6.8-6-6.8-2.8 0-4.7 1.4-5.4 3V.6h-2.7v25zM79.9 25.9c2.5 0 4-.8 5.3-2.4v2.1h2.7V14.4c0-4.7-2.9-6.1-6.2-6.1-3.3 0-6.3 1.4-6.7 5.3h2.7c.3-2.1 1.6-3 3.9-3 2.6 0 3.6 1.1 3.6 3.8v1.2h-2.4c-4.3 0-8.5 1.3-8.5 5.2 0 3.6 2.5 5.1 5.6 5.1zm.3-2.1c-2.4 0-3.2-1.1-3.2-2.9 0-2.5 2.5-3.3 5.9-3.3h2.3v2.1c0 2.6-2.2 4.1-5 4.1zM92.4 25.6H95V15.4c0-3 2.2-4.6 4.7-4.6 2.7 0 4 1.3 4 4.3v10.6h2.7V15.2c0-4.9-2.5-6.8-6-6.8-2.8 0-4.7 1.4-5.4 3V8.7h-2.7v16.9zM118.9 25.6H133v-2.3h-11.3v-8.4h8.6v-2.3h-8.6V4.8h10.7V2.5h-13.5v23.1zM141.2 25.6h2.8V4.8h6.7V2.5h-16.3v2.3h6.7v20.8zM153.8 25.6h2.8V15.3h8.4V13h-8.4V4.8h10.7V2.5h-13.5v23.1zM183.4 25.8c1.1 0 1.7-.2 2.3-.4v-2.3c-.6.2-1.2.4-2.1.4-1.4 0-2.1-.8-2.1-2.5V10.9h4V8.7h-4V4.8h-2.7v3.9h-2.4V11h2.4v10.4c0 2.6 1.5 4.4 4.6 4.4zM188.9 25.6h2.7V15.4c0-3 2.2-4.6 4.7-4.6 2.7 0 4 1.3 4 4.3v10.6h2.7V15.2c0-4.9-2.5-6.8-6-6.8-2.8 0-4.7 1.4-5.4 3V.6h-2.7v25zM211.8 25.9c2.5 0 4-.8 5.3-2.4v2.1h2.7V14.4c0-4.7-2.9-6.1-6.2-6.1-3.3 0-6.3 1.4-6.7 5.3h2.7c.3-2.1 1.6-3 3.9-3 2.6 0 3.6 1.1 3.6 3.8v1.2h-2.4c-4.3 0-8.5 1.3-8.5 5.2-.1 3.6 2.4 5.1 5.6 5.1zm.2-2.1c-2.4 0-3.2-1.1-3.2-2.9 0-2.5 2.5-3.3 5.9-3.3h2.3v2.1c0 2.6-2.1 4.1-5 4.1zM229.3 25.8c1.1 0 1.7-.2 2.3-.4v-2.3c-.6.2-1.2.4-2.1.4-1.4 0-2.1-.8-2.1-2.5V10.9h4V8.7h-4V4.8h-2.7v3.9h-2.4V11h2.4v10.4c.1 2.6 1.6 4.4 4.6 4.4zM249.7 23.7c-3.4 0-5.5-2.5-5.5-6.4V17c0-3.9 2.1-6.4 5.5-6.4s5.5 2.5 5.5 6.4v.2c.1 3.9-2.1 6.5-5.5 6.5zm0 2.2c4.8 0 8.4-3.5 8.4-8.6V17c0-5.1-3.5-8.6-8.3-8.6s-8.3 3.6-8.3 8.6v.3c-.1 5 3.4 8.6 8.2 8.6zM267.2 25.9c2.7 0 4.6-1.4 5.4-3v2.7h2.7V8.7h-2.7V19c0 3-2.3 4.6-4.7 4.6-2.7 0-3.9-1.3-3.9-4.3V8.7h-2.7v10.7c0 4.7 2.5 6.5 5.9 6.5zM285 25.8c1.1 0 1.7-.2 2.3-.4v-2.3c-.6.2-1.2.4-2.1.4-1.4 0-2.1-.8-2.1-2.5V10.9h4V8.7h-4V4.8h-2.7v3.9H278V11h2.4v10.4c0 2.6 1.5 4.4 4.6 4.4zM290.5 31.5h2.7v-8.7c1 1.7 2.9 3.1 5.7 3.1 4.7 0 7.7-3.6 7.7-8.7v-.3c0-5.3-3.3-8.5-7.7-8.5-2.5 0-4.8 1.5-5.7 3.1V8.7h-2.7v22.8zm8.2-7.8c-3.3 0-5.6-2-5.6-6.4V17c0-4.3 2.4-6.4 5.5-6.4 2.9 0 5.2 2.1 5.2 6.4v.3c.1 4.1-1.7 6.4-5.1 6.4zM317 25.9c3.8 0 6.6-1.8 7.2-5.2h-2.7c-.4 2-1.9 2.9-4.5 2.9-3.5 0-5.3-2.1-5.4-6h12.8v-.9c0-6.1-3.7-8.4-7.6-8.4-4.7 0-7.9 3.6-7.9 8.7v.3c-.1 5.2 3.3 8.6 8.1 8.6zm-5.3-10.4c.5-3 2.3-4.9 5.1-4.9s4.6 1.4 4.9 4.9h-10zM327.6 25.6h2.7v-9.3c0-4.2 2.2-5.2 5.6-5.4V8.4c-3 .1-4.5 1.4-5.6 3.3v-3h-2.7v16.9zM339.6 25.6h2.7V10.9h4.1V8.7h-4.1v-3c0-1.7.7-2.9 2.5-2.9.7 0 1.4.2 1.9.4V.8c-.7-.2-1.1-.3-2-.3-3.4 0-5.1 2-5.1 5.4v2.8h-2.4V11h2.4v14.6zM356.5 23.7c-3.4 0-5.5-2.5-5.5-6.4V17c0-3.9 2.1-6.4 5.5-6.4s5.5 2.5 5.5 6.4v.2c0 3.9-2.1 6.5-5.5 6.5zm0 2.2c4.8 0 8.4-3.5 8.4-8.6V17c0-5.1-3.5-8.6-8.3-8.6s-8.3 3.6-8.3 8.6v.3c-.1 5 3.3 8.6 8.2 8.6zM368.2 25.6h2.7v-9.3c0-4.2 2.2-5.2 5.6-5.4V8.4c-3 .1-4.5 1.4-5.6 3.3v-3h-2.7v16.9zM379.6 25.6h2.7V15.3c0-3 2.3-4.5 4.5-4.5 2.3 0 3.6 1.2 3.6 4.2v10.7h2.7V15.3c0-3 2.3-4.5 4.5-4.5 2.3 0 3.6 1.2 3.6 4.2v10.7h2.7V15.1c0-4.9-2.7-6.7-5.7-6.7-2.1 0-4.6 1-5.8 3.2-.9-2.3-2.8-3.2-5-3.2-2.4 0-4.3 1.3-5.1 2.9V8.7h-2.7v16.9zM415.2 25.9c3.8 0 6.6-1.8 7.2-5.2h-2.7c-.4 2-1.9 2.9-4.5 2.9-3.5 0-5.3-2.1-5.4-6h12.8v-.9c0-6.1-3.7-8.4-7.6-8.4-4.7 0-7.9 3.6-7.9 8.7v.3c-.1 5.2 3.3 8.6 8.1 8.6zm-5.4-10.4c.5-3 2.3-4.9 5.1-4.9s4.6 1.4 4.9 4.9h-10zM432.2 25.9c2.5 0 4.8-1.6 5.8-3.2v2.9h2.7V.6H438v10.8c-1-1.7-2.7-3-5.5-3-4.7 0-7.9 3.7-7.9 8.8v.3c0 5.3 3.2 8.4 7.6 8.4zm.3-2.2c-2.9 0-5.2-2-5.2-6.3v-.3c0-4.1 2-6.5 5.4-6.5 3.3 0 5.4 2 5.4 6.4v.3c0 4.3-2.5 6.4-5.6 6.4z"/></svg>