<?xml version="1.0" encoding="UTF-8"?>
<svg id="svg4730" xmlns="http://www.w3.org/2000/svg" xmlns:svg="http://www.w3.org/2000/svg" xmlns:rdf="http://www.w3.org/1999/02/22-rdf-syntax-ns#" xmlns:dc="http://purl.org/dc/elements/1.1/" xmlns:cc="http://creativecommons.org/ns#" version="1.1" viewBox="0 0 300 300">
  <!-- Generator: Adobe Illustrator 29.2.1, SVG Export Plug-In . SVG Version: 2.1.0 Build 116)  -->
  <defs>
    <style>
      .st0 {
        fill: #fff;
      }
    </style>
  </defs>
  <path class="st0" d="M282.6,1H17.4C8.4,1,1,8.4,1,17.4v265.1c0,9.1,7.4,16.4,16.4,16.4h142.8v-115.3h-38.8v-45h38.8v-33.2c0-38.4,23.5-59.4,57.8-59.4s30.6,1.3,34.7,1.8v40.2h-23.8c-18.7,0-22.3,8.9-22.3,21.9v28.7h44.5l-5.8,45h-38.7v115.3h76c9.1.1,16.4-7.3,16.4-16.3V17.4c0-9.1-7.4-16.4-16.4-16.4Z"/>
</svg>