<svg width="86" height="25" viewBox="0 0 86 25" fill="none" xmlns="http://www.w3.org/2000/svg">
<g clip-path="url(#clip0_298_5055)">
<g clip-path="url(#clip1_298_5055)">
<path fill-rule="evenodd" clip-rule="evenodd" d="M63.3281 18.6202C60.4345 18.6202 58.6367 16.9395 58.6367 14.2325C58.6367 11.4194 60.2955 9.6716 62.9663 9.6716L63.1921 9.67032C63.526 9.67032 63.9875 9.68088 64.6176 9.76112V6.36719H66.5072V18.315C66.5072 18.315 64.7127 18.6202 63.3281 18.6202ZM63.3117 11.1619C61.4831 11.1619 60.5941 12.1511 60.5941 14.1856C60.5941 16.0112 61.6658 17.1451 63.3904 17.1451C63.7214 17.1451 64.1009 17.1245 64.6176 17.0789V11.2827C64.1004 11.2004 63.6852 11.1619 63.3117 11.1619Z" fill="#404041"/>
<path fill-rule="evenodd" clip-rule="evenodd" d="M37.4751 18.3482L32.3757 9.42608L32.3744 18.3482H30.5977V7.05469H33.0845L38.1839 15.897L38.1817 7.05469H39.9813V18.3482H37.4751Z" fill="#404041"/>
<path fill-rule="evenodd" clip-rule="evenodd" d="M53.7147 18.5198C52.8565 18.5198 51.9607 18.4235 50.8944 18.2179L50.7811 18.1955V16.6179L50.95 16.655C51.8887 16.8551 52.7002 17.0282 53.5109 17.0282C54.1674 17.0282 55.6945 16.9235 55.6945 15.9567C55.6945 15.1448 54.6391 14.9418 53.7909 14.7792L53.7379 14.7687C53.5804 14.7375 53.4313 14.7079 53.3037 14.6758C52.0605 14.3519 50.7344 13.8664 50.7344 12.1959C50.7344 10.5671 52.0209 9.63281 54.2638 9.63281C55.3398 9.63281 56.1214 9.74929 56.7489 9.84305L57.056 9.88905V11.4182L56.8921 11.3899C56.1817 11.2586 55.3491 11.1239 54.5469 11.1239C53.6578 11.1239 52.5987 11.2907 52.5987 12.0857C52.5987 12.7443 53.4641 12.933 54.4664 13.1513C55.8667 13.4569 57.6047 13.8373 57.6047 15.7527C57.6047 17.5111 56.1867 18.5198 53.7147 18.5198Z" fill="#404041"/>
<path fill-rule="evenodd" clip-rule="evenodd" d="M71.8078 18.5198C69.8522 18.5198 68.043 18.1753 68.043 15.6743C68.043 12.9528 70.8414 12.9528 72.5137 12.9528C72.6809 12.9528 73.4667 12.9887 73.7089 12.9997C73.7067 11.4731 73.6861 11.1087 71.4777 11.1087C70.6022 11.1087 69.6294 11.2831 68.7711 11.4367L68.6073 11.4663V9.95825L68.7193 9.93545C69.7136 9.73201 70.6725 9.63281 71.6504 9.63281C73.791 9.63281 75.6048 9.84937 75.6048 12.5108V18.3167L75.4742 18.3302C73.9918 18.497 72.8139 18.5198 71.8078 18.5198ZM72.4661 14.2987C70.854 14.2987 69.8551 14.5365 69.8551 15.7207C69.8551 17.0907 71.1303 17.2051 72.3255 17.2051C72.7731 17.2051 73.5763 17.1481 73.8218 17.1295V14.3452C73.4751 14.3321 72.5752 14.2987 72.4661 14.2987Z" fill="#404041"/>
<path fill-rule="evenodd" clip-rule="evenodd" d="M45.3196 18.5198C43.3638 18.5198 41.5547 18.1753 41.5547 15.6743C41.5547 12.9528 44.3531 12.9528 46.0254 12.9528C46.1921 12.9528 46.9784 12.9887 47.2205 12.9997C47.2184 11.4731 47.1978 11.1087 44.9894 11.1087C44.1139 11.1087 43.1415 11.2831 42.2828 11.4367L42.119 11.4663V9.95825L42.231 9.93545C43.2257 9.73201 44.1842 9.63281 45.162 9.63281C47.3027 9.63281 49.1164 9.84937 49.1164 12.5108V18.3167L48.9859 18.3302C47.5036 18.497 46.3256 18.5198 45.3196 18.5198ZM45.9778 14.2987C44.3657 14.2987 43.3668 14.5365 43.3668 15.7207C43.3668 17.0907 44.642 17.2051 45.8372 17.2051C46.2848 17.2051 47.0879 17.1481 47.3334 17.1295V14.3452C46.9868 14.3321 46.0868 14.2987 45.9778 14.2987Z" fill="#404041"/>
<path fill-rule="evenodd" clip-rule="evenodd" d="M83.1199 22.1834V18.4795C82.3823 18.5834 81.9903 18.5834 81.6743 18.5834C80.9271 18.5834 80.097 18.4204 79.4531 18.1468C78.0149 17.5482 77.1562 16.0241 77.1562 14.0694C77.1562 13.092 77.3934 11.3083 78.9806 10.347C79.7752 9.86994 80.7169 9.66602 82.1295 9.66602C82.6367 9.66602 83.3199 9.7053 83.9799 9.7437L85.0519 9.79898V21.3259L83.1199 22.1834ZM81.9879 11.1567C80.0713 11.1567 79.0985 12.1367 79.0985 14.0694C79.0985 16.5552 80.5502 17.0771 81.7687 17.0771C82.0647 17.0771 82.3991 17.0771 83.1375 16.9837V11.2103C82.5591 11.1711 82.2935 11.1567 81.9879 11.1567Z" fill="#404041"/>
<path fill-rule="evenodd" clip-rule="evenodd" d="M22.1662 0.359375L15.9221 17.5563C15.7688 17.9806 15.3818 18.2904 14.9177 18.3373V18.3475H21.5176C22.0352 18.3475 22.4774 18.0177 22.6433 17.5563L28.8875 0.359375H22.1662ZM14.3808 18.0847C14.762 18.0847 15.098 17.8956 15.3036 17.6068C15.3251 17.5768 15.4 17.4713 15.4522 17.3273L17.7428 11.0174L16.4032 7.33252C16.2321 6.92342 15.8283 6.63591 15.3579 6.63591C14.9772 6.63591 14.6407 6.82463 14.4352 7.11382C14.4137 7.14338 14.3244 7.27806 14.2865 7.39331L11.9968 13.7007L13.342 17.4003C13.5163 17.8027 13.9151 18.0847 14.3808 18.0847ZM8.19789 6.37218H14.8699V6.37598C14.3742 6.39667 13.9543 6.71626 13.7934 7.16293L7.54977 24.3594H0.828125L7.07179 7.16293C7.23856 6.70149 7.6799 6.37218 8.19789 6.37218Z" fill="#0090BA"/>
</g>
</g>
<defs>
<clipPath id="clip0_298_5055">
<rect width="85" height="24" fill="white" transform="translate(0.726562 0.359375)"/>
</clipPath>
<clipPath id="clip1_298_5055">
<rect width="85" height="24" fill="white" transform="translate(0.726562 0.359375)"/>
</clipPath>
</defs>
</svg>
