<?xml version="1.0" encoding="UTF-8"?>
<svg id="Layer_1" data-name="Layer 1" xmlns="http://www.w3.org/2000/svg" version="1.1" viewBox="0 0 6479.3 2513.6">
  <defs>
    <style>
      .cls-1 {
        fill: #fff;
        stroke-width: 0px;
      }
    </style>
  </defs>
  <rect class="cls-1" y="35.1" width="469" height="469"/>
  <rect class="cls-1" x="5512.9" width="445.6" height="2478.6"/>
  <rect class="cls-1" x="13.4" y="789.5" width="444" height="1689.1"/>
  <path class="cls-1" d="M3142.9,2024.6c-23.4-23.4-38.4-56.7-46.7-100.1-6.7-41.7-10-96.8-10-163.6v-590.9h322.1v-380.5h-322.1V130.2h-445.6v1634c0,138.5,11.7,255.4,35.1,348.8,23.4,91.8,63.4,166.9,118.5,223.7,55.1,56.7,128.5,96.8,217,121.8,90.1,25,203.6,36.7,338.8,36.7h58.4v-413.9c-65.1,0-120.2-3.3-160.2-10-46.9-6.7-82-23.3-105.3-46.7Z"/>
  <path class="cls-1" d="M1694.1,754.4c-106.8,0-203.6,21.7-292.1,65.1-86.8,43.4-161.9,103.5-220.3,180.3l-25,31.7v-242h-439v1689.1h442.3v-867.9c5-158.6,43.4-275.4,116.8-350.5,78.4-80.1,173.6-120.2,282.1-120.2s227,40.1,292.1,116.8c63.4,76.8,96.8,185.3,96.8,323.8v896.3h449v-958c1.7-240.3-61.8-430.6-185.3-564.1-123.5-133.6-297.1-200.4-517.4-200.4Z"/>
  <path class="cls-1" d="M5040.6,1009.8c-76.8-80.1-168.6-141.9-275.4-186.9-106.8-45.1-225.3-66.8-353.8-66.8s-237,23.4-343.8,68.4c-106.8,46.7-200.3,108.5-278.7,186.9-78.4,78.4-141.9,171.9-186.9,278.7-46.7,106.8-68.4,222-68.4,343.8s21.7,237,65.1,343.8c43.4,106.8,105.2,200.3,181.9,278.7,76.8,78.4,171.9,141.9,282.1,186.9,110.2,46.7,232,70.1,362.2,70.1,377.2,0,610.9-171.9,751.1-332.1l-320.5-243.7c-66.8,80.1-227,188.6-427.3,188.6s-228.7-28.4-307.1-86.8c-78.4-56.7-131.9-136.9-160.2-235.3l-5-15h1326.9v-158.6c0-121.8-21.7-235.3-63.4-342.2-43.6-104.9-103.7-198.4-178.8-278.5ZM3959,1475.5c0-123.5,141.9-338.8,447.3-340.5,305.4,0,449,215.3,449,338.8l-896.3,1.7Z"/>
  <path class="cls-1" d="M6377.5,2320c8.3-8.3,13.4-20,13.4-36.7s-5-31.7-16.7-41.7c-10-10-28.4-15-50.1-15h-73.4v188.6h35.1v-76.8h25l46.7,76.8h36.7l-48.4-80.1c13.4-1.7,23.4-6.7,31.7-15.1ZM6327.5,2308.3h-41.7v-53.4h41.7c5,0,10,1.7,15,3.3,5,1.7,8.3,5,10,8.3s3.3,8.3,3.3,15-1.7,11.7-3.3,15c-3.3,3.3-6.7,6.7-10,8.3-5,1.9-10,3.5-15,3.5Z"/>
  <path class="cls-1" d="M6466,2258.3c-8.3-20-20-36.7-35.1-51.7-15-15-31.7-26.7-51.7-35.1-20-8.3-41.7-13.4-63.4-13.4s-43.4,5-63.4,13.4c-20,8.3-36.7,20-51.7,35.1-15,15-26.7,31.7-35.1,51.7-8.3,20-13.4,41.7-13.4,63.4s5,43.4,13.4,63.4c8.3,20,20,36.7,35.1,51.7,15,15,31.7,26.7,51.7,35.1,20,8.3,41.7,13.4,63.4,13.4s43.4-5,63.4-13.4c20-8.3,36.7-20,51.7-35.1,15-15,26.7-31.7,35.1-51.7,8.3-20,13.4-41.7,13.4-63.4s-5.1-43.4-13.4-63.4ZM6439.3,2375.1c-6.7,16.7-16.7,31.7-28.4,43.4-11.7,11.7-26.7,21.7-43.4,28.4-16.7,6.7-33.4,10-53.4,10s-36.7-3.3-53.4-10c-16.7-6.7-31.7-16.7-43.4-28.4-11.7-11.7-21.7-26.7-28.4-43.4-6.7-16.7-10-33.4-10-53.4s3.3-36.7,10-53.4,16.7-31.7,28.4-43.4c11.7-11.7,26.7-21.7,43.4-28.4,16.7-6.7,33.4-10,53.4-10s36.7,3.3,53.4,10c16.7,6.7,31.7,16.7,43.4,28.4,11.7,11.7,21.7,26.7,28.4,43.4s10,33.4,10,53.4c1.7,20-3.3,36.7-10,53.4Z"/>
</svg>