<?xml version="1.0" encoding="UTF-8"?>
<svg id="Layer_1" data-name="Layer 1" xmlns="http://www.w3.org/2000/svg" viewBox="0 0 3065.98 408.82">
  <defs>
    <style>
      .cls-1 {
        fill: none;
        stroke: #fff;
        stroke-width: 8.17px;
      }

      .cls-2 {
        fill: #04c7fd;
      }

      .cls-2, .cls-3 {
        stroke-width: 0px;
      }

      .cls-3 {
        fill: #fff;
      }
    </style>
  </defs>
  <path class="cls-3" d="M832.57,267.24v-104.77h48.05c11.98,0,21.45,3.04,28.44,9.13,6.99,5.99,10.48,14.12,10.48,24.4s-3.79,18.56-11.38,24.85c-7.49,6.29-17.36,9.43-29.64,9.43h-26.79v36.97h-19.16ZM900.08,196.3c0-5.29-1.75-9.43-5.24-12.42-3.49-2.99-8.38-4.49-14.67-4.49h-28.44v34.13h27.54c6.39,0,11.43-1.55,15.12-4.64,3.79-3.09,5.69-7.28,5.69-12.57ZM949.22,215.01c0-15.57,5.19-28.59,15.57-39.07,10.37-10.58,23.35-15.87,38.91-15.87s28.5,5.24,38.77,15.72c10.28,10.38,15.42,23.35,15.42,38.92s-5.19,28.64-15.57,39.22c-10.38,10.48-23.3,15.72-38.76,15.72s-28.54-5.19-38.92-15.57c-10.28-10.48-15.42-23.5-15.42-39.07ZM968.53,214.71c0,10.88,3.34,19.96,10.03,27.24,6.68,7.28,15.07,10.93,25.14,10.93s18.26-3.59,24.85-10.78c6.59-7.18,9.88-16.22,9.88-27.09s-3.35-19.81-10.03-27.09c-6.69-7.38-14.97-11.08-24.85-11.08s-18.46,3.59-25.15,10.78c-6.59,7.18-9.88,16.22-9.88,27.09ZM1227.55,162.47l-23.5,104.77h-21.7l-25.89-77.68-25.6,77.68h-21.7l-23.2-104.77h20.06l15.87,80.53,25.74-80.53h18.41l25.59,80.53,16.02-80.53h19.91ZM1262.28,267.24v-104.77h78.58v16.46h-59.43v27.24h55.24v16.46h-55.24v28.14h59.43v16.46h-78.58ZM1440.71,224.29l27.69,42.96h-22.6l-24.85-39.81h-24.1v39.81h-19.01v-104.77h48.35c12.57,0,22.3,2.79,29.19,8.38,6.89,5.49,10.33,13.27,10.33,23.35,0,7.58-2.2,13.97-6.59,19.16-4.29,5.19-10.43,8.83-18.41,10.93ZM1446.25,194.8c0-5.09-1.75-8.98-5.24-11.68-3.49-2.79-8.53-4.19-15.12-4.19h-29.04v32.18h28.29c6.59,0,11.73-1.45,15.42-4.34,3.79-2.89,5.69-6.89,5.69-11.97ZM1503.37,267.24v-104.77h19.16v104.77h-19.16ZM1581.2,190.61v76.64h-18.56v-104.77h19.91l57.32,76.19v-76.19h18.56v104.77h-19.61l-57.62-76.64ZM1749.72,176.69c-10.28,0-18.91,3.64-25.9,10.93-6.99,7.28-10.48,16.32-10.48,27.09s3.4,20.26,10.18,27.54c6.78,7.19,15.26,10.78,25.44,10.78,9.08,0,16.41-2.35,22-7.03,5.68-4.69,9.18-11.33,10.48-19.91h-35.78v-15.72h53.89c.2,1.4.35,2.74.45,4.04.09,1.3.14,2.44.14,3.44,0,15.67-4.74,28.24-14.22,37.72-9.37,9.38-21.95,14.07-37.72,14.07s-28.64-5.14-38.92-15.42c-10.17-10.38-15.26-23.45-15.26-39.22s5.33-28.74,16.01-39.22c10.68-10.48,23.95-15.72,39.81-15.72,9.58,0,18.26,2.1,26.05,6.29,7.88,4.09,14.07,9.78,18.56,17.06l-13.47,10.63c-3.89-5.79-8.49-10.13-13.77-13.02-5.19-2.89-11.03-4.34-17.51-4.34Z"/>
  <path class="cls-2" d="M1916.08,179.38h-38.17v-16.91h95.64v16.91h-38.32v87.86h-19.16v-87.86ZM2007.2,267.24v-104.77h19.16v43.41h57.18v-43.41h19.16v104.77h-19.16v-44.31h-57.18v44.31h-19.16ZM2142.05,267.24v-104.77h78.58v16.46h-59.42v27.24h55.24v16.46h-55.24v28.14h59.42v16.46h-78.58ZM2306.67,267.24v-104.77h77.38v16.46h-58.23v28.59h54.03v16.46h-54.03v43.26h-19.16ZM2467.06,252.88c8.98,0,16.22-2.94,21.7-8.83,5.49-5.99,8.23-13.82,8.23-23.5v-58.07h19.01v58.37c0,14.77-4.54,26.59-13.62,35.47-8.98,8.88-20.91,13.32-35.77,13.32s-26.45-4.44-35.33-13.32c-8.88-8.88-13.32-20.71-13.32-35.47v-58.37h19.16v58.07c0,9.68,2.74,17.51,8.23,23.5,5.59,5.89,12.82,8.83,21.7,8.83ZM2586.79,179.38h-38.17v-16.91h95.64v16.91h-38.32v87.86h-19.16v-87.86ZM2725.96,252.88c8.98,0,16.22-2.94,21.7-8.83,5.49-5.99,8.23-13.82,8.23-23.5v-58.07h19.01v58.37c0,14.77-4.54,26.59-13.62,35.47-8.98,8.88-20.91,13.32-35.77,13.32s-26.44-4.44-35.33-13.32c-8.88-8.88-13.32-20.71-13.32-35.47v-58.37h19.16v58.07c0,9.68,2.74,17.51,8.23,23.5,5.59,5.89,12.82,8.83,21.7,8.83ZM2875.92,224.29l27.69,42.96h-22.6l-24.85-39.81h-24.1v39.81h-19.01v-104.77h48.35c12.57,0,22.3,2.79,29.19,8.38,6.89,5.49,10.33,13.27,10.33,23.35,0,7.58-2.2,13.97-6.59,19.16-4.29,5.19-10.43,8.83-18.41,10.93ZM2881.46,194.8c0-5.09-1.75-8.98-5.24-11.68-3.49-2.79-8.53-4.19-15.12-4.19h-29.03v32.18h28.29c6.58,0,11.72-1.45,15.42-4.34,3.79-2.89,5.68-6.89,5.68-11.97ZM2937.69,267.24v-104.77h78.58v16.46h-59.43v27.24h55.24v16.46h-55.24v28.14h59.43v16.46h-78.58Z"/>
  <g>
    <path class="cls-2" d="M85.78,107.6h-36.07v36.07h36.07v-36.07Z"/>
    <path class="cls-3" d="M84.92,295.65v-130h-34.16v130h34.16ZM311.99,296.89v-31.88c-5.04,0-9.23-.29-12.37-.76-3.62-.48-6.28-1.81-8.09-3.62s-2.95-4.38-3.62-7.71c-.48-3.24-.76-7.42-.76-12.56v-45.49h24.74v-29.31h-24.74v-50.63h-34.26v125.72c0,10.66.86,19.6,2.66,26.84,1.81,7.04,4.85,12.85,9.14,17.23,4.28,4.38,9.9,7.42,16.65,9.42,6.95,1.9,15.7,2.85,26.08,2.85h4.47l.1-.1ZM508.23,295.65V104.93h-34.26v190.72h34.26ZM219.87,178.4c-9.52-10.28-22.84-15.42-39.78-15.42-8.18,0-15.7,1.71-22.46,5.04-6.66,3.33-12.47,7.99-16.94,13.89l-1.9,2.47v-18.65h-33.78v130h34.07v-69.19,4.76-2.28c.38-12.18,3.33-21.22,8.95-26.93,6-6.19,13.32-9.23,21.7-9.23,9.9,0,17.51,3.05,22.46,8.95,4.85,5.9,7.42,14.28,7.42,24.93v69h34.55v-73.75c.1-18.46-4.76-33.12-14.27-43.4v-.19ZM456.17,230.46c0-9.42-1.71-18.08-4.85-26.36-3.33-8.09-7.99-15.32-13.7-21.41-5.9-6.19-12.94-10.94-21.22-14.37-8.28-3.43-17.32-5.14-27.22-5.14s-18.27,1.81-26.46,5.23c-8.18,3.62-15.42,8.37-21.41,14.37-6,6-10.94,13.23-14.37,21.41-3.62,8.18-5.23,17.04-5.23,26.46s1.71,18.27,5.04,26.46c3.33,8.18,8.09,15.42,13.99,21.41,5.9,6,13.23,10.94,21.7,14.37,8.47,3.62,17.89,5.42,27.88,5.42,29.03,0,47.01-13.23,57.77-25.6l-24.65-18.75c-5.14,6.19-17.51,14.56-32.83,14.56-9.61,0-17.61-2.19-23.6-6.66-6-4.38-10.18-10.56-12.37-18.08l-.38-1.14h102.11v-12.18h-.19ZM354.34,218.47c0-9.52,10.94-26.08,34.45-26.17,23.51,0,34.55,16.56,34.55,26.08h-69v.1Z"/>
    <path class="cls-3" d="M547.24,278.71c-.67-1.52-1.52-2.85-2.66-4-1.14-1.14-2.47-2.09-4-2.66-1.52-.57-3.24-1.05-4.85-1.05-1.81,0-3.33.38-4.85,1.05-1.52.67-2.86,1.52-4,2.66-1.14,1.14-2.09,2.47-2.66,4-.67,1.52-1.05,3.24-1.05,4.85,0,1.81.38,3.33,1.05,4.85.67,1.52,1.52,2.85,2.66,4,1.14,1.14,2.47,2.09,4,2.66,1.52.57,3.24,1.05,4.85,1.05,1.81,0,3.33-.38,4.85-1.05,1.52-.67,2.85-1.52,4-2.66,1.14-1.14,2.09-2.47,2.66-4,.67-1.52,1.05-3.24,1.05-4.85s-.38-3.33-1.05-4.85ZM545.15,287.65c-.48,1.24-1.24,2.47-2.19,3.33-.86.86-2.09,1.71-3.33,2.19-1.24.48-2.57.76-4.09.76-1.43,0-2.86-.29-4.09-.76-1.24-.48-2.47-1.24-3.33-2.19s-1.71-2.09-2.19-3.33c-.48-1.24-.76-2.57-.76-4.09,0-1.43.29-2.86.76-4.09.48-1.24,1.24-2.47,2.19-3.33.86-.86,2.09-1.71,3.33-2.19,1.24-.48,2.57-.76,4.09-.76,1.43,0,2.85.29,4.09.76,1.24.48,2.47,1.24,3.33,2.19.86.95,1.71,2.09,2.19,3.33.48,1.24.76,2.57.76,4.09.1,1.52-.29,2.85-.76,4.09ZM537.92,284.61c1.05-.09,1.81-.48,2.47-1.14.67-.67,1.05-1.52,1.05-2.85,0-1.43-.38-2.47-1.24-3.24-.76-.76-2.19-1.14-3.81-1.14h-5.61v14.56h2.66v-5.9h1.9l3.62,5.9h2.86l-3.71-6.19h-.19ZM536.49,282.52h-3.24v-4.09h3.24s.76.1,1.14.29c.38.1.67.38.76.67.1.29.29.67.29,1.14s-.09.86-.29,1.14c-.29.29-.48.48-.76.67-.38.1-.76.29-1.14.29v-.1Z"/>
  </g>
  <line class="cls-1" x1="699.5" y1="45.03" x2="699.5" y2="363.79"/>
</svg>