<?xml version="1.0" encoding="UTF-8"?>
<svg id="Layer_1" xmlns="http://www.w3.org/2000/svg" xmlns:xlink="http://www.w3.org/1999/xlink" viewBox="0 0 1920 1080">
  <defs>
    <style>
      .cls-1, .cls-2 {
        fill: none;
      }

      .cls-3 {
        fill: url(#linear-gradient-2);
      }

      .cls-4 {
        fill: url(#linear-gradient);
      }

      .cls-5 {
        fill: #08062a;
      }

      .cls-2 {
        stroke: #4090b8;
        stroke-width: 2px;
      }

      .cls-6 {
        clip-path: url(#clippath);
      }
    </style>
    <clipPath id="clippath">
      <rect class="cls-1" x="0" width="1920" height="1080"/>
    </clipPath>
    <linearGradient id="linear-gradient" x1="0" y1="540" x2="1920" y2="540" gradientUnits="userSpaceOnUse">
      <stop offset="0" stop-color="#08062a"/>
      <stop offset=".5" stop-color="#08062a" stop-opacity="0"/>
      <stop offset="1" stop-color="#08062a"/>
    </linearGradient>
    <linearGradient id="linear-gradient-2" x1="960" y1="2.64" x2="960" y2="1101.06" gradientTransform="translate(420 1500) rotate(-90)" gradientUnits="userSpaceOnUse">
      <stop offset="0" stop-color="#08062a"/>
      <stop offset=".03" stop-color="#08062a" stop-opacity=".99"/>
      <stop offset=".5" stop-color="#08062a" stop-opacity=".85"/>
      <stop offset="1" stop-color="#08062a"/>
    </linearGradient>
  </defs>
  <rect class="cls-5" x="0" width="1920" height="1080"/>
  <g class="cls-6">
    <g>
      <g>
        <line class="cls-2" x1="14.94" y1="1096.54" x2="1942.89" y2="-16.56"/>
        <line class="cls-2" x1="92.86" y1="1096.54" x2="1945.53" y2="26.9"/>
        <line class="cls-2" x1="170.78" y1="1096.54" x2="1945.53" y2="71.89"/>
        <line class="cls-2" x1="248.7" y1="1096.54" x2="1945.53" y2="116.88"/>
        <line class="cls-2" x1="326.63" y1="1096.54" x2="1945.53" y2="161.86"/>
        <line class="cls-2" x1="404.55" y1="1096.54" x2="1945.53" y2="206.85"/>
        <line class="cls-2" x1="482.47" y1="1096.54" x2="1945.53" y2="251.84"/>
        <line class="cls-2" x1="560.39" y1="1096.54" x2="1945.53" y2="296.83"/>
        <line class="cls-2" x1="638.31" y1="1096.54" x2="1945.53" y2="341.81"/>
        <line class="cls-2" x1="716.23" y1="1096.54" x2="1945.53" y2="386.8"/>
        <line class="cls-2" x1="794.15" y1="1096.54" x2="1945.53" y2="431.79"/>
        <line class="cls-2" x1="949.99" y1="1096.54" x2="1945.53" y2="521.76"/>
        <line class="cls-2" x1="1027.91" y1="1096.54" x2="1945.53" y2="566.75"/>
        <line class="cls-2" x1="1105.83" y1="1096.54" x2="1945.53" y2="611.74"/>
        <line class="cls-2" x1="1183.75" y1="1096.54" x2="1945.53" y2="656.73"/>
        <line class="cls-2" x1="1261.67" y1="1096.54" x2="1945.53" y2="701.72"/>
        <line class="cls-2" x1="1339.6" y1="1096.54" x2="1945.53" y2="746.7"/>
        <line class="cls-2" x1="1417.52" y1="1096.54" x2="1945.53" y2="791.69"/>
        <line class="cls-2" x1="1495.44" y1="1096.54" x2="1945.53" y2="836.68"/>
        <line class="cls-2" x1="1573.36" y1="1096.54" x2="1945.53" y2="881.67"/>
        <line class="cls-2" x1="1651.28" y1="1096.54" x2="1945.53" y2="926.65"/>
        <line class="cls-2" x1="1729.2" y1="1096.54" x2="1945.53" y2="971.64"/>
        <line class="cls-2" x1="1807.12" y1="1096.54" x2="1945.53" y2="1016.63"/>
        <line class="cls-2" x1="1885.04" y1="1096.54" x2="1945.53" y2="1061.62"/>
        <line class="cls-2" x1="872.07" y1="1096.54" x2="1945.53" y2="476.78"/>
        <line class="cls-2" x1="-25.53" y1="40.21" x2="72.79" y2="-16.56"/>
        <line class="cls-2" x1="-25.53" y1="85.19" x2="150.71" y2="-16.56"/>
        <line class="cls-2" x1="-25.53" y1="130.18" x2="228.63" y2="-16.56"/>
        <line class="cls-2" x1="-25.53" y1="175.17" x2="306.55" y2="-16.56"/>
        <line class="cls-2" x1="-25.53" y1="220.16" x2="384.47" y2="-16.56"/>
        <line class="cls-2" x1="-25.53" y1="265.14" x2="462.39" y2="-16.56"/>
        <line class="cls-2" x1="-25.53" y1="310.13" x2="540.32" y2="-16.56"/>
        <line class="cls-2" x1="-25.53" y1="355.12" x2="618.24" y2="-16.56"/>
        <line class="cls-2" x1="-25.53" y1="400.11" x2="696.16" y2="-16.56"/>
        <line class="cls-2" x1="-25.53" y1="445.09" x2="774.08" y2="-16.56"/>
        <line class="cls-2" x1="-25.53" y1="535.07" x2="929.92" y2="-16.56"/>
        <line class="cls-2" x1="-25.53" y1="580.06" x2="1007.84" y2="-16.56"/>
        <line class="cls-2" x1="-25.53" y1="625.04" x2="1085.76" y2="-16.56"/>
        <line class="cls-2" x1="-25.53" y1="670.03" x2="1163.68" y2="-16.56"/>
        <line class="cls-2" x1="-25.53" y1="715.02" x2="1241.6" y2="-16.56"/>
        <line class="cls-2" x1="-25.53" y1="760.01" x2="1319.52" y2="-16.56"/>
        <line class="cls-2" x1="-25.53" y1="805" x2="1397.44" y2="-16.56"/>
        <line class="cls-2" x1="-25.53" y1="849.98" x2="1475.37" y2="-16.56"/>
        <line class="cls-2" x1="-25.53" y1="894.97" x2="1553.29" y2="-16.56"/>
        <line class="cls-2" x1="-25.53" y1="939.96" x2="1631.21" y2="-16.56"/>
        <line class="cls-2" x1="-25.53" y1="984.95" x2="1709.13" y2="-16.56"/>
        <line class="cls-2" x1="-25.53" y1="1029.93" x2="1787.05" y2="-16.56"/>
        <line class="cls-2" x1="-25.53" y1="1074.92" x2="1864.97" y2="-16.56"/>
        <line class="cls-2" x1="-25.53" y1="490.08" x2="852" y2="-16.56"/>
      </g>
      <g>
        <line class="cls-2" x1="14.94" y1="-16.56" x2="1942.89" y2="1096.54"/>
        <line class="cls-2" x1="92.86" y1="-16.56" x2="1945.53" y2="1053.08"/>
        <line class="cls-2" x1="170.78" y1="-16.56" x2="1945.53" y2="1008.09"/>
        <line class="cls-2" x1="248.7" y1="-16.56" x2="1945.53" y2="963.1"/>
        <line class="cls-2" x1="326.63" y1="-16.56" x2="1945.53" y2="918.12"/>
        <line class="cls-2" x1="404.55" y1="-16.56" x2="1945.53" y2="873.13"/>
        <line class="cls-2" x1="482.47" y1="-16.56" x2="1945.53" y2="828.14"/>
        <line class="cls-2" x1="560.39" y1="-16.56" x2="1945.53" y2="783.15"/>
        <line class="cls-2" x1="638.31" y1="-16.56" x2="1945.53" y2="738.17"/>
        <line class="cls-2" x1="716.23" y1="-16.56" x2="1945.53" y2="693.18"/>
        <line class="cls-2" x1="794.15" y1="-16.56" x2="1945.53" y2="648.19"/>
        <line class="cls-2" x1="949.99" y1="-16.56" x2="1945.53" y2="558.21"/>
        <line class="cls-2" x1="1027.91" y1="-16.56" x2="1945.53" y2="513.23"/>
        <line class="cls-2" x1="1105.83" y1="-16.56" x2="1945.53" y2="468.24"/>
        <line class="cls-2" x1="1183.75" y1="-16.56" x2="1945.53" y2="423.25"/>
        <line class="cls-2" x1="1261.67" y1="-16.56" x2="1945.53" y2="378.26"/>
        <line class="cls-2" x1="1339.6" y1="-16.56" x2="1945.53" y2="333.28"/>
        <line class="cls-2" x1="1417.52" y1="-16.56" x2="1945.53" y2="288.29"/>
        <line class="cls-2" x1="1495.44" y1="-16.56" x2="1945.53" y2="243.3"/>
        <line class="cls-2" x1="1573.36" y1="-16.56" x2="1945.53" y2="198.31"/>
        <line class="cls-2" x1="1651.28" y1="-16.56" x2="1945.53" y2="153.33"/>
        <line class="cls-2" x1="1729.2" y1="-16.56" x2="1945.53" y2="108.34"/>
        <line class="cls-2" x1="1807.12" y1="-16.56" x2="1945.53" y2="63.35"/>
        <line class="cls-2" x1="1885.04" y1="-16.56" x2="1945.53" y2="18.36"/>
        <line class="cls-2" x1="872.07" y1="-16.56" x2="1945.53" y2="603.2"/>
        <line class="cls-2" x1="-25.53" y1="1039.77" x2="72.79" y2="1096.54"/>
        <line class="cls-2" x1="-25.53" y1="994.79" x2="150.71" y2="1096.54"/>
        <line class="cls-2" x1="-25.53" y1="949.8" x2="228.63" y2="1096.54"/>
        <line class="cls-2" x1="-25.53" y1="904.81" x2="306.55" y2="1096.54"/>
        <line class="cls-2" x1="-25.53" y1="859.82" x2="384.47" y2="1096.54"/>
        <line class="cls-2" x1="-25.53" y1="814.84" x2="462.39" y2="1096.54"/>
        <line class="cls-2" x1="-25.53" y1="769.85" x2="540.32" y2="1096.54"/>
        <line class="cls-2" x1="-25.53" y1="724.86" x2="618.24" y2="1096.54"/>
        <line class="cls-2" x1="-25.53" y1="679.87" x2="696.16" y2="1096.54"/>
        <line class="cls-2" x1="-25.53" y1="634.89" x2="774.08" y2="1096.54"/>
        <line class="cls-2" x1="-25.53" y1="544.91" x2="929.92" y2="1096.54"/>
        <line class="cls-2" x1="-25.53" y1="499.92" x2="1007.84" y2="1096.54"/>
        <line class="cls-2" x1="-25.53" y1="454.93" x2="1085.76" y2="1096.54"/>
        <line class="cls-2" x1="-25.53" y1="409.95" x2="1163.68" y2="1096.54"/>
        <line class="cls-2" x1="-25.53" y1="364.96" x2="1241.6" y2="1096.54"/>
        <line class="cls-2" x1="-25.53" y1="319.97" x2="1319.52" y2="1096.54"/>
        <line class="cls-2" x1="-25.53" y1="274.98" x2="1397.44" y2="1096.54"/>
        <line class="cls-2" x1="-25.53" y1="230" x2="1475.37" y2="1096.54"/>
        <line class="cls-2" x1="-25.53" y1="185.01" x2="1553.29" y2="1096.54"/>
        <line class="cls-2" x1="-25.53" y1="140.02" x2="1631.21" y2="1096.54"/>
        <line class="cls-2" x1="-25.53" y1="95.03" x2="1709.13" y2="1096.54"/>
        <line class="cls-2" x1="-25.53" y1="50.05" x2="1787.05" y2="1096.54"/>
        <line class="cls-2" x1="-25.53" y1="5.06" x2="1864.97" y2="1096.54"/>
        <line class="cls-2" x1="-25.53" y1="589.9" x2="852" y2="1096.54"/>
      </g>
    </g>
  </g>
  <rect class="cls-1" x=".87" y="-.3" width="1920" height="1080"/>
  <rect class="cls-4" x="0" width="1920" height="1080"/>
  <rect class="cls-3" x="420" y="-420" width="1080" height="1920" transform="translate(1500 -420) rotate(90)"/>
</svg>