<svg width="137" height="46" viewBox="0 0 137 46" fill="none" xmlns="http://www.w3.org/2000/svg">
<path d="M0.00488281 0V46H137.005V0H0.00488281Z" fill="#E42022"/>
<path d="M59.6865 15.5024C57.6634 15.5024 55.362 16.4474 53.9551 18.3388L53.9564 18.3354L53.9551 18.3367L53.9564 15.7991H49.1296V33.5036H53.9551V23.4303C53.9551 21.6168 55.3506 19.6896 57.9345 19.6896C59.9319 19.6896 61.998 21.0884 61.998 23.4303V33.5036H66.8248V22.5287C66.8248 18.4573 63.9329 15.5024 59.6865 15.5024Z" fill="white"/>
<path d="M101.128 15.8003L96.7649 27.8605L92.4015 15.8003H86.8887L94.1205 33.498H99.4087L106.641 15.8003H101.128Z" fill="white"/>
<path d="M34.7206 21.1339C35.5424 20.0222 36.8519 19.3699 38.433 19.3699C40.1729 19.3699 41.4924 20.3704 42.1737 21.8465L33.742 25.3705C33.5114 23.5624 33.9707 22.148 34.7206 21.1339ZM43.9936 28.0606C41.9618 29.5746 40.801 29.9364 38.9489 29.9364C37.2816 29.9364 35.9769 29.4154 35.0562 28.5009L47.3953 23.3443C47.1263 21.4231 46.4026 19.7072 45.2882 18.4018C43.6667 16.505 41.2671 15.5017 38.3463 15.5017C33.0386 15.5017 29.0369 19.4457 29.0369 24.6538C29.0369 29.9973 33.048 33.8051 38.8776 33.8051C42.1434 33.8051 45.4833 32.2457 47.0449 30.4241L43.9936 28.0606Z" fill="white"/>
<path d="M28.5767 29.0399H17.6069V10.5049H12.7148V33.5035H28.5767V29.0399Z" fill="white"/>
<path d="M115.307 19.6677C112.612 19.6677 110.656 21.7251 110.656 24.6522C110.656 27.4466 112.728 29.6367 115.373 29.6367C118.068 29.6367 120.025 27.5225 120.025 24.6522C120.025 21.8572 117.953 19.6677 115.307 19.6677ZM115.307 33.8022C110.029 33.8022 105.893 29.8413 105.893 24.6522C105.893 19.5214 110.058 15.5015 115.373 15.5015C120.651 15.5015 124.786 19.4625 124.786 24.6522C124.786 29.7824 120.623 33.8022 115.307 33.8022Z" fill="white"/>
<path d="M78.1478 19.6677C75.4522 19.6677 73.4958 21.7251 73.4958 24.6522C73.4958 27.4466 75.5686 29.6367 78.213 29.6367C80.9086 29.6367 82.8657 27.5225 82.8657 24.6522C82.8657 21.8572 80.7929 19.6677 78.1478 19.6677ZM78.1478 33.8022C72.869 33.8022 68.7342 29.8413 68.7342 24.6522C68.7342 19.5214 72.8979 15.5015 78.213 15.5015C83.4911 15.5015 87.6266 19.4625 87.6266 24.6522C87.6266 29.7824 83.4629 33.8022 78.1478 33.8022Z" fill="white"/>
</svg>
