<?xml version="1.0" encoding="UTF-8"?>
<svg xmlns="http://www.w3.org/2000/svg" version="1.1" viewBox="0 0 1179.1 424.7">
  <defs>
    <style>
      .cls-1 {
        fill: #08062a;
      }

      .cls-2 {
        fill: #fff;
      }
    </style>
  </defs>
  <!-- Generator: Adobe Illustrator 28.6.0, SVG Export Plug-In . SVG Version: 1.2.0 Build 709)  -->
  <g>
    <g id="Layer_1">
      <path class="cls-2" d="M894,183.9h-143.5c-5,0-9-4-9-9v-59.9c0-5,4-9,9-9h143.5v77.9Z"/>
      <path class="cls-2" d="M889.4,106v145c0,1.3,1,2.3,2.3,2.3s2.3-1,2.3-2.3V106c0-1.3-1-2.3-2.3-2.3s-2.3,1-2.3,2.3h0Z"/>
      <g>
        <path class="cls-1" d="M774,136.3c.4-.6.5-1.3.5-2s-.2-1.4-.5-2c-.3-.5-.7-1-1.2-1.2-.5-.3-1-.5-1.4-.5h0c.5-.3.9-.4,1.3-.7.4-.3.7-.6.9-1,.2-.4.3-.9.3-1.6s-.2-1.4-.5-2c-.3-.6-.9-1.1-1.6-1.4s-1.6-.5-2.6-.5h-5.4v14.9h5.7c1.2,0,2.1-.2,2.8-.5.7-.4,1.3-.8,1.6-1.4ZM766.1,125.3h3.1c.9,0,1.5.2,2,.6.4.4.6.9.6,1.5s-.1.9-.4,1.2-.6.6-1,.8c-.4.2-.9.3-1.4.3h-3v-4.5ZM771.7,135.7c-.5.4-1.2.6-2.3.6h-3.2v-4.8h3.3c.6,0,1.1.1,1.6.3.4.2.8.5,1,.9.2.4.4.8.4,1.3s-.2,1.1-.7,1.6Z"/>
        <path class="cls-1" d="M783.7,136.7v1.5h2.1v-7.4c0-.8-.1-1.5-.4-2-.3-.5-.6-.9-1.1-1.2-.4-.3-.9-.5-1.4-.6-.5-.1-1-.2-1.4-.2-.7,0-1.3,0-1.9.3-.6.2-1.1.5-1.6.9s-.8,1-1.1,1.6l2,.5c.2-.4.4-.7.9-1.1s1-.5,1.7-.5,1.2.2,1.6.5c.4.3.5.8.5,1.5h0c0,.3,0,.5-.3.6s-.5.2-.9.2-1,.1-1.6.2c-.5,0-1,.2-1.6.3-.5.1-1,.3-1.4.5-.4.2-.7.6-1,1-.2.4-.4.9-.4,1.6s.2,1.3.5,1.8.8.9,1.4,1.1c.6.3,1.2.4,1.9.4s1.1,0,1.6-.3c.4-.2.8-.4,1.1-.7s.5-.5.6-.8h0ZM782.3,136.4c-.4.2-.9.4-1.5.4s-1.1-.1-1.5-.4-.6-.7-.6-1.2.1-.7.3-.9c.2-.2.5-.4.8-.5.3-.1.7-.2,1.1-.3.2,0,.4,0,.7,0s.5,0,.8-.1.5-.1.8-.2c.2,0,.4-.1.4-.2v1.4c0,.4-.1.9-.3,1.2-.2.4-.6.7-1,.9Z"/>
        <path class="cls-1" d="M796.2,127.4c-.6-.3-1.2-.5-2-.5s-1.5.2-2.1.5c-.5.4-1,.8-1.2,1.4h-.1v-1.8h-2.1v11.1h2.2v-6.6c0-.6.1-1.1.3-1.5s.5-.7.9-1c.4-.2.8-.3,1.3-.3.7,0,1.3.2,1.7.7s.6,1.1.6,1.9v6.8h2.2v-7.1c0-.9-.2-1.7-.5-2.3-.3-.6-.8-1.1-1.3-1.4Z"/>
        <polygon class="cls-1" points="803 134.3 804.1 133.2 807.9 138.2 810.6 138.2 805.8 131.9 810.3 127.1 807.7 127.1 803.2 131.8 803 131.8 803 123.4 800.9 123.4 800.9 138.2 803 138.2 803 134.3"/>
        <path class="cls-1" d="M813.3,125.4c.4,0,.7-.1,1-.4.3-.3.4-.6.4-.9s-.1-.7-.4-.9c-.3-.3-.6-.4-1-.4s-.7.1-1,.4c-.3.3-.4.6-.4.9s.1.7.4.9c.3.3.6.4,1,.4Z"/>
        <rect class="cls-1" x="812.2" y="127.1" width="2.2" height="11.1"/>
        <path class="cls-1" d="M824.4,131.4v6.8h2.2v-7.1c0-.9-.2-1.7-.5-2.3-.3-.6-.8-1.1-1.3-1.4-.6-.3-1.2-.5-2-.5s-1.5.2-2.1.5c-.5.4-1,.8-1.2,1.4h-.1v-1.8h-2.1v11.1h2.2v-6.6c0-.6.1-1.1.3-1.5s.5-.7.9-1c.4-.2.8-.3,1.3-.3.7,0,1.3.2,1.7.7s.6,1.1.6,1.9Z"/>
        <path class="cls-1" d="M836.7,142.2c.8-.3,1.4-.8,1.8-1.4.4-.6.7-1.4.7-2.4v-11.4h-2.1v1.8h-.2c-.1-.2-.3-.5-.6-.8s-.6-.6-1-.8-1-.3-1.7-.3-1.7.2-2.4.7-1.3,1.1-1.7,1.9c-.4.8-.6,1.9-.6,3s.2,2.2.6,3,1,1.4,1.7,1.8c.7.4,1.5.6,2.4.6s1.2-.1,1.7-.3c.4-.2.8-.5,1-.8s.4-.6.6-.8h.1v2.2c0,.9-.3,1.5-.8,1.9-.5.4-1.2.6-2,.6s-1.1,0-1.5-.3c-.4-.2-.7-.4-.9-.6s-.4-.5-.5-.7l-1.9.8c.2.5.5.9.9,1.3s.9.7,1.6.9c.6.2,1.4.3,2.3.3s1.8-.1,2.6-.4ZM836.7,134.6c-.2.5-.6,1-1,1.3-.4.3-1,.4-1.6.4s-1.2-.2-1.6-.5c-.4-.3-.8-.7-1-1.3-.2-.6-.3-1.2-.3-1.9s.1-1.4.3-1.9.5-1,1-1.4c.4-.3,1-.5,1.6-.5s1.2.2,1.6.5c.4.3.8.8,1,1.3s.3,1.2.3,2-.1,1.4-.3,2Z"/>
        <path class="cls-1" d="M852.8,128.8v-1.7h-2.4v-1c0-.5.1-.9.3-1.1.2-.3.6-.4,1.1-.4s.4,0,.6,0c.2,0,.3,0,.4.1l.5-1.8c-.1,0-.4-.1-.7-.2-.3,0-.7-.1-1.1-.1s-1.1.1-1.6.3c-.5.2-.9.6-1.2,1-.3.5-.5,1-.5,1.7v1.3h-1.7v1.7h1.7v9.4h2.2v-9.4h2.4Z"/>
        <path class="cls-1" d="M862.1,127.7c-.8-.5-1.7-.7-2.7-.7s-2,.2-2.7.7-1.4,1.2-1.8,2c-.4.9-.6,1.9-.6,3s.2,2.2.6,3c.4.9,1,1.5,1.8,2s1.7.7,2.7.7,2-.2,2.7-.7,1.4-1.1,1.8-2c.4-.9.6-1.9.6-3s-.2-2.2-.6-3c-.4-.9-1-1.5-1.8-2ZM862,134.7c-.2.6-.5,1.1-1,1.4-.4.4-1,.5-1.7.5s-1.2-.2-1.7-.5c-.4-.4-.8-.8-1-1.4-.2-.6-.3-1.2-.3-2s.1-1.4.3-2c.2-.6.5-1.1,1-1.4.4-.4,1-.5,1.7-.5s1.2.2,1.7.5c.4.4.8.8,1,1.4.2.6.3,1.3.3,2s-.1,1.4-.3,2Z"/>
        <path class="cls-1" d="M872.4,127c-.2,0-.3,0-.5,0-.7,0-1.2.2-1.8.5s-.9.8-1.1,1.4h-.1v-1.8h-2.1v11.1h2.2v-6.8c0-.5.1-.9.3-1.3.2-.4.5-.7.9-.9s.9-.3,1.4-.3.4,0,.7,0c.2,0,.4,0,.5,0v-2.1c-.1,0-.3,0-.4,0Z"/>
        <path class="cls-1" d="M768.4,160.9c-.1,0-.3,0-.5,0s-.5,0-.7-.1c-.2,0-.4-.2-.5-.4-.1-.2-.2-.5-.2-.9v-6.1h2.3v-1.7h-2.3v-2.7h-2.2v2.7h-1.6v1.7h1.6v6.6c0,.7.2,1.2.5,1.7.3.4.7.8,1.2,1,.5.2,1,.3,1.6.3.3,0,.6,0,.9,0,.2,0,.4-.1.5-.1l-.4-1.8c0,0-.2,0-.3,0Z"/>
        <path class="cls-1" d="M779.1,151.9c-.6-.3-1.2-.5-2-.5s-1.6.2-2.1.5c-.5.4-.9.8-1.2,1.4h-.1v-5.5h-2.1v14.9h2.2v-6.6c0-.6.1-1.1.3-1.5s.5-.7.9-1c.4-.2.9-.3,1.4-.3.7,0,1.3.2,1.8.7.4.5.6,1.1.6,1.9v6.8h2.2v-7.1c0-.9-.2-1.7-.5-2.3-.3-.6-.8-1.1-1.3-1.4Z"/>
        <path class="cls-1" d="M791.9,152.8c-.5-.4-1-.8-1.6-1-.6-.2-1.2-.3-1.8-.3-1,0-1.9.2-2.7.7s-1.4,1.2-1.8,2c-.4.9-.6,1.9-.6,3s.2,2.2.6,3c.4.9,1,1.5,1.8,2,.8.5,1.7.7,2.8.7s1.5-.1,2.2-.4,1.2-.6,1.6-1.1c.4-.5.7-1,.9-1.6l-2.1-.4c-.1.3-.3.6-.6.9-.2.2-.5.4-.9.5-.3.1-.7.2-1.1.2-.6,0-1.2-.1-1.7-.4-.5-.3-.8-.7-1.1-1.2-.2-.5-.4-1.1-.4-1.7h7.9v-.8c0-1-.1-1.9-.4-2.6s-.6-1.3-1.1-1.7ZM785.5,156.2c0-.5.1-.9.3-1.3.2-.5.6-.9,1-1.2.5-.3,1-.4,1.6-.4s1.1.1,1.5.4c.4.3.7.6,1,1,.2.4.3.9.3,1.5h-5.8Z"/>
        <polygon class="cls-1" points="801.4 162.7 803.6 162.7 803.6 156.3 809.9 156.3 809.9 154.4 803.6 154.4 803.6 149.8 810.6 149.8 810.6 147.9 801.4 147.9 801.4 162.7"/>
        <path class="cls-1" d="M819.5,158.1c0,.6-.1,1.2-.4,1.6-.3.4-.6.7-1,.9-.4.2-.8.3-1.2.3-.7,0-1.2-.2-1.6-.7-.4-.4-.6-1.1-.6-1.8v-6.8h-2.2v7.1c0,.9.2,1.7.5,2.3.3.6.7,1.1,1.3,1.4s1.2.5,1.9.5,1.5-.2,2.1-.6c.6-.4,1-.9,1.2-1.5h.1v1.9h2.1v-11.1h-2.2v6.5Z"/>
        <path class="cls-1" d="M829.3,160.9c-.1,0-.3,0-.5,0s-.5,0-.7-.1c-.2,0-.4-.2-.5-.4-.1-.2-.2-.5-.2-.9v-6.1h2.3v-1.7h-2.3v-2.7h-2.2v2.7h-1.6v1.7h1.6v6.6c0,.7.2,1.2.5,1.7.3.4.7.8,1.2,1,.5.2,1,.3,1.6.3.3,0,.6,0,.9,0,.2,0,.4-.1.5-.1l-.4-1.8c0,0-.2,0-.3,0Z"/>
        <path class="cls-1" d="M839.3,158.1c0,.6-.1,1.2-.4,1.6s-.6.7-1,.9-.8.3-1.2.3c-.7,0-1.2-.2-1.6-.7-.4-.4-.6-1.1-.6-1.8v-6.8h-2.2v7.1c0,.9.2,1.7.5,2.3.3.6.7,1.1,1.3,1.4.5.3,1.2.5,1.9.5s1.5-.2,2.1-.6c.6-.4,1-.9,1.2-1.5h.1v1.9h2.1v-11.1h-2.2v6.5Z"/>
        <path class="cls-1" d="M849.4,151.4c-.7,0-1.2.2-1.8.5s-.9.8-1.1,1.4h-.1v-1.8h-2.1v11.1h2.2v-6.8c0-.5.1-.9.3-1.3.2-.4.5-.7.9-.9s.9-.3,1.4-.3.4,0,.7,0c.2,0,.4,0,.5,0v-2.1c-.1,0-.3,0-.4,0-.2,0-.3,0-.5,0Z"/>
        <path class="cls-1" d="M859.9,152.8c-.5-.4-1-.8-1.6-1-.6-.2-1.2-.3-1.8-.3-1,0-1.9.2-2.7.7s-1.4,1.2-1.8,2c-.4.9-.6,1.9-.6,3s.2,2.2.6,3c.4.9,1,1.5,1.8,2,.8.5,1.7.7,2.8.7s1.5-.1,2.2-.4,1.2-.6,1.6-1.1c.4-.5.7-1,.9-1.6l-2.1-.4c-.1.3-.3.6-.6.9-.2.2-.5.4-.9.5-.3.1-.7.2-1.1.2-.6,0-1.2-.1-1.7-.4-.5-.3-.8-.7-1.1-1.2-.2-.5-.4-1.1-.4-1.7h7.9v-.8c0-1-.1-1.9-.4-2.6s-.6-1.3-1.1-1.7ZM853.5,156.2c0-.5.1-.9.3-1.3.2-.5.6-.9,1-1.2.5-.3,1-.4,1.6-.4s1.1.1,1.5.4c.4.3.7.6,1,1,.2.4.3.9.3,1.5h-5.8Z"/>
      </g>
    </g>
  </g>
</svg>