<?xml version="1.0" encoding="UTF-8"?>
<svg id="Layer_1" xmlns="http://www.w3.org/2000/svg" xmlns:xlink="http://www.w3.org/1999/xlink" viewBox="0 0 1179.11 424.66">
  <defs>
    <style>
      .cls-1 {
        fill: url(#linear-gradient-8);
      }

      .cls-2 {
        fill: url(#linear-gradient-7);
      }

      .cls-3 {
        fill: url(#linear-gradient-5);
      }

      .cls-4 {
        fill: url(#linear-gradient-6);
      }

      .cls-5 {
        fill: url(#linear-gradient-9);
      }

      .cls-6 {
        fill: url(#linear-gradient-4);
      }

      .cls-7 {
        fill: url(#linear-gradient-3);
      }

      .cls-8 {
        fill: url(#linear-gradient-2);
      }

      .cls-9 {
        fill: url(#radial-gradient);
      }

      .cls-10 {
        fill: url(#linear-gradient);
      }

      .cls-11 {
        fill: url(#linear-gradient-10);
      }

      .cls-12 {
        fill: url(#linear-gradient-11);
      }

      .cls-13 {
        fill: url(#linear-gradient-12);
      }

      .cls-14 {
        fill: #08062a;
      }
    </style>
    <radialGradient id="radial-gradient" cx="1864.54" cy="-96.08" fx="1864.54" fy="-96.08" r="54.75" gradientTransform="translate(-2566.18 408.91) scale(1.48 1)" gradientUnits="userSpaceOnUse">
      <stop offset="0" stop-color="#008fbe" stop-opacity=".8"/>
      <stop offset=".3" stop-color="#3bafcd" stop-opacity=".51"/>
      <stop offset=".62" stop-color="#75cedc" stop-opacity=".24"/>
      <stop offset=".87" stop-color="#99e2e6" stop-opacity=".06"/>
      <stop offset="1" stop-color="#a7eaea" stop-opacity="0"/>
    </radialGradient>
    <linearGradient id="linear-gradient" x1="215.11" y1="376.24" x2="317.35" y2="376.24" gradientTransform="translate(-68.78 -68.81)" gradientUnits="userSpaceOnUse">
      <stop offset=".16" stop-color="#008fbe" stop-opacity=".2"/>
      <stop offset=".76" stop-color="#a7eaea" stop-opacity=".8"/>
      <stop offset=".94" stop-color="#fff" stop-opacity=".8"/>
    </linearGradient>
    <linearGradient id="linear-gradient-2" y1="387.68" y2="387.68" xlink:href="#linear-gradient"/>
    <linearGradient id="linear-gradient-3" x1="215.11" y1="376.25" x2="317.35" y2="376.25" gradientTransform="translate(-68.78 -68.81)" gradientUnits="userSpaceOnUse">
      <stop offset="0" stop-color="#008fbe" stop-opacity=".2"/>
      <stop offset=".58" stop-color="#08062a" stop-opacity=".55"/>
      <stop offset="1" stop-color="#a7eaea" stop-opacity=".8"/>
    </linearGradient>
    <linearGradient id="linear-gradient-4" x1="232.18" y1="377.16" x2="244.92" y2="377.16" gradientTransform="translate(-68.78 -68.81)" gradientUnits="userSpaceOnUse">
      <stop offset="0" stop-color="#008fbe" stop-opacity=".8"/>
      <stop offset=".22" stop-color="#2ca7c9" stop-opacity=".8"/>
      <stop offset=".58" stop-color="#6ecbdb" stop-opacity=".8"/>
      <stop offset=".85" stop-color="#97e1e5" stop-opacity=".8"/>
      <stop offset="1" stop-color="#a7eaea" stop-opacity=".8"/>
    </linearGradient>
    <linearGradient id="linear-gradient-5" x1="237.97" y1="372.8" x2="252.42" y2="372.8" xlink:href="#linear-gradient-4"/>
    <linearGradient id="linear-gradient-6" x1="259.7" y1="386.42" x2="282.24" y2="386.42" xlink:href="#linear-gradient-4"/>
    <linearGradient id="linear-gradient-7" x1="245.47" y1="368.44" x2="259.93" y2="368.44" xlink:href="#linear-gradient-4"/>
    <linearGradient id="linear-gradient-8" x1="260.47" y1="360.22" x2="274.93" y2="360.22" xlink:href="#linear-gradient-4"/>
    <linearGradient id="linear-gradient-9" x1="252.97" y1="364.08" x2="267.43" y2="364.08" xlink:href="#linear-gradient-4"/>
    <linearGradient id="linear-gradient-10" x1="241.82" y1="379.05" x2="300.33" y2="379.05" xlink:href="#linear-gradient-4"/>
    <linearGradient id="linear-gradient-11" x1="215.11" y1="376.25" x2="317.35" y2="376.25" xlink:href="#linear-gradient-4"/>
    <linearGradient id="linear-gradient-12" x1="275.37" y1="375.44" x2="287.37" y2="375.44" xlink:href="#linear-gradient-4"/>
  </defs>
  <ellipse class="cls-9" cx="197.45" cy="313.14" rx="95.99" ry="55.74"/>
  <g>
    <path class="cls-10" d="M233.48,286.49c-20.03-11.57-52.4-11.56-72.3,0-19.9,11.56-19.8,30.31.24,41.88,20.03,11.56,52.4,11.56,72.3,0s19.79-30.31-.24-41.88"/>
    <path class="cls-14" d="M233.48,297.92c-20.03-11.57-52.4-11.56-72.3,0-19.9,11.56-19.8,30.31.24,41.88,20.03,11.56,52.4,11.56,72.3,0,19.9-11.56,19.79-30.31-.24-41.88"/>
    <path class="cls-8" d="M233.48,297.92c-20.03-11.57-52.4-11.56-72.3,0-19.9,11.56-19.8,30.31.24,41.88,20.03,11.56,52.4,11.56,72.3,0,19.9-11.56,19.79-30.31-.24-41.88"/>
    <path class="cls-7" d="M233.48,286.5c-20.03-11.57-52.4-11.56-72.3,0-19.9,11.56-19.8,30.31.24,41.88s52.4,11.56,72.3,0c19.9-11.56,19.79-30.31-.24-41.88"/>
    <g>
      <path class="cls-6" d="M172.15,312.53c1.04,0,2.05-.23,2.83-.68.78-.45,1.17-1.05,1.16-1.64,0-.6-.4-1.19-1.19-1.65l-7.61-4.39-2.75,1.6c-.8.46-1.2,1.07-1.19,1.69,0,.61.41,1.22,1.21,1.68l4.69,2.71c.79.45,1.81.68,2.85.68Z"/>
      <path class="cls-3" d="M179.65,308.17c1.03,0,2.05-.22,2.83-.68.77-.45,1.16-1.04,1.16-1.64,0-.6-.4-1.19-1.19-1.65l-7.61-4.39-2.83,1.64-2.83,1.64,7.61,4.39c.79.45,1.8.68,2.85.68Z"/>
      <path class="cls-4" d="M200.43,311.43c-.42-.24-.95-.36-1.5-.36-.55,0-1.09.11-1.5.35l-5.91,3.43c-.41.24-.61.55-.61.87,0,.32.2.63.62.87l13.04,7.53,8.89-5.17-13.04-7.53ZM206.21,318.28c-.78.45-2.07.45-2.85,0-.79-.46-.79-1.2,0-1.65.79-.46,2.06-.46,2.85,0,.79.45.8,1.19,0,1.65Z"/>
      <path class="cls-2" d="M187.15,303.81c1.03,0,2.05-.22,2.83-.68.77-.45,1.16-1.04,1.16-1.64,0-.6-.4-1.19-1.19-1.65l-7.61-4.39-2.83,1.64-2.84,1.65,7.61,4.39c.79.45,1.81.68,2.85.68Z"/>
      <path class="cls-1" d="M202.16,295.09c1.04,0,2.06-.23,2.83-.68.78-.45,1.17-1.05,1.16-1.64,0-.6-.4-1.2-1.18-1.65l-4.69-2.71c-.8-.46-1.86-.69-2.92-.69s-2.12.23-2.92.7l-2.75,1.6,7.61,4.39c.79.45,1.81.68,2.85.68Z"/>
      <path class="cls-5" d="M194.65,299.45c1.04,0,2.06-.23,2.84-.68.77-.45,1.16-1.04,1.16-1.64,0-.6-.4-1.19-1.19-1.65l-7.61-4.39-2.83,1.64-2.84,1.65,7.61,4.39c.79.45,1.81.68,2.85.68Z"/>
      <path class="cls-11" d="M231.55,307.45c0-.62-.4-1.22-1.21-1.69l-21.64-12.49c-.18.81-.8,1.59-1.87,2.21-1.54.89-3.65,1.25-5.65,1.08.3,1.16-.31,2.38-1.84,3.28-1.54.89-3.65,1.25-5.66,1.08.3,1.16-.31,2.39-1.84,3.28-1.54.89-3.65,1.25-5.66,1.08.3,1.16-.31,2.39-1.84,3.28-1.54.89-3.65,1.25-5.66,1.08.3,1.16-.31,2.39-1.85,3.28-1.07.62-2.41.98-3.79,1.09l21.63,12.49c.8.46,1.85.69,2.91.7,1.07,0,2.12-.23,2.92-.7l2.23-1.3-13.04-7.53c-1.85-1.07-1.85-2.81-.02-3.88l5.91-3.43c1.85-1.07,4.84-1.07,6.69,0l13.04,7.53,15.05-8.74c.8-.46,1.2-1.07,1.19-1.69ZM219.84,308.56l-3.88,2.25c-1.85,1.07-4.84,1.07-6.69,0l-3.9-2.25c-1.84-1.07-1.85-2.81-.02-3.88l3.88-2.25c1.85-1.07,4.84-1.07,6.7,0l3.9,2.25c1.84,1.07,1.85,2.81.02,3.88Z"/>
      <path class="cls-12" d="M233.48,286.5c-20.03-11.57-52.4-11.56-72.3,0s-19.8,30.31.24,41.88c20.03,11.56,52.4,11.56,72.3,0,19.9-11.56,19.79-30.31-.24-41.88ZM232.21,310.21l-29.86,17.35c-2.62,1.52-6.89,1.52-9.53,0l-30.06-17.35-.08-.04c-2.59-1.5-2.6-3.93-.02-5.43l3.75-2.18,3.75-2.18,3.75-2.18,3.75-2.18,3.75-2.18,3.76-2.18,3.75-2.18,3.75-2.18c2.58-1.5,6.78-1.5,9.37,0l4.76,2.75,25.37,14.65c2.62,1.52,2.64,4,.02,5.52Z"/>
      <path class="cls-13" d="M218.59,306.62c0-.32-.21-.63-.62-.87l-3.9-2.25c-.42-.24-.95-.36-1.5-.36-.55,0-1.09.12-1.5.35l-3.88,2.25c-.41.24-.61.55-.61.87,0,.32.2.63.62.87l3.9,2.25c.41.24.96.35,1.5.35.55,0,1.08-.12,1.49-.36l3.88-2.25c.41-.24.61-.55.61-.87Z"/>
    </g>
  </g>
</svg>