<?xml version="1.0" encoding="UTF-8"?>
<svg id="Layer_1" xmlns="http://www.w3.org/2000/svg" xmlns:xlink="http://www.w3.org/1999/xlink" viewBox="0 0 1179.11 424.66">
  <defs>
    <style>
      .cls-1 {
        fill: url(#linear-gradient-8);
      }

      .cls-2 {
        fill: url(#linear-gradient-7);
      }

      .cls-3 {
        fill: url(#linear-gradient-5);
      }

      .cls-4 {
        fill: url(#linear-gradient-6);
      }

      .cls-5 {
        fill: url(#linear-gradient-9);
      }

      .cls-6 {
        fill: url(#linear-gradient-4);
      }

      .cls-7 {
        fill: url(#linear-gradient-3);
      }

      .cls-8 {
        fill: url(#linear-gradient-2);
      }

      .cls-9 {
        fill: url(#radial-gradient);
      }

      .cls-10 {
        fill: url(#linear-gradient);
      }

      .cls-11 {
        fill: url(#linear-gradient-10);
      }

      .cls-12 {
        fill: url(#linear-gradient-11);
      }

      .cls-13 {
        fill: url(#linear-gradient-12);
      }

      .cls-14 {
        fill: #08062a;
      }
    </style>
    <radialGradient id="radial-gradient" cx="2166.33" cy="-186.05" fx="2166.33" fy="-186.05" r="54.75" gradientTransform="translate(-2566.18 408.91) scale(1.48 1)" gradientUnits="userSpaceOnUse">
      <stop offset="0" stop-color="#008fbe" stop-opacity=".8"/>
      <stop offset=".3" stop-color="#3bafcd" stop-opacity=".51"/>
      <stop offset=".62" stop-color="#75cedc" stop-opacity=".24"/>
      <stop offset=".87" stop-color="#99e2e6" stop-opacity=".06"/>
      <stop offset="1" stop-color="#a7eaea" stop-opacity="0"/>
    </radialGradient>
    <linearGradient id="linear-gradient" x1="662.22" y1="286.27" x2="764.46" y2="286.27" gradientTransform="translate(-68.78 -68.81)" gradientUnits="userSpaceOnUse">
      <stop offset=".16" stop-color="#008fbe" stop-opacity=".2"/>
      <stop offset=".76" stop-color="#a7eaea" stop-opacity=".8"/>
      <stop offset=".94" stop-color="#fff" stop-opacity=".8"/>
    </linearGradient>
    <linearGradient id="linear-gradient-2" y1="297.71" y2="297.71" xlink:href="#linear-gradient"/>
    <linearGradient id="linear-gradient-3" x1="662.22" y1="286.29" x2="764.46" y2="286.29" gradientTransform="translate(-68.78 -68.81)" gradientUnits="userSpaceOnUse">
      <stop offset="0" stop-color="#008fbe" stop-opacity=".2"/>
      <stop offset=".58" stop-color="#08062a" stop-opacity=".55"/>
      <stop offset="1" stop-color="#a7eaea" stop-opacity=".8"/>
    </linearGradient>
    <linearGradient id="linear-gradient-4" x1="698.28" y1="279.03" x2="703.07" y2="279.03" gradientTransform="translate(-68.78 -68.81)" gradientUnits="userSpaceOnUse">
      <stop offset="0" stop-color="#008fbe" stop-opacity=".8"/>
      <stop offset=".22" stop-color="#2ca7c9" stop-opacity=".8"/>
      <stop offset=".58" stop-color="#6ecbdb" stop-opacity=".8"/>
      <stop offset=".85" stop-color="#97e1e5" stop-opacity=".8"/>
      <stop offset="1" stop-color="#a7eaea" stop-opacity=".8"/>
    </linearGradient>
    <linearGradient id="linear-gradient-5" x1="698.89" y1="285.25" x2="724.02" y2="285.25" xlink:href="#linear-gradient-4"/>
    <linearGradient id="linear-gradient-6" x1="712.04" y1="290.02" x2="727.36" y2="290.02" xlink:href="#linear-gradient-4"/>
    <linearGradient id="linear-gradient-7" x1="685.66" y1="280.57" x2="721.05" y2="280.57" xlink:href="#linear-gradient-4"/>
    <linearGradient id="linear-gradient-8" x1="718.75" y1="280.5" x2="731.45" y2="280.5" xlink:href="#linear-gradient-4"/>
    <linearGradient id="linear-gradient-9" x1="708.09" y1="293.99" x2="745.1" y2="293.99" xlink:href="#linear-gradient-4"/>
    <linearGradient id="linear-gradient-10" x1="662.22" y1="286.29" x2="764.46" y2="286.29" xlink:href="#linear-gradient-4"/>
    <linearGradient id="linear-gradient-11" x1="705.28" y1="292.07" x2="741.22" y2="292.07" xlink:href="#linear-gradient-4"/>
    <linearGradient id="linear-gradient-12" x1="693.57" y1="293.17" x2="713.03" y2="293.17" xlink:href="#linear-gradient-4"/>
  </defs>
  <ellipse class="cls-9" cx="644.56" cy="223.18" rx="95.99" ry="55.74"/>
  <g>
    <path class="cls-10" d="M680.59,196.52c-20.03-11.57-52.4-11.56-72.3,0-19.9,11.56-19.8,30.31.24,41.88,20.03,11.56,52.4,11.56,72.3,0,19.9-11.56,19.79-30.31-.24-41.88"/>
    <path class="cls-14" d="M680.59,207.96c-20.03-11.57-52.4-11.56-72.3,0-19.9,11.56-19.8,30.31.24,41.88s52.4,11.56,72.3,0c19.9-11.56,19.79-30.31-.24-41.88"/>
    <path class="cls-8" d="M680.59,207.96c-20.03-11.57-52.4-11.56-72.3,0-19.9,11.56-19.8,30.31.24,41.88s52.4,11.56,72.3,0c19.9-11.56,19.79-30.31-.24-41.88"/>
    <path class="cls-7" d="M680.59,196.54c-20.03-11.57-52.4-11.56-72.3,0-19.9,11.56-19.8,30.31.24,41.88,20.03,11.56,52.4,11.56,72.3,0,19.9-11.56,19.79-30.31-.24-41.88"/>
    <g>
      <path class="cls-6" d="M631.92,210.46l.4-.23,1.97-1.15-.45-.26s-.1.04-.15.07c-.57.24-1.36.63-2.18,1.11-.56.33-1.07.65-1.46.93-.22.16-.41.3-.55.42l.45.26,1.97-1.15Z"/>
      <path class="cls-3" d="M641.01,223.72c3.3-1.92,6.94-4,7.15-4.12.2-.12,3.78-2.23,7.08-4.15l-7.15-6.3-17.98,10.45,10.91,4.12ZM642.19,213.61l2.02-1.17,3.32,4.09c.09.11.07.24-.09.34l-1.98,1.15c.11-.09.15-.21.06-.31l-3.33-4.09h0ZM642.03,215.9c.15-.08.36-.1.53-.06l1.52.41,1.22,1.5.04.07c.03.08-.02.18-.13.24h0c-.15.08-.35.1-.52.06l-1.52-.41-1.22-1.5-.04-.07c-.03-.08.01-.18.13-.24ZM641.81,215.93c-.15.09-.18.22-.09.32l3.33,4.1-2.02,1.17-3.33-4.1c-.08-.11-.06-.24.1-.33l2-1.16Z"/>
      <path class="cls-4" d="M652.36,222.03c.13-.08.2-.12.2-.12,1-.59,3.72-2.17,6.02-3.5l-1.89-1.65c-1.48.86-3,1.75-4.21,2.46-1.45.85-2.45,1.45-2.45,1.45h-.02s-1.03.6-2.51,1.44c-1.23.71-2.76,1.59-4.24,2.45l2.87,1.08c2.3-1.33,5.03-2.92,6.04-3.5,0,0,.07-.04.2-.11Z"/>
      <path class="cls-2" d="M652.27,204.57c-.45-.75-.68-1.4-.84-1.85-.16-.41-.29-.83-.38-1.23l-13.99,8.13-2.89,1.68-.4.23-2.89,1.68-13.99,8.13c.69.05,1.4.13,2.12.22.8.09,1.93.22,3.22.48l30.05-17.46Z"/>
      <path class="cls-1" d="M649.98,208.05l10.5,9.26c.91-.53,1.55-.9,1.7-.98.11-.06.2-.12.29-.17.09-.05.16-.09.21-.13-.03-.04-.06-.08-.1-.13-.07-.09-.16-.2-.27-.33-.01-.01-.02-.02-.04-.04-.62-.65-2.37-2.48-4.22-4.44-1.74-1.85-3.57-3.83-4.64-5.04l-3.44,2Z"/>
      <path class="cls-5" d="M672.69,215.77c-1.05.61-15.54,9.03-15.54,9.03,0,0-.9.52-2.28,1.32-1.37.8-3.22,1.87-5.09,2.96-3.75,2.18-7.64,4.44-8.16,4.74-.55.32-1.14.6-1.75.84-.19.07-.38.14-.57.2l1.84,1.06c.12-.01.32-.05.55-.12.55-.16,1.28-.48,1.9-.84,1.05-.61,15.53-9.03,15.53-9.03,0,0,.91-.53,2.28-1.33,1.37-.8,3.22-1.87,5.09-2.96,3.75-2.18,7.64-4.44,8.16-4.74.39-.23.74-.47,1.01-.7.28-.23.48-.45.58-.6.03-.05.05-.09.06-.12l-1.84-1.06c-.45.47-1.08.92-1.79,1.34Z"/>
      <path class="cls-11" d="M680.59,196.54c-20.03-11.57-52.4-11.56-72.3,0s-19.8,30.31.24,41.88c20.03,11.56,52.4,11.56,72.3,0,19.9-11.56,19.79-30.31-.24-41.88ZM678.92,215.66c-.07.3-.25.56-.47.83-.45.52-1.13,1.03-1.92,1.49-1.05.61-15.54,9.03-15.54,9.03,0,0-.9.52-2.28,1.32-1.37.8-3.22,1.87-5.09,2.96-3.75,2.18-7.64,4.44-8.16,4.74-.52.3-1.07.57-1.64.8-.58.23-1.16.41-1.79.52-.41.07-.86.12-1.37.07-.2-.02-.41-.05-.61-.11-.17-.04-.34-.09-.47-.17l-4.05-2.34c-.11-.06-.2-.14-.26-.22-.19-.19-.29-.4-.33-.61-.54-2.46-1.02-4.59-1.02-4.59v-.14c0-.1.11-.78,1.08-1.7-.86-.27-1.77-.56-2.7-.85-3.38-1.06-6.99-2.18-8.98-2.75-.57-.17-1-.28-1.21-.33-1.4-.33-2.61-.47-3.58-.58-.92-.11-1.8-.2-2.52-.23-.72-.04-1.28-.01-1.46.03l-.07.02-1.87,1.09s-.02,0-.02.01c-.01,0-.03.01-.04.02,0,0-.01.01-.02.02-.08.05-.17.09-.27.12-.02,0-.03.01-.05.02,0,0,0,0,0,0-.18.05-.38.08-.58.08-.05,0-.09,0-.14,0-.02,0-.04,0-.05,0h0c-.22-.02-.44-.07-.62-.15-.01,0-.02,0-.03-.02,0,0-.02,0-.03-.01-.02-.01-.04-.02-.06-.03l-.08-.05c-.38-.22-.49-.55-.28-.83.08-.11.2-.21.36-.29,0,0,0,0,0,0l17.46-10.15-1.03-.59s-.02,0-.03-.01c-.21-.12-.32-.27-.36-.4-.05-.12-.05-.22-.03-.31.03-.17.11-.27.19-.38.16-.21.37-.4.64-.62.53-.42,1.27-.93,2.17-1.44,1.11-.65,2.15-1.15,2.98-1.46.29-.1.55-.18.9-.25.2-.03.44-.07.86-.03.21.02.48.09.68.21h.02s1.03.61,1.03.61l17.62-10.24s.01,0,.02-.01c.13-.09.29-.16.49-.2.48-.12,1.04-.05,1.42.17l.03.02s.04.02.05.03c.12.07.22.15.28.25,0,.01.02.02.02.03,0,0,0,0,0,0,0,0,.01.02.02.03.04.08.06.16.05.25,0,.01,0,.02,0,.03,0,0,0,0,0,.01,0,.02,0,.04-.01.05,0,0,0,0,0,0-.02.06-.04.11-.08.16-.01.02-.02.03-.04.05,0,0,0,0,0,0-.01.02-.03.03-.04.05,0,0,0,0,0,0-.01.01-.03.03-.04.04,0,0,0,0-.01.01-.01.01-.03.02-.05.04,0,0-.01,0-.02.01-.01,0-.02.01-.03.02,0,0-.02.01-.03.02,0,0,0,0,0,0,0,0-.01,0-.02.01-.01,0-.03.02-.04.02,0,0-.01,0-.02.01l-2.02,1.18h0s-.06.12-.06.12c-.04.12-.06.31-.05.54.03.46.21,1.07.44,1.68.21.56.46,1.27,1.02,2.08,0,0,.01.02.02.02.09.13.29.37.56.68.26.31.59.68.98,1.11.03.03.05.06.08.08.83.92,1.87,2.04,2.92,3.16.76.81,1.53,1.63,2.24,2.37,1.65-.58,2.87-.61,3.07-.61h.14s3.69.28,7.93.58c.34.03.69.08,1.01.18.16.04.3.09.42.16l.1.06,3.95,2.28c.13.08.23.17.3.27.1.12.16.24.19.36.05.17.04.32,0,.47Z"/>
      <path class="cls-12" d="M636.51,229.3c.04.19.14.65.28,1.27.18.82.42,1.92.69,3.12.09-.02.19-.04.3-.07.52-.14,1.23-.44,1.86-.79.04-.02.08-.05.12-.07,1.05-.61,15.53-9.03,15.53-9.03,0,0,.91-.53,2.28-1.33,1.37-.8,3.22-1.87,5.09-2.96,3.75-2.18,7.64-4.44,8.16-4.74.46-.27.88-.56,1.17-.83.22-.19.37-.38.44-.5-2.06-.15-3.97-.29-5.38-.39-1.15-.08-1.96-.14-2.25-.16h-.02c-.1,0-.26.03-.48.07-.29.05-.68.15-1.16.32.52.57,1.05,1.17,1.45,1.64.29.31.42.43.56.63.04.07.09.15.12.21.03.09.05.16.06.23.03.16.01.32-.05.47-.06.15-.17.27-.28.37-.22.2-.46.34-.68.47-.1.06-.2.11-.29.17-.18.11-1.35.79-2.82,1.64-2.42,1.4-5.67,3.29-6.78,3.94,0,0-.07.04-.2.12-.13.07-.2.11-.2.11-1.11.65-4.37,2.54-6.78,3.94-1.47.86-2.63,1.53-2.82,1.64-.1.06-.19.11-.29.17-.17.1-.34.2-.57.3-.22.1-.5.2-.88.26-.25.04-.53.05-.81.03-.03,0-.05,0-.08,0-.1,0-.19-.01-.32-.03-.15-.02-.34-.06-.49-.09-.3-.08-.52-.16-1.03-.32-.16-.05-.35-.11-.59-.19-.66-.2-1.39-.43-2.09-.65-.56.52-.72.89-.76,1.02Z"/>
      <path class="cls-13" d="M637.52,226.63s.02,0,.02,0c1.38.44,2.54.81,3.26,1.03.31.09.59.17.83.24.15.04.3.08.41.11.06-.03.14-.07.22-.12.09-.05.18-.11.29-.17.14-.09.78-.46,1.69-.99l-3.76-1.42s-.02,0-.02,0l-12.23-4.62-3.44,2c.51.15,1.1.33,1.76.53,1.6.48,3.54,1.08,5.5,1.69,1.91.59,3.83,1.2,5.44,1.71.01,0,.02,0,.03.01Z"/>
    </g>
  </g>
</svg>