<?xml version="1.0" encoding="UTF-8"?>
<svg id="Layer_1" xmlns="http://www.w3.org/2000/svg" viewBox="0 0 1179.11 424.66">
  <defs>
    <style>
      .cls-1 {
        fill: #08062a;
      }
    </style>
  </defs>
  <path class="cls-1" d="M945.11,249.81c-.04-7.58-5.07-15.16-15.09-20.95-20.03-11.57-52.4-11.56-72.3,0-9.95,5.78-14.9,13.36-14.86,20.94,0,1.89.33,3.77.96,5.63-3.16,9.37,1.55,19.47,14.13,26.74,20.03,11.56,52.4,11.56,72.3,0,12.42-7.22,17.05-17.24,13.9-26.56.64-1.9.96-3.82.96-5.75,0-.02,0-.03,0-.05,0,0,0,0,0,0Z"/>
  <path class="cls-1" d="M544.69,251.16c-.04-7.58-5.07-15.16-15.09-20.95-20.03-11.57-52.4-11.56-72.3,0-9.95,5.78-14.9,13.36-14.86,20.94,0,1.89.33,3.77.96,5.63-3.16,9.37,1.55,19.47,14.13,26.74,20.03,11.56,52.4,11.56,72.3,0,12.42-7.22,17.05-17.24,13.9-26.56.64-1.9.96-3.82.96-5.75,0-.02,0-.03,0-.05,0,0,0,0,0,0Z"/>
  <path class="cls-1" d="M244.02,305.55c-.04-7.58-5.07-15.16-15.09-20.95-20.03-11.57-52.4-11.56-72.3,0-9.95,5.78-14.9,13.36-14.86,20.94,0,0,0,0,0,0,0,.47.02.95.07,1.42.12,1.41.42,2.81.89,4.2-3.16,9.37,1.55,19.47,14.13,26.74,20.03,11.56,52.4,11.56,72.3,0,12.42-7.22,17.05-17.24,13.9-26.56.65-1.92.97-3.86.96-5.81Z"/>
</svg>