<?xml version="1.0" encoding="UTF-8"?>
<svg id="Layer_1" xmlns="http://www.w3.org/2000/svg" xmlns:xlink="http://www.w3.org/1999/xlink" viewBox="0 0 1179.11 424.66">
  <defs>
    <style>
      .cls-1 {
        fill: url(#radial-gradient-6);
      }

      .cls-2 {
        fill: url(#radial-gradient-5);
      }

      .cls-3 {
        fill: url(#radial-gradient-4);
      }

      .cls-4 {
        fill: url(#radial-gradient-3);
      }

      .cls-5 {
        fill: url(#radial-gradient-2);
      }

      .cls-6 {
        fill: url(#linear-gradient-8);
      }

      .cls-7 {
        fill: url(#linear-gradient-7);
      }

      .cls-8 {
        fill: url(#linear-gradient-5);
      }

      .cls-9 {
        fill: url(#linear-gradient-6);
      }

      .cls-10 {
        fill: url(#linear-gradient-9);
      }

      .cls-11 {
        fill: url(#linear-gradient-4);
      }

      .cls-12 {
        fill: url(#linear-gradient-3);
      }

      .cls-13 {
        fill: url(#linear-gradient-2);
      }

      .cls-14 {
        fill: url(#radial-gradient);
      }

      .cls-15 {
        fill: url(#linear-gradient);
      }

      .cls-16 {
        fill: #08062a;
      }

      .cls-17 {
        fill: url(#linear-gradient-43);
      }

      .cls-18 {
        fill: url(#linear-gradient-40);
      }

      .cls-19 {
        fill: url(#linear-gradient-41);
      }

      .cls-20 {
        fill: url(#linear-gradient-42);
      }

      .cls-21 {
        fill: url(#linear-gradient-49);
      }

      .cls-22 {
        fill: url(#linear-gradient-48);
      }

      .cls-23 {
        fill: url(#linear-gradient-45);
      }

      .cls-24 {
        fill: url(#linear-gradient-47);
      }

      .cls-25 {
        fill: url(#linear-gradient-44);
      }

      .cls-26 {
        fill: url(#linear-gradient-46);
      }

      .cls-27 {
        fill: url(#linear-gradient-10);
      }

      .cls-28 {
        fill: url(#linear-gradient-11);
      }

      .cls-29 {
        fill: url(#linear-gradient-12);
      }

      .cls-30 {
        fill: url(#linear-gradient-13);
      }

      .cls-31 {
        fill: url(#linear-gradient-19);
      }

      .cls-32 {
        fill: url(#linear-gradient-14);
      }

      .cls-33 {
        fill: url(#linear-gradient-21);
      }

      .cls-34 {
        fill: url(#linear-gradient-20);
      }

      .cls-35 {
        fill: url(#linear-gradient-22);
      }

      .cls-36 {
        fill: url(#linear-gradient-23);
      }

      .cls-37 {
        fill: url(#linear-gradient-28);
      }

      .cls-38 {
        fill: url(#linear-gradient-25);
      }

      .cls-39 {
        fill: url(#linear-gradient-32);
      }

      .cls-40 {
        fill: url(#linear-gradient-31);
      }

      .cls-41 {
        fill: url(#linear-gradient-33);
      }

      .cls-42 {
        fill: url(#linear-gradient-30);
      }

      .cls-43 {
        fill: url(#linear-gradient-15);
      }

      .cls-44 {
        fill: url(#linear-gradient-16);
      }

      .cls-45 {
        fill: url(#linear-gradient-17);
      }

      .cls-46 {
        fill: url(#linear-gradient-18);
      }

      .cls-47 {
        fill: url(#linear-gradient-35);
      }

      .cls-48 {
        fill: url(#linear-gradient-34);
      }

      .cls-49 {
        fill: url(#linear-gradient-36);
      }

      .cls-50 {
        fill: url(#linear-gradient-38);
      }

      .cls-51 {
        fill: url(#linear-gradient-27);
      }

      .cls-52 {
        fill: url(#linear-gradient-24);
      }

      .cls-53 {
        fill: url(#linear-gradient-26);
      }

      .cls-54 {
        fill: url(#linear-gradient-29);
      }

      .cls-55 {
        fill: url(#linear-gradient-37);
      }

      .cls-56 {
        fill: url(#linear-gradient-39);
      }

      .cls-57 {
        fill: url(#linear-gradient-57);
      }

      .cls-58 {
        fill: url(#linear-gradient-58);
      }

      .cls-59 {
        fill: url(#linear-gradient-59);
      }

      .cls-60 {
        fill: url(#linear-gradient-53);
      }

      .cls-61 {
        fill: url(#linear-gradient-54);
      }

      .cls-62 {
        fill: url(#linear-gradient-55);
      }

      .cls-63 {
        fill: url(#linear-gradient-56);
      }

      .cls-64 {
        fill: url(#linear-gradient-50);
      }

      .cls-65 {
        fill: url(#linear-gradient-51);
      }

      .cls-66 {
        fill: url(#linear-gradient-52);
      }

      .cls-67 {
        fill: url(#linear-gradient-67);
      }

      .cls-68 {
        fill: url(#linear-gradient-63);
      }

      .cls-69 {
        fill: url(#linear-gradient-64);
      }

      .cls-70 {
        fill: url(#linear-gradient-65);
      }

      .cls-71 {
        fill: url(#linear-gradient-66);
      }

      .cls-72 {
        fill: url(#linear-gradient-60);
      }

      .cls-73 {
        fill: url(#linear-gradient-61);
      }

      .cls-74 {
        fill: url(#linear-gradient-62);
      }

      .cls-75 {
        fill: #08062a;
      }
    </style>
    <radialGradient id="radial-gradient" cx="1864.54" cy="-96.08" fx="1864.54" fy="-96.08" r="54.75" gradientTransform="translate(-2566.18 408.91) scale(1.48 1)" gradientUnits="userSpaceOnUse">
      <stop offset="0" stop-color="#008fbe" stop-opacity=".8"/>
      <stop offset=".3" stop-color="#3bafcd" stop-opacity=".51"/>
      <stop offset=".62" stop-color="#75cedc" stop-opacity=".24"/>
      <stop offset=".87" stop-color="#99e2e6" stop-opacity=".06"/>
      <stop offset="1" stop-color="#a7eaea" stop-opacity="0"/>
    </radialGradient>
    <radialGradient id="radial-gradient-2" cx="1966.71" cy="-181.57" fx="1966.71" fy="-181.57" r="54.75" xlink:href="#radial-gradient"/>
    <radialGradient id="radial-gradient-3" cx="2062.27" cy="-97.58" fx="2062.27" fy="-97.58" r="54.75" xlink:href="#radial-gradient"/>
    <radialGradient id="radial-gradient-4" cx="2311.01" cy="-177.34" fx="2311.01" fy="-177.34" r="54.75" xlink:href="#radial-gradient"/>
    <radialGradient id="radial-gradient-5" cx="2404.69" cy="-92.95" fx="2404.69" fy="-92.95" r="54.75" xlink:href="#radial-gradient"/>
    <linearGradient id="linear-gradient" x1="-.38" y1="296.11" x2="1179.5" y2="296.11" gradientUnits="userSpaceOnUse">
      <stop offset=".16" stop-color="#008fbe" stop-opacity=".2"/>
      <stop offset=".76" stop-color="#a7eaea" stop-opacity=".8"/>
      <stop offset=".94" stop-color="#fff" stop-opacity=".8"/>
    </linearGradient>
    <radialGradient id="radial-gradient-6" cx="2166.33" cy="-186.05" fx="2166.33" fy="-186.05" xlink:href="#radial-gradient"/>
    <linearGradient id="linear-gradient-2" x1="662.22" y1="286.27" x2="764.46" y2="286.27" gradientTransform="translate(-68.78 -68.81)" xlink:href="#linear-gradient"/>
    <linearGradient id="linear-gradient-3" x1="662.22" y1="297.71" x2="764.46" y2="297.71" gradientTransform="translate(-68.78 -68.81)" xlink:href="#linear-gradient"/>
    <linearGradient id="linear-gradient-4" x1="662.22" y1="286.29" x2="764.46" y2="286.29" gradientTransform="translate(-68.78 -68.81)" gradientUnits="userSpaceOnUse">
      <stop offset="0" stop-color="#008fbe" stop-opacity=".2"/>
      <stop offset=".58" stop-color="#08062a" stop-opacity=".55"/>
      <stop offset="1" stop-color="#a7eaea" stop-opacity=".8"/>
    </linearGradient>
    <linearGradient id="linear-gradient-5" x1="698.28" y1="279.03" x2="703.07" y2="279.03" gradientTransform="translate(-68.78 -68.81)" gradientUnits="userSpaceOnUse">
      <stop offset="0" stop-color="#008fbe" stop-opacity=".8"/>
      <stop offset=".22" stop-color="#2ca7c9" stop-opacity=".8"/>
      <stop offset=".58" stop-color="#6ecbdb" stop-opacity=".8"/>
      <stop offset=".85" stop-color="#97e1e5" stop-opacity=".8"/>
      <stop offset="1" stop-color="#a7eaea" stop-opacity=".8"/>
    </linearGradient>
    <linearGradient id="linear-gradient-6" x1="698.89" y1="285.25" x2="724.02" y2="285.25" xlink:href="#linear-gradient-5"/>
    <linearGradient id="linear-gradient-7" x1="712.04" y1="290.02" x2="727.36" y2="290.02" xlink:href="#linear-gradient-5"/>
    <linearGradient id="linear-gradient-8" x1="685.66" y1="280.57" x2="721.05" y2="280.57" xlink:href="#linear-gradient-5"/>
    <linearGradient id="linear-gradient-9" x1="718.75" y1="280.5" x2="731.45" y2="280.5" xlink:href="#linear-gradient-5"/>
    <linearGradient id="linear-gradient-10" x1="708.09" y1="293.99" x2="745.1" y2="293.99" xlink:href="#linear-gradient-5"/>
    <linearGradient id="linear-gradient-11" x1="662.22" y1="286.29" x2="764.46" y2="286.29" xlink:href="#linear-gradient-5"/>
    <linearGradient id="linear-gradient-12" x1="705.28" y1="292.07" x2="741.22" y2="292.07" xlink:href="#linear-gradient-5"/>
    <linearGradient id="linear-gradient-13" x1="693.57" y1="293.17" x2="713.03" y2="293.17" xlink:href="#linear-gradient-5"/>
    <linearGradient id="linear-gradient-14" x1="876.56" y1="294.98" x2="978.8" y2="294.98" gradientTransform="translate(-68.78 -68.81)" xlink:href="#linear-gradient"/>
    <linearGradient id="linear-gradient-15" x1="876.56" y1="306.42" x2="978.8" y2="306.42" gradientTransform="translate(-68.78 -68.81)" xlink:href="#linear-gradient"/>
    <linearGradient id="linear-gradient-16" x1="876.56" y1="295" x2="978.8" y2="295" xlink:href="#linear-gradient-4"/>
    <linearGradient id="linear-gradient-17" x1="899.46" y1="289.94" x2="929.71" y2="289.94" xlink:href="#linear-gradient-5"/>
    <linearGradient id="linear-gradient-18" x1="894.45" y1="293.86" x2="924.91" y2="293.86" xlink:href="#linear-gradient-5"/>
    <linearGradient id="linear-gradient-19" x1="914.35" y1="288.8" x2="936.59" y2="288.8" xlink:href="#linear-gradient-5"/>
    <linearGradient id="linear-gradient-20" x1="938.22" y1="282.71" x2="952.94" y2="282.71" xlink:href="#linear-gradient-5"/>
    <linearGradient id="linear-gradient-21" x1="900.28" y1="304.86" x2="914.68" y2="304.86" xlink:href="#linear-gradient-5"/>
    <linearGradient id="linear-gradient-22" x1="918.36" y1="285.54" x2="943.03" y2="285.54" xlink:href="#linear-gradient-5"/>
    <linearGradient id="linear-gradient-23" x1="946.43" y1="298.53" x2="960.91" y2="298.53" xlink:href="#linear-gradient-5"/>
    <linearGradient id="linear-gradient-24" x1="876.56" y1="295" x2="978.8" y2="295" xlink:href="#linear-gradient-5"/>
    <linearGradient id="linear-gradient-25" x1="939.7" y1="301.91" x2="956.92" y2="301.91" xlink:href="#linear-gradient-5"/>
    <linearGradient id="linear-gradient-26" x1="924.82" y1="308.53" x2="943.91" y2="308.53" xlink:href="#linear-gradient-5"/>
    <linearGradient id="linear-gradient-27" x1="899.01" y1="295" x2="959.97" y2="295" xlink:href="#linear-gradient-5"/>
    <linearGradient id="linear-gradient-28" x1="934.96" y1="305.78" x2="946.96" y2="305.78" xlink:href="#linear-gradient-5"/>
    <linearGradient id="linear-gradient-29" x1="215.11" y1="376.24" x2="317.35" y2="376.24" gradientTransform="translate(-68.78 -68.81)" xlink:href="#linear-gradient"/>
    <linearGradient id="linear-gradient-30" x1="215.11" y1="387.68" x2="317.35" y2="387.68" gradientTransform="translate(-68.78 -68.81)" xlink:href="#linear-gradient"/>
    <linearGradient id="linear-gradient-31" x1="215.11" y1="376.25" x2="317.35" y2="376.25" xlink:href="#linear-gradient-4"/>
    <linearGradient id="linear-gradient-32" x1="232.18" y1="377.16" x2="244.92" y2="377.16" xlink:href="#linear-gradient-5"/>
    <linearGradient id="linear-gradient-33" x1="237.97" y1="372.8" x2="252.42" y2="372.8" xlink:href="#linear-gradient-5"/>
    <linearGradient id="linear-gradient-34" x1="259.7" y1="386.42" x2="282.24" y2="386.42" xlink:href="#linear-gradient-5"/>
    <linearGradient id="linear-gradient-35" x1="245.47" y1="368.44" x2="259.93" y2="368.44" xlink:href="#linear-gradient-5"/>
    <linearGradient id="linear-gradient-36" x1="260.47" y1="360.22" x2="274.93" y2="360.22" xlink:href="#linear-gradient-5"/>
    <linearGradient id="linear-gradient-37" x1="252.97" y1="364.08" x2="267.43" y2="364.08" xlink:href="#linear-gradient-5"/>
    <linearGradient id="linear-gradient-38" x1="241.82" y1="379.05" x2="300.33" y2="379.05" xlink:href="#linear-gradient-5"/>
    <linearGradient id="linear-gradient-39" x1="215.11" y1="376.25" x2="317.35" y2="376.25" xlink:href="#linear-gradient-5"/>
    <linearGradient id="linear-gradient-40" x1="275.37" y1="375.44" x2="287.37" y2="375.44" xlink:href="#linear-gradient-5"/>
    <linearGradient id="linear-gradient-41" x1="366.46" y1="290.75" x2="468.71" y2="290.75" gradientTransform="translate(-68.78 -68.81)" xlink:href="#linear-gradient"/>
    <linearGradient id="linear-gradient-42" x1="366.46" y1="302.19" x2="468.71" y2="302.19" gradientTransform="translate(-68.78 -68.81)" xlink:href="#linear-gradient"/>
    <linearGradient id="linear-gradient-43" x1="366.46" y1="290.76" x2="468.71" y2="290.76" xlink:href="#linear-gradient-4"/>
    <linearGradient id="linear-gradient-44" x1="366.46" y1="290.76" x2="468.71" y2="290.76" xlink:href="#linear-gradient-5"/>
    <linearGradient id="linear-gradient-45" x1="434.52" y1="304.81" x2="449.23" y2="304.81" xlink:href="#linear-gradient-5"/>
    <linearGradient id="linear-gradient-46" x1="385.95" y1="287.12" x2="436.54" y2="287.12" xlink:href="#linear-gradient-5"/>
    <linearGradient id="linear-gradient-47" x1="392.51" y1="287.12" x2="429.98" y2="287.12" xlink:href="#linear-gradient-5"/>
    <linearGradient id="linear-gradient-48" x1="508.05" y1="374.74" x2="610.29" y2="374.74" gradientTransform="translate(-68.78 -68.81)" xlink:href="#linear-gradient"/>
    <linearGradient id="linear-gradient-49" x1="508.05" y1="386.17" x2="610.29" y2="386.17" gradientTransform="translate(-68.78 -68.81)" xlink:href="#linear-gradient"/>
    <linearGradient id="linear-gradient-50" x1="508.05" y1="374.75" x2="610.29" y2="374.75" xlink:href="#linear-gradient-4"/>
    <linearGradient id="linear-gradient-51" x1="541.29" y1="366.68" x2="551.41" y2="366.68" xlink:href="#linear-gradient-5"/>
    <linearGradient id="linear-gradient-52" x1="541.06" y1="362.35" x2="547.9" y2="362.35" xlink:href="#linear-gradient-5"/>
    <linearGradient id="linear-gradient-53" x1="538.6" y1="380.31" x2="552.78" y2="380.31" xlink:href="#linear-gradient-5"/>
    <linearGradient id="linear-gradient-54" x1="549.41" y1="370.5" x2="578.48" y2="370.5" xlink:href="#linear-gradient-5"/>
    <linearGradient id="linear-gradient-55" x1="535.81" y1="358.92" x2="549.16" y2="358.92" xlink:href="#linear-gradient-5"/>
    <linearGradient id="linear-gradient-56" x1="550.92" y1="385.61" x2="575.96" y2="385.61" xlink:href="#linear-gradient-5"/>
    <linearGradient id="linear-gradient-57" x1="554.92" y1="381.2" x2="580.76" y2="381.2" xlink:href="#linear-gradient-5"/>
    <linearGradient id="linear-gradient-58" x1="508.05" y1="374.75" x2="610.29" y2="374.75" xlink:href="#linear-gradient-5"/>
    <linearGradient id="linear-gradient-59" x1="542.41" y1="383.85" x2="582.15" y2="383.85" xlink:href="#linear-gradient-5"/>
    <linearGradient id="linear-gradient-60" x1="547.25" y1="389.65" x2="571.57" y2="389.65" xlink:href="#linear-gradient-5"/>
    <linearGradient id="linear-gradient-61" x1="1015.35" y1="379.37" x2="1117.59" y2="379.37" gradientTransform="translate(-68.78 -68.81)" xlink:href="#linear-gradient"/>
    <linearGradient id="linear-gradient-62" x1="1015.35" y1="390.81" x2="1117.59" y2="390.81" gradientTransform="translate(-68.78 -68.81)" xlink:href="#linear-gradient"/>
    <linearGradient id="linear-gradient-63" x1="1015.35" y1="379.39" x2="1117.59" y2="379.39" xlink:href="#linear-gradient-4"/>
    <linearGradient id="linear-gradient-64" x1="1035.41" y1="390.77" x2="1066.56" y2="390.77" xlink:href="#linear-gradient-5"/>
    <linearGradient id="linear-gradient-65" x1="1063.48" y1="377.51" x2="1066.55" y2="377.51" xlink:href="#linear-gradient-5"/>
    <linearGradient id="linear-gradient-66" x1="1068.03" y1="372.67" x2="1097.54" y2="372.67" xlink:href="#linear-gradient-5"/>
    <linearGradient id="linear-gradient-67" x1="1015.35" y1="379.39" x2="1117.59" y2="379.39" xlink:href="#linear-gradient-5"/>
  </defs>
  <ellipse class="cls-14" cx="197.45" cy="313.14" rx="95.99" ry="55.74"/>
  <ellipse class="cls-5" cx="348.81" cy="227.65" rx="95.99" ry="55.74"/>
  <ellipse class="cls-4" cx="490.39" cy="311.64" rx="95.99" ry="55.74"/>
  <ellipse class="cls-3" cx="858.9" cy="231.89" rx="95.99" ry="55.74"/>
  <ellipse class="cls-2" cx="997.69" cy="316.28" rx="95.99" ry="55.74"/>
  <path class="cls-15" d="M4.62,432.59c38.74-22.27,77.48-44.53,116.21-66.8,61.75-35.49,123.51-70.99,185.26-106.48,14.19-8.15,28.37-16.31,42.56-24.46h-9.24c26.9,15.42,53.8,30.84,80.7,46.26,17.34,9.94,34.67,19.88,52.01,29.81,7,4.01,18.83,14.09,27.17,9.77,10.68-5.52,20.94-12.1,31.35-18.11,18.86-10.9,37.72-21.8,56.58-32.7,22.08-12.76,44.2-25.47,66.24-38.3,31.31-18.23,62.61-36.46,93.92-54.69.89-.52,1.79-1.04,2.68-1.56h-9.24c31.49,18.99,62.97,37.99,94.46,56.98,14.38,8.68,28.85,17.21,43.32,25.74,35.68,21.05,71.36,42.09,107.04,63.14,40.47,23.87,80.93,47.74,121.4,71.61,22.11,13.04,43.92,26.91,66.45,39.2.34.18.66.39.99.59,10.17,6,19.38-9.82,9.24-15.8-18.29-10.79-36.57-21.57-54.86-32.36-39.45-23.27-78.91-46.55-118.36-69.82-37.52-22.13-75.04-44.27-112.57-66.4-14.8-8.73-29.66-17.36-44.37-26.24-33.57-20.25-67.14-40.5-100.71-60.76-.93-.56-1.86-1.12-2.79-1.68-2.8-1.69-6.44-1.63-9.24,0-33.54,19.53-67.05,39.11-100.61,58.59-34.9,20.26-69.88,40.39-104.82,60.58-15.26,8.82-30.52,17.64-45.78,26.46h9.24c-35.76-20.5-71.52-41-107.28-61.5-14.11-8.09-28.02-16.91-42.48-24.35-7.63-3.93-16.6,3.73-23.09,7.46-36.06,20.73-72.12,41.45-108.17,62.18-46.91,26.96-93.81,53.92-140.72,80.88-26.8,15.4-54.16,30.11-80.51,46.27-.4.24-.81.46-1.21.7-10.21,5.87-1,21.69,9.24,15.8h0Z"/>
  <path class="cls-16" d="M910.02,226.18c-.04-7.58-5.07-15.16-15.09-20.95-20.03-11.57-52.4-11.56-72.3,0-9.95,5.78-14.9,13.36-14.86,20.94,0,1.89.33,3.77.96,5.63-3.16,9.37,1.55,19.47,14.13,26.74,20.03,11.56,52.4,11.56,72.3,0,12.42-7.22,17.05-17.24,13.9-26.56.64-1.9.96-3.82.96-5.75,0-.02,0-.03,0-.05,0,0,0,0,0,0Z"/>
  <path class="cls-16" d="M541.51,305.93c-.04-7.58-5.07-15.16-15.09-20.95-20.03-11.57-52.4-11.56-72.3,0-9.95,5.78-14.9,13.36-14.86,20.94,0,1.89.33,3.77.96,5.63-3.16,9.37,1.55,19.47,14.13,26.74,20.03,11.56,52.4,11.56,72.3,0,12.42-7.22,17.05-17.24,13.9-26.56.64-1.9.96-3.82.96-5.75,0-.02,0-.03,0-.05,0,0,0,0,0,0Z"/>
  <ellipse class="cls-1" cx="644.56" cy="223.18" rx="95.99" ry="55.74"/>
  <path class="cls-16" d="M695.68,217.47c-.04-7.58-5.07-15.16-15.09-20.95-20.03-11.57-52.4-11.56-72.3,0-9.95,5.78-14.9,13.36-14.86,20.94,0,1.89.33,3.77.96,5.63-3.16,9.37,1.55,19.47,14.13,26.74,20.03,11.56,52.4,11.56,72.3,0,12.42-7.22,17.05-17.24,13.9-26.56.64-1.9.96-3.82.96-5.75,0-.02,0-.03,0-.05,0,0,0,0,0,0Z"/>
  <path class="cls-16" d="M1048.82,310.57c-.04-7.58-5.07-15.16-15.09-20.95-20.03-11.57-52.4-11.56-72.3,0-9.95,5.78-14.9,13.36-14.86,20.94,0,1.89.33,3.77.96,5.63-3.16,9.37,1.55,19.47,14.13,26.74,20.03,11.56,52.4,11.56,72.3,0,12.42-7.22,17.05-17.24,13.9-26.56.65-1.92.97-3.86.96-5.81Z"/>
  <path class="cls-16" d="M248.57,307.43c-.04-7.58-5.07-15.16-15.09-20.95-20.03-11.57-52.4-11.56-72.3,0-9.95,5.78-14.9,13.36-14.86,20.94,0,0,0,0,0,0,0,.47.02.95.07,1.42.12,1.41.42,2.81.89,4.2-3.16,9.37,1.55,19.47,14.13,26.74,20.03,11.56,52.4,11.56,72.3,0,12.42-7.22,17.05-17.24,13.9-26.56.65-1.92.97-3.86.96-5.81Z"/>
  <path class="cls-16" d="M399.93,221.94c-.04-7.58-5.07-15.16-15.09-20.95-20.03-11.57-52.4-11.56-72.3,0-9.95,5.78-14.9,13.36-14.86,20.94,0,0,0,0,0,0,.01,1.88.33,3.77.96,5.62-3.16,9.37,1.55,19.47,14.13,26.74,20.03,11.56,52.4,11.56,72.3,0,12.42-7.22,17.05-17.24,13.9-26.56.65-1.92.97-3.86.96-5.81Z"/>
  <g>
    <path class="cls-13" d="M680.59,196.52c-20.03-11.57-52.4-11.56-72.3,0-19.9,11.56-19.8,30.31.24,41.88,20.03,11.56,52.4,11.56,72.3,0,19.9-11.56,19.79-30.31-.24-41.88"/>
    <path class="cls-75" d="M680.59,207.96c-20.03-11.57-52.4-11.56-72.3,0-19.9,11.56-19.8,30.31.24,41.88,20.03,11.56,52.4,11.56,72.3,0,19.9-11.56,19.79-30.31-.24-41.88"/>
    <path class="cls-12" d="M680.59,207.96c-20.03-11.57-52.4-11.56-72.3,0-19.9,11.56-19.8,30.31.24,41.88,20.03,11.56,52.4,11.56,72.3,0,19.9-11.56,19.79-30.31-.24-41.88"/>
    <path class="cls-11" d="M680.59,196.54c-20.03-11.57-52.4-11.56-72.3,0-19.9,11.56-19.8,30.31.24,41.88,20.03,11.56,52.4,11.56,72.3,0,19.9-11.56,19.79-30.31-.24-41.88"/>
    <g>
      <path class="cls-8" d="M631.92,210.46l.4-.23,1.97-1.15-.45-.26s-.1.04-.15.07c-.57.24-1.36.63-2.18,1.11-.56.33-1.07.65-1.46.93-.22.16-.41.3-.55.42l.45.26,1.97-1.15Z"/>
      <path class="cls-9" d="M641.01,223.72c3.3-1.92,6.94-4,7.15-4.12.2-.12,3.78-2.23,7.08-4.15l-7.15-6.3-17.98,10.45,10.91,4.12ZM642.19,213.61l2.02-1.17,3.32,4.09c.09.11.07.24-.09.34l-1.98,1.15c.11-.09.15-.21.06-.31l-3.33-4.09h0ZM642.03,215.9c.15-.08.36-.1.53-.06l1.52.41,1.22,1.5.04.07c.03.08-.02.18-.13.24h0c-.15.08-.35.1-.52.06l-1.52-.41-1.22-1.5-.04-.07c-.03-.08.01-.18.13-.24ZM641.81,215.93c-.15.09-.18.22-.09.32l3.33,4.1-2.02,1.17-3.33-4.1c-.08-.11-.06-.24.1-.33l2-1.16Z"/>
      <path class="cls-7" d="M652.36,222.03c.13-.08.2-.12.2-.12,1-.59,3.72-2.17,6.02-3.5l-1.89-1.65c-1.48.86-3,1.75-4.21,2.46-1.45.85-2.45,1.45-2.45,1.45h-.02s-1.03.6-2.51,1.44c-1.23.71-2.76,1.59-4.24,2.45l2.87,1.08c2.3-1.33,5.03-2.92,6.04-3.5,0,0,.07-.04.2-.11Z"/>
      <path class="cls-6" d="M652.27,204.57c-.45-.75-.68-1.4-.84-1.85-.16-.41-.29-.83-.38-1.23l-13.99,8.13-2.89,1.68-.4.23-2.89,1.68-13.99,8.13c.69.05,1.4.13,2.12.22.8.09,1.93.22,3.22.48l30.05-17.46Z"/>
      <path class="cls-10" d="M649.98,208.05l10.5,9.26c.91-.53,1.55-.9,1.7-.98.11-.06.2-.12.29-.17.09-.05.16-.09.21-.13-.03-.04-.06-.08-.1-.13-.07-.09-.16-.2-.27-.33-.01-.01-.02-.02-.04-.04-.62-.65-2.37-2.48-4.22-4.44-1.74-1.85-3.57-3.83-4.64-5.04l-3.44,2Z"/>
      <path class="cls-27" d="M672.69,215.77c-1.05.61-15.54,9.03-15.54,9.03,0,0-.9.52-2.28,1.32-1.37.8-3.22,1.87-5.09,2.96-3.75,2.18-7.64,4.44-8.16,4.74-.55.32-1.14.6-1.75.84-.19.07-.38.14-.57.2l1.84,1.06c.12-.01.32-.05.55-.12.55-.16,1.28-.48,1.9-.84,1.05-.61,15.53-9.03,15.53-9.03,0,0,.91-.53,2.28-1.33,1.37-.8,3.22-1.87,5.09-2.96,3.75-2.18,7.64-4.44,8.16-4.74.39-.23.74-.47,1.01-.7.28-.23.48-.45.58-.6.03-.05.05-.09.06-.12l-1.84-1.06c-.45.47-1.08.92-1.79,1.34Z"/>
      <path class="cls-28" d="M680.59,196.54c-20.03-11.57-52.4-11.56-72.3,0s-19.8,30.31.24,41.88c20.03,11.56,52.4,11.56,72.3,0,19.9-11.56,19.79-30.31-.24-41.88ZM678.92,215.66c-.07.3-.25.56-.47.83-.45.52-1.13,1.03-1.92,1.49-1.05.61-15.54,9.03-15.54,9.03,0,0-.9.52-2.28,1.32-1.37.8-3.22,1.87-5.09,2.96-3.75,2.18-7.64,4.44-8.16,4.74-.52.3-1.07.57-1.64.8-.58.23-1.16.41-1.79.52-.41.07-.86.12-1.37.07-.2-.02-.41-.05-.61-.11-.17-.04-.34-.09-.47-.17l-4.05-2.34c-.11-.06-.2-.14-.26-.22-.19-.19-.29-.4-.33-.61-.54-2.46-1.02-4.59-1.02-4.59v-.14c0-.1.11-.78,1.08-1.7-.86-.27-1.77-.56-2.7-.85-3.38-1.06-6.99-2.18-8.98-2.75-.57-.17-1-.28-1.21-.33-1.4-.33-2.61-.47-3.58-.58-.92-.11-1.8-.2-2.52-.23-.72-.04-1.28-.01-1.46.03l-.07.02-1.87,1.09s-.02,0-.02.01c-.01,0-.03.01-.04.02,0,0-.01.01-.02.02-.08.05-.17.09-.27.12-.02,0-.03.01-.05.02,0,0,0,0,0,0-.18.05-.38.08-.58.08-.05,0-.09,0-.14,0-.02,0-.04,0-.05,0h0c-.22-.02-.44-.07-.62-.15-.01,0-.02,0-.03-.02,0,0-.02,0-.03-.01-.02-.01-.04-.02-.06-.03l-.08-.05c-.38-.22-.49-.55-.28-.83.08-.11.2-.21.36-.29,0,0,0,0,0,0l17.46-10.15-1.03-.59s-.02,0-.03-.01c-.21-.12-.32-.27-.36-.4-.05-.12-.05-.22-.03-.31.03-.17.11-.27.19-.38.16-.21.37-.4.64-.62.53-.42,1.27-.93,2.17-1.44,1.11-.65,2.15-1.15,2.98-1.46.29-.1.55-.18.9-.25.2-.03.44-.07.86-.03.21.02.48.09.68.21h.02s1.03.61,1.03.61l17.62-10.24s.01,0,.02-.01c.13-.09.29-.16.49-.2.48-.12,1.04-.05,1.42.17l.03.02s.04.02.05.03c.12.07.22.15.28.25,0,.01.02.02.02.03,0,0,0,0,0,0,0,0,.01.02.02.03.04.08.06.16.05.25,0,.01,0,.02,0,.03,0,0,0,0,0,.01,0,.02,0,.04-.01.05,0,0,0,0,0,0-.02.06-.04.11-.08.16-.01.02-.02.03-.04.05,0,0,0,0,0,0-.01.02-.03.03-.04.05,0,0,0,0,0,0-.01.01-.03.03-.04.04,0,0,0,0-.01.01-.01.01-.03.02-.05.04,0,0-.01,0-.02.01-.01,0-.02.01-.03.02,0,0-.02.01-.03.02,0,0,0,0,0,0,0,0-.01,0-.02.01-.01,0-.03.02-.04.02,0,0-.01,0-.02.01l-2.02,1.18h0s-.06.12-.06.12c-.04.12-.06.31-.05.54.03.46.21,1.07.44,1.68.21.56.46,1.27,1.02,2.08,0,0,.01.02.02.02.09.13.29.37.56.68.26.31.59.68.98,1.11.03.03.05.06.08.08.83.92,1.87,2.04,2.92,3.16.76.81,1.53,1.63,2.24,2.37,1.65-.58,2.87-.61,3.07-.61h.14s3.69.28,7.93.58c.34.03.69.08,1.01.18.16.04.3.09.42.16l.1.06,3.95,2.28c.13.08.23.17.3.27.1.12.16.24.19.36.05.17.04.32,0,.47Z"/>
      <path class="cls-29" d="M636.51,229.3c.04.19.14.65.28,1.27.18.82.42,1.92.69,3.12.09-.02.19-.04.3-.07.52-.14,1.23-.44,1.86-.79.04-.02.08-.05.12-.07,1.05-.61,15.53-9.03,15.53-9.03,0,0,.91-.53,2.28-1.33,1.37-.8,3.22-1.87,5.09-2.96,3.75-2.18,7.64-4.44,8.16-4.74.46-.27.88-.56,1.17-.83.22-.19.37-.38.44-.5-2.06-.15-3.97-.29-5.38-.39-1.15-.08-1.96-.14-2.25-.16h-.02c-.1,0-.26.03-.48.07-.29.05-.68.15-1.16.32.52.57,1.05,1.17,1.45,1.64.29.31.42.43.56.63.04.07.09.15.12.21.03.09.05.16.06.23.03.16.01.32-.05.47-.06.15-.17.27-.28.37-.22.2-.46.34-.68.47-.1.06-.2.11-.29.17-.18.11-1.35.79-2.82,1.64-2.42,1.4-5.67,3.29-6.78,3.94,0,0-.07.04-.2.12-.13.07-.2.11-.2.11-1.11.65-4.37,2.54-6.78,3.94-1.47.86-2.63,1.53-2.82,1.64-.1.06-.19.11-.29.17-.17.1-.34.2-.57.3-.22.1-.5.2-.88.26-.25.04-.53.05-.81.03-.03,0-.05,0-.08,0-.1,0-.19-.01-.32-.03-.15-.02-.34-.06-.49-.09-.3-.08-.52-.16-1.03-.32-.16-.05-.35-.11-.59-.19-.66-.2-1.39-.43-2.09-.65-.56.52-.72.89-.76,1.02Z"/>
      <path class="cls-30" d="M637.52,226.63s.02,0,.02,0c1.38.44,2.54.81,3.26,1.03.31.09.59.17.83.24.15.04.3.08.41.11.06-.03.14-.07.22-.12.09-.05.18-.11.29-.17.14-.09.78-.46,1.69-.99l-3.76-1.42s-.02,0-.02,0l-12.23-4.62-3.44,2c.51.15,1.1.33,1.76.53,1.6.48,3.54,1.08,5.5,1.69,1.91.59,3.83,1.2,5.44,1.71.01,0,.02,0,.03.01Z"/>
    </g>
  </g>
  <g>
    <path class="cls-32" d="M894.93,205.23c-20.03-11.57-52.4-11.56-72.3,0-19.9,11.56-19.8,30.31.24,41.88,20.03,11.56,52.4,11.56,72.3,0,19.9-11.56,19.79-30.31-.24-41.88"/>
    <path class="cls-75" d="M894.93,216.67c-20.03-11.57-52.4-11.56-72.3,0-19.9,11.56-19.8,30.31.24,41.88,20.03,11.56,52.4,11.56,72.3,0,19.9-11.56,19.79-30.31-.24-41.88"/>
    <path class="cls-43" d="M894.93,216.67c-20.03-11.57-52.4-11.56-72.3,0-19.9,11.56-19.8,30.31.24,41.88,20.03,11.56,52.4,11.56,72.3,0,19.9-11.56,19.79-30.31-.24-41.88"/>
    <path class="cls-44" d="M894.93,205.25c-20.03-11.57-52.4-11.56-72.3,0-19.9,11.56-19.8,30.31.24,41.88,20.03,11.56,52.4,11.56,72.3,0,19.9-11.56,19.79-30.31-.24-41.88"/>
    <g>
      <path class="cls-45" d="M853.75,227.47l4.31,2.49c.95-.51,1.91-1.04,2.87-1.58l-17.74-10.24c-.33-.19-.46-.47-.33-.73l1.37-2.98s.01-.04.02-.06l.36-.78-2.22-1.28-11.71,1.84,22.92,13.23c.05.03.1.06.14.1Z"/>
      <path class="cls-46" d="M840.66,230.54s.06.03.09.04c.14.08.24.17.3.28l6.97,4.02c2.58-1.14,5.31-2.46,8.11-3.92l-27.33-15.78-1.67,3.62-1.46,3.17,14.59,8.42c.14.03.27.07.39.13Z"/>
      <path class="cls-31" d="M862.79,227.31c1.76-1.02,3.44-2.04,5.03-3.05l-4.44-2.56h0l-15.64-9.03-.38.84s-.01.03-.02.04l-.14.31-.41.9s-.02.04-.03.06l-1.18,2.55,17.21,9.94Z"/>
      <path class="cls-34" d="M882.83,212.29c.97-1.21,1.39-2.19,1.32-2.74-.02-.23-.1-.37-.19-.46-.11.02-.24.05-.39.08-.68.14-1.73.4-3.09.84-2.59.83-6.33,2.33-11.03,4.98l6.42,3.71c3.19-2.45,5.59-4.66,6.97-6.4Z"/>
      <path class="cls-33" d="M834.42,239.56c1.93-.34,4.53-1.09,7.48-2.18,1.27-.47,2.61-.99,4-1.58l-6.06-3.5c-6.05,4.3-7.84,6.59-8.33,7.42.15.03.34.06.62.06.54.02,1.34-.05,2.3-.22Z"/>
      <path class="cls-35" d="M869.56,223.13c1.69-1.1,3.26-2.19,4.7-3.24l-16.57-9.57-8.11,1.27,15.64,9.03,4.35,2.51Z"/>
      <path class="cls-36" d="M877.65,227.81l12.32,7.11,2.16-4.71-9.85-5.69c-1.43,1.08-2.97,2.18-4.62,3.28Z"/>
      <path class="cls-52" d="M894.93,205.25c-20.03-11.57-52.4-11.56-72.3,0s-19.8,30.31.24,41.88c20.03,11.56,52.4,11.56,72.3,0,19.9-11.56,19.79-30.31-.24-41.88ZM894.85,230.18l-2.92,6.36s0,.01-.01.02c0,.01-.02.02-.02.04-.03.06-.07.12-.12.17-.01.01-.04.03-.05.04-.04.04-.09.08-.14.11-.01,0-.02,0-.04.01-.1.06-.22.1-.35.14-.01,0-.02,0-.04,0,0,0,0,0-.01,0-.05.01-.09.02-.14.03l-10.29,1.61-1.75,3.74s-.01.04-.02.06c-.06.13-.18.25-.35.35-.16.09-.36.16-.59.2-.04,0-.07.01-.11.01l-14.51,2.28c-.45.07-.94,0-1.27-.2l-8.22-4.75c-5.17,2.1-9.97,3.62-14.05,4.42-2.78.55-5.25.77-7.36.55-1.19-.13-2.28-.42-3.12-.91,0,0-.02-.01-.03-.02-.01,0-.03-.02-.04-.02-.62-.36-1.34-.94-1.58-1.75-.25-.82.03-1.82,1.08-2.96.11-.29.44-.96,1.5-2.12,1.25-1.37,3.53-3.44,7.69-6.39l-14.69-8.48c-.33-.19-.46-.47-.33-.73l1.96-4.24s.01-.03.02-.04l1.94-4.21c.12-.26.47-.46.92-.53.11-.02.22-.02.34-.02l14.31-2.25c.45-.07.94,0,1.27.2l1.68.97.4-.88c.11-.26.47-.46.92-.53.06,0,.11-.02.17-.02l10.84-1.7c.45-.07.94,0,1.27.2l8.61,4.97c9.2-5.21,15.16-6.23,16.25-6.38.81-.29,1.62-.47,2.4-.57.91-.11,1.76-.09,2.52,0,1.53.18,2.63.66,3.3,1.04.85.49,1.37,1.13,1.59,1.82.23.7.19,1.46-.05,2.29-.48,1.65-1.77,3.58-3.74,5.71-1.58,1.71-3.61,3.55-6.01,5.47l10.65,6.15c.33.19.47.47.35.73Z"/>
      <path class="cls-38" d="M870.92,232l9.11,5.26,8.1-1.27-12.21-7.05c-1.58,1.02-3.25,2.04-5,3.06Z"/>
      <path class="cls-53" d="M856.04,239.52l7.38,4.26,11.71-1.84-10.89-6.29c-2.77,1.42-5.53,2.71-8.2,3.86Z"/>
      <path class="cls-51" d="M881.04,222.96s.06-.05.09-.07c.56-.43,1.1-.86,1.61-1.29,3.64-3,6.23-5.77,7.51-7.98.86-1.47,1.11-2.69.83-3.5-.16-.46-.45-.79-.87-1.03-.29-.17-.77-.39-1.36-.52-.59-.13-1.25-.2-2.07-.11-.13.02-.26.04-.4.06.24.3.36.63.39.97.04.57-.15,1.18-.49,1.85-.7,1.33-2.08,2.91-4.03,4.71-2.8,2.57-6.79,5.57-11.63,8.69-.02.01-.04.02-.05.04-1.87,1.2-3.86,2.42-5.96,3.64-.27.16-.55.32-.82.47-.02.01-.04.03-.07.04-.03.02-.06.03-.08.04-4.65,2.66-9.26,5.01-13.53,6.91-.46.21-.91.4-1.36.6-.03.02-.07.03-.1.05-3.99,1.73-7.62,3.05-10.67,3.86-2.29.6-4.23.95-5.95.92-.5-.01-.99-.07-1.46-.17-.36.57-.37,1-.28,1.31.13.44.5.73.89.95.42.24.98.41,1.78.5.8.09,1.83.08,3.04-.04,2.42-.23,5.54-.93,9.04-2.02,7.02-2.19,15.58-5.99,23.92-10.83,4.65-2.7,8.73-5.44,12.09-8.04Z"/>
      <path class="cls-37" d="M866.18,234.64l6.38,3.69c.06.02.11.05.17.08l4.26,2.46,1.19-2.54-9.12-5.26c-.96.54-1.92,1.07-2.88,1.58Z"/>
    </g>
  </g>
  <g>
    <path class="cls-54" d="M233.48,286.49c-20.03-11.57-52.4-11.56-72.3,0-19.9,11.56-19.8,30.31.24,41.88,20.03,11.56,52.4,11.56,72.3,0s19.79-30.31-.24-41.88"/>
    <path class="cls-75" d="M233.48,297.92c-20.03-11.57-52.4-11.56-72.3,0-19.9,11.56-19.8,30.31.24,41.88s52.4,11.56,72.3,0c19.9-11.56,19.79-30.31-.24-41.88"/>
    <path class="cls-42" d="M233.48,297.92c-20.03-11.57-52.4-11.56-72.3,0-19.9,11.56-19.8,30.31.24,41.88s52.4,11.56,72.3,0c19.9-11.56,19.79-30.31-.24-41.88"/>
    <path class="cls-40" d="M233.48,286.5c-20.03-11.57-52.4-11.56-72.3,0-19.9,11.56-19.8,30.31.24,41.88,20.03,11.56,52.4,11.56,72.3,0,19.9-11.56,19.79-30.31-.24-41.88"/>
    <g>
      <path class="cls-39" d="M172.15,312.53c1.04,0,2.05-.23,2.83-.68.78-.45,1.17-1.05,1.16-1.64,0-.6-.4-1.19-1.19-1.65l-7.61-4.39-2.75,1.6c-.8.46-1.2,1.07-1.19,1.69,0,.61.41,1.22,1.21,1.68l4.69,2.71c.79.45,1.81.68,2.85.68Z"/>
      <path class="cls-41" d="M179.65,308.17c1.03,0,2.05-.22,2.83-.68.77-.45,1.16-1.04,1.16-1.64,0-.6-.4-1.19-1.19-1.65l-7.61-4.39-2.83,1.64-2.83,1.64,7.61,4.39c.79.45,1.8.68,2.85.68Z"/>
      <path class="cls-48" d="M200.43,311.43c-.42-.24-.95-.36-1.5-.36-.55,0-1.09.11-1.5.35l-5.91,3.43c-.41.24-.61.55-.61.87,0,.32.2.63.62.87l13.04,7.53,8.89-5.17-13.04-7.53ZM206.21,318.28c-.78.45-2.07.45-2.85,0-.79-.46-.79-1.2,0-1.65.79-.46,2.06-.46,2.85,0,.79.45.8,1.19,0,1.65Z"/>
      <path class="cls-47" d="M187.15,303.81c1.03,0,2.05-.22,2.83-.68.77-.45,1.16-1.04,1.16-1.64,0-.6-.4-1.19-1.19-1.65l-7.61-4.39-2.83,1.64-2.84,1.65,7.61,4.39c.79.45,1.81.68,2.85.68Z"/>
      <path class="cls-49" d="M202.16,295.09c1.04,0,2.06-.23,2.83-.68.78-.45,1.17-1.05,1.16-1.64,0-.6-.4-1.2-1.18-1.65l-4.69-2.71c-.8-.46-1.86-.69-2.92-.69s-2.12.23-2.92.7l-2.75,1.6,7.61,4.39c.79.45,1.81.68,2.85.68Z"/>
      <path class="cls-55" d="M194.65,299.45c1.04,0,2.06-.23,2.84-.68.77-.45,1.16-1.04,1.16-1.64,0-.6-.4-1.19-1.19-1.65l-7.61-4.39-2.83,1.64-2.84,1.65,7.61,4.39c.79.45,1.81.68,2.85.68Z"/>
      <path class="cls-50" d="M231.55,307.45c0-.62-.4-1.22-1.21-1.69l-21.64-12.49c-.18.81-.8,1.59-1.87,2.21-1.54.89-3.65,1.25-5.65,1.08.3,1.16-.31,2.38-1.84,3.28-1.54.89-3.65,1.25-5.66,1.08.3,1.16-.31,2.39-1.84,3.28-1.54.89-3.65,1.25-5.66,1.08.3,1.16-.31,2.39-1.84,3.28-1.54.89-3.65,1.25-5.66,1.08.3,1.16-.31,2.39-1.85,3.28-1.07.62-2.41.98-3.79,1.09l21.63,12.49c.8.46,1.85.69,2.91.7,1.07,0,2.12-.23,2.92-.7l2.23-1.3-13.04-7.53c-1.85-1.07-1.85-2.81-.02-3.88l5.91-3.43c1.85-1.07,4.84-1.07,6.69,0l13.04,7.53,15.05-8.74c.8-.46,1.2-1.07,1.19-1.69ZM219.84,308.56l-3.88,2.25c-1.85,1.07-4.84,1.07-6.69,0l-3.9-2.25c-1.84-1.07-1.85-2.81-.02-3.88l3.88-2.25c1.85-1.07,4.84-1.07,6.7,0l3.9,2.25c1.84,1.07,1.85,2.81.02,3.88Z"/>
      <path class="cls-56" d="M233.48,286.5c-20.03-11.57-52.4-11.56-72.3,0s-19.8,30.31.24,41.88c20.03,11.56,52.4,11.56,72.3,0,19.9-11.56,19.79-30.31-.24-41.88ZM232.21,310.21l-29.86,17.35c-2.62,1.52-6.89,1.52-9.53,0l-30.06-17.35-.08-.04c-2.59-1.5-2.6-3.93-.02-5.43l3.75-2.18,3.75-2.18,3.75-2.18,3.75-2.18,3.75-2.18,3.76-2.18,3.75-2.18,3.75-2.18c2.58-1.5,6.78-1.5,9.37,0l4.76,2.75,25.37,14.65c2.62,1.52,2.64,4,.02,5.52Z"/>
      <path class="cls-18" d="M218.59,306.62c0-.32-.21-.63-.62-.87l-3.9-2.25c-.42-.24-.95-.36-1.5-.36-.55,0-1.09.12-1.5.35l-3.88,2.25c-.41.24-.61.55-.61.87,0,.32.2.63.62.87l3.9,2.25c.41.24.96.35,1.5.35.55,0,1.08-.12,1.49-.36l3.88-2.25c.41-.24.61-.55.61-.87Z"/>
    </g>
  </g>
  <g>
    <path class="cls-19" d="M384.84,201c-20.03-11.57-52.4-11.56-72.3,0-19.9,11.56-19.8,30.31.24,41.88,20.03,11.56,52.4,11.56,72.3,0,19.9-11.56,19.79-30.31-.24-41.88"/>
    <path class="cls-75" d="M384.84,212.43c-20.03-11.57-52.4-11.56-72.3,0-19.9,11.56-19.8,30.31.24,41.88,20.03,11.56,52.4,11.56,72.3,0,19.9-11.56,19.79-30.31-.24-41.88"/>
    <path class="cls-20" d="M384.84,212.43c-20.03-11.57-52.4-11.56-72.3,0-19.9,11.56-19.8,30.31.24,41.88,20.03,11.56,52.4,11.56,72.3,0,19.9-11.56,19.79-30.31-.24-41.88"/>
    <path class="cls-17" d="M384.84,201.01c-20.03-11.57-52.4-11.56-72.3,0-19.9,11.56-19.8,30.31.24,41.88,20.03,11.56,52.4,11.56,72.3,0,19.9-11.56,19.79-30.31-.24-41.88"/>
    <g>
      <path class="cls-25" d="M384.84,201.01c-20.03-11.57-52.4-11.56-72.3,0s-19.8,30.31.24,41.88c20.03,11.56,52.4,11.56,72.3,0,19.9-11.56,19.79-30.31-.24-41.88ZM381.88,241.07c-1.65.96-4.32.96-5.98,0l-2.18-1.26-8.75-5.05-2.06-1.19c-.52-.3-.53-.79,0-1.09l.34-.2-2.72-1.57c-4.85,2.37-11.12,3.8-17.97,3.8-7.72,0-14.73-1.82-19.81-4.75s-8.23-6.99-8.25-11.45c-.03-4.47,3.09-8.53,8.13-11.45,5.04-2.93,12.03-4.75,19.75-4.75,7.71,0,14.73,1.82,19.8,4.74,5.08,2.93,8.23,6.99,8.26,11.46.02,3.97-2.43,7.61-6.5,10.42l2.72,1.57.34-.2c.25-.14.59-.23.94-.23.36,0,.69.08.94.23l2.06,1.19,10.92,6.3c1.67.96,1.68,2.51.02,3.47Z"/>
      <path class="cls-23" d="M379.99,238.69l-10.92-6.3-1.11-.64-.35.2-1.52.88-.35.2,1.11.64,8.75,5.05,2.18,1.26c.62.35,1.61.35,2.21,0,.61-.36.61-.93,0-1.29Z"/>
      <path class="cls-26" d="M367.76,218.31c-.02-4.05-2.88-7.71-7.47-10.36-4.59-2.65-10.92-4.29-17.91-4.29s-13.3,1.64-17.86,4.29c-4.56,2.65-7.37,6.31-7.35,10.36.02,4.05,2.87,7.7,7.47,10.36,4.6,2.65,10.93,4.29,17.91,4.29,6.55,0,12.51-1.44,16.99-3.81.03-.02.06-.04.09-.06l1.52-.88s.07-.04.1-.05c4.07-2.6,6.54-6.06,6.52-9.85ZM357.65,227.08c-3.86,2.25-9.21,3.63-15.12,3.63-5.91,0-11.28-1.39-15.16-3.63-3.88-2.24-6.3-5.35-6.32-8.77-.02-3.42,2.36-6.52,6.23-8.77,3.86-2.24,9.2-3.63,15.11-3.63,5.91,0,11.28,1.39,15.16,3.63s6.3,5.35,6.32,8.77c.02,3.42-2.36,6.52-6.21,8.77Z"/>
      <path class="cls-24" d="M355.67,210.64c-3.4-1.96-8.09-3.18-13.26-3.18-5.17,0-9.84,1.22-13.23,3.18-3.39,1.97-5.47,4.68-5.45,7.67.02,3,2.13,5.71,5.53,7.67,3.41,1.97,8.09,3.18,13.27,3.18,5.17,0,9.84-1.21,13.23-3.18,3.38-1.96,5.46-4.67,5.44-7.67-.02-3-2.13-5.7-5.54-7.67Z"/>
    </g>
  </g>
  <g>
    <path class="cls-22" d="M526.42,284.99c-20.03-11.57-52.4-11.56-72.3,0-19.9,11.56-19.8,30.31.24,41.88,20.03,11.56,52.4,11.56,72.3,0,19.9-11.56,19.79-30.31-.24-41.88"/>
    <path class="cls-75" d="M526.42,296.42c-20.03-11.57-52.4-11.56-72.3,0-19.9,11.56-19.8,30.31.24,41.88,20.03,11.56,52.4,11.56,72.3,0,19.9-11.56,19.79-30.31-.24-41.88"/>
    <path class="cls-21" d="M526.42,296.42c-20.03-11.57-52.4-11.56-72.3,0-19.9,11.56-19.8,30.31.24,41.88,20.03,11.56,52.4,11.56,72.3,0,19.9-11.56,19.79-30.31-.24-41.88"/>
    <path class="cls-64" d="M526.42,285c-20.03-11.57-52.4-11.56-72.3,0-19.9,11.56-19.8,30.31.24,41.88,20.03,11.56,52.4,11.56,72.3,0,19.9-11.56,19.79-30.31-.24-41.88"/>
    <g>
      <path class="cls-65" d="M478.19,299.08c.25-.48.71-.93,1.33-1.29.52-.3,1.17-.55,1.91-.71l.73-.16h0s.04,0,.04,0h.02s.41-.09.41-.09l-1.83-2.8c-.15.1-.3.2-.46.29-2.04,1.19-4.94,1.76-7.82,1.54l3.83,5.86,1.85-2.64Z"/>
      <path class="cls-66" d="M472.69,294c-.14.08-.28.17-.41.26,2.24.29,4.57-.12,6.16-1.04.24-.14.47-.29.68-.46-1.23-.1-2.5-.03-3.73.24-1.05.22-1.95.57-2.69,1Z"/>
      <path class="cls-60" d="M483.71,310.08c.06-.08.14-.16.22-.24.02-.02.04-.04.07-.06l-5.03-7.69-9.04,12.89c-.15.22-.16.48,0,.7l3.41,5.23,10.37-10.83Z"/>
      <path class="cls-61" d="M481.42,298.88c-.31.18-.54.41-.67.65-.17.32-.16.67.05,1.01l5.49,8.4,1.76-.39.55-.12,14.67-3.19,1.51-.33,4.91-1.07-5.49-8.4c-.14-.22-.35-.4-.61-.55-.73-.42-1.84-.59-2.87-.36l-15.88,3.46s-.02,0-.03,0l-1.61.35h0s-.06.01-.06.01l-.77.17c-.37.08-.7.21-.96.36Z"/>
      <path class="cls-62" d="M470.8,292.9c1-.58,2.23-1.05,3.64-1.36,1.92-.42,3.92-.48,5.8-.24.47-1.29-.24-2.63-1.82-3.55-.55-.32-1.21-.58-1.96-.78-2.61-.69-5.57-.32-7.47.79-.55.32-1.01.7-1.36,1.14-1.18,1.51-.53,3.23,1.39,4.33.24.14.49.26.77.38.31-.25.65-.48,1.03-.7Z"/>
      <path class="cls-63" d="M484.14,318.26l-2,2.08,22.85-4.97,2.19-2.12-22.91,4.99s-.09.02-.14.03Z"/>
      <polygon class="cls-57" points="491.97 312.95 491.61 313.03 489.84 313.41 488.83 313.64 487.96 314.28 486.14 316.18 509.38 311.12 511.98 308.6 492.97 312.73 491.97 312.95"/>
      <path class="cls-58" d="M526.42,285c-20.03-11.57-52.4-11.56-72.3,0s-19.8,30.31.24,41.88c20.03,11.56,52.4,11.56,72.3,0,19.9-11.56,19.79-30.31-.24-41.88ZM516.42,307.18s0,.02,0,.03c0,0,0,0,0,0-.02.07-.05.13-.1.2-.02.03-.05.05-.07.07,0,0,0,0,0,0l-.03.03-13.17,12.77c-.15.15-.39.27-.67.33l-26.68,5.81s-.09.02-.14.02h0s-1.38.31-1.38.31c-.51.11-1.06.03-1.42-.18-.13-.07-.23-.16-.3-.26l-1.24-1.81s-.02-.04-.04-.06l-.03-.04c-.3-.47-.23-.99.21-1.42l.3-.31-4.22-6.46c-.39-.59-.38-1.25.04-1.83l7.4-10.57-5.61-8.59c-.8-.25-1.52-.56-2.14-.92-2.69-1.55-3.58-3.96-1.94-6.07.47-.61,1.12-1.14,1.89-1.59,2.66-1.55,6.81-2.06,10.47-1.1,1.05.27,1.97.65,2.74,1.1,0,0,.01,0,.02,0,2.5,1.44,3.43,3.63,2.22,5.63l2.6,3.98,14.66-3.19c2.03-.44,4.24-.12,5.69.71.52.3.96.68,1.23,1.1l5.62,8.6c.71.05,1.38.24,1.88.53.32.18.57.41.74.66l1.38,2.11s0,0,0,.01c.01.02.02.05.03.07.01.03.03.07.04.1.01.06.01.12,0,.18,0,0,0,0,0,0Z"/>
      <path class="cls-59" d="M474.57,325.01h0s.06-.02.06-.02h0s11.04-11.53,11.04-11.53l.11-.1,1.17-.86c.15-.11.35-.2.57-.24l1.36-.29,1.77-.39.36-.07,1-.22,20.14-4.38,1.2-.26-.91-1.39-.13-.11c-.15-.09-.38-.12-.59-.07l-6.01,1.31-1.51.33s-.95.21-2.42.53c-1.47.32-3.46.76-5.53,1.21-4.14.91-8.61,1.89-9.88,2.17-.06.01-.12.03-.16.04h0s-.04.02-.04.02l-.02.02-.06.06-.05.07-12.39,12.94-.03.03-.02.08.04.04s.06.09.08.14l.67.99.14-.03Z"/>
      <path class="cls-72" d="M480.13,322.44l-1.66,1.73,22.5-4.9,1.82-1.76-22.63,4.93s-.02,0-.03,0Z"/>
    </g>
  </g>
  <g>
    <path class="cls-73" d="M1033.73,289.62c-20.03-11.57-52.4-11.56-72.3,0-19.9,11.56-19.8,30.31.24,41.88,20.03,11.56,52.4,11.56,72.3,0,19.9-11.56,19.79-30.31-.24-41.88"/>
    <path class="cls-75" d="M1033.73,301.06c-20.03-11.57-52.4-11.56-72.3,0-19.9,11.56-19.8,30.31.24,41.88,20.03,11.56,52.4,11.56,72.3,0,19.9-11.56,19.79-30.31-.24-41.88"/>
    <path class="cls-74" d="M1033.73,301.06c-20.03-11.57-52.4-11.56-72.3,0-19.9,11.56-19.8,30.31.24,41.88,20.03,11.56,52.4,11.56,72.3,0,19.9-11.56,19.79-30.31-.24-41.88"/>
    <path class="cls-68" d="M1033.73,289.64c-20.03-11.57-52.4-11.56-72.3,0-19.9,11.56-19.8,30.31.24,41.88,20.03,11.56,52.4,11.56,72.3,0,19.9-11.56,19.79-30.31-.24-41.88"/>
    <g>
      <path class="cls-69" d="M994.37,323.05c-.09-.05-.16-.11-.22-.17-.18-.18-.22-.4-.1-.6l1.15-2.1-1.59-1.29c-.19-.15-.27-.34-.23-.52l.49-2.58-1.19-1.14-.81.29-.58,2.24c-.03.14-.14.27-.3.37l-3.51,2.42c-.46.31-1.28.36-1.83.1l-3.55-1.69-14.94,5.26-.52,1.25,2.16,2.18,6.86,2.17,2.85-1.62c.16-.08.35-.15.55-.19l3.75-.62c.26-.04.54-.03.8.02l3.32.68,1.12-1.72c.1-.15.28-.28.53-.37l3.4-1.23c.24-.09.52-.12.8-.11l4.41.22.61-.65-2.81-.42c-.23-.03-.44-.1-.6-.2Z"/>
      <path class="cls-70" d="M995.42,308.55l-.31,1.71.88.03,1.33-1.28.44-1.02-2.67-.89-.39.14.64.96c.08.11.1.24.08.35Z"/>
      <path class="cls-71" d="M1023.42,297.58c-.36-.21-.47-.52-.29-.8l1.19-1.81-3.02-1.08c-.1-.03-.18-.07-.26-.12l-3.13-1.89-1.75.46-1.28,2.41c-.15.28-.56.49-1.05.52-.41.04-.82-.04-1.11-.21-.06-.03-.11-.07-.16-.11l-3.33-2.86-3.12,1.09c-.35.12-.78.14-1.16.06l-2.94-.67-.88,1.39c-.05.08-.12.15-.21.22l-1.66,1.19.96,1.4.04.07.88,1.77c.08.15.07.31-.02.46l-1.83,2.96,2.26.49,2.55-1.15-1.12-1.41c-.15-.19-.17-.41-.03-.6l.7-1.02-.05-2.48c0-.32.33-.61.85-.72.48-.1,1.01-.03,1.37.18.03.02.06.04.09.06l2.59,1.83c.1.07.18.15.23.24l2.43,4.25c.12.18.09.38-.05.56l-1.78,2.15c-.23.28-.75.46-1.3.43l-1.89-.1-2.47,1.13,2.18,2.08c.24.23.26.52.04.75l-2.07,2.23,1.86,1.02s.03.02.04.02c.26.15.39.36.37.57-.02.22-.21.43-.51.56l-3.5,1.54,1.23,1.18,3.76-1.25,2.12-2.62c.23-.28.74-.45,1.28-.43l2.22.1,2.76-2.25c.18-.15.46-.26.77-.3l4.5-.58c.24-.03.47-.02.71.03l3.22.63.29-.42-1.29-1.11c-.29-.25-.3-.58-.02-.83l2.37-2.16c.11-.1.25-.18.44-.25l1.45-.49.9-3.25-5.32-3.06s-.01,0-.02,0Z"/>
      <path class="cls-67" d="M1033.73,289.64c-20.03-11.57-52.4-11.56-72.3,0s-19.8,30.31.24,41.88c20.03,11.56,52.4,11.56,72.3,0,19.9-11.56,19.79-30.31-.24-41.88ZM992.4,306.28l1.99-.7c.41-.14.92-.15,1.32,0l4.21,1.39c.1.03.19.07.27.12.32.18.46.46.35.72l-.72,1.69c-.03.08-.08.15-.15.21l-1.84,1.77c-.25.24-.7.38-1.19.36l-3.04-.1c-.33,0-.63-.09-.86-.22-.02-.01-.05-.03-.07-.04-.22-.16-.34-.37-.3-.57l.43-2.32-.93-1.38c-.22-.34,0-.73.54-.92ZM1000.89,323.54l-1.85,1.94c-.25.26-.74.42-1.26.39l-4.81-.25-2.66.96-1.42,2.17c-.25.39-.98.58-1.65.44l-4.12-.84-3.03.5-3.31,1.88c-.41.23-1.03.28-1.54.12l-8.03-2.54c-.1-.04-.2-.08-.29-.13-.08-.05-.16-.1-.22-.17l-2.62-2.63c-.16-.17-.22-.37-.14-.56l.77-1.84c.08-.2.3-.36.59-.47l16.19-5.7c.48-.17,1.07-.14,1.51.06l3.28,1.56,2.45-1.68.61-2.38c.06-.23.28-.42.61-.53l2.45-.86c.29-.1.65-.14.99-.08.23.03.44.1.61.2.07.04.14.09.19.14l2.11,2c.15.14.22.31.19.48l-.49,2.55,1.67,1.36c.24.19.31.44.19.67l-.93,1.7,3.11.46c.23.03.44.1.61.2.11.06.21.14.27.23.16.22.14.46-.05.67ZM1031.45,300.51l-1.1,3.98c-.06.22-.29.42-.63.53l-1.71.58-1.74,1.58,1.2,1.03c.25.21.3.48.13.71l-1.02,1.45c-.26.37-.97.56-1.62.43l-4.05-.8-3.65.47-2.88,2.36c-.27.21-.7.34-1.16.31l-2.06-.08-1.91,2.37c-.11.14-.3.25-.53.33l-5.22,1.73c-.52.17-1.16.12-1.57-.12-.07-.04-.14-.09-.19-.14l-2.52-2.39c-.35-.34-.21-.76.32-1l3.22-1.41-1.47-.8s-.02-.01-.03-.02c-.41-.24-.5-.6-.23-.89l2.19-2.36-2.39-2.28c-.35-.32-.21-.74.3-.98l3.78-1.74c.26-.12.6-.18.93-.16l1.52.08,1.16-1.4-2.19-3.82-.08-.05v.48c.02.1-.02.2-.08.29l-.59.86,1.31,1.66c.26.32.1.7-.38.91l-3.94,1.77c-.36.16-.83.2-1.26.11l-4.15-.9c-.18-.04-.33-.1-.46-.17-.35-.2-.49-.51-.31-.79l2.12-3.44-.74-1.49-1.22-1.78c-.18-.25-.1-.54.19-.76l2-1.43,1.28-2c.12-.19.37-.35.69-.43.32-.08.69-.09,1.01-.01l3.57.81,3.63-1.27c.52-.19,1.18-.13,1.6.11.06.03.11.07.16.11l2.5,2.15.65-1.22c.11-.21.37-.38.7-.46l3.13-.83c.5-.13,1.09-.07,1.48.15,0,0,.01,0,.01,0l3.66,2.21,3.79,1.36c.08.03.16.07.23.11.36.21.5.53.31.81l-1.27,1.94,5.19,2.99s.01,0,.02.01c.29.17.42.41.36.65Z"/>
    </g>
  </g>
</svg>