<?xml version="1.0" encoding="UTF-8"?>
<svg xmlns="http://www.w3.org/2000/svg" version="1.1" viewBox="0 0 1179.1 424.7">
  <defs>
    <style>
      .cls-1 {
        fill: #08062a;
      }

      .cls-2 {
        fill: #fff;
      }
    </style>
  </defs>
  <!-- Generator: Adobe Illustrator 28.6.0, SVG Export Plug-In . SVG Version: 1.2.0 Build 709)  -->
  <g>
    <g id="Layer_1">
      <path class="cls-2" d="M810.1,129.4h-214.3c-5,0-9-4-9-9v-59.9c0-5,4-9,9-9h214.3v77.9Z"/>
      <path class="cls-2" d="M805.4,51.5v145c0,1.3,1,2.3,2.3,2.3s2.3-1,2.3-2.3V51.5c0-1.3-1-2.3-2.3-2.3s-2.3,1-2.3,2.3h0Z"/>
      <g>
        <path class="cls-1" d="M617.8,76.6c-.5-.3-1-.5-1.4-.5h0c.5-.3.9-.4,1.3-.7.4-.3.7-.6.9-1,.2-.4.3-.9.3-1.6s-.2-1.4-.5-2c-.3-.6-.9-1.1-1.6-1.4s-1.6-.5-2.6-.5h-5.4v14.9h5.7c1.2,0,2.1-.2,2.8-.5.7-.4,1.3-.8,1.6-1.4s.5-1.3.5-2-.2-1.4-.5-2c-.3-.5-.7-1-1.2-1.2ZM611,70.8h3.1c.9,0,1.5.2,2,.6.4.4.6.9.6,1.5s-.1.9-.4,1.2-.6.6-1,.8c-.4.2-.9.3-1.4.3h-3v-4.5ZM616.6,81.2c-.5.4-1.2.6-2.3.6h-3.2v-4.8h3.3c.6,0,1.1.1,1.6.3.4.2.8.5,1,.9.2.4.4.8.4,1.3s-.2,1.1-.7,1.6Z"/>
        <path class="cls-1" d="M630,73.8c-.5-.4-1-.8-1.6-1-.6-.2-1.2-.3-1.8-.3-1,0-1.9.2-2.7.7s-1.4,1.2-1.8,2c-.4.9-.6,1.9-.6,3s.2,2.2.6,3c.4.9,1,1.5,1.8,2,.8.5,1.7.7,2.8.7s1.5-.1,2.2-.4,1.2-.6,1.6-1.1c.4-.5.7-1,.9-1.6l-2.1-.4c-.1.3-.3.6-.6.9-.2.2-.5.4-.9.5-.3.1-.7.2-1.1.2-.6,0-1.2-.1-1.7-.4-.5-.3-.8-.7-1.1-1.2-.2-.5-.4-1.1-.4-1.7h7.9v-.8c0-1-.1-1.9-.4-2.6s-.6-1.3-1.1-1.7ZM623.6,77.2c0-.5.1-.9.3-1.3.2-.5.6-.9,1-1.2.5-.3,1-.4,1.6-.4s1.1.1,1.5.4c.4.3.7.6,1,1,.2.4.3.9.3,1.5h-5.8Z"/>
        <path class="cls-1" d="M643.3,83.7v-7.1c0-.9-.2-1.7-.5-2.3-.3-.6-.8-1.1-1.3-1.4-.6-.3-1.2-.5-2-.5s-1.6.2-2.1.5c-.5.4-.9.8-1.2,1.4h-.1v-5.5h-2.1v14.9h2.2v-6.6c0-.6.1-1.1.3-1.5s.5-.7,1-1c.4-.2.9-.3,1.4-.3.7,0,1.3.2,1.8.7.4.5.6,1.1.6,1.9v6.8h2.2Z"/>
        <path class="cls-1" d="M647.3,70.9c.4,0,.7-.1,1-.4.3-.3.4-.6.4-.9s-.1-.7-.4-.9c-.3-.3-.6-.4-1-.4s-.7.1-1,.4c-.3.3-.4.6-.4.9s.1.7.4.9c.3.3.6.4,1,.4Z"/>
        <rect class="cls-1" x="646.2" y="72.6" width="2.2" height="11.1"/>
        <path class="cls-1" d="M653.5,77.1c0-.6.1-1.1.3-1.5s.5-.7.9-1c.4-.2.8-.3,1.3-.3.7,0,1.3.2,1.7.7s.6,1.1.6,1.9v6.8h2.2v-7.1c0-.9-.2-1.7-.5-2.3-.3-.6-.8-1.1-1.3-1.4-.6-.3-1.2-.5-2-.5s-1.5.2-2.1.5c-.5.4-1,.8-1.2,1.4h-.1v-1.8h-2.1v11.1h2.2v-6.6Z"/>
        <path class="cls-1" d="M671.1,82v1.7h2.1v-14.9h-2.2v5.5h-.1c-.1-.2-.3-.5-.5-.8s-.6-.6-1-.8-1-.3-1.7-.3-1.7.2-2.4.7-1.3,1.1-1.7,2c-.4.9-.6,1.9-.6,3.1s.2,2.2.6,3.1c.4.9,1,1.5,1.7,2,.7.5,1.5.7,2.4.7s1.2-.1,1.7-.3c.4-.2.8-.5,1-.8s.4-.6.6-.8h.2ZM669.8,81.6c-.4.3-1,.5-1.6.5s-1.2-.2-1.6-.5-.8-.8-1-1.4c-.2-.6-.3-1.3-.3-2s.1-1.4.3-2,.5-1,1-1.4c.4-.3,1-.5,1.6-.5s1.2.2,1.6.5c.4.3.8.8,1,1.4s.3,1.3.3,2-.1,1.5-.3,2.1-.6,1.1-1,1.4Z"/>
        <path class="cls-1" d="M685.7,83.9c.3,0,.6,0,.9,0,.2,0,.4-.1.5-.1l-.4-1.8c0,0-.2,0-.3,0s-.3,0-.5,0-.5,0-.7-.1c-.2,0-.4-.2-.5-.4s-.2-.5-.2-.9v-6.1h2.3v-1.7h-2.3v-2.7h-2.2v2.7h-1.6v1.7h1.6v6.6c0,.7.2,1.2.5,1.7.3.4.7.8,1.2,1,.5.2,1,.3,1.6.3Z"/>
        <path class="cls-1" d="M691.7,77.1c0-.6.1-1.1.3-1.5s.5-.7.9-1c.4-.2.9-.3,1.4-.3.7,0,1.3.2,1.8.7.4.5.6,1.1.6,1.9v6.8h2.2v-7.1c0-.9-.2-1.7-.5-2.3-.3-.6-.8-1.1-1.3-1.4-.6-.3-1.2-.5-2-.5s-1.6.2-2.1.5c-.5.4-.9.8-1.2,1.4h-.1v-5.5h-2.1v14.9h2.2v-6.6Z"/>
        <path class="cls-1" d="M703.8,83.3c.8.5,1.7.7,2.8.7s1.5-.1,2.2-.4,1.2-.6,1.6-1.1c.4-.5.7-1,.9-1.6l-2.1-.4c-.1.3-.3.6-.6.9-.2.2-.5.4-.9.5-.3.1-.7.2-1.1.2-.6,0-1.2-.1-1.7-.4-.5-.3-.8-.7-1.1-1.2-.2-.5-.4-1.1-.4-1.7h7.9v-.8c0-1-.1-1.9-.4-2.6s-.6-1.3-1.1-1.7c-.5-.4-1-.8-1.6-1-.6-.2-1.2-.3-1.8-.3-1,0-1.9.2-2.7.7s-1.4,1.2-1.8,2c-.4.9-.6,1.9-.6,3s.2,2.2.6,3c.4.9,1,1.5,1.8,2ZM703.9,75.9c.2-.5.6-.9,1-1.2.5-.3,1-.4,1.6-.4s1.1.1,1.5.4c.4.3.7.6,1,1,.2.4.3.9.3,1.5h-5.8c0-.5.1-.9.3-1.3Z"/>
        <path class="cls-1" d="M728.5,76.7c-.4-.3-.9-.6-1.4-.8s-1-.4-1.5-.5l-1.5-.4c-.3,0-.6-.2-.9-.3s-.6-.3-.9-.4c-.3-.2-.5-.4-.7-.6s-.2-.6-.2-.9.1-.8.4-1.1.6-.6,1-.8c.4-.2,1-.3,1.6-.3s1.6.2,2.1.6c.6.4.9.9,1,1.6h2.2c0-.8-.3-1.5-.7-2.1-.4-.6-1.1-1.1-1.8-1.5-.8-.4-1.7-.5-2.7-.5s-1.9.2-2.7.5c-.8.4-1.4.9-1.9,1.5-.5.6-.7,1.4-.7,2.2s.3,1.9,1,2.5c.7.6,1.6,1.1,2.8,1.4l1.8.5c.5.1,1,.3,1.4.5s.8.4,1,.7c.2.3.4.6.4,1.1s-.1.9-.4,1.3c-.3.4-.7.6-1.2.8-.5.2-1.1.3-1.7.3s-1.1,0-1.6-.3c-.5-.2-.9-.4-1.2-.8-.3-.4-.5-.8-.5-1.3h-2.2c0,.9.3,1.7.8,2.3.5.6,1.1,1.2,1.9,1.5.8.4,1.8.5,2.9.5s2.2-.2,3-.6,1.4-.9,1.9-1.5c.4-.7.6-1.4.6-2.2s-.1-1.2-.4-1.7-.6-.9-1-1.2Z"/>
        <path class="cls-1" d="M735.5,74.8c.5-.3,1-.5,1.6-.5s1.2.2,1.7.6c.4.4.7.8.8,1.3h2.1c0-.8-.3-1.4-.7-2-.4-.6-.9-1-1.6-1.3-.7-.3-1.4-.5-2.3-.5s-2,.2-2.7.7-1.4,1.2-1.8,2c-.4.9-.6,1.9-.6,3s.2,2.1.6,3,1,1.5,1.8,2c.8.5,1.7.7,2.8.7s1.6-.2,2.3-.5c.7-.3,1.2-.8,1.6-1.3.4-.6.6-1.2.7-1.9h-2.1c0,.4-.3.7-.5,1s-.5.5-.8.7-.7.2-1.1.2c-.6,0-1.1-.2-1.6-.5-.5-.3-.8-.8-1-1.4-.2-.6-.4-1.3-.4-2.1s.1-1.5.4-2.1c.3-.6.6-1,1.1-1.3Z"/>
        <path class="cls-1" d="M752,73.8c-.5-.4-1-.8-1.6-1-.6-.2-1.2-.3-1.8-.3-1,0-1.9.2-2.7.7s-1.4,1.2-1.8,2c-.4.9-.6,1.9-.6,3s.2,2.2.6,3c.4.9,1,1.5,1.8,2,.8.5,1.7.7,2.8.7s1.5-.1,2.2-.4,1.2-.6,1.6-1.1c.4-.5.7-1,.9-1.6l-2.1-.4c-.1.3-.3.6-.6.9-.2.2-.5.4-.9.5-.3.1-.7.2-1.1.2-.6,0-1.2-.1-1.7-.4-.5-.3-.8-.7-1.1-1.2-.2-.5-.4-1.1-.4-1.7h7.9v-.8c0-1-.1-1.9-.4-2.6s-.6-1.3-1.1-1.7ZM745.7,77.2c0-.5.1-.9.3-1.3.2-.5.6-.9,1-1.2.5-.3,1-.4,1.6-.4s1.1.1,1.5.4c.4.3.7.6,1,1,.2.4.3.9.3,1.5h-5.8Z"/>
        <path class="cls-1" d="M763.5,72.9c-.6-.3-1.2-.5-2-.5s-1.5.2-2.1.5c-.5.4-1,.8-1.2,1.4h-.1v-1.8h-2.1v11.1h2.2v-6.6c0-.6.1-1.1.3-1.5s.5-.7.9-1c.4-.2.8-.3,1.3-.3.7,0,1.3.2,1.7.7s.6,1.1.6,1.9v6.8h2.2v-7.1c0-.9-.2-1.7-.5-2.3-.3-.6-.8-1.1-1.3-1.4Z"/>
        <path class="cls-1" d="M776.2,73.8c-.5-.4-1-.8-1.6-1-.6-.2-1.2-.3-1.8-.3-1,0-1.9.2-2.7.7s-1.4,1.2-1.8,2c-.4.9-.6,1.9-.6,3s.2,2.2.6,3c.4.9,1,1.5,1.8,2,.8.5,1.7.7,2.8.7s1.5-.1,2.2-.4,1.2-.6,1.6-1.1c.4-.5.7-1,.9-1.6l-2.1-.4c-.1.3-.3.6-.6.9-.2.2-.5.4-.9.5-.3.1-.7.2-1.1.2-.6,0-1.2-.1-1.7-.4-.5-.3-.8-.7-1.1-1.2-.2-.5-.4-1.1-.4-1.7h7.9v-.8c0-1-.1-1.9-.4-2.6s-.6-1.3-1.1-1.7ZM769.9,77.2c0-.5.1-.9.3-1.3.2-.5.6-.9,1-1.2.5-.3,1-.4,1.6-.4s1.1.1,1.5.4c.4.3.7.6,1,1,.2.4.3.9.3,1.5h-5.8Z"/>
        <path class="cls-1" d="M788,78.6c-.5-.5-1.3-.9-2.3-1.1l-1.8-.4c-.6-.1-1.1-.3-1.3-.6-.3-.2-.4-.5-.4-.9s.2-.8.6-1.1c.4-.3.9-.4,1.5-.4s.8,0,1.1.2c.3.1.5.3.7.6.2.2.3.5.4.7l2-.3c-.2-.9-.7-1.6-1.4-2.1s-1.6-.8-2.8-.8-1.6.1-2.2.4c-.6.3-1.2.7-1.5,1.2s-.6,1.1-.6,1.7.2,1.4.7,2,1.3.9,2.3,1.1l1.9.4c.5.1.9.3,1.2.5s.4.5.4.9-.2.8-.6,1.1c-.4.3-1,.4-1.7.4s-1.2-.1-1.6-.4c-.4-.3-.7-.7-.8-1.2l-2.1.3c.2,1,.7,1.7,1.5,2.3s1.8.8,3.1.8,1.7-.1,2.4-.4c.7-.3,1.2-.7,1.6-1.2.4-.5.6-1.1.6-1.8s-.3-1.4-.8-1.9Z"/>
        <path class="cls-1" d="M616,97.7c-.8-.5-1.7-.7-2.7-.7s-2,.2-2.7.7-1.4,1.2-1.8,2c-.4.9-.6,1.9-.6,3s.2,2.2.6,3c.4.9,1,1.5,1.8,2s1.7.7,2.7.7,2-.2,2.7-.7,1.4-1.1,1.8-2c.4-.9.6-1.9.6-3s-.2-2.2-.6-3c-.4-.9-1-1.5-1.8-2ZM616,104.7c-.2.6-.5,1.1-1,1.4-.4.4-1,.5-1.7.5s-1.2-.2-1.7-.5-.8-.8-1-1.4-.3-1.2-.3-2,.1-1.4.3-2c.2-.6.5-1.1,1-1.4.4-.4,1-.5,1.7-.5s1.2.2,1.7.5c.4.4.8.8,1,1.4.2.6.3,1.3.3,2s-.1,1.4-.3,2Z"/>
        <path class="cls-1" d="M624.9,92.7c-.6,0-1.1.1-1.6.3-.5.2-.9.6-1.2,1-.3.5-.5,1-.5,1.7v1.3h-1.7v1.7h1.7v9.4h2.2v-9.4h2.4v-1.7h-2.4v-1c0-.5.1-.9.3-1.1.2-.3.6-.4,1.1-.4s.4,0,.6,0,.3,0,.4.1l.5-1.8c-.2,0-.4-.1-.7-.2-.3,0-.7-.1-1.1-.1Z"/>
        <path class="cls-1" d="M638.6,106.4c-.1,0-.3,0-.5,0s-.5,0-.7-.1c-.2,0-.4-.2-.5-.4s-.2-.5-.2-.9v-6.1h2.3v-1.7h-2.3v-2.7h-2.2v2.7h-1.6v1.7h1.6v6.6c0,.7.2,1.2.5,1.7.3.4.7.8,1.2,1,.5.2,1,.3,1.6.3.3,0,.6,0,.9,0,.2,0,.4-.1.5-.1l-.4-1.8c0,0-.2,0-.3,0Z"/>
        <path class="cls-1" d="M649.3,97.4c-.6-.3-1.2-.5-2-.5s-1.6.2-2.1.5c-.5.4-.9.8-1.2,1.4h-.1v-5.5h-2.1v14.9h2.2v-6.6c0-.6.1-1.1.3-1.5s.5-.7.9-1c.4-.2.9-.3,1.4-.3.7,0,1.3.2,1.8.7.4.5.6,1.1.6,1.9v6.8h2.2v-7.1c0-.9-.2-1.7-.5-2.3-.3-.6-.8-1.1-1.3-1.4Z"/>
        <path class="cls-1" d="M662,98.3c-.5-.4-1-.8-1.6-1-.6-.2-1.2-.3-1.8-.3-1,0-1.9.2-2.7.7s-1.4,1.2-1.8,2c-.4.9-.6,1.9-.6,3s.2,2.2.6,3c.4.9,1,1.5,1.8,2,.8.5,1.7.7,2.8.7s1.5-.1,2.2-.4,1.2-.6,1.6-1.1c.4-.5.7-1,.9-1.6l-2.1-.4c-.1.3-.3.6-.6.9-.2.2-.5.4-.9.5-.3.1-.7.2-1.1.2-.6,0-1.2-.1-1.7-.4-.5-.3-.8-.7-1.1-1.2-.2-.5-.4-1.1-.4-1.7h7.9v-.8c0-1-.1-1.9-.4-2.6s-.6-1.3-1.1-1.7ZM655.7,101.7c0-.5.1-.9.3-1.3.2-.5.6-.9,1-1.2.5-.3,1-.4,1.6-.4s1.1.1,1.5.4c.4.3.7.6,1,1,.2.4.3.9.3,1.5h-5.8Z"/>
        <polygon class="cls-1" points="670.8 95.3 675.4 95.3 675.4 108.3 677.7 108.3 677.7 95.3 682.3 95.3 682.3 93.4 670.8 93.4 670.8 95.3"/>
        <path class="cls-1" d="M688.5,97c-.7,0-1.2.2-1.8.5s-.9.8-1.1,1.4h-.1v-1.8h-2.1v11.1h2.2v-6.8c0-.5.1-.9.3-1.3.2-.4.5-.7.9-.9.4-.2.9-.3,1.4-.3s.4,0,.7,0c.2,0,.4,0,.5,0v-2.1c-.1,0-.3,0-.4,0-.2,0-.3,0-.5,0Z"/>
        <path class="cls-1" d="M698.5,97.7c-.4-.3-.9-.5-1.4-.6-.5-.1-1-.2-1.4-.2-.7,0-1.3,0-1.9.3-.6.2-1.1.5-1.6.9s-.8,1-1.1,1.6l2,.5c.2-.4.4-.7.9-1.1s1-.5,1.7-.5,1.2.2,1.6.5c.4.3.5.8.5,1.5h0c0,.3,0,.5-.3.6s-.5.2-.9.2-1,.1-1.6.2c-.5,0-1,.2-1.6.3-.5.1-1,.3-1.4.5-.4.2-.7.6-1,1s-.4.9-.4,1.6.2,1.3.5,1.8c.3.5.8.9,1.4,1.1s1.2.4,1.9.4,1.1,0,1.6-.3c.4-.2.8-.4,1.1-.7.3-.3.5-.5.6-.8h0v1.5h2.1v-7.4c0-.8-.1-1.5-.4-2-.3-.5-.6-.9-1.1-1.2ZM697.8,104.2c0,.4-.1.9-.3,1.2-.2.4-.6.7-1,.9-.4.2-.9.4-1.5.4s-1.1-.1-1.5-.4-.6-.7-.6-1.2.1-.7.3-.9.5-.4.8-.5c.3-.1.7-.2,1.2-.3.2,0,.4,0,.7,0,.3,0,.5,0,.8-.1.3,0,.5-.1.8-.2.2,0,.4-.1.4-.2v1.4Z"/>
        <path class="cls-1" d="M710.4,98.9h-.1c-.1-.2-.3-.5-.5-.8s-.6-.6-1-.8c-.4-.2-1-.3-1.7-.3s-1.7.2-2.4.7-1.3,1.1-1.7,2-.6,1.9-.6,3.1.2,2.2.6,3.1c.4.9.9,1.5,1.7,2,.7.5,1.5.7,2.4.7s1.2-.1,1.7-.3c.4-.2.8-.5,1-.8s.4-.6.6-.8h.2v1.7h2.1v-14.9h-2.2v5.5ZM710.1,104.7c-.2.6-.6,1.1-1,1.4-.4.3-1,.5-1.6.5s-1.2-.2-1.6-.5-.8-.8-1-1.4-.3-1.3-.3-2,.1-1.4.3-2c.2-.6.5-1,1-1.4.4-.3,1-.5,1.6-.5s1.2.2,1.6.5c.4.3.8.8,1,1.4s.3,1.3.3,2-.1,1.5-.3,2.1Z"/>
        <path class="cls-1" d="M723.7,98.3c-.5-.4-1-.8-1.6-1-.6-.2-1.2-.3-1.8-.3-1,0-1.9.2-2.7.7s-1.4,1.2-1.8,2c-.4.9-.6,1.9-.6,3s.2,2.2.6,3c.4.9,1,1.5,1.8,2,.8.5,1.7.7,2.8.7s1.5-.1,2.2-.4c.6-.2,1.2-.6,1.6-1.1.4-.5.7-1,.9-1.6l-2.1-.4c-.1.3-.3.6-.6.9-.2.2-.5.4-.9.5-.3.1-.7.2-1.1.2-.6,0-1.2-.1-1.7-.4-.5-.3-.8-.7-1.1-1.2-.2-.5-.4-1.1-.4-1.7h7.9v-.8c0-1-.1-1.9-.4-2.6s-.6-1.3-1.1-1.7ZM717.3,101.7c0-.5.1-.9.3-1.3.2-.5.6-.9,1-1.2.5-.3,1-.4,1.6-.4s1.1.1,1.5.4c.4.3.7.6,1,1s.3.9.3,1.5h-5.8Z"/>
      </g>
    </g>
  </g>
</svg>