<?xml version="1.0" encoding="UTF-8"?>
<svg id="Layer_1" xmlns="http://www.w3.org/2000/svg" xmlns:xlink="http://www.w3.org/1999/xlink" viewBox="0 0 1179.11 424.66">
  <defs>
    <style>
      .cls-1 {
        fill: url(#radial-gradient-2);
      }

      .cls-2 {
        fill: url(#linear-gradient-8);
      }

      .cls-3 {
        fill: url(#linear-gradient-7);
      }

      .cls-4 {
        fill: url(#linear-gradient-5);
      }

      .cls-5 {
        fill: url(#linear-gradient-6);
      }

      .cls-6 {
        fill: url(#linear-gradient-9);
      }

      .cls-7 {
        fill: url(#linear-gradient-4);
      }

      .cls-8 {
        fill: url(#linear-gradient-3);
      }

      .cls-9 {
        fill: url(#linear-gradient-2);
      }

      .cls-10 {
        fill: url(#radial-gradient);
      }

      .cls-11 {
        fill: url(#linear-gradient);
      }

      .cls-12 {
        fill: #08062a;
      }

      .cls-13 {
        fill: url(#linear-gradient-10);
      }

      .cls-14 {
        fill: url(#linear-gradient-11);
      }

      .cls-15 {
        fill: url(#linear-gradient-12);
      }

      .cls-16 {
        fill: url(#linear-gradient-13);
      }

      .cls-17 {
        fill: url(#linear-gradient-14);
      }

      .cls-18 {
        fill: url(#linear-gradient-15);
      }

      .cls-19 {
        fill: url(#linear-gradient-16);
      }

      .cls-20 {
        fill: url(#linear-gradient-17);
      }

      .cls-21 {
        fill: url(#linear-gradient-18);
      }

      .cls-22 {
        fill: #08062a;
      }
    </style>
    <radialGradient id="radial-gradient" cx="1487.93" cy="-411.68" fx="1487.93" fy="-411.68" r="54.75" gradientTransform="translate(-1912.23 668.73) scale(1.48 1)" gradientUnits="userSpaceOnUse">
      <stop offset="0" stop-color="#008fbe" stop-opacity=".8"/>
      <stop offset=".3" stop-color="#3bafcd" stop-opacity=".51"/>
      <stop offset=".62" stop-color="#75cedc" stop-opacity=".24"/>
      <stop offset=".87" stop-color="#99e2e6" stop-opacity=".06"/>
      <stop offset="1" stop-color="#a7eaea" stop-opacity="0"/>
    </radialGradient>
    <radialGradient id="radial-gradient-2" cx="1893.29" cy="-416.57" fx="1893.29" fy="-416.57" r="54.75" xlink:href="#radial-gradient"/>
    <linearGradient id="linear-gradient" x1="-.38" y1="296.29" x2="1179.5" y2="296.29" gradientUnits="userSpaceOnUse">
      <stop offset=".16" stop-color="#008fbe" stop-opacity=".2"/>
      <stop offset=".76" stop-color="#a7eaea" stop-opacity=".8"/>
      <stop offset=".94" stop-color="#fff" stop-opacity=".8"/>
    </linearGradient>
    <linearGradient id="linear-gradient-2" x1="173.62" y1="182.88" x2="275.87" y2="182.88" gradientTransform="translate(68.69 68.77)" xlink:href="#linear-gradient"/>
    <linearGradient id="linear-gradient-3" x1="173.62" y1="194.31" x2="275.87" y2="194.31" gradientTransform="translate(68.69 68.77)" xlink:href="#linear-gradient"/>
    <linearGradient id="linear-gradient-4" x1="173.62" y1="182.89" x2="275.87" y2="182.89" gradientTransform="translate(68.69 68.77)" gradientUnits="userSpaceOnUse">
      <stop offset="0" stop-color="#008fbe" stop-opacity=".2"/>
      <stop offset=".58" stop-color="#08062a" stop-opacity=".55"/>
      <stop offset="1" stop-color="#a7eaea" stop-opacity=".8"/>
    </linearGradient>
    <linearGradient id="linear-gradient-5" x1="214.18" y1="190.88" x2="222.86" y2="190.88" gradientTransform="translate(68.69 68.77)" gradientUnits="userSpaceOnUse">
      <stop offset="0" stop-color="#008fbe" stop-opacity=".8"/>
      <stop offset=".22" stop-color="#2ca7c9" stop-opacity=".8"/>
      <stop offset=".58" stop-color="#6ecbdb" stop-opacity=".8"/>
      <stop offset=".85" stop-color="#97e1e5" stop-opacity=".8"/>
      <stop offset="1" stop-color="#a7eaea" stop-opacity=".8"/>
    </linearGradient>
    <linearGradient id="linear-gradient-6" x1="226.34" y1="177.87" x2="247.95" y2="177.87" xlink:href="#linear-gradient-5"/>
    <linearGradient id="linear-gradient-7" x1="206.74" y1="179.88" x2="239.39" y2="179.88" xlink:href="#linear-gradient-5"/>
    <linearGradient id="linear-gradient-8" x1="201.95" y1="188.47" x2="216.63" y2="188.47" xlink:href="#linear-gradient-5"/>
    <linearGradient id="linear-gradient-9" x1="173.62" y1="182.89" x2="275.87" y2="182.89" xlink:href="#linear-gradient-5"/>
    <linearGradient id="linear-gradient-10" x1="199.77" y1="178.17" x2="217.2" y2="178.17" xlink:href="#linear-gradient-5"/>
    <linearGradient id="linear-gradient-11" x1="774.17" y1="177.99" x2="876.42" y2="177.99" gradientTransform="translate(68.69 68.77)" xlink:href="#linear-gradient"/>
    <linearGradient id="linear-gradient-12" x1="774.17" y1="189.42" x2="876.42" y2="189.42" gradientTransform="translate(68.69 68.77)" xlink:href="#linear-gradient"/>
    <linearGradient id="linear-gradient-13" x1="774.17" y1="178" x2="876.42" y2="178" xlink:href="#linear-gradient-4"/>
    <linearGradient id="linear-gradient-14" x1="804.42" y1="176.49" x2="823.64" y2="176.49" xlink:href="#linear-gradient-5"/>
    <linearGradient id="linear-gradient-15" x1="792.92" y1="181.77" x2="815.98" y2="181.77" xlink:href="#linear-gradient-5"/>
    <linearGradient id="linear-gradient-16" x1="806.62" y1="171.51" x2="838.85" y2="171.51" xlink:href="#linear-gradient-5"/>
    <linearGradient id="linear-gradient-17" x1="774.17" y1="178" x2="876.42" y2="178" xlink:href="#linear-gradient-5"/>
    <linearGradient id="linear-gradient-18" x1="808.26" y1="166.08" x2="854.87" y2="166.08" xlink:href="#linear-gradient-5"/>
  </defs>
  <ellipse class="cls-10" cx="293.44" cy="257.37" rx="95.99" ry="55.74"/>
  <ellipse class="cls-1" cx="893.99" cy="252.48" rx="95.99" ry="55.74"/>
  <path class="cls-11" d="M1183.73,416.76c-14.35-8.52-28.7-17.04-43.04-25.57-34.45-20.46-68.9-40.93-103.36-61.39-41.67-24.75-83.34-49.5-125.01-74.25-35.88-21.31-71.77-42.63-107.65-63.94-17.49-10.39-34.72-21.6-52.62-31.26-.26-.14-.5-.3-.75-.45-2.82-1.67-6.41-1.63-9.24,0-33.68,19.45-67.37,38.9-101.05,58.35-53.6,30.95-107.21,61.9-160.81,92.86-12.19,7.04-24.38,14.08-36.57,21.12h9.24c-31.46-16.82-62.92-33.64-94.38-50.46l-52.35-27.99c-3.19-1.7-6.72-4.27-10.26-5.24-4.21-1.16-7.48,1.17-10.87,3.1-28.32,16.15-56.64,32.29-84.96,48.44-42.65,24.32-85.31,48.64-127.96,72.95-25.12,14.32-50.83,27.94-75.49,43.04-.39.24-.79.45-1.19.68-10.23,5.83-1.02,21.65,9.24,15.8,33.12-18.88,66.25-37.77,99.37-56.65,52.71-30.05,105.42-60.1,158.12-90.15,11.98-6.83,23.96-13.66,35.94-20.49h-9.24c31.97,17.09,63.94,34.18,95.9,51.28,17.34,9.27,34.68,18.54,52.02,27.81,5.05,2.7,10.24,6.6,16.12,3.68,1.6-.79,3.12-1.8,4.67-2.69,29.25-16.89,58.49-33.77,87.74-50.66,42.99-24.82,85.98-49.64,128.97-74.47,16.78-9.69,33.56-19.38,50.34-29.07,8.43-4.87,17.53-9.26,25.57-14.76.36-.25.78-.45,1.16-.67h-9.24c14.35,8.52,28.7,17.04,43.04,25.57,34.45,20.46,68.9,40.93,103.36,61.39,41.67,24.75,83.34,49.5,125.01,74.25,35.88,21.31,71.77,42.63,107.65,63.94,17.49,10.39,34.72,21.6,52.62,31.26.26.14.5.3.75.45,10.15,6.03,19.36-9.79,9.24-15.8h0Z"/>
  <path class="cls-12" d="M945.11,246.77c-.04-7.58-5.07-15.16-15.09-20.95-20.03-11.57-52.4-11.56-72.3,0-9.95,5.78-14.9,13.36-14.86,20.94,0,1.89.33,3.77.96,5.63-3.16,9.37,1.55,19.47,14.13,26.74,20.03,11.56,52.4,11.56,72.3,0,12.42-7.22,17.05-17.24,13.9-26.56.65-1.92.97-3.86.96-5.81Z"/>
  <path class="cls-12" d="M344.56,251.66c-.04-7.58-5.07-15.16-15.09-20.95-20.03-11.57-52.4-11.56-72.3,0-9.95,5.78-14.9,13.36-14.86,20.94,0,0,0,0,0,0,0,.47.02.95.07,1.42.12,1.41.42,2.81.89,4.2-3.16,9.37,1.55,19.47,14.13,26.74,20.03,11.56,52.4,11.56,72.3,0,12.42-7.22,17.05-17.24,13.9-26.56.65-1.92.97-3.86.96-5.81Z"/>
  <g>
    <path class="cls-9" d="M329.47,230.71c-20.03-11.57-52.4-11.56-72.3,0-19.9,11.56-19.8,30.31.24,41.88,20.03,11.56,52.4,11.56,72.3,0,19.9-11.56,19.79-30.31-.24-41.88"/>
    <path class="cls-22" d="M329.47,242.15c-20.03-11.57-52.4-11.56-72.3,0-19.9,11.56-19.8,30.31.24,41.88s52.4,11.56,72.3,0c19.9-11.56,19.79-30.31-.24-41.88"/>
    <path class="cls-8" d="M329.47,242.15c-20.03-11.57-52.4-11.56-72.3,0-19.9,11.56-19.8,30.31.24,41.88s52.4,11.56,72.3,0c19.9-11.56,19.79-30.31-.24-41.88"/>
    <path class="cls-7" d="M329.47,230.72c-20.03-11.57-52.4-11.56-72.3,0-19.9,11.56-19.8,30.31.24,41.88,20.03,11.56,52.4,11.56,72.3,0,19.9-11.56,19.79-30.31-.24-41.88"/>
    <g>
      <path class="cls-4" d="M287.48,256.69c-.88,1.64-2.38,3.25-4.61,4.74.2.05.41.1.62.15.01,0,.02,0,.03,0,.05.01.1.02.15.04.05.01.09.02.14.03.02,0,.03,0,.05.01,1.43.32,2.9.56,4.39.72.02,0,.04,0,.06,0,.06,0,.12.01.19.02.04,0,.08,0,.11.01.05,0,.1,0,.15.01.05,0,.11,0,.16.01.04,0,.07,0,.11,0,.06,0,.13.01.19.02.03,0,.06,0,.09,0,.08,0,.15.01.23.02.01,0,.03,0,.04,0,.09,0,.18.01.27.02,0,0,.01,0,.02,0,.54.04,1.09.06,1.65.08.1-.73-.1-1.66-.67-2.61-.65-1.12-1.77-2.28-3.37-3.3Z"/>
      <path class="cls-5" d="M296.45,247.47c1.92,3.63,5.53,6.54,9.21,8.67,1.48.85,2.97,1.58,4.36,2.17,2.06-1.25,3.72-2.72,4.86-4.35,0,0,.01-.02.02-.03.01-.02.03-.04.04-.06,1.15-1.67,1.72-3.44,1.71-5.21-.01-1.77-.6-3.54-1.77-5.21-.01-.02-.03-.04-.04-.06,0,0-.01-.02-.02-.02-1.23-1.72-3.04-3.28-5.29-4.57-2.26-1.3-4.95-2.35-7.94-3.05,0,0-.01,0-.01,0-.04-.01-.09-.02-.13-.03-1.43-.33-2.9-.58-4.4-.75-2.74,4.86-2.43,9.02-.6,12.5Z"/>
      <path class="cls-3" d="M286.99,247.56c1.35,2.31,1.94,4.86,1.2,7.4.2.11.39.21.58.32,2.2,1.27,3.71,2.76,4.56,4.22.63,1.07.91,2.13.82,3.08,2.55-.09,5.07-.42,7.47-.98.04,0,.07-.02.11-.02h.04c2.31-.56,4.44-1.31,6.32-2.23-1.38-.6-2.82-1.32-4.26-2.16-3.92-2.26-7.79-5.37-9.87-9.3-1.95-3.7-2.27-8.13.47-13.15-.65-.03-1.3-.05-1.94-.05-.1,0-.2,0-.3,0-.05,0-.1,0-.15,0-.05,0-.1,0-.14,0-.07,0-.14,0-.21,0-.02,0-.05,0-.07,0-.09,0-.17,0-.25,0-.01,0-.02,0-.03,0-2.58.07-5.14.38-7.58.93-.02,0-.04,0-.06.01-.04,0-.08.02-.12.03-2.69.62-5.14,1.52-7.25,2.63,0,0,0,0-.01,0-.07.03-.13.07-.2.1-.02,0-.03.02-.05.03-.05.03-.11.06-.16.09-.03.02-.06.03-.09.05-.04.02-.08.04-.12.07-.07.04-.14.08-.21.12-.01,0-.02.01-.03.02,1.47.44,2.93,1.09,4.33,1.89,2.93,1.7,5.62,4.11,7.23,6.86Z"/>
      <path class="cls-2" d="M285.11,256.02c.08-.16.15-.31.22-.47-.45-.2-.93-.39-1.43-.56-2.87-1-5.79-1.29-8.34-1.21-1.95.05-3.68.34-4.91.66.52.65,1.11,1.28,1.79,1.87,0,0,.02.02.03.03.03.03.06.05.09.08.03.03.06.05.09.08.02.01.03.03.05.04.05.04.09.08.14.12,0,0,0,0,.01,0,.82.67,1.74,1.31,2.75,1.89.09.05.19.11.28.16.01,0,.03.02.04.02,0,0,.02,0,.02.01.09.05.19.1.29.16.01,0,.02.01.03.02.09.05.18.09.27.14.02.01.04.02.07.03.1.05.2.1.3.15.02,0,.03.02.05.02.09.04.18.09.27.13.02,0,.04.02.06.03.1.05.21.1.31.15.02,0,.03.01.05.02.1.05.2.09.31.14,0,0,.02,0,.02.01.11.05.22.1.33.15.01,0,.03.01.04.02.23.1.46.19.69.28.01,0,.02,0,.04.01.24.09.47.18.72.27.01,0,.02,0,.03.01.23.08.45.16.68.24,2.35-1.48,3.83-3.08,4.64-4.7Z"/>
      <path class="cls-6" d="M329.47,230.72c-20.03-11.57-52.4-11.56-72.3,0-19.9,11.56-19.8,30.31.24,41.88,20.03,11.56,52.4,11.56,72.3,0,19.9-11.56,19.79-30.31-.24-41.88ZM265.87,247.95s0,0,0,0c0-.03,0-.06,0-.09,0-.04,0-.08.01-.12h0c.2-2.12,1.15-4.13,2.69-5.94.02-.02.03-.04.05-.06.03-.03.05-.06.08-.09.03-.04.07-.08.1-.11,0,0,.02-.02.03-.03.04-.05.08-.09.13-.14t0,0c1.24-1.34,2.81-2.57,4.65-3.64,4.03-2.35,9.36-3.94,15.32-4.4.01,0,.02,0,.03,0,.08,0,.16-.01.24-.02.04,0,.08,0,.12,0,.05,0,.11,0,.16-.01.07,0,.13,0,.2-.01.03,0,.07,0,.1,0,.1,0,.19-.01.28-.02,0,0,0,0,.01,0,1.7-.09,3.41-.08,5.11.02,0,0,0,0,0,0,.1,0,.21.01.31.02.01,0,.03,0,.04,0,.09,0,.17.01.26.02.03,0,.07,0,.1,0,.07,0,.14.01.21.02.04,0,.08,0,.12,0,.02,0,.03,0,.05,0,.02,0,.05,0,.07,0,1.92.16,3.77.44,5.54.83.03,0,.07.01.1.02.05.01.1.02.16.03.07.02.13.03.2.05.01,0,.02,0,.03,0,2.81.65,5.46,1.58,7.84,2.8h0c.07.04.15.08.22.11,0,0,0,0,.01,0,.07.04.15.08.22.12.02,0,.03.02.05.02.04.02.08.04.12.06.02.01.04.02.07.04.02,0,.03.02.04.02.04.02.08.05.13.07.02.01.04.02.07.04,0,0,.02,0,.02.01.07.04.14.08.21.12.08.04.15.09.23.14.04.02.08.05.13.08.03.02.07.04.1.06.06.03.11.07.17.1.02,0,.03.02.05.03.07.04.14.08.2.13,0,0,0,0,.01,0,2.86,1.81,4.84,3.92,5.95,6.15,0,0,0,.01.01.02.02.03.03.07.05.1.21.44.39.89.54,1.35,0,0,0,0,0,.01.02.05.03.1.05.15,0,.01,0,.03.01.04.01.04.02.08.04.13,0,.02.01.04.02.07,0,.03.02.07.03.1,0,.03.02.07.03.1,0,.02.01.05.02.07.01.04.02.09.03.13,0,.02,0,.03.01.05.01.05.02.1.03.16,0,0,0,.01,0,.02.24,1.17.24,2.36.02,3.53,0,0,0,.02,0,.02-.01.05-.02.1-.03.15,0,.02,0,.04-.01.06,0,.04-.02.08-.03.12,0,.03-.01.05-.02.08,0,.03-.02.06-.02.09,0,.03-.02.07-.03.1,0,.02-.01.04-.02.07-.01.04-.02.08-.03.13,0,.01,0,.02-.01.04-.01.05-.03.1-.05.15,0,0,0,0,0,0-.14.46-.32.92-.53,1.37-.01.03-.03.05-.04.08,0,.01-.01.03-.02.04-1.08,2.22-3.04,4.32-5.87,6.13,0,0,0,0,0,0-.07.04-.14.09-.2.13-.02.01-.04.02-.05.03-.05.03-.11.07-.16.1-.03.02-.07.04-.1.06-.04.03-.08.05-.13.08-.08.05-.15.09-.23.14-.12.07-.23.13-.35.2,0,0-.01,0-.01,0-.03.02-.07.04-.1.06-.06.03-.12.06-.17.09-.02.01-.04.02-.06.03-.07.04-.15.08-.22.12,0,0,0,0,0,0-3.04,1.61-6.57,2.73-10.3,3.38,0,0,0,0,0,0-.09.02-.18.03-.27.05-.02,0-.03,0-.05,0-.06,0-.11.02-.17.03-.77.12-1.54.23-2.32.31-.01,0-.02,0-.04,0-.08,0-.17.02-.25.03-.03,0-.05,0-.08,0-.07,0-.13.01-.2.02-.05,0-.09,0-.14.01-.05,0-.11,0-.16.01-.06,0-.11,0-.17.01-.05,0-.09,0-.13.01-.07,0-.14.01-.22.02h-.08c-.09.01-.18.02-.27.02-.01,0-.02,0-.03,0-1.46.1-2.92.12-4.39.08-.05,0-.1,0-.15,0-.04,0-.09,0-.13,0-6.72-.23-12.79-1.9-17.26-4.49,0,0,0,0,0,0,0,0,0,0-.01,0,0,0-.02,0-.02-.01-4.48-2.59-7.38-6.09-7.8-9.98v-.08s-.01-.06-.02-.09c-.05-.5-.05-.99-.01-1.49ZM328.52,263.64l-10.78,6.27c-.51.29-1.33.29-1.85,0-.51-.29-.51-.77,0-1.07l4.47-2.6-4.76-2.75c-3.04,1.64-6.53,2.93-10.38,3.83-4.09.97-8.44,1.46-12.88,1.46s-8.79-.49-12.9-1.46c-4.26-1-8.08-2.47-11.36-4.36-2.82-1.63-5.12-3.51-6.82-5.58-1.64-2-2.68-4.14-3.1-6.35-.83-4.42.94-8.92,5-12.67.39-.35,1.19-.46,1.81-.24.08.03.15.06.22.1.43.25.52.64.19.94-3.74,3.46-5.39,7.62-4.61,11.7.38,2.04,1.34,4.01,2.85,5.86,1.57,1.91,3.69,3.65,6.3,5.16,3.03,1.75,6.56,3.1,10.49,4.03,3.8.89,7.81,1.34,11.92,1.34s8.11-.45,11.89-1.34c3.93-.92,7.43-2.28,10.45-4.03,1.67-.97,3.14-2.05,4.39-3.19h0c.38-.36,1.19-.46,1.79-.24.09.03.16.07.23.11.42.24.51.63.19.94h0c-1.12,1.03-2.41,2.01-3.85,2.91l4.76,2.75,4.47-2.6c.51-.29,1.33-.29,1.85,0,.52.3.52.78.01,1.07Z"/>
      <path class="cls-13" d="M268.47,248.92s0,.06,0,.09c0,.04,0,.08,0,.12,0,.02,0,.03,0,.05,0,.05,0,.1.01.15,0,0,0,.01,0,.02.11,1.25.51,2.49,1.19,3.69,1.53-.4,3.5-.69,5.73-.77,2.99-.09,6.46.25,9.82,1.43.19.07.38.14.57.21.18-1.09.11-2.18-.18-3.25-.93-3.53-4.19-6.83-7.68-8.85,0,0-.02-.01-.03-.02-.02,0-.03-.02-.05-.03-1.45-.84-2.93-1.44-4.23-1.76-2.01,1.48-3.52,3.19-4.38,5.07,0,0,0,.01,0,.02-.02.04-.04.08-.05.12-.01.03-.02.06-.04.08,0,.02-.02.04-.03.06-.36.87-.57,1.75-.64,2.64,0,0,0,.01,0,.02,0,.05,0,.1,0,.15,0,.02,0,.03,0,.05,0,.04,0,.08,0,.11,0,0,0,0,0,0,0,.03,0,.06,0,.09,0,.02,0,.03,0,.05,0,.01,0,.02,0,.04,0,.06,0,.11,0,.17,0,.06,0,.12,0,.17,0,.03,0,.05,0,.08Z"/>
    </g>
  </g>
  <g>
    <path class="cls-14" d="M930.02,225.82c-20.03-11.57-52.4-11.56-72.3,0-19.9,11.56-19.8,30.31.24,41.88,20.03,11.56,52.4,11.56,72.3,0s19.79-30.31-.24-41.88"/>
    <path class="cls-22" d="M930.02,237.26c-20.03-11.57-52.4-11.56-72.3,0-19.9,11.56-19.8,30.31.24,41.88,20.03,11.56,52.4,11.56,72.3,0,19.9-11.56,19.79-30.31-.24-41.88"/>
    <path class="cls-15" d="M930.02,237.26c-20.03-11.57-52.4-11.56-72.3,0-19.9,11.56-19.8,30.31.24,41.88,20.03,11.56,52.4,11.56,72.3,0,19.9-11.56,19.79-30.31-.24-41.88"/>
    <path class="cls-16" d="M930.02,225.83c-20.03-11.57-52.4-11.56-72.3,0-19.9,11.56-19.8,30.31.24,41.88,20.03,11.56,52.4,11.56,72.3,0,19.9-11.56,19.79-30.31-.24-41.88"/>
    <g>
      <path class="cls-17" d="M873.5,236.08c-1.05,3.69.16,6.98,2.33,9.79,2.42,3.15,6.06,5.68,8.98,7.36.81.46,1.56.87,2.21,1.2-.17-2.84,1.6-5.72,5.32-7.91-.17.1-.34.21-.51.31l-18.33-10.75Z"/>
      <path class="cls-18" d="M882.98,254.31c-3.07-1.77-6.91-4.43-9.53-7.81-2.1-2.71-3.39-5.91-2.8-9.45-10.7,7.8-11.88,18.53-3.62,27.01.64-2.06,2.32-4.03,5.05-5.62l.06-.04c3.46-2.01,7.97-3.06,12.53-3.15-.53-.28-1.1-.59-1.7-.94Z"/>
      <path class="cls-19" d="M891.69,236.28c-4.8-1.24-10.31-1.9-16.38-1.29l18.41,10.8c3.96-1.9,8.97-2.7,13.82-2.39-.77-.52-1.73-1.13-2.86-1.79-3.13-1.81-7.6-3.94-12.99-5.33Z"/>
      <path class="cls-20" d="M930.02,225.83c-20.03-11.57-52.4-11.56-72.3,0s-19.8,30.31.24,41.88c20.03,11.56,52.4,11.56,72.3,0,19.9-11.56,19.79-30.31-.24-41.88ZM928.92,231.66c-.18.32-.7.53-1.28.52-4.26-.08-8.54.82-11.78,2.71l-.05.03h0c-4.36,2.56-5.6,6.22-3.77,9.41,0,.01.02.03.02.04,0,0,0,.01,0,.02,0,.01.01.02.01.04,0,0,0,.01,0,.02,0,.01,0,.02,0,.03,0,0,0,.01,0,.02,0,0,0,.02,0,.03s0,.02,0,.03c0,0,0,.01,0,.02,0,0,0,.02,0,.02,0,0,0,0,0,.01,0,.02,0,.04,0,.05,0,0,0,0,0,0-.04.16-.16.31-.37.43-.18.1-.4.17-.63.2,0,0-.02,0-.02,0-.02,0-.04,0-.07,0-.01,0-.03,0-.04,0-.02,0-.03,0-.05,0-.02,0-.03,0-.05,0h-.04s-.04,0-.06,0h0c-.13,0-.26-.02-.39-.04-4.98-.91-10.54-.36-14.77,1.61l14.75,8.65c.5.3.51.78,0,1.07-.51.3-1.34.29-1.85,0l-14.8-8.69c-3.5,2.26-4.73,5.28-3.71,8.08.08.16.06.34-.06.5-.18.24-.55.4-.97.44,0,0,0,0-.01,0-.01,0-.03,0-.04,0-.14.01-.29,0-.44,0-1.2-.14-2.43-.2-3.65-.18-3.93.07-7.82.97-10.81,2.7l-.06.03c-3.24,1.91-4.75,4.41-4.57,6.89.03.34-.33.65-.88.75-.48.09-1,.02-1.35-.18-.05-.03-.1-.06-.15-.1-12.04-10.02-10.49-23.86,4.8-32.83-.3.18-.6.36-.89.54l-.83-.49c-.51-.29-.51-.78,0-1.07.51-.29,1.33-.29,1.83,0,0,0,0,0,.01,0l.81.48c15.31-8.48,38.57-9.38,55.67-2.68.07.03.13.06.19.09.35.2.48.5.33.77Z"/>
      <path class="cls-21" d="M876.95,233.34c5.83-.34,11.19.37,15.8,1.57,5.8,1.5,10.48,3.75,13.77,5.64.78.45,1.47.88,2.09,1.27-.19-2.86,1.57-5.76,5.32-7.96h0s.07-.04.07-.04c2.71-1.57,6.06-2.56,9.57-2.96-14.75-4.68-33.28-3.85-46.61,2.47Z"/>
    </g>
  </g>
</svg>