<?xml version="1.0" encoding="UTF-8"?>
<svg xmlns="http://www.w3.org/2000/svg" version="1.1" viewBox="0 0 1179.1 424.7">
  <defs>
    <style>
      .cls-1 {
        fill: #08062a;
      }

      .cls-2 {
        fill: #fff;
      }
    </style>
  </defs>
  <!-- Generator: Adobe Illustrator 28.6.0, SVG Export Plug-In . SVG Version: 1.2.0 Build 709)  -->
  <g>
    <g id="Layer_1">
      <path class="cls-2" d="M604.7,238.8h-238.5c-5,0-9-4-9-9v-59.9c0-5,4-9,9-9h238.5v77.9h0Z"/>
      <path class="cls-2" d="M600.1,160.9v145c0,1.3,1,2.3,2.3,2.3s2.3-1,2.3-2.3v-145c0-1.3-1-2.3-2.3-2.3s-2.3,1-2.3,2.3h0Z"/>
      <g>
        <polygon class="cls-1" points="385.7 189.9 385.5 189.9 380.8 178.3 378 178.3 378 193.2 380.2 193.2 380.2 182.4 380.3 182.4 384.7 193.2 386.5 193.2 390.8 182.4 391 182.4 391 193.2 393.1 193.2 393.1 178.3 390.4 178.3 385.7 189.9"/>
        <path class="cls-1" d="M403.4,182.6c-.4-.3-.9-.5-1.4-.6-.5-.1-1-.2-1.4-.2-.7,0-1.3.1-1.9.3s-1.1.5-1.6.9c-.5.4-.8,1-1.1,1.6l2,.5c.2-.4.5-.8.9-1.1.4-.3,1-.5,1.7-.5s1.2.2,1.6.5.5.8.5,1.5h0c0,.3,0,.5-.3.6s-.5.2-.9.2c-.4,0-1,.1-1.6.2-.5,0-1,.2-1.5.3s-1,.3-1.4.5c-.4.2-.7.5-1,1-.2.4-.4.9-.4,1.6s.2,1.3.5,1.8c.3.5.8.9,1.4,1.2.6.3,1.2.4,1.9.4h0c.6,0,1.1,0,1.6-.2.4-.2.8-.4,1.1-.7.3-.3.5-.6.6-.8h0v1.5h2.1v-7.4c0-.8-.1-1.5-.4-2-.3-.5-.6-.9-1.1-1.2ZM402.8,189.2c0,.4-.1.9-.3,1.2-.2.4-.6.7-1,.9s-.9.4-1.5.4h0c-.6,0-1.1-.2-1.5-.4-.4-.3-.6-.7-.6-1.2s0-.7.3-.9c.2-.2.5-.4.8-.5.4-.1.7-.2,1.2-.3.2,0,.4,0,.7,0,.3,0,.5,0,.8-.1.3,0,.5,0,.8-.2.2,0,.4-.1.5-.2v1.4Z"/>
        <polygon class="cls-1" points="417.2 182 414.6 182 410.2 186.7 410 186.7 410 178.3 407.8 178.3 407.8 193.2 410 193.2 410 189.2 411.1 188.2 414.9 193.2 417.5 193.2 412.7 186.8 417.2 182"/>
        <rect class="cls-1" x="419.2" y="182" width="2.2" height="11.1"/>
        <path class="cls-1" d="M420.3,180.3c.4,0,.7-.1,1-.4.3-.2.4-.5.4-.9s-.1-.7-.4-.9c-.3-.2-.6-.4-1-.4s-.7.1-1,.4c-.3.3-.4.6-.4.9s.1.7.4.9c.3.2.6.4,1,.4Z"/>
        <path class="cls-1" d="M430.8,184.4c.4.5.6,1.1.6,1.9v6.8h2.2v-7.1c0-.9-.2-1.7-.5-2.3-.3-.6-.8-1.1-1.3-1.4-.6-.3-1.2-.5-2-.5s-1.5.2-2.1.5c-.5.4-1,.8-1.2,1.4h-.1v-1.8h-2.1v11.1h2.2v-6.6h0c0-.6.1-1.1.3-1.5.2-.4.5-.7.9-1,.4-.2.8-.3,1.3-.3.7,0,1.3.2,1.7.7Z"/>
        <path class="cls-1" d="M443.2,195.2c-.5.4-1.2.6-2,.6s-1.1,0-1.5-.2c-.4-.2-.7-.4-.9-.6-.2-.2-.4-.5-.5-.7l-1.9.8c.2.5.5.9.9,1.2.4.4.9.7,1.5.9.6.2,1.4.4,2.3.4h0c1,0,1.8-.2,2.6-.5.8-.3,1.3-.8,1.8-1.4.5-.6.7-1.4.7-2.4v-11.4h-2.1v1.8h-.2c-.1-.2-.3-.5-.5-.8-.2-.3-.6-.6-1-.8-.4-.2-1-.3-1.7-.3s-1.7.2-2.4.7c-.7.5-1.3,1.1-1.7,2-.4.8-.6,1.9-.6,3s.2,2.2.6,3c.4.8,1,1.4,1.7,1.8.7.4,1.5.6,2.4.6s1.2-.1,1.7-.3c.4-.2.8-.5,1-.8.2-.3.4-.5.6-.8h.1v2.2c0,.9-.3,1.5-.8,1.9ZM443.7,189.5c-.2.5-.6,1-1,1.3s-1,.4-1.6.4h0c-.6,0-1.2-.2-1.6-.5s-.8-.7-1-1.3c-.2-.5-.3-1.2-.3-1.9s.1-1.3.3-1.9c.2-.6.5-1,1-1.4.4-.3,1-.5,1.6-.5s1.2.2,1.6.5c.4.3.8.8,1,1.3.2.6.3,1.2.3,2s-.1,1.4-.3,2Z"/>
        <rect class="cls-1" x="454.7" y="178.3" width="2.2" height="14.9"/>
        <path class="cls-1" d="M467.1,193.2h2.2v-7.1c0-.9-.2-1.7-.5-2.3-.3-.6-.8-1.1-1.3-1.4-.6-.3-1.2-.5-2-.5s-1.5.2-2.1.5c-.5.4-.9.8-1.2,1.4h-.1v-1.8h-2.1v11.1h2.2v-6.6h0c0-.6.1-1.1.3-1.5.2-.4.5-.7.9-1,.4-.2.8-.3,1.3-.3.7,0,1.3.2,1.7.7.4.5.6,1.1.6,1.9v6.8Z"/>
        <path class="cls-1" d="M476.2,177.6c-.6,0-1.1.1-1.6.3s-.9.6-1.2,1c-.3.5-.5,1-.5,1.7v1.3h-1.7v1.7h1.7v9.4h0s2.2,0,2.2,0v-9.4h2.4v-1.7h-2.4v-1c0-.5.1-.9.3-1.1.2-.3.6-.4,1.1-.4s.4,0,.6,0c.2,0,.3,0,.4.1l.5-1.8c-.2,0-.4-.1-.7-.2s-.7-.1-1.1-.1Z"/>
        <path class="cls-1" d="M486.7,182.6c-.8-.5-1.7-.7-2.7-.7s-2,.2-2.7.7c-.8.5-1.4,1.2-1.8,2-.4.9-.6,1.9-.6,3s.2,2.2.6,3c.4.9,1,1.5,1.8,2,.8.5,1.7.7,2.7.7s2-.2,2.7-.7c.8-.5,1.4-1.1,1.8-2,.4-.9.7-1.9.7-3s-.2-2.2-.7-3-1-1.5-1.8-2ZM486.6,189.6c-.2.6-.5,1.1-1,1.4-.4.4-1,.5-1.7.5s-1.2-.2-1.7-.5c-.4-.4-.8-.8-1-1.4-.2-.6-.3-1.3-.3-2s.1-1.4.3-2c.2-.6.5-1.1,1-1.4.4-.4,1-.5,1.7-.5s1.2.2,1.7.5c.4.4.8.8,1,1.4.2.6.3,1.2.3,2s-.1,1.4-.3,2Z"/>
        <path class="cls-1" d="M493.7,186.4c0-.5.1-.9.4-1.3.2-.4.5-.7,1-.9.4-.2.9-.3,1.4-.3s.5,0,.7,0c.2,0,.4,0,.5,0v-2.1c-.1,0-.2,0-.4,0-.2,0-.4,0-.5,0-.6,0-1.2.2-1.8.5-.5.3-.9.8-1.1,1.4h-.1v-1.8h-2.1v11.1h2.2v-6.8Z"/>
        <path class="cls-1" d="M508.1,193.2v-7.1c0-.7.2-1.2.6-1.7.4-.4.9-.7,1.7-.7s1.1.2,1.5.5c.4.3.6.9.6,1.6v7.3h2.2v-7.5c0-1.3-.3-2.2-1-2.9s-1.5-1-2.5-1-1.5.2-2.1.5c-.6.4-1,.8-1.3,1.4h-.1c-.2-.6-.6-1.1-1.1-1.4-.5-.4-1.1-.5-1.9-.5s-1.4.2-1.9.5c-.5.3-.9.8-1.1,1.4h-.1v-1.8h-2.1v11.1h2.2v-6.9c0-.5.1-.9.3-1.3.2-.4.5-.7.8-.9.3-.2.7-.3,1.1-.3.6,0,1.1.2,1.5.5.4.4.6.9.6,1.5v7.4h2.2Z"/>
        <path class="cls-1" d="M519.4,192.7c.8.5,1.7.7,2.8.7h0c.8,0,1.5-.1,2.2-.4s1.2-.6,1.6-1.1c.4-.4.7-1,.9-1.6l-2-.4c-.1.3-.3.6-.6.9-.2.2-.5.4-.9.5-.3.1-.7.2-1.1.2-.6,0-1.2-.1-1.7-.4-.5-.3-.8-.7-1.1-1.2-.3-.5-.4-1.1-.4-1.8h7.9v-.8c0-1-.1-1.9-.4-2.6-.3-.7-.6-1.3-1.1-1.7-.5-.5-1-.8-1.6-1-.6-.2-1.2-.3-1.8-.3-1,0-1.9.2-2.7.7s-1.4,1.2-1.8,2c-.4.9-.6,1.9-.6,3s.2,2.2.6,3c.4.8,1,1.5,1.8,2ZM519.5,185.3c.2-.5.6-.9,1-1.2.5-.3,1-.5,1.6-.5s1,.1,1.5.4.8.6,1,1,.3,1,.3,1.5h-5.8c0-.5.1-.9.3-1.3Z"/>
        <path class="cls-1" d="M536.3,192.3c.2-.3.4-.6.6-.8h.2v1.7h2.1v-14.9h-2.2v5.5h-.1c-.1-.2-.3-.5-.5-.8-.2-.3-.6-.6-1-.8-.4-.2-1-.3-1.7-.3s-1.7.2-2.4.7c-.7.5-1.2,1.1-1.7,2-.4.9-.6,1.9-.6,3.1s.2,2.2.6,3.1c.4.9,1,1.5,1.7,2s1.5.7,2.4.7h0c.7,0,1.2-.1,1.7-.3.4-.2.8-.5,1-.8ZM532.5,191c-.4-.4-.8-.8-1-1.4-.2-.6-.3-1.3-.3-2s.1-1.4.3-2c.2-.6.5-1,1-1.4.4-.3,1-.5,1.6-.5s1.2.2,1.6.5c.4.3.8.8,1,1.4.2.6.3,1.2.3,2s-.1,1.5-.3,2.1c-.2.6-.6,1-1,1.4-.4.3-1,.5-1.6.5-.6,0-1.2-.2-1.6-.5Z"/>
        <rect class="cls-1" x="378" y="202.8" width="2.2" height="14.8"/>
        <path class="cls-1" d="M390.9,206.9c-.6-.3-1.2-.5-2-.5s-1.5.2-2.1.5c-.5.4-.9.8-1.2,1.4h-.1v-1.8h-2.1v11.1h2.2v-6.6h0c0-.6.1-1.1.3-1.5.2-.4.5-.7.9-1,.4-.2.8-.3,1.3-.3.7,0,1.3.2,1.7.7.4.5.6,1.1.6,1.9v6.8h2.2v-7.1c0-.9-.2-1.7-.5-2.3-.3-.6-.8-1.1-1.3-1.4Z"/>
        <polygon class="cls-1" points="399.5 215.1 399.4 215.1 396.6 206.6 394.3 206.6 398.3 217.7 400.7 217.7 404.7 206.6 404.7 206.5 402.4 206.5 399.5 215.1"/>
        <path class="cls-1" d="M414.4,207.7c-.5-.5-1-.8-1.6-1-.6-.2-1.2-.3-1.8-.3-1,0-1.9.2-2.7.7-.8.5-1.4,1.2-1.8,2-.4.9-.6,1.9-.6,3s.2,2.2.6,3c.4.8,1,1.5,1.8,2,.8.5,1.7.7,2.8.7h0c.8,0,1.5-.1,2.2-.4.6-.2,1.2-.6,1.6-1.1.4-.4.7-1,.9-1.6l-2-.4c-.1.3-.3.6-.6.9-.2.2-.5.4-.9.5-.3.1-.7.2-1.1.2-.6,0-1.2-.1-1.7-.4-.5-.3-.8-.7-1.1-1.2-.3-.5-.4-1.1-.4-1.8h7.9v-.8c0-1-.1-1.9-.4-2.6-.3-.7-.6-1.3-1.1-1.7ZM408,211.1c0-.5.1-.9.3-1.3s.6-.9,1-1.2c.5-.3,1-.5,1.6-.5s1,.1,1.5.4c.4.3.8.6,1,1,.2.4.3,1,.3,1.5h-5.8Z"/>
        <path class="cls-1" d="M423.8,211.4l-1.8-.4c-.6-.2-1-.3-1.3-.6-.3-.2-.4-.5-.4-.9s.2-.8.6-1c.4-.3.9-.4,1.5-.4s.8,0,1.1.2c.3.2.5.3.7.6.2.2.3.5.4.7l2-.4h0c-.2-.9-.7-1.6-1.4-2.1s-1.6-.8-2.8-.8-1.6.1-2.2.4c-.6.3-1.1.7-1.5,1.2s-.5,1.1-.5,1.7.2,1.5.7,2c.5.5,1.3.9,2.3,1.1l1.9.4c.5.1.9.3,1.2.5.3.2.4.5.4.9s-.2.8-.6,1.1c-.4.3-1,.5-1.7.5s-1.2-.1-1.6-.4c-.4-.3-.7-.7-.8-1.2l-2.1.3c.2,1,.7,1.8,1.5,2.3.8.5,1.8.8,3,.8s1.7-.2,2.4-.4,1.2-.7,1.6-1.2c.4-.5.6-1.1.6-1.8s-.2-1.4-.8-1.9-1.3-.8-2.3-1.1Z"/>
        <path class="cls-1" d="M434,215.9c-.1,0-.3,0-.5,0s-.5,0-.7-.1c-.2,0-.4-.2-.5-.4-.1-.2-.2-.5-.2-.9v-6.1h2.3v-1.7h-2.3v-2.7h-2.2v2.7h-1.6v1.7h1.6v6.6c0,.7.2,1.2.5,1.7.3.5.7.8,1.2,1,.5.2,1,.3,1.6.3s.6,0,.9,0c.2,0,.4,0,.5-.1l-.4-1.8c0,0-.2,0-.3,0Z"/>
        <path class="cls-1" d="M448.6,206.4c-.8,0-1.5.2-2.1.5-.6.4-1,.8-1.3,1.4h-.1c-.2-.6-.6-1.1-1.1-1.4-.5-.4-1.2-.5-1.9-.5s-1.4.2-1.9.5c-.5.3-.9.8-1.1,1.4h-.1v-1.8h-2.1v11.1h2.2v-6.9c0-.5.1-.9.3-1.3.2-.4.5-.7.8-.9.3-.2.7-.3,1.1-.3.6,0,1.1.2,1.5.5.4.4.6.9.6,1.5v7.4h2.2v-7.1c0-.7.2-1.2.6-1.7.4-.4.9-.7,1.6-.7s1.1.2,1.5.5c.4.3.6.9.6,1.6v7.3h2.2v-7.5c0-1.3-.3-2.2-1-2.9s-1.5-1-2.5-1Z"/>
        <path class="cls-1" d="M463,207.7c-.5-.5-1-.8-1.6-1-.6-.2-1.2-.3-1.8-.3-1,0-1.9.2-2.7.7-.8.5-1.4,1.2-1.8,2-.4.9-.6,1.9-.6,3s.2,2.2.6,3c.4.8,1,1.5,1.8,2,.8.5,1.7.7,2.8.7h0c.8,0,1.5-.1,2.2-.4.6-.2,1.2-.6,1.6-1.1.4-.4.7-1,.9-1.6l-2-.4c-.1.3-.3.6-.6.9-.2.2-.5.4-.9.5-.3.1-.7.2-1.1.2-.6,0-1.2-.1-1.7-.4-.5-.3-.8-.7-1.1-1.2-.3-.5-.4-1.1-.4-1.8h7.9v-.8c0-1-.1-1.9-.4-2.6-.3-.7-.6-1.3-1.1-1.7ZM456.6,211.1c0-.5.1-.9.3-1.3.2-.5.6-.9,1-1.2.4-.3,1-.5,1.6-.5s1,.1,1.5.4c.4.3.8.6,1,1,.2.4.4,1,.4,1.5h-5.8Z"/>
        <path class="cls-1" d="M474.4,206.9c-.6-.3-1.2-.5-2-.5s-1.5.2-2.1.5c-.5.4-1,.8-1.2,1.4h-.1v-1.8h-2.1v11.1h2.2v-6.6h0c0-.6.1-1.1.3-1.5.2-.4.5-.7.9-1,.4-.2.8-.3,1.3-.3.7,0,1.3.2,1.7.7.4.5.6,1.1.6,1.9v6.8h2.2v-7.1c0-.9-.2-1.7-.5-2.3-.3-.6-.8-1.1-1.3-1.4Z"/>
        <path class="cls-1" d="M483.8,215.9c-.1,0-.3,0-.5,0s-.5,0-.7-.1c-.2,0-.4-.2-.5-.4-.1-.2-.2-.5-.2-.9v-6.1h2.3v-1.7h-2.3v-2.7h-2.2v2.7h-1.6v1.7h1.6v6.6c0,.7.2,1.2.5,1.7.3.5.7.8,1.2,1,.5.2,1,.3,1.6.3s.6,0,.9,0c.2,0,.4,0,.5-.1l-.4-1.8c0,0-.2,0-.3,0Z"/>
        <path class="cls-1" d="M501,203.7c-1-.6-2.3-.9-3.8-.9h-5v14.8h4.8c1.5,0,2.8-.3,3.9-.9,1.1-.6,1.9-1.5,2.4-2.6.6-1.1.8-2.5.8-4s-.3-2.9-.8-4-1.4-2-2.4-2.5ZM501.5,213.2c-.4.8-.9,1.4-1.7,1.9s-1.7.6-2.8.6h-2.4v-10.9h2.6c1.1,0,2,.2,2.7.6.7.4,1.3,1,1.7,1.9.4.8.5,1.8.5,3s-.2,2.2-.6,3Z"/>
        <path class="cls-1" d="M514.9,207.7c-.5-.5-1-.8-1.6-1-.6-.2-1.2-.3-1.8-.3-1,0-1.9.2-2.7.7-.8.5-1.4,1.2-1.8,2-.4.9-.6,1.9-.6,3s.2,2.2.6,3c.4.8,1,1.5,1.8,2,.8.5,1.7.7,2.8.7h0c.8,0,1.5-.1,2.2-.4s1.2-.6,1.6-1.1c.4-.4.7-1,.9-1.6l-2-.4c-.1.3-.3.6-.6.9-.2.2-.5.4-.9.5-.3.1-.7.2-1.1.2-.6,0-1.2-.1-1.7-.4-.5-.3-.8-.7-1.1-1.2-.3-.5-.4-1.1-.4-1.8h7.9v-.8c0-1-.1-1.9-.4-2.6-.3-.7-.6-1.3-1.1-1.7ZM508.5,211.1c0-.5.1-.9.3-1.3s.6-.9,1-1.2c.5-.3,1-.5,1.6-.5s1,.1,1.5.4.8.6,1,1,.3,1,.3,1.5h-5.8Z"/>
        <path class="cls-1" d="M525.5,215.2c-.2.3-.5.5-.8.7-.3.2-.7.2-1.1.2-.6,0-1.1-.2-1.6-.5s-.8-.8-1-1.4-.4-1.3-.4-2.1.1-1.5.4-2.1c.2-.6.6-1,1-1.4s1-.5,1.6-.5,1.2.2,1.7.6.7.8.8,1.3h2.1c0-.7-.3-1.4-.7-2s-1-1-1.6-1.3c-.7-.3-1.4-.5-2.3-.5s-2,.2-2.7.7-1.4,1.2-1.8,2c-.4.9-.6,1.9-.6,3s.2,2.1.6,3c.4.9,1,1.5,1.8,2,.8.5,1.7.7,2.8.7h0c.9,0,1.6-.2,2.3-.5.7-.3,1.2-.8,1.6-1.3s.6-1.2.7-1.9h-2.1c0,.4-.2.7-.5,1Z"/>
        <rect class="cls-1" x="530.4" y="206.6" width="2.2" height="11.1"/>
        <path class="cls-1" d="M531.5,202.2c-.4,0-.7.1-1,.4-.3.3-.4.6-.4.9s.1.7.4.9c.3.2.6.4,1,.4s.7-.1,1-.4.4-.5.4-.9-.1-.7-.4-.9c-.3-.2-.6-.4-1-.4Z"/>
        <path class="cls-1" d="M541,211.4l-1.8-.4c-.6-.2-1-.3-1.3-.6-.3-.2-.4-.5-.4-.9s.2-.8.6-1,.9-.4,1.5-.4.8,0,1.1.2c.3.2.5.3.7.6s.3.5.4.7l2-.4h0c-.2-.9-.7-1.6-1.4-2.1s-1.6-.8-2.8-.8-1.6.1-2.2.4c-.6.3-1.2.7-1.5,1.2s-.5,1.1-.5,1.7.2,1.5.7,2c.5.5,1.3.9,2.3,1.1l1.9.4c.5.1.9.3,1.2.5.3.2.4.5.4.9s-.2.8-.6,1.1c-.4.3-1,.5-1.7.5s-1.2-.1-1.6-.4c-.4-.3-.7-.7-.8-1.2l-2.1.3c.2,1,.7,1.8,1.5,2.3.8.5,1.8.8,3,.8s1.7-.2,2.4-.4,1.2-.7,1.6-1.2c.4-.5.6-1.1.6-1.8s-.2-1.4-.8-1.9-1.3-.8-2.3-1.1Z"/>
        <path class="cls-1" d="M547.5,202.2c-.4,0-.7.1-1,.4-.3.3-.4.6-.4.9s.1.7.4.9c.3.2.6.4,1,.4s.7-.1,1-.4.4-.5.4-.9-.1-.7-.4-.9c-.3-.2-.6-.4-1-.4Z"/>
        <rect class="cls-1" x="546.5" y="206.6" width="2.2" height="11.1"/>
        <path class="cls-1" d="M559,207.1c-.8-.5-1.7-.7-2.7-.7s-1.9.2-2.7.7c-.8.5-1.4,1.2-1.8,2-.4.9-.7,1.9-.7,3s.2,2.2.7,3c.4.9,1,1.5,1.8,2,.8.5,1.7.7,2.7.7s2-.2,2.7-.7c.8-.5,1.4-1.1,1.8-2,.4-.9.7-1.9.7-3s-.2-2.2-.7-3-1-1.5-1.8-2ZM558.9,214.1c-.2.6-.5,1.1-1,1.4-.4.4-1,.5-1.7.5s-1.2-.2-1.7-.5c-.4-.4-.8-.8-1-1.4-.2-.6-.3-1.3-.3-2s.1-1.4.3-2c.2-.6.5-1.1,1-1.4.4-.4,1-.5,1.7-.5s1.2.2,1.7.5c.5.4.8.8,1,1.4.2.6.3,1.2.3,2s-.1,1.4-.3,2Z"/>
        <path class="cls-1" d="M571.3,206.9c-.6-.3-1.2-.5-2-.5s-1.5.2-2.1.5c-.6.4-1,.8-1.2,1.4h-.1v-1.8h-2.1v11.1h2.2v-6.6h0c0-.6.1-1.1.3-1.5.2-.4.5-.7.9-1,.4-.2.8-.3,1.3-.3.7,0,1.3.2,1.7.7s.6,1.1.6,1.9v6.8h2.2v-7.1c0-.9-.1-1.7-.5-2.3s-.8-1.1-1.3-1.4Z"/>
        <path class="cls-1" d="M583.8,212.5c-.5-.5-1.3-.8-2.3-1.1l-1.8-.4c-.6-.2-1-.3-1.3-.6-.3-.2-.4-.5-.4-.9s.2-.8.6-1,.9-.4,1.5-.4.8,0,1.1.2c.3.2.5.3.7.6s.3.5.4.7l2-.4h0c-.2-.9-.7-1.6-1.4-2.1s-1.6-.8-2.8-.8-1.6.1-2.2.4c-.6.3-1.2.7-1.5,1.2s-.5,1.1-.5,1.7.2,1.5.7,2c.5.5,1.3.9,2.3,1.1l1.9.4c.5.1.9.3,1.2.5.3.2.4.5.4.9s-.2.8-.6,1.1c-.4.3-1,.5-1.7.5s-1.2-.1-1.6-.4c-.4-.3-.7-.7-.8-1.2l-2.1.3c.2,1,.7,1.8,1.5,2.3.8.5,1.8.8,3,.8s1.7-.2,2.4-.4,1.2-.7,1.6-1.2c.4-.5.6-1.1.6-1.8s-.2-1.4-.8-1.9Z"/>
      </g>
    </g>
  </g>
</svg>