<?xml version="1.0" encoding="UTF-8"?>
<svg xmlns="http://www.w3.org/2000/svg" version="1.1" viewBox="0 0 1179.1 424.7">
  <defs>
    <style>
      .cls-1 {
        fill: #08062a;
      }

      .cls-2 {
        fill: #fff;
      }
    </style>
  </defs>
  <!-- Generator: Adobe Illustrator 28.6.0, SVG Export Plug-In . SVG Version: 1.2.0 Build 709)  -->
  <g>
    <g id="Layer_1">
      <path class="cls-2" d="M295,184.5h-116.8c-5,0-9-4-9-9v-59.9c0-5,4-9,9-9h116.8v77.9Z"/>
      <path class="cls-2" d="M290.4,106.6v145c0,1.3,1,2.3,2.3,2.3s2.3-1,2.3-2.3V106.6c0-1.3-1-2.3-2.3-2.3s-2.3,1-2.3,2.3h0Z"/>
      <g>
        <path class="cls-1" d="M198.3,136.9c-.5.2-1.1.3-1.7.3s-1.1,0-1.6-.3c-.5-.2-.9-.4-1.2-.8-.3-.4-.5-.8-.5-1.3h-2.2c0,.9.3,1.7.8,2.3.5.6,1.1,1.2,1.9,1.5.8.4,1.8.5,2.9.5s2.2-.2,3-.6,1.4-.9,1.9-1.5c.4-.7.6-1.4.6-2.2s-.1-1.2-.4-1.7-.6-.9-1-1.2c-.4-.3-.9-.6-1.4-.8s-1-.4-1.5-.5l-1.5-.4c-.3,0-.6-.2-.9-.3s-.6-.3-.9-.4c-.3-.2-.5-.4-.7-.6s-.2-.6-.2-.9.1-.8.4-1.1.6-.6,1-.8c.4-.2,1-.3,1.6-.3s1.6.2,2.1.6c.6.4.9.9,1,1.6h2.2c0-.8-.3-1.5-.7-2.1-.4-.6-1.1-1.1-1.8-1.5-.8-.4-1.7-.5-2.7-.5s-1.9.2-2.7.5c-.8.4-1.4.9-1.9,1.5-.5.6-.7,1.4-.7,2.2s.3,1.9,1,2.5c.7.6,1.6,1.1,2.8,1.4l1.8.5c.5.1,1,.3,1.4.5s.8.4,1,.7c.2.3.4.6.4,1.1s-.1.9-.4,1.3c-.3.4-.7.6-1.2.8Z"/>
        <path class="cls-1" d="M211.2,130.2c.4.5.6,1.1.6,1.9v6.8h2.2v-7.1c0-.9-.2-1.7-.5-2.3-.3-.6-.8-1.1-1.3-1.4-.6-.3-1.2-.5-2-.5s-1.6.2-2.1.5c-.5.4-.9.8-1.2,1.4h-.1v-5.5h-2.1v14.9h2.2v-6.6c0-.6.1-1.1.3-1.5s.5-.7.9-1c.4-.2.9-.3,1.4-.3.7,0,1.3.2,1.8.7Z"/>
        <path class="cls-1" d="M222.8,138.2c.3-.3.5-.5.6-.8h0v1.5h2.1v-7.4c0-.8-.1-1.5-.4-2-.3-.5-.6-.9-1.1-1.2-.4-.3-.9-.5-1.4-.6-.5-.1-1-.2-1.4-.2-.7,0-1.3,0-1.9.3-.6.2-1.1.5-1.6.9s-.8,1-1.1,1.6l2,.5c.2-.4.4-.7.9-1.1s1-.5,1.7-.5,1.2.2,1.6.5c.4.3.5.8.5,1.5h0c0,.3,0,.5-.3.6s-.5.2-.9.2-1,.1-1.6.2c-.5,0-1,.2-1.6.3-.5.1-1,.3-1.4.5-.4.2-.7.6-1,1-.2.4-.4.9-.4,1.6s.2,1.3.5,1.8.8.9,1.4,1.1c.6.3,1.2.4,1.9.4s1.1,0,1.6-.3c.4-.2.8-.4,1.1-.7ZM219.1,137c-.4-.3-.6-.7-.6-1.2s.1-.7.3-.9c.2-.2.5-.4.8-.5.3-.1.7-.2,1.1-.3.2,0,.4,0,.7,0s.5,0,.8-.1.5-.1.8-.2c.2,0,.4-.1.4-.2v1.4c0,.4-.1.9-.3,1.2-.2.4-.6.7-1,.9-.4.2-.9.4-1.5.4s-1.1-.1-1.5-.4Z"/>
        <path class="cls-1" d="M230.7,137.1h.1c.1.2.3.5.6.8.2.3.6.6,1,.8.4.2,1,.3,1.7.3s1.7-.2,2.4-.7c.7-.5,1.3-1.1,1.7-2,.4-.9.6-1.9.6-3.1s-.2-2.2-.6-3.1c-.4-.9-1-1.5-1.7-2-.7-.5-1.5-.7-2.4-.7s-1.2.1-1.7.3c-.4.2-.7.5-1,.8-.2.3-.4.6-.5.8h-.2v-1.8h-2.1v15.3h2.2v-5.9ZM231,131.3c.2-.6.5-1,1-1.4.4-.3,1-.5,1.6-.5s1.2.2,1.6.5c.4.3.8.8,1,1.4.2.6.3,1.2.3,2s-.1,1.4-.3,2-.6,1.1-1,1.4c-.4.3-1,.5-1.6.5s-1.2-.2-1.6-.5c-.4-.3-.8-.8-1-1.4-.2-.6-.3-1.3-.3-2.1s.1-1.5.3-2Z"/>
        <rect class="cls-1" x="241.1" y="127.7" width="2.2" height="11.1"/>
        <path class="cls-1" d="M242.2,126c.4,0,.7-.1,1-.4s.4-.6.4-.9-.1-.7-.4-.9-.6-.4-1-.4-.7.1-1,.4-.4.6-.4.9.1.7.4.9.6.4,1,.4Z"/>
        <path class="cls-1" d="M253.3,132.1v6.8h2.2v-7.1c0-.9-.2-1.7-.5-2.3-.3-.6-.8-1.1-1.3-1.4-.6-.3-1.2-.5-2-.5s-1.5.2-2.1.5c-.5.4-1,.8-1.2,1.4h-.1v-1.8h-2.1v11.1h2.2v-6.6c0-.6.1-1.1.3-1.5s.5-.7.9-1c.4-.2.8-.3,1.3-.3.7,0,1.3.2,1.7.7.4.5.6,1.1.6,1.9Z"/>
        <path class="cls-1" d="M265.1,140.9c-.5.4-1.2.6-2,.6s-1.1,0-1.5-.3c-.4-.2-.7-.4-.9-.6-.2-.2-.4-.5-.5-.7l-1.9.8c.2.5.5.9.9,1.3s.9.7,1.6.9c.6.2,1.4.3,2.3.3s1.8-.1,2.6-.4,1.4-.8,1.8-1.4c.4-.6.7-1.4.7-2.4v-11.4h-2.1v1.8h-.2c-.1-.2-.3-.5-.6-.8-.2-.3-.6-.6-1-.8-.4-.2-1-.3-1.7-.3s-1.7.2-2.4.7c-.7.5-1.3,1.1-1.7,1.9-.4.8-.6,1.9-.6,3s.2,2.2.6,3c.4.8,1,1.4,1.7,1.8.7.4,1.5.6,2.4.6s1.2-.1,1.7-.3c.4-.2.8-.5,1-.8s.4-.6.6-.8h.1v2.2c0,.9-.3,1.5-.8,1.9ZM265.6,135.2c-.2.5-.6,1-1,1.3-.4.3-1,.4-1.6.4s-1.2-.2-1.6-.5c-.4-.3-.8-.7-1-1.3-.2-.6-.3-1.2-.3-1.9s.1-1.4.3-1.9c.2-.6.5-1,1-1.4.4-.3,1-.5,1.6-.5s1.2.2,1.6.5.8.8,1,1.3c.2.6.3,1.2.3,2s-.1,1.4-.3,2Z"/>
        <polygon class="cls-1" points="199.3 160.1 199.1 160.1 194.4 148.5 191.6 148.5 191.6 163.4 193.8 163.4 193.8 152.6 193.9 152.6 198.3 163.4 200.1 163.4 204.4 152.6 204.6 152.6 204.6 163.4 206.7 163.4 206.7 148.5 204 148.5 199.3 160.1"/>
        <path class="cls-1" d="M217,152.8c-.4-.3-.9-.5-1.4-.6-.5-.1-1-.2-1.4-.2-.7,0-1.3,0-1.9.3-.6.2-1.1.5-1.6.9-.5.4-.8,1-1.1,1.6l2,.5c.2-.4.4-.7.9-1.1.4-.3,1-.5,1.7-.5s1.2.2,1.6.5c.4.3.5.8.5,1.5h0c0,.3,0,.5-.3.6s-.5.2-.9.2c-.4,0-1,.1-1.6.2-.5,0-1,.2-1.6.3-.5.1-1,.3-1.4.5-.4.2-.7.6-1,1-.2.4-.4.9-.4,1.6s.2,1.3.5,1.8.8.9,1.4,1.1,1.2.4,1.9.4,1.1,0,1.6-.3c.4-.2.8-.4,1.1-.7.3-.3.5-.5.6-.8h0v1.5h2.1v-7.4c0-.8-.1-1.5-.4-2-.3-.5-.6-.9-1.1-1.2ZM216.4,159.4c0,.4-.1.9-.3,1.2-.2.4-.6.7-1,.9-.4.2-.9.4-1.5.4s-1.1-.1-1.5-.4-.6-.7-.6-1.2.1-.7.3-.9c.2-.2.5-.4.8-.5.3-.1.7-.2,1.1-.3.2,0,.4,0,.7,0,.3,0,.5,0,.8-.1.3,0,.5-.1.8-.2s.4-.1.4-.2v1.4Z"/>
        <path class="cls-1" d="M226.5,152.1c-.7,0-1.2.2-1.8.5s-.9.8-1.1,1.4h-.1v-1.8h-2.1v11.1h2.2v-6.8c0-.5.1-.9.3-1.3.2-.4.5-.7.9-.9s.9-.3,1.4-.3.4,0,.7,0c.2,0,.4,0,.5,0v-2.1c-.1,0-.3,0-.4,0-.2,0-.3,0-.5,0Z"/>
        <polygon class="cls-1" points="238.7 152.3 236.1 152.3 231.6 157 231.4 157 231.4 148.5 229.3 148.5 229.3 163.4 231.4 163.4 231.4 159.4 232.5 158.4 236.3 163.4 239 163.4 234.1 157 238.7 152.3"/>
        <path class="cls-1" d="M248.2,153.4c-.5-.4-1-.8-1.6-1-.6-.2-1.2-.3-1.8-.3-1,0-1.9.2-2.7.7-.8.5-1.4,1.2-1.8,2-.4.9-.6,1.9-.6,3s.2,2.2.6,3c.4.9,1,1.5,1.8,2,.8.5,1.7.7,2.8.7s1.5-.1,2.2-.4,1.2-.6,1.6-1.1c.4-.5.7-1,.9-1.6l-2.1-.4c-.1.3-.3.6-.6.9-.2.2-.5.4-.9.5-.3.1-.7.2-1.1.2-.6,0-1.2-.1-1.7-.4-.5-.3-.8-.7-1.1-1.2-.2-.5-.4-1.1-.4-1.7h7.9v-.8c0-1-.1-1.9-.4-2.6-.3-.7-.6-1.3-1.1-1.7ZM241.9,156.8c0-.5.1-.9.3-1.3.2-.5.6-.9,1-1.2.5-.3,1-.4,1.6-.4s1.1.1,1.5.4c.4.3.7.6,1,1s.3.9.3,1.5h-5.8Z"/>
        <path class="cls-1" d="M256.9,161.6c-.1,0-.3,0-.5,0s-.5,0-.7-.1c-.2,0-.4-.2-.5-.4-.1-.2-.2-.5-.2-.9v-6.1h2.3v-1.7h-2.3v-2.7h-2.2v2.7h-1.6v1.7h1.6v6.6c0,.7.2,1.2.5,1.7.3.4.7.8,1.2,1,.5.2,1,.3,1.6.3.3,0,.6,0,.9,0s.4-.1.5-.1l-.4-1.8c0,0-.2,0-.3,0Z"/>
        <path class="cls-1" d="M267.4,158.2c-.5-.5-1.3-.9-2.3-1.1l-1.8-.4c-.6-.1-1.1-.3-1.3-.6-.3-.2-.4-.5-.4-.9s.2-.8.6-1.1c.4-.3.9-.4,1.5-.4s.8,0,1.1.2c.3.1.5.3.7.6.2.2.3.5.4.7l2-.3c-.2-.9-.7-1.6-1.4-2.1-.7-.5-1.6-.8-2.8-.8s-1.6.1-2.2.4c-.6.3-1.2.7-1.5,1.2s-.6,1.1-.6,1.7.2,1.4.7,2c.5.5,1.3.9,2.3,1.1l1.9.4c.5.1.9.3,1.2.5s.4.5.4.9-.2.8-.6,1.1-1,.4-1.7.4-1.2-.1-1.6-.4c-.4-.3-.7-.7-.8-1.2l-2.1.3c.2,1,.7,1.7,1.5,2.3s1.8.8,3.1.8,1.7-.1,2.4-.4,1.2-.7,1.6-1.2.6-1.1.6-1.8-.3-1.4-.8-1.9Z"/>
      </g>
    </g>
  </g>
</svg>