<?xml version="1.0" encoding="UTF-8"?>
<svg xmlns="http://www.w3.org/2000/svg" version="1.1" viewBox="0 0 1179.1 424.7">
  <defs>
    <style>
      .cls-1 {
        fill: #08062a;
      }

      .cls-2 {
        fill: #fff;
      }
    </style>
  </defs>
  <!-- Generator: Adobe Illustrator 28.6.0, SVG Export Plug-In . SVG Version: 1.2.0 Build 709)  -->
  <g>
    <g id="Layer_1">
      <path class="cls-2" d="M195.5,239.1H58c-5,0-9-4-9-9v-59.9c0-5,4-9,9-9h137.5v77.9Z"/>
      <path class="cls-2" d="M190.9,161.2v145c0,1.3,1,2.3,2.3,2.3s2.3-1,2.3-2.3v-145c0-1.3-1-2.3-2.3-2.3s-2.3,1-2.3,2.3h0Z"/>
      <g>
        <path class="cls-1" d="M81.4,179.2c-.8-.4-1.7-.6-2.9-.6h-5.3v14.9h2.2v-5.2h3c1.2,0,2.1-.2,2.9-.6.8-.4,1.3-1,1.7-1.7s.6-1.5.6-2.5-.2-1.7-.6-2.5c-.4-.7-.9-1.3-1.7-1.7ZM81.1,184.9c-.2.4-.5.8-1,1-.5.3-1,.4-1.8.4h-2.8v-5.8h2.8c.7,0,1.3.1,1.8.4.5.2.8.6,1,1,.2.4.3.9.3,1.5s-.1,1.1-.3,1.5Z"/>
        <path class="cls-1" d="M91.2,182.1c-.7,0-1.2.2-1.8.5s-.9.8-1.1,1.4h-.1v-1.8h-2.1v11.1h2.2v-6.8c0-.5.1-.9.3-1.3.2-.4.5-.7.9-.9.4-.2.9-.3,1.4-.3s.4,0,.7,0,.4,0,.5,0v-2.1c-.1,0-.3,0-.4,0s-.3,0-.5,0Z"/>
        <path class="cls-1" d="M101,182.9c-.8-.5-1.7-.7-2.7-.7s-2,.2-2.7.7-1.4,1.2-1.8,2c-.4.9-.6,1.9-.6,3s.2,2.2.6,3,1,1.5,1.8,2,1.7.7,2.7.7,2-.2,2.7-.7,1.4-1.1,1.8-2,.6-1.9.6-3-.2-2.2-.6-3c-.4-.9-1-1.5-1.8-2ZM100.9,189.9c-.2.6-.5,1.1-1,1.4s-1,.5-1.7.5-1.2-.2-1.7-.5c-.4-.4-.8-.8-1-1.4-.2-.6-.3-1.2-.3-2s.1-1.4.3-2c.2-.6.5-1.1,1-1.4.4-.4,1-.5,1.7-.5s1.2.2,1.7.5c.4.4.8.8,1,1.4.2.6.3,1.3.3,2s-.1,1.4-.3,2Z"/>
        <path class="cls-1" d="M106.6,190.6c0,.7.2,1.2.5,1.7.3.4.7.8,1.2,1,.5.2,1,.3,1.6.3.3,0,.6,0,.9,0s.4-.1.5-.1l-.4-1.8c0,0-.2,0-.3,0-.1,0-.3,0-.5,0s-.5,0-.7-.1c-.2,0-.4-.2-.5-.4-.1-.2-.2-.5-.2-.9v-6.1h2.3v-1.7h-2.3v-2.7h-2.2v2.7h-1.6v1.7h1.6v6.6Z"/>
        <path class="cls-1" d="M115.3,193c.8.5,1.7.7,2.8.7s1.5-.1,2.2-.4,1.2-.6,1.6-1.1c.4-.5.7-1,.9-1.6l-2.1-.4c-.1.3-.3.6-.6.9-.2.2-.5.4-.9.5-.3.1-.7.2-1.1.2-.6,0-1.2-.1-1.7-.4-.5-.3-.8-.7-1.1-1.2-.2-.5-.4-1.1-.4-1.7h7.9v-.8c0-1-.1-1.9-.4-2.6-.3-.7-.6-1.3-1.1-1.7-.5-.4-1-.8-1.6-1-.6-.2-1.2-.3-1.8-.3-1,0-1.9.2-2.7.7-.8.5-1.4,1.2-1.8,2-.4.9-.6,1.9-.6,3s.2,2.2.6,3c.4.9,1,1.5,1.8,2ZM115.4,185.6c.2-.5.6-.9,1-1.2.5-.3,1-.4,1.6-.4s1.1.1,1.5.4c.4.3.7.6,1,1s.3.9.3,1.5h-5.8c0-.5.1-.9.3-1.3Z"/>
        <path class="cls-1" d="M128.5,184.5c.5-.3,1-.5,1.6-.5s1.2.2,1.7.6c.4.4.7.8.8,1.3h2.1c0-.8-.3-1.4-.7-2-.4-.6-.9-1-1.6-1.3-.7-.3-1.4-.5-2.3-.5s-2,.2-2.7.7-1.4,1.2-1.8,2c-.4.9-.6,1.9-.6,3s.2,2.1.6,3c.4.9,1,1.5,1.8,2,.8.5,1.7.7,2.8.7s1.6-.2,2.3-.5c.7-.3,1.2-.8,1.6-1.3.4-.6.6-1.2.7-1.9h-2.1c0,.4-.3.7-.5,1s-.5.5-.8.7c-.3.2-.7.2-1.1.2-.6,0-1.1-.2-1.6-.5-.5-.3-.8-.8-1-1.4s-.4-1.3-.4-2.1.1-1.5.4-2.1c.3-.6.6-1,1.1-1.3Z"/>
        <path class="cls-1" d="M141.6,191.6c-.1,0-.3,0-.5,0s-.5,0-.7-.1c-.2,0-.4-.2-.5-.4-.1-.2-.2-.5-.2-.9v-6.1h2.3v-1.7h-2.3v-2.7h-2.2v2.7h-1.6v1.7h1.6v6.6c0,.7.2,1.2.5,1.7.3.4.7.8,1.2,1,.5.2,1,.3,1.6.3.3,0,.6,0,.9,0s.4-.1.5-.1l-.4-1.8c0,0-.2,0-.3,0Z"/>
        <rect class="cls-1" x="144.5" y="182.3" width="2.2" height="11.1"/>
        <path class="cls-1" d="M145.6,178c-.4,0-.7.1-1,.4-.3.3-.4.6-.4.9s.1.7.4.9c.3.3.6.4,1,.4s.7-.1,1-.4c.3-.3.4-.6.4-.9s-.1-.7-.4-.9c-.3-.3-.6-.4-1-.4Z"/>
        <path class="cls-1" d="M157.1,182.6c-.6-.3-1.2-.5-2-.5s-1.5.2-2.1.5c-.5.4-1,.8-1.2,1.4h-.1v-1.8h-2.1v11.1h2.2v-6.6c0-.6.1-1.1.3-1.5s.5-.7.9-1c.4-.2.8-.3,1.3-.3.7,0,1.3.2,1.7.7.4.5.6,1.1.6,1.9v6.8h2.2v-7.1c0-.9-.2-1.7-.5-2.3-.3-.6-.8-1.1-1.3-1.4Z"/>
        <path class="cls-1" d="M169.4,182.3v1.8h-.2c-.1-.2-.3-.5-.6-.8-.2-.3-.6-.6-1-.8-.4-.2-1-.3-1.7-.3s-1.7.2-2.4.7c-.7.5-1.3,1.1-1.7,1.9s-.6,1.9-.6,3,.2,2.2.6,3c.4.8,1,1.4,1.7,1.8.7.4,1.5.6,2.4.6s1.2-.1,1.7-.3c.4-.2.8-.5,1-.8s.4-.6.6-.8h.1v2.2c0,.9-.3,1.5-.8,1.9-.5.4-1.2.6-2,.6s-1.1,0-1.5-.3-.7-.4-.9-.6c-.2-.2-.4-.5-.5-.7l-1.9.8c.2.5.5.9.9,1.3s.9.7,1.6.9c.6.2,1.4.3,2.3.3s1.8-.1,2.6-.4c.8-.3,1.4-.8,1.8-1.4.4-.6.7-1.4.7-2.4v-11.4h-2.1ZM169,189.8c-.2.5-.6,1-1,1.3-.4.3-1,.4-1.6.4s-1.2-.2-1.6-.5c-.4-.3-.8-.7-1-1.3-.2-.6-.3-1.2-.3-1.9s.1-1.4.3-1.9c.2-.6.5-1,1-1.4s1-.5,1.6-.5,1.2.2,1.6.5c.4.3.8.8,1,1.3.2.6.3,1.2.3,2s-.1,1.4-.3,2Z"/>
        <path class="cls-1" d="M81.4,203.7c-.8-.4-1.7-.6-2.9-.6h-5.3v14.9h2.2v-5.2h3c1.2,0,2.1-.2,2.9-.6.8-.4,1.3-1,1.7-1.7s.6-1.5.6-2.5-.2-1.7-.6-2.5c-.4-.7-.9-1.3-1.7-1.7ZM81.1,209.4c-.2.4-.5.8-1,1-.5.3-1,.4-1.8.4h-2.8v-5.8h2.8c.7,0,1.3.1,1.8.4.5.2.8.6,1,1,.2.4.3.9.3,1.5s-.1,1.1-.3,1.5Z"/>
        <path class="cls-1" d="M91.2,206.6c-.7,0-1.2.2-1.8.5s-.9.8-1.1,1.4h-.1v-1.8h-2.1v11.1h2.2v-6.8c0-.5.1-.9.3-1.3.2-.4.5-.7.9-.9.4-.2.9-.3,1.4-.3s.4,0,.7,0,.4,0,.5,0v-2.1c-.1,0-.3,0-.4,0s-.3,0-.5,0Z"/>
        <path class="cls-1" d="M101,207.4c-.8-.5-1.7-.7-2.7-.7s-2,.2-2.7.7-1.4,1.2-1.8,2c-.4.9-.6,1.9-.6,3s.2,2.2.6,3,1,1.5,1.8,2,1.7.7,2.7.7,2-.2,2.7-.7,1.4-1.1,1.8-2,.6-1.9.6-3-.2-2.2-.6-3c-.4-.9-1-1.5-1.8-2ZM100.9,214.4c-.2.6-.5,1.1-1,1.4s-1,.5-1.7.5-1.2-.2-1.7-.5c-.4-.4-.8-.8-1-1.4-.2-.6-.3-1.2-.3-2s.1-1.4.3-2c.2-.6.5-1.1,1-1.4.4-.4,1-.5,1.7-.5s1.2.2,1.7.5c.4.4.8.8,1,1.4.2.6.3,1.3.3,2s-.1,1.4-.3,2Z"/>
        <path class="cls-1" d="M109.9,202.4c-.6,0-1.1.1-1.6.3-.5.2-.9.6-1.2,1-.3.5-.5,1-.5,1.7v1.3h-1.7v1.7h1.7v9.4h2.2v-9.4h2.4v-1.7h-2.4v-1c0-.5.1-.9.3-1.1.2-.3.6-.4,1.1-.4s.4,0,.6,0c.2,0,.3,0,.4.1l.5-1.8c-.1,0-.4-.1-.7-.2-.3,0-.7-.1-1.1-.1Z"/>
        <path class="cls-1" d="M114.5,202.5c-.4,0-.7.1-1,.4-.3.3-.4.6-.4.9s.1.7.4.9c.3.3.6.4,1,.4s.7-.1,1-.4c.3-.3.4-.6.4-.9s-.1-.7-.4-.9c-.3-.3-.6-.4-1-.4Z"/>
        <rect class="cls-1" x="113.4" y="206.8" width="2.2" height="11.1"/>
        <path class="cls-1" d="M123.2,216.1c-.1,0-.3,0-.5,0s-.5,0-.7-.1c-.2,0-.4-.2-.5-.4-.1-.2-.2-.5-.2-.9v-6.1h2.3v-1.7h-2.3v-2.7h-2.2v2.7h-1.6v1.7h1.6v6.6c0,.7.2,1.2.5,1.7.3.4.7.8,1.2,1,.5.2,1,.3,1.6.3.3,0,.6,0,.9,0s.4-.1.5-.1l-.4-1.8c0,0-.2,0-.3,0Z"/>
        <path class="cls-1" d="M131.4,211.7l-1.8-.4c-.6-.1-1.1-.3-1.3-.6-.3-.2-.4-.5-.4-.9s.2-.8.6-1.1c.4-.3.9-.4,1.5-.4s.8,0,1.1.2c.3.1.5.3.7.6.2.2.3.5.4.7l2-.3c-.2-.9-.7-1.6-1.4-2.1-.7-.5-1.6-.8-2.8-.8s-1.6.1-2.2.4c-.6.3-1.2.7-1.5,1.2s-.6,1.1-.6,1.7.2,1.4.7,2c.5.5,1.3.9,2.3,1.1l1.9.4c.5.1.9.3,1.2.5s.4.5.4.9-.2.8-.6,1.1-1,.4-1.7.4-1.2-.1-1.6-.4c-.4-.3-.7-.7-.8-1.2l-2.1.3c.2,1,.7,1.7,1.5,2.3s1.8.8,3.1.8,1.7-.1,2.4-.4,1.2-.7,1.6-1.2.6-1.1.6-1.8-.3-1.4-.8-1.9c-.5-.5-1.3-.9-2.3-1.1Z"/>
      </g>
    </g>
  </g>
</svg>