<?xml version="1.0" encoding="UTF-8"?>
<svg id="Layer_1" xmlns="http://www.w3.org/2000/svg" xmlns:xlink="http://www.w3.org/1999/xlink" viewBox="0 0 1179.11 424.66">
  <defs>
    <style>
      .cls-1 {
        fill: url(#linear-gradient-8);
      }

      .cls-2 {
        fill: url(#linear-gradient-7);
      }

      .cls-3 {
        fill: url(#linear-gradient-5);
      }

      .cls-4 {
        fill: url(#linear-gradient-6);
      }

      .cls-5 {
        fill: url(#linear-gradient-9);
      }

      .cls-6 {
        fill: url(#linear-gradient-4);
      }

      .cls-7 {
        fill: url(#linear-gradient-3);
      }

      .cls-8 {
        fill: url(#linear-gradient-2);
      }

      .cls-9 {
        fill: url(#radial-gradient);
      }

      .cls-10 {
        fill: url(#linear-gradient);
      }

      .cls-11 {
        fill: url(#linear-gradient-10);
      }

      .cls-12 {
        fill: url(#linear-gradient-11);
      }

      .cls-13 {
        fill: #08062a;
      }
    </style>
    <radialGradient id="radial-gradient" cx="2322.03" cy="270.75" fx="2322.03" fy="270.75" r="54.75" gradientTransform="translate(-2633.63 -68.77) scale(1.48 1)" gradientUnits="userSpaceOnUse">
      <stop offset="0" stop-color="#008fbe" stop-opacity=".8"/>
      <stop offset=".3" stop-color="#3bafcd" stop-opacity=".51"/>
      <stop offset=".62" stop-color="#75cedc" stop-opacity=".24"/>
      <stop offset=".87" stop-color="#99e2e6" stop-opacity=".06"/>
      <stop offset="1" stop-color="#a7eaea" stop-opacity="0"/>
    </radialGradient>
    <linearGradient id="linear-gradient" x1="687.89" y1="265.34" x2="790.13" y2="265.34" gradientTransform="translate(68.77 -68.77)" gradientUnits="userSpaceOnUse">
      <stop offset=".16" stop-color="#008fbe" stop-opacity=".2"/>
      <stop offset=".76" stop-color="#a7eaea" stop-opacity=".8"/>
      <stop offset=".94" stop-color="#fff" stop-opacity=".8"/>
    </linearGradient>
    <linearGradient id="linear-gradient-2" y1="276.77" y2="276.77" xlink:href="#linear-gradient"/>
    <linearGradient id="linear-gradient-3" x1="687.89" y1="265.35" x2="790.13" y2="265.35" gradientTransform="translate(68.77 -68.77)" gradientUnits="userSpaceOnUse">
      <stop offset="0" stop-color="#008fbe" stop-opacity=".2"/>
      <stop offset=".58" stop-color="#08062a" stop-opacity=".55"/>
      <stop offset="1" stop-color="#a7eaea" stop-opacity=".8"/>
    </linearGradient>
    <linearGradient id="linear-gradient-4" x1="706.34" y1="268.99" x2="724.94" y2="268.99" gradientTransform="translate(68.77 -68.77)" gradientUnits="userSpaceOnUse">
      <stop offset="0" stop-color="#008fbe" stop-opacity=".8"/>
      <stop offset=".22" stop-color="#2ca7c9" stop-opacity=".8"/>
      <stop offset=".58" stop-color="#6ecbdb" stop-opacity=".8"/>
      <stop offset=".85" stop-color="#97e1e5" stop-opacity=".8"/>
      <stop offset="1" stop-color="#a7eaea" stop-opacity=".8"/>
    </linearGradient>
    <linearGradient id="linear-gradient-5" x1="746.88" y1="275.1" x2="765.47" y2="275.1" xlink:href="#linear-gradient-4"/>
    <linearGradient id="linear-gradient-6" x1="735.81" y1="251.78" x2="754.41" y2="251.78" xlink:href="#linear-gradient-4"/>
    <linearGradient id="linear-gradient-7" x1="712.65" y1="255.4" x2="731.24" y2="255.4" xlink:href="#linear-gradient-4"/>
    <linearGradient id="linear-gradient-8" x1="723.54" y1="278.92" x2="742.14" y2="278.92" xlink:href="#linear-gradient-4"/>
    <linearGradient id="linear-gradient-9" x1="687.89" y1="265.35" x2="790.13" y2="265.35" xlink:href="#linear-gradient-4"/>
    <linearGradient id="linear-gradient-10" x1="753.09" y1="261.62" x2="771.68" y2="261.62" xlink:href="#linear-gradient-4"/>
    <linearGradient id="linear-gradient-11" x1="736" y1="265.31" x2="742.42" y2="265.31" xlink:href="#linear-gradient-4"/>
  </defs>
  <ellipse class="cls-9" cx="807.78" cy="202.29" rx="95.99" ry="55.74"/>
  <g>
    <path class="cls-10" d="M843.81,175.63c-20.03-11.57-52.4-11.56-72.3,0-19.9,11.56-19.8,30.31.24,41.88,20.03,11.56,52.4,11.56,72.3,0,19.9-11.56,19.79-30.31-.24-41.88"/>
    <path class="cls-13" d="M843.81,187.07c-20.03-11.57-52.4-11.56-72.3,0-19.9,11.56-19.8,30.31.24,41.88,20.03,11.56,52.4,11.56,72.3,0,19.9-11.56,19.79-30.31-.24-41.88"/>
    <path class="cls-8" d="M843.81,187.07c-20.03-11.57-52.4-11.56-72.3,0-19.9,11.56-19.8,30.31.24,41.88,20.03,11.56,52.4,11.56,72.3,0,19.9-11.56,19.79-30.31-.24-41.88"/>
    <path class="cls-7" d="M843.81,175.65c-20.03-11.57-52.4-11.56-72.3,0-19.9,11.56-19.8,30.31.24,41.88,20.03,11.56,52.4,11.56,72.3,0,19.9-11.56,19.79-30.31-.24-41.88"/>
    <g>
      <path class="cls-6" d="M793.47,199.03c-.42-1.03-1.3-1.91-2.5-2.61-2.18-1.25-5.36-1.86-8.57-1.46-1.81.23-3.37.74-4.58,1.45-2.15,1.26-3.2,3.1-2.49,4.96.4,1.05,1.3,1.95,2.52,2.66,2.18,1.26,5.36,1.87,8.56,1.46,1.81-.23,3.37-.74,4.59-1.45,2.14-1.24,3.18-3.06,2.51-4.9-.02-.03-.03-.07-.04-.1Z"/>
      <path class="cls-3" d="M815.65,206.33c.01,1.38.92,2.76,2.75,3.81,1.82,1.05,4.2,1.57,6.58,1.57s4.74-.52,6.56-1.58c1.81-1.05,2.71-2.43,2.7-3.8s-.92-2.76-2.74-3.81c-1.83-1.05-4.2-1.57-6.59-1.58-2.38,0-4.74.52-6.56,1.58-1.81,1.05-2.71,2.43-2.7,3.8Z"/>
      <path class="cls-4" d="M812.14,188.3c3.15.35,6.23-.26,8.34-1.49,1.24-.72,2.14-1.64,2.51-2.72.65-1.85-.41-3.66-2.57-4.9-1.25-.72-2.85-1.24-4.71-1.46-3.18-.38-6.31.23-8.44,1.47-1.24.72-2.14,1.64-2.51,2.72-.65,1.85.42,3.66,2.57,4.9,1.23.71,2.8,1.22,4.61,1.45.06,0,.13.01.19.02Z"/>
      <path class="cls-2" d="M800,186.64c-.01-1.38-.92-2.76-2.75-3.81-1.82-1.05-4.2-1.57-6.58-1.57s-4.74.52-6.56,1.57c-1.81,1.06-2.7,2.43-2.7,3.81,0,1.38.92,2.76,2.74,3.81,1.83,1.05,4.2,1.58,6.59,1.58,2.38,0,4.74-.52,6.56-1.58,1.81-1.05,2.71-2.43,2.7-3.8Z"/>
      <path class="cls-1" d="M795.01,206.35c-1.24.72-2.14,1.65-2.51,2.72-.64,1.84.42,3.65,2.57,4.89,1.25.72,2.85,1.24,4.71,1.47,3.18.38,6.31-.24,8.44-1.47,1.24-.72,2.13-1.64,2.51-2.72.64-1.84-.43-3.66-2.57-4.9-1.25-.72-2.85-1.24-4.71-1.46-3.18-.38-6.31.23-8.44,1.47Z"/>
      <path class="cls-5" d="M843.81,175.65c-20.03-11.57-52.4-11.56-72.3,0s-19.8,30.31.24,41.88c20.03,11.56,52.4,11.56,72.3,0,19.9-11.56,19.79-30.31-.24-41.88ZM839.6,197.73c-1.55.9-3.57,1.57-5.88,1.85-4.11.52-8.2-.26-10.98-1.86-1.24-.72-2.22-1.6-2.83-2.6l-6.13,1.17c.09.7-.2,1.41-.86,2.03l4.54,2.62c4.67-2.18,11.52-2,15.87.51,4.66,2.69,4.69,7.06.05,9.75-4.64,2.69-12.18,2.69-16.84,0-4.35-2.51-4.67-6.48-.93-9.19l-4.54-2.62c-1.06.39-2.3.55-3.51.5l-2.17,3.72c1.77.35,3.34.92,4.6,1.65,2.75,1.58,4.11,3.91,3.29,6.27-.48,1.37-1.63,2.57-3.21,3.49-2.73,1.58-6.75,2.37-10.82,1.88-2.36-.28-4.43-.95-6.03-1.87-2.74-1.58-4.1-3.91-3.28-6.27.48-1.37,1.63-2.56,3.22-3.48,2.47-1.43,6-2.21,9.67-1.99l2.25-3.84c-.43-.14-.83-.32-1.2-.53-.44-.25-.79-.53-1.06-.83l-6.59,1.33c.45,2.15-.88,4.23-3.38,5.68-1.55.9-3.57,1.57-5.87,1.86-4.11.52-8.2-.26-10.98-1.87-1.56-.9-2.72-2.07-3.23-3.41-.9-2.38.43-4.75,3.19-6.35,1.55-.9,3.56-1.57,5.87-1.86,4.11-.52,8.2.27,10.97,1.87,1.24.71,2.22,1.59,2.83,2.59l6.53-1.32c-.03-.65.26-1.3.87-1.87l-4.83-2.74c-4.66,2.18-11.52,2.01-15.88-.5-4.67-2.69-4.69-7.06-.06-9.75,4.64-2.69,12.17-2.69,16.84,0,4.35,2.51,4.67,6.48.93,9.19l4.83,2.74c.98-.36,2.11-.53,3.23-.52l2.02-3.61c-1.78-.35-3.35-.93-4.61-1.66,0,0-.01,0-.02-.01-2.74-1.58-4.09-3.91-3.27-6.26.48-1.37,1.63-2.57,3.21-3.49,2.72-1.58,6.75-2.37,10.82-1.88,2.36.28,4.43.95,6.02,1.87,2.75,1.58,4.11,3.91,3.29,6.27-.48,1.37-1.63,2.57-3.21,3.49-2.47,1.43-5.99,2.21-9.66,1.99l-2.05,3.66c.52.16,1.01.36,1.45.61.37.21.68.45.93.7l6.31-1.21c-.44-2.15.89-4.22,3.39-5.67,1.55-.9,3.56-1.57,5.87-1.86,4.11-.52,8.2.27,10.97,1.87,1.56.9,2.72,2.07,3.23,3.41.91,2.39-.42,4.75-3.18,6.35Z"/>
      <path class="cls-11" d="M837.71,189.04c-2.18-1.25-5.36-1.86-8.57-1.46-1.81.23-3.37.74-4.58,1.45-2.15,1.26-3.2,3.1-2.49,4.96.4,1.05,1.3,1.95,2.52,2.66,2.17,1.25,5.36,1.87,8.56,1.46,1.81-.23,3.37-.75,4.59-1.45,2.16-1.25,3.2-3.09,2.49-4.95-.41-1.05-1.3-1.95-2.52-2.66Z"/>
      <path class="cls-12" d="M810.24,195.22c-1.26-.73-3.29-.73-4.54,0s-1.24,1.9.01,2.63c1.26.72,3.29.72,4.54,0,1.25-.73,1.25-1.9,0-2.63Z"/>
    </g>
  </g>
</svg>