<?xml version="1.0" encoding="UTF-8"?>
<svg id="Layer_1" xmlns="http://www.w3.org/2000/svg" xmlns:xlink="http://www.w3.org/1999/xlink" viewBox="0 0 1179.11 424.66">
  <defs>
    <style>
      .cls-1 {
        fill: url(#linear-gradient-8);
      }

      .cls-2 {
        fill: url(#linear-gradient-7);
      }

      .cls-3 {
        fill: url(#linear-gradient-5);
      }

      .cls-4 {
        fill: url(#linear-gradient-6);
      }

      .cls-5 {
        fill: url(#linear-gradient-9);
      }

      .cls-6 {
        fill: url(#linear-gradient-4);
      }

      .cls-7 {
        fill: url(#linear-gradient-3);
      }

      .cls-8 {
        fill: url(#linear-gradient-2);
      }

      .cls-9 {
        fill: url(#radial-gradient);
      }

      .cls-10 {
        fill: url(#linear-gradient);
      }

      .cls-11 {
        fill: #08062a;
      }
    </style>
    <radialGradient id="radial-gradient" cx="1685.43" cy="-625.68" fx="1685.43" fy="-625.68" r="54.75" gradientTransform="translate(-1604.28 880.89) scale(1.48 1)" gradientUnits="userSpaceOnUse">
      <stop offset="0" stop-color="#008fbe" stop-opacity=".8"/>
      <stop offset=".3" stop-color="#3bafcd" stop-opacity=".51"/>
      <stop offset=".62" stop-color="#75cedc" stop-opacity=".24"/>
      <stop offset=".87" stop-color="#99e2e6" stop-opacity=".06"/>
      <stop offset="1" stop-color="#a7eaea" stop-opacity="0"/>
    </radialGradient>
    <linearGradient id="linear-gradient" x1="774.07" y1="318.52" x2="876.32" y2="318.52" gradientTransform="translate(68.8 -68.72)" gradientUnits="userSpaceOnUse">
      <stop offset=".16" stop-color="#008fbe" stop-opacity=".2"/>
      <stop offset=".76" stop-color="#a7eaea" stop-opacity=".8"/>
      <stop offset=".94" stop-color="#fff" stop-opacity=".8"/>
    </linearGradient>
    <linearGradient id="linear-gradient-2" y1="329.95" y2="329.95" xlink:href="#linear-gradient"/>
    <linearGradient id="linear-gradient-3" x1="774.07" y1="318.53" x2="876.32" y2="318.53" gradientTransform="translate(68.8 -68.72)" gradientUnits="userSpaceOnUse">
      <stop offset="0" stop-color="#008fbe" stop-opacity=".2"/>
      <stop offset=".58" stop-color="#08062a" stop-opacity=".55"/>
      <stop offset="1" stop-color="#a7eaea" stop-opacity=".8"/>
    </linearGradient>
    <linearGradient id="linear-gradient-4" x1="797.98" y1="332.3" x2="817.68" y2="332.3" gradientTransform="translate(68.8 -68.72)" gradientUnits="userSpaceOnUse">
      <stop offset="0" stop-color="#008fbe" stop-opacity=".8"/>
      <stop offset=".22" stop-color="#2ca7c9" stop-opacity=".8"/>
      <stop offset=".58" stop-color="#6ecbdb" stop-opacity=".8"/>
      <stop offset=".85" stop-color="#97e1e5" stop-opacity=".8"/>
      <stop offset="1" stop-color="#a7eaea" stop-opacity=".8"/>
    </linearGradient>
    <linearGradient id="linear-gradient-5" x1="794.26" y1="317.03" x2="806.66" y2="317.03" xlink:href="#linear-gradient-4"/>
    <linearGradient id="linear-gradient-6" x1="825.23" y1="312.52" x2="847.27" y2="312.52" xlink:href="#linear-gradient-4"/>
    <linearGradient id="linear-gradient-7" x1="828.93" y1="333.49" x2="839.74" y2="333.49" xlink:href="#linear-gradient-4"/>
    <linearGradient id="linear-gradient-8" x1="774.07" y1="318.53" x2="876.32" y2="318.53" xlink:href="#linear-gradient-4"/>
    <linearGradient id="linear-gradient-9" x1="801.86" y1="316.96" x2="856.76" y2="316.96" xlink:href="#linear-gradient-4"/>
  </defs>
  <ellipse class="cls-9" cx="893.99" cy="255.52" rx="95.99" ry="55.74"/>
  <g>
    <path class="cls-10" d="M930.02,228.86c-20.03-11.57-52.4-11.56-72.3,0-19.9,11.56-19.8,30.31.24,41.88,20.03,11.56,52.4,11.56,72.3,0,19.9-11.56,19.79-30.31-.24-41.88"/>
    <path class="cls-11" d="M930.02,240.3c-20.03-11.57-52.4-11.56-72.3,0-19.9,11.56-19.8,30.31.24,41.88,20.03,11.56,52.4,11.56,72.3,0,19.9-11.56,19.79-30.31-.24-41.88"/>
    <path class="cls-8" d="M930.02,240.3c-20.03-11.57-52.4-11.56-72.3,0-19.9,11.56-19.8,30.31.24,41.88,20.03,11.56,52.4,11.56,72.3,0,19.9-11.56,19.79-30.31-.24-41.88"/>
    <path class="cls-7" d="M930.02,228.88c-20.03-11.57-52.4-11.56-72.3,0-19.9,11.56-19.8,30.31.24,41.88,20.03,11.56,52.4,11.56,72.3,0,19.9-11.56,19.79-30.31-.24-41.88"/>
    <g>
      <path class="cls-6" d="M868.44,258.64s-.03-.01-.04-.02l-.05-.02-1.05.72c-.76.53-.69,1.32.14,1.8,0,0,0,0,.01,0l.15.08,14.57,7.06c.91.45,2.29.41,3.12-.08l.13-.08,1.05-.73-17.95-8.69s-.05-.03-.08-.04Z"/>
      <path class="cls-3" d="M872.62,248.27c.82-1.12,1.77-2.26,2.84-3.4-.88.07-1.92.2-3.06.42-2.42.47-5.33,1.36-8.24,3.05-.37.21-.73.44-1.1.68,2.99,1.16,5.44,2.07,7.33,2.74.62-1.12,1.36-2.29,2.23-3.49Z"/>
      <path class="cls-4" d="M912.83,239.29c-.23-.13-.47-.27-.73-.38-4.42-2.14-10.88-1.94-14.86.37-.23.13-.45.27-.67.42-3.68,2.55-3.31,6.3.7,8.61.23.13.47.26.73.38,4.42,2.14,10.88,1.94,14.86-.37.23-.13.45-.28.66-.42,3.68-2.55,3.31-6.3-.69-8.61Z"/>
      <path class="cls-2" d="M897.73,264.98c1.49.96,3.47,2.19,5.96,3.69,2.75-2.02,3.99-3.91,4.51-5.47.31-.9.36-1.7.32-2.33-3.59,1.68-7.3,3.05-10.79,4.12Z"/>
      <path class="cls-1" d="M930.02,228.88c-20.03-11.57-52.4-11.56-72.3,0s-19.8,30.31.24,41.88c20.03,11.56,52.4,11.56,72.3,0,19.9-11.56,19.79-30.31-.24-41.88ZM925.92,246.61c-2.6,4.76-7.23,8.64-12.53,11.72-.8.47-1.63.92-2.46,1.35.23.84.38,2.18-.17,3.82-.65,1.97-2.33,4.36-6.01,6.82-.23.16-.58.25-.94.26-.37,0-.72-.08-.98-.23-3.29-1.96-5.78-3.52-7.52-4.65-2.12.59-4.12,1.07-5.92,1.44.09.29-.03.6-.39.85l-1.57,1.08c-.09.07-.19.13-.29.18-1.78,1.04-4.66,1.13-6.64.17l-14.57-7.05c-.11-.06-.22-.11-.32-.17-1.79-1.04-1.96-2.71-.31-3.86l1.56-1.08h0s.11-.07.11-.07c.35-.2.8-.31,1.26-.31.31-1.09.76-2.32,1.39-3.63-2.22-.79-5.32-1.93-9.23-3.46-.07-.03-.13-.06-.19-.09-.2-.11-.33-.26-.37-.42-.06-.21.04-.42.27-.59.73-.53,1.46-1,2.2-1.43,3.21-1.87,6.49-2.88,9.27-3.41,2.26-.44,4.19-.56,5.48-.57,2.18-2.06,4.82-4.07,7.98-5.92,4.42-2.57,9.87-4.79,16.51-6.28,6.65-1.5,14.48-2.26,23.62-1.94.33.01.63.09.85.22.17.1.29.22.34.36,2.74,6.51,2.17,12.14-.43,16.89Z"/>
      <path class="cls-5" d="M902.5,232.49c-6.27,1.41-11.41,3.5-15.61,5.94-3.18,1.85-5.81,3.89-7.97,5.98,0,0,0,0,0,0-.19.18-.37.36-.54.54,0,0-.02.02-.03.03-.08.08-.16.16-.23.24-.02.02-.04.05-.07.07-.07.07-.14.15-.21.22-.02.02-.05.05-.07.07-.05.06-.1.11-.16.17-.03.03-.05.06-.08.08-.06.07-.13.14-.19.21-.03.03-.06.06-.09.1-.05.06-.11.12-.16.18-.03.04-.07.08-.1.12-.04.05-.08.09-.12.14-.03.04-.06.07-.1.11-.05.06-.11.13-.16.19-.03.04-.06.07-.09.11-.04.04-.07.09-.11.13-.05.06-.1.12-.15.18-.03.04-.06.07-.09.11-.03.04-.07.08-.1.12-.05.06-.09.12-.14.17-.04.05-.08.1-.12.15-.01.02-.03.03-.04.05-.08.1-.15.19-.23.29,0,0,0,.01-.01.01-.17.22-.34.44-.5.66l-.12.16s0,0-.01.01c-.03.04-.07.09-.1.14-.97,1.36-1.77,2.7-2.4,3.95,0,.01-.01.03-.02.04-.85,1.71-1.41,3.27-1.72,4.57,1.94.93,5.18,2.48,8.47,4.04h.01c3.25,1.6,6.46,3.18,8.37,4.12,2.2-.42,4.82-1.03,7.64-1.85.05-.01.1-.03.15-.04.09-.03.18-.05.27-.08.03-.01.07-.02.1-.03.11-.03.22-.06.32-.1.01,0,.02,0,.04-.01,2.23-.67,4.56-1.47,6.89-2.4.03-.01.05-.02.07-.03.11-.04.21-.09.32-.13.04-.01.07-.03.11-.04.09-.04.18-.08.28-.11.05-.02.11-.04.16-.07.08-.03.16-.07.25-.1.06-.03.12-.05.19-.08.07-.03.14-.06.21-.09.08-.03.15-.06.23-.1.06-.03.12-.05.18-.08.09-.04.17-.08.26-.11.05-.02.09-.04.14-.06.1-.04.2-.09.3-.13.04-.02.07-.03.11-.05.11-.05.22-.1.33-.15.03-.01.05-.02.08-.04.12-.05.24-.11.36-.16.02,0,.04-.02.06-.03.13-.06.27-.12.4-.19,0,0,0,0,0,0,.57-.27,1.13-.54,1.69-.83,0,0,0,0,.01,0,.97-.49,1.93-1.01,2.86-1.55,5.06-2.94,9.44-6.62,11.9-11.11,2.39-4.36,2.99-9.5.61-15.53-8.39-.22-15.49.51-21.55,1.87ZM915.53,248.87c-.26.18-.53.35-.82.52-4.93,2.86-12.91,3.11-18.38.46-.31-.15-.61-.31-.89-.47-4.96-2.86-5.41-7.49-.86-10.65.26-.18.53-.35.81-.52,4.93-2.86,12.91-3.11,18.39-.46.31.15.61.31.9.48,4.95,2.87,5.41,7.49.86,10.65Z"/>
    </g>
  </g>
</svg>