<?xml version="1.0" encoding="UTF-8"?>
<svg id="Layer_1" xmlns="http://www.w3.org/2000/svg" xmlns:xlink="http://www.w3.org/1999/xlink" viewBox="0 0 1179.11 424.66">
  <defs>
    <style>
      .cls-1 {
        fill: url(#radial-gradient-5);
      }

      .cls-2 {
        fill: url(#radial-gradient-4);
      }

      .cls-3 {
        fill: url(#radial-gradient-3);
      }

      .cls-4 {
        fill: url(#radial-gradient-2);
      }

      .cls-5 {
        fill: url(#linear-gradient-8);
      }

      .cls-6 {
        fill: url(#linear-gradient-7);
      }

      .cls-7 {
        fill: url(#linear-gradient-5);
      }

      .cls-8 {
        fill: url(#linear-gradient-6);
      }

      .cls-9 {
        fill: url(#linear-gradient-9);
      }

      .cls-10 {
        fill: url(#linear-gradient-4);
      }

      .cls-11 {
        fill: url(#linear-gradient-3);
      }

      .cls-12 {
        fill: url(#linear-gradient-2);
      }

      .cls-13 {
        fill: url(#radial-gradient);
      }

      .cls-14 {
        fill: url(#linear-gradient);
      }

      .cls-15 {
        fill: #08062a;
      }

      .cls-16 {
        fill: url(#linear-gradient-43);
      }

      .cls-17 {
        fill: url(#linear-gradient-40);
      }

      .cls-18 {
        fill: url(#linear-gradient-41);
      }

      .cls-19 {
        fill: url(#linear-gradient-42);
      }

      .cls-20 {
        fill: url(#linear-gradient-44);
      }

      .cls-21 {
        fill: url(#linear-gradient-10);
      }

      .cls-22 {
        fill: url(#linear-gradient-11);
      }

      .cls-23 {
        fill: url(#linear-gradient-12);
      }

      .cls-24 {
        fill: url(#linear-gradient-13);
      }

      .cls-25 {
        fill: url(#linear-gradient-19);
      }

      .cls-26 {
        fill: url(#linear-gradient-14);
      }

      .cls-27 {
        fill: url(#linear-gradient-21);
      }

      .cls-28 {
        fill: url(#linear-gradient-20);
      }

      .cls-29 {
        fill: url(#linear-gradient-22);
      }

      .cls-30 {
        fill: url(#linear-gradient-23);
      }

      .cls-31 {
        fill: url(#linear-gradient-28);
      }

      .cls-32 {
        fill: url(#linear-gradient-25);
      }

      .cls-33 {
        fill: url(#linear-gradient-32);
      }

      .cls-34 {
        fill: url(#linear-gradient-31);
      }

      .cls-35 {
        fill: url(#linear-gradient-33);
      }

      .cls-36 {
        fill: url(#linear-gradient-30);
      }

      .cls-37 {
        fill: url(#linear-gradient-15);
      }

      .cls-38 {
        fill: url(#linear-gradient-16);
      }

      .cls-39 {
        fill: url(#linear-gradient-17);
      }

      .cls-40 {
        fill: url(#linear-gradient-18);
      }

      .cls-41 {
        fill: url(#linear-gradient-35);
      }

      .cls-42 {
        fill: url(#linear-gradient-34);
      }

      .cls-43 {
        fill: url(#linear-gradient-36);
      }

      .cls-44 {
        fill: url(#linear-gradient-38);
      }

      .cls-45 {
        fill: url(#linear-gradient-27);
      }

      .cls-46 {
        fill: url(#linear-gradient-24);
      }

      .cls-47 {
        fill: url(#linear-gradient-26);
      }

      .cls-48 {
        fill: url(#linear-gradient-29);
      }

      .cls-49 {
        fill: url(#linear-gradient-37);
      }

      .cls-50 {
        fill: url(#linear-gradient-39);
      }

      .cls-51 {
        fill: #08062a;
      }
    </style>
    <radialGradient id="radial-gradient" cx="1910.07" cy="381.57" fx="1910.07" fy="381.57" r="54.75" gradientTransform="translate(-2633.63 -68.77) scale(1.48 1)" gradientUnits="userSpaceOnUse">
      <stop offset="0" stop-color="#008fbe" stop-opacity=".8"/>
      <stop offset=".3" stop-color="#3bafcd" stop-opacity=".51"/>
      <stop offset=".62" stop-color="#75cedc" stop-opacity=".24"/>
      <stop offset=".87" stop-color="#99e2e6" stop-opacity=".06"/>
      <stop offset="1" stop-color="#a7eaea" stop-opacity="0"/>
    </radialGradient>
    <radialGradient id="radial-gradient-2" cx="2044.81" cy="268.72" fx="2044.81" fy="268.72" r="54.75" xlink:href="#radial-gradient"/>
    <radialGradient id="radial-gradient-3" cx="2184.64" cy="379.63" fx="2184.64" fy="379.63" r="54.75" xlink:href="#radial-gradient"/>
    <radialGradient id="radial-gradient-4" cx="2322.03" cy="270.75" fx="2322.03" fy="270.75" r="54.75" xlink:href="#radial-gradient"/>
    <radialGradient id="radial-gradient-5" cx="2450.21" cy="384.71" fx="2450.21" fy="384.71" r="54.75" xlink:href="#radial-gradient"/>
    <linearGradient id="linear-gradient" x1="-.38" y1="311.35" x2="1179.5" y2="311.35" gradientUnits="userSpaceOnUse">
      <stop offset=".16" stop-color="#008fbe" stop-opacity=".2"/>
      <stop offset=".76" stop-color="#a7eaea" stop-opacity=".8"/>
      <stop offset=".94" stop-color="#fff" stop-opacity=".8"/>
    </linearGradient>
    <linearGradient id="linear-gradient-2" x1="687.89" y1="265.34" x2="790.13" y2="265.34" gradientTransform="translate(68.77 -68.77)" xlink:href="#linear-gradient"/>
    <linearGradient id="linear-gradient-3" x1="687.89" y1="276.77" x2="790.13" y2="276.77" gradientTransform="translate(68.77 -68.77)" xlink:href="#linear-gradient"/>
    <linearGradient id="linear-gradient-4" x1="687.89" y1="265.35" x2="790.13" y2="265.35" gradientTransform="translate(68.77 -68.77)" gradientUnits="userSpaceOnUse">
      <stop offset="0" stop-color="#008fbe" stop-opacity=".2"/>
      <stop offset=".58" stop-color="#08062a" stop-opacity=".55"/>
      <stop offset="1" stop-color="#a7eaea" stop-opacity=".8"/>
    </linearGradient>
    <linearGradient id="linear-gradient-5" x1="706.34" y1="268.99" x2="724.94" y2="268.99" gradientTransform="translate(68.77 -68.77)" gradientUnits="userSpaceOnUse">
      <stop offset="0" stop-color="#008fbe" stop-opacity=".8"/>
      <stop offset=".22" stop-color="#2ca7c9" stop-opacity=".8"/>
      <stop offset=".58" stop-color="#6ecbdb" stop-opacity=".8"/>
      <stop offset=".85" stop-color="#97e1e5" stop-opacity=".8"/>
      <stop offset="1" stop-color="#a7eaea" stop-opacity=".8"/>
    </linearGradient>
    <linearGradient id="linear-gradient-6" x1="746.88" y1="275.1" x2="765.47" y2="275.1" xlink:href="#linear-gradient-5"/>
    <linearGradient id="linear-gradient-7" x1="735.81" y1="251.78" x2="754.41" y2="251.78" xlink:href="#linear-gradient-5"/>
    <linearGradient id="linear-gradient-8" x1="712.65" y1="255.4" x2="731.24" y2="255.4" xlink:href="#linear-gradient-5"/>
    <linearGradient id="linear-gradient-9" x1="723.54" y1="278.92" x2="742.14" y2="278.92" xlink:href="#linear-gradient-5"/>
    <linearGradient id="linear-gradient-10" x1="687.89" y1="265.35" x2="790.13" y2="265.35" xlink:href="#linear-gradient-5"/>
    <linearGradient id="linear-gradient-11" x1="753.09" y1="261.62" x2="771.68" y2="261.62" xlink:href="#linear-gradient-5"/>
    <linearGradient id="linear-gradient-12" x1="736" y1="265.31" x2="742.42" y2="265.31" xlink:href="#linear-gradient-5"/>
    <linearGradient id="linear-gradient-13" x1="484.35" y1="374.22" x2="586.59" y2="374.22" gradientTransform="translate(68.77 -68.77)" xlink:href="#linear-gradient"/>
    <linearGradient id="linear-gradient-14" x1="484.35" y1="385.66" x2="586.59" y2="385.66" gradientTransform="translate(68.77 -68.77)" xlink:href="#linear-gradient"/>
    <linearGradient id="linear-gradient-15" x1="484.35" y1="374.24" x2="586.59" y2="374.24" xlink:href="#linear-gradient-4"/>
    <linearGradient id="linear-gradient-16" x1="546.18" y1="385.3" x2="552.98" y2="385.3" xlink:href="#linear-gradient-5"/>
    <linearGradient id="linear-gradient-17" x1="533.69" y1="390.62" x2="542.72" y2="390.62" xlink:href="#linear-gradient-5"/>
    <linearGradient id="linear-gradient-18" x1="538.67" y1="386.11" x2="549.56" y2="386.11" xlink:href="#linear-gradient-5"/>
    <linearGradient id="linear-gradient-19" x1="529.95" y1="386.56" x2="546.14" y2="386.56" xlink:href="#linear-gradient-5"/>
    <linearGradient id="linear-gradient-20" x1="507.58" y1="371.06" x2="563.36" y2="371.06" xlink:href="#linear-gradient-5"/>
    <linearGradient id="linear-gradient-21" x1="484.35" y1="374.24" x2="586.59" y2="374.24" xlink:href="#linear-gradient-5"/>
    <linearGradient id="linear-gradient-22" x1="877.8" y1="379.3" x2="980.05" y2="379.3" gradientTransform="translate(68.77 -68.77)" xlink:href="#linear-gradient"/>
    <linearGradient id="linear-gradient-23" x1="877.8" y1="390.74" x2="980.05" y2="390.74" gradientTransform="translate(68.77 -68.77)" xlink:href="#linear-gradient"/>
    <linearGradient id="linear-gradient-24" x1="877.8" y1="379.31" x2="980.05" y2="379.31" xlink:href="#linear-gradient-4"/>
    <linearGradient id="linear-gradient-25" x1="897.62" y1="369.53" x2="926.4" y2="369.53" xlink:href="#linear-gradient-5"/>
    <linearGradient id="linear-gradient-26" x1="907.28" y1="375.06" x2="936.05" y2="375.06" xlink:href="#linear-gradient-5"/>
    <linearGradient id="linear-gradient-27" x1="906.61" y1="388.71" x2="935.39" y2="388.71" xlink:href="#linear-gradient-5"/>
    <linearGradient id="linear-gradient-28" x1="877.8" y1="379.31" x2="980.05" y2="379.31" xlink:href="#linear-gradient-5"/>
    <linearGradient id="linear-gradient-29" x1="930.78" y1="374.67" x2="959.56" y2="374.67" xlink:href="#linear-gradient-5"/>
    <linearGradient id="linear-gradient-30" x1="77.56" y1="376.17" x2="179.8" y2="376.17" gradientTransform="translate(68.77 -68.77)" xlink:href="#linear-gradient"/>
    <linearGradient id="linear-gradient-31" x1="77.56" y1="387.6" x2="179.8" y2="387.6" gradientTransform="translate(68.77 -68.77)" xlink:href="#linear-gradient"/>
    <linearGradient id="linear-gradient-32" x1="77.56" y1="376.18" x2="179.8" y2="376.18" xlink:href="#linear-gradient-4"/>
    <linearGradient id="linear-gradient-33" x1="130.09" y1="373.51" x2="161.32" y2="373.51" xlink:href="#linear-gradient-5"/>
    <linearGradient id="linear-gradient-34" x1="97.11" y1="386.05" x2="151.14" y2="386.05" xlink:href="#linear-gradient-5"/>
    <linearGradient id="linear-gradient-35" x1="96.44" y1="368.96" x2="135.86" y2="368.96" xlink:href="#linear-gradient-5"/>
    <linearGradient id="linear-gradient-36" x1="77.56" y1="376.18" x2="179.8" y2="376.18" xlink:href="#linear-gradient-5"/>
    <linearGradient id="linear-gradient-37" x1="277.19" y1="263.31" x2="379.43" y2="263.31" gradientTransform="translate(68.77 -68.77)" xlink:href="#linear-gradient"/>
    <linearGradient id="linear-gradient-38" x1="277.19" y1="274.75" x2="379.43" y2="274.75" gradientTransform="translate(68.77 -68.77)" xlink:href="#linear-gradient"/>
    <linearGradient id="linear-gradient-39" x1="277.19" y1="263.33" x2="379.43" y2="263.33" xlink:href="#linear-gradient-4"/>
    <linearGradient id="linear-gradient-40" x1="313.81" y1="258.03" x2="337.38" y2="258.03" xlink:href="#linear-gradient-5"/>
    <linearGradient id="linear-gradient-41" x1="306.76" y1="262.91" x2="307.22" y2="262.91" xlink:href="#linear-gradient-5"/>
    <linearGradient id="linear-gradient-42" x1="343.75" y1="252.95" x2="344.21" y2="252.95" xlink:href="#linear-gradient-5"/>
    <linearGradient id="linear-gradient-43" x1="295.7" y1="261.17" x2="368.81" y2="261.17" xlink:href="#linear-gradient-5"/>
    <linearGradient id="linear-gradient-44" x1="277.19" y1="263.33" x2="379.43" y2="263.33" xlink:href="#linear-gradient-5"/>
  </defs>
  <ellipse class="cls-13" cx="197.45" cy="313.12" rx="95.99" ry="55.74"/>
  <ellipse class="cls-4" cx="397.08" cy="200.26" rx="95.99" ry="55.74"/>
  <ellipse class="cls-3" cx="604.24" cy="311.17" rx="95.99" ry="55.74"/>
  <ellipse class="cls-2" cx="807.78" cy="202.29" rx="95.99" ry="55.74"/>
  <ellipse class="cls-1" cx="997.69" cy="316.25" rx="95.99" ry="55.74"/>
  <path class="cls-14" d="M4.62,432.56c13.04-7.5,26.09-14.99,39.13-22.49,31.5-18.11,63.01-36.21,94.51-54.32,37.96-21.82,75.92-43.64,113.88-65.45,32.96-18.94,65.92-37.89,98.88-56.83,10.81-6.21,21.62-12.42,32.42-18.64,5-2.87,10.79-5.38,15.41-8.86.2-.15.46-.26.68-.39h-9.24c23.44,13.57,46.88,27.14,70.32,40.71l109.28,63.26c7.4,4.28,14.69,9.1,22.34,12.93,7.61,3.81,19.24-5.26,25.77-8.74,35.94-19.14,71.87-38.28,107.81-57.42,17.95-9.56,35.89-19.12,53.84-28.67,9.84-5.24,20.26-9.98,29.75-15.85.45-.28.94-.5,1.4-.75h-9.24c12.41,7.37,24.83,14.75,37.24,22.12,29.63,17.6,59.26,35.2,88.9,52.8,35.83,21.28,71.67,42.57,107.5,63.85,31.13,18.49,62.26,36.98,93.39,55.47,15.03,8.92,29.83,18.62,45.24,26.87.22.12.44.26.66.39,10.15,6.03,19.36-9.79,9.24-15.8-27.53-16.35-55.07-32.71-82.6-49.06-54.25-32.22-108.49-64.44-162.74-96.66-39.71-23.59-79.42-47.17-119.13-70.76-2.73-1.62-5.43-3.45-8.25-4.9-5.77-2.96-10.31.34-15.23,2.96-20.39,10.86-40.78,21.72-61.16,32.58-46.48,24.75-92.95,49.51-139.43,74.26l-2.9,1.54h9.24c-41.59-24.08-83.18-48.16-124.77-72.23-22.56-13.06-45.13-26.12-67.69-39.19-5.56-3.22-12.16-8.79-18.77-5.52-2.12,1.05-4.14,2.38-6.19,3.56-38.79,22.3-77.58,44.59-116.37,66.89-56.75,32.62-113.51,65.24-170.26,97.86-33.49,19.25-67.54,37.76-100.57,57.8-.5.3-1.01.58-1.52.87-10.21,5.87-1,21.69,9.24,15.8h0Z"/>
  <path class="cls-15" d="M858.9,196.58c-.04-7.58-5.07-15.16-15.09-20.95-20.03-11.57-52.4-11.56-72.3,0-9.95,5.78-14.9,13.36-14.86,20.94,0,1.89.33,3.77.96,5.63-3.16,9.37,1.55,19.47,14.13,26.74,20.03,11.56,52.4,11.56,72.3,0,12.42-7.22,17.05-17.24,13.9-26.56.64-1.9.96-3.82.96-5.75,0-.02,0-.03,0-.05,0,0,0,0,0,0Z"/>
  <g>
    <path class="cls-12" d="M843.81,175.63c-20.03-11.57-52.4-11.56-72.3,0-19.9,11.56-19.8,30.31.24,41.88,20.03,11.56,52.4,11.56,72.3,0,19.9-11.56,19.79-30.31-.24-41.88"/>
    <path class="cls-51" d="M843.81,187.07c-20.03-11.57-52.4-11.56-72.3,0-19.9,11.56-19.8,30.31.24,41.88,20.03,11.56,52.4,11.56,72.3,0,19.9-11.56,19.79-30.31-.24-41.88"/>
    <path class="cls-11" d="M843.81,187.07c-20.03-11.57-52.4-11.56-72.3,0-19.9,11.56-19.8,30.31.24,41.88,20.03,11.56,52.4,11.56,72.3,0,19.9-11.56,19.79-30.31-.24-41.88"/>
    <path class="cls-10" d="M843.81,175.65c-20.03-11.57-52.4-11.56-72.3,0-19.9,11.56-19.8,30.31.24,41.88,20.03,11.56,52.4,11.56,72.3,0,19.9-11.56,19.79-30.31-.24-41.88"/>
    <g>
      <path class="cls-7" d="M793.47,199.03c-.42-1.03-1.3-1.91-2.5-2.61-2.18-1.25-5.36-1.86-8.57-1.46-1.81.23-3.37.74-4.58,1.45-2.15,1.26-3.2,3.1-2.49,4.96.4,1.05,1.3,1.95,2.52,2.66,2.18,1.26,5.36,1.87,8.56,1.46,1.81-.23,3.37-.74,4.59-1.45,2.14-1.24,3.18-3.06,2.51-4.9-.02-.03-.03-.07-.04-.1Z"/>
      <path class="cls-8" d="M815.65,206.33c.01,1.38.92,2.76,2.75,3.81,1.82,1.05,4.2,1.57,6.58,1.57s4.74-.52,6.56-1.58c1.81-1.05,2.71-2.43,2.7-3.8s-.92-2.76-2.74-3.81c-1.83-1.05-4.2-1.57-6.59-1.58-2.38,0-4.74.52-6.56,1.58-1.81,1.05-2.71,2.43-2.7,3.8Z"/>
      <path class="cls-6" d="M812.14,188.3c3.15.35,6.23-.26,8.34-1.49,1.24-.72,2.14-1.64,2.51-2.72.65-1.85-.41-3.66-2.57-4.9-1.25-.72-2.85-1.24-4.71-1.46-3.18-.38-6.31.23-8.44,1.47-1.24.72-2.14,1.64-2.51,2.72-.65,1.85.42,3.66,2.57,4.9,1.23.71,2.8,1.22,4.61,1.45.06,0,.13.01.19.02Z"/>
      <path class="cls-5" d="M800,186.64c-.01-1.38-.92-2.76-2.75-3.81-1.82-1.05-4.2-1.57-6.58-1.57s-4.74.52-6.56,1.57c-1.81,1.06-2.7,2.43-2.7,3.81,0,1.38.92,2.76,2.74,3.81,1.83,1.05,4.2,1.58,6.59,1.58,2.38,0,4.74-.52,6.56-1.58,1.81-1.05,2.71-2.43,2.7-3.8Z"/>
      <path class="cls-9" d="M795.01,206.35c-1.24.72-2.14,1.65-2.51,2.72-.64,1.84.42,3.65,2.57,4.89,1.25.72,2.85,1.24,4.71,1.47,3.18.38,6.31-.24,8.44-1.47,1.24-.72,2.13-1.64,2.51-2.72.64-1.84-.43-3.66-2.57-4.9-1.25-.72-2.85-1.24-4.71-1.46-3.18-.38-6.31.23-8.44,1.47Z"/>
      <path class="cls-21" d="M843.81,175.65c-20.03-11.57-52.4-11.56-72.3,0s-19.8,30.31.24,41.88c20.03,11.56,52.4,11.56,72.3,0,19.9-11.56,19.79-30.31-.24-41.88ZM839.6,197.73c-1.55.9-3.57,1.57-5.88,1.85-4.11.52-8.2-.26-10.98-1.86-1.24-.72-2.22-1.6-2.83-2.6l-6.13,1.17c.09.7-.2,1.41-.86,2.03l4.54,2.62c4.67-2.18,11.52-2,15.87.51,4.66,2.69,4.69,7.06.05,9.75-4.64,2.69-12.18,2.69-16.84,0-4.35-2.51-4.67-6.48-.93-9.19l-4.54-2.62c-1.06.39-2.3.55-3.51.5l-2.17,3.72c1.77.35,3.34.92,4.6,1.65,2.75,1.58,4.11,3.91,3.29,6.27-.48,1.37-1.63,2.57-3.21,3.49-2.73,1.58-6.75,2.37-10.82,1.88-2.36-.28-4.43-.95-6.03-1.87-2.74-1.58-4.1-3.91-3.28-6.27.48-1.37,1.63-2.56,3.22-3.48,2.47-1.43,6-2.21,9.67-1.99l2.25-3.84c-.43-.14-.83-.32-1.2-.53-.44-.25-.79-.53-1.06-.83l-6.59,1.33c.45,2.15-.88,4.23-3.38,5.68-1.55.9-3.57,1.57-5.87,1.86-4.11.52-8.2-.26-10.98-1.87-1.56-.9-2.72-2.07-3.23-3.41-.9-2.38.43-4.75,3.19-6.35,1.55-.9,3.56-1.57,5.87-1.86,4.11-.52,8.2.27,10.97,1.87,1.24.71,2.22,1.59,2.83,2.59l6.53-1.32c-.03-.65.26-1.3.87-1.87l-4.83-2.74c-4.66,2.18-11.52,2.01-15.88-.5-4.67-2.69-4.69-7.06-.06-9.75,4.64-2.69,12.17-2.69,16.84,0,4.35,2.51,4.67,6.48.93,9.19l4.83,2.74c.98-.36,2.11-.53,3.23-.52l2.02-3.61c-1.78-.35-3.35-.93-4.61-1.66,0,0-.01,0-.02-.01-2.74-1.58-4.09-3.91-3.27-6.26.48-1.37,1.63-2.57,3.21-3.49,2.72-1.58,6.75-2.37,10.82-1.88,2.36.28,4.43.95,6.02,1.87,2.75,1.58,4.11,3.91,3.29,6.27-.48,1.37-1.63,2.57-3.21,3.49-2.47,1.43-5.99,2.21-9.66,1.99l-2.05,3.66c.52.16,1.01.36,1.45.61.37.21.68.45.93.7l6.31-1.21c-.44-2.15.89-4.22,3.39-5.67,1.55-.9,3.56-1.57,5.87-1.86,4.11-.52,8.2.27,10.97,1.87,1.56.9,2.72,2.07,3.23,3.41.91,2.39-.42,4.75-3.18,6.35Z"/>
      <path class="cls-22" d="M837.71,189.04c-2.18-1.25-5.36-1.86-8.57-1.46-1.81.23-3.37.74-4.58,1.45-2.15,1.26-3.2,3.1-2.49,4.96.4,1.05,1.3,1.95,2.52,2.66,2.17,1.25,5.36,1.87,8.56,1.46,1.81-.23,3.37-.75,4.59-1.45,2.16-1.25,3.2-3.09,2.49-4.95-.41-1.05-1.3-1.95-2.52-2.66Z"/>
      <path class="cls-23" d="M810.24,195.22c-1.26-.73-3.29-.73-4.54,0s-1.24,1.9.01,2.63c1.26.72,3.29.72,4.54,0,1.25-.73,1.25-1.9,0-2.63Z"/>
    </g>
  </g>
  <path class="cls-15" d="M655.36,305.46c-.04-7.58-5.07-15.16-15.09-20.95-20.03-11.57-52.4-11.56-72.3,0-9.95,5.78-14.9,13.36-14.86,20.94,0,1.89.33,3.77.96,5.63-3.16,9.37,1.55,19.47,14.13,26.74,20.03,11.56,52.4,11.56,72.3,0,12.42-7.22,17.05-17.24,13.9-26.56.64-1.9.96-3.82.96-5.75,0-.02,0-.03,0-.05,0,0,0,0,0,0Z"/>
  <g>
    <path class="cls-24" d="M640.27,284.52c-20.03-11.57-52.4-11.56-72.3,0-19.9,11.56-19.8,30.31.24,41.88,20.03,11.56,52.4,11.56,72.3,0,19.9-11.56,19.79-30.31-.24-41.88"/>
    <path class="cls-51" d="M640.27,295.95c-20.03-11.57-52.4-11.56-72.3,0-19.9,11.56-19.8,30.31.24,41.88,20.03,11.56,52.4,11.56,72.3,0,19.9-11.56,19.79-30.31-.24-41.88"/>
    <path class="cls-26" d="M640.27,295.95c-20.03-11.57-52.4-11.56-72.3,0-19.9,11.56-19.8,30.31.24,41.88,20.03,11.56,52.4,11.56,72.3,0,19.9-11.56,19.79-30.31-.24-41.88"/>
    <path class="cls-37" d="M640.27,284.53c-20.03-11.57-52.4-11.56-72.3,0-19.9,11.56-19.8,30.31.24,41.88,20.03,11.56,52.4,11.56,72.3,0,19.9-11.56,19.79-30.31-.24-41.88"/>
    <g>
      <polygon class="cls-38" points="614.95 315.48 620.18 318.5 621.75 317.58 616.53 314.57 614.95 315.48"/>
      <polygon class="cls-39" points="611.49 323.54 604.03 319.24 603.17 319.74 602.45 320.16 609.91 324.46 611.49 323.54"/>
      <polygon class="cls-40" points="607.44 315.11 616.75 320.49 618.33 319.57 609.01 314.19 607.44 315.11"/>
      <polygon class="cls-25" points="600.29 313.12 598.72 314.04 604.95 317.63 613.33 322.48 614.91 321.56 600.29 313.12"/>
      <path class="cls-28" d="M623.83,290.83c-3.22-1.86-7.23-3.2-12-4-4.06-.67-8.01-.83-11.82-.5-3.81.33-7.5,1.15-11.03,2.49-1.73.65-3.29,1.39-4.68,2.2-6.19,3.6-9.03,8.62-7.58,13.86,1,3.57,3.8,6.65,7.82,8.97,4.47,2.58,10.46,4.23,17.21,4.57l.43-.25-6.24-3.6c-.24-.14-.38-.33-.38-.53,0-.2.14-.4.38-.54l3.42-1.99c.25-.14.58-.22.93-.22s.68.08.92.22l4.38,2.53,2.5-1.45c.25-.14.58-.22.92-.22s.69.08.93.22l3.17,1.83,2.5-1.45c.24-.14.57-.22.92-.22s.69.08.93.22l3.84,2.22c.92-.41,1.8-.86,2.64-1.35.59-.34,1.17-.71,1.72-1.1,3.61-2.51,5.42-4.89,6.21-8.13.75-3.23,0-6.12-2.39-9.07-1.49-1.83-3.37-3.4-5.63-4.7ZM622.84,295.13c-.23.16-.56.27-.91.28l-10.34.51-.55,4.64c-.04.37-.54.67-1.17.7l-4.53.24,4.24,4.84c.28.31.15.68-.31.91-.44.23-1.11.25-1.6.05l-10.97-4.42,1.85,4.71c.09.23-.02.47-.28.65-.26.18-.65.28-1.06.27l-3.83-.09,1.47,3.15c.12.25,0,.52-.3.71-.3.19-.75.28-1.19.23l-3.95-.42-.05,1.22c-.02.42-.62.74-1.34.73-.35,0-.66-.09-.89-.22-.25-.14-.4-.34-.39-.56l.1-2.1c.01-.22.19-.43.48-.57.3-.14.68-.2,1.06-.15l3.42.37-1.4-2.98c-.11-.23-.02-.48.24-.67.26-.19.65-.29,1.07-.28l3.91.09-2.21-5.65c-.12-.31.09-.62.54-.79.45-.17,1.03-.17,1.48,0l9.47,3.82-2.76-3.14c-.19-.22-.19-.49.02-.71.21-.22.59-.36,1.02-.39l5.33-.29.55-4.65c.04-.37.55-.67,1.19-.7l10.07-.5-.51-2.01c-.1-.41.39-.8,1.1-.85.42-.04.83.05,1.11.21.19.11.33.26.37.43l.72,2.8c.05.21-.05.41-.27.58Z"/>
      <path class="cls-27" d="M640.27,284.53c-20.03-11.57-52.4-11.56-72.3,0s-19.8,30.31.24,41.88c20.03,11.56,52.4,11.56,72.3,0,19.9-11.56,19.79-30.31-.24-41.88ZM634.44,304.81c-.81,3.47-2.91,6.21-6.78,8.9-.6.42-1.23.81-1.88,1.19-.84.49-1.71.94-2.62,1.36l1.37.79c.24.14.38.34.38.53,0,.2-.13.39-.37.53l-3.43,1.99-3.42,1.99-3.42,1.99-3.42,1.99c-.24.14-.58.22-.93.22-.34,0-.68-.08-.92-.22l-9.31-5.37c-.24-.14-.39-.34-.39-.53,0-.13.06-.26.17-.37-6.52-.58-12.33-2.3-16.76-4.87-4.41-2.55-7.47-5.92-8.56-9.8-1.59-5.7,1.53-11.24,8.3-15.18,1.52-.88,3.24-1.69,5.11-2.39,3.82-1.44,7.87-2.35,12.07-2.72,4.19-.36,8.53-.18,12.92.55,5.15.86,9.58,2.33,13.13,4.38,2.49,1.44,4.55,3.16,6.15,5.13,2.59,3.19,3.45,6.44,2.61,9.92Z"/>
    </g>
  </g>
  <path class="cls-15" d="M1048.82,310.54c-.04-7.58-5.07-15.16-15.09-20.95-20.03-11.57-52.4-11.56-72.3,0-9.95,5.78-14.9,13.36-14.86,20.94,0,1.89.33,3.77.96,5.63-3.16,9.37,1.55,19.47,14.13,26.74,20.03,11.56,52.4,11.56,72.3,0,12.42-7.22,17.05-17.24,13.9-26.56.65-1.92.97-3.86.96-5.81Z"/>
  <g>
    <path class="cls-29" d="M1033.73,289.59c-20.03-11.57-52.4-11.56-72.3,0-19.9,11.56-19.8,30.31.24,41.88,20.03,11.56,52.4,11.56,72.3,0,19.9-11.56,19.79-30.31-.24-41.88"/>
    <path class="cls-51" d="M1033.73,301.03c-20.03-11.57-52.4-11.56-72.3,0-19.9,11.56-19.8,30.31.24,41.88,20.03,11.56,52.4,11.56,72.3,0,19.9-11.56,19.79-30.31-.24-41.88"/>
    <path class="cls-30" d="M1033.73,301.03c-20.03-11.57-52.4-11.56-72.3,0-19.9,11.56-19.8,30.31.24,41.88,20.03,11.56,52.4,11.56,72.3,0,19.9-11.56,19.79-30.31-.24-41.88"/>
    <path class="cls-46" d="M1033.73,289.61c-20.03-11.57-52.4-11.56-72.3,0-19.9,11.56-19.8,30.31.24,41.88,20.03,11.56,52.4,11.56,72.3,0,19.9-11.56,19.79-30.31-.24-41.88"/>
    <g>
      <polygon class="cls-32" points="995.17 296.89 966.39 292.43 974.19 309.09 995.17 296.89"/>
      <polygon class="cls-47" points="976.05 310.16 1004.82 314.62 997.03 297.96 976.05 310.16"/>
      <polygon class="cls-45" points="983.18 328.27 1004.16 316.08 975.38 311.61 983.18 328.27"/>
      <path class="cls-31" d="M1033.73,289.61c-20.03-11.57-52.4-11.56-72.3,0s-19.8,30.31.24,41.88c20.03,11.56,52.4,11.56,72.3,0,19.9-11.56,19.79-30.31-.24-41.88ZM1031.78,302.18l-24.17,14.05-24.16,14.04c-.33.19-.81.27-1.27.2-.23-.03-.43-.1-.59-.19-.16-.09-.28-.21-.34-.34l-17.98-38.37c-.12-.26,0-.54.34-.73.33-.19.81-.27,1.26-.2l33.15,5.14,33.15,5.14c.23.04.43.1.59.2.16.09.28.21.34.34.13.26,0,.54-.33.73Z"/>
      <polygon class="cls-48" points="1007.35 314.23 1028.32 302.03 999.55 297.57 1007.35 314.23"/>
    </g>
  </g>
  <path class="cls-15" d="M248.57,307.41c-.04-7.58-5.07-15.16-15.09-20.95-20.03-11.57-52.4-11.56-72.3,0-9.95,5.78-14.9,13.36-14.86,20.94,0,0,0,0,0,0,0,.47.02.95.07,1.42.12,1.41.42,2.81.89,4.2-3.16,9.37,1.55,19.47,14.13,26.74,20.03,11.56,52.4,11.56,72.3,0,12.42-7.22,17.05-17.24,13.9-26.56.65-1.92.97-3.86.96-5.81Z"/>
  <g>
    <path class="cls-36" d="M233.48,286.46c-20.03-11.57-52.4-11.56-72.3,0-19.9,11.56-19.8,30.31.24,41.88,20.03,11.56,52.4,11.56,72.3,0,19.9-11.56,19.79-30.31-.24-41.88"/>
    <path class="cls-51" d="M233.48,297.9c-20.03-11.57-52.4-11.56-72.3,0-19.9,11.56-19.8,30.31.24,41.88,20.03,11.56,52.4,11.56,72.3,0,19.9-11.56,19.79-30.31-.24-41.88"/>
    <path class="cls-34" d="M233.48,297.9c-20.03-11.57-52.4-11.56-72.3,0-19.9,11.56-19.8,30.31.24,41.88,20.03,11.56,52.4,11.56,72.3,0,19.9-11.56,19.79-30.31-.24-41.88"/>
    <path class="cls-33" d="M233.48,286.47c-20.03-11.57-52.4-11.56-72.3,0-19.9,11.56-19.8,30.31.24,41.88,20.03,11.56,52.4,11.56,72.3,0,19.9-11.56,19.79-30.31-.24-41.88"/>
    <g>
      <polygon class="cls-35" points="198.86 307.14 221.77 320.37 230.09 302.33 207.17 289.1 198.86 307.14"/>
      <polygon class="cls-42" points="165.88 313.1 188.8 326.33 219.91 321.46 196.99 308.23 165.88 313.1"/>
      <polygon class="cls-41" points="204.63 288.74 173.52 293.61 165.21 311.64 196.31 306.76 204.63 288.74"/>
      <path class="cls-43" d="M233.48,286.47c-20.03-11.57-52.4-11.56-72.3,0s-19.8,30.31.24,41.88c20.03,11.56,52.4,11.56,72.3,0,19.9-11.56,19.79-30.31-.24-41.88ZM232.8,302.31l-9.09,19.72c-.06.13-.18.25-.34.34-.16.1-.36.17-.59.2l-34.02,5.33c-.44.07-.94,0-1.26-.19l-25.05-14.46c-.33-.19-.46-.47-.34-.73l9.1-19.73c.11-.26.47-.46.91-.53l33.84-5.31c.07-.02.13-.03.2-.04.45-.07.93,0,1.26.2l25.05,14.46c.33.19.46.47.33.73Z"/>
    </g>
  </g>
  <path class="cls-15" d="M448.2,194.55c-.04-7.58-5.07-15.16-15.09-20.95-20.03-11.57-52.4-11.56-72.3,0-9.95,5.78-14.9,13.36-14.86,20.94,0,0,0,0,0,0,.01,1.88.33,3.77.96,5.62-3.16,9.37,1.55,19.47,14.13,26.74,20.03,11.56,52.4,11.56,72.3,0,12.42-7.22,17.05-17.24,13.9-26.56.65-1.92.97-3.86.96-5.81Z"/>
  <g>
    <path class="cls-49" d="M433.11,173.61c-20.03-11.57-52.4-11.56-72.3,0-19.9,11.56-19.8,30.31.24,41.88,20.03,11.56,52.4,11.56,72.3,0,19.9-11.56,19.79-30.31-.24-41.88"/>
    <path class="cls-51" d="M433.11,185.04c-20.03-11.57-52.4-11.56-72.3,0-19.9,11.56-19.8,30.31.24,41.88,20.03,11.56,52.4,11.56,72.3,0,19.9-11.56,19.79-30.31-.24-41.88"/>
    <path class="cls-44" d="M433.11,185.04c-20.03-11.57-52.4-11.56-72.3,0-19.9,11.56-19.8,30.31.24,41.88,20.03,11.56,52.4,11.56,72.3,0,19.9-11.56,19.79-30.31-.24-41.88"/>
    <path class="cls-50" d="M433.11,173.62c-20.03-11.57-52.4-11.56-72.3,0-19.9,11.56-19.8,30.31.24,41.88,20.03,11.56,52.4,11.56,72.3,0,19.9-11.56,19.79-30.31-.24-41.88"/>
    <g>
      <polygon class="cls-17" points="382.58 192.44 399.88 196.1 406.14 186.09 388.85 182.43 382.58 192.44"/>
      <path class="cls-18" d="M375.92,194.05c-.06-.04-.17-.05-.25-.03l-.07.03c-.06.04-.09.1-.04.15l.04.04c.06.04.17.05.26.03l.06-.03c.06-.04.09-.1.05-.15l-.05-.04Z"/>
      <path class="cls-19" d="M412.91,184.08c-.06-.04-.17-.05-.26-.03l-.06.03c-.06.04-.09.1-.05.15l.05.04c.06.04.17.05.25.03l.07-.03c.06-.04.08-.1.04-.15l-.04-.04Z"/>
      <path class="cls-16" d="M417.43,183.34c-.11-.06-.2-.14-.26-.22-.15-.18-.17-.39-.05-.58l1.57-2.52-5.27-1.12-1.58,2.52c-.11.18-.36.34-.67.43-.31.08-.67.09-1,.03l-26.26-5.56-9.52,15.19c-.25.39-.99.6-1.67.45l-4.35-.93-1.91,3.06,4.35.93c.18.04.34.1.48.18.11.06.2.13.26.21.14.18.16.39.04.58l-7.13,11.38,5.28,1.12,7.13-11.38c.12-.19.37-.35.67-.43.31-.08.68-.09,1.01-.02l26.25,5.56,9.52-15.19c.11-.18.36-.34.67-.43.31-.08.67-.1,1-.03l19.68,4.17,1.9-3.05-19.67-4.16c-.18-.04-.34-.1-.48-.18ZM377.78,195.31c-.23.13-.51.24-.82.33-1.11.3-2.38.15-3.2-.33-.23-.13-.43-.29-.58-.47-.52-.65-.26-1.38.56-1.86.23-.13.5-.25.81-.33,1.11-.3,2.39-.15,3.22.33.23.13.42.29.56.47.52.65.27,1.38-.55,1.86ZM409.05,185.9l-7.15,11.43c-.12.19-.36.34-.67.43-.32.08-.68.09-1.01.02l-19.75-4.18c-.18-.04-.35-.1-.48-.18-.11-.06-.19-.13-.26-.21-.15-.18-.16-.39-.05-.58l7.16-11.43c.25-.39,1-.59,1.68-.45l19.75,4.18c.18.04.34.1.47.17.11.06.2.14.26.22.15.18.17.39.05.58ZM414.76,185.35c-.23.13-.5.25-.81.33-1.11.3-2.39.15-3.22-.33-.23-.13-.42-.29-.56-.47-.52-.65-.27-1.38.55-1.86.23-.13.51-.24.82-.33,1.11-.3,2.38-.15,3.2.33.23.13.43.29.58.47.52.65.26,1.38-.56,1.86Z"/>
      <path class="cls-20" d="M433.11,173.62c-20.03-11.57-52.4-11.56-72.3,0s-19.8,30.31.24,41.88c20.03,11.56,52.4,11.56,72.3,0,19.9-11.56,19.79-30.31-.24-41.88ZM440.49,187.49l-2.8,4.48c-.11.18-.37.34-.68.42-.31.08-.67.09-1,.03l-19.68-4.17-9.5,15.19c-.12.19-.37.35-.68.42-.31.08-.67.1-1,.03l-26.26-5.56-7.13,11.38c-.25.39-.99.6-1.67.45l-7.73-1.64c-.18-.04-.33-.1-.47-.17-.11-.06-.2-.14-.27-.22-.15-.18-.17-.39-.05-.58l7.13-11.38-4.35-.92c-.18-.04-.33-.1-.47-.17-.11-.06-.2-.14-.27-.22-.15-.18-.17-.39-.05-.58l2.8-4.48c.25-.39,1-.59,1.68-.45l4.35.92,9.51-15.19c.25-.39,1-.59,1.68-.45l26.26,5.56,1.57-2.52c.12-.19.36-.34.67-.43.32-.08.68-.09,1.01-.02l7.73,1.64c.17.04.33.1.46.17.11.06.2.14.27.22.15.18.16.39.04.58l-1.57,2.52,19.68,4.17c.18.04.34.1.47.18.35.2.49.51.31.8Z"/>
    </g>
  </g>
</svg>