<?xml version="1.0" encoding="UTF-8"?>
<svg id="Layer_1" xmlns="http://www.w3.org/2000/svg" xmlns:xlink="http://www.w3.org/1999/xlink" viewBox="0 0 1179.11 424.66">
  <defs>
    <style>
      .cls-1 {
        fill: url(#linear-gradient-7);
      }

      .cls-2 {
        fill: url(#linear-gradient-5);
      }

      .cls-3 {
        fill: url(#linear-gradient-6);
      }

      .cls-4 {
        fill: url(#linear-gradient-4);
      }

      .cls-5 {
        fill: url(#linear-gradient-3);
      }

      .cls-6 {
        fill: url(#linear-gradient-2);
      }

      .cls-7 {
        fill: url(#radial-gradient);
      }

      .cls-8 {
        fill: url(#linear-gradient);
      }

      .cls-9 {
        fill: #08062a;
      }
    </style>
    <radialGradient id="radial-gradient" cx="2404.69" cy="-92.95" fx="2404.69" fy="-92.95" r="54.75" gradientTransform="translate(-2566.18 408.91) scale(1.48 1)" gradientUnits="userSpaceOnUse">
      <stop offset="0" stop-color="#008fbe" stop-opacity=".8"/>
      <stop offset=".3" stop-color="#3bafcd" stop-opacity=".51"/>
      <stop offset=".62" stop-color="#75cedc" stop-opacity=".24"/>
      <stop offset=".87" stop-color="#99e2e6" stop-opacity=".06"/>
      <stop offset="1" stop-color="#a7eaea" stop-opacity="0"/>
    </radialGradient>
    <linearGradient id="linear-gradient" x1="1015.35" y1="379.37" x2="1117.59" y2="379.37" gradientTransform="translate(-68.78 -68.81)" gradientUnits="userSpaceOnUse">
      <stop offset=".16" stop-color="#008fbe" stop-opacity=".2"/>
      <stop offset=".76" stop-color="#a7eaea" stop-opacity=".8"/>
      <stop offset=".94" stop-color="#fff" stop-opacity=".8"/>
    </linearGradient>
    <linearGradient id="linear-gradient-2" y1="390.81" y2="390.81" xlink:href="#linear-gradient"/>
    <linearGradient id="linear-gradient-3" x1="1015.35" y1="379.39" x2="1117.59" y2="379.39" gradientTransform="translate(-68.78 -68.81)" gradientUnits="userSpaceOnUse">
      <stop offset="0" stop-color="#008fbe" stop-opacity=".2"/>
      <stop offset=".58" stop-color="#08062a" stop-opacity=".55"/>
      <stop offset="1" stop-color="#a7eaea" stop-opacity=".8"/>
    </linearGradient>
    <linearGradient id="linear-gradient-4" x1="1035.41" y1="390.77" x2="1066.56" y2="390.77" gradientTransform="translate(-68.78 -68.81)" gradientUnits="userSpaceOnUse">
      <stop offset="0" stop-color="#008fbe" stop-opacity=".8"/>
      <stop offset=".22" stop-color="#2ca7c9" stop-opacity=".8"/>
      <stop offset=".58" stop-color="#6ecbdb" stop-opacity=".8"/>
      <stop offset=".85" stop-color="#97e1e5" stop-opacity=".8"/>
      <stop offset="1" stop-color="#a7eaea" stop-opacity=".8"/>
    </linearGradient>
    <linearGradient id="linear-gradient-5" x1="1063.48" y1="377.51" x2="1066.55" y2="377.51" xlink:href="#linear-gradient-4"/>
    <linearGradient id="linear-gradient-6" x1="1068.03" y1="372.67" x2="1097.54" y2="372.67" xlink:href="#linear-gradient-4"/>
    <linearGradient id="linear-gradient-7" x1="1015.35" y1="379.39" x2="1117.59" y2="379.39" xlink:href="#linear-gradient-4"/>
  </defs>
  <ellipse class="cls-7" cx="997.69" cy="316.28" rx="95.99" ry="55.74"/>
  <g>
    <path class="cls-8" d="M1033.73,289.62c-20.03-11.57-52.4-11.56-72.3,0-19.9,11.56-19.8,30.31.24,41.88,20.03,11.56,52.4,11.56,72.3,0,19.9-11.56,19.79-30.31-.24-41.88"/>
    <path class="cls-9" d="M1033.73,301.06c-20.03-11.57-52.4-11.56-72.3,0-19.9,11.56-19.8,30.31.24,41.88,20.03,11.56,52.4,11.56,72.3,0,19.9-11.56,19.79-30.31-.24-41.88"/>
    <path class="cls-6" d="M1033.73,301.06c-20.03-11.57-52.4-11.56-72.3,0-19.9,11.56-19.8,30.31.24,41.88,20.03,11.56,52.4,11.56,72.3,0,19.9-11.56,19.79-30.31-.24-41.88"/>
    <path class="cls-5" d="M1033.73,289.64c-20.03-11.57-52.4-11.56-72.3,0-19.9,11.56-19.8,30.31.24,41.88,20.03,11.56,52.4,11.56,72.3,0,19.9-11.56,19.79-30.31-.24-41.88"/>
    <g>
      <path class="cls-4" d="M994.37,323.05c-.09-.05-.16-.11-.22-.17-.18-.18-.22-.4-.1-.6l1.15-2.1-1.59-1.29c-.19-.15-.27-.34-.23-.52l.49-2.58-1.19-1.14-.81.29-.58,2.24c-.03.14-.14.27-.3.37l-3.51,2.42c-.46.31-1.28.36-1.83.1l-3.55-1.69-14.94,5.26-.52,1.25,2.16,2.18,6.86,2.17,2.85-1.62c.16-.08.35-.15.55-.19l3.75-.62c.26-.04.54-.03.8.02l3.32.68,1.12-1.72c.1-.15.28-.28.53-.37l3.4-1.23c.24-.09.52-.12.8-.11l4.41.22.61-.65-2.81-.42c-.23-.03-.44-.1-.6-.2Z"/>
      <path class="cls-2" d="M995.42,308.55l-.31,1.71.88.03,1.33-1.28.44-1.02-2.67-.89-.39.14.64.96c.08.11.1.24.08.35Z"/>
      <path class="cls-3" d="M1023.42,297.58c-.36-.21-.47-.52-.29-.8l1.19-1.81-3.02-1.08c-.1-.03-.18-.07-.26-.12l-3.13-1.89-1.75.46-1.28,2.41c-.15.28-.56.49-1.05.52-.41.04-.82-.04-1.11-.21-.06-.03-.11-.07-.16-.11l-3.33-2.86-3.12,1.09c-.35.12-.78.14-1.16.06l-2.94-.67-.88,1.39c-.05.08-.12.15-.21.22l-1.66,1.19.96,1.4.04.07.88,1.77c.08.15.07.31-.02.46l-1.83,2.96,2.26.49,2.55-1.15-1.12-1.41c-.15-.19-.17-.41-.03-.6l.7-1.02-.05-2.48c0-.32.33-.61.85-.72.48-.1,1.01-.03,1.37.18.03.02.06.04.09.06l2.59,1.83c.1.07.18.15.23.24l2.43,4.25c.12.18.09.38-.05.56l-1.78,2.15c-.23.28-.75.46-1.3.43l-1.89-.1-2.47,1.13,2.18,2.08c.24.23.26.52.04.75l-2.07,2.23,1.86,1.02s.03.02.04.02c.26.15.39.36.37.57-.02.22-.21.43-.51.56l-3.5,1.54,1.23,1.18,3.76-1.25,2.12-2.62c.23-.28.74-.45,1.28-.43l2.22.1,2.76-2.25c.18-.15.46-.26.77-.3l4.5-.58c.24-.03.47-.02.71.03l3.22.63.29-.42-1.29-1.11c-.29-.25-.3-.58-.02-.83l2.37-2.16c.11-.1.25-.18.44-.25l1.45-.49.9-3.25-5.32-3.06s-.01,0-.02,0Z"/>
      <path class="cls-1" d="M1033.73,289.64c-20.03-11.57-52.4-11.56-72.3,0s-19.8,30.31.24,41.88c20.03,11.56,52.4,11.56,72.3,0,19.9-11.56,19.79-30.31-.24-41.88ZM992.4,306.28l1.99-.7c.41-.14.92-.15,1.32,0l4.21,1.39c.1.03.19.07.27.12.32.18.46.46.35.72l-.72,1.69c-.03.08-.08.15-.15.21l-1.84,1.77c-.25.24-.7.38-1.19.36l-3.04-.1c-.33,0-.63-.09-.86-.22-.02-.01-.05-.03-.07-.04-.22-.16-.34-.37-.3-.57l.43-2.32-.93-1.38c-.22-.34,0-.73.54-.92ZM1000.89,323.54l-1.85,1.94c-.25.26-.74.42-1.26.39l-4.81-.25-2.66.96-1.42,2.17c-.25.39-.98.58-1.65.44l-4.12-.84-3.03.5-3.31,1.88c-.41.23-1.03.28-1.54.12l-8.03-2.54c-.1-.04-.2-.08-.29-.13-.08-.05-.16-.1-.22-.17l-2.62-2.63c-.16-.17-.22-.37-.14-.56l.77-1.84c.08-.2.3-.36.59-.47l16.19-5.7c.48-.17,1.07-.14,1.51.06l3.28,1.56,2.45-1.68.61-2.38c.06-.23.28-.42.61-.53l2.45-.86c.29-.1.65-.14.99-.08.23.03.44.1.61.2.07.04.14.09.19.14l2.11,2c.15.14.22.31.19.48l-.49,2.55,1.67,1.36c.24.19.31.44.19.67l-.93,1.7,3.11.46c.23.03.44.1.61.2.11.06.21.14.27.23.16.22.14.46-.05.67ZM1031.45,300.51l-1.1,3.98c-.06.22-.29.42-.63.53l-1.71.58-1.74,1.58,1.2,1.03c.25.21.3.48.13.71l-1.02,1.45c-.26.37-.97.56-1.62.43l-4.05-.8-3.65.47-2.88,2.36c-.27.21-.7.34-1.16.31l-2.06-.08-1.91,2.37c-.11.14-.3.25-.53.33l-5.22,1.73c-.52.17-1.16.12-1.57-.12-.07-.04-.14-.09-.19-.14l-2.52-2.39c-.35-.34-.21-.76.32-1l3.22-1.41-1.47-.8s-.02-.01-.03-.02c-.41-.24-.5-.6-.23-.89l2.19-2.36-2.39-2.28c-.35-.32-.21-.74.3-.98l3.78-1.74c.26-.12.6-.18.93-.16l1.52.08,1.16-1.4-2.19-3.82-.08-.05v.48c.02.1-.02.2-.08.29l-.59.86,1.31,1.66c.26.32.1.7-.38.91l-3.94,1.77c-.36.16-.83.2-1.26.11l-4.15-.9c-.18-.04-.33-.1-.46-.17-.35-.2-.49-.51-.31-.79l2.12-3.44-.74-1.49-1.22-1.78c-.18-.25-.1-.54.19-.76l2-1.43,1.28-2c.12-.19.37-.35.69-.43.32-.08.69-.09,1.01-.01l3.57.81,3.63-1.27c.52-.19,1.18-.13,1.6.11.06.03.11.07.16.11l2.5,2.15.65-1.22c.11-.21.37-.38.7-.46l3.13-.83c.5-.13,1.09-.07,1.48.15,0,0,.01,0,.01,0l3.66,2.21,3.79,1.36c.08.03.16.07.23.11.36.21.5.53.31.81l-1.27,1.94,5.19,2.99s.01,0,.02.01c.29.17.42.41.36.65Z"/>
    </g>
  </g>
</svg>