<?xml version="1.0" encoding="UTF-8"?>
<svg id="Layer_1" xmlns="http://www.w3.org/2000/svg" xmlns:xlink="http://www.w3.org/1999/xlink" viewBox="0 0 1179.11 424.66">
  <defs>
    <style>
      .cls-1 {
        fill: url(#linear-gradient-8);
      }

      .cls-2 {
        fill: url(#linear-gradient-7);
      }

      .cls-3 {
        fill: url(#linear-gradient-5);
      }

      .cls-4 {
        fill: url(#linear-gradient-6);
      }

      .cls-5 {
        fill: url(#linear-gradient-4);
      }

      .cls-6 {
        fill: url(#linear-gradient-3);
      }

      .cls-7 {
        fill: url(#linear-gradient-2);
      }

      .cls-8 {
        fill: url(#radial-gradient);
      }

      .cls-9 {
        fill: url(#linear-gradient);
      }

      .cls-10 {
        fill: #08062a;
      }
    </style>
    <radialGradient id="radial-gradient" cx="1893.29" cy="-416.57" fx="1893.29" fy="-416.57" r="54.75" gradientTransform="translate(-1912.23 668.73) scale(1.48 1)" gradientUnits="userSpaceOnUse">
      <stop offset="0" stop-color="#008fbe" stop-opacity=".8"/>
      <stop offset=".3" stop-color="#3bafcd" stop-opacity=".51"/>
      <stop offset=".62" stop-color="#75cedc" stop-opacity=".24"/>
      <stop offset=".87" stop-color="#99e2e6" stop-opacity=".06"/>
      <stop offset="1" stop-color="#a7eaea" stop-opacity="0"/>
    </radialGradient>
    <linearGradient id="linear-gradient" x1="774.17" y1="177.99" x2="876.42" y2="177.99" gradientTransform="translate(68.69 68.77)" gradientUnits="userSpaceOnUse">
      <stop offset=".16" stop-color="#008fbe" stop-opacity=".2"/>
      <stop offset=".76" stop-color="#a7eaea" stop-opacity=".8"/>
      <stop offset=".94" stop-color="#fff" stop-opacity=".8"/>
    </linearGradient>
    <linearGradient id="linear-gradient-2" y1="189.42" y2="189.42" xlink:href="#linear-gradient"/>
    <linearGradient id="linear-gradient-3" x1="774.17" y1="178" x2="876.42" y2="178" gradientTransform="translate(68.69 68.77)" gradientUnits="userSpaceOnUse">
      <stop offset="0" stop-color="#008fbe" stop-opacity=".2"/>
      <stop offset=".58" stop-color="#08062a" stop-opacity=".55"/>
      <stop offset="1" stop-color="#a7eaea" stop-opacity=".8"/>
    </linearGradient>
    <linearGradient id="linear-gradient-4" x1="804.42" y1="176.49" x2="823.64" y2="176.49" gradientTransform="translate(68.69 68.77)" gradientUnits="userSpaceOnUse">
      <stop offset="0" stop-color="#008fbe" stop-opacity=".8"/>
      <stop offset=".22" stop-color="#2ca7c9" stop-opacity=".8"/>
      <stop offset=".58" stop-color="#6ecbdb" stop-opacity=".8"/>
      <stop offset=".85" stop-color="#97e1e5" stop-opacity=".8"/>
      <stop offset="1" stop-color="#a7eaea" stop-opacity=".8"/>
    </linearGradient>
    <linearGradient id="linear-gradient-5" x1="792.92" y1="181.77" x2="815.98" y2="181.77" xlink:href="#linear-gradient-4"/>
    <linearGradient id="linear-gradient-6" x1="806.62" y1="171.51" x2="838.85" y2="171.51" xlink:href="#linear-gradient-4"/>
    <linearGradient id="linear-gradient-7" x1="774.17" y1="178" x2="876.42" y2="178" xlink:href="#linear-gradient-4"/>
    <linearGradient id="linear-gradient-8" x1="808.26" y1="166.08" x2="854.87" y2="166.08" xlink:href="#linear-gradient-4"/>
  </defs>
  <ellipse class="cls-8" cx="893.99" cy="252.48" rx="95.99" ry="55.74"/>
  <g>
    <path class="cls-9" d="M930.02,225.82c-20.03-11.57-52.4-11.56-72.3,0-19.9,11.56-19.8,30.31.24,41.88,20.03,11.56,52.4,11.56,72.3,0s19.79-30.31-.24-41.88"/>
    <path class="cls-10" d="M930.02,237.26c-20.03-11.57-52.4-11.56-72.3,0-19.9,11.56-19.8,30.31.24,41.88,20.03,11.56,52.4,11.56,72.3,0,19.9-11.56,19.79-30.31-.24-41.88"/>
    <path class="cls-7" d="M930.02,237.26c-20.03-11.57-52.4-11.56-72.3,0-19.9,11.56-19.8,30.31.24,41.88,20.03,11.56,52.4,11.56,72.3,0,19.9-11.56,19.79-30.31-.24-41.88"/>
    <path class="cls-6" d="M930.02,225.83c-20.03-11.57-52.4-11.56-72.3,0-19.9,11.56-19.8,30.31.24,41.88,20.03,11.56,52.4,11.56,72.3,0,19.9-11.56,19.79-30.31-.24-41.88"/>
    <g>
      <path class="cls-5" d="M873.5,236.08c-1.05,3.69.16,6.98,2.33,9.79,2.42,3.15,6.06,5.68,8.98,7.36.81.46,1.56.87,2.21,1.2-.17-2.84,1.6-5.72,5.32-7.91-.17.1-.34.21-.51.31l-18.33-10.75Z"/>
      <path class="cls-3" d="M882.98,254.31c-3.07-1.77-6.91-4.43-9.53-7.81-2.1-2.71-3.39-5.91-2.8-9.45-10.7,7.8-11.88,18.53-3.62,27.01.64-2.06,2.32-4.03,5.05-5.62l.06-.04c3.46-2.01,7.97-3.06,12.53-3.15-.53-.28-1.1-.59-1.7-.94Z"/>
      <path class="cls-4" d="M891.69,236.28c-4.8-1.24-10.31-1.9-16.38-1.29l18.41,10.8c3.96-1.9,8.97-2.7,13.82-2.39-.77-.52-1.73-1.13-2.86-1.79-3.13-1.81-7.6-3.94-12.99-5.33Z"/>
      <path class="cls-2" d="M930.02,225.83c-20.03-11.57-52.4-11.56-72.3,0s-19.8,30.31.24,41.88c20.03,11.56,52.4,11.56,72.3,0,19.9-11.56,19.79-30.31-.24-41.88ZM928.92,231.66c-.18.32-.7.53-1.28.52-4.26-.08-8.54.82-11.78,2.71l-.05.03h0c-4.36,2.56-5.6,6.22-3.77,9.41,0,.01.02.03.02.04,0,0,0,.01,0,.02,0,.01.01.02.01.04,0,0,0,.01,0,.02,0,.01,0,.02,0,.03,0,0,0,.01,0,.02,0,0,0,.02,0,.03s0,.02,0,.03c0,0,0,.01,0,.02,0,0,0,.02,0,.02,0,0,0,0,0,.01,0,.02,0,.04,0,.05,0,0,0,0,0,0-.04.16-.16.31-.37.43-.18.1-.4.17-.63.2,0,0-.02,0-.02,0-.02,0-.04,0-.07,0-.01,0-.03,0-.04,0-.02,0-.03,0-.05,0-.02,0-.03,0-.05,0h-.04s-.04,0-.06,0h0c-.13,0-.26-.02-.39-.04-4.98-.91-10.54-.36-14.77,1.61l14.75,8.65c.5.3.51.78,0,1.07-.51.3-1.34.29-1.85,0l-14.8-8.69c-3.5,2.26-4.73,5.28-3.71,8.08.08.16.06.34-.06.5-.18.24-.55.4-.97.44,0,0,0,0-.01,0-.01,0-.03,0-.04,0-.14.01-.29,0-.44,0-1.2-.14-2.43-.2-3.65-.18-3.93.07-7.82.97-10.81,2.7l-.06.03c-3.24,1.91-4.75,4.41-4.57,6.89.03.34-.33.65-.88.75-.48.09-1,.02-1.35-.18-.05-.03-.1-.06-.15-.1-12.04-10.02-10.49-23.86,4.8-32.83-.3.18-.6.36-.89.54l-.83-.49c-.51-.29-.51-.78,0-1.07.51-.29,1.33-.29,1.83,0,0,0,0,0,.01,0l.81.48c15.31-8.48,38.57-9.38,55.67-2.68.07.03.13.06.19.09.35.2.48.5.33.77Z"/>
      <path class="cls-1" d="M876.95,233.34c5.83-.34,11.19.37,15.8,1.57,5.8,1.5,10.48,3.75,13.77,5.64.78.45,1.47.88,2.09,1.27-.19-2.86,1.57-5.76,5.32-7.96h0s.07-.04.07-.04c2.71-1.57,6.06-2.56,9.57-2.96-14.75-4.68-33.28-3.85-46.61,2.47Z"/>
    </g>
  </g>
</svg>