<?xml version="1.0" encoding="UTF-8"?>
<svg xmlns="http://www.w3.org/2000/svg" version="1.1" viewBox="0 0 1179.1 424.7">
  <defs>
    <style>
      .cls-1 {
        fill: #08062a;
      }

      .cls-2 {
        fill: #fff;
      }
    </style>
  </defs>
  <!-- Generator: Adobe Illustrator 28.6.0, SVG Export Plug-In . SVG Version: 1.2.0 Build 709)  -->
  <g>
    <g id="Layer_1">
      <path class="cls-2" d="M646.2,151.2h-120.8c-5,0-9-4-9-9v-59.9c0-5,4-9,9-9h120.8v77.9Z"/>
      <path class="cls-2" d="M641.6,73.3v145c0,1.3,1,2.3,2.3,2.3s2.3-1,2.3-2.3V73.3c0-1.3-1-2.3-2.3-2.3s-2.3,1-2.3,2.3h0Z"/>
      <g>
        <polygon class="cls-1" points="539 92.6 543.6 92.6 543.6 105.5 545.9 105.5 545.9 92.6 550.5 92.6 550.5 90.7 539 90.7 539 92.6"/>
        <path class="cls-1" d="M560.1,98.7v6.8h2.2v-7.1c0-.9-.2-1.7-.5-2.3-.3-.6-.8-1.1-1.3-1.4-.6-.3-1.2-.5-2-.5s-1.6.2-2.1.5-.9.8-1.2,1.4h-.1v-5.5h-2.1v14.9h2.2v-6.6c0-.6.1-1.1.3-1.5s.5-.7.9-1c.4-.2.9-.3,1.4-.3.7,0,1.3.2,1.8.7.4.5.6,1.1.6,1.9Z"/>
        <path class="cls-1" d="M573.7,104.3c.4-.5.7-1,.9-1.6l-2.1-.4c-.1.3-.3.6-.6.9-.2.2-.5.4-.9.5-.3.1-.7.2-1.1.2-.6,0-1.2-.1-1.7-.4-.5-.3-.8-.7-1.1-1.2-.2-.5-.4-1.1-.4-1.7h7.9v-.8c0-1-.1-1.9-.4-2.6-.3-.7-.6-1.3-1.1-1.7-.5-.4-1-.8-1.6-1-.6-.2-1.2-.3-1.8-.3-1,0-1.9.2-2.7.7-.8.5-1.4,1.2-1.8,2-.4.9-.6,1.9-.6,3s.2,2.2.6,3c.4.9,1,1.5,1.8,2,.8.5,1.7.7,2.8.7s1.5-.1,2.2-.4,1.2-.6,1.6-1.1ZM567.2,97.6c.2-.5.6-.9,1-1.2.5-.3,1-.4,1.6-.4s1.1.1,1.5.4c.4.3.7.6,1,1s.3.9.3,1.5h-5.8c0-.5.1-.9.3-1.3Z"/>
        <polygon class="cls-1" points="585 99 591.3 99 591.3 97.1 585 97.1 585 92.6 591.9 92.6 591.9 90.7 582.7 90.7 582.7 105.5 585 105.5 585 99"/>
        <rect class="cls-1" x="594.5" y="94.4" width="2.2" height="11.1"/>
        <path class="cls-1" d="M595.6,90.1c-.4,0-.7.1-1,.4s-.4.6-.4.9.1.7.4.9.6.4,1,.4.7-.1,1-.4.4-.6.4-.9-.1-.7-.4-.9-.6-.4-1-.4Z"/>
        <path class="cls-1" d="M604.6,94.2c-.7,0-1.2.2-1.8.5s-.9.8-1.1,1.4h-.1v-1.8h-2.1v11.1h2.2v-6.8c0-.5.1-.9.3-1.3.2-.4.5-.7.9-.9s.9-.3,1.4-.3.4,0,.7,0c.2,0,.4,0,.5,0v-2.1c-.1,0-.3,0-.4,0-.2,0-.3,0-.5,0Z"/>
        <path class="cls-1" d="M613,99.3l-1.8-.4c-.6-.1-1.1-.3-1.3-.6-.3-.2-.4-.5-.4-.9s.2-.8.6-1.1c.4-.3.9-.4,1.5-.4s.8,0,1.1.2c.3.1.5.3.7.6.2.2.3.5.4.7l2-.3c-.2-.9-.7-1.6-1.4-2.1s-1.6-.8-2.8-.8-1.6.1-2.2.4c-.6.3-1.2.7-1.5,1.2s-.6,1.1-.6,1.7.2,1.4.7,2,1.3.9,2.3,1.1l1.9.4c.5.1.9.3,1.2.5s.4.5.4.9-.2.8-.6,1.1c-.4.3-1,.4-1.7.4s-1.2-.1-1.6-.4c-.4-.3-.7-.7-.8-1.2l-2.1.3c.2,1,.7,1.7,1.5,2.3s1.8.8,3.1.8,1.7-.1,2.4-.4c.7-.3,1.2-.7,1.6-1.2.4-.5.6-1.1.6-1.8s-.3-1.4-.8-1.9-1.3-.9-2.3-1.1Z"/>
        <path class="cls-1" d="M623.4,103.6c0,0-.2,0-.3,0s-.3,0-.5,0-.5,0-.7-.1c-.2,0-.4-.2-.5-.4s-.2-.5-.2-.9v-6.1h2.3v-1.7h-2.3v-2.7h-2.2v2.7h-1.6v1.7h1.6v6.6c0,.7.2,1.2.5,1.7.3.4.7.8,1.2,1,.5.2,1,.3,1.6.3.3,0,.6,0,.9,0,.2,0,.4-.1.5-.1l-.4-1.8Z"/>
        <polygon class="cls-1" points="539 117.1 543.6 117.1 543.6 130 545.9 130 545.9 117.1 550.5 117.1 550.5 115.2 539 115.2 539 117.1"/>
        <path class="cls-1" d="M556.7,118.7c-.7,0-1.2.2-1.8.5s-.9.8-1.1,1.4h-.1v-1.8h-2.1v11.1h2.2v-6.8c0-.5.1-.9.3-1.3.2-.4.5-.7.9-.9.4-.2.9-.3,1.4-.3s.4,0,.7,0,.4,0,.5,0v-2.1c-.1,0-.3,0-.4,0s-.3,0-.5,0Z"/>
        <path class="cls-1" d="M566.7,119.5c-.4-.3-.9-.5-1.4-.6-.5-.1-1-.2-1.4-.2-.7,0-1.3,0-1.9.3-.6.2-1.1.5-1.6.9-.5.4-.8,1-1.1,1.6l2,.5c.2-.4.4-.7.9-1.1.4-.3,1-.5,1.7-.5s1.2.2,1.6.5c.4.3.5.8.5,1.5h0c0,.3,0,.5-.3.6s-.5.2-.9.2c-.4,0-1,.1-1.6.2-.5,0-1,.2-1.6.3-.5.1-1,.3-1.4.5-.4.2-.7.6-1,1s-.4.9-.4,1.6.2,1.3.5,1.8.8.9,1.4,1.1c.6.3,1.2.4,1.9.4s1.1,0,1.6-.3.8-.4,1.1-.7c.3-.3.5-.5.6-.8h0v1.5h2.1v-7.4c0-.8-.1-1.5-.4-2-.3-.5-.6-.9-1.1-1.2ZM566,126c0,.4-.1.9-.3,1.2-.2.4-.6.7-1,.9-.4.2-.9.4-1.5.4s-1.1-.1-1.5-.4-.6-.7-.6-1.2.1-.7.3-.9.5-.4.8-.5c.3-.1.7-.2,1.1-.3.2,0,.4,0,.7,0,.3,0,.5,0,.8-.1.3,0,.5-.1.8-.2.2,0,.4-.1.4-.2v1.4Z"/>
        <path class="cls-1" d="M578.6,120.7h-.1c-.1-.2-.3-.5-.5-.8s-.6-.6-1-.8-1-.3-1.7-.3-1.7.2-2.4.7c-.7.5-1.3,1.1-1.7,2s-.6,1.9-.6,3.1.2,2.2.6,3.1c.4.9,1,1.5,1.7,2,.7.5,1.5.7,2.4.7s1.2-.1,1.7-.3c.4-.2.8-.5,1-.8s.4-.6.6-.8h.2v1.7h2.1v-14.9h-2.2v5.5ZM578.3,126.5c-.2.6-.6,1.1-1,1.4s-1,.5-1.6.5-1.2-.2-1.6-.5-.8-.8-1-1.4-.3-1.3-.3-2,.1-1.4.3-2c.2-.6.5-1,1-1.4.4-.3,1-.5,1.6-.5s1.2.2,1.6.5c.4.3.8.8,1,1.4.2.6.3,1.3.3,2s-.1,1.5-.3,2.1Z"/>
        <path class="cls-1" d="M591.9,120c-.5-.4-1-.8-1.6-1-.6-.2-1.2-.3-1.8-.3-1,0-1.9.2-2.7.7-.8.5-1.4,1.2-1.8,2-.4.9-.6,1.9-.6,3s.2,2.2.6,3c.4.9,1,1.5,1.8,2,.8.5,1.7.7,2.8.7s1.5-.1,2.2-.4,1.2-.6,1.6-1.1c.4-.5.7-1,.9-1.6l-2.1-.4c-.1.3-.3.6-.6.9-.2.2-.5.4-.9.5-.3.1-.7.2-1.1.2-.6,0-1.2-.1-1.7-.4-.5-.3-.8-.7-1.1-1.2-.2-.5-.4-1.1-.4-1.7h7.9v-.8c0-1-.1-1.9-.4-2.6-.3-.7-.6-1.3-1.1-1.7ZM585.5,123.5c0-.5.1-.9.3-1.3.2-.5.6-.9,1-1.2.5-.3,1-.4,1.6-.4s1.1.1,1.5.4c.4.3.7.6,1,1s.3.9.3,1.5h-5.8Z"/>
      </g>
    </g>
  </g>
</svg>