<?xml version="1.0" encoding="UTF-8"?>
<svg id="Layer_1" xmlns="http://www.w3.org/2000/svg" xmlns:xlink="http://www.w3.org/1999/xlink" viewBox="0 0 1179.11 424.66">
  <defs>
    <style>
      .cls-1 {
        fill: url(#linear-gradient-8);
      }

      .cls-2 {
        fill: url(#linear-gradient-7);
      }

      .cls-3 {
        fill: url(#linear-gradient-5);
      }

      .cls-4 {
        fill: url(#linear-gradient-6);
      }

      .cls-5 {
        fill: url(#linear-gradient-9);
      }

      .cls-6 {
        fill: url(#linear-gradient-4);
      }

      .cls-7 {
        fill: url(#linear-gradient-3);
      }

      .cls-8 {
        fill: url(#linear-gradient-2);
      }

      .cls-9 {
        fill: url(#radial-gradient);
      }

      .cls-10 {
        fill: url(#linear-gradient);
      }

      .cls-11 {
        fill: url(#linear-gradient-10);
      }

      .cls-12 {
        fill: #08062a;
      }
    </style>
    <radialGradient id="radial-gradient" cx="1212.21" cy="-569.94" fx="1212.21" fy="-569.94" r="54.75" gradientTransform="translate(-1604.28 880.89) scale(1.48 1)" gradientUnits="userSpaceOnUse">
      <stop offset="0" stop-color="#008fbe" stop-opacity=".8"/>
      <stop offset=".3" stop-color="#3bafcd" stop-opacity=".51"/>
      <stop offset=".62" stop-color="#75cedc" stop-opacity=".24"/>
      <stop offset=".87" stop-color="#99e2e6" stop-opacity=".06"/>
      <stop offset="1" stop-color="#a7eaea" stop-opacity="0"/>
    </radialGradient>
    <linearGradient id="linear-gradient" x1="72.98" y1="374.26" x2="175.22" y2="374.26" gradientTransform="translate(68.8 -68.72)" gradientUnits="userSpaceOnUse">
      <stop offset=".16" stop-color="#008fbe" stop-opacity=".2"/>
      <stop offset=".76" stop-color="#a7eaea" stop-opacity=".8"/>
      <stop offset=".94" stop-color="#fff" stop-opacity=".8"/>
    </linearGradient>
    <linearGradient id="linear-gradient-2" y1="385.7" y2="385.7" xlink:href="#linear-gradient"/>
    <linearGradient id="linear-gradient-3" x1="72.98" y1="374.27" x2="175.22" y2="374.27" gradientTransform="translate(68.8 -68.72)" gradientUnits="userSpaceOnUse">
      <stop offset="0" stop-color="#008fbe" stop-opacity=".2"/>
      <stop offset=".58" stop-color="#08062a" stop-opacity=".55"/>
      <stop offset="1" stop-color="#a7eaea" stop-opacity=".8"/>
    </linearGradient>
    <linearGradient id="linear-gradient-4" x1="115.11" y1="372.74" x2="122.8" y2="372.74" gradientTransform="translate(68.8 -68.72)" gradientUnits="userSpaceOnUse">
      <stop offset="0" stop-color="#008fbe" stop-opacity=".8"/>
      <stop offset=".22" stop-color="#2ca7c9" stop-opacity=".8"/>
      <stop offset=".58" stop-color="#6ecbdb" stop-opacity=".8"/>
      <stop offset=".85" stop-color="#97e1e5" stop-opacity=".8"/>
      <stop offset="1" stop-color="#a7eaea" stop-opacity=".8"/>
    </linearGradient>
    <linearGradient id="linear-gradient-5" x1="126.73" y1="376.53" x2="134.41" y2="376.53" xlink:href="#linear-gradient-4"/>
    <linearGradient id="linear-gradient-6" x1="92.07" y1="362.55" x2="115.58" y2="362.55" xlink:href="#linear-gradient-4"/>
    <linearGradient id="linear-gradient-7" x1="93.4" y1="381.85" x2="131.31" y2="381.85" xlink:href="#linear-gradient-4"/>
    <linearGradient id="linear-gradient-8" x1="72.98" y1="374.27" x2="175.22" y2="374.27" xlink:href="#linear-gradient-4"/>
    <linearGradient id="linear-gradient-9" x1="118.22" y1="367.42" x2="156.13" y2="367.42" xlink:href="#linear-gradient-4"/>
    <linearGradient id="linear-gradient-10" x1="105.14" y1="374.64" x2="144.39" y2="374.64" xlink:href="#linear-gradient-4"/>
  </defs>
  <ellipse class="cls-9" cx="192.9" cy="311.26" rx="95.99" ry="55.74"/>
  <g>
    <path class="cls-10" d="M228.93,284.6c-20.03-11.57-52.4-11.56-72.3,0-19.9,11.56-19.8,30.31.24,41.88,20.03,11.56,52.4,11.56,72.3,0,19.9-11.56,19.79-30.31-.24-41.88"/>
    <path class="cls-12" d="M228.93,296.04c-20.03-11.57-52.4-11.56-72.3,0-19.9,11.56-19.8,30.31.24,41.88,20.03,11.56,52.4,11.56,72.3,0,19.9-11.56,19.79-30.31-.24-41.88"/>
    <path class="cls-8" d="M228.93,296.04c-20.03-11.57-52.4-11.56-72.3,0-19.9,11.56-19.8,30.31.24,41.88,20.03,11.56,52.4,11.56,72.3,0,19.9-11.56,19.79-30.31-.24-41.88"/>
    <path class="cls-7" d="M228.93,284.62c-20.03-11.57-52.4-11.56-72.3,0-19.9,11.56-19.8,30.31.24,41.88,20.03,11.56,52.4,11.56,72.3,0,19.9-11.56,19.79-30.31-.24-41.88"/>
    <g>
      <path class="cls-6" d="M183.91,303.29c0,.76.51,1.51,1.51,2.09,1,.58,2.3.87,3.61.87.89,0,1.78-.13,2.57-.4l-7-4.04c-.46.46-.69.97-.68,1.49Z"/>
      <path class="cls-3" d="M201.71,306.45c-1.01-.58-2.3-.87-3.61-.87-.89,0-1.78.13-2.56.4l7,4.04c.46-.46.68-.97.68-1.49,0-.76-.5-1.51-1.5-2.09Z"/>
      <path class="cls-4" d="M184.37,292.98l-7.59-4.38c-1.83-1.06-4.22-1.58-6.61-1.58s-4.78.53-6.6,1.58-2.72,2.44-2.71,3.83c0,1.39.92,2.76,2.75,3.82l7.59,4.38,13.17-7.65Z"/>
      <path class="cls-2" d="M177.89,315.02c-6.02-3.48-7.9-8.46-5.62-12.86l-.13.08-9.41,5.47c-.72.42-.71,1.09,0,1.51l25.22,14.56c.73.42,1.89.42,2.62,0l9.54-5.54c-7.59,1.34-16.19.26-22.22-3.22Z"/>
      <path class="cls-1" d="M228.93,284.62c-20.03-11.57-52.4-11.56-72.3,0s-19.8,30.31.24,41.88c20.03,11.56,52.4,11.56,72.3,0,19.9-11.56,19.79-30.31-.24-41.88ZM226.25,305.2l-16.91,9.83-16.91,9.83c-1.74,1.01-4.56,1.01-6.31,0l-25.22-14.56c-1.74-1.01-1.75-2.64-.01-3.65l8.49-4.93-7.59-4.38c-4.68-2.7-4.71-7.08-.06-9.79,4.66-2.71,12.22-2.7,16.9,0l7.59,4.38,8.49-4.93c1.74-1.01,4.56-1.01,6.31,0l25.22,14.56c1.75,1.01,1.76,2.65.02,3.66Z"/>
      <path class="cls-5" d="M224.38,302.61l-25.22-14.56c-.72-.42-1.89-.42-2.61,0l-9.41,5.47-.13.08c7.59-1.34,16.19-.26,22.22,3.21,6.03,3.48,7.91,8.46,5.62,12.86l9.54-5.54c.71-.42.71-1.1-.01-1.52Z"/>
      <path class="cls-11" d="M213.19,305.91c-.02-2.91-1.95-5.81-5.8-8.04-3.84-2.22-8.86-3.33-13.89-3.33-5.03,0-10.04,1.11-13.86,3.33-3.82,2.22-5.72,5.13-5.7,8.04.02,2.91,1.95,5.81,5.79,8.03,3.85,2.22,8.87,3.33,13.89,3.33,5.03,0,10.03-1.11,13.86-3.33,3.82-2.23,5.72-5.13,5.7-8.04ZM204.96,311.43c.51.29.51.77,0,1.07-.51.29-1.33.29-1.85,0l-.54-.31c-3.01,1.24-7.21,1.07-9.91-.49-.52-.3-.52-.78-.01-1.07.51-.29,1.33-.29,1.85,0,1,.58,2.3.86,3.61.86.89,0,1.78-.13,2.57-.4l-7.2-4.16c-3.01,1.24-7.2,1.07-9.92-.49-2.7-1.56-3-3.99-.88-5.74l-.54-.31c-.51-.29-.51-.77,0-1.07.51-.29,1.33-.29,1.85,0l.54.31c3.01-1.24,7.2-1.07,9.91.49.51.29.51.77,0,1.07-.51.29-1.33.29-1.85,0-1-.58-2.3-.87-3.61-.87-.89,0-1.78.13-2.56.4l7.2,4.16c3.01-1.24,7.21-1.07,9.92.49,2.7,1.56,3,3.99.88,5.74l.54.31Z"/>
    </g>
  </g>
</svg>