<?xml version="1.0" encoding="UTF-8"?>
<svg xmlns="http://www.w3.org/2000/svg" version="1.1" viewBox="0 0 1179.1 424.7">
  <defs>
    <style>
      .cls-1 {
        fill: #08062a;
      }

      .cls-2 {
        fill: #fff;
      }
    </style>
  </defs>
  <!-- Generator: Adobe Illustrator 28.6.0, SVG Export Plug-In . SVG Version: 1.2.0 Build 709)  -->
  <g>
    <g id="Layer_1">
      <path class="cls-2" d="M998.4,242.4h-137.5c-5,0-9-4-9-9v-59.9c0-5,4-9,9-9h137.5v77.9h0Z"/>
      <path class="cls-2" d="M993.8,164.5v145c0,1.3,1,2.3,2.3,2.3s2.3-1,2.3-2.3v-145c0-1.3-1-2.3-2.3-2.3s-2.3,1-2.3,2.3h0Z"/>
      <g>
        <polygon class="cls-1" points="884.9 194.8 877.7 194.8 877.7 190.2 884.3 190.2 884.3 188.3 877.7 188.3 877.7 183.8 884.8 183.8 884.8 181.9 875.5 181.9 875.5 196.7 884.9 196.7 884.9 194.8"/>
        <polygon class="cls-1" points="894.3 196.7 896.7 196.7 893.1 191.1 896.6 185.6 894.2 185.6 891.8 189.9 889.3 185.6 886.9 185.6 890.4 191.1 886.9 196.7 889.3 196.7 891.8 192.5 894.3 196.7"/>
        <path class="cls-1" d="M906.8,186.1c-.7-.5-1.5-.7-2.4-.7s-1.2.1-1.7.3c-.4.2-.7.5-1,.8-.2.3-.4.6-.5.8h-.2v-1.8h-2.1v15.3h2.2v-5.9h.1c.1.2.3.5.6.8.2.3.6.6,1,.8.4.2,1,.3,1.7.3s1.7-.2,2.4-.7c.7-.5,1.3-1.1,1.7-2,.4-.9.6-1.9.6-3.1s-.2-2.2-.6-3.1c-.4-.9-1-1.5-1.7-2ZM906.5,193.1c-.2.6-.6,1.1-1,1.4-.4.3-1,.5-1.6.5s-1.2-.2-1.6-.5c-.4-.3-.8-.8-1-1.4-.2-.6-.3-1.3-.3-2.1s.1-1.5.3-2,.5-1,1-1.4c.4-.3,1-.5,1.6-.5s1.2.2,1.6.5c.4.3.8.8,1,1.4.2.6.3,1.2.3,2s-.1,1.4-.3,2Z"/>
        <path class="cls-1" d="M917.4,196c.3-.3.5-.5.6-.8h0v1.5h2.1v-7.4c0-.8-.1-1.5-.4-2-.3-.5-.6-.9-1.1-1.2-.4-.3-.9-.5-1.4-.6-.5-.1-1-.2-1.4-.2-.7,0-1.3,0-1.9.3-.6.2-1.1.5-1.6.9-.5.4-.8,1-1.1,1.6l2,.5c.2-.4.4-.7.9-1.1.4-.3,1-.5,1.7-.5s1.2.2,1.6.5c.4.3.5.8.5,1.5h0c0,.3,0,.5-.3.6s-.5.2-.9.2c-.4,0-1,.1-1.6.2-.5,0-1,.2-1.6.3-.5.1-1,.3-1.4.5-.4.2-.7.6-1,1-.2.4-.4.9-.4,1.6s.2,1.3.5,1.8.8.9,1.4,1.1,1.2.4,1.9.4,1.1,0,1.6-.3c.4-.2.8-.4,1.1-.7ZM913.7,194.8c-.4-.3-.6-.7-.6-1.2s.1-.7.3-.9c.2-.2.5-.4.8-.5.3-.1.7-.2,1.1-.3.2,0,.4,0,.7,0,.3,0,.5,0,.8-.1.3,0,.5-.1.8-.2s.4-.1.4-.2v1.4c0,.4-.1.9-.3,1.2-.2.4-.6.7-1,.9-.4.2-.9.4-1.5.4s-1.1-.1-1.5-.4Z"/>
        <path class="cls-1" d="M927.8,187.3c.7,0,1.3.2,1.7.7.4.5.6,1.1.6,1.9v6.8h2.2v-7.1c0-.9-.2-1.7-.5-2.3-.3-.6-.8-1.1-1.3-1.4-.6-.3-1.2-.5-2-.5s-1.5.2-2.1.5c-.5.4-1,.8-1.2,1.4h-.1v-1.8h-2.1v11.1h2.2v-6.6c0-.6.1-1.1.3-1.5s.5-.7.9-1c.4-.2.8-.3,1.3-.3Z"/>
        <path class="cls-1" d="M941.1,196.6c.4-.2.8-.5,1-.8s.4-.6.6-.8h.2v1.7h2.1v-14.9h-2.2v5.5h-.1c-.1-.2-.3-.5-.5-.8s-.6-.6-1-.8-1-.3-1.7-.3-1.7.2-2.4.7c-.7.5-1.3,1.1-1.7,2-.4.9-.6,1.9-.6,3.1s.2,2.2.6,3.1c.4.9,1,1.5,1.7,2,.7.5,1.5.7,2.4.7s1.2-.1,1.7-.3ZM937.3,193.1c-.2-.6-.3-1.3-.3-2s.1-1.4.3-2c.2-.6.5-1,1-1.4.4-.3,1-.5,1.6-.5s1.2.2,1.6.5c.4.3.8.8,1,1.4.2.6.3,1.3.3,2s-.1,1.5-.3,2.1-.6,1.1-1,1.4-1,.5-1.6.5-1.2-.2-1.6-.5-.8-.8-1-1.4Z"/>
        <path class="cls-1" d="M949.2,181.3c-.4,0-.7.1-1,.4s-.4.6-.4.9.1.7.4.9.6.4,1,.4.7-.1,1-.4.4-.6.4-.9-.1-.7-.4-.9-.6-.4-1-.4Z"/>
        <rect class="cls-1" x="948.1" y="185.6" width="2.2" height="11.1"/>
        <path class="cls-1" d="M960.6,185.9c-.6-.3-1.2-.5-2-.5s-1.5.2-2.1.5c-.5.4-1,.8-1.2,1.4h-.1v-1.8h-2.1v11.1h2.2v-6.6c0-.6.1-1.1.3-1.5s.5-.7.9-1c.4-.2.8-.3,1.3-.3.7,0,1.3.2,1.7.7.4.5.6,1.1.6,1.9v6.8h2.2v-7.1c0-.9-.2-1.7-.5-2.3-.3-.6-.8-1.1-1.3-1.4Z"/>
        <path class="cls-1" d="M972.9,185.6v1.8h-.2c-.1-.2-.3-.5-.6-.8-.2-.3-.6-.6-1-.8-.4-.2-1-.3-1.7-.3s-1.7.2-2.4.7c-.7.5-1.3,1.1-1.7,1.9-.4.8-.6,1.9-.6,3s.2,2.2.6,3c.4.8,1,1.4,1.7,1.8.7.4,1.5.6,2.4.6s1.2-.1,1.7-.3c.4-.2.8-.5,1-.8s.4-.6.6-.8h.1v2.2c0,.9-.3,1.5-.8,1.9-.5.4-1.2.6-2,.6s-1.1,0-1.5-.3c-.4-.2-.7-.4-.9-.6-.2-.2-.4-.5-.5-.7l-1.9.8c.2.5.5.9.9,1.3s.9.7,1.6.9c.6.2,1.4.3,2.3.3s1.8-.1,2.6-.4,1.4-.8,1.8-1.4c.4-.6.7-1.4.7-2.4v-11.4h-2.1ZM972.6,193c-.2.5-.6,1-1,1.3-.4.3-1,.4-1.6.4s-1.2-.2-1.6-.5c-.4-.3-.8-.7-1-1.3-.2-.6-.3-1.2-.3-1.9s.1-1.4.3-1.9c.2-.6.5-1,1-1.4.4-.3,1-.5,1.6-.5s1.2.2,1.6.5.8.8,1,1.3c.2.6.3,1.2.3,2s-.1,1.4-.3,2Z"/>
        <polygon class="cls-1" points="885.1 212.8 877.7 212.8 877.7 206.4 875.5 206.4 875.5 221.2 877.7 221.2 877.7 214.7 885.1 214.7 885.1 221.2 887.4 221.2 887.4 206.4 885.1 206.4 885.1 212.8"/>
        <path class="cls-1" d="M897.9,210.7c-.8-.5-1.7-.7-2.7-.7s-2,.2-2.7.7-1.4,1.2-1.8,2c-.4.9-.6,1.9-.6,3s.2,2.2.6,3c.4.9,1,1.5,1.8,2s1.7.7,2.7.7,2-.2,2.7-.7,1.4-1.1,1.8-2c.4-.9.6-1.9.6-3s-.2-2.2-.6-3c-.4-.9-1-1.5-1.8-2ZM897.8,217.7c-.2.6-.5,1.1-1,1.4-.4.4-1,.5-1.7.5s-1.2-.2-1.7-.5-.8-.8-1-1.4-.3-1.2-.3-2,.1-1.4.3-2c.2-.6.5-1.1,1-1.4.4-.4,1-.5,1.7-.5s1.2.2,1.7.5c.4.4.8.8,1,1.4.2.6.3,1.3.3,2s-.1,1.4-.3,2Z"/>
        <path class="cls-1" d="M907.8,209.9c-.7,0-1.2.2-1.8.5s-.9.8-1.1,1.4h-.1v-1.8h-2.1v11.1h2.2v-6.8c0-.5.1-.9.3-1.3.2-.4.5-.7.9-.9.4-.2.9-.3,1.4-.3s.4,0,.7,0c.2,0,.4,0,.5,0v-2.1c-.1,0-.3,0-.4,0-.2,0-.3,0-.5,0Z"/>
        <path class="cls-1" d="M911.7,205.8c-.4,0-.7.1-1,.4s-.4.6-.4.9.1.7.4.9.6.4,1,.4.7-.1,1-.4.4-.6.4-.9-.1-.7-.4-.9-.6-.4-1-.4Z"/>
        <rect class="cls-1" x="910.6" y="210.1" width="2.2" height="11.1"/>
        <polygon class="cls-1" points="918.4 219.2 924.2 211.7 924.2 210.1 915.6 210.1 915.6 212 921.5 212 921.5 212.1 915.4 219.7 915.4 221.2 924.4 221.2 924.4 219.3 918.4 219.3 918.4 219.2"/>
        <path class="cls-1" d="M934,210.7c-.8-.5-1.7-.7-2.7-.7s-2,.2-2.7.7-1.4,1.2-1.8,2c-.4.9-.6,1.9-.6,3s.2,2.2.6,3c.4.9,1,1.5,1.8,2s1.7.7,2.7.7,2-.2,2.7-.7,1.4-1.1,1.8-2c.4-.9.6-1.9.6-3s-.2-2.2-.6-3c-.4-.9-1-1.5-1.8-2ZM934,217.7c-.2.6-.5,1.1-1,1.4-.4.4-1,.5-1.7.5s-1.2-.2-1.7-.5-.8-.8-1-1.4-.3-1.2-.3-2,.1-1.4.3-2c.2-.6.5-1.1,1-1.4.4-.4,1-.5,1.7-.5s1.2.2,1.7.5c.4.4.8.8,1,1.4.2.6.3,1.3.3,2s-.1,1.4-.3,2Z"/>
        <path class="cls-1" d="M946.4,210.4c-.6-.3-1.2-.5-2-.5s-1.5.2-2.1.5c-.5.4-1,.8-1.2,1.4h-.1v-1.8h-2.1v11.1h2.2v-6.6c0-.6.1-1.1.3-1.5.2-.4.5-.7.9-1,.4-.2.8-.3,1.3-.3.7,0,1.3.2,1.7.7s.6,1.1.6,1.9v6.8h2.2v-7.1c0-.9-.2-1.7-.5-2.3-.3-.6-.8-1.1-1.3-1.4Z"/>
        <path class="cls-1" d="M956.6,215l-1.8-.4c-.6-.1-1.1-.3-1.3-.6-.3-.2-.4-.5-.4-.9s.2-.8.6-1.1c.4-.3.9-.4,1.5-.4s.8,0,1.1.2c.3.1.5.3.7.6.2.2.3.5.4.7l2-.3c-.2-.9-.7-1.6-1.4-2.1-.7-.5-1.6-.8-2.8-.8s-1.6.1-2.2.4-1.2.7-1.5,1.2-.6,1.1-.6,1.7.2,1.4.7,2c.5.5,1.3.9,2.3,1.1l1.9.4c.5.1.9.3,1.2.5s.4.5.4.9-.2.8-.6,1.1c-.4.3-1,.4-1.7.4s-1.2-.1-1.6-.4c-.4-.3-.7-.7-.8-1.2l-2.1.3c.2,1,.7,1.7,1.5,2.3s1.8.8,3.1.8,1.7-.1,2.4-.4c.7-.3,1.2-.7,1.6-1.2.4-.5.6-1.1.6-1.8s-.3-1.4-.8-1.9c-.5-.5-1.3-.9-2.3-1.1Z"/>
      </g>
    </g>
  </g>
</svg>