<?xml version="1.0" encoding="UTF-8"?>
<svg id="Layer_1" xmlns="http://www.w3.org/2000/svg" xmlns:xlink="http://www.w3.org/1999/xlink" viewBox="0 0 1179.11 424.66">
  <defs>
    <style>
      .cls-1 {
        fill: url(#linear-gradient-7);
      }

      .cls-2 {
        fill: url(#linear-gradient-5);
      }

      .cls-3 {
        fill: url(#linear-gradient-6);
      }

      .cls-4 {
        fill: url(#linear-gradient-4);
      }

      .cls-5 {
        fill: url(#linear-gradient-3);
      }

      .cls-6 {
        fill: url(#linear-gradient-2);
      }

      .cls-7 {
        fill: url(#radial-gradient);
      }

      .cls-8 {
        fill: url(#linear-gradient);
      }

      .cls-9 {
        fill: #08062a;
      }
    </style>
    <radialGradient id="radial-gradient" cx="1910.07" cy="381.57" fx="1910.07" fy="381.57" r="54.75" gradientTransform="translate(-2633.63 -68.77) scale(1.48 1)" gradientUnits="userSpaceOnUse">
      <stop offset="0" stop-color="#008fbe" stop-opacity=".8"/>
      <stop offset=".3" stop-color="#3bafcd" stop-opacity=".51"/>
      <stop offset=".62" stop-color="#75cedc" stop-opacity=".24"/>
      <stop offset=".87" stop-color="#99e2e6" stop-opacity=".06"/>
      <stop offset="1" stop-color="#a7eaea" stop-opacity="0"/>
    </radialGradient>
    <linearGradient id="linear-gradient" x1="77.56" y1="376.17" x2="179.8" y2="376.17" gradientTransform="translate(68.77 -68.77)" gradientUnits="userSpaceOnUse">
      <stop offset=".16" stop-color="#008fbe" stop-opacity=".2"/>
      <stop offset=".76" stop-color="#a7eaea" stop-opacity=".8"/>
      <stop offset=".94" stop-color="#fff" stop-opacity=".8"/>
    </linearGradient>
    <linearGradient id="linear-gradient-2" y1="387.6" y2="387.6" xlink:href="#linear-gradient"/>
    <linearGradient id="linear-gradient-3" x1="77.56" y1="376.18" x2="179.8" y2="376.18" gradientTransform="translate(68.77 -68.77)" gradientUnits="userSpaceOnUse">
      <stop offset="0" stop-color="#008fbe" stop-opacity=".2"/>
      <stop offset=".58" stop-color="#08062a" stop-opacity=".55"/>
      <stop offset="1" stop-color="#a7eaea" stop-opacity=".8"/>
    </linearGradient>
    <linearGradient id="linear-gradient-4" x1="130.09" y1="373.51" x2="161.32" y2="373.51" gradientTransform="translate(68.77 -68.77)" gradientUnits="userSpaceOnUse">
      <stop offset="0" stop-color="#008fbe" stop-opacity=".8"/>
      <stop offset=".22" stop-color="#2ca7c9" stop-opacity=".8"/>
      <stop offset=".58" stop-color="#6ecbdb" stop-opacity=".8"/>
      <stop offset=".85" stop-color="#97e1e5" stop-opacity=".8"/>
      <stop offset="1" stop-color="#a7eaea" stop-opacity=".8"/>
    </linearGradient>
    <linearGradient id="linear-gradient-5" x1="97.11" y1="386.05" x2="151.14" y2="386.05" xlink:href="#linear-gradient-4"/>
    <linearGradient id="linear-gradient-6" x1="96.44" y1="368.96" x2="135.86" y2="368.96" xlink:href="#linear-gradient-4"/>
    <linearGradient id="linear-gradient-7" x1="77.56" y1="376.18" x2="179.8" y2="376.18" xlink:href="#linear-gradient-4"/>
  </defs>
  <ellipse class="cls-7" cx="197.45" cy="313.12" rx="95.99" ry="55.74"/>
  <g>
    <path class="cls-8" d="M233.48,286.46c-20.03-11.57-52.4-11.56-72.3,0-19.9,11.56-19.8,30.31.24,41.88,20.03,11.56,52.4,11.56,72.3,0,19.9-11.56,19.79-30.31-.24-41.88"/>
    <path class="cls-9" d="M233.48,297.9c-20.03-11.57-52.4-11.56-72.3,0-19.9,11.56-19.8,30.31.24,41.88,20.03,11.56,52.4,11.56,72.3,0,19.9-11.56,19.79-30.31-.24-41.88"/>
    <path class="cls-6" d="M233.48,297.9c-20.03-11.57-52.4-11.56-72.3,0-19.9,11.56-19.8,30.31.24,41.88,20.03,11.56,52.4,11.56,72.3,0,19.9-11.56,19.79-30.31-.24-41.88"/>
    <path class="cls-5" d="M233.48,286.47c-20.03-11.57-52.4-11.56-72.3,0-19.9,11.56-19.8,30.31.24,41.88,20.03,11.56,52.4,11.56,72.3,0,19.9-11.56,19.79-30.31-.24-41.88"/>
    <g>
      <polygon class="cls-4" points="198.86 307.14 221.77 320.37 230.09 302.33 207.17 289.1 198.86 307.14"/>
      <polygon class="cls-2" points="165.88 313.1 188.8 326.33 219.91 321.46 196.99 308.23 165.88 313.1"/>
      <polygon class="cls-3" points="204.63 288.74 173.52 293.61 165.21 311.64 196.31 306.76 204.63 288.74"/>
      <path class="cls-1" d="M233.48,286.47c-20.03-11.57-52.4-11.56-72.3,0s-19.8,30.31.24,41.88c20.03,11.56,52.4,11.56,72.3,0,19.9-11.56,19.79-30.31-.24-41.88ZM232.8,302.31l-9.09,19.72c-.06.13-.18.25-.34.34-.16.1-.36.17-.59.2l-34.02,5.33c-.44.07-.94,0-1.26-.19l-25.05-14.46c-.33-.19-.46-.47-.34-.73l9.1-19.73c.11-.26.47-.46.91-.53l33.84-5.31c.07-.02.13-.03.2-.04.45-.07.93,0,1.26.2l25.05,14.46c.33.19.46.47.33.73Z"/>
    </g>
  </g>
</svg>