<?xml version="1.0" encoding="UTF-8"?>
<svg xmlns="http://www.w3.org/2000/svg" version="1.1" viewBox="0 0 1179.1 424.7">
  <defs>
    <style>
      .cls-1 {
        fill: #08062a;
      }

      .cls-2 {
        fill: #fff;
      }
    </style>
  </defs>
  <!-- Generator: Adobe Illustrator 28.6.0, SVG Export Plug-In . SVG Version: 1.2.0 Build 709)  -->
  <g>
    <g id="Layer_1">
      <path class="cls-2" d="M496.7,183.9h-213.4c-5,0-9-4-9-9v-59.9c0-5,4-9,9-9h213.4v77.9Z"/>
      <path class="cls-2" d="M492,106v145c0,1.3,1,2.3,2.3,2.3s2.3-1,2.3-2.3V106c0-1.3-1-2.3-2.3-2.3s-2.3,1-2.3,2.3h0Z"/>
      <g>
        <polygon class="cls-1" points="294.1 125.3 298.7 125.3 298.7 138.2 301 138.2 301 125.3 305.6 125.3 305.6 123.4 294.1 123.4 294.1 125.3"/>
        <path class="cls-1" d="M315.6,127.4c-.6-.3-1.2-.5-2-.5s-1.6.2-2.1.5-.9.8-1.2,1.4h-.1v-5.5h-2.1v14.9h2.2v-6.6c0-.6.1-1.1.3-1.5s.5-.7.9-1c.4-.2.9-.3,1.4-.3.7,0,1.3.2,1.8.7.4.5.6,1.1.6,1.9v6.8h2.2v-7.1c0-.9-.2-1.7-.5-2.3-.3-.6-.8-1.1-1.3-1.4Z"/>
        <path class="cls-1" d="M328.3,128.2c-.5-.4-1-.8-1.6-1-.6-.2-1.2-.3-1.8-.3-1,0-1.9.2-2.7.7-.8.5-1.4,1.2-1.8,2-.4.9-.6,1.9-.6,3s.2,2.2.6,3c.4.9,1,1.5,1.8,2,.8.5,1.7.7,2.8.7s1.5-.1,2.2-.4,1.2-.6,1.6-1.1c.4-.5.7-1,.9-1.6l-2.1-.4c-.1.3-.3.6-.6.9-.2.2-.5.4-.9.5-.3.1-.7.2-1.1.2-.6,0-1.2-.1-1.7-.4-.5-.3-.8-.7-1.1-1.2-.2-.5-.4-1.1-.4-1.7h7.9v-.8c0-1-.1-1.9-.4-2.6-.3-.7-.6-1.3-1.1-1.7ZM321.9,131.7c0-.5.1-.9.3-1.3.2-.5.6-.9,1-1.2.5-.3,1-.4,1.6-.4s1.1.1,1.5.4c.4.3.7.6,1,1s.3.9.3,1.5h-5.8Z"/>
        <polygon class="cls-1" points="349.7 138.2 349.7 123.4 347.5 123.4 347.5 129.8 340.1 129.8 340.1 123.4 337.8 123.4 337.8 138.2 340.1 138.2 340.1 131.8 347.5 131.8 347.5 138.2 349.7 138.2"/>
        <path class="cls-1" d="M362,138.2v-11.1h-2.2v6.5c0,.6-.1,1.2-.4,1.6-.3.4-.6.7-1,.9-.4.2-.8.3-1.2.3-.7,0-1.2-.2-1.6-.7-.4-.4-.6-1.1-.6-1.8v-6.8h-2.2v7.1c0,.9.2,1.7.5,2.3.3.6.7,1.1,1.3,1.4.5.3,1.2.5,1.9.5s1.5-.2,2.1-.6c.6-.4,1-.9,1.2-1.5h.1v1.9h2.1Z"/>
        <path class="cls-1" d="M373.6,138.2v-7.1c0-.7.2-1.2.6-1.7s.9-.6,1.6-.6,1.1.2,1.5.5c.4.3.6.9.6,1.6v7.3h2.2v-7.5c0-1.3-.3-2.2-1-2.9-.6-.6-1.5-1-2.5-1s-1.5.2-2.1.5-1,.8-1.3,1.4h-.1c-.2-.6-.6-1.1-1.1-1.4-.5-.3-1.1-.5-1.9-.5s-1.4.2-1.9.5-.9.8-1.1,1.4h-.1v-1.8h-2.1v11.1h2.2v-6.9c0-.5.1-.9.3-1.3.2-.4.5-.7.8-.9.3-.2.7-.3,1.1-.3.6,0,1.1.2,1.5.6s.6.9.6,1.5v7.4h2.2Z"/>
        <path class="cls-1" d="M389.6,136.7v1.5h2.1v-7.4c0-.8-.1-1.5-.4-2-.3-.5-.6-.9-1.1-1.2-.4-.3-.9-.5-1.4-.6-.5-.1-1-.2-1.4-.2-.7,0-1.3,0-1.9.3-.6.2-1.1.5-1.6.9-.5.4-.8,1-1.1,1.6l2,.5c.2-.4.4-.7.9-1.1.4-.3,1-.5,1.7-.5s1.2.2,1.6.5c.4.3.5.8.5,1.5h0c0,.3,0,.5-.3.6s-.5.2-.9.2c-.4,0-1,.1-1.6.2-.5,0-1,.2-1.6.3-.5.1-1,.3-1.4.5-.4.2-.7.6-1,1s-.4.9-.4,1.6.2,1.3.5,1.8.8.9,1.4,1.1c.6.3,1.2.4,1.9.4s1.1,0,1.6-.3.8-.4,1.1-.7c.3-.3.5-.5.6-.8h0ZM388.3,136.4c-.4.2-.9.4-1.5.4s-1.1-.1-1.5-.4-.6-.7-.6-1.2.1-.7.3-.9.5-.4.8-.5c.3-.1.7-.2,1.1-.3.2,0,.4,0,.7,0,.3,0,.5,0,.8-.1.3,0,.5-.1.8-.2.2,0,.4-.1.4-.2v1.4c0,.4-.1.9-.3,1.2-.2.4-.6.7-1,.9Z"/>
        <path class="cls-1" d="M402.1,127.4c-.6-.3-1.2-.5-2-.5s-1.5.2-2.1.5c-.5.4-1,.8-1.2,1.4h-.1v-1.8h-2.1v11.1h2.2v-6.6c0-.6.1-1.1.3-1.5s.5-.7.9-1c.4-.2.8-.3,1.3-.3.7,0,1.3.2,1.7.7.4.5.6,1.1.6,1.9v6.8h2.2v-7.1c0-.9-.2-1.7-.5-2.3-.3-.6-.8-1.1-1.3-1.4Z"/>
        <rect class="cls-1" x="412.4" y="123.4" width="2.2" height="14.9"/>
        <path class="cls-1" d="M429.4,127c-.8,0-1.5.2-2.1.5s-1,.8-1.3,1.4h-.1c-.2-.6-.6-1.1-1.1-1.4-.5-.3-1.1-.5-1.9-.5s-1.4.2-1.9.5-.9.8-1.1,1.4h-.1v-1.8h-2.1v11.1h2.2v-6.9c0-.5.1-.9.3-1.3.2-.4.5-.7.8-.9.3-.2.7-.3,1.1-.3.6,0,1.1.2,1.5.6s.6.9.6,1.5v7.4h2.2v-7.1c0-.7.2-1.2.6-1.7s.9-.6,1.6-.6,1.1.2,1.5.5c.4.3.6.9.6,1.6v7.3h2.2v-7.5c0-1.3-.3-2.2-1-2.9-.6-.6-1.5-1-2.5-1Z"/>
        <path class="cls-1" d="M443.7,137.8c.7-.5,1.3-1.1,1.7-2,.4-.9.6-1.9.6-3.1s-.2-2.2-.6-3.1c-.4-.9-1-1.5-1.7-2-.7-.5-1.5-.7-2.4-.7s-1.2.1-1.7.3c-.4.2-.7.5-1,.8-.2.3-.4.6-.5.8h-.2v-1.8h-2.1v15.3h2.2v-5.9h.1c.1.2.3.5.6.8s.6.6,1,.8c.4.2,1,.3,1.7.3s1.7-.2,2.4-.7ZM439.2,136.1c-.4-.3-.8-.8-1-1.4-.2-.6-.3-1.3-.3-2.1s.1-1.5.3-2c.2-.6.6-1,1-1.4.4-.3,1-.5,1.6-.5s1.2.2,1.6.5c.4.3.8.8,1,1.4.2.6.3,1.2.3,2s-.1,1.4-.3,2c-.2.6-.6,1.1-1,1.4s-1,.5-1.6.5-1.2-.2-1.6-.5Z"/>
        <path class="cls-1" d="M455.6,127.7c-.4-.3-.9-.5-1.4-.6-.5-.1-1-.2-1.4-.2-.7,0-1.3,0-1.9.3-.6.2-1.1.5-1.6.9-.5.4-.8,1-1.1,1.6l2,.5c.2-.4.4-.7.9-1.1.4-.3,1-.5,1.7-.5s1.2.2,1.6.5c.4.3.5.8.5,1.5h0c0,.3,0,.5-.3.6s-.5.2-.9.2c-.4,0-1,.1-1.6.2-.5,0-1,.2-1.6.3-.5.1-1,.3-1.4.5-.4.2-.7.6-1,1s-.4.9-.4,1.6.2,1.3.5,1.8.8.9,1.4,1.1c.6.3,1.2.4,1.9.4s1.1,0,1.6-.3.8-.4,1.1-.7c.3-.3.5-.5.6-.8h0v1.5h2.1v-7.4c0-.8-.1-1.5-.4-2-.3-.5-.6-.9-1.1-1.2ZM454.9,134.2c0,.4-.1.9-.3,1.2-.2.4-.6.7-1,.9-.4.2-.9.4-1.5.4s-1.1-.1-1.5-.4-.6-.7-.6-1.2.1-.7.3-.9.5-.4.8-.5c.3-.1.7-.2,1.1-.3.2,0,.4,0,.7,0,.3,0,.5,0,.8-.1.3,0,.5-.1.8-.2.2,0,.4-.1.4-.2v1.4Z"/>
        <path class="cls-1" d="M463.1,129.3c.5-.3,1-.5,1.6-.5s1.2.2,1.7.6c.4.4.7.8.8,1.3h2.1c0-.8-.3-1.4-.7-2-.4-.6-.9-1-1.6-1.3-.7-.3-1.4-.5-2.3-.5s-2,.2-2.7.7-1.4,1.2-1.8,2c-.4.9-.6,1.9-.6,3s.2,2.1.6,3c.4.9,1,1.5,1.8,2,.8.5,1.7.7,2.8.7s1.6-.2,2.3-.5c.7-.3,1.2-.8,1.6-1.3.4-.6.6-1.2.7-1.9h-2.1c0,.4-.3.7-.5,1s-.5.5-.8.7c-.3.2-.7.2-1.1.2-.6,0-1.1-.2-1.6-.5-.5-.3-.8-.8-1-1.4s-.4-1.3-.4-2.1.1-1.5.4-2.1c.3-.6.6-1,1.1-1.3Z"/>
        <path class="cls-1" d="M476.6,136.4c0,0-.2,0-.3,0-.1,0-.3,0-.5,0s-.5,0-.7-.1c-.2,0-.4-.2-.5-.4-.1-.2-.2-.5-.2-.9v-6.1h2.3v-1.7h-2.3v-2.7h-2.2v2.7h-1.6v1.7h1.6v6.6c0,.7.2,1.2.5,1.7.3.4.7.8,1.2,1,.5.2,1,.3,1.6.3.3,0,.6,0,.9,0s.4-.1.5-.1l-.4-1.8Z"/>
        <path class="cls-1" d="M302.1,152.2c-.8-.5-1.7-.7-2.7-.7s-2,.2-2.7.7-1.4,1.2-1.8,2c-.4.9-.6,1.9-.6,3s.2,2.2.6,3,1,1.5,1.8,2,1.7.7,2.7.7,2-.2,2.7-.7,1.4-1.1,1.8-2,.6-1.9.6-3-.2-2.2-.6-3c-.4-.9-1-1.5-1.8-2ZM302,159.2c-.2.6-.5,1.1-1,1.4s-1,.5-1.7.5-1.2-.2-1.7-.5c-.4-.4-.8-.8-1-1.4-.2-.6-.3-1.2-.3-2s.1-1.4.3-2c.2-.6.5-1.1,1-1.4.4-.4,1-.5,1.7-.5s1.2.2,1.7.5c.4.4.8.8,1,1.4.2.6.3,1.3.3,2s-.1,1.4-.3,2Z"/>
        <path class="cls-1" d="M311,147.2c-.6,0-1.1.1-1.6.3-.5.2-.9.6-1.2,1-.3.5-.5,1-.5,1.7v1.3h-1.7v1.7h1.7v9.4h2.2v-9.4h2.4v-1.7h-2.4v-1c0-.5.1-.9.3-1.1.2-.3.6-.4,1.1-.4s.4,0,.6,0c.2,0,.3,0,.4.1l.5-1.8c-.1,0-.4-.1-.7-.2-.3,0-.7-.1-1.1-.1Z"/>
        <polygon class="cls-1" points="320.1 162.7 322.3 162.7 322.3 156.3 328.6 156.3 328.6 154.4 322.3 154.4 322.3 149.8 329.3 149.8 329.3 147.9 320.1 147.9 320.1 162.7"/>
        <path class="cls-1" d="M333,147.3c-.4,0-.7.1-1,.4-.3.3-.4.6-.4.9s.1.7.4.9c.3.3.6.4,1,.4s.7-.1,1-.4c.3-.3.4-.6.4-.9s-.1-.7-.4-.9c-.3-.3-.6-.4-1-.4Z"/>
        <rect class="cls-1" x="331.9" y="151.6" width="2.2" height="11.1"/>
        <path class="cls-1" d="M344.5,151.9c-.6-.3-1.2-.5-2-.5s-1.5.2-2.1.5c-.5.4-1,.8-1.2,1.4h-.1v-1.8h-2.1v11.1h2.2v-6.6c0-.6.1-1.1.3-1.5s.5-.7.9-1c.4-.2.8-.3,1.3-.3.7,0,1.3.2,1.7.7.4.5.6,1.1.6,1.9v6.8h2.2v-7.1c0-.9-.2-1.7-.5-2.3-.3-.6-.8-1.1-1.3-1.4Z"/>
        <path class="cls-1" d="M356.4,152.2c-.4-.3-.9-.5-1.4-.6-.5-.1-1-.2-1.4-.2-.7,0-1.3,0-1.9.3-.6.2-1.1.5-1.6.9-.5.4-.8,1-1.1,1.6l2,.5c.2-.4.4-.7.9-1.1.4-.3,1-.5,1.7-.5s1.2.2,1.6.5c.4.3.5.8.5,1.5h0c0,.3,0,.5-.3.6s-.5.2-.9.2c-.4,0-1,.1-1.6.2-.5,0-1,.2-1.6.3-.5.1-1,.3-1.4.5-.4.2-.7.6-1,1s-.4.9-.4,1.6.2,1.3.5,1.8.8.9,1.4,1.1c.6.3,1.2.4,1.9.4s1.1,0,1.6-.3.8-.4,1.1-.7c.3-.3.5-.5.6-.8h0v1.5h2.1v-7.4c0-.8-.1-1.5-.4-2-.3-.5-.6-.9-1.1-1.2ZM355.7,158.7c0,.4-.1.9-.3,1.2-.2.4-.6.7-1,.9-.4.2-.9.4-1.5.4s-1.1-.1-1.5-.4-.6-.7-.6-1.2.1-.7.3-.9.5-.4.8-.5c.3-.1.7-.2,1.1-.3.2,0,.4,0,.7,0,.3,0,.5,0,.8-.1.3,0,.5-.1.8-.2.2,0,.4-.1.4-.2v1.4Z"/>
        <path class="cls-1" d="M368.3,151.9c-.6-.3-1.2-.5-2-.5s-1.5.2-2.1.5c-.5.4-1,.8-1.2,1.4h-.1v-1.8h-2.1v11.1h2.2v-6.6c0-.6.1-1.1.3-1.5s.5-.7.9-1c.4-.2.8-.3,1.3-.3.7,0,1.3.2,1.7.7.4.5.6,1.1.6,1.9v6.8h2.2v-7.1c0-.9-.2-1.7-.5-2.3-.3-.6-.8-1.1-1.3-1.4Z"/>
        <path class="cls-1" d="M376.1,153.8c.5-.3,1-.5,1.6-.5s1.2.2,1.7.6c.4.4.7.8.8,1.3h2.1c0-.8-.3-1.4-.7-2-.4-.6-.9-1-1.6-1.3-.7-.3-1.4-.5-2.3-.5s-2,.2-2.7.7-1.4,1.2-1.8,2c-.4.9-.6,1.9-.6,3s.2,2.1.6,3c.4.9,1,1.5,1.8,2,.8.5,1.7.7,2.8.7s1.6-.2,2.3-.5c.7-.3,1.2-.8,1.6-1.3.4-.6.6-1.2.7-1.9h-2.1c0,.4-.3.7-.5,1s-.5.5-.8.7c-.3.2-.7.2-1.1.2-.6,0-1.1-.2-1.6-.5-.5-.3-.8-.8-1-1.4s-.4-1.3-.4-2.1.1-1.5.4-2.1c.3-.6.6-1,1.1-1.3Z"/>
        <rect class="cls-1" x="384.6" y="151.6" width="2.2" height="11.1"/>
        <path class="cls-1" d="M385.7,147.3c-.4,0-.7.1-1,.4-.3.3-.4.6-.4.9s.1.7.4.9c.3.3.6.4,1,.4s.7-.1,1-.4c.3-.3.4-.6.4-.9s-.1-.7-.4-.9c-.3-.3-.6-.4-1-.4Z"/>
        <path class="cls-1" d="M396.9,152.2c-.4-.3-.9-.5-1.4-.6-.5-.1-1-.2-1.4-.2-.7,0-1.3,0-1.9.3-.6.2-1.1.5-1.6.9-.5.4-.8,1-1.1,1.6l2,.5c.2-.4.4-.7.9-1.1.4-.3,1-.5,1.7-.5s1.2.2,1.6.5c.4.3.5.8.5,1.5h0c0,.3,0,.5-.3.6s-.5.2-.9.2c-.4,0-1,.1-1.6.2-.5,0-1,.2-1.6.3-.5.1-1,.3-1.4.5-.4.2-.7.6-1,1s-.4.9-.4,1.6.2,1.3.5,1.8.8.9,1.4,1.1c.6.3,1.2.4,1.9.4s1.1,0,1.6-.3.8-.4,1.1-.7c.3-.3.5-.5.6-.8h0v1.5h2.1v-7.4c0-.8-.1-1.5-.4-2-.3-.5-.6-.9-1.1-1.2ZM396.2,158.7c0,.4-.1.9-.3,1.2-.2.4-.6.7-1,.9-.4.2-.9.4-1.5.4s-1.1-.1-1.5-.4-.6-.7-.6-1.2.1-.7.3-.9.5-.4.8-.5c.3-.1.7-.2,1.1-.3.2,0,.4,0,.7,0,.3,0,.5,0,.8-.1.3,0,.5-.1.8-.2.2,0,.4-.1.4-.2v1.4Z"/>
        <rect class="cls-1" x="401.3" y="147.9" width="2.2" height="14.9"/>
        <path class="cls-1" d="M415.9,150.4c.7-.4,1.4-.6,2.3-.6s.9,0,1.3.2c.4.1.8.3,1.1.6.3.3.6.6.9.9s.4.8.5,1.3h2.3c-.1-.8-.4-1.5-.7-2.1-.4-.6-.8-1.1-1.4-1.6-.5-.4-1.2-.8-1.8-1s-1.4-.3-2.2-.3c-1.3,0-2.4.3-3.4.9-1,.6-1.8,1.5-2.4,2.6s-.9,2.5-.9,4.1.3,2.9.9,4.1,1.4,2,2.4,2.6c1,.6,2.2.9,3.4.9s1.6-.1,2.3-.4c.7-.2,1.3-.6,1.8-1s1-1,1.3-1.6c.3-.6.6-1.3.7-2h-2.3c0,.5-.3.9-.5,1.3-.2.4-.5.7-.9.9-.3.3-.7.4-1.1.6-.4.1-.9.2-1.3.2-.8,0-1.6-.2-2.3-.6-.7-.4-1.2-1.1-1.6-1.9s-.6-1.9-.6-3.1.2-2.2.6-3c.4-.8.9-1.5,1.6-1.9Z"/>
        <path class="cls-1" d="M431.8,151.4c-.7,0-1.2.2-1.8.5s-.9.8-1.1,1.4h-.1v-1.8h-2.1v11.1h2.2v-6.8c0-.5.1-.9.3-1.3.2-.4.5-.7.9-.9.4-.2.9-.3,1.4-.3s.4,0,.7,0,.4,0,.5,0v-2.1c-.1,0-.3,0-.4,0s-.3,0-.5,0Z"/>
        <rect class="cls-1" x="434.6" y="151.6" width="2.2" height="11.1"/>
        <path class="cls-1" d="M435.7,147.3c-.4,0-.7.1-1,.4-.3.3-.4.6-.4.9s.1.7.4.9c.3.3.6.4,1,.4s.7-.1,1-.4c.3-.3.4-.6.4-.9s-.1-.7-.4-.9c-.3-.3-.6-.4-1-.4Z"/>
        <path class="cls-1" d="M451.4,151.5c-.8,0-1.5.2-2.1.5s-1,.8-1.3,1.4h-.1c-.2-.6-.6-1.1-1.1-1.4-.5-.3-1.1-.5-1.9-.5s-1.4.2-1.9.5-.9.8-1.1,1.4h-.1v-1.8h-2.1v11.1h2.2v-6.9c0-.5.1-.9.3-1.3.2-.4.5-.7.8-.9.3-.2.7-.3,1.1-.3.6,0,1.1.2,1.5.6s.6.9.6,1.5v7.4h2.2v-7.1c0-.7.2-1.2.6-1.7s.9-.6,1.6-.6,1.1.2,1.5.5c.4.3.6.9.6,1.6v7.3h2.2v-7.5c0-1.3-.3-2.2-1-2.9-.6-.6-1.5-1-2.5-1Z"/>
        <path class="cls-1" d="M465.8,152.8c-.5-.4-1-.8-1.6-1-.6-.2-1.2-.3-1.8-.3-1,0-1.9.2-2.7.7-.8.5-1.4,1.2-1.8,2-.4.9-.6,1.9-.6,3s.2,2.2.6,3c.4.9,1,1.5,1.8,2,.8.5,1.7.7,2.8.7s1.5-.1,2.2-.4,1.2-.6,1.6-1.1c.4-.5.7-1,.9-1.6l-2.1-.4c-.1.3-.3.6-.6.9-.2.2-.5.4-.9.5-.3.1-.7.2-1.1.2-.6,0-1.2-.1-1.7-.4-.5-.3-.8-.7-1.1-1.2-.2-.5-.4-1.1-.4-1.7h7.9v-.8c0-1-.1-1.9-.4-2.6-.3-.7-.6-1.3-1.1-1.7ZM459.5,156.2c0-.5.1-.9.3-1.3.2-.5.6-.9,1-1.2.5-.3,1-.4,1.6-.4s1.1.1,1.5.4c.4.3.7.6,1,1s.3.9.3,1.5h-5.8Z"/>
      </g>
    </g>
  </g>
</svg>