<?xml version="1.0" encoding="UTF-8"?>
<svg id="Layer_1" xmlns="http://www.w3.org/2000/svg" xmlns:xlink="http://www.w3.org/1999/xlink" viewBox="0 0 1179.11 424.66">
  <defs>
    <style>
      .cls-1 {
        fill: url(#linear-gradient-7);
      }

      .cls-2 {
        fill: url(#linear-gradient-5);
      }

      .cls-3 {
        fill: url(#linear-gradient-6);
      }

      .cls-4 {
        fill: url(#linear-gradient-4);
      }

      .cls-5 {
        fill: url(#linear-gradient-3);
      }

      .cls-6 {
        fill: url(#linear-gradient-2);
      }

      .cls-7 {
        fill: url(#radial-gradient);
      }

      .cls-8 {
        fill: url(#linear-gradient);
      }

      .cls-9 {
        fill: #08062a;
      }
    </style>
    <radialGradient id="radial-gradient" cx="1966.71" cy="-181.57" fx="1966.71" fy="-181.57" r="54.75" gradientTransform="translate(-2566.18 408.91) scale(1.48 1)" gradientUnits="userSpaceOnUse">
      <stop offset="0" stop-color="#008fbe" stop-opacity=".8"/>
      <stop offset=".3" stop-color="#3bafcd" stop-opacity=".51"/>
      <stop offset=".62" stop-color="#75cedc" stop-opacity=".24"/>
      <stop offset=".87" stop-color="#99e2e6" stop-opacity=".06"/>
      <stop offset="1" stop-color="#a7eaea" stop-opacity="0"/>
    </radialGradient>
    <linearGradient id="linear-gradient" x1="366.46" y1="290.75" x2="468.71" y2="290.75" gradientTransform="translate(-68.78 -68.81)" gradientUnits="userSpaceOnUse">
      <stop offset=".16" stop-color="#008fbe" stop-opacity=".2"/>
      <stop offset=".76" stop-color="#a7eaea" stop-opacity=".8"/>
      <stop offset=".94" stop-color="#fff" stop-opacity=".8"/>
    </linearGradient>
    <linearGradient id="linear-gradient-2" y1="302.19" y2="302.19" xlink:href="#linear-gradient"/>
    <linearGradient id="linear-gradient-3" x1="366.46" y1="290.76" x2="468.71" y2="290.76" gradientTransform="translate(-68.78 -68.81)" gradientUnits="userSpaceOnUse">
      <stop offset="0" stop-color="#008fbe" stop-opacity=".2"/>
      <stop offset=".58" stop-color="#08062a" stop-opacity=".55"/>
      <stop offset="1" stop-color="#a7eaea" stop-opacity=".8"/>
    </linearGradient>
    <linearGradient id="linear-gradient-4" x1="366.46" y1="290.76" x2="468.71" y2="290.76" gradientTransform="translate(-68.78 -68.81)" gradientUnits="userSpaceOnUse">
      <stop offset="0" stop-color="#008fbe" stop-opacity=".8"/>
      <stop offset=".22" stop-color="#2ca7c9" stop-opacity=".8"/>
      <stop offset=".58" stop-color="#6ecbdb" stop-opacity=".8"/>
      <stop offset=".85" stop-color="#97e1e5" stop-opacity=".8"/>
      <stop offset="1" stop-color="#a7eaea" stop-opacity=".8"/>
    </linearGradient>
    <linearGradient id="linear-gradient-5" x1="434.52" y1="304.81" x2="449.23" y2="304.81" xlink:href="#linear-gradient-4"/>
    <linearGradient id="linear-gradient-6" x1="385.95" y1="287.12" x2="436.54" y2="287.12" xlink:href="#linear-gradient-4"/>
    <linearGradient id="linear-gradient-7" x1="392.51" y1="287.12" x2="429.98" y2="287.12" xlink:href="#linear-gradient-4"/>
  </defs>
  <ellipse class="cls-7" cx="348.81" cy="227.65" rx="95.99" ry="55.74"/>
  <g>
    <path class="cls-8" d="M384.84,201c-20.03-11.57-52.4-11.56-72.3,0-19.9,11.56-19.8,30.31.24,41.88,20.03,11.56,52.4,11.56,72.3,0,19.9-11.56,19.79-30.31-.24-41.88"/>
    <path class="cls-9" d="M384.84,212.43c-20.03-11.57-52.4-11.56-72.3,0-19.9,11.56-19.8,30.31.24,41.88,20.03,11.56,52.4,11.56,72.3,0,19.9-11.56,19.79-30.31-.24-41.88"/>
    <path class="cls-6" d="M384.84,212.43c-20.03-11.57-52.4-11.56-72.3,0-19.9,11.56-19.8,30.31.24,41.88,20.03,11.56,52.4,11.56,72.3,0,19.9-11.56,19.79-30.31-.24-41.88"/>
    <path class="cls-5" d="M384.84,201.01c-20.03-11.57-52.4-11.56-72.3,0-19.9,11.56-19.8,30.31.24,41.88,20.03,11.56,52.4,11.56,72.3,0,19.9-11.56,19.79-30.31-.24-41.88"/>
    <g>
      <path class="cls-4" d="M384.84,201.01c-20.03-11.57-52.4-11.56-72.3,0s-19.8,30.31.24,41.88c20.03,11.56,52.4,11.56,72.3,0,19.9-11.56,19.79-30.31-.24-41.88ZM381.88,241.07c-1.65.96-4.32.96-5.98,0l-2.18-1.26-8.75-5.05-2.06-1.19c-.52-.3-.53-.79,0-1.09l.34-.2-2.72-1.57c-4.85,2.37-11.12,3.8-17.97,3.8-7.72,0-14.73-1.82-19.81-4.75s-8.23-6.99-8.25-11.45c-.03-4.47,3.09-8.53,8.13-11.45,5.04-2.93,12.03-4.75,19.75-4.75,7.71,0,14.73,1.82,19.8,4.74,5.08,2.93,8.23,6.99,8.26,11.46.02,3.97-2.43,7.61-6.5,10.42l2.72,1.57.34-.2c.25-.14.59-.23.94-.23.36,0,.69.08.94.23l2.06,1.19,10.92,6.3c1.67.96,1.68,2.51.02,3.47Z"/>
      <path class="cls-2" d="M379.99,238.69l-10.92-6.3-1.11-.64-.35.2-1.52.88-.35.2,1.11.64,8.75,5.05,2.18,1.26c.62.35,1.61.35,2.21,0,.61-.36.61-.93,0-1.29Z"/>
      <path class="cls-3" d="M367.76,218.31c-.02-4.05-2.88-7.71-7.47-10.36-4.59-2.65-10.92-4.29-17.91-4.29s-13.3,1.64-17.86,4.29c-4.56,2.65-7.37,6.31-7.35,10.36.02,4.05,2.87,7.7,7.47,10.36,4.6,2.65,10.93,4.29,17.91,4.29,6.55,0,12.51-1.44,16.99-3.81.03-.02.06-.04.09-.06l1.52-.88s.07-.04.1-.05c4.07-2.6,6.54-6.06,6.52-9.85ZM357.65,227.08c-3.86,2.25-9.21,3.63-15.12,3.63-5.91,0-11.28-1.39-15.16-3.63-3.88-2.24-6.3-5.35-6.32-8.77-.02-3.42,2.36-6.52,6.23-8.77,3.86-2.24,9.2-3.63,15.11-3.63,5.91,0,11.28,1.39,15.16,3.63s6.3,5.35,6.32,8.77c.02,3.42-2.36,6.52-6.21,8.77Z"/>
      <path class="cls-1" d="M355.67,210.64c-3.4-1.96-8.09-3.18-13.26-3.18-5.17,0-9.84,1.22-13.23,3.18-3.39,1.97-5.47,4.68-5.45,7.67.02,3,2.13,5.71,5.53,7.67,3.41,1.97,8.09,3.18,13.27,3.18,5.17,0,9.84-1.21,13.23-3.18,3.38-1.96,5.46-4.67,5.44-7.67-.02-3-2.13-5.7-5.54-7.67Z"/>
    </g>
  </g>
</svg>