<?xml version="1.0" encoding="UTF-8"?>
<svg xmlns="http://www.w3.org/2000/svg" version="1.1" viewBox="0 0 1179.1 424.7">
  <defs>
    <style>
      .cls-1 {
        fill: #08062a;
      }

      .cls-2 {
        fill: #fff;
      }
    </style>
  </defs>
  <!-- Generator: Adobe Illustrator 28.6.0, SVG Export Plug-In . SVG Version: 1.2.0 Build 709)  -->
  <g>
    <g id="Layer_1">
      <path class="cls-2" d="M1000.7,240.9h-187.1c-5,0-9-4-9-9v-59.9c0-5,4-9,9-9h187.1v77.9h0Z"/>
      <path class="cls-2" d="M996.1,163v145c0,1.3,1,2.3,2.3,2.3s2.3-1,2.3-2.3v-145c0-1.3-1-2.3-2.3-2.3s-2.3,1-2.3,2.3h0Z"/>
      <g>
        <path class="cls-1" d="M832,201c-.4-.3-.9-.6-1.4-.8s-1-.4-1.5-.5l-1.5-.4c-.3,0-.6-.2-.9-.3-.3-.1-.6-.3-.9-.4-.3-.2-.5-.4-.7-.6-.2-.3-.3-.6-.3-.9s.1-.8.4-1.1.6-.6,1-.8c.4-.2,1-.3,1.6-.3s1.6.2,2.1.6c.6.4.9.9,1,1.6h2.2c0-.8-.3-1.5-.7-2.1-.4-.6-1.1-1.1-1.8-1.5s-1.7-.5-2.7-.5-1.9.2-2.7.5c-.8.4-1.4.9-1.9,1.5-.5.6-.7,1.4-.7,2.2s.3,1.9,1,2.5c.7.6,1.6,1.1,2.8,1.4l1.8.5c.5.1,1,.3,1.4.5.4.2.8.4,1,.7.2.3.4.6.4,1.1s-.1.9-.4,1.3c-.3.4-.7.6-1.2.8-.5.2-1.1.3-1.7.3s-1.1,0-1.6-.3c-.5-.2-.9-.4-1.2-.8-.3-.4-.5-.8-.5-1.3h-2.2c0,.9.3,1.7.8,2.3.5.6,1.1,1.2,1.9,1.5.8.4,1.8.5,2.9.5s2.2-.2,3-.6,1.4-.9,1.9-1.5c.4-.7.6-1.4.6-2.2s-.1-1.2-.4-1.7c-.3-.5-.6-.9-1-1.2Z"/>
        <path class="cls-1" d="M844,198c-.5-.4-1-.8-1.6-1-.6-.2-1.2-.3-1.8-.3-1,0-1.9.2-2.7.7-.8.5-1.4,1.2-1.8,2-.4.9-.6,1.9-.6,3s.2,2.2.6,3c.4.9,1,1.5,1.8,2,.8.5,1.7.7,2.8.7s1.5-.1,2.2-.4,1.2-.6,1.6-1.1.7-1,.9-1.6l-2.1-.4c-.1.3-.3.6-.6.9-.2.2-.5.4-.9.5-.3.1-.7.2-1.1.2-.6,0-1.2-.1-1.7-.4-.5-.3-.8-.7-1.1-1.2-.2-.5-.4-1.1-.4-1.7h7.9v-.8c0-1-.1-1.9-.4-2.6-.3-.7-.6-1.3-1.1-1.7ZM837.6,201.4c0-.5.1-.9.3-1.3.2-.5.6-.9,1-1.2.5-.3,1-.4,1.6-.4s1,.1,1.5.4c.4.3.7.6,1,1,.2.4.3.9.3,1.5h-5.8Z"/>
        <path class="cls-1" d="M852.6,206.2c-.1,0-.3,0-.5,0s-.5,0-.7-.1c-.2,0-.4-.2-.5-.4s-.2-.5-.2-.9v-6.1h2.3v-1.7h-2.3v-2.7h-2.2v2.7h-1.6v1.7h1.6v6.6c0,.7.2,1.2.5,1.7.3.4.7.8,1.2,1,.5.2,1,.3,1.6.3.3,0,.6,0,.9,0,.2,0,.4-.1.5-.1l-.4-1.8c0,0-.2,0-.3,0Z"/>
        <path class="cls-1" d="M860.2,206.2c-.1,0-.3,0-.5,0s-.5,0-.7-.1c-.2,0-.4-.2-.5-.4-.1-.2-.2-.5-.2-.9v-6.1h2.3v-1.7h-2.3v-2.7h-2.2v2.7h-1.6v1.7h1.6v6.6c0,.7.2,1.2.5,1.7.3.4.7.8,1.2,1,.5.2,1,.3,1.6.3.3,0,.6,0,.9,0,.2,0,.4-.1.5-.1l-.4-1.8c0,0-.2,0-.3,0Z"/>
        <path class="cls-1" d="M864.2,192.5c-.4,0-.7.1-1,.4s-.4.6-.4.9.1.7.4.9.6.4,1,.4.7-.1,1-.4.4-.6.4-.9-.1-.7-.4-.9-.6-.4-1-.4Z"/>
        <rect class="cls-1" x="863.1" y="196.8" width="2.2" height="11.1"/>
        <path class="cls-1" d="M875.6,197.2c-.6-.3-1.2-.5-2-.5s-1.5.2-2.1.5c-.5.4-1,.8-1.2,1.4h-.1v-1.8h-2.1v11.1h2.2v-6.6c0-.6.1-1.1.3-1.5s.5-.7.9-1c.4-.2.8-.3,1.3-.3.7,0,1.3.2,1.7.7.4.5.6,1.1.6,1.9v6.8h2.2v-7.1c0-.9-.2-1.7-.5-2.3-.3-.6-.8-1.1-1.3-1.4Z"/>
        <path class="cls-1" d="M887.9,198.6h-.2c-.1-.2-.3-.5-.6-.8-.2-.3-.6-.6-1-.8-.4-.2-1-.3-1.7-.3s-1.7.2-2.4.7c-.7.5-1.3,1.1-1.7,1.9-.4.8-.6,1.9-.6,3s.2,2.2.6,3c.4.8,1,1.4,1.7,1.8.7.4,1.5.6,2.4.6s1.2-.1,1.7-.3c.4-.2.8-.5,1-.8s.4-.6.6-.8h.1v2.2c0,.9-.3,1.5-.8,1.9-.5.4-1.2.6-2,.6s-1.1,0-1.5-.3c-.4-.2-.7-.4-.9-.6-.2-.2-.4-.5-.5-.7l-1.9.8c.2.5.5.9.9,1.3s.9.7,1.6.9c.6.2,1.4.3,2.3.3s1.8-.1,2.6-.4,1.4-.8,1.8-1.4c.4-.6.7-1.4.7-2.4v-11.4h-2.1v1.8ZM887.6,204.3c-.2.5-.6,1-1,1.3-.4.3-1,.4-1.6.4s-1.2-.2-1.6-.5c-.4-.3-.8-.7-1-1.3-.2-.6-.3-1.2-.3-1.9s.1-1.4.3-1.9c.2-.6.5-1,1-1.4.4-.3,1-.5,1.6-.5s1.2.2,1.6.5.8.8,1,1.3c.2.6.3,1.2.3,2s-.1,1.4-.3,2Z"/>
        <path class="cls-1" d="M903.1,206.2c-.1,0-.3,0-.5,0s-.5,0-.7-.1c-.2,0-.4-.2-.5-.4-.1-.2-.2-.5-.2-.9v-6.1h2.3v-1.7h-2.3v-2.7h-2.2v2.7h-1.6v1.7h1.6v6.6c0,.7.2,1.2.5,1.7.3.4.7.8,1.2,1,.5.2,1,.3,1.6.3.3,0,.6,0,.9,0,.2,0,.4-.1.5-.1l-.4-1.8c0,0-.2,0-.3,0Z"/>
        <path class="cls-1" d="M913.8,197.2c-.6-.3-1.2-.5-2-.5s-1.6.2-2.1.5-.9.8-1.2,1.4h-.1v-5.5h-2.1v14.9h2.2v-6.6c0-.6.1-1.1.3-1.5s.5-.7,1-1c.4-.2.9-.3,1.4-.3.7,0,1.3.2,1.8.7.4.5.6,1.1.6,1.9v6.8h2.2v-7.1c0-.9-.2-1.7-.5-2.3-.3-.6-.8-1.1-1.3-1.4Z"/>
        <path class="cls-1" d="M926.5,198c-.5-.4-1-.8-1.6-1-.6-.2-1.2-.3-1.8-.3-1,0-1.9.2-2.7.7s-1.4,1.2-1.8,2c-.4.9-.6,1.9-.6,3s.2,2.2.6,3c.4.9,1,1.5,1.8,2,.8.5,1.7.7,2.8.7s1.5-.1,2.2-.4c.6-.2,1.2-.6,1.6-1.1.4-.5.7-1,.9-1.6l-2.1-.4c-.1.3-.3.6-.6.9-.2.2-.5.4-.9.5-.3.1-.7.2-1.1.2-.6,0-1.2-.1-1.7-.4-.5-.3-.8-.7-1.1-1.2-.2-.5-.4-1.1-.4-1.7h7.9v-.8c0-1-.1-1.9-.4-2.6s-.6-1.3-1.1-1.7ZM920.2,201.4c0-.5.1-.9.3-1.3.2-.5.6-.9,1-1.2.5-.3,1-.4,1.6-.4s1.1.1,1.5.4c.4.3.7.6,1,1s.3.9.3,1.5h-5.8Z"/>
        <path class="cls-1" d="M944.2,193.8c-.8-.4-1.7-.6-2.9-.6h-5.3v14.9h2.2v-5.2h3c1.2,0,2.1-.2,2.9-.6.8-.4,1.3-1,1.7-1.7.4-.7.6-1.5.6-2.5s-.2-1.7-.6-2.5c-.4-.7-.9-1.3-1.7-1.7ZM943.9,199.4c-.2.4-.5.8-1,1-.5.3-1,.4-1.8.4h-2.8v-5.8h2.8c.7,0,1.3.1,1.8.4.5.2.8.6,1,1,.2.4.3.9.3,1.5s-.1,1.1-.3,1.5Z"/>
        <path class="cls-1" d="M954,196.7c-.7,0-1.2.2-1.8.5s-.9.8-1.1,1.4h-.1v-1.8h-2.1v11.1h2.2v-6.8c0-.5.1-.9.3-1.3.2-.4.5-.7.9-.9s.9-.3,1.4-.3.4,0,.7,0,.4,0,.5,0v-2.1c-.1,0-.3,0-.4,0s-.3,0-.5,0Z"/>
        <path class="cls-1" d="M957.9,192.5c-.4,0-.7.1-1,.4s-.4.6-.4.9.1.7.4.9.6.4,1,.4.7-.1,1-.4c.3-.3.4-.6.4-.9s-.1-.7-.4-.9c-.3-.3-.6-.4-1-.4Z"/>
        <rect class="cls-1" x="956.8" y="196.8" width="2.2" height="11.1"/>
        <path class="cls-1" d="M965,199c.5-.3,1-.5,1.6-.5s1.2.2,1.7.6c.4.4.7.8.8,1.3h2.1c0-.8-.3-1.4-.7-2-.4-.6-.9-1-1.6-1.3-.7-.3-1.4-.5-2.3-.5s-2,.2-2.7.7-1.4,1.2-1.8,2c-.4.9-.6,1.9-.6,3s.2,2.1.6,3,1,1.5,1.8,2c.8.5,1.7.7,2.8.7s1.6-.2,2.3-.5c.7-.3,1.2-.8,1.6-1.3.4-.6.6-1.2.7-1.9h-2.1c0,.4-.3.7-.5,1s-.5.5-.8.7-.7.2-1.1.2c-.6,0-1.1-.2-1.6-.5-.5-.3-.8-.8-1-1.4s-.4-1.3-.4-2.1.1-1.5.4-2.1c.3-.6.6-1,1.1-1.3Z"/>
        <path class="cls-1" d="M983,202.3c0-1-.1-1.9-.4-2.6-.3-.7-.6-1.3-1.1-1.7-.5-.4-1-.8-1.6-1-.6-.2-1.2-.3-1.8-.3-1,0-1.9.2-2.7.7-.8.5-1.4,1.2-1.8,2-.4.9-.6,1.9-.6,3s.2,2.2.6,3c.4.9,1,1.5,1.8,2,.8.5,1.7.7,2.8.7s1.5-.1,2.2-.4c.6-.2,1.2-.6,1.6-1.1s.7-1,.9-1.6l-2.1-.4c-.1.3-.3.6-.6.9-.2.2-.5.4-.9.5-.3.1-.7.2-1.1.2-.6,0-1.2-.1-1.7-.4-.5-.3-.8-.7-1.1-1.2-.2-.5-.4-1.1-.4-1.7h7.9v-.8ZM975.1,201.4c0-.5.1-.9.3-1.3.2-.5.6-.9,1-1.2.5-.3,1-.4,1.6-.4s1,.1,1.5.4c.4.3.7.6,1,1s.3.9.3,1.5h-5.8Z"/>
      </g>
    </g>
  </g>
</svg>