<?xml version="1.0" encoding="UTF-8"?>
<svg id="Layer_1" xmlns="http://www.w3.org/2000/svg" xmlns:xlink="http://www.w3.org/1999/xlink" viewBox="0 0 1179.11 424.66">
  <defs>
    <style>
      .cls-1 {
        fill: url(#linear-gradient-8);
      }

      .cls-2 {
        fill: url(#linear-gradient-7);
      }

      .cls-3 {
        fill: url(#linear-gradient-5);
      }

      .cls-4 {
        fill: url(#linear-gradient-6);
      }

      .cls-5 {
        fill: url(#linear-gradient-4);
      }

      .cls-6 {
        fill: url(#linear-gradient-3);
      }

      .cls-7 {
        fill: url(#linear-gradient-2);
      }

      .cls-8 {
        fill: url(#radial-gradient);
      }

      .cls-9 {
        fill: url(#linear-gradient);
      }

      .cls-10 {
        fill: #08062a;
      }
    </style>
    <radialGradient id="radial-gradient" cx="1415.16" cy="-624.33" fx="1415.16" fy="-624.33" r="54.75" gradientTransform="translate(-1604.28 880.89) scale(1.48 1)" gradientUnits="userSpaceOnUse">
      <stop offset="0" stop-color="#008fbe" stop-opacity=".8"/>
      <stop offset=".3" stop-color="#3bafcd" stop-opacity=".51"/>
      <stop offset=".62" stop-color="#75cedc" stop-opacity=".24"/>
      <stop offset=".87" stop-color="#99e2e6" stop-opacity=".06"/>
      <stop offset="1" stop-color="#a7eaea" stop-opacity="0"/>
    </radialGradient>
    <linearGradient id="linear-gradient" x1="373.65" y1="319.87" x2="475.9" y2="319.87" gradientTransform="translate(68.8 -68.72)" gradientUnits="userSpaceOnUse">
      <stop offset=".16" stop-color="#008fbe" stop-opacity=".2"/>
      <stop offset=".76" stop-color="#a7eaea" stop-opacity=".8"/>
      <stop offset=".94" stop-color="#fff" stop-opacity=".8"/>
    </linearGradient>
    <linearGradient id="linear-gradient-2" y1="331.31" y2="331.31" xlink:href="#linear-gradient"/>
    <linearGradient id="linear-gradient-3" x1="373.65" y1="319.88" x2="475.9" y2="319.88" gradientTransform="translate(68.8 -68.72)" gradientUnits="userSpaceOnUse">
      <stop offset="0" stop-color="#008fbe" stop-opacity=".2"/>
      <stop offset=".58" stop-color="#08062a" stop-opacity=".55"/>
      <stop offset="1" stop-color="#a7eaea" stop-opacity=".8"/>
    </linearGradient>
    <linearGradient id="linear-gradient-4" x1="403.09" y1="315.25" x2="430.04" y2="315.25" gradientTransform="translate(68.8 -68.72)" gradientUnits="userSpaceOnUse">
      <stop offset="0" stop-color="#008fbe" stop-opacity=".8"/>
      <stop offset=".22" stop-color="#2ca7c9" stop-opacity=".8"/>
      <stop offset=".58" stop-color="#6ecbdb" stop-opacity=".8"/>
      <stop offset=".85" stop-color="#97e1e5" stop-opacity=".8"/>
      <stop offset="1" stop-color="#a7eaea" stop-opacity=".8"/>
    </linearGradient>
    <linearGradient id="linear-gradient-5" x1="392.55" y1="319.74" x2="456.59" y2="319.74" xlink:href="#linear-gradient-4"/>
    <linearGradient id="linear-gradient-6" x1="422.02" y1="339.88" x2="422.4" y2="339.88" xlink:href="#linear-gradient-4"/>
    <linearGradient id="linear-gradient-7" x1="415.12" y1="326.45" x2="457" y2="326.45" xlink:href="#linear-gradient-4"/>
    <linearGradient id="linear-gradient-8" x1="373.65" y1="319.88" x2="475.9" y2="319.88" xlink:href="#linear-gradient-4"/>
  </defs>
  <ellipse class="cls-8" cx="493.57" cy="256.87" rx="95.99" ry="55.74"/>
  <g>
    <path class="cls-9" d="M529.6,230.21c-20.03-11.57-52.4-11.56-72.3,0-19.9,11.56-19.8,30.31.24,41.88,20.03,11.56,52.4,11.56,72.3,0,19.9-11.56,19.79-30.31-.24-41.88"/>
    <path class="cls-10" d="M529.6,241.65c-20.03-11.57-52.4-11.56-72.3,0-19.9,11.56-19.8,30.31.24,41.88,20.03,11.56,52.4,11.56,72.3,0,19.9-11.56,19.79-30.31-.24-41.88"/>
    <path class="cls-7" d="M529.6,241.65c-20.03-11.57-52.4-11.56-72.3,0-19.9,11.56-19.8,30.31.24,41.88,20.03,11.56,52.4,11.56,72.3,0,19.9-11.56,19.79-30.31-.24-41.88"/>
    <path class="cls-6" d="M529.6,230.23c-20.03-11.57-52.4-11.56-72.3,0-19.9,11.56-19.8,30.31.24,41.88,20.03,11.56,52.4,11.56,72.3,0,19.9-11.56,19.79-30.31-.24-41.88"/>
    <g>
      <path class="cls-5" d="M497.23,250.25c.05-.05.09-.1.14-.16,0,0,.01-.01.02-.02.04-.05.08-.09.12-.14,0-.01.02-.02.03-.04.03-.04.07-.08.1-.13.01-.02.03-.04.04-.06.03-.04.05-.07.08-.11.02-.03.04-.05.06-.08.02-.03.04-.06.06-.08.02-.04.05-.07.07-.11.01-.02.03-.04.04-.06.03-.04.05-.09.08-.13,0-.01.02-.03.02-.04.03-.05.06-.1.09-.15,0,0,0-.01.01-.02.03-.06.06-.11.09-.17,0,0,0,0,0,0,.18-.36.32-.73.41-1.1,0,0,0,0,0,0,.01-.06.03-.12.04-.18,0,0,0-.02,0-.02.01-.05.02-.11.03-.16,0-.01,0-.02,0-.04,0-.05.01-.1.02-.15,0-.02,0-.04,0-.06,0-.04,0-.09.01-.13,0-.03,0-.06,0-.09,0-.03,0-.07,0-.1,0-.06,0-.13,0-.19,0-1.12-.42-2.24-1.26-3.27,0,0-.01-.02-.02-.03-.04-.04-.07-.09-.11-.13-.02-.02-.04-.04-.05-.06-.03-.03-.06-.06-.08-.09-.03-.03-.06-.06-.08-.09-.02-.02-.04-.04-.06-.07-.04-.04-.07-.08-.11-.11-.01-.01-.03-.03-.04-.04-.04-.04-.09-.09-.14-.13,0,0-.02-.02-.02-.02-.05-.05-.1-.1-.16-.14,0,0,0,0,0,0-.06-.05-.11-.1-.17-.15,0,0,0,0,0,0-.06-.05-.12-.1-.18-.15-.06-.05-.12-.1-.19-.15h0c-.06-.05-.12-.1-.19-.15h-.01c-.06-.05-.12-.1-.19-.14-.01,0-.02-.01-.03-.02-.06-.04-.12-.08-.18-.12-.02-.01-.03-.02-.05-.03-.05-.04-.11-.07-.16-.11-.03-.02-.06-.04-.09-.06-.04-.03-.09-.06-.13-.08-.08-.05-.15-.09-.23-.14-.08-.05-.16-.09-.24-.13-.04-.02-.09-.05-.13-.07-.04-.02-.08-.04-.11-.06-.05-.03-.1-.05-.16-.08-.03-.02-.06-.03-.09-.04-.06-.03-.11-.06-.17-.08-.03-.01-.05-.03-.08-.04-.06-.03-.12-.06-.19-.09-.02-.01-.05-.02-.07-.03-.06-.03-.12-.06-.19-.08-.03-.01-.05-.02-.08-.03-.06-.03-.12-.05-.18-.08-.03-.01-.06-.02-.09-.04-.06-.02-.11-.05-.17-.07-.04-.01-.07-.03-.11-.04-.05-.02-.1-.04-.15-.06-.04-.02-.09-.03-.13-.05-.04-.02-.09-.03-.13-.05-.06-.02-.12-.04-.17-.06-.03-.01-.06-.02-.09-.03-.07-.02-.15-.05-.23-.07-.01,0-.02,0-.04-.01-2.03-.65-4.29-.98-6.55-.98-3.37,0-6.44.72-8.79,1.9-.01,0-.03.02-.04.02-.07.03-.13.07-.19.1-.04.02-.07.04-.11.06-.04.02-.08.05-.13.07-.08.04-.16.09-.24.14-.08.05-.16.09-.23.14-.03.02-.07.04-.1.06-.04.02-.08.05-.12.07-.05.03-.1.06-.15.1-.02.01-.04.03-.07.04-.06.04-.12.08-.17.12-.01,0-.02.02-.03.02-.06.05-.13.09-.19.14,0,0,0,0,0,0-1.79,1.33-2.85,3-2.85,4.82,0,.06,0,.13,0,.19,0,.03,0,.07,0,.1,0,.03,0,.06,0,.09,0,.04,0,.09.01.13,0,.02,0,.04,0,.06,0,.05.01.1.02.15,0,.01,0,.03,0,.04,0,.05.02.11.03.16,0,0,0,.02,0,.02.01.06.03.11.04.17,0,0,0,.01,0,.01.02.06.03.12.05.18h0c.02.07.04.13.06.19,0,0,0,0,0,0,.02.06.04.12.07.18,0,0,0,0,0,0,.02.06.05.12.07.17,0,0,0,0,0,.01.02.06.05.11.08.17,0,0,0,.01,0,.02.02.05.05.1.08.16,0,.01.01.02.02.03.02.05.05.09.07.14,0,.02.02.04.03.05.02.04.05.08.07.12.01.02.03.05.04.07.02.03.04.06.06.1.02.03.04.06.06.09.02.02.03.05.05.07.03.04.05.08.08.11.01.02.03.03.04.05.03.05.07.09.1.14,0,.01.02.02.02.03.04.05.08.1.12.15,0,0,0,0,0,0,.43.51.95.99,1.55,1.43,0,0,0,0,0,0,.06.05.13.09.19.14.01,0,.02.01.03.02.06.04.12.08.18.12.02.01.04.03.06.04.05.03.1.07.15.1.04.02.07.04.11.07.04.02.08.05.12.07.08.05.16.09.23.14.08.04.16.09.24.13.05.03.09.05.14.08.03.02.06.04.1.05.07.03.13.07.2.1.01,0,.03.01.04.02,1.3.65,2.83,1.16,4.49,1.49,0,0,0,0,.01,0,.09.02.19.04.29.05.02,0,.04,0,.05,0,.08.01.16.03.24.04.03,0,.06.01.1.02.07.01.14.02.21.03.04,0,.08.01.13.02.06,0,.12.02.18.03.05,0,.1.01.16.02.05,0,.1.01.15.02.06,0,.12.01.18.02.04,0,.09,0,.13.01.07,0,.13.01.2.02.04,0,.08,0,.12.01.07,0,.13.01.2.02.04,0,.08,0,.12.01.07,0,.14.01.2.02.04,0,.08,0,.13,0,.07,0,.13,0,.2.01.04,0,.09,0,.13,0,.06,0,.13,0,.19,0,.05,0,.11,0,.16,0,.06,0,.11,0,.17,0,.07,0,.13,0,.2,0,.04,0,.09,0,.13,0,.11,0,.22,0,.33,0s.22,0,.33,0c.07,0,.13,0,.2,0,.04,0,.08,0,.13,0,.09,0,.18,0,.26,0,.02,0,.04,0,.06,0,.1,0,.21,0,.31-.01,0,0,0,0,0,0,1.5-.08,2.98-.31,4.37-.69,0,0,0,0,.01,0,.09-.02.18-.05.27-.07.02,0,.04-.01.06-.02.07-.02.15-.04.22-.07.03,0,.06-.02.09-.03.06-.02.12-.04.18-.06.04-.01.08-.03.12-.04.05-.02.1-.03.15-.05.05-.02.1-.03.15-.05.04-.01.08-.03.12-.04.06-.02.11-.04.17-.06.04-.01.07-.03.11-.04.06-.02.12-.04.18-.07.03-.01.06-.02.09-.03.06-.02.12-.05.19-.07l.08-.03c.06-.03.12-.05.19-.08.03-.01.05-.02.08-.03.06-.03.12-.05.18-.08.03-.01.06-.03.08-.04.06-.03.11-.05.17-.08.03-.01.06-.03.09-.04.05-.03.11-.05.16-.08.04-.02.07-.04.1-.05.05-.02.09-.05.14-.07.04-.02.09-.05.13-.07.04-.02.07-.04.11-.06.08-.04.16-.09.24-.14.08-.05.16-.09.23-.14.04-.02.08-.05.11-.07.04-.02.07-.04.11-.07.05-.03.1-.06.15-.1.02-.01.04-.03.07-.04.06-.04.11-.08.17-.11.01,0,.03-.02.04-.03.06-.04.12-.08.18-.13,0,0,.02-.01.02-.02.06-.05.13-.09.19-.14,0,0,0,0,0,0,.38-.3.73-.61,1.04-.94h0Z"/>
      <path class="cls-3" d="M484.74,267.58c-4.57-2.64-4.6-6.94-.05-9.58l4.04-2.35c-.51.06-1.03.11-1.56.14-.01,0-.02,0-.03,0h-.15s-.04.01-.06.01c-.04,0-.08,0-.12,0-.03,0-.07,0-.1,0-.03,0-.05,0-.08,0-.05,0-.09,0-.14,0-.01,0-.03,0-.04,0-4.27.16-8.63-.67-11.99-2.47-.01,0-.02-.01-.04-.02-.03-.02-.07-.04-.1-.06-.03-.02-.06-.03-.09-.05-.02,0-.03-.02-.05-.03-.05-.03-.1-.05-.15-.08-.05-.03-.1-.06-.14-.08-.02,0-.03-.02-.05-.03-.03-.02-.06-.03-.09-.05-.03-.02-.06-.04-.1-.06-.01,0-.02-.01-.03-.02-2.98-1.85-4.42-4.22-4.34-6.58.08-2.48,1.86-4.73,4.68-6.36,2.72-1.59,6.43-2.6,10.55-2.72,4.2-.12,8.47.71,11.77,2.48,0,0,0,0,.01,0,.04.02.08.05.12.07.02.01.04.02.06.03.03.01.05.03.08.04.05.03.09.05.14.08.05.03.09.05.14.08.03.02.05.03.08.05.02.01.04.02.06.03.04.02.08.05.12.07,0,0,0,0,.01,0,3.53,2.19,4.91,5.11,4.14,7.87,0,0,0,0,0,.01,0,.03-.02.07-.03.1,0,0,0,0,0,.01-.01.03-.02.07-.03.1,0,0,0,.01,0,.02-.01.03-.02.07-.03.1,0,0,0,0,0,.01,0,.01,0,.03-.01.04l4.04-2.35c4.54-2.64,11.98-2.64,16.55,0l3.68,2.13c-1.1-3.92-4.35-7.51-9.12-10.27-4.55-2.62-10.48-4.5-17.28-5.18-10.74-1.08-21.15,1.05-28.29,5.21-4.52,2.62-7.72,6.06-8.89,9.99-1.82,6.22,1.89,12.25,9.08,16.4,4.55,2.62,10.48,4.49,17.28,5.18l-3.42-1.98Z"/>
      <path class="cls-4" d="M491.19,271.24c-.14-.04-.27-.09-.37-.15.11.06.24.11.37.15Z"/>
      <path class="cls-2" d="M519.86,247.17c-1.77-1.02-4.1-1.54-6.44-1.53-2.34,0-4.66.51-6.42,1.53l-10.23,5.95-10.24,5.95c-1.76,1.02-2.63,2.37-2.63,3.72,0,1.35.89,2.7,2.67,3.72l5.72,3.3c6.01.15,11.78-.67,16.8-2.27.12-.04.24-.08.36-.12,0,0,0,0,0,0,.71-.23,1.4-.48,2.07-.74.03-.01.06-.02.08-.03.08-.03.17-.07.25-.1.04-.02.08-.03.12-.05.08-.03.15-.06.23-.09.04-.02.09-.04.13-.05.08-.03.15-.06.23-.09.04-.02.09-.04.13-.06.07-.03.15-.06.22-.09.05-.02.09-.04.14-.06.07-.03.14-.06.21-.09.05-.02.09-.04.14-.06.12-.05.23-.1.34-.16.06-.03.12-.06.19-.09.06-.03.11-.05.17-.08.06-.03.12-.06.18-.09.05-.03.11-.05.16-.08.06-.03.12-.06.19-.09.05-.03.1-.05.15-.08.06-.03.13-.06.19-.1.05-.02.1-.05.15-.08.06-.03.12-.07.19-.1.05-.03.1-.05.15-.08.07-.04.13-.07.19-.1.04-.02.09-.05.13-.07.07-.04.14-.08.21-.12.04-.02.07-.04.11-.06.11-.06.21-.12.32-.18,4.52-2.63,7.72-6.06,8.89-9.99.37-1.27.51-2.53.44-3.77l-5.92-3.42Z"/>
      <path class="cls-1" d="M529.6,230.23c-20.03-11.57-52.4-11.56-72.3,0s-19.8,30.31.24,41.88c20.03,11.56,52.4,11.56,72.3,0,19.9-11.56,19.79-30.31-.24-41.88ZM527.91,254.62c-1.25,4.25-4.72,7.97-9.6,10.81-6.84,3.97-16.46,6.24-26.65,5.89-.11,0-.21-.03-.32-.05.08.02.17.04.25.04-1.28-.05-2.57-.13-3.87-.26-7.35-.74-13.77-2.76-18.68-5.6,0,0-.01,0-.02-.01-7.76-4.48-11.77-11.01-9.79-17.72,1.25-4.25,4.73-7.97,9.61-10.8,7.71-4.49,18.97-6.79,30.58-5.62,7.35.74,13.78,2.76,18.69,5.6,6.24,3.6,10.06,8.53,10.29,13.81,0,.04,0,.09,0,.13,0,.04,0,.07,0,.11,0,.08,0,.16,0,.24v.02c0,1.13-.16,2.28-.5,3.43Z"/>
    </g>
  </g>
</svg>