<?xml version="1.0" encoding="UTF-8"?>
<svg xmlns="http://www.w3.org/2000/svg" version="1.1" viewBox="0 0 1179.1 424.7">
  <defs>
    <style>
      .cls-1 {
        fill: #08062a;
      }

      .cls-2 {
        fill: #fff;
      }
    </style>
  </defs>
  <!-- Generator: Adobe Illustrator 28.6.0, SVG Export Plug-In . SVG Version: 1.2.0 Build 709)  -->
  <g>
    <g id="Layer_1">
      <path class="cls-2" d="M198.9,243.7H30.4c-5,0-9-4-9-9v-59.9c0-5,4-9,9-9h168.4v77.9Z"/>
      <path class="cls-2" d="M194.2,165.8v145c0,1.3,1,2.3,2.3,2.3s2.3-1,2.3-2.3v-145c0-1.3-1-2.3-2.3-2.3s-2.3,1-2.3,2.3h0Z"/>
      <g>
        <polygon class="cls-1" points="45.7 191.6 52.1 191.6 52.1 189.6 45.7 189.6 45.7 185.1 52.7 185.1 52.7 183.2 43.5 183.2 43.5 198 45.7 198 45.7 191.6"/>
        <path class="cls-1" d="M60.2,186.7c-.7,0-1.2.2-1.8.5s-.9.8-1.1,1.4h-.1v-1.8h-2.1v11.1h2.2v-6.8c0-.5.1-.9.3-1.3.2-.4.5-.7.9-.9.4-.2.9-.3,1.4-.3s.4,0,.7,0,.4,0,.5,0v-2.1c-.1,0-.3,0-.4,0s-.3,0-.5,0Z"/>
        <path class="cls-1" d="M71.8,195.5c.4-.9.6-1.9.6-3s-.2-2.2-.6-3c-.4-.9-1-1.5-1.8-2s-1.7-.7-2.7-.7-2,.2-2.7.7-1.4,1.2-1.8,2c-.4.9-.6,1.9-.6,3s.2,2.2.6,3,1,1.5,1.8,2,1.7.7,2.7.7,2-.2,2.7-.7,1.4-1.1,1.8-2ZM69,195.9c-.4.4-1,.5-1.7.5s-1.2-.2-1.7-.5c-.4-.4-.8-.8-1-1.4-.2-.6-.3-1.2-.3-2s.1-1.4.3-2c.2-.6.5-1.1,1-1.4.4-.4,1-.5,1.7-.5s1.2.2,1.7.5c.4.4.8.8,1,1.4.2.6.3,1.3.3,2s-.1,1.4-.3,2c-.2.6-.5,1.1-1,1.4Z"/>
        <path class="cls-1" d="M81.4,198h2.2v-7.1c0-.7.2-1.2.6-1.7s.9-.6,1.6-.6,1.1.2,1.5.5c.4.3.6.9.6,1.6v7.3h2.2v-7.5c0-1.3-.3-2.2-1-2.9-.6-.6-1.5-1-2.5-1s-1.5.2-2.1.5-1,.8-1.3,1.4h-.1c-.2-.6-.6-1.1-1.1-1.4-.5-.3-1.1-.5-1.9-.5s-1.4.2-1.9.5-.9.8-1.1,1.4h-.1v-1.8h-2.1v11.1h2.2v-6.9c0-.5.1-.9.3-1.3.2-.4.5-.7.8-.9.3-.2.7-.3,1.1-.3.6,0,1.1.2,1.5.6s.6.9.6,1.5v7.4Z"/>
        <path class="cls-1" d="M107.6,191c-.4-.3-.9-.6-1.4-.8s-1-.4-1.5-.5l-1.5-.4c-.3,0-.6-.2-.9-.3-.3-.1-.6-.3-.9-.4s-.5-.4-.7-.6c-.2-.3-.3-.6-.3-.9s.1-.8.4-1.1.6-.6,1-.8c.4-.2,1-.3,1.6-.3s1.6.2,2.1.6c.6.4.9.9,1,1.6h2.2c0-.8-.3-1.5-.7-2.1-.4-.6-1.1-1.1-1.8-1.5-.8-.4-1.7-.5-2.7-.5s-1.9.2-2.7.5c-.8.4-1.4.9-1.9,1.5-.5.6-.7,1.4-.7,2.2s.3,1.9,1,2.5c.7.6,1.6,1.1,2.8,1.4l1.8.5c.5.1,1,.3,1.4.5.4.2.8.4,1,.7.2.3.4.6.4,1.1s-.1.9-.4,1.3c-.3.4-.7.6-1.2.8s-1.1.3-1.7.3-1.1,0-1.6-.3c-.5-.2-.9-.4-1.2-.8s-.5-.8-.5-1.3h-2.2c0,.9.3,1.7.8,2.3.5.6,1.1,1.2,1.9,1.5.8.4,1.8.5,2.9.5s2.2-.2,3-.6,1.4-.9,1.9-1.5c.4-.7.6-1.4.6-2.2s-.1-1.2-.4-1.7c-.3-.5-.6-.9-1-1.2Z"/>
        <path class="cls-1" d="M112.2,195.2c0,.7.2,1.2.5,1.7.3.4.7.8,1.2,1,.5.2,1,.3,1.6.3.3,0,.6,0,.9,0s.4-.1.5-.1l-.4-1.8c0,0-.2,0-.3,0-.1,0-.3,0-.5,0s-.5,0-.7-.1c-.2,0-.4-.2-.5-.4-.1-.2-.2-.5-.2-.9v-6.1h2.3v-1.7h-2.3v-2.7h-2.2v2.7h-1.6v1.7h1.6v6.6Z"/>
        <path class="cls-1" d="M127.8,198v-7.4c0-.8-.1-1.5-.4-2-.3-.5-.6-.9-1.1-1.2-.4-.3-.9-.5-1.4-.6-.5-.1-1-.2-1.4-.2-.7,0-1.3,0-1.9.3-.6.2-1.1.5-1.6.9-.5.4-.8,1-1.1,1.6l2,.5c.2-.4.4-.7.9-1.1.4-.3,1-.5,1.7-.5s1.2.2,1.6.5c.4.3.5.8.5,1.5h0c0,.3,0,.5-.3.6s-.5.2-.9.2c-.4,0-1,.1-1.6.2-.5,0-1,.2-1.6.3-.5.1-1,.3-1.4.5-.4.2-.7.6-1,1s-.4.9-.4,1.6.2,1.3.5,1.8.8.9,1.4,1.1c.6.3,1.2.4,1.9.4s1.1,0,1.6-.3.8-.4,1.1-.7c.3-.3.5-.5.6-.8h0v1.5h2.1ZM125.6,194c0,.4-.1.9-.3,1.2-.2.4-.6.7-1,.9-.4.2-.9.4-1.5.4s-1.1-.1-1.5-.4-.6-.7-.6-1.2.1-.7.3-.9.5-.4.8-.5c.3-.1.7-.2,1.1-.3.2,0,.4,0,.7,0,.3,0,.5,0,.8-.1.3,0,.5-.1.8-.2.2,0,.4-.1.4-.2v1.4Z"/>
        <path class="cls-1" d="M132.9,191.2c0-.5.1-.9.3-1.3.2-.4.5-.7.9-.9.4-.2.9-.3,1.4-.3s.4,0,.7,0,.4,0,.5,0v-2.1c-.1,0-.3,0-.4,0s-.3,0-.5,0c-.7,0-1.2.2-1.8.5s-.9.8-1.1,1.4h-.1v-1.8h-2.1v11.1h2.2v-6.8Z"/>
        <path class="cls-1" d="M144.1,198.1c.2,0,.4-.1.5-.1l-.4-1.8c0,0-.2,0-.3,0-.1,0-.3,0-.5,0s-.5,0-.7-.1c-.2,0-.4-.2-.5-.4-.1-.2-.2-.5-.2-.9v-6.1h2.3v-1.7h-2.3v-2.7h-2.2v2.7h-1.6v1.7h1.6v6.6c0,.7.2,1.2.5,1.7.3.4.7.8,1.2,1,.5.2,1,.3,1.6.3.3,0,.6,0,.9,0Z"/>
        <path class="cls-1" d="M161.9,192.8c0,.7-.1,1.3-.4,1.8-.3.5-.7.9-1.3,1.2-.5.3-1.2.4-2,.4s-1.4-.1-1.9-.4c-.5-.3-1-.7-1.3-1.2-.3-.5-.4-1.1-.4-1.8v-9.6h-2.2v9.8c0,1,.2,2,.7,2.8s1.2,1.4,2.1,1.9,1.9.7,3.1.7,2.2-.2,3.1-.7,1.6-1.1,2.1-1.9.7-1.7.7-2.8v-9.8h-2.2v9.6Z"/>
        <path class="cls-1" d="M176.8,189.4c-.4-.9-1-1.5-1.7-2-.7-.5-1.5-.7-2.4-.7s-1.2.1-1.7.3c-.4.2-.7.5-1,.8-.2.3-.4.6-.5.8h-.2v-1.8h-2.1v15.3h2.2v-5.9h.1c.1.2.3.5.6.8s.6.6,1,.8c.4.2,1,.3,1.7.3s1.7-.2,2.4-.7c.7-.5,1.3-1.1,1.7-2,.4-.9.6-1.9.6-3.1s-.2-2.2-.6-3.1ZM174.9,194.5c-.2.6-.6,1.1-1,1.4s-1,.5-1.6.5-1.2-.2-1.6-.5-.8-.8-1-1.4c-.2-.6-.3-1.3-.3-2.1s.1-1.5.3-2c.2-.6.6-1,1-1.4.4-.3,1-.5,1.6-.5s1.2.2,1.6.5c.4.3.8.8,1,1.4.2.6.3,1.2.3,2s-.1,1.4-.3,2Z"/>
        <path class="cls-1" d="M48,220.7c-.1,0-.3,0-.5,0s-.5,0-.7-.1c-.2,0-.4-.2-.5-.4-.1-.2-.2-.5-.2-.9v-6.1h2.3v-1.7h-2.3v-2.7h-2.2v2.7h-1.6v1.7h1.6v6.6c0,.7.2,1.2.5,1.7.3.4.7.8,1.2,1,.5.2,1,.3,1.6.3.3,0,.6,0,.9,0s.4-.1.5-.1l-.4-1.8c0,0-.2,0-.3,0Z"/>
        <path class="cls-1" d="M58.2,212c-.8-.5-1.7-.7-2.7-.7s-2,.2-2.7.7-1.4,1.2-1.8,2c-.4.9-.6,1.9-.6,3s.2,2.2.6,3,1,1.5,1.8,2,1.7.7,2.7.7,2-.2,2.7-.7,1.4-1.1,1.8-2,.6-1.9.6-3-.2-2.2-.6-3c-.4-.9-1-1.5-1.8-2ZM58.2,219c-.2.6-.5,1.1-1,1.4s-1,.5-1.7.5-1.2-.2-1.7-.5c-.4-.4-.8-.8-1-1.4-.2-.6-.3-1.2-.3-2s.1-1.4.3-2c.2-.6.5-1.1,1-1.4.4-.4,1-.5,1.7-.5s1.2.2,1.7.5c.4.4.8.8,1,1.4.2.6.3,1.3.3,2s-.1,1.4-.3,2Z"/>
        <path class="cls-1" d="M77.7,215.5c-.4-.3-.9-.6-1.4-.8s-1-.4-1.5-.5l-1.5-.4c-.3,0-.6-.2-.9-.3-.3-.1-.6-.3-.9-.4s-.5-.4-.7-.6c-.2-.3-.3-.6-.3-.9s.1-.8.4-1.1.6-.6,1-.8c.4-.2,1-.3,1.6-.3s1.6.2,2.1.6c.6.4.9.9,1,1.6h2.2c0-.8-.3-1.5-.7-2.1-.4-.6-1.1-1.1-1.8-1.5-.8-.4-1.7-.5-2.7-.5s-1.9.2-2.7.5c-.8.4-1.4.9-1.9,1.5-.5.6-.7,1.4-.7,2.2s.3,1.9,1,2.5c.7.6,1.6,1.1,2.8,1.4l1.8.5c.5.1,1,.3,1.4.5.4.2.8.4,1,.7.2.3.4.6.4,1.1s-.1.9-.4,1.3c-.3.4-.7.6-1.2.8s-1.1.3-1.7.3-1.1,0-1.6-.3c-.5-.2-.9-.4-1.2-.8s-.5-.8-.5-1.3h-2.2c0,.9.3,1.7.8,2.3.5.6,1.1,1.2,1.9,1.5.8.4,1.8.5,2.9.5s2.2-.2,3-.6,1.4-.9,1.9-1.5c.4-.7.6-1.4.6-2.2s-.1-1.2-.4-1.7c-.3-.5-.6-.9-1-1.2Z"/>
        <path class="cls-1" d="M84.8,213.6c.5-.3,1-.5,1.6-.5s1.2.2,1.7.6c.4.4.7.8.8,1.3h2.1c0-.8-.3-1.4-.7-2-.4-.6-.9-1-1.6-1.3-.7-.3-1.4-.5-2.3-.5s-2,.2-2.7.7-1.4,1.2-1.8,2c-.4.9-.6,1.9-.6,3s.2,2.1.6,3c.4.9,1,1.5,1.8,2,.8.5,1.7.7,2.8.7s1.6-.2,2.3-.5c.7-.3,1.2-.8,1.6-1.3.4-.6.6-1.2.7-1.9h-2.1c0,.4-.3.7-.5,1s-.5.5-.8.7c-.3.2-.7.2-1.1.2-.6,0-1.1-.2-1.6-.5-.5-.3-.8-.8-1-1.4s-.4-1.3-.4-2.1.1-1.5.4-2.1c.3-.6.6-1,1.1-1.3Z"/>
        <path class="cls-1" d="M100.5,212c-.4-.3-.9-.5-1.4-.6-.5-.1-1-.2-1.4-.2-.7,0-1.3,0-1.9.3-.6.2-1.1.5-1.6.9-.5.4-.8,1-1.1,1.6l2,.5c.2-.4.4-.7.9-1.1.4-.3,1-.5,1.7-.5s1.2.2,1.6.5c.4.3.5.8.5,1.5h0c0,.3,0,.5-.3.6s-.5.2-.9.2c-.4,0-1,.1-1.6.2-.5,0-1,.2-1.6.3-.5.1-1,.3-1.4.5-.4.2-.7.6-1,1s-.4.9-.4,1.6.2,1.3.5,1.8.8.9,1.4,1.1c.6.3,1.2.4,1.9.4s1.1,0,1.6-.3.8-.4,1.1-.7c.3-.3.5-.5.6-.8h0v1.5h2.1v-7.4c0-.8-.1-1.5-.4-2-.3-.5-.6-.9-1.1-1.2ZM99.8,218.5c0,.4-.1.9-.3,1.2-.2.4-.6.7-1,.9-.4.2-.9.4-1.5.4s-1.1-.1-1.5-.4-.6-.7-.6-1.2.1-.7.3-.9.5-.4.8-.5c.3-.1.7-.2,1.1-.3.2,0,.4,0,.7,0,.3,0,.5,0,.8-.1.3,0,.5-.1.8-.2.2,0,.4-.1.4-.2v1.4Z"/>
        <rect class="cls-1" x="104.9" y="207.7" width="2.2" height="14.9"/>
        <path class="cls-1" d="M118,212.6c-.5-.4-1-.8-1.6-1-.6-.2-1.2-.3-1.8-.3-1,0-1.9.2-2.7.7-.8.5-1.4,1.2-1.8,2-.4.9-.6,1.9-.6,3s.2,2.2.6,3c.4.9,1,1.5,1.8,2,.8.5,1.7.7,2.8.7s1.5-.1,2.2-.4,1.2-.6,1.6-1.1c.4-.5.7-1,.9-1.6l-2.1-.4c-.1.3-.3.6-.6.9-.2.2-.5.4-.9.5-.3.1-.7.2-1.1.2-.6,0-1.2-.1-1.7-.4-.5-.3-.8-.7-1.1-1.2-.2-.5-.4-1.1-.4-1.7h7.9v-.8c0-1-.1-1.9-.4-2.6-.3-.7-.6-1.3-1.1-1.7ZM111.6,216c0-.5.1-.9.3-1.3.2-.5.6-.9,1-1.2.5-.3,1-.4,1.6-.4s1.1.1,1.5.4c.4.3.7.6,1,1s.3.9.3,1.5h-5.8Z"/>
        <path class="cls-1" d="M137.1,217.3c0,.7-.1,1.3-.4,1.8-.3.5-.7.9-1.3,1.2-.5.3-1.2.4-2,.4s-1.4-.1-1.9-.4c-.5-.3-1-.7-1.3-1.2-.3-.5-.4-1.1-.4-1.8v-9.6h-2.2v9.8c0,1,.2,2,.7,2.8s1.2,1.4,2.1,1.9,1.9.7,3.1.7,2.2-.2,3.1-.7,1.6-1.1,2.1-1.9.7-1.7.7-2.8v-9.8h-2.2v9.6Z"/>
        <path class="cls-1" d="M150.3,211.9c-.7-.5-1.5-.7-2.4-.7s-1.2.1-1.7.3c-.4.2-.7.5-1,.8-.2.3-.4.6-.5.8h-.2v-1.8h-2.1v15.3h2.2v-5.9h.1c.1.2.3.5.6.8s.6.6,1,.8c.4.2,1,.3,1.7.3s1.7-.2,2.4-.7c.7-.5,1.3-1.1,1.7-2,.4-.9.6-1.9.6-3.1s-.2-2.2-.6-3.1c-.4-.9-1-1.5-1.7-2ZM150.1,219c-.2.6-.6,1.1-1,1.4s-1,.5-1.6.5-1.2-.2-1.6-.5-.8-.8-1-1.4c-.2-.6-.3-1.3-.3-2.1s.1-1.5.3-2c.2-.6.6-1,1-1.4.4-.3,1-.5,1.6-.5s1.2.2,1.6.5c.4.3.8.8,1,1.4.2.6.3,1.2.3,2s-.1,1.4-.3,2Z"/>
      </g>
    </g>
  </g>
</svg>