<?xml version="1.0" encoding="UTF-8"?>
<svg id="Layer_1" xmlns="http://www.w3.org/2000/svg" xmlns:xlink="http://www.w3.org/1999/xlink" viewBox="0 0 1179.11 424.66">
  <defs>
    <style>
      .cls-1 {
        fill: url(#linear-gradient-8);
      }

      .cls-2 {
        fill: url(#linear-gradient-7);
      }

      .cls-3 {
        fill: url(#linear-gradient-5);
      }

      .cls-4 {
        fill: url(#linear-gradient-6);
      }

      .cls-5 {
        fill: url(#linear-gradient-4);
      }

      .cls-6 {
        fill: url(#linear-gradient-3);
      }

      .cls-7 {
        fill: url(#linear-gradient-2);
      }

      .cls-8 {
        fill: url(#radial-gradient);
      }

      .cls-9 {
        fill: url(#linear-gradient);
      }

      .cls-10 {
        fill: #08062a;
      }
    </style>
    <radialGradient id="radial-gradient" cx="2044.81" cy="268.72" fx="2044.81" fy="268.72" r="54.75" gradientTransform="translate(-2633.63 -68.77) scale(1.48 1)" gradientUnits="userSpaceOnUse">
      <stop offset="0" stop-color="#008fbe" stop-opacity=".8"/>
      <stop offset=".3" stop-color="#3bafcd" stop-opacity=".51"/>
      <stop offset=".62" stop-color="#75cedc" stop-opacity=".24"/>
      <stop offset=".87" stop-color="#99e2e6" stop-opacity=".06"/>
      <stop offset="1" stop-color="#a7eaea" stop-opacity="0"/>
    </radialGradient>
    <linearGradient id="linear-gradient" x1="277.19" y1="263.31" x2="379.43" y2="263.31" gradientTransform="translate(68.77 -68.77)" gradientUnits="userSpaceOnUse">
      <stop offset=".16" stop-color="#008fbe" stop-opacity=".2"/>
      <stop offset=".76" stop-color="#a7eaea" stop-opacity=".8"/>
      <stop offset=".94" stop-color="#fff" stop-opacity=".8"/>
    </linearGradient>
    <linearGradient id="linear-gradient-2" y1="274.75" y2="274.75" xlink:href="#linear-gradient"/>
    <linearGradient id="linear-gradient-3" x1="277.19" y1="263.33" x2="379.43" y2="263.33" gradientTransform="translate(68.77 -68.77)" gradientUnits="userSpaceOnUse">
      <stop offset="0" stop-color="#008fbe" stop-opacity=".2"/>
      <stop offset=".58" stop-color="#08062a" stop-opacity=".55"/>
      <stop offset="1" stop-color="#a7eaea" stop-opacity=".8"/>
    </linearGradient>
    <linearGradient id="linear-gradient-4" x1="313.81" y1="258.03" x2="337.38" y2="258.03" gradientTransform="translate(68.77 -68.77)" gradientUnits="userSpaceOnUse">
      <stop offset="0" stop-color="#008fbe" stop-opacity=".8"/>
      <stop offset=".22" stop-color="#2ca7c9" stop-opacity=".8"/>
      <stop offset=".58" stop-color="#6ecbdb" stop-opacity=".8"/>
      <stop offset=".85" stop-color="#97e1e5" stop-opacity=".8"/>
      <stop offset="1" stop-color="#a7eaea" stop-opacity=".8"/>
    </linearGradient>
    <linearGradient id="linear-gradient-5" x1="306.76" y1="262.91" x2="307.22" y2="262.91" xlink:href="#linear-gradient-4"/>
    <linearGradient id="linear-gradient-6" x1="343.75" y1="252.95" x2="344.21" y2="252.95" xlink:href="#linear-gradient-4"/>
    <linearGradient id="linear-gradient-7" x1="295.7" y1="261.17" x2="368.81" y2="261.17" xlink:href="#linear-gradient-4"/>
    <linearGradient id="linear-gradient-8" x1="277.19" y1="263.33" x2="379.43" y2="263.33" xlink:href="#linear-gradient-4"/>
  </defs>
  <ellipse class="cls-8" cx="397.08" cy="200.26" rx="95.99" ry="55.74"/>
  <g>
    <path class="cls-9" d="M433.11,173.61c-20.03-11.57-52.4-11.56-72.3,0-19.9,11.56-19.8,30.31.24,41.88,20.03,11.56,52.4,11.56,72.3,0,19.9-11.56,19.79-30.31-.24-41.88"/>
    <path class="cls-10" d="M433.11,185.04c-20.03-11.57-52.4-11.56-72.3,0-19.9,11.56-19.8,30.31.24,41.88,20.03,11.56,52.4,11.56,72.3,0,19.9-11.56,19.79-30.31-.24-41.88"/>
    <path class="cls-7" d="M433.11,185.04c-20.03-11.57-52.4-11.56-72.3,0-19.9,11.56-19.8,30.31.24,41.88,20.03,11.56,52.4,11.56,72.3,0,19.9-11.56,19.79-30.31-.24-41.88"/>
    <path class="cls-6" d="M433.11,173.62c-20.03-11.57-52.4-11.56-72.3,0-19.9,11.56-19.8,30.31.24,41.88,20.03,11.56,52.4,11.56,72.3,0,19.9-11.56,19.79-30.31-.24-41.88"/>
    <g>
      <polygon class="cls-5" points="382.58 192.44 399.88 196.1 406.14 186.09 388.85 182.43 382.58 192.44"/>
      <path class="cls-3" d="M375.92,194.05c-.06-.04-.17-.05-.25-.03l-.07.03c-.06.04-.09.1-.04.15l.04.04c.06.04.17.05.26.03l.06-.03c.06-.04.09-.1.05-.15l-.05-.04Z"/>
      <path class="cls-4" d="M412.91,184.08c-.06-.04-.17-.05-.26-.03l-.06.03c-.06.04-.09.1-.05.15l.05.04c.06.04.17.05.25.03l.07-.03c.06-.04.08-.1.04-.15l-.04-.04Z"/>
      <path class="cls-2" d="M417.43,183.34c-.11-.06-.2-.14-.26-.22-.15-.18-.17-.39-.05-.58l1.57-2.52-5.27-1.12-1.58,2.52c-.11.18-.36.34-.67.43-.31.08-.67.09-1,.03l-26.26-5.56-9.52,15.19c-.25.39-.99.6-1.67.45l-4.35-.93-1.91,3.06,4.35.93c.18.04.34.1.48.18.11.06.2.13.26.21.14.18.16.39.04.58l-7.13,11.38,5.28,1.12,7.13-11.38c.12-.19.37-.35.67-.43.31-.08.68-.09,1.01-.02l26.25,5.56,9.52-15.19c.11-.18.36-.34.67-.43.31-.08.67-.1,1-.03l19.68,4.17,1.9-3.05-19.67-4.16c-.18-.04-.34-.1-.48-.18ZM377.78,195.31c-.23.13-.51.24-.82.33-1.11.3-2.38.15-3.2-.33-.23-.13-.43-.29-.58-.47-.52-.65-.26-1.38.56-1.86.23-.13.5-.25.81-.33,1.11-.3,2.39-.15,3.22.33.23.13.42.29.56.47.52.65.27,1.38-.55,1.86ZM409.05,185.9l-7.15,11.43c-.12.19-.36.34-.67.43-.32.08-.68.09-1.01.02l-19.75-4.18c-.18-.04-.35-.1-.48-.18-.11-.06-.19-.13-.26-.21-.15-.18-.16-.39-.05-.58l7.16-11.43c.25-.39,1-.59,1.68-.45l19.75,4.18c.18.04.34.1.47.17.11.06.2.14.26.22.15.18.17.39.05.58ZM414.76,185.35c-.23.13-.5.25-.81.33-1.11.3-2.39.15-3.22-.33-.23-.13-.42-.29-.56-.47-.52-.65-.27-1.38.55-1.86.23-.13.51-.24.82-.33,1.11-.3,2.38-.15,3.2.33.23.13.43.29.58.47.52.65.26,1.38-.56,1.86Z"/>
      <path class="cls-1" d="M433.11,173.62c-20.03-11.57-52.4-11.56-72.3,0s-19.8,30.31.24,41.88c20.03,11.56,52.4,11.56,72.3,0,19.9-11.56,19.79-30.31-.24-41.88ZM440.49,187.49l-2.8,4.48c-.11.18-.37.34-.68.42-.31.08-.67.09-1,.03l-19.68-4.17-9.5,15.19c-.12.19-.37.35-.68.42-.31.08-.67.1-1,.03l-26.26-5.56-7.13,11.38c-.25.39-.99.6-1.67.45l-7.73-1.64c-.18-.04-.33-.1-.47-.17-.11-.06-.2-.14-.27-.22-.15-.18-.17-.39-.05-.58l7.13-11.38-4.35-.92c-.18-.04-.33-.1-.47-.17-.11-.06-.2-.14-.27-.22-.15-.18-.17-.39-.05-.58l2.8-4.48c.25-.39,1-.59,1.68-.45l4.35.92,9.51-15.19c.25-.39,1-.59,1.68-.45l26.26,5.56,1.57-2.52c.12-.19.36-.34.67-.43.32-.08.68-.09,1.01-.02l7.73,1.64c.17.04.33.1.46.17.11.06.2.14.27.22.15.18.16.39.04.58l-1.57,2.52,19.68,4.17c.18.04.34.1.47.18.35.2.49.51.31.8Z"/>
    </g>
  </g>
</svg>