<?xml version="1.0" encoding="UTF-8"?>
<svg id="Layer_1" xmlns="http://www.w3.org/2000/svg" xmlns:xlink="http://www.w3.org/1999/xlink" viewBox="0 0 1179.11 424.66">
  <defs>
    <style>
      .cls-1 {
        fill: url(#linear-gradient-8);
      }

      .cls-2 {
        fill: url(#linear-gradient-7);
      }

      .cls-3 {
        fill: url(#linear-gradient-5);
      }

      .cls-4 {
        fill: url(#linear-gradient-6);
      }

      .cls-5 {
        fill: url(#linear-gradient-9);
      }

      .cls-6 {
        fill: url(#linear-gradient-4);
      }

      .cls-7 {
        fill: url(#linear-gradient-3);
      }

      .cls-8 {
        fill: url(#linear-gradient-2);
      }

      .cls-9 {
        fill: url(#radial-gradient);
      }

      .cls-10 {
        fill: url(#linear-gradient);
      }

      .cls-11 {
        fill: url(#linear-gradient-10);
      }

      .cls-12 {
        fill: url(#linear-gradient-11);
      }

      .cls-13 {
        fill: url(#linear-gradient-12);
      }

      .cls-14 {
        fill: url(#linear-gradient-13);
      }

      .cls-15 {
        fill: #08062a;
      }
    </style>
    <radialGradient id="radial-gradient" cx="2062.27" cy="-97.58" fx="2062.27" fy="-97.58" r="54.75" gradientTransform="translate(-2566.18 408.91) scale(1.48 1)" gradientUnits="userSpaceOnUse">
      <stop offset="0" stop-color="#008fbe" stop-opacity=".8"/>
      <stop offset=".3" stop-color="#3bafcd" stop-opacity=".51"/>
      <stop offset=".62" stop-color="#75cedc" stop-opacity=".24"/>
      <stop offset=".87" stop-color="#99e2e6" stop-opacity=".06"/>
      <stop offset="1" stop-color="#a7eaea" stop-opacity="0"/>
    </radialGradient>
    <linearGradient id="linear-gradient" x1="508.05" y1="374.74" x2="610.29" y2="374.74" gradientTransform="translate(-68.78 -68.81)" gradientUnits="userSpaceOnUse">
      <stop offset=".16" stop-color="#008fbe" stop-opacity=".2"/>
      <stop offset=".76" stop-color="#a7eaea" stop-opacity=".8"/>
      <stop offset=".94" stop-color="#fff" stop-opacity=".8"/>
    </linearGradient>
    <linearGradient id="linear-gradient-2" y1="386.17" y2="386.17" xlink:href="#linear-gradient"/>
    <linearGradient id="linear-gradient-3" x1="508.05" y1="374.75" x2="610.29" y2="374.75" gradientTransform="translate(-68.78 -68.81)" gradientUnits="userSpaceOnUse">
      <stop offset="0" stop-color="#008fbe" stop-opacity=".2"/>
      <stop offset=".58" stop-color="#08062a" stop-opacity=".55"/>
      <stop offset="1" stop-color="#a7eaea" stop-opacity=".8"/>
    </linearGradient>
    <linearGradient id="linear-gradient-4" x1="541.29" y1="366.68" x2="551.41" y2="366.68" gradientTransform="translate(-68.78 -68.81)" gradientUnits="userSpaceOnUse">
      <stop offset="0" stop-color="#008fbe" stop-opacity=".8"/>
      <stop offset=".22" stop-color="#2ca7c9" stop-opacity=".8"/>
      <stop offset=".58" stop-color="#6ecbdb" stop-opacity=".8"/>
      <stop offset=".85" stop-color="#97e1e5" stop-opacity=".8"/>
      <stop offset="1" stop-color="#a7eaea" stop-opacity=".8"/>
    </linearGradient>
    <linearGradient id="linear-gradient-5" x1="541.06" y1="362.35" x2="547.9" y2="362.35" xlink:href="#linear-gradient-4"/>
    <linearGradient id="linear-gradient-6" x1="538.6" y1="380.31" x2="552.78" y2="380.31" xlink:href="#linear-gradient-4"/>
    <linearGradient id="linear-gradient-7" x1="549.41" y1="370.5" x2="578.48" y2="370.5" xlink:href="#linear-gradient-4"/>
    <linearGradient id="linear-gradient-8" x1="535.81" y1="358.92" x2="549.16" y2="358.92" xlink:href="#linear-gradient-4"/>
    <linearGradient id="linear-gradient-9" x1="550.92" y1="385.61" x2="575.96" y2="385.61" xlink:href="#linear-gradient-4"/>
    <linearGradient id="linear-gradient-10" x1="554.92" y1="381.2" x2="580.76" y2="381.2" xlink:href="#linear-gradient-4"/>
    <linearGradient id="linear-gradient-11" x1="508.05" y1="374.75" x2="610.29" y2="374.75" xlink:href="#linear-gradient-4"/>
    <linearGradient id="linear-gradient-12" x1="542.41" y1="383.85" x2="582.15" y2="383.85" xlink:href="#linear-gradient-4"/>
    <linearGradient id="linear-gradient-13" x1="547.25" y1="389.65" x2="571.57" y2="389.65" xlink:href="#linear-gradient-4"/>
  </defs>
  <ellipse class="cls-9" cx="490.39" cy="311.64" rx="95.99" ry="55.74"/>
  <g>
    <path class="cls-10" d="M526.42,284.99c-20.03-11.57-52.4-11.56-72.3,0-19.9,11.56-19.8,30.31.24,41.88,20.03,11.56,52.4,11.56,72.3,0,19.9-11.56,19.79-30.31-.24-41.88"/>
    <path class="cls-15" d="M526.42,296.42c-20.03-11.57-52.4-11.56-72.3,0-19.9,11.56-19.8,30.31.24,41.88s52.4,11.56,72.3,0c19.9-11.56,19.79-30.31-.24-41.88"/>
    <path class="cls-8" d="M526.42,296.42c-20.03-11.57-52.4-11.56-72.3,0-19.9,11.56-19.8,30.31.24,41.88s52.4,11.56,72.3,0c19.9-11.56,19.79-30.31-.24-41.88"/>
    <path class="cls-7" d="M526.42,285c-20.03-11.57-52.4-11.56-72.3,0-19.9,11.56-19.8,30.31.24,41.88,20.03,11.56,52.4,11.56,72.3,0,19.9-11.56,19.79-30.31-.24-41.88"/>
    <g>
      <path class="cls-6" d="M478.19,299.08c.25-.48.71-.93,1.33-1.29.52-.3,1.17-.55,1.91-.71l.73-.16h0s.04,0,.04,0h.02s.41-.09.41-.09l-1.83-2.8c-.15.1-.3.2-.46.29-2.04,1.19-4.94,1.76-7.82,1.54l3.83,5.86,1.85-2.64Z"/>
      <path class="cls-3" d="M472.69,294c-.14.08-.28.17-.41.26,2.24.29,4.57-.12,6.16-1.04.24-.14.47-.29.68-.46-1.23-.1-2.5-.03-3.73.24-1.05.22-1.95.57-2.69,1Z"/>
      <path class="cls-4" d="M483.71,310.08c.06-.08.14-.16.22-.24.02-.02.04-.04.07-.06l-5.03-7.69-9.04,12.89c-.15.22-.16.48,0,.7l3.41,5.23,10.37-10.83Z"/>
      <path class="cls-2" d="M481.42,298.88c-.31.18-.54.41-.67.65-.17.32-.16.67.05,1.01l5.49,8.4,1.76-.39.55-.12,14.67-3.19,1.51-.33,4.91-1.07-5.49-8.4c-.14-.22-.35-.4-.61-.55-.73-.42-1.84-.59-2.87-.36l-15.88,3.46s-.02,0-.03,0l-1.61.35h0s-.06.01-.06.01l-.77.17c-.37.08-.7.21-.96.36Z"/>
      <path class="cls-1" d="M470.8,292.9c1-.58,2.23-1.05,3.64-1.36,1.92-.42,3.92-.48,5.8-.24.47-1.29-.24-2.63-1.82-3.55-.55-.32-1.21-.58-1.96-.78-2.61-.69-5.57-.32-7.47.79-.55.32-1.01.7-1.36,1.14-1.18,1.51-.53,3.23,1.39,4.33.24.14.49.26.77.38.31-.25.65-.48,1.03-.7Z"/>
      <path class="cls-5" d="M484.14,318.26l-2,2.08,22.85-4.97,2.19-2.12-22.91,4.99s-.09.02-.14.03Z"/>
      <polygon class="cls-11" points="491.97 312.95 491.61 313.03 489.84 313.41 488.83 313.64 487.96 314.28 486.14 316.18 509.38 311.12 511.98 308.6 492.97 312.73 491.97 312.95"/>
      <path class="cls-12" d="M526.42,285c-20.03-11.57-52.4-11.56-72.3,0s-19.8,30.31.24,41.88c20.03,11.56,52.4,11.56,72.3,0,19.9-11.56,19.79-30.31-.24-41.88ZM516.42,307.18s0,.02,0,.03c0,0,0,0,0,0-.02.07-.05.13-.1.2-.02.03-.05.05-.07.07,0,0,0,0,0,0l-.03.03-13.17,12.77c-.15.15-.39.27-.67.33l-26.68,5.81s-.09.02-.14.02h0s-1.38.31-1.38.31c-.51.11-1.06.03-1.42-.18-.13-.07-.23-.16-.3-.26l-1.24-1.81s-.02-.04-.04-.06l-.03-.04c-.3-.47-.23-.99.21-1.42l.3-.31-4.22-6.46c-.39-.59-.38-1.25.04-1.83l7.4-10.57-5.61-8.59c-.8-.25-1.52-.56-2.14-.92-2.69-1.55-3.58-3.96-1.94-6.07.47-.61,1.12-1.14,1.89-1.59,2.66-1.55,6.81-2.06,10.47-1.1,1.05.27,1.97.65,2.74,1.1,0,0,.01,0,.02,0,2.5,1.44,3.43,3.63,2.22,5.63l2.6,3.98,14.66-3.19c2.03-.44,4.24-.12,5.69.71.52.3.96.68,1.23,1.1l5.62,8.6c.71.05,1.38.24,1.88.53.32.18.57.41.74.66l1.38,2.11s0,0,0,.01c.01.02.02.05.03.07.01.03.03.07.04.1.01.06.01.12,0,.18,0,0,0,0,0,0Z"/>
      <path class="cls-13" d="M474.57,325.01h0s.06-.02.06-.02h0s11.04-11.53,11.04-11.53l.11-.1,1.17-.86c.15-.11.35-.2.57-.24l1.36-.29,1.77-.39.36-.07,1-.22,20.14-4.38,1.2-.26-.91-1.39-.13-.11c-.15-.09-.38-.12-.59-.07l-6.01,1.31-1.51.33s-.95.21-2.42.53c-1.47.32-3.46.76-5.53,1.21-4.14.91-8.61,1.89-9.88,2.17-.06.01-.12.03-.16.04h0s-.04.02-.04.02l-.02.02-.06.06-.05.07-12.39,12.94-.03.03-.02.08.04.04s.06.09.08.14l.67.99.14-.03Z"/>
      <path class="cls-14" d="M480.13,322.44l-1.66,1.73,22.5-4.9,1.82-1.76-22.63,4.93s-.02,0-.03,0Z"/>
    </g>
  </g>
</svg>