<?xml version="1.0" encoding="UTF-8"?>
<svg xmlns="http://www.w3.org/2000/svg" version="1.1" viewBox="0 0 1179.1 424.7">
  <defs>
    <style>
      .cls-1 {
        fill: #08062a;
      }

      .cls-2 {
        fill: #fff;
      }
    </style>
  </defs>
  <!-- Generator: Adobe Illustrator 28.6.0, SVG Export Plug-In . SVG Version: 1.2.0 Build 709)  -->
  <g>
    <g id="Layer_1">
      <path class="cls-2" d="M198.9,241.1H23.9c-5,0-9-4-9-9v-59.9c0-5,4-9,9-9h175v77.9Z"/>
      <path class="cls-2" d="M194.2,163.2v145c0,1.3,1,2.3,2.3,2.3s2.3-1,2.3-2.3v-145c0-1.3-1-2.3-2.3-2.3s-2.3,1-2.3,2.3h0Z"/>
      <g>
        <path class="cls-1" d="M35.8,194.7c1,.6,2.2.9,3.5.9s2.3-.2,3.2-.7,1.7-1.2,2.2-2.1.8-2,.8-3.2v-1.7h-5.8v1.8h3.7c0,.8-.2,1.4-.5,2-.3.6-.8,1.1-1.4,1.4-.6.3-1.3.5-2.1.5s-1.6-.2-2.3-.6c-.7-.4-1.2-1.1-1.6-1.9-.4-.8-.6-1.8-.6-3.1s.2-2.2.6-3,.9-1.5,1.6-1.9c.7-.4,1.4-.6,2.3-.6s.9,0,1.4.2c.4.1.8.3,1.1.6.3.2.6.5.8.9s.4.7.6,1.2h2.3c-.1-.7-.4-1.4-.7-2-.4-.6-.8-1.1-1.4-1.5-.5-.4-1.2-.8-1.9-1-.7-.2-1.4-.4-2.2-.4s-1.8.2-2.7.5c-.8.4-1.5.9-2.1,1.5s-1.1,1.5-1.4,2.4c-.3.9-.5,2-.5,3.2s.3,2.9.8,4.1c.6,1.1,1.4,2,2.4,2.6Z"/>
        <path class="cls-1" d="M56.8,194.2c.4-.5.7-1,.9-1.6l-2.1-.4c-.1.3-.3.6-.6.9-.2.2-.5.4-.9.5-.3.1-.7.2-1.1.2-.6,0-1.2-.1-1.7-.4-.5-.3-.8-.7-1.1-1.2-.2-.5-.4-1.1-.4-1.7h7.9v-.8c0-1-.1-1.9-.4-2.6-.3-.7-.6-1.3-1.1-1.7-.5-.4-1-.8-1.6-1-.6-.2-1.2-.3-1.8-.3-1,0-1.9.2-2.7.7-.8.5-1.4,1.2-1.8,2-.4.9-.6,1.9-.6,3s.2,2.2.6,3c.4.9,1,1.5,1.8,2,.8.5,1.7.7,2.8.7s1.5-.1,2.2-.4,1.2-.6,1.6-1.1ZM50.2,187.6c.2-.5.6-.9,1-1.2.5-.3,1-.4,1.6-.4s1.1.1,1.5.4c.4.3.7.6,1,1s.3.9.3,1.5h-5.8c0-.5.1-.9.3-1.3Z"/>
        <path class="cls-1" d="M65.1,195.5c.2,0,.4-.1.5-.1l-.4-1.8c0,0-.2,0-.3,0-.1,0-.3,0-.5,0s-.5,0-.7-.1c-.2,0-.4-.2-.5-.4-.1-.2-.2-.5-.2-.9v-6.1h2.3v-1.7h-2.3v-2.7h-2.2v2.7h-1.6v1.7h1.6v6.6c0,.7.2,1.2.5,1.7.3.4.7.8,1.2,1,.5.2,1,.3,1.6.3.3,0,.6,0,.9,0Z"/>
        <path class="cls-1" d="M72.5,193.6c-.1,0-.3,0-.5,0s-.5,0-.7-.1c-.2,0-.4-.2-.5-.4-.1-.2-.2-.5-.2-.9v-6.1h2.3v-1.7h-2.3v-2.7h-2.2v2.7h-1.6v1.7h1.6v6.6c0,.7.2,1.2.5,1.7.3.4.7.8,1.2,1,.5.2,1,.3,1.6.3.3,0,.6,0,.9,0s.4-.1.5-.1l-.4-1.8c0,0-.2,0-.3,0Z"/>
        <rect class="cls-1" x="75.4" y="184.3" width="2.2" height="11.1"/>
        <path class="cls-1" d="M76.5,180c-.4,0-.7.1-1,.4-.3.3-.4.6-.4.9s.1.7.4.9c.3.3.6.4,1,.4s.7-.1,1-.4c.3-.3.4-.6.4-.9s-.1-.7-.4-.9c-.3-.3-.6-.4-1-.4Z"/>
        <path class="cls-1" d="M87.6,188.6v6.8h2.2v-7.1c0-.9-.2-1.7-.5-2.3-.3-.6-.8-1.1-1.3-1.4-.6-.3-1.2-.5-2-.5s-1.5.2-2.1.5c-.5.4-1,.8-1.2,1.4h-.1v-1.8h-2.1v11.1h2.2v-6.6c0-.6.1-1.1.3-1.5s.5-.7.9-1c.4-.2.8-.3,1.3-.3.7,0,1.3.2,1.7.7.4.5.6,1.1.6,1.9Z"/>
        <path class="cls-1" d="M94.4,194.7c.7.4,1.5.6,2.4.6s1.2-.1,1.7-.3c.4-.2.8-.5,1-.8s.4-.6.6-.8h.1v2.2c0,.9-.3,1.5-.8,1.9-.5.4-1.2.6-2,.6s-1.1,0-1.5-.3-.7-.4-.9-.6c-.2-.2-.4-.5-.5-.7l-1.9.8c.2.5.5.9.9,1.3s.9.7,1.6.9c.6.2,1.4.3,2.3.3s1.8-.1,2.6-.4c.8-.3,1.4-.8,1.8-1.4.4-.6.7-1.4.7-2.4v-11.4h-2.1v1.8h-.2c-.1-.2-.3-.5-.6-.8-.2-.3-.6-.6-1-.8-.4-.2-1-.3-1.7-.3s-1.7.2-2.4.7c-.7.5-1.3,1.1-1.7,1.9s-.6,1.9-.6,3,.2,2.2.6,3c.4.8,1,1.4,1.7,1.8ZM94.7,187.9c.2-.6.5-1,1-1.4s1-.5,1.6-.5,1.2.2,1.6.5c.4.3.8.8,1,1.3.2.6.3,1.2.3,2s-.1,1.4-.3,2c-.2.5-.6,1-1,1.3-.4.3-1,.4-1.6.4s-1.2-.2-1.6-.5c-.4-.3-.8-.7-1-1.3-.2-.6-.3-1.2-.3-1.9s.1-1.4.3-1.9Z"/>
        <path class="cls-1" d="M121.3,191.3c0-.7-.1-1.2-.4-1.7-.3-.5-.6-.9-1-1.2-.4-.3-.9-.6-1.4-.8s-1-.4-1.5-.5l-1.5-.4c-.3,0-.6-.2-.9-.3-.3-.1-.6-.3-.9-.4s-.5-.4-.7-.6c-.2-.3-.3-.6-.3-.9s.1-.8.4-1.1.6-.6,1-.8c.4-.2,1-.3,1.6-.3s1.6.2,2.1.6c.6.4.9.9,1,1.6h2.2c0-.8-.3-1.5-.7-2.1-.4-.6-1.1-1.1-1.8-1.5-.8-.4-1.7-.5-2.7-.5s-1.9.2-2.7.5c-.8.4-1.4.9-1.9,1.5-.5.6-.7,1.4-.7,2.2s.3,1.9,1,2.5c.7.6,1.6,1.1,2.8,1.4l1.8.5c.5.1,1,.3,1.4.5.4.2.8.4,1,.7.2.3.4.6.4,1.1s-.1.9-.4,1.3c-.3.4-.7.6-1.2.8s-1.1.3-1.7.3-1.1,0-1.6-.3c-.5-.2-.9-.4-1.2-.8s-.5-.8-.5-1.3h-2.2c0,.9.3,1.7.8,2.3.5.6,1.1,1.2,1.9,1.5.8.4,1.8.5,2.9.5s2.2-.2,3-.6,1.4-.9,1.9-1.5c.4-.7.6-1.4.6-2.2Z"/>
        <path class="cls-1" d="M124.5,192.6c0,.7.2,1.2.5,1.7.3.4.7.8,1.2,1,.5.2,1,.3,1.6.3.3,0,.6,0,.9,0s.4-.1.5-.1l-.4-1.8c0,0-.2,0-.3,0-.1,0-.3,0-.5,0s-.5,0-.7-.1c-.2,0-.4-.2-.5-.4-.1-.2-.2-.5-.2-.9v-6.1h2.3v-1.7h-2.3v-2.7h-2.2v2.7h-1.6v1.7h1.6v6.6Z"/>
        <path class="cls-1" d="M140.1,195.4v-7.4c0-.8-.1-1.5-.4-2-.3-.5-.6-.9-1.1-1.2-.4-.3-.9-.5-1.4-.6-.5-.1-1-.2-1.4-.2-.7,0-1.3,0-1.9.3-.6.2-1.1.5-1.6.9-.5.4-.8,1-1.1,1.6l2,.5c.2-.4.4-.7.9-1.1.4-.3,1-.5,1.7-.5s1.2.2,1.6.5c.4.3.5.8.5,1.5h0c0,.3,0,.5-.3.6s-.5.2-.9.2c-.4,0-1,.1-1.6.2-.5,0-1,.2-1.6.3-.5.1-1,.3-1.4.5-.4.2-.7.6-1,1s-.4.9-.4,1.6.2,1.3.5,1.8.8.9,1.4,1.1c.6.3,1.2.4,1.9.4s1.1,0,1.6-.3.8-.4,1.1-.7c.3-.3.5-.5.6-.8h0v1.5h2.1ZM138,191.4c0,.4-.1.9-.3,1.2-.2.4-.6.7-1,.9-.4.2-.9.4-1.5.4s-1.1-.1-1.5-.4-.6-.7-.6-1.2.1-.7.3-.9.5-.4.8-.5c.3-.1.7-.2,1.1-.3.2,0,.4,0,.7,0,.3,0,.5,0,.8-.1.3,0,.5-.1.8-.2.2,0,.4-.1.4-.2v1.4Z"/>
        <path class="cls-1" d="M145.2,188.6c0-.5.1-.9.3-1.3.2-.4.5-.7.9-.9.4-.2.9-.3,1.4-.3s.4,0,.7,0,.4,0,.5,0v-2.1c-.1,0-.3,0-.4,0s-.3,0-.5,0c-.7,0-1.2.2-1.8.5s-.9.8-1.1,1.4h-.1v-1.8h-2.1v11.1h2.2v-6.8Z"/>
        <path class="cls-1" d="M156.9,195.4l-.4-1.8c0,0-.2,0-.3,0-.1,0-.3,0-.5,0s-.5,0-.7-.1c-.2,0-.4-.2-.5-.4-.1-.2-.2-.5-.2-.9v-6.1h2.3v-1.7h-2.3v-2.7h-2.2v2.7h-1.6v1.7h1.6v6.6c0,.7.2,1.2.5,1.7.3.4.7.8,1.2,1,.5.2,1,.3,1.6.3.3,0,.6,0,.9,0s.4-.1.5-.1Z"/>
        <path class="cls-1" d="M167.1,185.4c-.5-.4-1-.8-1.6-1-.6-.2-1.2-.3-1.8-.3-1,0-1.9.2-2.7.7-.8.5-1.4,1.2-1.8,2-.4.9-.6,1.9-.6,3s.2,2.2.6,3c.4.9,1,1.5,1.8,2,.8.5,1.7.7,2.8.7s1.5-.1,2.2-.4,1.2-.6,1.6-1.1c.4-.5.7-1,.9-1.6l-2.1-.4c-.1.3-.3.6-.6.9-.2.2-.5.4-.9.5-.3.1-.7.2-1.1.2-.6,0-1.2-.1-1.7-.4-.5-.3-.8-.7-1.1-1.2-.2-.5-.4-1.1-.4-1.7h7.9v-.8c0-1-.1-1.9-.4-2.6-.3-.7-.6-1.3-1.1-1.7ZM160.7,188.9c0-.5.1-.9.3-1.3.2-.5.6-.9,1-1.2.5-.3,1-.4,1.6-.4s1.1.1,1.5.4c.4.3.7.6,1,1s.3.9.3,1.5h-5.8Z"/>
        <path class="cls-1" d="M178.5,180.6v5.5h-.1c-.1-.2-.3-.5-.5-.8s-.6-.6-1-.8-1-.3-1.7-.3-1.7.2-2.4.7c-.7.5-1.3,1.1-1.7,2s-.6,1.9-.6,3.1.2,2.2.6,3.1c.4.9,1,1.5,1.7,2,.7.5,1.5.7,2.4.7s1.2-.1,1.7-.3c.4-.2.8-.5,1-.8s.4-.6.6-.8h.2v1.7h2.1v-14.9h-2.2ZM178.2,191.9c-.2.6-.6,1.1-1,1.4s-1,.5-1.6.5-1.2-.2-1.6-.5-.8-.8-1-1.4-.3-1.3-.3-2,.1-1.4.3-2c.2-.6.5-1,1-1.4.4-.3,1-.5,1.6-.5s1.2.2,1.6.5c.4.3.8.8,1,1.4.2.6.3,1.3.3,2s-.1,1.5-.3,2.1Z"/>
        <polygon class="cls-1" points="43.3 217 43.2 217 41 208.8 38.8 208.8 36.6 217 36.5 217 34.3 208.8 32 208.8 35.3 220 37.5 220 39.8 211.9 39.9 211.9 42.2 220 44.4 220 47.7 208.8 45.4 208.8 43.3 217"/>
        <rect class="cls-1" x="49.7" y="208.8" width="2.2" height="11.1"/>
        <path class="cls-1" d="M50.8,204.5c-.4,0-.7.1-1,.4-.3.3-.4.6-.4.9s.1.7.4.9c.3.3.6.4,1,.4s.7-.1,1-.4c.3-.3.4-.6.4-.9s-.1-.7-.4-.9c-.3-.3-.6-.4-1-.4Z"/>
        <path class="cls-1" d="M59.5,218.1c-.1,0-.3,0-.5,0s-.5,0-.7-.1c-.2,0-.4-.2-.5-.4-.1-.2-.2-.5-.2-.9v-6.1h2.3v-1.7h-2.3v-2.7h-2.2v2.7h-1.6v1.7h1.6v6.6c0,.7.2,1.2.5,1.7.3.4.7.8,1.2,1,.5.2,1,.3,1.6.3.3,0,.6,0,.9,0s.4-.1.5-.1l-.4-1.8c0,0-.2,0-.3,0Z"/>
        <path class="cls-1" d="M70.2,209.1c-.6-.3-1.2-.5-2-.5s-1.6.2-2.1.5-.9.8-1.2,1.4h-.1v-5.5h-2.1v14.9h2.2v-6.6c0-.6.1-1.1.3-1.5s.5-.7.9-1c.4-.2.9-.3,1.4-.3.7,0,1.3.2,1.8.7.4.5.6,1.1.6,1.9v6.8h2.2v-7.1c0-.9-.2-1.7-.5-2.3-.3-.6-.8-1.1-1.3-1.4Z"/>
        <rect class="cls-1" x="80.5" y="205.1" width="2.2" height="14.9"/>
        <path class="cls-1" d="M93.4,209.1c-.6-.3-1.2-.5-2-.5s-1.5.2-2.1.5c-.5.4-1,.8-1.2,1.4h-.1v-1.8h-2.1v11.1h2.2v-6.6c0-.6.1-1.1.3-1.5s.5-.7.9-1c.4-.2.8-.3,1.3-.3.7,0,1.3.2,1.7.7.4.5.6,1.1.6,1.9v6.8h2.2v-7.1c0-.9-.2-1.7-.5-2.3-.3-.6-.8-1.1-1.3-1.4Z"/>
        <polygon class="cls-1" points="102 217.4 101.9 217.4 99.1 208.8 96.8 208.8 100.8 220 103.1 220 107.2 208.8 104.8 208.8 102 217.4"/>
        <path class="cls-1" d="M116.9,210c-.5-.4-1-.8-1.6-1-.6-.2-1.2-.3-1.8-.3-1,0-1.9.2-2.7.7-.8.5-1.4,1.2-1.8,2-.4.9-.6,1.9-.6,3s.2,2.2.6,3c.4.9,1,1.5,1.8,2,.8.5,1.7.7,2.8.7s1.5-.1,2.2-.4,1.2-.6,1.6-1.1c.4-.5.7-1,.9-1.6l-2.1-.4c-.1.3-.3.6-.6.9-.2.2-.5.4-.9.5-.3.1-.7.2-1.1.2-.6,0-1.2-.1-1.7-.4-.5-.3-.8-.7-1.1-1.2-.2-.5-.4-1.1-.4-1.7h7.9v-.8c0-1-.1-1.9-.4-2.6-.3-.7-.6-1.3-1.1-1.7ZM110.5,213.4c0-.5.1-.9.3-1.3.2-.5.6-.9,1-1.2.5-.3,1-.4,1.6-.4s1.1.1,1.5.4c.4.3.7.6,1,1s.3.9.3,1.5h-5.8Z"/>
        <path class="cls-1" d="M126.3,213.7l-1.8-.4c-.6-.1-1.1-.3-1.3-.6-.3-.2-.4-.5-.4-.9s.2-.8.6-1.1c.4-.3.9-.4,1.5-.4s.8,0,1.1.2c.3.1.5.3.7.6.2.2.3.5.4.7l2-.3c-.2-.9-.7-1.6-1.4-2.1-.7-.5-1.6-.8-2.8-.8s-1.6.1-2.2.4c-.6.3-1.2.7-1.5,1.2s-.6,1.1-.6,1.7.2,1.4.7,2c.5.5,1.3.9,2.3,1.1l1.9.4c.5.1.9.3,1.2.5s.4.5.4.9-.2.8-.6,1.1-1,.4-1.7.4-1.2-.1-1.6-.4c-.4-.3-.7-.7-.8-1.2l-2.1.3c.2,1,.7,1.7,1.5,2.3s1.8.8,3.1.8,1.7-.1,2.4-.4,1.2-.7,1.6-1.2.6-1.1.6-1.8-.3-1.4-.8-1.9c-.5-.5-1.3-.9-2.3-1.1Z"/>
        <path class="cls-1" d="M136.5,218.1c-.1,0-.3,0-.5,0s-.5,0-.7-.1c-.2,0-.4-.2-.5-.4-.1-.2-.2-.5-.2-.9v-6.1h2.3v-1.7h-2.3v-2.7h-2.2v2.7h-1.6v1.7h1.6v6.6c0,.7.2,1.2.5,1.7.3.4.7.8,1.2,1,.5.2,1,.3,1.6.3.3,0,.6,0,.9,0s.4-.1.5-.1l-.4-1.8c0,0-.2,0-.3,0Z"/>
        <path class="cls-1" d="M140.5,204.5c-.4,0-.7.1-1,.4-.3.3-.4.6-.4.9s.1.7.4.9c.3.3.6.4,1,.4s.7-.1,1-.4c.3-.3.4-.6.4-.9s-.1-.7-.4-.9c-.3-.3-.6-.4-1-.4Z"/>
        <rect class="cls-1" x="139.4" y="208.8" width="2.2" height="11.1"/>
        <path class="cls-1" d="M151.9,209.1c-.6-.3-1.2-.5-2-.5s-1.5.2-2.1.5c-.5.4-1,.8-1.2,1.4h-.1v-1.8h-2.1v11.1h2.2v-6.6c0-.6.1-1.1.3-1.5s.5-.7.9-1c.4-.2.8-.3,1.3-.3.7,0,1.3.2,1.7.7.4.5.6,1.1.6,1.9v6.8h2.2v-7.1c0-.9-.2-1.7-.5-2.3-.3-.6-.8-1.1-1.3-1.4Z"/>
        <path class="cls-1" d="M164.2,210.6h-.2c-.1-.2-.3-.5-.6-.8-.2-.3-.6-.6-1-.8-.4-.2-1-.3-1.7-.3s-1.7.2-2.4.7c-.7.5-1.3,1.1-1.7,1.9s-.6,1.9-.6,3,.2,2.2.6,3c.4.8,1,1.4,1.7,1.8.7.4,1.5.6,2.4.6s1.2-.1,1.7-.3c.4-.2.8-.5,1-.8s.4-.6.6-.8h.1v2.2c0,.9-.3,1.5-.8,1.9-.5.4-1.2.6-2,.6s-1.1,0-1.5-.3-.7-.4-.9-.6c-.2-.2-.4-.5-.5-.7l-1.9.8c.2.5.5.9.9,1.3s.9.7,1.6.9c.6.2,1.4.3,2.3.3s1.8-.1,2.6-.4c.8-.3,1.4-.8,1.8-1.4.4-.6.7-1.4.7-2.4v-11.4h-2.1v1.8ZM163.9,216.3c-.2.5-.6,1-1,1.3-.4.3-1,.4-1.6.4s-1.2-.2-1.6-.5c-.4-.3-.8-.7-1-1.3-.2-.6-.3-1.2-.3-1.9s.1-1.4.3-1.9c.2-.6.5-1,1-1.4s1-.5,1.6-.5,1.2.2,1.6.5c.4.3.8.8,1,1.3.2.6.3,1.2.3,2s-.1,1.4-.3,2Z"/>
      </g>
    </g>
  </g>
</svg>