<?xml version="1.0" encoding="UTF-8"?>
<svg id="Layer_1" xmlns="http://www.w3.org/2000/svg" xmlns:xlink="http://www.w3.org/1999/xlink" viewBox="0 0 1179.11 424.66">
  <defs>
    <style>
      .cls-1 {
        fill: url(#linear-gradient-8);
      }

      .cls-2 {
        fill: url(#linear-gradient-7);
      }

      .cls-3 {
        fill: url(#linear-gradient-5);
      }

      .cls-4 {
        fill: url(#linear-gradient-6);
      }

      .cls-5 {
        fill: url(#linear-gradient-9);
      }

      .cls-6 {
        fill: url(#linear-gradient-4);
      }

      .cls-7 {
        fill: url(#linear-gradient-3);
      }

      .cls-8 {
        fill: url(#linear-gradient-2);
      }

      .cls-9 {
        fill: url(#radial-gradient);
      }

      .cls-10 {
        fill: url(#linear-gradient);
      }

      .cls-11 {
        fill: url(#linear-gradient-10);
      }

      .cls-12 {
        fill: url(#linear-gradient-11);
      }

      .cls-13 {
        fill: url(#linear-gradient-12);
      }

      .cls-14 {
        fill: url(#linear-gradient-13);
      }

      .cls-15 {
        fill: url(#linear-gradient-14);
      }

      .cls-16 {
        fill: url(#linear-gradient-15);
      }

      .cls-17 {
        fill: #08062a;
      }
    </style>
    <radialGradient id="radial-gradient" cx="2311.01" cy="-177.34" fx="2311.01" fy="-177.34" r="54.75" gradientTransform="translate(-2566.18 408.91) scale(1.48 1)" gradientUnits="userSpaceOnUse">
      <stop offset="0" stop-color="#008fbe" stop-opacity=".8"/>
      <stop offset=".3" stop-color="#3bafcd" stop-opacity=".51"/>
      <stop offset=".62" stop-color="#75cedc" stop-opacity=".24"/>
      <stop offset=".87" stop-color="#99e2e6" stop-opacity=".06"/>
      <stop offset="1" stop-color="#a7eaea" stop-opacity="0"/>
    </radialGradient>
    <linearGradient id="linear-gradient" x1="876.56" y1="294.98" x2="978.8" y2="294.98" gradientTransform="translate(-68.78 -68.81)" gradientUnits="userSpaceOnUse">
      <stop offset=".16" stop-color="#008fbe" stop-opacity=".2"/>
      <stop offset=".76" stop-color="#a7eaea" stop-opacity=".8"/>
      <stop offset=".94" stop-color="#fff" stop-opacity=".8"/>
    </linearGradient>
    <linearGradient id="linear-gradient-2" y1="306.42" y2="306.42" xlink:href="#linear-gradient"/>
    <linearGradient id="linear-gradient-3" x1="876.56" y1="295" x2="978.8" y2="295" gradientTransform="translate(-68.78 -68.81)" gradientUnits="userSpaceOnUse">
      <stop offset="0" stop-color="#008fbe" stop-opacity=".2"/>
      <stop offset=".58" stop-color="#08062a" stop-opacity=".55"/>
      <stop offset="1" stop-color="#a7eaea" stop-opacity=".8"/>
    </linearGradient>
    <linearGradient id="linear-gradient-4" x1="899.46" y1="289.94" x2="929.71" y2="289.94" gradientTransform="translate(-68.78 -68.81)" gradientUnits="userSpaceOnUse">
      <stop offset="0" stop-color="#008fbe" stop-opacity=".8"/>
      <stop offset=".22" stop-color="#2ca7c9" stop-opacity=".8"/>
      <stop offset=".58" stop-color="#6ecbdb" stop-opacity=".8"/>
      <stop offset=".85" stop-color="#97e1e5" stop-opacity=".8"/>
      <stop offset="1" stop-color="#a7eaea" stop-opacity=".8"/>
    </linearGradient>
    <linearGradient id="linear-gradient-5" x1="894.45" y1="293.86" x2="924.91" y2="293.86" xlink:href="#linear-gradient-4"/>
    <linearGradient id="linear-gradient-6" x1="914.35" y1="288.8" x2="936.59" y2="288.8" xlink:href="#linear-gradient-4"/>
    <linearGradient id="linear-gradient-7" x1="938.22" y1="282.71" x2="952.94" y2="282.71" xlink:href="#linear-gradient-4"/>
    <linearGradient id="linear-gradient-8" x1="900.28" y1="304.86" x2="914.68" y2="304.86" xlink:href="#linear-gradient-4"/>
    <linearGradient id="linear-gradient-9" x1="918.36" y1="285.54" x2="943.03" y2="285.54" xlink:href="#linear-gradient-4"/>
    <linearGradient id="linear-gradient-10" x1="946.43" y1="298.53" x2="960.91" y2="298.53" xlink:href="#linear-gradient-4"/>
    <linearGradient id="linear-gradient-11" x1="876.56" y1="295" x2="978.8" y2="295" xlink:href="#linear-gradient-4"/>
    <linearGradient id="linear-gradient-12" x1="939.7" y1="301.91" x2="956.92" y2="301.91" xlink:href="#linear-gradient-4"/>
    <linearGradient id="linear-gradient-13" x1="924.82" y1="308.53" x2="943.91" y2="308.53" xlink:href="#linear-gradient-4"/>
    <linearGradient id="linear-gradient-14" x1="899.01" y1="295" x2="959.97" y2="295" xlink:href="#linear-gradient-4"/>
    <linearGradient id="linear-gradient-15" x1="934.96" y1="305.78" x2="946.96" y2="305.78" xlink:href="#linear-gradient-4"/>
  </defs>
  <ellipse class="cls-9" cx="858.9" cy="231.89" rx="95.99" ry="55.74"/>
  <g>
    <path class="cls-10" d="M894.93,205.23c-20.03-11.57-52.4-11.56-72.3,0-19.9,11.56-19.8,30.31.24,41.88,20.03,11.56,52.4,11.56,72.3,0,19.9-11.56,19.79-30.31-.24-41.88"/>
    <path class="cls-17" d="M894.93,216.67c-20.03-11.57-52.4-11.56-72.3,0-19.9,11.56-19.8,30.31.24,41.88,20.03,11.56,52.4,11.56,72.3,0,19.9-11.56,19.79-30.31-.24-41.88"/>
    <path class="cls-8" d="M894.93,216.67c-20.03-11.57-52.4-11.56-72.3,0-19.9,11.56-19.8,30.31.24,41.88,20.03,11.56,52.4,11.56,72.3,0,19.9-11.56,19.79-30.31-.24-41.88"/>
    <path class="cls-7" d="M894.93,205.25c-20.03-11.57-52.4-11.56-72.3,0-19.9,11.56-19.8,30.31.24,41.88,20.03,11.56,52.4,11.56,72.3,0,19.9-11.56,19.79-30.31-.24-41.88"/>
    <g>
      <path class="cls-6" d="M853.75,227.47l4.31,2.49c.95-.51,1.91-1.04,2.87-1.58l-17.74-10.24c-.33-.19-.46-.47-.33-.73l1.37-2.98s.01-.04.02-.06l.36-.78-2.22-1.28-11.71,1.84,22.92,13.23c.05.03.1.06.14.1Z"/>
      <path class="cls-3" d="M840.66,230.54s.06.03.09.04c.14.08.24.17.3.28l6.97,4.02c2.58-1.14,5.31-2.46,8.11-3.92l-27.33-15.78-1.67,3.62-1.46,3.17,14.59,8.42c.14.03.27.07.39.13Z"/>
      <path class="cls-4" d="M862.79,227.31c1.76-1.02,3.44-2.04,5.03-3.05l-4.44-2.56h0l-15.64-9.03-.38.84s-.01.03-.02.04l-.14.31-.41.9s-.02.04-.03.06l-1.18,2.55,17.21,9.94Z"/>
      <path class="cls-2" d="M882.83,212.29c.97-1.21,1.39-2.19,1.32-2.74-.02-.23-.1-.37-.19-.46-.11.02-.24.05-.39.08-.68.14-1.73.4-3.09.84-2.59.83-6.33,2.33-11.03,4.98l6.42,3.71c3.19-2.45,5.59-4.66,6.97-6.4Z"/>
      <path class="cls-1" d="M834.42,239.56c1.93-.34,4.53-1.09,7.48-2.18,1.27-.47,2.61-.99,4-1.58l-6.06-3.5c-6.05,4.3-7.84,6.59-8.33,7.42.15.03.34.06.62.06.54.02,1.34-.05,2.3-.22Z"/>
      <path class="cls-5" d="M869.56,223.13c1.69-1.1,3.26-2.19,4.7-3.24l-16.57-9.57-8.11,1.27,15.64,9.03,4.35,2.51Z"/>
      <path class="cls-11" d="M877.65,227.81l12.32,7.11,2.16-4.71-9.85-5.69c-1.43,1.08-2.97,2.18-4.62,3.28Z"/>
      <path class="cls-12" d="M894.93,205.25c-20.03-11.57-52.4-11.56-72.3,0-19.9,11.56-19.8,30.31.24,41.88,20.03,11.56,52.4,11.56,72.3,0,19.9-11.56,19.79-30.31-.24-41.88ZM894.85,230.18l-2.92,6.36s0,.01-.01.02c0,.01-.02.02-.02.04-.03.06-.07.12-.12.17-.01.01-.04.03-.05.04-.04.04-.09.08-.14.11-.01,0-.02,0-.04.01-.1.06-.22.1-.35.14-.01,0-.02,0-.04,0,0,0,0,0-.01,0-.05.01-.09.02-.14.03l-10.29,1.61-1.75,3.74s-.01.04-.02.06c-.06.13-.18.25-.35.35-.16.09-.36.16-.59.2-.04,0-.07.01-.11.01l-14.51,2.28c-.45.07-.94,0-1.27-.2l-8.22-4.75c-5.17,2.1-9.97,3.62-14.05,4.42-2.78.55-5.25.77-7.36.55-1.19-.13-2.28-.42-3.12-.91,0,0-.02-.01-.03-.02-.01,0-.03-.02-.04-.02-.62-.36-1.34-.94-1.58-1.75-.25-.82.03-1.82,1.08-2.96.11-.29.44-.96,1.5-2.12,1.25-1.37,3.53-3.44,7.69-6.39l-14.69-8.48c-.33-.19-.46-.47-.33-.73l1.96-4.24s.01-.03.02-.04l1.94-4.21c.12-.26.47-.46.92-.53.11-.02.22-.02.34-.02l14.31-2.25c.45-.07.94,0,1.27.2l1.68.97.4-.88c.11-.26.47-.46.92-.53.06,0,.11-.02.17-.02l10.84-1.7c.45-.07.94,0,1.27.2l8.61,4.97c9.2-5.21,15.16-6.23,16.25-6.38.81-.29,1.62-.47,2.4-.57.91-.11,1.76-.09,2.52,0,1.53.18,2.63.66,3.3,1.04.85.49,1.37,1.13,1.59,1.82.23.7.19,1.46-.05,2.29-.48,1.65-1.77,3.58-3.74,5.71-1.58,1.71-3.61,3.55-6.01,5.47l10.65,6.15c.33.19.47.47.35.73Z"/>
      <path class="cls-13" d="M870.92,232l9.11,5.26,8.1-1.27-12.21-7.05c-1.58,1.02-3.25,2.04-5,3.06Z"/>
      <path class="cls-14" d="M856.04,239.52l7.38,4.26,11.71-1.84-10.89-6.29c-2.77,1.42-5.53,2.71-8.2,3.86Z"/>
      <path class="cls-15" d="M881.04,222.96s.06-.05.09-.07c.56-.43,1.1-.86,1.61-1.29,3.64-3,6.23-5.77,7.51-7.98.86-1.47,1.11-2.69.83-3.5-.16-.46-.45-.79-.87-1.03-.29-.17-.77-.39-1.36-.52-.59-.13-1.25-.2-2.07-.11-.13.02-.26.04-.4.06.24.3.36.63.39.97.04.57-.15,1.18-.49,1.85-.7,1.33-2.08,2.91-4.03,4.71-2.8,2.57-6.79,5.57-11.63,8.69-.02.01-.04.02-.05.04-1.87,1.2-3.86,2.42-5.96,3.64-.27.16-.55.32-.82.47-.02.01-.04.03-.07.04-.03.02-.06.03-.08.04-4.65,2.66-9.26,5.01-13.53,6.91-.46.21-.91.4-1.36.6-.03.02-.07.03-.1.05-3.99,1.73-7.62,3.05-10.67,3.86-2.29.6-4.23.95-5.95.92-.5-.01-.99-.07-1.46-.17-.36.57-.37,1-.28,1.31.13.44.5.73.89.95.42.24.98.41,1.78.5.8.09,1.83.08,3.04-.04,2.42-.23,5.54-.93,9.04-2.02,7.02-2.19,15.58-5.99,23.92-10.83,4.65-2.7,8.73-5.44,12.09-8.04Z"/>
      <path class="cls-16" d="M866.18,234.64l6.38,3.69c.06.02.11.05.17.08l4.26,2.46,1.19-2.54-9.12-5.26c-.96.54-1.92,1.07-2.88,1.58Z"/>
    </g>
  </g>
</svg>