<?xml version="1.0" encoding="UTF-8"?>
<svg xmlns="http://www.w3.org/2000/svg" version="1.1" viewBox="0 0 1179.1 424.7">
  <defs>
    <style>
      .cls-1 {
        fill: #08062a;
      }

      .cls-2 {
        fill: #fff;
      }
    </style>
  </defs>
  <!-- Generator: Adobe Illustrator 28.6.0, SVG Export Plug-In . SVG Version: 1.2.0 Build 709)  -->
  <g>
    <g id="Layer_1">
      <path class="cls-2" d="M493.7,242.4h-93c-5,0-9-4-9-9v-59.9c0-5,4-9,9-9h93v77.9h0Z"/>
      <path class="cls-2" d="M489.1,164.5v145c0,1.3,1,2.3,2.3,2.3s2.3-1,2.3-2.3v-145c0-1.3-1-2.3-2.3-2.3s-2.3,1-2.3,2.3h0Z"/>
      <g>
        <path class="cls-1" d="M421,191h3.7c0,.8-.2,1.4-.5,2-.3.6-.8,1.1-1.4,1.4-.6.3-1.3.5-2.1.5s-1.6-.2-2.3-.6c-.7-.4-1.2-1.1-1.6-1.9-.4-.8-.6-1.8-.6-3.1s.2-2.2.6-3,.9-1.5,1.6-1.9c.7-.4,1.4-.6,2.3-.6s.9,0,1.4.2c.4.1.8.3,1.1.6.3.2.6.5.8.9s.4.7.6,1.2h2.3c-.1-.7-.4-1.4-.7-2-.4-.6-.8-1.1-1.4-1.5-.5-.4-1.2-.8-1.9-1-.7-.2-1.4-.4-2.2-.4s-1.8.2-2.7.5c-.8.4-1.5.9-2.1,1.5s-1.1,1.5-1.4,2.4c-.3.9-.5,2-.5,3.2s.3,2.9.8,4.1c.6,1.1,1.4,2,2.4,2.6,1,.6,2.2.9,3.5.9s2.3-.2,3.2-.7,1.7-1.2,2.2-2.1.8-2,.8-3.2v-1.7h-5.8v1.8Z"/>
        <path class="cls-1" d="M437,186.1c-.8-.5-1.7-.7-2.7-.7s-2,.2-2.7.7-1.4,1.2-1.8,2c-.4.9-.6,1.9-.6,3s.2,2.2.6,3,1,1.5,1.8,2,1.7.7,2.7.7,2-.2,2.7-.7,1.4-1.1,1.8-2,.6-1.9.6-3-.2-2.2-.6-3c-.4-.9-1-1.5-1.8-2ZM436.9,193.1c-.2.6-.5,1.1-1,1.4s-1,.5-1.7.5-1.2-.2-1.7-.5c-.4-.4-.8-.8-1-1.4-.2-.6-.3-1.2-.3-2s.1-1.4.3-2c.2-.6.5-1.1,1-1.4.4-.4,1-.5,1.7-.5s1.2.2,1.7.5c.4.4.8.8,1,1.4.2.6.3,1.3.3,2s-.1,1.4-.3,2Z"/>
        <rect class="cls-1" x="441.8" y="185.6" width="2.2" height="11.1"/>
        <path class="cls-1" d="M442.9,183.9c.4,0,.7-.1,1-.4.3-.3.4-.6.4-.9s-.1-.7-.4-.9c-.3-.3-.6-.4-1-.4s-.7.1-1,.4c-.3.3-.4.6-.4.9s.1.7.4.9c.3.3.6.4,1,.4Z"/>
        <path class="cls-1" d="M454.4,185.9c-.6-.3-1.2-.5-2-.5s-1.5.2-2.1.5c-.5.4-1,.8-1.2,1.4h-.1v-1.8h-2.1v11.1h2.2v-6.6c0-.6.1-1.1.3-1.5s.5-.7.9-1c.4-.2.8-.3,1.3-.3.7,0,1.3.2,1.7.7.4.5.6,1.1.6,1.9v6.8h2.2v-7.1c0-.9-.2-1.7-.5-2.3-.3-.6-.8-1.1-1.3-1.4Z"/>
        <path class="cls-1" d="M466.4,200.7c.8-.3,1.4-.8,1.8-1.4.4-.6.7-1.4.7-2.4v-11.4h-2.1v1.8h-.2c-.1-.2-.3-.5-.6-.8-.2-.3-.6-.6-1-.8-.4-.2-1-.3-1.7-.3s-1.7.2-2.4.7c-.7.5-1.3,1.1-1.7,1.9s-.6,1.9-.6,3,.2,2.2.6,3c.4.8,1,1.4,1.7,1.8.7.4,1.5.6,2.4.6s1.2-.1,1.7-.3c.4-.2.8-.5,1-.8s.4-.6.6-.8h.1v2.2c0,.9-.3,1.5-.8,1.9-.5.4-1.2.6-2,.6s-1.1,0-1.5-.3-.7-.4-.9-.6c-.2-.2-.4-.5-.5-.7l-1.9.8c.2.5.5.9.9,1.3s.9.7,1.6.9c.6.2,1.4.3,2.3.3s1.8-.1,2.6-.4ZM466.3,193c-.2.5-.6,1-1,1.3-.4.3-1,.4-1.6.4s-1.2-.2-1.6-.5c-.4-.3-.8-.7-1-1.3-.2-.6-.3-1.2-.3-1.9s.1-1.4.3-1.9c.2-.6.5-1,1-1.4s1-.5,1.6-.5,1.2.2,1.6.5c.4.3.8.8,1,1.3.2.6.3,1.2.3,2s-.1,1.4-.3,2Z"/>
        <path class="cls-1" d="M422.6,207c-.8-.4-1.7-.6-2.9-.6h-5.3v14.9h2.2v-5.2h3c1.2,0,2.1-.2,2.9-.6.8-.4,1.3-1,1.7-1.7.4-.7.6-1.5.6-2.5s-.2-1.7-.6-2.5c-.4-.7-.9-1.3-1.7-1.7ZM422.3,212.7c-.2.4-.5.8-1,1-.5.3-1,.4-1.8.4h-2.8v-5.8h2.8c.7,0,1.3.1,1.8.4.5.2.8.6,1,1,.2.4.3.9.3,1.5s-.1,1.1-.3,1.5Z"/>
        <path class="cls-1" d="M434.4,216.6c0,.6-.1,1.2-.4,1.6-.3.4-.6.7-1,.9-.4.2-.8.3-1.2.3-.7,0-1.2-.2-1.6-.7-.4-.4-.6-1.1-.6-1.8v-6.8h-2.2v7.1c0,.9.2,1.7.5,2.3.3.6.7,1.1,1.3,1.4.5.3,1.2.5,1.9.5s1.5-.2,2.1-.6c.6-.4,1-.9,1.2-1.5h.1v1.9h2.1v-11.1h-2.2v6.5Z"/>
        <path class="cls-1" d="M447.5,210.6c-.7-.5-1.5-.7-2.4-.7s-1.2.1-1.7.3c-.4.2-.7.5-1,.8s-.4.6-.5.8h-.1v-5.5h-2.2v14.9h2.1v-1.7h.2c.1.2.3.5.6.8s.6.6,1,.8c.4.2,1,.3,1.7.3s1.7-.2,2.4-.7c.7-.5,1.3-1.1,1.7-2,.4-.9.6-1.9.6-3.1s-.2-2.2-.6-3.1c-.4-.9-1-1.5-1.7-2ZM447.3,217.7c-.2.6-.6,1.1-1,1.4s-1,.5-1.6.5-1.2-.2-1.6-.5c-.4-.3-.8-.8-1-1.4-.2-.6-.3-1.3-.3-2.1s.1-1.5.3-2c.2-.6.5-1,1-1.4.4-.3,1-.5,1.6-.5s1.2.2,1.6.5c.4.3.8.8,1,1.4.2.6.3,1.2.3,2s-.1,1.4-.3,2Z"/>
        <rect class="cls-1" x="452.2" y="206.4" width="2.2" height="14.9"/>
        <rect class="cls-1" x="457.3" y="210.1" width="2.2" height="11.1"/>
        <path class="cls-1" d="M458.4,205.8c-.4,0-.7.1-1,.4-.3.3-.4.6-.4.9s.1.7.4.9c.3.3.6.4,1,.4s.7-.1,1-.4c.3-.3.4-.6.4-.9s-.1-.7-.4-.9c-.3-.3-.6-.4-1-.4Z"/>
        <path class="cls-1" d="M469.1,218.7c-.2.3-.5.5-.8.7-.3.2-.7.2-1.1.2-.6,0-1.1-.2-1.6-.5-.5-.3-.8-.8-1-1.4s-.4-1.3-.4-2.1.1-1.5.4-2.1c.3-.6.6-1,1.1-1.3.5-.3,1-.5,1.6-.5s1.2.2,1.7.6c.4.4.7.8.8,1.3h2.1c0-.7-.3-1.4-.7-2-.4-.6-.9-1-1.6-1.3-.7-.3-1.4-.5-2.3-.5s-2,.2-2.7.7-1.4,1.2-1.8,2c-.4.9-.6,1.9-.6,3s.2,2.1.6,3c.4.9,1,1.5,1.8,2,.8.5,1.7.7,2.8.7s1.6-.2,2.3-.5c.7-.3,1.2-.8,1.6-1.3.4-.6.6-1.2.7-1.9h-2.1c0,.4-.3.7-.5,1Z"/>
      </g>
    </g>
  </g>
</svg>