<?xml version="1.0" encoding="UTF-8"?>
<svg id="Layer_1" xmlns="http://www.w3.org/2000/svg" xmlns:xlink="http://www.w3.org/1999/xlink" viewBox="0 0 1179.11 424.66">
  <defs>
    <style>
      .cls-1 {
        fill: url(#linear-gradient-8);
      }

      .cls-2 {
        fill: url(#linear-gradient-7);
      }

      .cls-3 {
        fill: url(#linear-gradient-5);
      }

      .cls-4 {
        fill: url(#linear-gradient-6);
      }

      .cls-5 {
        fill: url(#linear-gradient-9);
      }

      .cls-6 {
        fill: url(#linear-gradient-4);
      }

      .cls-7 {
        fill: url(#linear-gradient-3);
      }

      .cls-8 {
        fill: url(#linear-gradient-2);
      }

      .cls-9 {
        fill: url(#radial-gradient);
      }

      .cls-10 {
        fill: url(#linear-gradient);
      }

      .cls-11 {
        fill: #08062a;
      }
    </style>
    <radialGradient id="radial-gradient" cx="2184.64" cy="379.63" fx="2184.64" fy="379.63" r="54.75" gradientTransform="translate(-2633.63 -68.77) scale(1.48 1)" gradientUnits="userSpaceOnUse">
      <stop offset="0" stop-color="#008fbe" stop-opacity=".8"/>
      <stop offset=".3" stop-color="#3bafcd" stop-opacity=".51"/>
      <stop offset=".62" stop-color="#75cedc" stop-opacity=".24"/>
      <stop offset=".87" stop-color="#99e2e6" stop-opacity=".06"/>
      <stop offset="1" stop-color="#a7eaea" stop-opacity="0"/>
    </radialGradient>
    <linearGradient id="linear-gradient" x1="484.35" y1="374.22" x2="586.59" y2="374.22" gradientTransform="translate(68.77 -68.77)" gradientUnits="userSpaceOnUse">
      <stop offset=".16" stop-color="#008fbe" stop-opacity=".2"/>
      <stop offset=".76" stop-color="#a7eaea" stop-opacity=".8"/>
      <stop offset=".94" stop-color="#fff" stop-opacity=".8"/>
    </linearGradient>
    <linearGradient id="linear-gradient-2" y1="385.66" y2="385.66" xlink:href="#linear-gradient"/>
    <linearGradient id="linear-gradient-3" x1="484.35" y1="374.24" x2="586.59" y2="374.24" gradientTransform="translate(68.77 -68.77)" gradientUnits="userSpaceOnUse">
      <stop offset="0" stop-color="#008fbe" stop-opacity=".2"/>
      <stop offset=".58" stop-color="#08062a" stop-opacity=".55"/>
      <stop offset="1" stop-color="#a7eaea" stop-opacity=".8"/>
    </linearGradient>
    <linearGradient id="linear-gradient-4" x1="546.18" y1="385.3" x2="552.98" y2="385.3" gradientTransform="translate(68.77 -68.77)" gradientUnits="userSpaceOnUse">
      <stop offset="0" stop-color="#008fbe" stop-opacity=".8"/>
      <stop offset=".22" stop-color="#2ca7c9" stop-opacity=".8"/>
      <stop offset=".58" stop-color="#6ecbdb" stop-opacity=".8"/>
      <stop offset=".85" stop-color="#97e1e5" stop-opacity=".8"/>
      <stop offset="1" stop-color="#a7eaea" stop-opacity=".8"/>
    </linearGradient>
    <linearGradient id="linear-gradient-5" x1="533.69" y1="390.62" x2="542.72" y2="390.62" xlink:href="#linear-gradient-4"/>
    <linearGradient id="linear-gradient-6" x1="538.67" y1="386.11" x2="549.56" y2="386.11" xlink:href="#linear-gradient-4"/>
    <linearGradient id="linear-gradient-7" x1="529.95" y1="386.56" x2="546.14" y2="386.56" xlink:href="#linear-gradient-4"/>
    <linearGradient id="linear-gradient-8" x1="507.58" y1="371.06" x2="563.36" y2="371.06" xlink:href="#linear-gradient-4"/>
    <linearGradient id="linear-gradient-9" x1="484.35" y1="374.24" x2="586.59" y2="374.24" xlink:href="#linear-gradient-4"/>
  </defs>
  <ellipse class="cls-9" cx="604.24" cy="311.17" rx="95.99" ry="55.74"/>
  <g>
    <path class="cls-10" d="M640.27,284.52c-20.03-11.57-52.4-11.56-72.3,0-19.9,11.56-19.8,30.31.24,41.88,20.03,11.56,52.4,11.56,72.3,0,19.9-11.56,19.79-30.31-.24-41.88"/>
    <path class="cls-11" d="M640.27,295.95c-20.03-11.57-52.4-11.56-72.3,0-19.9,11.56-19.8,30.31.24,41.88,20.03,11.56,52.4,11.56,72.3,0,19.9-11.56,19.79-30.31-.24-41.88"/>
    <path class="cls-8" d="M640.27,295.95c-20.03-11.57-52.4-11.56-72.3,0-19.9,11.56-19.8,30.31.24,41.88,20.03,11.56,52.4,11.56,72.3,0,19.9-11.56,19.79-30.31-.24-41.88"/>
    <path class="cls-7" d="M640.27,284.53c-20.03-11.57-52.4-11.56-72.3,0-19.9,11.56-19.8,30.31.24,41.88,20.03,11.56,52.4,11.56,72.3,0,19.9-11.56,19.79-30.31-.24-41.88"/>
    <g>
      <polygon class="cls-6" points="614.95 315.48 620.18 318.5 621.75 317.58 616.53 314.57 614.95 315.48"/>
      <polygon class="cls-3" points="611.49 323.54 604.03 319.24 603.17 319.74 602.45 320.16 609.91 324.46 611.49 323.54"/>
      <polygon class="cls-4" points="607.44 315.11 616.75 320.49 618.33 319.57 609.01 314.19 607.44 315.11"/>
      <polygon class="cls-2" points="600.29 313.12 598.72 314.04 604.95 317.63 613.33 322.48 614.91 321.56 600.29 313.12"/>
      <path class="cls-1" d="M623.83,290.83c-3.22-1.86-7.23-3.2-12-4-4.06-.67-8.01-.83-11.82-.5-3.81.33-7.5,1.15-11.03,2.49-1.73.65-3.29,1.39-4.68,2.2-6.19,3.6-9.03,8.62-7.58,13.86,1,3.57,3.8,6.65,7.82,8.97,4.47,2.58,10.46,4.23,17.21,4.57l.43-.25-6.24-3.6c-.24-.14-.38-.33-.38-.53,0-.2.14-.4.38-.54l3.42-1.99c.25-.14.58-.22.93-.22s.68.08.92.22l4.38,2.53,2.5-1.45c.25-.14.58-.22.92-.22s.69.08.93.22l3.17,1.83,2.5-1.45c.24-.14.57-.22.92-.22s.69.08.93.22l3.84,2.22c.92-.41,1.8-.86,2.64-1.35.59-.34,1.17-.71,1.72-1.1,3.61-2.51,5.42-4.89,6.21-8.13.75-3.23,0-6.12-2.39-9.07-1.49-1.83-3.37-3.4-5.63-4.7ZM622.84,295.13c-.23.16-.56.27-.91.28l-10.34.51-.55,4.64c-.04.37-.54.67-1.17.7l-4.53.24,4.24,4.84c.28.31.15.68-.31.91-.44.23-1.11.25-1.6.05l-10.97-4.42,1.85,4.71c.09.23-.02.47-.28.65-.26.18-.65.28-1.06.27l-3.83-.09,1.47,3.15c.12.25,0,.52-.3.71-.3.19-.75.28-1.19.23l-3.95-.42-.05,1.22c-.02.42-.62.74-1.34.73-.35,0-.66-.09-.89-.22-.25-.14-.4-.34-.39-.56l.1-2.1c.01-.22.19-.43.48-.57.3-.14.68-.2,1.06-.15l3.42.37-1.4-2.98c-.11-.23-.02-.48.24-.67.26-.19.65-.29,1.07-.28l3.91.09-2.21-5.65c-.12-.31.09-.62.54-.79.45-.17,1.03-.17,1.48,0l9.47,3.82-2.76-3.14c-.19-.22-.19-.49.02-.71.21-.22.59-.36,1.02-.39l5.33-.29.55-4.65c.04-.37.55-.67,1.19-.7l10.07-.5-.51-2.01c-.1-.41.39-.8,1.1-.85.42-.04.83.05,1.11.21.19.11.33.26.37.43l.72,2.8c.05.21-.05.41-.27.58Z"/>
      <path class="cls-5" d="M640.27,284.53c-20.03-11.57-52.4-11.56-72.3,0s-19.8,30.31.24,41.88c20.03,11.56,52.4,11.56,72.3,0,19.9-11.56,19.79-30.31-.24-41.88ZM634.44,304.81c-.81,3.47-2.91,6.21-6.78,8.9-.6.42-1.23.81-1.88,1.19-.84.49-1.71.94-2.62,1.36l1.37.79c.24.14.38.34.38.53,0,.2-.13.39-.37.53l-3.43,1.99-3.42,1.99-3.42,1.99-3.42,1.99c-.24.14-.58.22-.93.22-.34,0-.68-.08-.92-.22l-9.31-5.37c-.24-.14-.39-.34-.39-.53,0-.13.06-.26.17-.37-6.52-.58-12.33-2.3-16.76-4.87-4.41-2.55-7.47-5.92-8.56-9.8-1.59-5.7,1.53-11.24,8.3-15.18,1.52-.88,3.24-1.69,5.11-2.39,3.82-1.44,7.87-2.35,12.07-2.72,4.19-.36,8.53-.18,12.92.55,5.15.86,9.58,2.33,13.13,4.38,2.49,1.44,4.55,3.16,6.15,5.13,2.59,3.19,3.45,6.44,2.61,9.92Z"/>
    </g>
  </g>
</svg>