<?xml version="1.0" encoding="utf-8"?>
<!-- Generator: Adobe Illustrator 27.7.0, SVG Export Plug-In . SVG Version: 6.00 Build 0)  -->
<svg version="1.1" id="Layer_1" xmlns="http://www.w3.org/2000/svg" xmlns:xlink="http://www.w3.org/1999/xlink" x="0px" y="0px"
	 viewBox="0 0 290.9 30" style="enable-background:new 0 0 290.9 30;" xml:space="preserve">
<style type="text/css">
	.st0{fill:#08062A;}
</style>
<path class="st0" d="M9.9,5.8c0,1.2-0.2,2.2-0.6,3.1s-1,1.5-1.8,2c-0.8,0.5-1.6,0.7-2.6,0.7s-1.8-0.2-2.5-0.7
	c-0.8-0.5-1.3-1.1-1.8-2S0,6.9,0,5.8s0.2-2.2,0.6-3.1s1-1.5,1.8-2C3.1,0.2,4,0,4.9,0s1.8,0.2,2.6,0.7c0.8,0.5,1.3,1.1,1.8,2
	S9.9,4.6,9.9,5.8z M8.6,5.8c0-1-0.2-1.8-0.5-2.5C7.8,2.7,7.3,2.1,6.8,1.8S5.6,1.3,4.9,1.3S3.7,1.5,3.1,1.8c-0.5,0.3-1,0.8-1.3,1.5
	C1.5,4,1.3,4.8,1.3,5.8s0.2,1.8,0.5,2.5c0.3,0.7,0.8,1.2,1.3,1.5c0.5,0.4,1.2,0.5,1.8,0.5s1.3-0.2,1.8-0.5c0.6-0.3,1-0.9,1.3-1.5
	C8.4,7.6,8.6,6.7,8.6,5.8z M4.5,7.9H6l1.2,1.6l0.3,0.4l1.9,2.5H7.9l-1.2-1.6l-0.3-0.4L4.5,7.9L4.5,7.9z"/>
<path class="st0" d="M26,0.2h1.4v7.4c0,0.8-0.2,1.4-0.5,2c-0.4,0.6-0.9,1.1-1.5,1.4s-1.4,0.5-2.3,0.5s-1.6-0.2-2.3-0.5
	s-1.2-0.8-1.5-1.4s-0.5-1.3-0.5-2V0.2H20v7.3c0,0.6,0.1,1,0.4,1.4s0.6,0.8,1,1s1,0.4,1.6,0.4s1.2-0.1,1.6-0.4s0.8-0.6,1-1
	S26,8,26,7.5L26,0.2C26,0.2,26,0.2,26,0.2z"/>
<path class="st0" d="M36.5,11.4V0.2h6.8v1.2h-5.4v3.8h5v1.2h-5v3.8h5.5v1.2L36.5,11.4L36.5,11.4L36.5,11.4z"/>
<path class="st0" d="M58.3,3c-0.1-0.5-0.3-1-0.8-1.3c-0.5-0.3-1-0.5-1.7-0.5c-0.5,0-0.9,0.1-1.3,0.2s-0.7,0.4-0.9,0.7
	c-0.2,0.3-0.3,0.6-0.3,1c0,0.3,0.1,0.5,0.2,0.8C53.6,4,53.8,4.2,54,4.4c0.2,0.1,0.5,0.2,0.7,0.3c0.2,0.1,0.5,0.2,0.7,0.2l1.1,0.3
	c0.3,0.1,0.6,0.2,1,0.3c0.4,0.1,0.7,0.3,1,0.6c0.3,0.2,0.6,0.5,0.8,0.9c0.2,0.4,0.3,0.8,0.3,1.3c0,0.6-0.2,1.1-0.5,1.6
	c-0.3,0.5-0.8,0.9-1.4,1.2s-1.3,0.4-2.2,0.4c-0.8,0-1.5-0.1-2.1-0.4s-1-0.6-1.4-1.1c-0.3-0.5-0.5-1-0.6-1.6h1.4
	c0,0.4,0.2,0.8,0.4,1.1c0.2,0.3,0.6,0.5,1,0.6s0.8,0.2,1.2,0.2c0.5,0,1-0.1,1.4-0.2s0.7-0.4,1-0.7c0.2-0.3,0.4-0.7,0.4-1.1
	c0-0.4-0.1-0.7-0.3-0.9c-0.2-0.2-0.5-0.4-0.8-0.6s-0.7-0.3-1.1-0.4l-1.4-0.4c-0.9-0.2-1.6-0.6-2.1-1.1c-0.5-0.5-0.8-1.1-0.8-1.8
	c0-0.6,0.2-1.2,0.5-1.6c0.3-0.5,0.8-0.8,1.4-1.1S55.1,0,55.8,0s1.4,0.1,1.9,0.4c0.6,0.3,1,0.6,1.3,1.1c0.3,0.4,0.5,1,0.5,1.5L58.3,3
	L58.3,3L58.3,3z"/>
<path class="st0" d="M67.8,1.4V0.2h8.4v1.2h-3.5v10h-1.4v-10H67.8L67.8,1.4L67.8,1.4z"/>
<path class="st0" d="M86.1,0.2v11.2h-1.4V0.2H86.1z"/>
<path class="st0" d="M104.8,5.8c0,1.2-0.2,2.2-0.6,3.1s-1,1.5-1.8,2c-0.8,0.5-1.6,0.7-2.6,0.7s-1.8-0.2-2.6-0.7
	c-0.8-0.5-1.3-1.1-1.8-2s-0.6-1.9-0.6-3.1s0.2-2.2,0.6-3.1s1-1.5,1.8-2C98,0.2,98.8,0,99.8,0s1.8,0.2,2.6,0.7c0.8,0.5,1.3,1.1,1.8,2
	S104.8,4.6,104.8,5.8z M103.4,5.8c0-1-0.2-1.8-0.5-2.5c-0.3-0.7-0.8-1.2-1.3-1.5c-0.6-0.3-1.2-0.5-1.8-0.5S98.5,1.5,98,1.8
	c-0.6,0.3-1,0.8-1.3,1.5c-0.3,0.7-0.5,1.5-0.5,2.5s0.2,1.8,0.5,2.5C97,8.9,97.4,9.4,98,9.7c0.6,0.4,1.2,0.5,1.8,0.5s1.3-0.2,1.8-0.5
	c0.6-0.3,1-0.9,1.3-1.5C103.3,7.6,103.4,6.7,103.4,5.8z"/>
<path class="st0" d="M122.4,0.2v11.2h-1.3L115,2.6h-0.1v8.8h-1.4V0.2h1.3l6.1,8.8h0.1V0.2H122.4z"/>
<path class="st0" d="M47.4,19.8v-1.2h8.4v1.2h-3.5v10h-1.4v-10H47.4L47.4,19.8L47.4,19.8z"/>
<path class="st0" d="M73.4,24.2c0,1.2-0.2,2.2-0.6,3.1c-0.4,0.9-1,1.5-1.8,2S69.4,30,68.4,30s-1.8-0.2-2.6-0.7
	c-0.8-0.5-1.3-1.1-1.8-2s-0.6-1.9-0.6-3.1s0.2-2.2,0.6-3.1c0.4-0.9,1-1.5,1.8-2s1.6-0.7,2.6-0.7s1.8,0.2,2.6,0.7
	c0.8,0.5,1.3,1.1,1.8,2S73.4,23,73.4,24.2z M72.1,24.2c0-1-0.2-1.8-0.5-2.5c-0.3-0.7-0.8-1.2-1.3-1.5c-0.6-0.3-1.2-0.5-1.8-0.5
	s-1.3,0.2-1.8,0.5c-0.6,0.4-1,0.9-1.3,1.5c-0.3,0.7-0.5,1.5-0.5,2.5s0.2,1.8,0.5,2.5c0.3,0.7,0.8,1.2,1.3,1.5
	c0.6,0.4,1.2,0.5,1.8,0.5s1.3-0.2,1.8-0.5c0.6-0.3,1-0.9,1.3-1.5C71.9,26,72.1,25.2,72.1,24.2z"/>
<path class="st0" d="M85.6,29.8h-3.4V18.6h3.6c1.1,0,2,0.2,2.8,0.7c0.8,0.4,1.4,1.1,1.8,1.9c0.4,0.8,0.6,1.8,0.6,3s-0.2,2.2-0.6,3
	s-1,1.5-1.8,1.9S86.7,29.8,85.6,29.8L85.6,29.8L85.6,29.8z M83.5,28.6h2c0.9,0,1.7-0.2,2.3-0.5s1.1-0.9,1.4-1.5
	c0.3-0.7,0.4-1.5,0.4-2.4s-0.2-1.7-0.4-2.3c-0.3-0.6-0.7-1.2-1.3-1.5s-1.3-0.5-2.2-0.5h-2.2L83.5,28.6L83.5,28.6L83.5,28.6z"/>
<path class="st0" d="M99.6,29.8h-1.4l4.1-11.2h1.4l4.1,11.2h-1.4l-3.3-9.4h-0.1L99.6,29.8L99.6,29.8z M100.1,25.5h5.7v1.2h-5.7V25.5
	z"/>
<path class="st0" d="M113.9,18.6h1.6l3.1,5.2h0.1l3.1-5.2h1.6l-4,6.6v4.6h-1.4v-4.6L113.9,18.6L113.9,18.6z"/>
<path class="st0" d="M162.1,8.2l1.9,2.7c0.2,0.3,0.1,0.5-0.3,0.5h-1.7c-0.2,0-0.4-0.1-0.5-0.3l-1.7-2.7H156v2.6
	c0,0.3-0.1,0.4-0.4,0.4h-1.4c-0.3,0-0.4-0.1-0.4-0.4V0.5c0-0.3,0.1-0.4,0.4-0.4h5.8c3.3,0,4.5,1.4,4.5,4.1v0.2
	C164.5,6.3,163.9,7.7,162.1,8.2L162.1,8.2z M162.2,4.2c0-1.7-0.7-2-2.5-2H156v4.1h3.8c1.7,0,2.5-0.3,2.5-1.9V4.2z"/>
<path class="st0" d="M171,10.9V0.5c0-0.3,0.1-0.4,0.4-0.4h8.7c0.3,0,0.4,0.1,0.4,0.4v1.3c0,0.3-0.1,0.4-0.4,0.4h-6.9v2.5h4.5
	c0.3,0,0.4,0.1,0.4,0.4v1.2c0,0.3-0.1,0.4-0.4,0.4h-4.5v2.6h6.9c0.3,0,0.4,0.1,0.4,0.4V11c0,0.3-0.1,0.4-0.4,0.4h-8.7
	C171.2,11.4,171,11.2,171,10.9L171,10.9L171,10.9z"/>
<path class="st0" d="M188.1,11l-3.5-10.5c-0.1-0.3,0-0.4,0.3-0.4h1.5c0.2,0,0.4,0.1,0.4,0.3l2.4,8l2.4-8c0.1-0.2,0.2-0.3,0.4-0.3
	h1.5c0.2,0,0.4,0.1,0.4,0.3l2.4,8l2.5-8c0.1-0.2,0.2-0.3,0.4-0.3h1.5c0.3,0,0.4,0.2,0.3,0.5L197.8,11c-0.1,0.2-0.2,0.3-0.5,0.3h-1.6
	c-0.2,0-0.4-0.1-0.4-0.3L193,3.2l-2.4,7.8c-0.1,0.2-0.2,0.3-0.4,0.3h-1.6C188.4,11.3,188.2,11.2,188.1,11z"/>
<path class="st0" d="M214.2,8.2l1.9,2.7c0.2,0.3,0.1,0.5-0.3,0.5h-1.7c-0.2,0-0.4-0.1-0.5-0.3l-1.7-2.7H208v2.6
	c0,0.3-0.1,0.4-0.4,0.4h-1.4c-0.3,0-0.4-0.1-0.4-0.4V0.5c0-0.3,0.1-0.4,0.4-0.4h5.8c3.3,0,4.5,1.4,4.5,4.1v0.2
	C216.5,6.3,215.9,7.7,214.2,8.2L214.2,8.2z M214.3,4.2c0-1.7-0.7-2-2.5-2H208v4.1h3.8c1.7,0,2.5-0.3,2.5-1.9V4.2z"/>
<path class="st0" d="M221.7,10.9V0.5c0-0.3,0.1-0.4,0.4-0.4h1.4c0.3,0,0.4,0.1,0.4,0.4v10.5c0,0.3-0.1,0.4-0.4,0.4h-1.4
	C221.8,11.3,221.7,11.2,221.7,10.9z"/>
<path class="st0" d="M232.5,10.9V2.2h-3.4c-0.3,0-0.4-0.1-0.4-0.4V0.5c0-0.3,0.1-0.4,0.4-0.4h9.1c0.3,0,0.4,0.1,0.4,0.4v1.3
	c0,0.3-0.1,0.4-0.4,0.4h-3.4v8.7c0,0.3-0.1,0.4-0.4,0.4h-1.4C232.7,11.3,232.5,11.2,232.5,10.9L232.5,10.9z"/>
<path class="st0" d="M243.4,10.9V0.5c0-0.3,0.1-0.4,0.4-0.4h8.7c0.3,0,0.4,0.1,0.4,0.4v1.3c0,0.3-0.1,0.4-0.4,0.4h-6.9v2.5h4.5
	c0.3,0,0.4,0.1,0.4,0.4v1.2c0,0.3-0.1,0.4-0.4,0.4h-4.5v2.6h6.9c0.3,0,0.4,0.1,0.4,0.4V11c0,0.3-0.1,0.4-0.4,0.4h-8.7
	C243.5,11.4,243.4,11.2,243.4,10.9L243.4,10.9L243.4,10.9z"/>
<path class="st0" d="M157.6,29.5v-8.7h-3.4c-0.3,0-0.4-0.1-0.4-0.4v-1.3c0-0.3,0.1-0.4,0.4-0.4h9.1c0.3,0,0.4,0.1,0.4,0.4v1.3
	c0,0.3-0.1,0.4-0.4,0.4h-3.4v8.7c0,0.3-0.1,0.4-0.4,0.4H158C157.8,29.9,157.6,29.8,157.6,29.5L157.6,29.5z"/>
<path class="st0" d="M168.1,26v-3.5c0-2.4,1.1-3.9,3.8-3.9h4.1c2.6,0,3.8,1.5,3.8,3.9V26c0,2.4-1.1,3.9-3.8,3.9h-4.1
	C169.3,29.9,168.1,28.4,168.1,26z M176,27.8c1.1,0,1.6-0.3,1.6-1.7v-3.6c0-1.4-0.4-1.7-1.6-1.7h-4.1c-1.1,0-1.6,0.3-1.6,1.7v3.6
	c0,1.4,0.5,1.7,1.6,1.7H176z"/>
<path class="st0" d="M185.1,29.5V19.1c0-0.3,0.1-0.4,0.4-0.4h1.7c0.2,0,0.4,0.1,0.5,0.3l4,6.5l4-6.5c0.1-0.2,0.3-0.3,0.5-0.3h1.7
	c0.3,0,0.4,0.1,0.4,0.4v10.5c0,0.3-0.1,0.4-0.4,0.4h-1.4c-0.3,0-0.4-0.1-0.4-0.4v-7.3l-3.5,5.6c-0.1,0.2-0.3,0.3-0.5,0.3h-0.9
	c-0.2,0-0.4-0.1-0.5-0.3l-3.5-5.5v7.3c0,0.3-0.1,0.4-0.4,0.4h-1.4C185.3,29.9,185.1,29.8,185.1,29.5L185.1,29.5L185.1,29.5z"/>
<path class="st0" d="M203.6,26v-3.5c0-2.4,1.1-3.9,3.8-3.9h4.1c2.6,0,3.8,1.5,3.8,3.9V26c0,2.4-1.1,3.9-3.8,3.9h-4.1
	C204.8,29.9,203.6,28.4,203.6,26z M211.5,27.8c1.1,0,1.6-0.3,1.6-1.7v-3.6c0-1.4-0.4-1.7-1.6-1.7h-4.1c-1.1,0-1.6,0.3-1.6,1.7v3.6
	c0,1.4,0.5,1.7,1.6,1.7H211.5z"/>
<path class="st0" d="M229,26.8l1.9,2.7c0.2,0.3,0.1,0.5-0.3,0.5H229c-0.2,0-0.4-0.1-0.5-0.3l-1.7-2.7h-3.9v2.5
	c0,0.3-0.1,0.4-0.4,0.4H221c-0.3,0-0.4-0.1-0.4-0.4V19c0-0.3,0.1-0.4,0.4-0.4h5.8c3.3,0,4.5,1.4,4.5,4.1V23
	C231.3,24.9,230.7,26.2,229,26.8L229,26.8z M229.1,22.7c0-1.7-0.7-2-2.5-2h-3.8v4.1h3.8c1.7,0,2.5-0.3,2.5-1.9V22.7z"/>
<path class="st0" d="M244.9,26.8l1.9,2.7c0.2,0.3,0.1,0.5-0.3,0.5h-1.7c-0.2,0-0.4-0.1-0.5-0.3l-1.7-2.7h-3.9v2.5
	c0,0.3-0.1,0.4-0.4,0.4h-1.4c-0.3,0-0.4-0.1-0.4-0.4V19c0-0.3,0.1-0.4,0.4-0.4h5.8c3.3,0,4.5,1.4,4.5,4.1V23
	C247.2,24.9,246.6,26.2,244.9,26.8L244.9,26.8L244.9,26.8z M245,22.7c0-1.7-0.7-2-2.5-2h-3.8v4.1h3.8c1.7,0,2.5-0.3,2.5-1.9V22.7z"
	/>
<path class="st0" d="M252.2,26v-3.5c0-2.4,1.1-3.9,3.8-3.9h4.1c2.6,0,3.8,1.5,3.8,3.9V26c0,2.4-1.1,3.9-3.8,3.9H256
	C253.3,29.9,252.2,28.4,252.2,26z M260.1,27.8c1.1,0,1.6-0.3,1.6-1.7v-3.6c0-1.4-0.5-1.7-1.6-1.7H256c-1.1,0-1.6,0.3-1.6,1.7v3.6
	c0,1.4,0.5,1.7,1.6,1.7H260.1z"/>
<path class="st0" d="M271.6,29.6l-3.5-10.5c-0.1-0.3,0-0.5,0.3-0.5h1.5c0.2,0,0.4,0.1,0.5,0.3l2.4,8l2.4-8c0.1-0.2,0.2-0.3,0.5-0.3
	h1.5c0.2,0,0.4,0.1,0.5,0.3l2.4,8l2.5-8c0.1-0.2,0.2-0.3,0.5-0.3h1.5c0.3,0,0.4,0.2,0.3,0.5l-3.5,10.5c-0.1,0.2-0.2,0.3-0.5,0.3
	h-1.6c-0.2,0-0.4-0.1-0.5-0.3l-2.3-7.8l-2.4,7.8c-0.1,0.2-0.2,0.3-0.5,0.3h-1.6C271.9,29.9,271.7,29.8,271.6,29.6L271.6,29.6z"/>
<path class="st0" d="M138.8,0.1h-1.4v29.9h1.4V0.1z"/>
<g>
	<path class="st0" d="M290.9,20.7c0,1.2-0.9,2.1-2.1,2.1c-1.2,0-2.2-0.9-2.2-2.1c0-1.2,1-2.1,2.2-2.1
		C289.9,18.6,290.9,19.6,290.9,20.7z M287.1,20.7c0,0.9,0.7,1.7,1.6,1.7c0.9,0,1.6-0.7,1.6-1.7c0-0.9-0.7-1.7-1.6-1.7
		C287.8,19,287.1,19.8,287.1,20.7z M288.4,21.8h-0.5v-2.1c0.2,0,0.5-0.1,0.8-0.1c0.4,0,0.6,0.1,0.7,0.2c0.1,0.1,0.2,0.3,0.2,0.5
		c0,0.2-0.2,0.4-0.4,0.5v0c0.2,0.1,0.3,0.2,0.4,0.5c0.1,0.3,0.1,0.4,0.2,0.5h-0.5c-0.1-0.1-0.1-0.3-0.2-0.5c0-0.2-0.2-0.3-0.4-0.3
		h-0.2V21.8z M288.4,20.6h0.2c0.3,0,0.5-0.1,0.5-0.3c0-0.2-0.1-0.3-0.4-0.3c-0.1,0-0.2,0-0.3,0V20.6z"/>
</g>
</svg>
