<?xml version="1.0" encoding="UTF-8"?>
<svg xmlns="http://www.w3.org/2000/svg" version="1.1" viewBox="0 0 430.5 129.8">
  <defs>
    <style>
      .cls-1 {
        fill: #fff;
      }
    </style>
  </defs>
  <!-- Generator: Adobe Illustrator 28.7.2, SVG Export Plug-In . SVG Version: 1.2.0 Build 154)  -->
  <g>
    <g id="Layer_2">
      <g id="Layer_1-2">
        <path class="cls-1" d="M186.9,12.3c-1.8,0-3.3-.6-4.5-1.8-1.2-1.2-1.7-2.7-1.6-4.3.1-1.7.9-3.2,2.3-4.3C184.5.6,186.1,0,187.9,0s3.3.6,4.5,1.8c1.2,1.2,1.7,2.7,1.6,4.4-.1,1.7-.9,3.1-2.3,4.3-1.4,1.2-3,1.8-4.8,1.8h0Z"/>
        <polygon class="cls-1" points="302.3 64.8 310.4 16.7 321.7 16.7 313.7 64.8 302.3 64.8"/>
        <path class="cls-1" d="M317.4,12.3c-1.8,0-3.3-.6-4.5-1.8-1.2-1.2-1.7-2.7-1.6-4.3.1-1.7.9-3.2,2.3-4.3C315,.6,316.6,0,318.3,0s3.3.6,4.5,1.8c1.2,1.2,1.7,2.7,1.6,4.4-.1,1.7-.9,3.1-2.3,4.3-1.4,1.2-3,1.8-4.8,1.8h0Z"/>
        <path class="cls-1" d="M397,83.8c-4.1,0-7.5-.6-10.2-1.6s-4.9-2.6-6.3-4.4c-1.5-1.8-2.4-3.9-2.7-6.1l10.6-2.5c.3.9.8,1.9,1.5,2.8.7.9,1.7,1.7,3.1,2.3,1.4.6,3.2.9,5.5.9s6-.8,8.4-2.3c2.4-1.6,3.9-4.1,4.5-7.7l1.4-9.1h-.6c-.8,1.2-1.8,2.4-3.1,3.6-1.3,1.2-3,2.3-4.9,3.1-2,.8-4.3,1.2-7.1,1.2s-6.9-.9-9.6-2.6c-2.7-1.7-4.6-4.3-5.8-7.8s-1.4-7.8-.5-13.1c.9-5.3,2.5-9.7,4.9-13.4,2.4-3.6,5.2-6.4,8.5-8.3,3.3-1.9,6.8-2.8,10.5-2.8s5.1.5,6.7,1.4c1.7,1,2.9,2.1,3.8,3.4.9,1.3,1.5,2.6,1.9,3.7h.6l1.3-7.9h11.2l-8.1,48.9c-.7,4.1-2.2,7.5-4.6,10.2s-5.4,4.7-9,6-7.6,2-11.9,2h0ZM401.6,55.2c2.4,0,4.5-.6,6.4-1.8s3.5-2.8,4.8-5,2.1-4.8,2.6-7.9c.5-3,.5-5.7,0-8s-1.5-4-3-5.3c-1.5-1.3-3.5-1.9-5.9-1.9s-4.8.7-6.6,2-3.4,3.1-4.6,5.4c-1.2,2.3-2,4.9-2.5,7.8-.5,2.9-.5,5.5,0,7.7s1.4,3.9,2.9,5.1,3.5,1.8,6,1.8h0Z"/>
        <path class="cls-1" d="M80,129.8c-4.7,0-8.7-1-11.8-3.1-3.1-2.1-5.3-5-6.6-8.8s-1.5-8.2-.7-13.2c.8-4.9,2.5-9.2,4.9-12.9,2.4-3.7,5.6-6.6,9.3-8.6s7.9-3.1,12.6-3.1,8.7,1.1,11.8,3.2c3.1,2.1,5.3,5,6.6,8.8,1.3,3.8,1.5,8.2.7,13.2-.8,4.9-2.4,9.2-4.9,12.9-2.5,3.7-5.6,6.5-9.3,8.6s-7.9,3.1-12.6,3.1ZM81,120.7c2.6,0,4.9-.7,6.9-2.1s3.6-3.4,4.9-5.8,2.2-5.1,2.7-8.1c.5-2.9.5-5.5,0-7.8-.4-2.3-1.4-4.2-2.8-5.6s-3.4-2.1-5.9-2.1-5,.7-7,2.2-3.7,3.4-4.9,5.8-2.2,5.2-2.7,8.2c-.5,2.9-.5,5.5,0,7.8s1.4,4.2,2.8,5.6,3.4,2.1,6,2.1h0Z"/>
        <path class="cls-1" d="M317,129.8c-3,0-5.7-.6-7.9-1.6-2.2-1.1-3.9-2.7-5-4.9-1.1-2.2-1.3-4.8-.8-7.9.5-2.7,1.3-5,2.6-6.7,1.3-1.8,2.9-3.2,4.8-4.3,1.9-1.1,4-1.9,6.3-2.4s4.6-1,7-1.2c2.8-.3,5.2-.6,7-.8,1.8-.2,3.1-.6,4-1.1s1.5-1.3,1.7-2.4v-.2c.4-2.3,0-4.2-1.1-5.5s-3-2-5.6-2-5.1.6-7,1.8c-1.9,1.2-3.3,2.6-4.1,4.3l-10.3-1.5c1.3-2.9,3.1-5.4,5.3-7.3s4.9-3.4,7.8-4.4c3-1,6.1-1.5,9.5-1.5s4.6.3,6.8.8,4.1,1.4,5.8,2.7c1.7,1.2,3,2.9,3.7,5.1.8,2.1.9,4.8.4,8l-5.4,32.2h-10.9l1.1-6.6h-.4c-.9,1.3-2.1,2.6-3.5,3.7s-3.1,2.1-5.1,2.8-4.2,1.1-6.7,1.1h0ZM321.2,121.5c2.3,0,4.3-.4,6.1-1.4,1.8-.9,3.3-2.1,4.5-3.6,1.2-1.5,1.9-3.1,2.2-4.9l.9-5.7c-.4.3-1,.6-1.9.8-.9.2-1.9.5-2.9.7s-2.1.4-3.2.5c-1,.2-1.9.3-2.7.4-1.7.2-3.3.6-4.7,1.1s-2.6,1.2-3.5,2.2-1.5,2.1-1.7,3.6c-.4,2.1.1,3.7,1.5,4.7,1.3,1.1,3.2,1.6,5.6,1.6h0Z"/>
        <path class="cls-1" d="M22.8,21.5l.8-4.7h18.8l-.8,4.7h-6.5l-2.8,16.9h-5.8l2.8-16.9h-6.5Z"/>
        <path class="cls-1" d="M42.8,38.4l3.6-21.6h5.9l-1.4,8.5h7.8l1.4-8.5h5.9l-3.6,21.6h-5.9l1.4-8.5h-7.8l-1.4,8.5h-5.9,0Z"/>
        <path class="cls-1" d="M66.9,38.4l3.6-21.6h15.6l-.8,4.7h-9.7l-.6,3.7h8.9l-.8,4.7h-8.9l-.6,3.7h9.7l-.8,4.7h-15.6Z"/>
        <path class="cls-1" d="M241.8,24.4c-.9-2.7-2.5-4.8-4.8-6.2-2.2-1.4-5-2.1-8.3-2.1s-6.8.8-9.5,2.4-4.8,3.7-6.4,6.4h-.6l1.4-8.2h-10.8l-8,48.1h11.3l4.6-28.2c.4-2.3,1.2-4.3,2.3-5.9s2.5-2.9,4.2-3.7,3.5-1.3,5.5-1.3c2.9,0,5.1.9,6.4,2.7,1.3,1.8,1.7,4.3,1.2,7.5l-3.9,23.7-12.1,5.1h22.6l5.1-30.6c.6-3.8.5-7.1-.4-9.8h0Z"/>
        <path class="cls-1" d="M218.4,84.4c-2.4-2.8-5.7-4.2-10.1-4.2s-6.7.8-9.5,2.4-5,3.7-6.5,6.4h-.5c-.5-2.7-1.7-4.8-3.7-6.4-2-1.6-4.6-2.4-7.8-2.4s-6.1.8-8.7,2.3c-2.6,1.6-4.6,3.7-6.1,6.5h-.6l1.4-8.2h-10.8l-7.1,42.9-12.1,5.2h22.6l4.9-29.2c.3-2,1-3.7,2-5.2,1-1.5,2.3-2.7,3.8-3.5,1.5-.8,3-1.2,4.7-1.2,2.4,0,4.2.7,5.5,2.2,1.2,1.5,1.7,3.5,1.3,6l-4.3,25.8-12,5.2h22.2l5-30c.4-2.7,1.5-4.9,3.4-6.6s4.1-2.5,6.8-2.5,4.1.7,5.5,2.1,1.8,3.6,1.4,6.6l-4.2,25.3-12.1,5.2h22.6l5.4-32.2c.9-5.3.2-9.4-2.2-12.2h0Z"/>
        <path class="cls-1" d="M146.1,80.2c-.8,0-1.4,0-2.1,0-2.8,0-5.3.8-7.8,2.3s-4.3,3.7-5.6,6.4h-.5l1.4-8h-11l-7.2,42.9-12,5.2h22.4l4.7-28.2c.4-2.1,1.1-3.8,2.3-5.4,1.2-1.6,2.7-2.8,4.5-3.7s3.7-1.3,5.8-1.3,2,0,3,.2c1,.1,1.8.3,2.2.4l1.8-10.4c-.5-.1-1.2-.2-1.9-.2h0Z"/>
        <polygon class="cls-1" points="191.2 16.7 179.9 16.7 172.8 59.6 160.6 64.8 183.2 64.8 191.2 16.7"/>
        <path class="cls-1" d="M295.6,24.4c-.9-2.7-2.5-4.8-4.8-6.2s-5-2.1-8.3-2.1-6.8.8-9.5,2.4-4.8,3.7-6.4,6.4h-.6l1.4-8.2h-10.8l-8,48.1h11.3l4.6-28.2c.4-2.3,1.2-4.3,2.3-5.9s2.5-2.9,4.2-3.7,3.5-1.3,5.5-1.3c2.9,0,5.1.9,6.4,2.7,1.3,1.8,1.7,4.3,1.2,7.5l-3.9,23.6-12.3,5.2h22.8l5.1-30.6c.6-3.8.5-7.1-.4-9.8h0Z"/>
        <polygon class="cls-1" points="290.9 64.8 281.1 123.7 269.1 128.9 291.6 128.9 302.2 64.8 290.9 64.8"/>
        <path class="cls-1" d="M265.3,80.8l-4.7,27.9c-.4,2.4-1.2,4.5-2.5,6.1-1.3,1.6-2.8,2.8-4.5,3.7s-3.4,1.2-5.1,1.2c-2.7,0-4.8-.9-6.1-2.7s-1.8-4.2-1.3-7.3l4.8-28.9h-22.7l10.6,4.6-4.4,26c-.6,3.8-.5,7.1.4,9.8s2.4,4.8,4.6,6.2c2.2,1.4,4.8,2.1,8,2.1s6.8-.9,9.6-2.6,4.9-3.9,6.4-6.6h.5l-1.4,8.5h11l8-48.1h-11.3Z"/>
        <path class="cls-1" d="M372.3,24.4c-.9-2.7-2.5-4.8-4.8-6.2-2.2-1.4-5-2.1-8.3-2.1s-6.8.8-9.5,2.4-4.8,3.7-6.4,6.4h-.6l1.4-8.2h-10.8l-8,48.1h11.3l4.6-28.2c.4-2.3,1.2-4.3,2.3-5.9s2.5-2.9,4.2-3.7,3.5-1.3,5.5-1.3c2.9,0,5.1.9,6.4,2.7,1.3,1.8,1.7,4.3,1.2,7.5l-3.9,23.7-12.1,5.2h22.5l5.1-30.6c.6-3.8.5-7.1-.4-9.8h0Z"/>
        <polygon class="cls-1" points="61.4 74.5 63 64.8 22 64.8 12.1 123.8 0 128.9 22.9 128.9 27.4 101.6 54.1 101.6 55.7 91.9 29.1 91.9 31.9 74.5 61.4 74.5"/>
        <polygon class="cls-1" points="162.5 .7 143.1 47.8 142.6 47.8 138 .7 126.7 .7 106.5 47.8 105.9 47.8 102.2 .7 89.7 .7 96.5 59.4 82.5 64.8 108.6 64.8 129 19.8 129.5 19.8 134.8 64.8 146.2 64.8 175 .7 162.5 .7"/>
      </g>
    </g>
  </g>
</svg>