<?xml version="1.0" encoding="UTF-8"?>
<svg xmlns="http://www.w3.org/2000/svg" xmlns:xlink="http://www.w3.org/1999/xlink" version="1.1" viewBox="0 0 600 1000">
  <defs>
    <style>
      .cls-1 {
        fill: none;
      }

      .cls-2 {
        fill: url(#linear-gradient);
      }

      .cls-3 {
        clip-path: url(#clippath);
      }
    </style>
    <clipPath id="clippath">
      <path class="cls-1" d="M136.2,25.4h12.3v1.7h-12.3v-1.7ZM143.3,46.4h-1.8v5.2h-5.3v1.7h5.3v5.5h1.8v-5.5h5.2v-1.7h-5.2v-5.2ZM136.2,78h12.3v1.7h-12.3v-1.7ZM143.3,98.8h-1.8v5.3h-5.3v1.8h5.3v5.5h1.8v-5.5h5.2v-1.8h-5.2v-5.3ZM136.2,130.7h12.3v1.7h-12.3v-1.7ZM143.3,151.6h-1.8v5.4h-5.3v1.7h5.3v5.5h1.8v-5.5h5.2v-1.7h-5.2v-5.4ZM136.2,183.4h12.3v1.7h-12.3v-1.7ZM143.3,204.2h-1.8v5.2h-5.3v1.9h5.3v5.4h1.8v-5.4h5.2v-1.9h-5.2v-5.2ZM136.2,235.8h12.3v1.7h-12.3v-1.7ZM21.9,25.4h12.3v1.7h-12.3s0-1.7,0-1.7ZM27,58.8h1.7v-5.5h5.2v-1.7h-5.2v-5.2h-1.7v5.2h-5.4v1.7h5.4v5.5ZM21.9,78h12.3v1.7h-12.3s0-1.7,0-1.7ZM27,111.4h1.7v-5.5h5.2v-1.8h-5.2v-5.3h-1.7v5.3h-5.4v1.8h5.4v5.5ZM21.9,130.7h12.3v1.7h-12.3s0-1.7,0-1.7ZM27,164.2h1.7v-5.5h5.2v-1.7h-5.2v-5.4h-1.7v5.4h-5.4v1.7h5.4v5.5ZM21.9,183.4h12.3v1.7h-12.3s0-1.7,0-1.7ZM27,216.7h1.7v-5.4h5.2v-1.9h-5.2v-5.2h-1.7v5.2h-5.4v1.9h5.4v5.4ZM21.9,235.8h12.3v1.7h-12.3s0-1.7,0-1.7ZM55.9,32.6h1.6v-5.4h5.3v-1.8h-5.3v-5.3h-1.6v5.3h-5.3v1.8h5.3v5.4ZM50.6,51.7h12.3v1.7h-12.3v-1.7ZM55.9,85.2h1.6v-5.5h5.3v-1.7h-5.3v-5.2h-1.6v5.2h-5.3v1.7h5.3v5.5ZM50.6,104.7h12.3v1.7h-12.3v-1.7ZM55.9,138h1.6v-5.4h5.3v-1.9h-5.3v-5.2h-1.6v5.2h-5.3v1.9h5.3v5.4ZM50.6,157.1h12.3v1.7h-12.3v-1.7ZM55.9,190.6h1.6v-5.5h5.3v-1.7h-5.3v-5.2h-1.6v5.2h-5.3v1.7h5.3v5.5ZM50.6,209.8h12.3v1.7h-12.3v-1.7ZM55.9,243h1.6v-5.3h5.3v-1.9h-5.3v-5.2h-1.6v5.2h-5.3v1.9h5.3v5.3ZM79,25.4h12.3v1.7h-12.3v-1.7ZM84.2,58.8h1.7v-5.5h5.2v-1.7h-5.2v-5.2h-1.7v5.2h-5.2v1.7h5.2v5.5ZM79,78h12.3v1.7h-12.3v-1.7ZM84.2,111.4h1.7v-5.5h5.2v-1.8h-5.2v-5.3h-1.7v5.3h-5.2v1.8h5.2v5.5ZM79,130.7h12.3v1.7h-12.3v-1.7ZM84.2,164.2h1.7v-5.5h5.2v-1.7h-5.2v-5.4h-1.7v5.4h-5.2v1.7h5.2v5.5ZM79,183.4h12.3v1.7h-12.3v-1.7ZM84.2,216.7h1.7v-5.4h5.2v-1.9h-5.2v-5.2h-1.7v5.2h-5.2v1.9h5.2v5.4ZM79,235.8h12.3v1.7h-12.3v-1.7ZM112.9,32.6h1.7v-5.4h5.2v-1.8h-5.2v-5.3h-1.7v5.3h-5.2v1.8h5.2v5.4ZM107.9,51.7h12.3v1.7h-12.3v-1.7ZM112.9,85.2h1.7v-5.5h5.2v-1.7h-5.2v-5.2h-1.7v5.2h-5.2v1.7h5.2v5.5ZM107.9,104.7h12.3v1.7h-12.3v-1.7ZM112.9,138h1.7v-5.4h5.2v-1.9h-5.2v-5.2h-1.7v5.2h-5.2v1.9h5.2v5.4ZM107.9,157.1h12.3v1.7h-12.3v-1.7ZM112.9,190.6h1.7v-5.5h5.2v-1.7h-5.2v-5.2h-1.7v5.2h-5.2v1.7h5.2v5.5ZM107.9,209.8h12.3v1.7h-12.3v-1.7ZM112.9,243h1.7v-5.3h5.2v-1.9h-5.2v-5.2h-1.7v5.2h-5.2v1.9h5.2v5.3ZM172,20.1h-1.9v5.3h-5.2v1.8h5.2v5.4h1.9v-5.4h5.2v-1.8h-5.2v-5.3ZM164.9,51.7h12.3v1.7h-12.3v-1.7ZM172,72.8h-1.9v5.2h-5.2v1.7h5.2v5.5h1.9v-5.5h5.2v-1.7h-5.2v-5.2ZM164.9,104.7h12.3v1.7h-12.3v-1.7ZM172,125.5h-1.9v5.2h-5.2v1.9h5.2v5.4h1.9v-5.4h5.2v-1.9h-5.2v-5.2ZM164.9,157.1h12.3v1.7h-12.3v-1.7ZM172,178.2h-1.9v5.2h-5.2v1.7h5.2v5.5h1.9v-5.5h5.2v-1.7h-5.2v-5.2ZM164.9,209.8h12.3v1.7h-12.3v-1.7ZM172,230.6h-1.9v5.2h-5.2v1.9h5.2v5.3h1.9v-5.3h5.2v-1.9h-5.2v-5.2ZM193.6,25.4h12.3v1.7h-12.3v-1.7ZM198.8,58.8h1.7v-5.5h5.2v-1.7h-5.2v-5.2h-1.7v5.2h-5.2v1.7h5.2v5.5ZM193.6,78h12.3v1.7h-12.3v-1.7ZM198.8,111.4h1.7v-5.5h5.2v-1.8h-5.2v-5.3h-1.7v5.3h-5.2v1.8h5.2v5.5ZM193.6,130.7h12.3v1.7h-12.3v-1.7ZM198.8,164.2h1.7v-5.5h5.2v-1.7h-5.2v-5.4h-1.7v5.4h-5.2v1.7h5.2v5.5ZM193.6,183.4h12.3v1.7h-12.3v-1.7ZM198.8,216.7h1.7v-5.4h5.2v-1.9h-5.2v-5.2h-1.7v5.2h-5.2v1.9h5.2v5.4ZM193.6,235.8h12.3v1.7h-12.3v-1.7ZM229.2,20.1h-1.8v5.3h-5.3v1.8h5.3v5.4h1.8v-5.4h5.2v-1.8h-5.2v-5.3ZM222.1,51.7h12.3v1.7h-12.3v-1.7ZM229.2,72.8h-1.8v5.2h-5.3v1.7h5.3v5.5h1.8v-5.5h5.2v-1.7h-5.2v-5.2ZM222.1,104.7h12.3v1.7h-12.3v-1.7ZM229.2,125.5h-1.8v5.2h-5.3v1.9h5.3v5.4h1.8v-5.4h5.2v-1.9h-5.2v-5.2ZM222.1,157.1h12.3v1.7h-12.3v-1.7ZM229.2,178.2h-1.8v5.2h-5.3v1.7h5.3v5.5h1.8v-5.5h5.2v-1.7h-5.2v-5.2ZM222.1,209.8h12.3v1.7h-12.3v-1.7ZM229.2,230.6h-1.8v5.2h-5.3v1.9h5.3v5.3h1.8v-5.3h5.2v-1.9h-5.2v-5.2ZM250.8,25.4h12.3v1.7h-12.3v-1.7ZM257.9,46.4h-1.9v5.2h-5.2v1.7h5.2v5.5h1.9v-5.5h5.2v-1.7h-5.2v-5.2ZM250.8,78h12.3v1.7h-12.3v-1.7ZM257.9,98.8h-1.9v5.3h-5.2v1.8h5.2v5.5h1.9v-5.5h5.2v-1.8h-5.2v-5.3ZM250.8,130.7h12.3v1.7h-12.3v-1.7ZM257.9,151.6h-1.9v5.4h-5.2v1.7h5.2v5.5h1.9v-5.5h5.2v-1.7h-5.2v-5.4ZM250.8,183.4h12.3v1.7h-12.3v-1.7ZM257.9,204.2h-1.9v5.2h-5.2v1.9h5.2v5.4h1.9v-5.4h5.2v-1.9h-5.2v-5.2ZM250.8,235.8h12.3v1.7h-12.3v-1.7ZM284.7,32.6h1.7v-5.4h5.2v-1.8h-5.2v-5.3h-1.7v5.3h-5.2v1.8h5.2v5.4ZM279.5,51.7h12.3v1.7h-12.3v-1.7ZM284.7,85.2h1.7v-5.5h5.2v-1.7h-5.2v-5.2h-1.7v5.2h-5.2v1.7h5.2v5.5ZM279.5,104.7h12.3v1.7h-12.3v-1.7ZM284.7,138h1.7v-5.4h5.2v-1.9h-5.2v-5.2h-1.7v5.2h-5.2v1.9h5.2v5.4ZM279.5,157.1h12.3v1.7h-12.3v-1.7ZM284.7,190.6h1.7v-5.5h5.2v-1.7h-5.2v-5.2h-1.7v5.2h-5.2v1.7h5.2v5.5ZM279.5,209.8h12.3v1.7h-12.3v-1.7ZM284.7,243h1.7v-5.3h5.2v-1.9h-5.2v-5.2h-1.7v5.2h-5.2v1.9h5.2v5.3ZM308.2,25.4h12.3v1.7h-12.3v-1.7ZM313.4,58.8h1.7v-5.5h5.2v-1.7h-5.2v-5.2h-1.7v5.2h-5.2v1.7h5.2v5.5ZM308.2,78h12.3v1.7h-12.3v-1.7ZM313.4,111.4h1.7v-5.5h5.2v-1.8h-5.2v-5.3h-1.7v5.3h-5.2v1.8h5.2v5.5ZM308.2,130.7h12.3v1.7h-12.3v-1.7ZM313.4,164.2h1.7v-5.5h5.2v-1.7h-5.2v-5.4h-1.7v5.4h-5.2v1.7h5.2v5.5ZM308.2,183.4h12.3v1.7h-12.3v-1.7ZM313.4,216.7h1.7v-5.4h5.2v-1.9h-5.2v-5.2h-1.7v5.2h-5.2v1.9h5.2v5.4ZM308.2,235.8h12.3v1.7h-12.3v-1.7ZM343.8,20.1h-1.8v5.3h-5.3v1.8h5.3v5.4h1.8v-5.4h5.2v-1.8h-5.2v-5.3ZM336.7,51.7h12.3v1.7h-12.3v-1.7ZM343.8,72.8h-1.8v5.2h-5.3v1.7h5.3v5.5h1.8v-5.5h5.2v-1.7h-5.2v-5.2ZM336.7,104.7h12.3v1.7h-12.3v-1.7ZM343.8,125.5h-1.8v5.2h-5.3v1.9h5.3v5.4h1.8v-5.4h5.2v-1.9h-5.2v-5.2ZM336.7,157.1h12.3v1.7h-12.3v-1.7ZM343.8,178.2h-1.8v5.2h-5.3v1.7h5.3v5.5h1.8v-5.5h5.2v-1.7h-5.2v-5.2ZM336.7,209.8h12.3v1.7h-12.3v-1.7ZM343.8,230.6h-1.8v5.2h-5.3v1.9h5.3v5.3h1.8v-5.3h5.2v-1.9h-5.2v-5.2ZM365.4,25.4h12.3v1.7h-12.3v-1.7ZM372.5,46.4h-1.9v5.2h-5.2v1.7h5.2v5.5h1.9v-5.5h5.2v-1.7h-5.2v-5.2ZM365.4,78h12.3v1.7h-12.3v-1.7ZM372.5,98.8h-1.9v5.3h-5.2v1.8h5.2v5.5h1.9v-5.5h5.2v-1.8h-5.2v-5.3ZM365.4,130.7h12.3v1.7h-12.3v-1.7ZM372.5,151.6h-1.9v5.4h-5.2v1.7h5.2v5.5h1.9v-5.5h5.2v-1.7h-5.2v-5.4ZM365.4,183.4h12.3v1.7h-12.3v-1.7ZM372.5,204.2h-1.9v5.2h-5.2v1.9h5.2v5.4h1.9v-5.4h5.2v-1.9h-5.2v-5.2ZM365.4,235.8h12.3v1.7h-12.3v-1.7ZM399.3,32.6h1.7v-5.4h5.2v-1.8h-5.2v-5.3h-1.7v5.3h-5.2v1.8h5.2v5.4ZM394.1,51.7h12.3v1.7h-12.3v-1.7ZM399.3,85.2h1.7v-5.5h5.2v-1.7h-5.2v-5.2h-1.7v5.2h-5.2v1.7h5.2v5.5ZM394.1,104.7h12.3v1.7h-12.3v-1.7ZM399.3,138h1.7v-5.4h5.2v-1.9h-5.2v-5.2h-1.7v5.2h-5.2v1.9h5.2v5.4ZM394.1,157.1h12.3v1.7h-12.3v-1.7ZM399.3,190.6h1.7v-5.5h5.2v-1.7h-5.2v-5.2h-1.7v5.2h-5.2v1.7h5.2v5.5ZM394.1,209.8h12.3v1.7h-12.3v-1.7ZM399.3,243h1.7v-5.3h5.2v-1.9h-5.2v-5.2h-1.7v5.2h-5.2v1.9h5.2v5.3ZM422.6,25.4h12.3v1.7h-12.3v-1.7ZM427.7,58.8h1.7v-5.5h5.2v-1.7h-5.2v-5.2h-1.7v5.2h-5.2v1.7h5.2v5.5ZM422.6,78h12.3v1.7h-12.3v-1.7ZM427.7,111.4h1.7v-5.5h5.2v-1.8h-5.2v-5.3h-1.7v5.3h-5.2v1.8h5.2v5.5ZM422.6,130.7h12.3v1.7h-12.3v-1.7ZM427.7,164.2h1.7v-5.5h5.2v-1.7h-5.2v-5.4h-1.7v5.4h-5.2v1.7h5.2v5.5ZM422.6,183.4h12.3v1.7h-12.3v-1.7ZM427.7,216.7h1.7v-5.4h5.2v-1.9h-5.2v-5.2h-1.7v5.2h-5.2v1.9h5.2v5.4ZM422.6,235.8h12.3v1.7h-12.3v-1.7ZM458.2,20.1h-1.6v5.3h-5.3v1.8h5.3v5.4h1.6v-5.4h5.4v-1.8h-5.4v-5.3ZM451.3,51.7h12.3v1.7h-12.3v-1.7ZM458.2,72.8h-1.6v5.2h-5.3v1.7h5.3v5.5h1.6v-5.5h5.4v-1.7h-5.4v-5.2ZM451.3,104.7h12.3v1.7h-12.3v-1.7ZM458.2,125.5h-1.6v5.2h-5.3v1.9h5.3v5.4h1.6v-5.4h5.4v-1.9h-5.4v-5.2ZM451.3,157.1h12.3v1.7h-12.3v-1.7ZM458.2,178.2h-1.6v5.2h-5.3v1.7h5.3v5.5h1.6v-5.5h5.4v-1.7h-5.4v-5.2ZM451.3,209.8h12.3v1.7h-12.3v-1.7ZM458.2,230.6h-1.6v5.2h-5.3v1.9h5.3v5.3h1.6v-5.3h5.4v-1.9h-5.4v-5.2ZM480,25.4h12.3v1.7h-12.3v-1.7ZM484.9,58.8h1.9v-5.5h5.2v-1.7h-5.2v-5.2h-1.9v5.2h-5.2v1.7h5.2v5.5ZM480,78h12.3v1.7h-12.3v-1.7ZM484.9,111.4h1.9v-5.5h5.2v-1.8h-5.2v-5.3h-1.9v5.3h-5.2v1.8h5.2v5.5ZM480,130.7h12.3v1.7h-12.3v-1.7ZM484.9,164.2h1.9v-5.5h5.2v-1.7h-5.2v-5.4h-1.9v5.4h-5.2v1.7h5.2v5.5ZM480,183.4h12.3v1.7h-12.3v-1.7ZM484.9,216.7h1.9v-5.4h5.2v-1.9h-5.2v-5.2h-1.9v5.2h-5.2v1.9h5.2v5.4ZM480,235.8h12.3v1.7h-12.3v-1.7ZM515.6,20.1h-1.7v5.3h-5.2v1.8h5.2v5.4h1.7v-5.4h5.2v-1.8h-5.2v-5.3ZM508.6,51.7h12.3v1.7h-12.3v-1.7h0ZM515.6,72.8h-1.7v5.2h-5.2v1.7h5.2v5.5h1.7v-5.5h5.2v-1.7h-5.2v-5.2ZM508.6,104.7h12.3v1.7h-12.3v-1.7h0ZM515.6,125.5h-1.7v5.2h-5.2v1.9h5.2v5.4h1.7v-5.4h5.2v-1.9h-5.2v-5.2ZM508.6,157.1h12.3v1.7h-12.3v-1.7h0ZM515.6,178.2h-1.7v5.2h-5.2v1.7h5.2v5.5h1.7v-5.5h5.2v-1.7h-5.2v-5.2ZM508.6,209.8h12.3v1.7h-12.3v-1.7h0ZM515.6,230.6h-1.7v5.2h-5.2v1.9h5.2v5.3h1.7v-5.3h5.2v-1.9h-5.2v-5.2ZM537.2,25.4h12.3v1.7h-12.3v-1.7ZM542.3,58.8h1.7v-5.5h5.2v-1.7h-5.2v-5.2h-1.7v5.2h-5.2v1.7h5.2v5.5ZM537.2,78h12.3v1.7h-12.3v-1.7ZM542.3,111.4h1.7v-5.5h5.2v-1.8h-5.2v-5.3h-1.7v5.3h-5.2v1.8h5.2v5.5ZM537.2,130.7h12.3v1.7h-12.3v-1.7ZM542.3,164.2h1.7v-5.5h5.2v-1.7h-5.2v-5.4h-1.7v5.4h-5.2v1.7h5.2v5.5ZM537.2,183.4h12.3v1.7h-12.3v-1.7ZM542.3,216.7h1.7v-5.4h5.2v-1.9h-5.2v-5.2h-1.7v5.2h-5.2v1.9h5.2v5.4ZM537.2,235.8h12.3v1.7h-12.3v-1.7ZM571.1,32.6h1.7v-5.4h5.3v-1.8h-5.3v-5.3h-1.7v5.3h-5.2v1.8h5.2v5.4ZM565.9,51.7h12.3v1.7h-12.3v-1.7ZM571.1,85.2h1.7v-5.5h5.3v-1.7h-5.3v-5.2h-1.7v5.2h-5.2v1.7h5.2v5.5ZM565.9,104.7h12.3v1.7h-12.3v-1.7ZM571.1,138h1.7v-5.4h5.3v-1.9h-5.3v-5.2h-1.7v5.2h-5.2v1.9h5.2v5.4ZM565.9,157.1h12.3v1.7h-12.3v-1.7ZM571.1,190.6h1.7v-5.5h5.3v-1.7h-5.3v-5.2h-1.7v5.2h-5.2v1.7h5.2v5.5ZM565.9,209.8h12.3v1.7h-12.3v-1.7ZM571.1,243h1.7v-5.3h5.3v-1.9h-5.3v-5.2h-1.7v5.2h-5.2v1.9h5.2v5.3ZM143.3,257h-1.8v5.2h-5.3v1.9h5.3v5.3h1.8v-5.3h5.2v-1.9h-5.2v-5.2ZM136.2,288.6h12.3v1.7h-12.3v-1.7ZM143.3,309.6h-1.8v5.2h-5.3v1.7h5.3v5.5h1.8v-5.5h5.2v-1.7h-5.2v-5.2ZM136.2,341.2h12.3v1.7h-12.3v-1.7ZM143.3,362.4h-1.8v5.2h-5.3v1.7h5.3v5.5h1.8v-5.5h5.2v-1.7h-5.2v-5.2ZM136.2,394h12.3v1.7h-12.3v-1.7ZM143.3,415h-1.8v5.2h-5.3v1.7h5.3v5.5h1.8v-5.5h5.2v-1.7h-5.2v-5.2ZM136.2,446.6h12.3v1.7h-12.3v-1.7ZM143.3,467.5h-1.8v5.2h-5.3v1.8h5.3v5.4h1.8v-5.4h5.2v-1.8h-5.2v-5.2ZM136.2,499.1h12.3v1.7h-12.3v-1.7ZM143.3,520.1h-1.8v5.2h-5.3v1.7h5.3v5.5h1.8v-5.5h5.2v-1.7h-5.2v-5.2ZM136.2,551.7h12.3v1.7h-12.3v-1.7ZM143.3,572.9h-1.8v5.2h-5.3v1.7h5.3v5.2h1.8v-5.4h5.2v-1.8h-5.2v-4.9ZM136.2,604.2h12.3v1.7h-12.3v-1.7ZM143.3,625.3h-1.8v5.4h-5.3v1.7h5.3v5.5h1.8v-5.5h5.2v-1.7h-5.2v-5.4ZM136.2,657.1h12.3v1.7h-12.3v-1.7ZM143.3,678h-1.8v5.2h-5.3v1.8h5.3v5.4h1.8v-5.4h5.2v-1.8h-5.2v-5.2ZM136.2,709.6h12.3v1.7h-12.3v-1.7ZM143.3,730.6h-1.8v5.2h-5.3v1.7h5.3v5.5h1.8v-5.5h5.2v-1.7h-5.2v-5.2ZM136.2,762.2h12.3v1.7h-12.3v-1.7ZM143.3,783h-1.8v5.3h-5.3v1.8h5.3v5.4h1.8v-5.4h5.2v-1.8h-5.2v-5.3ZM136.2,814.6h12.3v1.7h-12.3v-1.7ZM143.3,835.7h-1.8v5.2h-5.3v1.7h5.3v5.5h1.8v-5.5h5.2v-1.7h-5.2v-5.2ZM136.2,867.4h12.3v1.7h-12.3v-1.7ZM143.3,888.4h-1.8v5.2h-5.3v1.7h5.3v5.6h1.8v-5.6h5.2v-1.7h-5.2v-5.2ZM136.2,920h12.3v1.7h-12.3v-1.7ZM143.3,940.9h-1.8v5.4h-5.3v1.7h5.3v5.5h1.8v-5.5h5.2v-1.7h-5.2v-5.4ZM136.2,972.6h12.3v1.7h-12.3v-1.7ZM27,269.4h1.7v-5.3h5.2v-1.9h-5.2v-5.2h-1.7v5.2h-5.4v1.9h5.4v5.3ZM21.9,288.6h12.3v1.7h-12.3s0-1.7,0-1.7ZM27,322h1.7v-5.5h5.2v-1.7h-5.2v-5.2h-1.7v5.2h-5.4v1.7h5.4v5.5ZM21.9,341.2h12.3v1.7h-12.3s0-1.7,0-1.7ZM27,374.8h1.7v-5.5h5.2v-1.7h-5.2v-5.2h-1.7v5.2h-5.4v1.7h5.4v5.5ZM21.9,394h12.3v1.7h-12.3s0-1.7,0-1.7ZM27,427.4h1.7v-5.5h5.2v-1.7h-5.2v-5.2h-1.7v5.2h-5.4v1.7h5.4v5.5ZM21.9,446.6h12.3v1.7h-12.3s0-1.7,0-1.7ZM27,479.9h1.7v-5.4h5.2v-1.8h-5.2v-5.2h-1.7v5.2h-5.4v1.8h5.4v5.4ZM21.9,499.1h12.3v1.7h-12.3s0-1.7,0-1.7ZM27,532.5h1.7v-5.5h5.2v-1.7h-5.2v-5.2h-1.7v5.2h-5.4v1.7h5.4v5.5ZM21.9,551.7h12.3v1.7h-12.3s0-1.7,0-1.7ZM27,585h1.7v-5.4h5.2v-1.8h-5.2v-4.9h-1.7v5.2h-5.4v1.7h5.4v5.2ZM21.9,604.2h12.3v1.7h-12.3s0-1.7,0-1.7ZM27,637.9h1.7v-5.5h5.2v-1.7h-5.2v-5.4h-1.7v5.4h-5.4v1.7h5.4v5.5ZM21.9,657.1h12.3v1.7h-12.3s0-1.7,0-1.7ZM27,690.4h1.7v-5.4h5.2v-1.8h-5.2v-5.2h-1.7v5.2h-5.4v1.8h5.4v5.4ZM21.9,709.6h12.3v1.7h-12.3s0-1.7,0-1.7ZM27,743h1.7v-5.5h5.2v-1.7h-5.2v-5.2h-1.7v5.2h-5.4v1.7h5.4v5.5ZM21.9,762.2h12.3v1.7h-12.3s0-1.7,0-1.7ZM27,795.5h1.7v-5.4h5.2v-1.8h-5.2v-5.3h-1.7v5.3h-5.4v1.8h5.4v5.4ZM21.9,814.6h12.3v1.7h-12.3s0-1.7,0-1.7ZM27,848.1h1.7v-5.5h5.2v-1.7h-5.2v-5.2h-1.7v5.2h-5.4v1.7h5.4v5.5ZM21.9,867.4h12.3v1.7h-12.3s0-1.7,0-1.7ZM27,900.9h1.7v-5.6h5.2v-1.7h-5.2v-5.2h-1.7v5.2h-5.4v1.7h5.4v5.6ZM21.9,920h12.3v1.7h-12.3s0-1.7,0-1.7ZM27,953.5h1.7v-5.5h5.2v-1.7h-5.2v-5.4h-1.7v5.4h-5.4v1.7h5.4v5.5ZM21.9,972.6h12.3v1.7h-12.3s0-1.7,0-1.7ZM50.6,262.2h12.3v1.7h-12.3v-1.7ZM55.9,295.7h1.6v-5.6h5.3v-1.6h-5.3v-5.3h-1.6v5.3h-5.3v1.6h5.3v5.6ZM50.6,315.1h12.3v1.7h-12.3v-1.7ZM55.9,348.4h1.6v-5.5h5.3v-1.7h-5.3v-5.2h-1.6v5.2h-5.3v1.7h5.3v5.5ZM50.6,367.6h12.3v1.7h-12.3v-1.7ZM55.9,401.1h1.6v-5.6h5.3v-1.7h-5.3v-5.3h-1.6v5.3h-5.3v1.7h5.3v5.6ZM50.6,420.2h12.3v1.7h-12.3v-1.7ZM55.9,453.5h1.6v-5.5h5.3v-1.7h-5.3v-5.2h-1.6v5.2h-5.3v1.7h5.3v5.5ZM50.6,472.7h12.3v1.7h-12.3v-1.7ZM55.9,506.1h1.6v-5.5h5.3v-1.7h-5.3v-5.2h-1.6v5.2h-5.3v1.7h5.3v5.5ZM50.6,525.5h12.3v1.7h-12.3v-1.7ZM55.9,558.9h1.6v-5.5h5.3v-1.7h-5.3v-5.2h-1.6v5.2h-5.3v1.7h5.3v5.5ZM50.6,578.1h12.3v1.7h-12.3v-1.7ZM55.9,611.5h1.6v-5.5h5.3v-1.7h-5.3v-5.4h-1.6v5.4h-5.3v1.7h5.3v5.5ZM50.6,630.7h12.3v1.7h-12.3v-1.7ZM55.9,664h1.6v-5.5h5.3v-1.7h-5.3v-5.2h-1.6v5.2h-5.3v1.7h5.3v5.5ZM50.6,683.2h12.3v1.7h-12.3v-1.7ZM55.9,716.6h1.6v-5.5h5.3v-1.7h-5.3v-5.2h-1.6v5.2h-5.3v1.7h5.3v5.5ZM50.6,735.9h12.3v1.7h-12.3v-1.7ZM55.9,769.4h1.6v-5.5h5.3v-1.7h-5.3v-5.2h-1.6v5.2h-5.3v1.7h5.3v5.5ZM50.6,788.6h12.3v1.7h-12.3v-1.7ZM55.9,821.8h1.6v-5.3h5.3v-1.9h-5.3v-5.2h-1.6v5.2h-5.3v1.9h5.3v5.3ZM50.6,841h12.3v1.7h-12.3v-1.7ZM55.9,874.5h1.6v-5.6h5.3v-1.6h-5.3v-5.3h-1.6v5.3h-5.3v1.6h5.3v5.6ZM50.6,893.6h12.3v1.7h-12.3v-1.7ZM55.9,926.9h1.6v-5.3h5.3v-1.9h-5.3v-5.2h-1.6v5.2h-5.3v1.9h5.3v5.3ZM50.6,946.1h12.3v1.7h-12.3v-1.7ZM55.9,979.9h1.6v-5.6h5.3v-1.7h-5.3v-5.2h-1.6v5.2h-5.3v1.7h5.3v5.6ZM84.2,269.4h1.7v-5.3h5.2v-1.9h-5.2v-5.2h-1.7v5.2h-5.2v1.9h5.2v5.3ZM79,288.6h12.3v1.7h-12.3v-1.7ZM84.2,322h1.7v-5.5h5.2v-1.7h-5.2v-5.2h-1.7v5.2h-5.2v1.7h5.2v5.5ZM79,341.2h12.3v1.7h-12.3v-1.7ZM84.2,374.8h1.7v-5.5h5.2v-1.7h-5.2v-5.2h-1.7v5.2h-5.2v1.7h5.2v5.5ZM79,394h12.3v1.7h-12.3v-1.7ZM84.2,427.4h1.7v-5.5h5.2v-1.7h-5.2v-5.2h-1.7v5.2h-5.2v1.7h5.2v5.5ZM79,446.6h12.3v1.7h-12.3v-1.7ZM84.2,479.9h1.7v-5.4h5.2v-1.8h-5.2v-5.2h-1.7v5.2h-5.2v1.8h5.2v5.4ZM79,499.1h12.3v1.7h-12.3v-1.7ZM84.2,532.5h1.7v-5.5h5.2v-1.7h-5.2v-5.2h-1.7v5.2h-5.2v1.7h5.2v5.5ZM79,551.7h12.3v1.7h-12.3v-1.7ZM84.2,585h1.7v-5.4h5.2v-1.8h-5.2v-4.9h-1.7v5.2h-5.2v1.7h5.2v5.2ZM79,604.2h12.3v1.7h-12.3v-1.7ZM84.2,637.9h1.7v-5.5h5.2v-1.7h-5.2v-5.4h-1.7v5.4h-5.2v1.7h5.2v5.5ZM79,657.1h12.3v1.7h-12.3v-1.7ZM84.2,690.4h1.7v-5.4h5.2v-1.8h-5.2v-5.2h-1.7v5.2h-5.2v1.8h5.2v5.4ZM79,709.6h12.3v1.7h-12.3v-1.7ZM84.2,743h1.7v-5.5h5.2v-1.7h-5.2v-5.2h-1.7v5.2h-5.2v1.7h5.2v5.5ZM79,762.2h12.3v1.7h-12.3v-1.7ZM84.2,795.5h1.7v-5.4h5.2v-1.8h-5.2v-5.3h-1.7v5.3h-5.2v1.8h5.2v5.4ZM79,814.6h12.3v1.7h-12.3v-1.7ZM84.2,848.1h1.7v-5.5h5.2v-1.7h-5.2v-5.2h-1.7v5.2h-5.2v1.7h5.2v5.5ZM79,867.4h12.3v1.7h-12.3v-1.7ZM84.2,900.9h1.7v-5.6h5.2v-1.7h-5.2v-5.2h-1.7v5.2h-5.2v1.7h5.2v5.6ZM79,920h12.3v1.7h-12.3v-1.7ZM84.2,953.5h1.7v-5.5h5.2v-1.7h-5.2v-5.4h-1.7v5.4h-5.2v1.7h5.2v5.5ZM79,972.6h12.3v1.7h-12.3v-1.7ZM107.9,262.2h12.3v1.7h-12.3v-1.7ZM112.9,295.7h1.7v-5.6h5.2v-1.6h-5.2v-5.3h-1.7v5.3h-5.2v1.6h5.2v5.6ZM107.9,315.1h12.3v1.7h-12.3v-1.7ZM112.9,348.4h1.7v-5.5h5.2v-1.7h-5.2v-5.2h-1.7v5.2h-5.2v1.7h5.2v5.5ZM107.9,367.6h12.3v1.7h-12.3v-1.7ZM112.9,401.1h1.7v-5.6h5.2v-1.7h-5.2v-5.3h-1.7v5.3h-5.2v1.7h5.2v5.6ZM107.9,420.2h12.3v1.7h-12.3v-1.7ZM112.9,453.5h1.7v-5.5h5.2v-1.7h-5.2v-5.2h-1.7v5.2h-5.2v1.7h5.2v5.5ZM107.9,472.7h12.3v1.7h-12.3v-1.7ZM112.9,506.1h1.7v-5.5h5.2v-1.7h-5.2v-5.2h-1.7v5.2h-5.2v1.7h5.2v5.5ZM107.9,525.5h12.3v1.7h-12.3v-1.7ZM112.9,558.9h1.7v-5.5h5.2v-1.7h-5.2v-5.2h-1.7v5.2h-5.2v1.7h5.2v5.5ZM107.9,578.1h12.3v1.7h-12.3v-1.7ZM112.9,611.5h1.7v-5.5h5.2v-1.7h-5.2v-5.4h-1.7v5.4h-5.2v1.7h5.2v5.5ZM107.9,630.7h12.3v1.7h-12.3v-1.7ZM112.9,664h1.7v-5.5h5.2v-1.7h-5.2v-5.2h-1.7v5.2h-5.2v1.7h5.2v5.5ZM107.9,683.2h12.3v1.7h-12.3v-1.7ZM112.9,716.6h1.7v-5.5h5.2v-1.7h-5.2v-5.2h-1.7v5.2h-5.2v1.7h5.2v5.5ZM107.9,735.9h12.3v1.7h-12.3v-1.7ZM112.9,769.4h1.7v-5.5h5.2v-1.7h-5.2v-5.2h-1.7v5.2h-5.2v1.7h5.2v5.5ZM107.9,788.6h12.3v1.7h-12.3v-1.7ZM112.9,821.8h1.7v-5.3h5.2v-1.9h-5.2v-5.2h-1.7v5.2h-5.2v1.9h5.2v5.3ZM107.9,841h12.3v1.7h-12.3v-1.7ZM112.9,874.5h1.7v-5.6h5.2v-1.6h-5.2v-5.3h-1.7v5.3h-5.2v1.6h5.2v5.6ZM107.9,893.6h12.3v1.7h-12.3v-1.7ZM112.9,926.9h1.7v-5.3h5.2v-1.9h-5.2v-5.2h-1.7v5.2h-5.2v1.9h5.2v5.3ZM107.9,946.1h12.3v1.7h-12.3v-1.7ZM112.9,979.9h1.7v-5.6h5.2v-1.7h-5.2v-5.2h-1.7v5.2h-5.2v1.7h5.2v5.6ZM164.9,262.2h12.3v1.7h-12.3v-1.7ZM172,283.2h-1.9v5.3h-5.2v1.6h5.2v5.6h1.9v-5.6h5.2v-1.6h-5.2v-5.3ZM164.9,315.1h12.3v1.7h-12.3v-1.7ZM172,336h-1.9v5.2h-5.2v1.7h5.2v5.5h1.9v-5.5h5.2v-1.7h-5.2v-5.2ZM164.9,367.6h12.3v1.7h-12.3v-1.7ZM172,388.5h-1.9v5.3h-5.2v1.7h5.2v5.6h1.9v-5.6h5.2v-1.7h-5.2v-5.3ZM164.9,420.2h12.3v1.7h-12.3v-1.7ZM172,441.1h-1.9v5.2h-5.2v1.7h5.2v5.5h1.9v-5.5h5.2v-1.7h-5.2v-5.2ZM164.9,472.7h12.3v1.7h-12.3v-1.7ZM172,493.7h-1.9v5.2h-5.2v1.7h5.2v5.5h1.9v-5.5h5.2v-1.7h-5.2v-5.2ZM164.9,525.5h12.3v1.7h-12.3v-1.7ZM172,546.5h-1.9v5.2h-5.2v1.7h5.2v5.5h1.9v-5.5h5.2v-1.7h-5.2v-5.2ZM164.9,578.1h12.3v1.7h-12.3v-1.7ZM172,598.9h-1.9v5.4h-5.2v1.7h5.2v5.5h1.9v-5.5h5.2v-1.7h-5.2v-5.4ZM164.9,630.7h12.3v1.7h-12.3v-1.7ZM172,651.6h-1.9v5.2h-5.2v1.7h5.2v5.5h1.9v-5.5h5.2v-1.7h-5.2v-5.2ZM164.9,683.2h12.3v1.7h-12.3v-1.7ZM172,704.2h-1.9v5.2h-5.2v1.7h5.2v5.5h1.9v-5.5h5.2v-1.7h-5.2v-5.2ZM164.9,735.9h12.3v1.7h-12.3v-1.7ZM172,757h-1.9v5.2h-5.2v1.7h5.2v5.5h1.9v-5.5h5.2v-1.7h-5.2v-5.2ZM164.9,788.6h12.3v1.7h-12.3v-1.7ZM172,809.4h-1.9v5.2h-5.2v1.9h5.2v5.3h1.9v-5.3h5.2v-1.9h-5.2v-5.2ZM164.9,841h12.3v1.7h-12.3v-1.7ZM172,862h-1.9v5.3h-5.2v1.6h5.2v5.6h1.9v-5.6h5.2v-1.6h-5.2v-5.3ZM164.9,893.6h12.3v1.7h-12.3v-1.7ZM172,914.5h-1.9v5.2h-5.2v1.9h5.2v5.3h1.9v-5.3h5.2v-1.9h-5.2v-5.2ZM164.9,946.1h12.3v1.7h-12.3v-1.7ZM172,967.4h-1.9v5.2h-5.2v1.7h5.2v5.6h1.9v-5.6h5.2v-1.7h-5.2v-5.2ZM198.8,269.4h1.7v-5.3h5.2v-1.9h-5.2v-5.2h-1.7v5.2h-5.2v1.9h5.2v5.3ZM193.6,288.6h12.3v1.7h-12.3v-1.7ZM198.8,322h1.7v-5.5h5.2v-1.7h-5.2v-5.2h-1.7v5.2h-5.2v1.7h5.2v5.5ZM193.6,341.2h12.3v1.7h-12.3v-1.7ZM198.8,374.8h1.7v-5.5h5.2v-1.7h-5.2v-5.2h-1.7v5.2h-5.2v1.7h5.2v5.5ZM193.6,394h12.3v1.7h-12.3v-1.7ZM198.8,427.4h1.7v-5.5h5.2v-1.7h-5.2v-5.2h-1.7v5.2h-5.2v1.7h5.2v5.5ZM193.6,446.6h12.3v1.7h-12.3v-1.7ZM198.8,479.9h1.7v-5.4h5.2v-1.8h-5.2v-5.2h-1.7v5.2h-5.2v1.8h5.2v5.4ZM193.6,499.1h12.3v1.7h-12.3v-1.7ZM198.8,532.5h1.7v-5.5h5.2v-1.7h-5.2v-5.2h-1.7v5.2h-5.2v1.7h5.2v5.5ZM193.6,551.7h12.3v1.7h-12.3v-1.7ZM198.8,585h1.7v-5.4h5.2v-1.8h-5.2v-4.9h-1.7v5.2h-5.2v1.7h5.2v5.2ZM193.6,604.2h12.3v1.7h-12.3v-1.7ZM198.8,637.9h1.7v-5.5h5.2v-1.7h-5.2v-5.4h-1.7v5.4h-5.2v1.7h5.2v5.5ZM193.6,657.1h12.3v1.7h-12.3v-1.7ZM198.8,690.4h1.7v-5.4h5.2v-1.8h-5.2v-5.2h-1.7v5.2h-5.2v1.8h5.2v5.4ZM193.6,709.6h12.3v1.7h-12.3v-1.7ZM198.8,743h1.7v-5.5h5.2v-1.7h-5.2v-5.2h-1.7v5.2h-5.2v1.7h5.2v5.5ZM193.6,762.2h12.3v1.7h-12.3v-1.7ZM198.8,795.5h1.7v-5.4h5.2v-1.8h-5.2v-5.3h-1.7v5.3h-5.2v1.8h5.2v5.4ZM193.6,814.6h12.3v1.7h-12.3v-1.7ZM198.8,848.1h1.7v-5.5h5.2v-1.7h-5.2v-5.2h-1.7v5.2h-5.2v1.7h5.2v5.5ZM193.6,867.4h12.3v1.7h-12.3v-1.7ZM198.8,900.9h1.7v-5.6h5.2v-1.7h-5.2v-5.2h-1.7v5.2h-5.2v1.7h5.2v5.6ZM193.6,920h12.3v1.7h-12.3v-1.7ZM198.8,953.5h1.7v-5.5h5.2v-1.7h-5.2v-5.4h-1.7v5.4h-5.2v1.7h5.2v5.5ZM193.6,972.6h12.3v1.7h-12.3v-1.7ZM222.1,262.2h12.3v1.7h-12.3v-1.7ZM229.2,283.2h-1.8v5.3h-5.3v1.6h5.3v5.6h1.8v-5.6h5.2v-1.6h-5.2v-5.3ZM222.1,315.1h12.3v1.7h-12.3v-1.7ZM229.2,336h-1.8v5.2h-5.3v1.7h5.3v5.5h1.8v-5.5h5.2v-1.7h-5.2v-5.2ZM222.1,367.6h12.3v1.7h-12.3v-1.7ZM229.2,388.5h-1.8v5.3h-5.3v1.7h5.3v5.6h1.8v-5.6h5.2v-1.7h-5.2v-5.3ZM222.1,420.2h12.3v1.7h-12.3v-1.7ZM229.2,441.1h-1.8v5.2h-5.3v1.7h5.3v5.5h1.8v-5.5h5.2v-1.7h-5.2v-5.2ZM222.1,472.7h12.3v1.7h-12.3v-1.7ZM229.2,493.7h-1.8v5.2h-5.3v1.7h5.3v5.5h1.8v-5.5h5.2v-1.7h-5.2v-5.2ZM222.1,525.5h12.3v1.7h-12.3v-1.7ZM229.2,546.5h-1.8v5.2h-5.3v1.7h5.3v5.5h1.8v-5.5h5.2v-1.7h-5.2v-5.2ZM222.1,578.1h12.3v1.7h-12.3v-1.7ZM229.2,598.9h-1.8v5.4h-5.3v1.7h5.3v5.5h1.8v-5.5h5.2v-1.7h-5.2v-5.4ZM222.1,630.7h12.3v1.7h-12.3v-1.7ZM229.2,651.6h-1.8v5.2h-5.3v1.7h5.3v5.5h1.8v-5.5h5.2v-1.7h-5.2v-5.2ZM222.1,683.2h12.3v1.7h-12.3v-1.7ZM229.2,704.2h-1.8v5.2h-5.3v1.7h5.3v5.5h1.8v-5.5h5.2v-1.7h-5.2v-5.2ZM222.1,735.9h12.3v1.7h-12.3v-1.7ZM229.2,757h-1.8v5.2h-5.3v1.7h5.3v5.5h1.8v-5.5h5.2v-1.7h-5.2v-5.2ZM222.1,788.6h12.3v1.7h-12.3v-1.7ZM229.2,809.4h-1.8v5.2h-5.3v1.9h5.3v5.3h1.8v-5.3h5.2v-1.9h-5.2v-5.2ZM222.1,841h12.3v1.7h-12.3v-1.7ZM229.2,862h-1.8v5.3h-5.3v1.6h5.3v5.6h1.8v-5.6h5.2v-1.6h-5.2v-5.3ZM222.1,893.6h12.3v1.7h-12.3v-1.7ZM229.2,914.5h-1.8v5.2h-5.3v1.9h5.3v5.3h1.8v-5.3h5.2v-1.9h-5.2v-5.2ZM222.1,946.1h12.3v1.7h-12.3v-1.7ZM229.2,967.4h-1.8v5.2h-5.3v1.7h5.3v5.6h1.8v-5.6h5.2v-1.7h-5.2v-5.2ZM257.9,257h-1.9v5.2h-5.2v1.9h5.2v5.3h1.9v-5.3h5.2v-1.9h-5.2v-5.2ZM250.8,288.6h12.3v1.7h-12.3v-1.7ZM257.9,309.6h-1.9v5.2h-5.2v1.7h5.2v5.5h1.9v-5.5h5.2v-1.7h-5.2v-5.2ZM250.8,341.2h12.3v1.7h-12.3v-1.7ZM257.9,362.4h-1.9v5.2h-5.2v1.7h5.2v5.5h1.9v-5.5h5.2v-1.7h-5.2v-5.2ZM250.8,394h12.3v1.7h-12.3v-1.7ZM257.9,415h-1.9v5.2h-5.2v1.7h5.2v5.5h1.9v-5.5h5.2v-1.7h-5.2v-5.2ZM250.8,446.6h12.3v1.7h-12.3v-1.7ZM257.9,467.5h-1.9v5.2h-5.2v1.8h5.2v5.4h1.9v-5.4h5.2v-1.8h-5.2v-5.2ZM250.8,499.1h12.3v1.7h-12.3v-1.7ZM257.9,520.1h-1.9v5.2h-5.2v1.7h5.2v5.5h1.9v-5.5h5.2v-1.7h-5.2v-5.2ZM250.8,551.7h12.3v1.7h-12.3v-1.7ZM257.9,572.9h-1.9v5.2h-5.2v1.7h5.2v5.2h1.9v-5.4h5.2v-1.8h-5.2v-4.9ZM250.8,604.2h12.3v1.7h-12.3v-1.7ZM257.9,625.3h-1.9v5.4h-5.2v1.7h5.2v5.5h1.9v-5.5h5.2v-1.7h-5.2v-5.4ZM250.8,657.1h12.3v1.7h-12.3v-1.7ZM257.9,678h-1.9v5.2h-5.2v1.8h5.2v5.4h1.9v-5.4h5.2v-1.8h-5.2v-5.2ZM250.8,709.6h12.3v1.7h-12.3v-1.7ZM257.9,730.6h-1.9v5.2h-5.2v1.7h5.2v5.5h1.9v-5.5h5.2v-1.7h-5.2v-5.2ZM250.8,762.2h12.3v1.7h-12.3v-1.7ZM257.9,783h-1.9v5.3h-5.2v1.8h5.2v5.4h1.9v-5.4h5.2v-1.8h-5.2v-5.3ZM250.8,814.6h12.3v1.7h-12.3v-1.7ZM257.9,835.7h-1.9v5.2h-5.2v1.7h5.2v5.5h1.9v-5.5h5.2v-1.7h-5.2v-5.2ZM250.8,867.4h12.3v1.7h-12.3v-1.7ZM257.9,888.4h-1.9v5.2h-5.2v1.7h5.2v5.6h1.9v-5.6h5.2v-1.7h-5.2v-5.2ZM250.8,920h12.3v1.7h-12.3v-1.7ZM257.9,940.9h-1.9v5.4h-5.2v1.7h5.2v5.5h1.9v-5.5h5.2v-1.7h-5.2v-5.4ZM250.8,972.6h12.3v1.7h-12.3v-1.7ZM279.5,262.2h12.3v1.7h-12.3v-1.7ZM284.7,295.7h1.7v-5.6h5.2v-1.6h-5.2v-5.3h-1.7v5.3h-5.2v1.6h5.2v5.6ZM279.5,315.1h12.3v1.7h-12.3v-1.7ZM284.7,348.4h1.7v-5.5h5.2v-1.7h-5.2v-5.2h-1.7v5.2h-5.2v1.7h5.2v5.5ZM279.5,367.6h12.3v1.7h-12.3v-1.7ZM284.7,401.1h1.7v-5.6h5.2v-1.7h-5.2v-5.3h-1.7v5.3h-5.2v1.7h5.2v5.6ZM279.5,420.2h12.3v1.7h-12.3v-1.7ZM284.7,453.5h1.7v-5.5h5.2v-1.7h-5.2v-5.2h-1.7v5.2h-5.2v1.7h5.2v5.5ZM279.5,472.7h12.3v1.7h-12.3v-1.7ZM284.7,506.1h1.7v-5.5h5.2v-1.7h-5.2v-5.2h-1.7v5.2h-5.2v1.7h5.2v5.5ZM279.5,525.5h12.3v1.7h-12.3v-1.7ZM284.7,558.9h1.7v-5.5h5.2v-1.7h-5.2v-5.2h-1.7v5.2h-5.2v1.7h5.2v5.5ZM279.5,578.1h12.3v1.7h-12.3v-1.7ZM284.7,611.5h1.7v-5.5h5.2v-1.7h-5.2v-5.4h-1.7v5.4h-5.2v1.7h5.2v5.5ZM279.5,630.7h12.3v1.7h-12.3v-1.7ZM284.7,664h1.7v-5.5h5.2v-1.7h-5.2v-5.2h-1.7v5.2h-5.2v1.7h5.2v5.5ZM279.5,683.2h12.3v1.7h-12.3v-1.7ZM284.7,716.6h1.7v-5.5h5.2v-1.7h-5.2v-5.2h-1.7v5.2h-5.2v1.7h5.2v5.5ZM279.5,735.9h12.3v1.7h-12.3v-1.7ZM284.7,769.4h1.7v-5.5h5.2v-1.7h-5.2v-5.2h-1.7v5.2h-5.2v1.7h5.2v5.5ZM279.5,788.6h12.3v1.7h-12.3v-1.7ZM284.7,821.8h1.7v-5.3h5.2v-1.9h-5.2v-5.2h-1.7v5.2h-5.2v1.9h5.2v5.3ZM279.5,841h12.3v1.7h-12.3v-1.7ZM284.7,874.5h1.7v-5.6h5.2v-1.6h-5.2v-5.3h-1.7v5.3h-5.2v1.6h5.2v5.6ZM279.5,893.6h12.3v1.7h-12.3v-1.7ZM284.7,926.9h1.7v-5.3h5.2v-1.9h-5.2v-5.2h-1.7v5.2h-5.2v1.9h5.2v5.3ZM279.5,946.1h12.3v1.7h-12.3v-1.7ZM284.7,979.9h1.7v-5.6h5.2v-1.7h-5.2v-5.2h-1.7v5.2h-5.2v1.7h5.2v5.6ZM313.4,269.4h1.7v-5.3h5.2v-1.9h-5.2v-5.2h-1.7v5.2h-5.2v1.9h5.2v5.3ZM308.2,288.6h12.3v1.7h-12.3v-1.7ZM313.4,322h1.7v-5.5h5.2v-1.7h-5.2v-5.2h-1.7v5.2h-5.2v1.7h5.2v5.5ZM308.2,341.2h12.3v1.7h-12.3v-1.7ZM313.4,374.8h1.7v-5.5h5.2v-1.7h-5.2v-5.2h-1.7v5.2h-5.2v1.7h5.2v5.5ZM308.2,394h12.3v1.7h-12.3v-1.7ZM313.4,427.4h1.7v-5.5h5.2v-1.7h-5.2v-5.2h-1.7v5.2h-5.2v1.7h5.2v5.5ZM308.2,446.6h12.3v1.7h-12.3v-1.7ZM313.4,479.9h1.7v-5.4h5.2v-1.8h-5.2v-5.2h-1.7v5.2h-5.2v1.8h5.2v5.4ZM308.2,499.1h12.3v1.7h-12.3v-1.7ZM313.4,532.5h1.7v-5.5h5.2v-1.7h-5.2v-5.2h-1.7v5.2h-5.2v1.7h5.2v5.5ZM308.2,551.7h12.3v1.7h-12.3v-1.7ZM313.4,585h1.7v-5.4h5.2v-1.8h-5.2v-4.9h-1.7v5.2h-5.2v1.7h5.2v5.2ZM308.2,604.2h12.3v1.7h-12.3v-1.7ZM313.4,637.9h1.7v-5.5h5.2v-1.7h-5.2v-5.4h-1.7v5.4h-5.2v1.7h5.2v5.5ZM308.2,657.1h12.3v1.7h-12.3v-1.7ZM313.4,690.4h1.7v-5.4h5.2v-1.8h-5.2v-5.2h-1.7v5.2h-5.2v1.8h5.2v5.4ZM308.2,709.6h12.3v1.7h-12.3v-1.7ZM313.4,743h1.7v-5.5h5.2v-1.7h-5.2v-5.2h-1.7v5.2h-5.2v1.7h5.2v5.5ZM308.2,762.2h12.3v1.7h-12.3v-1.7ZM313.4,795.5h1.7v-5.4h5.2v-1.8h-5.2v-5.3h-1.7v5.3h-5.2v1.8h5.2v5.4ZM308.2,814.6h12.3v1.7h-12.3v-1.7ZM313.4,848.1h1.7v-5.5h5.2v-1.7h-5.2v-5.2h-1.7v5.2h-5.2v1.7h5.2v5.5ZM308.2,867.4h12.3v1.7h-12.3v-1.7ZM313.4,900.9h1.7v-5.6h5.2v-1.7h-5.2v-5.2h-1.7v5.2h-5.2v1.7h5.2v5.6ZM308.2,920h12.3v1.7h-12.3v-1.7ZM313.4,953.5h1.7v-5.5h5.2v-1.7h-5.2v-5.4h-1.7v5.4h-5.2v1.7h5.2v5.5ZM308.2,972.6h12.3v1.7h-12.3v-1.7ZM336.7,262.2h12.3v1.7h-12.3v-1.7ZM343.8,283.2h-1.8v5.3h-5.3v1.6h5.3v5.6h1.8v-5.6h5.2v-1.6h-5.2v-5.3ZM336.7,315.1h12.3v1.7h-12.3v-1.7ZM343.8,336h-1.8v5.2h-5.3v1.7h5.3v5.5h1.8v-5.5h5.2v-1.7h-5.2v-5.2ZM336.7,367.6h12.3v1.7h-12.3v-1.7ZM343.8,388.5h-1.8v5.3h-5.3v1.7h5.3v5.6h1.8v-5.6h5.2v-1.7h-5.2v-5.3ZM336.7,420.2h12.3v1.7h-12.3v-1.7ZM343.8,441.1h-1.8v5.2h-5.3v1.7h5.3v5.5h1.8v-5.5h5.2v-1.7h-5.2v-5.2ZM336.7,472.7h12.3v1.7h-12.3v-1.7ZM343.8,493.7h-1.8v5.2h-5.3v1.7h5.3v5.5h1.8v-5.5h5.2v-1.7h-5.2v-5.2ZM336.7,525.5h12.3v1.7h-12.3v-1.7ZM343.8,546.5h-1.8v5.2h-5.3v1.7h5.3v5.5h1.8v-5.5h5.2v-1.7h-5.2v-5.2ZM336.7,578.1h12.3v1.7h-12.3v-1.7ZM343.8,598.9h-1.8v5.4h-5.3v1.7h5.3v5.5h1.8v-5.5h5.2v-1.7h-5.2v-5.4ZM336.7,630.7h12.3v1.7h-12.3v-1.7ZM343.8,651.6h-1.8v5.2h-5.3v1.7h5.3v5.5h1.8v-5.5h5.2v-1.7h-5.2v-5.2ZM336.7,683.2h12.3v1.7h-12.3v-1.7ZM343.8,704.2h-1.8v5.2h-5.3v1.7h5.3v5.5h1.8v-5.5h5.2v-1.7h-5.2v-5.2ZM336.7,735.9h12.3v1.7h-12.3v-1.7ZM343.8,757h-1.8v5.2h-5.3v1.7h5.3v5.5h1.8v-5.5h5.2v-1.7h-5.2v-5.2ZM336.7,788.6h12.3v1.7h-12.3v-1.7ZM343.8,809.4h-1.8v5.2h-5.3v1.9h5.3v5.3h1.8v-5.3h5.2v-1.9h-5.2v-5.2ZM336.7,841h12.3v1.7h-12.3v-1.7ZM343.8,862h-1.8v5.3h-5.3v1.6h5.3v5.6h1.8v-5.6h5.2v-1.6h-5.2v-5.3ZM336.7,893.6h12.3v1.7h-12.3v-1.7ZM343.8,914.5h-1.8v5.2h-5.3v1.9h5.3v5.3h1.8v-5.3h5.2v-1.9h-5.2v-5.2ZM336.7,946.1h12.3v1.7h-12.3v-1.7ZM343.8,967.4h-1.8v5.2h-5.3v1.7h5.3v5.6h1.8v-5.6h5.2v-1.7h-5.2v-5.2ZM372.5,257h-1.9v5.2h-5.2v1.9h5.2v5.3h1.9v-5.3h5.2v-1.9h-5.2v-5.2ZM365.4,288.6h12.3v1.7h-12.3v-1.7ZM372.5,309.6h-1.9v5.2h-5.2v1.7h5.2v5.5h1.9v-5.5h5.2v-1.7h-5.2v-5.2ZM365.4,341.2h12.3v1.7h-12.3v-1.7ZM372.5,362.4h-1.9v5.2h-5.2v1.7h5.2v5.5h1.9v-5.5h5.2v-1.7h-5.2v-5.2ZM365.4,394h12.3v1.7h-12.3v-1.7ZM372.5,415h-1.9v5.2h-5.2v1.7h5.2v5.5h1.9v-5.5h5.2v-1.7h-5.2v-5.2ZM365.4,446.6h12.3v1.7h-12.3v-1.7ZM372.5,467.5h-1.9v5.2h-5.2v1.8h5.2v5.4h1.9v-5.4h5.2v-1.8h-5.2v-5.2ZM365.4,499.1h12.3v1.7h-12.3v-1.7ZM372.5,520.1h-1.9v5.2h-5.2v1.7h5.2v5.5h1.9v-5.5h5.2v-1.7h-5.2v-5.2ZM365.4,551.7h12.3v1.7h-12.3v-1.7ZM372.5,572.9h-1.9v5.2h-5.2v1.7h5.2v5.2h1.9v-5.4h5.2v-1.8h-5.2v-4.9ZM365.4,604.2h12.3v1.7h-12.3v-1.7ZM372.5,625.3h-1.9v5.4h-5.2v1.7h5.2v5.5h1.9v-5.5h5.2v-1.7h-5.2v-5.4ZM365.4,657.1h12.3v1.7h-12.3v-1.7ZM372.5,678h-1.9v5.2h-5.2v1.8h5.2v5.4h1.9v-5.4h5.2v-1.8h-5.2v-5.2ZM365.4,709.6h12.3v1.7h-12.3v-1.7ZM372.5,730.6h-1.9v5.2h-5.2v1.7h5.2v5.5h1.9v-5.5h5.2v-1.7h-5.2v-5.2ZM365.4,762.2h12.3v1.7h-12.3v-1.7ZM372.5,783h-1.9v5.3h-5.2v1.8h5.2v5.4h1.9v-5.4h5.2v-1.8h-5.2v-5.3ZM365.4,814.6h12.3v1.7h-12.3v-1.7ZM372.5,835.7h-1.9v5.2h-5.2v1.7h5.2v5.5h1.9v-5.5h5.2v-1.7h-5.2v-5.2ZM365.4,867.4h12.3v1.7h-12.3v-1.7ZM372.5,888.4h-1.9v5.2h-5.2v1.7h5.2v5.6h1.9v-5.6h5.2v-1.7h-5.2v-5.2ZM365.4,920h12.3v1.7h-12.3v-1.7ZM372.5,940.9h-1.9v5.4h-5.2v1.7h5.2v5.5h1.9v-5.5h5.2v-1.7h-5.2v-5.4ZM365.4,972.6h12.3v1.7h-12.3v-1.7ZM394.1,262.2h12.3v1.7h-12.3v-1.7ZM399.3,295.7h1.7v-5.6h5.2v-1.6h-5.2v-5.3h-1.7v5.3h-5.2v1.6h5.2v5.6ZM394.1,315.1h12.3v1.7h-12.3v-1.7ZM399.3,348.4h1.7v-5.5h5.2v-1.7h-5.2v-5.2h-1.7v5.2h-5.2v1.7h5.2v5.5ZM394.1,367.6h12.3v1.7h-12.3v-1.7ZM399.3,401.1h1.7v-5.6h5.2v-1.7h-5.2v-5.3h-1.7v5.3h-5.2v1.7h5.2v5.6ZM394.1,420.2h12.3v1.7h-12.3v-1.7ZM399.3,453.5h1.7v-5.5h5.2v-1.7h-5.2v-5.2h-1.7v5.2h-5.2v1.7h5.2v5.5ZM394.1,472.7h12.3v1.7h-12.3v-1.7ZM399.3,506.1h1.7v-5.5h5.2v-1.7h-5.2v-5.2h-1.7v5.2h-5.2v1.7h5.2v5.5ZM394.1,525.5h12.3v1.7h-12.3v-1.7ZM399.3,558.9h1.7v-5.5h5.2v-1.7h-5.2v-5.2h-1.7v5.2h-5.2v1.7h5.2v5.5ZM394.1,578.1h12.3v1.7h-12.3v-1.7ZM399.3,611.5h1.7v-5.5h5.2v-1.7h-5.2v-5.4h-1.7v5.4h-5.2v1.7h5.2v5.5ZM394.1,630.7h12.3v1.7h-12.3v-1.7ZM399.3,664h1.7v-5.5h5.2v-1.7h-5.2v-5.2h-1.7v5.2h-5.2v1.7h5.2v5.5ZM394.1,683.2h12.3v1.7h-12.3v-1.7ZM399.3,716.6h1.7v-5.5h5.2v-1.7h-5.2v-5.2h-1.7v5.2h-5.2v1.7h5.2v5.5ZM394.1,735.9h12.3v1.7h-12.3v-1.7ZM399.3,769.4h1.7v-5.5h5.2v-1.7h-5.2v-5.2h-1.7v5.2h-5.2v1.7h5.2v5.5ZM394.1,788.6h12.3v1.7h-12.3v-1.7ZM399.3,821.8h1.7v-5.3h5.2v-1.9h-5.2v-5.2h-1.7v5.2h-5.2v1.9h5.2v5.3ZM394.1,841h12.3v1.7h-12.3v-1.7ZM399.3,874.5h1.7v-5.6h5.2v-1.6h-5.2v-5.3h-1.7v5.3h-5.2v1.6h5.2v5.6ZM394.1,893.6h12.3v1.7h-12.3v-1.7ZM399.3,926.9h1.7v-5.3h5.2v-1.9h-5.2v-5.2h-1.7v5.2h-5.2v1.9h5.2v5.3ZM394.1,946.1h12.3v1.7h-12.3v-1.7ZM399.3,979.9h1.7v-5.6h5.2v-1.7h-5.2v-5.2h-1.7v5.2h-5.2v1.7h5.2v5.6ZM427.7,269.4h1.7v-5.3h5.2v-1.9h-5.2v-5.2h-1.7v5.2h-5.2v1.9h5.2v5.3ZM422.6,288.6h12.3v1.7h-12.3v-1.7ZM427.7,322h1.7v-5.5h5.2v-1.7h-5.2v-5.2h-1.7v5.2h-5.2v1.7h5.2v5.5ZM422.6,341.2h12.3v1.7h-12.3v-1.7ZM427.7,374.8h1.7v-5.5h5.2v-1.7h-5.2v-5.2h-1.7v5.2h-5.2v1.7h5.2v5.5ZM422.6,394h12.3v1.7h-12.3v-1.7ZM427.7,427.4h1.7v-5.5h5.2v-1.7h-5.2v-5.2h-1.7v5.2h-5.2v1.7h5.2v5.5ZM422.6,446.6h12.3v1.7h-12.3v-1.7ZM427.7,479.9h1.7v-5.4h5.2v-1.8h-5.2v-5.2h-1.7v5.2h-5.2v1.8h5.2v5.4ZM422.6,499.1h12.3v1.7h-12.3v-1.7ZM427.7,532.5h1.7v-5.5h5.2v-1.7h-5.2v-5.2h-1.7v5.2h-5.2v1.7h5.2v5.5ZM422.6,551.7h12.3v1.7h-12.3v-1.7ZM427.7,585h1.7v-5.4h5.2v-1.8h-5.2v-4.9h-1.7v5.2h-5.2v1.7h5.2v5.2ZM422.6,604.2h12.3v1.7h-12.3v-1.7ZM427.7,637.9h1.7v-5.5h5.2v-1.7h-5.2v-5.4h-1.7v5.4h-5.2v1.7h5.2v5.5ZM422.6,657.1h12.3v1.7h-12.3v-1.7ZM427.7,690.4h1.7v-5.4h5.2v-1.8h-5.2v-5.2h-1.7v5.2h-5.2v1.8h5.2v5.4ZM422.6,709.6h12.3v1.7h-12.3v-1.7ZM427.7,743h1.7v-5.5h5.2v-1.7h-5.2v-5.2h-1.7v5.2h-5.2v1.7h5.2v5.5ZM422.6,762.2h12.3v1.7h-12.3v-1.7ZM427.7,795.5h1.7v-5.4h5.2v-1.8h-5.2v-5.3h-1.7v5.3h-5.2v1.8h5.2v5.4ZM422.6,814.6h12.3v1.7h-12.3v-1.7ZM427.7,848.1h1.7v-5.5h5.2v-1.7h-5.2v-5.2h-1.7v5.2h-5.2v1.7h5.2v5.5ZM422.6,867.4h12.3v1.7h-12.3v-1.7ZM427.7,900.9h1.7v-5.6h5.2v-1.7h-5.2v-5.2h-1.7v5.2h-5.2v1.7h5.2v5.6ZM422.6,920h12.3v1.7h-12.3v-1.7ZM427.7,953.5h1.7v-5.5h5.2v-1.7h-5.2v-5.4h-1.7v5.4h-5.2v1.7h5.2v5.5ZM422.6,972.6h12.3v1.7h-12.3v-1.7ZM451.3,262.2h12.3v1.7h-12.3v-1.7ZM458.2,283.2h-1.6v5.3h-5.3v1.6h5.3v5.6h1.6v-5.6h5.4v-1.6h-5.4v-5.3ZM451.3,315.1h12.3v1.7h-12.3v-1.7ZM458.2,336h-1.6v5.2h-5.3v1.7h5.3v5.5h1.6v-5.5h5.4v-1.7h-5.4v-5.2ZM451.3,367.6h12.3v1.7h-12.3v-1.7ZM458.2,388.5h-1.6v5.3h-5.3v1.7h5.3v5.6h1.6v-5.6h5.4v-1.7h-5.4v-5.3ZM451.3,420.2h12.3v1.7h-12.3v-1.7ZM458.2,441.1h-1.6v5.2h-5.3v1.7h5.3v5.5h1.6v-5.5h5.4v-1.7h-5.4v-5.2ZM451.3,472.7h12.3v1.7h-12.3v-1.7ZM458.2,493.7h-1.6v5.2h-5.3v1.7h5.3v5.5h1.6v-5.5h5.4v-1.7h-5.4v-5.2ZM451.3,525.5h12.3v1.7h-12.3v-1.7ZM458.2,546.5h-1.6v5.2h-5.3v1.7h5.3v5.5h1.6v-5.5h5.4v-1.7h-5.4v-5.2ZM451.3,578.1h12.3v1.7h-12.3v-1.7ZM458.2,598.9h-1.6v5.4h-5.3v1.7h5.3v5.5h1.6v-5.5h5.4v-1.7h-5.4v-5.4ZM451.3,630.7h12.3v1.7h-12.3v-1.7ZM458.2,651.6h-1.6v5.2h-5.3v1.7h5.3v5.5h1.6v-5.5h5.4v-1.7h-5.4v-5.2ZM451.3,683.2h12.3v1.7h-12.3v-1.7ZM458.2,704.2h-1.6v5.2h-5.3v1.7h5.3v5.5h1.6v-5.5h5.4v-1.7h-5.4v-5.2ZM451.3,735.9h12.3v1.7h-12.3v-1.7ZM458.2,757h-1.6v5.2h-5.3v1.7h5.3v5.5h1.6v-5.5h5.4v-1.7h-5.4v-5.2ZM451.3,788.6h12.3v1.7h-12.3v-1.7ZM458.2,809.4h-1.6v5.2h-5.3v1.9h5.3v5.3h1.6v-5.3h5.4v-1.9h-5.4v-5.2ZM451.3,841h12.3v1.7h-12.3v-1.7ZM458.2,862h-1.6v5.3h-5.3v1.6h5.3v5.6h1.6v-5.6h5.4v-1.6h-5.4v-5.3ZM451.3,893.6h12.3v1.7h-12.3v-1.7ZM458.2,914.5h-1.6v5.2h-5.3v1.9h5.3v5.3h1.6v-5.3h5.4v-1.9h-5.4v-5.2ZM451.3,946.1h12.3v1.7h-12.3v-1.7ZM458.2,967.4h-1.6v5.2h-5.3v1.7h5.3v5.6h1.6v-5.6h5.4v-1.7h-5.4v-5.2ZM484.9,269.4h1.9v-5.3h5.2v-1.9h-5.2v-5.2h-1.9v5.2h-5.2v1.9h5.2v5.3ZM480,288.6h12.3v1.7h-12.3v-1.7ZM484.9,322h1.9v-5.5h5.2v-1.7h-5.2v-5.2h-1.9v5.2h-5.2v1.7h5.2v5.5ZM480,341.2h12.3v1.7h-12.3v-1.7ZM484.9,374.8h1.9v-5.5h5.2v-1.7h-5.2v-5.2h-1.9v5.2h-5.2v1.7h5.2v5.5ZM480,394h12.3v1.7h-12.3v-1.7ZM484.9,427.4h1.9v-5.5h5.2v-1.7h-5.2v-5.2h-1.9v5.2h-5.2v1.7h5.2v5.5ZM480,446.6h12.3v1.7h-12.3v-1.7ZM484.9,479.9h1.9v-5.4h5.2v-1.8h-5.2v-5.2h-1.9v5.2h-5.2v1.8h5.2v5.4ZM480,499.1h12.3v1.7h-12.3v-1.7ZM484.9,532.5h1.9v-5.5h5.2v-1.7h-5.2v-5.2h-1.9v5.2h-5.2v1.7h5.2v5.5ZM480,551.7h12.3v1.7h-12.3v-1.7ZM484.9,585h1.9v-5.4h5.2v-1.8h-5.2v-4.9h-1.9v5.2h-5.2v1.7h5.2v5.2ZM480,604.2h12.3v1.7h-12.3v-1.7ZM484.9,637.9h1.9v-5.5h5.2v-1.7h-5.2v-5.4h-1.9v5.4h-5.2v1.7h5.2v5.5ZM480,657.1h12.3v1.7h-12.3v-1.7ZM484.9,690.4h1.9v-5.4h5.2v-1.8h-5.2v-5.2h-1.9v5.2h-5.2v1.8h5.2v5.4ZM480,709.6h12.3v1.7h-12.3v-1.7ZM484.9,743h1.9v-5.5h5.2v-1.7h-5.2v-5.2h-1.9v5.2h-5.2v1.7h5.2v5.5ZM480,762.2h12.3v1.7h-12.3v-1.7ZM484.9,795.5h1.9v-5.4h5.2v-1.8h-5.2v-5.3h-1.9v5.3h-5.2v1.8h5.2v5.4ZM480,814.6h12.3v1.7h-12.3v-1.7ZM484.9,848.1h1.9v-5.5h5.2v-1.7h-5.2v-5.2h-1.9v5.2h-5.2v1.7h5.2v5.5ZM480,867.4h12.3v1.7h-12.3v-1.7ZM484.9,900.9h1.9v-5.6h5.2v-1.7h-5.2v-5.2h-1.9v5.2h-5.2v1.7h5.2v5.6ZM480,920h12.3v1.7h-12.3v-1.7ZM484.9,953.5h1.9v-5.5h5.2v-1.7h-5.2v-5.4h-1.9v5.4h-5.2v1.7h5.2v5.5ZM480,972.6h12.3v1.7h-12.3v-1.7ZM508.6,262.2h12.3v1.7h-12.3v-1.7h0ZM515.6,283.2h-1.7v5.3h-5.2v1.6h5.2v5.6h1.7v-5.6h5.2v-1.6h-5.2v-5.3ZM508.6,315.1h12.3v1.7h-12.3v-1.7h0ZM515.6,336h-1.7v5.2h-5.2v1.7h5.2v5.5h1.7v-5.5h5.2v-1.7h-5.2v-5.2ZM508.6,367.6h12.3v1.7h-12.3v-1.7h0ZM515.6,388.5h-1.7v5.3h-5.2v1.7h5.2v5.6h1.7v-5.6h5.2v-1.7h-5.2v-5.3ZM508.6,420.2h12.3v1.7h-12.3v-1.7h0ZM515.6,441.1h-1.7v5.2h-5.2v1.7h5.2v5.5h1.7v-5.5h5.2v-1.7h-5.2v-5.2ZM508.6,472.7h12.3v1.7h-12.3v-1.7h0ZM515.6,493.7h-1.7v5.2h-5.2v1.7h5.2v5.5h1.7v-5.5h5.2v-1.7h-5.2v-5.2ZM508.6,525.5h12.3v1.7h-12.3v-1.7h0ZM515.6,546.5h-1.7v5.2h-5.2v1.7h5.2v5.5h1.7v-5.5h5.2v-1.7h-5.2v-5.2ZM508.6,578.1h12.3v1.7h-12.3v-1.7h0ZM515.6,598.9h-1.7v5.4h-5.2v1.7h5.2v5.5h1.7v-5.5h5.2v-1.7h-5.2v-5.4ZM508.6,630.7h12.3v1.7h-12.3v-1.7h0ZM515.6,651.6h-1.7v5.2h-5.2v1.7h5.2v5.5h1.7v-5.5h5.2v-1.7h-5.2v-5.2ZM508.6,683.2h12.3v1.7h-12.3v-1.7h0ZM515.6,704.2h-1.7v5.2h-5.2v1.7h5.2v5.5h1.7v-5.5h5.2v-1.7h-5.2v-5.2ZM508.6,735.9h12.3v1.7h-12.3v-1.7h0ZM515.6,757h-1.7v5.2h-5.2v1.7h5.2v5.5h1.7v-5.5h5.2v-1.7h-5.2v-5.2ZM508.6,788.6h12.3v1.7h-12.3v-1.7h0ZM515.6,809.4h-1.7v5.2h-5.2v1.9h5.2v5.3h1.7v-5.3h5.2v-1.9h-5.2v-5.2ZM508.6,841h12.3v1.7h-12.3v-1.7h0ZM515.6,862h-1.7v5.3h-5.2v1.6h5.2v5.6h1.7v-5.6h5.2v-1.6h-5.2v-5.3ZM508.6,893.6h12.3v1.7h-12.3v-1.7h0ZM515.6,914.5h-1.7v5.2h-5.2v1.9h5.2v5.3h1.7v-5.3h5.2v-1.9h-5.2v-5.2ZM508.6,946.1h12.3v1.7h-12.3v-1.7h0ZM515.6,967.4h-1.7v5.2h-5.2v1.7h5.2v5.6h1.7v-5.6h5.2v-1.7h-5.2v-5.2ZM542.3,269.4h1.7v-5.3h5.2v-1.9h-5.2v-5.2h-1.7v5.2h-5.2v1.9h5.2v5.3ZM537.2,288.6h12.3v1.7h-12.3v-1.7ZM542.3,322h1.7v-5.5h5.2v-1.7h-5.2v-5.2h-1.7v5.2h-5.2v1.7h5.2v5.5ZM537.2,341.2h12.3v1.7h-12.3v-1.7ZM542.3,374.8h1.7v-5.5h5.2v-1.7h-5.2v-5.2h-1.7v5.2h-5.2v1.7h5.2v5.5ZM537.2,394h12.3v1.7h-12.3v-1.7ZM542.3,427.4h1.7v-5.5h5.2v-1.7h-5.2v-5.2h-1.7v5.2h-5.2v1.7h5.2v5.5ZM537.2,446.6h12.3v1.7h-12.3v-1.7ZM542.3,479.9h1.7v-5.4h5.2v-1.8h-5.2v-5.2h-1.7v5.2h-5.2v1.8h5.2v5.4ZM537.2,499.1h12.3v1.7h-12.3v-1.7ZM542.3,532.5h1.7v-5.5h5.2v-1.7h-5.2v-5.2h-1.7v5.2h-5.2v1.7h5.2v5.5ZM537.2,551.7h12.3v1.7h-12.3v-1.7ZM542.3,585h1.7v-5.4h5.2v-1.8h-5.2v-4.9h-1.7v5.2h-5.2v1.7h5.2v5.2ZM537.2,604.2h12.3v1.7h-12.3v-1.7ZM542.3,637.9h1.7v-5.5h5.2v-1.7h-5.2v-5.4h-1.7v5.4h-5.2v1.7h5.2v5.5ZM537.2,657.1h12.3v1.7h-12.3v-1.7ZM542.3,690.4h1.7v-5.4h5.2v-1.8h-5.2v-5.2h-1.7v5.2h-5.2v1.8h5.2v5.4ZM537.2,709.6h12.3v1.7h-12.3v-1.7ZM542.3,743h1.7v-5.5h5.2v-1.7h-5.2v-5.2h-1.7v5.2h-5.2v1.7h5.2v5.5ZM537.2,762.2h12.3v1.7h-12.3v-1.7ZM542.3,795.5h1.7v-5.4h5.2v-1.8h-5.2v-5.3h-1.7v5.3h-5.2v1.8h5.2v5.4ZM537.2,814.6h12.3v1.7h-12.3v-1.7ZM542.3,848.1h1.7v-5.5h5.2v-1.7h-5.2v-5.2h-1.7v5.2h-5.2v1.7h5.2v5.5ZM537.2,867.4h12.3v1.7h-12.3v-1.7ZM542.3,900.9h1.7v-5.6h5.2v-1.7h-5.2v-5.2h-1.7v5.2h-5.2v1.7h5.2v5.6ZM537.2,920h12.3v1.7h-12.3v-1.7ZM542.3,953.5h1.7v-5.5h5.2v-1.7h-5.2v-5.4h-1.7v5.4h-5.2v1.7h5.2v5.5ZM537.2,972.6h12.3v1.7h-12.3v-1.7ZM565.9,262.2h12.3v1.7h-12.3v-1.7ZM571.1,295.7h1.7v-5.6h5.3v-1.6h-5.3v-5.3h-1.7v5.3h-5.2v1.6h5.2v5.6ZM565.9,315.1h12.3v1.7h-12.3v-1.7ZM571.1,348.4h1.7v-5.5h5.3v-1.7h-5.3v-5.2h-1.7v5.2h-5.2v1.7h5.2v5.5ZM565.9,367.6h12.3v1.7h-12.3v-1.7ZM571.1,401.1h1.7v-5.6h5.3v-1.7h-5.3v-5.3h-1.7v5.3h-5.2v1.7h5.2v5.6ZM565.9,420.2h12.3v1.7h-12.3v-1.7ZM571.1,453.5h1.7v-5.5h5.3v-1.7h-5.3v-5.2h-1.7v5.2h-5.2v1.7h5.2v5.5ZM565.9,472.7h12.3v1.7h-12.3v-1.7ZM571.1,506.1h1.7v-5.5h5.3v-1.7h-5.3v-5.2h-1.7v5.2h-5.2v1.7h5.2v5.5ZM565.9,525.5h12.3v1.7h-12.3v-1.7ZM571.1,558.9h1.7v-5.5h5.3v-1.7h-5.3v-5.2h-1.7v5.2h-5.2v1.7h5.2v5.5ZM565.9,578.1h12.3v1.7h-12.3v-1.7ZM571.1,611.5h1.7v-5.5h5.3v-1.7h-5.3v-5.4h-1.7v5.4h-5.2v1.7h5.2v5.5ZM565.9,630.7h12.3v1.7h-12.3v-1.7ZM571.1,664h1.7v-5.5h5.3v-1.7h-5.3v-5.2h-1.7v5.2h-5.2v1.7h5.2v5.5ZM565.9,683.2h12.3v1.7h-12.3v-1.7ZM571.1,716.6h1.7v-5.5h5.3v-1.7h-5.3v-5.2h-1.7v5.2h-5.2v1.7h5.2v5.5ZM565.9,735.9h12.3v1.7h-12.3v-1.7ZM571.1,769.4h1.7v-5.5h5.3v-1.7h-5.3v-5.2h-1.7v5.2h-5.2v1.7h5.2v5.5ZM565.9,788.6h12.3v1.7h-12.3v-1.7ZM571.1,821.8h1.7v-5.3h5.3v-1.9h-5.3v-5.2h-1.7v5.2h-5.2v1.9h5.2v5.3ZM565.9,841h12.3v1.7h-12.3v-1.7ZM571.1,874.5h1.7v-5.6h5.3v-1.6h-5.3v-5.3h-1.7v5.3h-5.2v1.6h5.2v5.6ZM565.9,893.6h12.3v1.7h-12.3v-1.7ZM571.1,926.9h1.7v-5.3h5.3v-1.9h-5.3v-5.2h-1.7v5.2h-5.2v1.9h5.2v5.3ZM565.9,946.1h12.3v1.7h-12.3v-1.7ZM571.1,979.9h1.7v-5.6h5.3v-1.7h-5.3v-5.2h-1.7v5.2h-5.2v1.7h5.2v5.6Z"/>
    </clipPath>
    <linearGradient id="linear-gradient" x1="0" y1="502" x2="600" y2="502" gradientTransform="translate(0 1002) scale(1 -1)" gradientUnits="userSpaceOnUse">
      <stop offset="0" stop-color="#0092bc" stop-opacity="0"/>
      <stop offset="1" stop-color="#0092bc"/>
    </linearGradient>
  </defs>
  <!-- Generator: Adobe Illustrator 28.7.2, SVG Export Plug-In . SVG Version: 1.2.0 Build 154)  -->
  <g>
    <g id="Layer_1">
      <g class="cls-3">
        <rect class="cls-2" width="600" height="1000"/>
      </g>
    </g>
  </g>
</svg>